<svg width="24" height="24" viewBox="0 0 24 24" fill="none" xmlns="http://www.w3.org/2000/svg">
<path d="M18.5713 19.25C18.1571 19.25 17.8213 19.5858 17.8213 20C17.8213 20.4142 18.1571 20.75 18.5713 20.75V19.25ZM20.8573 13.143L20.327 12.6127C20.1863 12.7533 20.1073 12.9441 20.1073 13.143H20.8573ZM22.0003 12L22.5306 12.5303C22.6713 12.3897 22.7503 12.1989 22.7503 12C22.7503 11.8011 22.6713 11.6103 22.5306 11.4697L22.0003 12ZM20.8573 10.857H20.1073C20.1073 11.0559 20.1863 11.2467 20.327 11.3873L20.8573 10.857ZM20.8573 6.286H20.1073H20.8573ZM18.5713 3.25C18.1571 3.25 17.8213 3.58579 17.8213 4C17.8213 4.41421 18.1571 4.75 18.5713 4.75V3.25ZM18.5713 20.75C20.2473 20.75 21.6073 19.3914 21.6073 17.714H20.1073C20.1073 18.5626 19.4193 19.25 18.5713 19.25V20.75ZM21.6073 17.714V13.143H20.1073V17.714H21.6073ZM21.3876 13.6733L22.5306 12.5303L21.47 11.4697L20.327 12.6127L21.3876 13.6733ZM22.5306 11.4697L21.3876 10.3267L20.327 11.3873L21.47 12.5303L22.5306 11.4697ZM21.6073 10.857V6.286H20.1073V10.857H21.6073ZM21.6073 6.286C21.6073 4.60879 20.2485 3.25 18.5713 3.25V4.75C19.4201 4.75 20.1073 5.43721 20.1073 6.286H21.6073Z" fill="#8798A1"/>
<path d="M9 17L15 7" stroke="#8798A1" stroke-width="1.5" stroke-linecap="round" stroke-linejoin="round"/>
<path d="M5.429 4.75C5.84321 4.75 6.179 4.41421 6.179 4C6.179 3.58579 5.84321 3.25 5.429 3.25V4.75ZM3.143 10.857L3.67333 11.3873C3.81398 11.2467 3.893 11.0559 3.893 10.857H3.143ZM2 12L1.46967 11.4697C1.32902 11.6103 1.25 11.8011 1.25 12C1.25 12.1989 1.32902 12.3897 1.46967 12.5303L2 12ZM3.143 13.143H3.893C3.893 12.9441 3.81398 12.7533 3.67333 12.6127L3.143 13.143ZM3.143 17.714H2.393H3.143ZM5.429 20.75C5.84321 20.75 6.179 20.4142 6.179 20C6.179 19.5858 5.84321 19.25 5.429 19.25V20.75ZM5.429 3.25C3.75179 3.25 2.393 4.60879 2.393 6.286H3.893C3.893 5.43721 4.58021 4.75 5.429 4.75V3.25ZM2.393 6.286V10.857H3.893V6.286H2.393ZM2.61267 10.3267L1.46967 11.4697L2.53033 12.5303L3.67333 11.3873L2.61267 10.3267ZM1.46967 12.5303L2.61267 13.6733L3.67333 12.6127L2.53033 11.4697L1.46967 12.5303ZM2.393 13.143V17.714H3.893V13.143H2.393ZM2.393 17.714C2.393 19.3912 3.75179 20.75 5.429 20.75V19.25C4.58021 19.25 3.893 18.5628 3.893 17.714H2.393Z" fill="#8798A1"/>
</svg>
