<svg width="20" height="20" viewBox="0 0 20 20" fill="none" xmlns="http://www.w3.org/2000/svg">
<path d="M16.6249 3.67498C14.9582 1.92498 12.5999 0.833313 9.99986 0.833313C8.99986 0.833313 8.04153 0.991647 7.14153 1.28331C3.48319 2.49165 0.833191 5.94165 0.833191 9.99998C0.833191 10.1917 0.841525 10.375 0.849858 10.5583C1.14152 15.35 5.13319 19.1667 9.99986 19.1667C14.2832 19.1667 17.8999 16.2 18.8915 12.2166C19.0749 11.5083 19.1665 10.7667 19.1665 9.99998C19.1665 7.54998 18.1999 5.32498 16.6249 3.67498ZM9.99986 18.3333C5.45819 18.3333 1.75819 14.6833 1.66652 10.1666C1.85819 9.94998 1.90819 9.69998 1.93319 9.58332C2.00819 9.25832 1.90819 9.15832 1.95819 8.70831C1.97486 8.61665 2.00819 8.44165 2.09152 8.09165C2.29152 7.27498 2.33319 7.15831 2.41652 7.03331C2.57486 6.76665 2.84986 6.49164 2.97486 6.54998C3.04986 6.59164 3.07486 6.77498 3.02486 6.92498C2.93319 7.19998 2.64986 7.19998 2.57486 7.45831C2.54986 7.53331 2.57486 7.53332 2.64986 7.90832C2.73319 8.29998 2.78319 8.68332 2.78319 8.68332C2.78319 8.68332 2.79986 9.31664 2.84152 9.31664C2.86652 9.31664 2.84986 9.08331 2.94152 9.04998C3.04986 9.01665 3.24152 9.27498 3.34152 9.44998C3.47486 9.69165 3.52486 9.94998 3.55819 10.1167C3.59986 10.3417 3.57486 10.3833 3.63319 10.5166C3.65819 10.5666 3.74986 10.7583 3.95819 10.8833C4.07486 10.9583 4.09986 10.9333 4.40819 11.0166C4.63319 11.0833 4.76652 11.125 4.91652 11.2083C5.09152 11.3083 5.09986 11.3833 5.30819 11.575C5.71652 11.9583 5.89986 11.8917 5.97486 12.1083C6.05819 12.35 5.84153 12.4583 5.89986 12.8C5.94986 13.125 6.18319 13.3333 6.21652 13.3583C6.48319 13.5917 6.71653 13.5166 6.82486 13.7333C6.84986 13.7833 6.84986 13.9083 6.85819 14.1583V14.7416C6.79986 15.1583 6.61652 15.25 6.69152 15.4583C6.74986 15.625 6.87486 15.5916 6.95819 15.7833C7.09153 16.0583 6.89153 16.2667 7.01653 16.4166C7.14153 16.575 7.52486 16.5417 7.59986 16.3917C7.63319 16.3333 7.59153 16.2833 7.54986 16.075C7.49986 15.8583 7.47486 15.7167 7.51653 15.5917C7.58319 15.425 7.71652 15.475 7.94152 15.25C8.17486 15.025 8.31653 14.7166 8.31653 14.7166C8.31653 14.7166 8.35819 14.0916 8.53319 14.05C8.60819 14.0333 8.64153 14.1666 8.82486 14.2416C8.84153 14.25 9.10819 14.3416 9.27486 14.2083C9.44153 14.075 9.41652 13.8 9.40819 13.7583C9.38319 13.5416 9.26653 13.5 9.29986 13.3583C9.32486 13.2667 9.40819 13.2083 9.56653 13.0917C9.76653 12.95 9.82486 12.975 9.88319 12.8833C9.99986 12.7167 9.94986 12.425 9.83319 12.375C9.74986 12.3417 9.69153 12.4333 9.45819 12.5333C9.31653 12.6 9.00819 12.7333 8.84986 12.6167C8.75819 12.5417 8.80819 12.4583 8.71653 12.2166C8.64986 12.0583 8.56652 11.95 8.50819 11.875C8.35819 11.85 8.15819 11.8083 7.99986 11.7666C7.79986 11.7083 7.59986 11.6583 7.35819 11.525C7.15819 11.4166 7.14986 11.3666 6.99152 11.3166C6.79152 11.2416 6.60819 11.25 6.45819 11.2583C6.17486 11.275 6.15819 11.3333 5.97486 11.3166C5.74153 11.2833 5.57486 11.1583 5.49986 11.1C5.32486 10.9667 5.08319 10.7 5.14986 10.5416C5.17486 10.4833 5.22486 10.4917 5.36653 10.3833C5.47486 10.2917 5.59986 10.2 5.57486 10.1417C5.55819 10.075 5.32486 10.05 5.12486 10.1167C4.97486 10.1667 4.96653 10.2333 4.78319 10.3C4.64986 10.35 4.54152 10.3916 4.43319 10.3583C4.32486 10.3166 4.28319 10.2166 4.19152 10.0083C4.09152 9.75831 4.03319 9.63331 4.05819 9.53331C4.13319 9.26665 4.50819 9.15832 4.69986 9.13332C4.74986 9.12498 4.83319 9.12498 4.99152 9.13332C5.35819 9.13332 5.40819 9.17498 5.54986 9.15832C5.80819 9.13332 5.99153 8.99165 6.05819 8.94165C6.15819 8.86665 6.19152 8.81665 6.48319 8.38332C6.74986 7.99165 6.79986 7.93331 6.88319 7.85831C6.99986 7.74164 7.11653 7.63331 7.30819 7.56665C7.51653 7.48331 7.64152 7.53331 7.68319 7.45831C7.74153 7.31665 7.33319 7.03331 7.38319 6.94998C7.42486 6.89165 7.62486 7.02498 7.91653 7.00831C8.24153 6.98331 8.56653 6.78332 8.55819 6.63332C8.55819 6.59998 8.53319 6.56665 8.31653 6.41665C7.95819 6.17498 7.84986 6.14165 7.84153 6.04998C7.81653 5.90831 8.00819 5.86665 8.02486 5.67498C8.03319 5.53332 7.93319 5.49165 7.84153 5.24998C7.77486 5.08331 7.69986 4.87498 7.78319 4.74165C7.90819 4.56665 8.23319 4.70831 8.34153 4.53331C8.41653 4.40831 8.32486 4.22498 8.31653 4.20831C8.24153 4.05831 8.12486 4.09165 7.99986 3.94165C7.86653 3.79165 7.84152 3.60831 7.80819 3.38331C7.79152 3.19998 7.77486 3.09998 7.80819 3.01665C7.96652 2.64165 8.74986 2.63331 8.76653 2.69165C8.76653 2.73331 8.48319 2.79165 8.47486 2.93331C8.47486 3.00831 8.55819 3.04998 8.69153 3.17498C8.77486 3.25831 8.84986 3.35831 9.00819 3.57498C9.20819 3.84165 9.30819 3.98331 9.32486 4.07498C9.37486 4.29165 9.25819 4.34998 9.16653 4.76665C9.10819 5.05831 9.05819 5.32498 9.19152 5.54165C9.29152 5.69998 9.49153 5.83331 9.59153 5.78331C9.70819 5.72498 9.58319 5.48331 9.72486 5.19165C9.86653 4.92498 10.1415 4.79998 10.2082 4.76665C10.3915 4.68331 10.4165 4.74165 10.5749 4.66665C10.8665 4.52498 11.0082 4.23331 11.0582 4.13331C11.2249 3.78331 11.0915 3.68331 11.2415 3.46665C11.4499 3.18331 11.7999 3.19998 11.7999 3.04165C11.7999 2.93331 11.6332 2.84165 11.5582 2.79998C11.3582 2.69165 11.2582 2.75831 11.1665 2.66665C11.0249 2.53331 11.1665 2.29998 11.0582 2.19165C10.9499 2.08331 10.7332 2.19998 10.3415 2.29998C10.2999 2.30831 9.89986 2.39998 9.54152 2.39998C8.94986 2.40831 8.89153 2.16665 8.34153 2.16665C7.79153 2.16665 7.67486 2.40831 7.44153 2.29998C7.35819 2.25831 7.30819 2.19998 7.27486 2.12498C8.12486 1.82498 9.04152 1.66665 9.99986 1.66665C12.3665 1.66665 14.5082 2.65831 16.0249 4.24998C15.9165 4.40831 15.8665 4.53332 15.8582 4.64998C15.8582 4.70832 15.8332 5.03331 15.7249 5.04998C15.6415 5.06665 15.5999 4.85831 15.4082 4.78332C15.1749 4.69165 14.9082 4.86665 14.8749 4.89165C14.6665 5.02498 14.6915 5.14998 14.5249 5.20832C14.3082 5.29165 13.9999 5.15832 13.9665 4.99998C13.9415 4.84998 14.1582 4.76665 14.1249 4.64998C14.0832 4.49165 13.6165 4.41665 13.2499 4.56665C13.1832 4.59998 12.8332 4.74165 12.7499 5.04998C12.6915 5.24998 12.7915 5.33332 12.6915 5.49998C12.6332 5.60832 12.5332 5.67498 12.3499 5.79165C12.1499 5.92498 12.0915 5.92498 12.0832 5.98331C12.0582 6.10831 12.2999 6.16665 12.4499 6.45832C12.4999 6.55832 12.5749 6.69165 12.5332 6.83331C12.4915 6.96665 12.3415 7.05832 12.2165 7.10832C12.2165 7.16665 11.9665 7.35831 11.9499 7.64998C11.9499 7.80831 12.0165 7.86665 11.9665 7.94998C11.8999 8.08331 11.7165 8.00832 11.5249 8.14998C11.3999 8.24165 11.2749 8.43331 11.3332 8.57498C11.3915 8.72498 11.6415 8.77498 11.8082 8.71665C12.0165 8.64165 12.1249 8.39998 12.1499 8.34165C12.2082 8.19998 12.2082 8.09165 12.3082 8.02498C12.3249 8.00832 12.3999 7.96665 12.4832 7.99165C12.5499 8.00831 12.5749 8.05832 12.7165 8.23332C12.8165 8.36665 12.8415 8.38331 12.8582 8.37498C12.9415 8.36665 12.9082 8.10832 13.0499 8.02498C13.1915 7.94165 13.3332 8.12498 13.5499 8.05832C13.6249 8.03332 13.6165 8.00832 13.7749 7.88332C13.9082 7.78332 14.0832 7.64998 14.3082 7.59998C14.3999 7.57498 14.5415 7.54998 14.6999 7.59998C14.7582 7.61665 14.9082 7.66665 14.9999 7.80831C15.0165 7.83331 15.1499 8.03331 15.0749 8.16665C15.0165 8.26665 14.8999 8.20831 14.6499 8.30831C14.4499 8.38331 14.4582 8.44165 14.2582 8.51665C14.0415 8.59998 13.9415 8.56665 13.9165 8.62498C13.8832 8.73332 14.0832 8.97498 14.2915 8.98332C14.3999 8.98332 14.4499 8.91665 14.6665 8.89165C14.7582 8.88332 14.8415 8.87498 14.8582 8.90831C14.8999 8.97498 14.7582 9.17498 14.5582 9.26665C14.2999 9.38331 13.9999 9.28331 13.8332 9.23331C13.6499 9.16665 13.6165 9.12498 13.4582 9.10831C13.2499 9.08331 13.0665 9.14998 13.0332 9.15832C12.8082 9.24165 12.7415 9.35831 12.6415 9.31664C12.5582 9.28331 12.5915 9.17498 12.4832 9.10831C12.3499 9.01665 12.1832 9.12498 12.1332 9.04998C12.0749 8.97498 12.2332 8.83331 12.1832 8.76665C12.1165 8.68331 11.7332 8.81665 11.4749 9.04998C11.3915 9.13331 11.3249 9.20832 11.2999 9.24998C11.2249 9.34165 11.1582 9.44165 11.0665 9.63332C10.9415 9.89165 10.8749 10.0333 10.8332 10.2416C10.7915 10.4333 10.7332 10.7167 10.8749 10.825C10.9499 10.8916 11.0332 10.8333 11.1165 10.9166C11.1999 10.9917 11.1999 11.1083 11.2082 11.2833C11.2165 11.475 11.1832 11.5166 11.2249 11.5666C11.2832 11.6416 11.3999 11.625 11.5999 11.6083C11.8665 11.575 11.8832 11.525 12.0582 11.5333C12.1249 11.5416 12.0832 11.5416 12.3915 11.6083C12.5499 11.6333 12.6082 11.6417 12.6415 11.6917C12.7082 11.775 12.6665 11.9083 12.6582 11.925C12.5999 12.1 12.4249 12.125 12.4332 12.225C12.4332 12.2417 12.4415 12.275 12.6082 12.4C12.8082 12.55 12.8415 12.5333 12.9082 12.6167C13.0165 12.7333 13.0415 12.8833 13.0499 12.95C13.0749 13.0916 13.0499 13.2083 13.0332 13.2916C13.0082 13.425 12.9832 13.4166 12.9832 13.4833C12.9749 13.625 13.0665 13.6833 13.1749 13.9083C13.2415 14.05 13.2165 14.0333 13.2999 14.2333C13.4082 14.4666 13.4332 14.4583 13.4915 14.6166C13.5749 14.8416 13.5415 14.925 13.6165 14.975C13.7415 15.0583 13.9499 14.95 14.0415 14.9C14.0999 14.875 14.2499 14.8 14.3665 14.6333C14.4915 14.4583 14.4499 14.3666 14.5749 14.2666C14.6749 14.1916 14.7249 14.2166 14.8249 14.125C14.8832 14.0666 14.9082 14.0083 14.9665 13.8917C15.0332 13.7583 15.0665 13.65 15.0915 13.5583C15.1249 13.45 15.1415 13.3916 15.1415 13.3416C15.1665 13.1666 15.1249 13.0166 15.0915 12.9C15.0415 12.7333 15.0165 12.75 15.0165 12.6833C15.0165 12.5333 15.1665 12.425 15.4832 12.2083C16.0165 11.8416 16.1749 11.7666 16.2249 11.5666C16.2332 11.525 16.2665 11.375 16.1915 11.25C16.1249 11.15 16.0165 11.1417 15.6582 11.0417C15.2249 10.9167 15.1582 10.8666 15.1082 10.8083C15.0082 10.6833 14.9915 10.5333 14.9832 10.4333C14.9832 10.4 14.9582 10.1583 15.0415 10.1333C15.0749 10.1166 15.1082 10.1666 15.2332 10.2583C15.2832 10.2916 15.3749 10.35 15.5499 10.45C15.7082 10.5416 15.7915 10.5916 15.8332 10.6083C15.9415 10.6583 16.2165 10.775 16.4915 10.6833C16.5832 10.65 16.6582 10.5916 16.8082 10.4666C16.9665 10.3416 17.0582 10.2666 17.0582 10.1666C17.0582 10.075 16.9749 10.0083 16.8999 9.94164C16.7415 9.79998 16.5332 9.73331 16.3332 9.65831C16.2832 9.64165 16.2165 9.61665 16.1582 9.54998C16.1332 9.52498 16.0415 9.43332 16.0665 9.33331C16.0915 9.22498 16.2499 9.17498 16.3165 9.15832C16.4332 9.12498 16.5332 9.13331 16.5582 9.14165C16.9832 9.19998 17.1082 9.54165 17.4499 9.54998C17.6832 9.54998 17.8249 9.39165 17.9249 9.47498C17.9749 9.51665 17.9832 9.59998 18.0165 9.75832C18.0415 9.91665 18.0582 9.99998 18.0499 10.0666C18.0249 10.3166 17.7749 10.3333 17.7332 10.5416C17.6915 10.7583 17.9249 10.8333 18.0332 11.2333C18.1165 11.5416 17.9999 11.6 18.0832 11.7833C18.0915 11.8083 18.1082 11.8333 18.1249 11.85C17.2832 15.5583 13.9582 18.3333 9.99986 18.3333Z" fill="#C8D3D9"/>
</svg>
