<svg width="26" height="29" viewBox="0 0 26 29" fill="none" xmlns="http://www.w3.org/2000/svg">
<g filter="url(#filter0_d_6120_133909)">
<path d="M10 8.99994L16 14.9999" stroke="#8798A1" stroke-miterlimit="10" stroke-linecap="round"/>
<path d="M10 14.9999L16 8.99994" stroke="#8798A1" stroke-miterlimit="10" stroke-linecap="round"/>
<path d="M13 4C17.41 4 21 7.59 21 12C21 16.41 17.41 20 13 20C8.59 20 5 16.41 5 12C5 7.59 8.59 4 13 4ZM13 3C8.03 3 4 7.03 4 12C4 16.97 8.03 21 13 21C17.97 21 22 16.97 22 12C22 7.03 17.97 3 13 3Z" fill="#8798A1"/>
</g>
<defs>
<filter id="filter0_d_6120_133909" x="-3" y="0" width="32" height="32" filterUnits="userSpaceOnUse" color-interpolation-filters="sRGB">
<feFlood flood-opacity="0" result="BackgroundImageFix"/>
<feColorMatrix in="SourceAlpha" type="matrix" values="0 0 0 0 0 0 0 0 0 0 0 0 0 0 0 0 0 0 127 0" result="hardAlpha"/>
<feOffset dy="4"/>
<feGaussianBlur stdDeviation="2"/>
<feComposite in2="hardAlpha" operator="out"/>
<feColorMatrix type="matrix" values="0 0 0 0 0 0 0 0 0 0 0 0 0 0 0 0 0 0 0.25 0"/>
<feBlend mode="normal" in2="BackgroundImageFix" result="effect1_dropShadow_6120_133909"/>
<feBlend mode="normal" in="SourceGraphic" in2="effect1_dropShadow_6120_133909" result="shape"/>
</filter>
</defs>
</svg>
