<svg width="24" height="24" viewBox="0 0 24 24" fill="none" xmlns="http://www.w3.org/2000/svg">
<path d="M20.5029 3.49789C20.1803 3.17888 19.7449 3 19.2913 3C18.8376 3 18.4023 3.17888 18.0796 3.49789L16.8958 4.68231C16.7738 4.66643 16.6508 4.65851 16.5277 4.65858H5.81517C5.07001 4.65922 4.35545 4.95513 3.82786 5.4816C3.30027 6.00807 3.0026 6.72224 3 7.46776V18.1831C3.00108 18.9297 3.29803 19.6454 3.82574 20.1734C4.35345 20.7014 5.06887 20.9985 5.81517 20.9996H16.5252C17.2708 20.9983 17.9853 20.7009 18.5118 20.1728C19.0383 19.6446 19.3337 18.929 19.333 18.1831V7.46776C19.3333 7.35245 19.3251 7.23725 19.3085 7.12314V7.11495L19.3567 7.06749L20.5021 5.93138C20.821 5.60683 20.9998 5.16992 21 4.71478C21.0002 4.25964 20.8216 3.82265 20.5029 3.49789ZM18.5394 18.1831C18.5394 18.7165 18.3281 19.2281 17.9518 19.606C17.5755 19.9838 17.0649 20.1971 16.5318 20.199H5.81517C5.28074 20.1988 4.76825 19.9864 4.39027 19.6084C4.01229 19.2304 3.79976 18.7177 3.79932 18.1831V7.46776C3.80149 6.93428 4.0148 6.42334 4.39262 6.04688C4.77043 5.67042 5.28194 5.45906 5.81517 5.45907H16.1235L9.4149 12.171C9.39854 12.2029 9.37482 12.243 9.35845 12.2749L8.90275 13.3636L8.11082 15.2683C8.08031 15.3421 8.06844 15.4223 8.07627 15.5018C8.08409 15.5813 8.11139 15.6576 8.15571 15.724C8.20003 15.7904 8.26002 15.8449 8.33038 15.8827C8.40075 15.9204 8.47932 15.9401 8.55916 15.9403C8.62518 15.9416 8.69065 15.9279 8.7506 15.9002L10.6544 15.1078L11.7343 14.6601C11.7711 14.6425 11.8059 14.6211 11.8382 14.5963L18.4772 7.95396L18.5411 7.8983L18.5394 18.1831ZM19.819 5.25034L18.9796 6.091L18.3791 6.69095L11.5568 13.5257L11.1477 13.9251C11.0779 13.9931 10.9953 14.0465 10.9047 14.0823C10.8142 14.1182 10.7174 14.1357 10.62 14.1338C10.5719 14.1352 10.5237 14.1324 10.476 14.1256C10.3321 14.0953 10.1993 14.026 10.0923 13.9251C9.98488 13.8185 9.9124 13.6818 9.88451 13.533C9.86039 13.4125 9.86677 13.288 9.90306 13.1706C9.93935 13.0532 10.0044 12.9468 10.0923 12.861L10.4924 12.4607L17.3229 5.61869L18.7546 4.18627C18.8972 4.04445 19.0895 3.96398 19.2905 3.962C19.4891 3.9641 19.6788 4.04471 19.8182 4.18627C19.8897 4.25526 19.9466 4.33801 19.9853 4.42957C20.024 4.52113 20.0439 4.61961 20.0436 4.71903C20.0433 4.81845 20.0228 4.91677 19.9835 5.00809C19.9442 5.09941 19.8869 5.1818 19.8149 5.25034H19.819Z" fill="#8798A1"/>
</svg>
