<svg width="113" height="107" viewBox="0 0 113 107" fill="none" xmlns="http://www.w3.org/2000/svg">
<g filter="url(#filter0_d_3166_12070)">
<path d="M103.708 50.4063C103.694 63.1784 98.7426 75.4505 89.8898 84.6568C81.0371 93.8632 68.9683 99.291 56.2066 99.8056C43.4448 100.32 30.9781 95.8817 21.4129 87.418C11.8477 78.9543 5.92447 67.1208 4.88157 54.3913C3.83868 41.6618 7.75687 29.0219 15.817 19.1143C23.8771 9.2066 35.4551 2.79817 48.1304 1.22876C60.8057 -0.34064 73.5971 3.05049 83.8302 10.6932C94.0633 18.3359 100.946 29.6384 103.039 42.2378C103.487 44.9376 103.711 47.6697 103.708 50.4063Z" fill="#F4F7FB"/>
</g>
<path d="M11.5373 13.4905C12.3888 14.342 12.9687 15.427 13.2037 16.6081C13.4386 17.7892 13.318 19.0135 12.8572 20.1261C12.3963 21.2387 11.6159 22.1897 10.6145 22.8587C9.61323 23.5278 8.43601 23.8849 7.23174 23.8849C6.02747 23.8849 4.85025 23.5278 3.84894 22.8587C2.84762 22.1897 2.06719 21.2387 1.60633 20.1261C1.14547 19.0135 1.02488 17.7892 1.25981 16.6081C1.49474 15.427 2.07464 14.342 2.92617 13.4905C3.49158 12.9251 4.16283 12.4765 4.90158 12.1705C5.64033 11.8645 6.43212 11.707 7.23174 11.707C8.03136 11.707 8.82315 11.8645 9.5619 12.1705C10.3007 12.4765 10.9719 12.9251 11.5373 13.4905Z" fill="#F4F7FB"/>
<path d="M11.5373 13.4905C12.3888 14.342 12.9687 15.427 13.2037 16.6081C13.4386 17.7892 13.318 19.0135 12.8572 20.1261C12.3963 21.2387 11.6159 22.1897 10.6145 22.8587C9.61323 23.5278 8.43601 23.8849 7.23174 23.8849C6.02747 23.8849 4.85025 23.5278 3.84894 22.8587C2.84762 22.1897 2.06719 21.2387 1.60633 20.1261C1.14547 19.0135 1.02488 17.7892 1.25981 16.6081C1.49474 15.427 2.07464 14.342 2.92617 13.4905C3.49158 12.9251 4.16283 12.4765 4.90158 12.1705C5.64033 11.8645 6.43212 11.707 7.23174 11.707C8.03136 11.707 8.82315 11.8645 9.5619 12.1705C10.3007 12.4765 10.9719 12.9251 11.5373 13.4905Z" stroke="#F4F7FB" stroke-width="1.34961" stroke-miterlimit="10"/>
<path d="M18.0818 8.95522C18.428 9.30205 18.6636 9.74371 18.7588 10.2244C18.854 10.705 18.8047 11.2032 18.6169 11.6558C18.4292 12.1084 18.1115 12.4952 17.704 12.7673C17.2965 13.0395 16.8175 13.1847 16.3275 13.1847C15.8375 13.1847 15.3584 13.0395 14.9509 12.7673C14.5434 12.4952 14.2258 12.1084 14.038 11.6558C13.8503 11.2032 13.8009 10.705 13.8961 10.2244C13.9914 9.74371 14.227 9.30205 14.5731 8.95522C14.8033 8.72455 15.0768 8.54154 15.3778 8.41668C15.6789 8.29181 16.0016 8.22754 16.3275 8.22754C16.6534 8.22754 16.9761 8.29181 17.2771 8.41668C17.5781 8.54154 17.8516 8.72455 18.0818 8.95522Z" fill="#F4F7FB"/>
<path d="M18.0818 8.95522C18.428 9.30205 18.6636 9.74371 18.7588 10.2244C18.854 10.705 18.8047 11.2032 18.6169 11.6558C18.4292 12.1084 18.1115 12.4952 17.704 12.7673C17.2965 13.0395 16.8175 13.1847 16.3275 13.1847C15.8375 13.1847 15.3584 13.0395 14.9509 12.7673C14.5434 12.4952 14.2258 12.1084 14.038 11.6558C13.8503 11.2032 13.8009 10.705 13.8961 10.2244C13.9914 9.74371 14.227 9.30205 14.5731 8.95522C14.8033 8.72455 15.0768 8.54154 15.3778 8.41668C15.6789 8.29181 16.0016 8.22754 16.3275 8.22754C16.6534 8.22754 16.9761 8.29181 17.2771 8.41668C17.5781 8.54154 17.8516 8.72455 18.0818 8.95522V8.95522Z" stroke="#F4F7FB" stroke-width="1.34961" stroke-miterlimit="10"/>
<path d="M110.998 45.6085C111.344 45.9554 111.58 46.397 111.675 46.8777C111.77 47.3584 111.721 47.8565 111.533 48.3091C111.345 48.7617 111.028 49.1485 110.62 49.4207C110.213 49.6928 109.734 49.8381 109.244 49.8381C108.754 49.8381 108.275 49.6928 107.867 49.4207C107.46 49.1485 107.142 48.7617 106.954 48.3091C106.766 47.8565 106.717 47.3584 106.812 46.8777C106.908 46.397 107.143 45.9554 107.489 45.6085C107.719 45.3779 107.993 45.1949 108.294 45.07C108.595 44.9451 108.918 44.8809 109.244 44.8809C109.57 44.8809 109.892 44.9451 110.193 45.07C110.494 45.1949 110.768 45.3779 110.998 45.6085Z" fill="#F4F7FB"/>
<path d="M110.998 45.6085C111.344 45.9554 111.58 46.397 111.675 46.8777C111.77 47.3584 111.721 47.8565 111.533 48.3091C111.345 48.7617 111.028 49.1485 110.62 49.4207C110.213 49.6928 109.734 49.8381 109.244 49.8381C108.754 49.8381 108.275 49.6928 107.867 49.4207C107.46 49.1485 107.142 48.7617 106.954 48.3091C106.766 47.8565 106.717 47.3584 106.812 46.8777C106.908 46.397 107.143 45.9554 107.489 45.6085C107.719 45.3779 107.993 45.1949 108.294 45.07C108.595 44.9451 108.918 44.8809 109.244 44.8809C109.57 44.8809 109.892 44.9451 110.193 45.07C110.494 45.1949 110.768 45.3779 110.998 45.6085V45.6085Z" stroke="#F4F7FB" stroke-width="1.34961" stroke-miterlimit="10"/>
<g filter="url(#filter1_d_3166_12070)">
<path d="M82.5708 18.0256C82.5708 19.0845 82.2568 20.1196 81.6685 21C81.0803 21.8805 80.2441 22.5667 79.2659 22.9719C78.2876 23.3771 77.2111 23.4831 76.1726 23.2765C75.1341 23.07 74.1801 22.5601 73.4314 21.8113C72.6826 21.0626 72.1727 20.1086 71.9662 19.0701C71.7596 18.0316 71.8656 16.9551 72.2708 15.9768C72.676 14.9986 73.3622 14.1624 74.2427 13.5741C75.1231 12.9859 76.1582 12.6719 77.2171 12.6719C78.637 12.6719 79.9987 13.2359 81.0027 14.24C82.0068 15.244 82.5708 16.6057 82.5708 18.0256V18.0256Z" stroke="#C8D3D9" stroke-width="2.81169" stroke-linecap="round" stroke-linejoin="round"/>
</g>
<g filter="url(#filter2_d_3166_12070)">
<path d="M80.7863 14.6562L73.8462 21.5963" stroke="#C8D3D9" stroke-width="2.81169" stroke-linecap="round" stroke-linejoin="round"/>
</g>
<g filter="url(#filter3_d_3166_12070)">
<path d="M88.5849 88.3615C88.7446 88.5212 88.8713 88.7108 88.9578 88.9195C89.0442 89.1281 89.0887 89.3518 89.0887 89.5776C89.0888 89.8035 89.0443 90.0271 88.9579 90.2358C88.8715 90.4445 88.7448 90.6341 88.5851 90.7938C88.4254 90.9535 88.2359 91.0802 88.0272 91.1667C87.8185 91.2531 87.5949 91.2976 87.3691 91.2976C87.1432 91.2977 86.9196 91.2532 86.7109 91.1668C86.5022 91.0804 86.3126 90.9537 86.1529 90.794L80.8933 85.5335L75.6342 90.794C75.4745 90.9537 75.2849 91.0804 75.0762 91.1668C74.8676 91.2532 74.6439 91.2977 74.418 91.2976C74.1922 91.2976 73.9686 91.2531 73.7599 91.1667C73.5512 91.0802 73.3617 90.9535 73.202 90.7938C73.0423 90.6341 72.9156 90.4445 72.8292 90.2358C72.7428 90.0271 72.6983 89.8035 72.6984 89.5776C72.6984 89.3518 72.7429 89.1281 72.8293 88.9195C72.9158 88.7108 73.0425 88.5212 73.2022 88.3615L78.4618 83.101L73.2022 77.8404C72.8797 77.5179 72.6984 77.0805 72.6984 76.6243C72.6983 76.1682 72.8795 75.7307 73.202 75.4082C73.5245 75.0856 73.9619 74.9043 74.418 74.9043C74.8742 74.9043 75.3116 75.0854 75.6342 75.4079L80.8933 80.6685L86.1529 75.4079C86.4755 75.0854 86.9129 74.9043 87.3691 74.9043C87.8252 74.9043 88.2626 75.0856 88.5851 75.4082C88.9076 75.7307 89.0888 76.1682 89.0887 76.6243C89.0887 77.0805 88.9074 77.5179 88.5849 77.8404L83.3253 83.101L88.5849 88.3615Z" fill="white"/>
</g>
<g filter="url(#filter4_d_3166_12070)">
<path d="M26.0118 31.778L24.2119 46.4889C24.0775 47.5438 22.7327 48.3404 21.191 48.3404C19.6597 48.3404 18.3049 47.5438 18.1701 46.4889L16.3701 31.778C15.9978 28.757 18.1497 25.9121 21.191 25.9121C24.2426 25.9121 26.3841 28.757 26.0118 31.778Z" fill="white"/>
</g>
<path d="M26.0109 31.7789L24.2109 46.4899C24.0766 47.5448 22.7317 48.3414 21.19 48.3414C19.6587 48.3414 18.3039 47.5448 18.1691 46.4899L16.3691 31.7789C15.9968 28.758 18.1488 25.9131 21.19 25.9131C24.2436 25.9131 26.3832 28.758 26.0109 31.7789Z" stroke="white" stroke-width="0.82945" stroke-miterlimit="10"/>
<g filter="url(#filter5_d_3166_12070)">
<path d="M23.9739 53.2439C23.9739 53.7943 23.8107 54.3324 23.5049 54.79C23.1991 55.2477 22.7644 55.6044 22.2559 55.815C21.7474 56.0257 21.1878 56.0808 20.648 55.9734C20.1082 55.866 19.6123 55.601 19.2231 55.2118C18.8339 54.8226 18.5688 54.3267 18.4614 53.7868C18.3541 53.247 18.4092 52.6874 18.6198 52.1789C18.8304 51.6704 19.1871 51.2358 19.6448 50.93C20.1025 50.6242 20.6405 50.4609 21.1909 50.4609C21.5566 50.46 21.9189 50.5314 22.257 50.6709C22.5951 50.8105 22.9022 51.0154 23.1608 51.274C23.4194 51.5326 23.6244 51.8398 23.7639 52.1778C23.9035 52.5159 23.9748 52.8782 23.9739 53.2439Z" fill="white"/>
</g>
<path d="M23.9729 53.2449C23.9729 53.7953 23.8097 54.3334 23.5039 54.791C23.1981 55.2487 22.7635 55.6054 22.2549 55.816C21.7464 56.0266 21.1869 56.0818 20.647 55.9744C20.1072 55.867 19.6113 55.6019 19.2221 55.2127C18.8329 54.8235 18.5678 54.3277 18.4605 53.7878C18.3531 53.248 18.4082 52.6884 18.6188 52.1799C18.8295 51.6714 19.1862 51.2367 19.6438 50.9309C20.1015 50.6251 20.6395 50.4619 21.19 50.4619C21.5557 50.461 21.918 50.5324 22.256 50.6719C22.5941 50.8114 22.9012 51.0164 23.1598 51.275C23.4185 51.5336 23.6234 51.8408 23.7629 52.1788C23.9025 52.5169 23.9738 52.8792 23.9729 53.2449Z" stroke="white" stroke-width="0.82945" stroke-miterlimit="10"/>
<g filter="url(#filter6_d_3166_12070)">
<path d="M55.0992 19.9424C49.4095 19.9429 43.8476 21.6305 39.1169 24.7919C34.3863 27.9532 30.6992 32.4464 28.5221 37.7031C26.3449 42.9599 25.7754 48.7442 26.8856 54.3246C27.9957 59.905 30.7356 65.031 34.7589 69.0542C38.7822 73.0775 43.9081 75.8174 49.4885 76.9276C55.069 78.0377 60.8533 77.4682 66.11 75.2911C71.3668 73.1139 75.8599 69.4269 79.0213 64.6962C82.1826 59.9655 83.8703 54.4037 83.8708 48.7139C83.8629 41.0856 80.8291 33.7721 75.4351 28.3781C70.0411 22.9841 62.7275 19.9503 55.0992 19.9424ZM55.0992 71.5319C50.5858 71.5314 46.1738 70.1925 42.4213 67.6846C38.6688 65.1766 35.7442 61.6122 34.0174 57.4421C32.2907 53.2721 31.8392 48.6836 32.7203 44.257C33.6013 39.8303 35.7751 35.7644 38.967 32.5732C42.1588 29.3821 46.2253 27.2091 50.6521 26.329C55.0789 25.449 59.6673 25.9014 63.837 27.6291C68.0067 29.3567 71.5704 32.2821 74.0776 36.0352C76.5847 39.7882 77.9226 44.2005 77.9221 48.7139C77.9141 54.764 75.5069 60.5639 71.2283 64.8416C66.9498 69.1192 61.1493 71.5252 55.0992 71.5319Z" fill="white"/>
</g>
<path d="M77.9211 48.7155C77.9211 53.2294 76.5826 57.642 74.0747 61.3952C71.5669 65.1484 68.0025 68.0737 63.8321 69.8011C59.6618 71.5285 55.0729 71.9805 50.6457 71.0999C46.2184 70.2192 42.1518 68.0456 38.96 64.8537C35.7681 61.6619 33.5944 57.5952 32.7138 53.168C31.8332 48.7408 32.2852 44.1519 34.0126 39.9815C35.74 35.8112 38.6653 32.2467 42.4185 29.7389C46.1717 27.2311 50.5842 25.8926 55.0982 25.8926C61.1494 25.8985 66.951 28.3049 71.2299 32.5838C75.5087 36.8626 77.9152 42.6643 77.9211 48.7155Z" fill="#F4F7FB"/>
<path d="M37.5784 58.6047C37.5046 58.6047 37.4321 58.5851 37.3683 58.548C37.3045 58.5109 37.2516 58.4576 37.215 58.3934C37.1785 58.3293 37.1596 58.2566 37.1602 58.1828C37.1608 58.109 37.1809 58.0367 37.2185 57.9731L38.7275 55.4187C38.7554 55.3714 38.7924 55.33 38.8363 55.297C38.8802 55.2639 38.9302 55.2399 38.9834 55.2261C39.0366 55.2124 39.092 55.2093 39.1464 55.217C39.2009 55.2247 39.2532 55.243 39.3006 55.271C39.3479 55.2989 39.3892 55.3359 39.4223 55.3798C39.4553 55.4237 39.4794 55.4737 39.4931 55.5269C39.5068 55.5801 39.5099 55.6355 39.5022 55.6899C39.4945 55.7443 39.4762 55.7967 39.4483 55.844L37.9393 58.3985C37.9023 58.4613 37.8496 58.5134 37.7863 58.5495C37.723 58.5857 37.6513 58.6047 37.5784 58.6047Z" fill="#C8D3D9"/>
<path d="M39.1489 58.6039C39.0751 58.6037 39.0027 58.584 38.9389 58.5468C38.8752 58.5096 38.8224 58.4562 38.786 58.3921C38.7495 58.3279 38.7306 58.2553 38.7312 58.1815C38.7318 58.1077 38.7519 58.0354 38.7895 57.9719L40.299 55.4174C40.3263 55.3688 40.363 55.3262 40.4071 55.292C40.4511 55.2578 40.5015 55.2328 40.5553 55.2184C40.6091 55.2039 40.6653 55.2004 40.7205 55.208C40.7758 55.2156 40.8289 55.2341 40.8769 55.2625C40.9248 55.2909 40.9666 55.3286 40.9998 55.3734C41.033 55.4182 41.0569 55.4691 41.0701 55.5233C41.0833 55.5774 41.0856 55.6337 41.0768 55.6887C41.0679 55.7437 41.0482 55.7964 41.0187 55.8437L39.5118 58.3982C39.4748 58.4609 39.4222 58.5129 39.3589 58.549C39.2957 58.5851 39.2242 58.604 39.1514 58.6039" fill="#C8D3D9"/>
<path d="M40.8997 58.6043C40.826 58.6041 40.7535 58.5844 40.6898 58.5472C40.6261 58.51 40.5733 58.4566 40.5368 58.3925C40.5003 58.3283 40.4814 58.2557 40.4821 58.1819C40.4827 58.1081 40.5028 58.0358 40.5404 57.9723L42.0498 55.4178C42.1076 55.325 42.1995 55.2586 42.3057 55.2326C42.4119 55.2067 42.5241 55.2234 42.6181 55.2791C42.7122 55.3348 42.7807 55.4252 42.809 55.5308C42.8373 55.6364 42.8232 55.7489 42.7696 55.8442L41.2601 58.3986C41.2232 58.4613 41.1705 58.5133 41.1073 58.5494C41.0441 58.5855 40.9725 58.6044 40.8997 58.6043Z" fill="#C8D3D9"/>
<path d="M42.8964 52.4205C42.5896 52.4201 42.2834 52.39 41.9823 52.3308C41.1017 52.1206 40.2777 51.7205 39.5678 51.1585C38.858 50.5966 38.2795 49.8863 37.8728 49.0774C37.5723 48.566 37.3908 47.9936 37.3417 47.4024C37.2927 46.8113 37.3775 46.2168 37.5898 45.6629C38.082 44.5981 39.3159 43.7544 40.8119 43.4624C41.4107 43.3087 42.037 43.2966 42.6412 43.427C43.2454 43.5575 43.8109 43.8269 44.2929 44.2139C45.2759 45.1345 45.7483 47.0192 44.8545 48.251C44.3695 48.887 43.6529 49.3057 42.8608 49.416C42.6162 49.4537 42.3665 49.4388 42.1282 49.3724C41.8899 49.306 41.6685 49.1895 41.4787 49.0308C41.1895 48.7303 40.9899 48.3551 40.9023 47.9473C40.8147 47.5396 40.8427 47.1155 40.983 46.7227C41.0327 46.5525 41.1472 46.4085 41.302 46.3218C41.4567 46.2351 41.6393 46.2126 41.8105 46.2591C41.9816 46.3056 42.1277 46.4174 42.2173 46.5705C42.307 46.7235 42.3329 46.9057 42.2897 47.0777C42.2284 47.2282 42.2034 47.3911 42.2169 47.5531C42.2303 47.7152 42.2817 47.8717 42.367 48.0101C42.4689 48.0708 42.5895 48.0922 42.7061 48.0701C43.1209 48.0046 43.4959 47.7853 43.7565 47.4559C44.2081 46.8333 43.9122 45.714 43.3659 45.2029C43.0384 44.9668 42.6621 44.8074 42.2648 44.7362C41.8675 44.6651 41.4592 44.6841 41.0702 44.7919C40.0292 44.9957 39.1235 45.5737 38.8197 46.2295C38.6963 46.5976 38.6556 46.9883 38.7005 47.3739C38.7454 47.7594 38.8748 48.1304 39.0794 48.4602C39.3904 49.0881 39.8344 49.6407 40.3807 50.0795C40.927 50.5182 41.5624 50.8326 42.2426 51.0008C42.8309 51.0918 43.4319 51.057 44.0058 50.8989C44.5797 50.7407 45.1136 50.4627 45.5723 50.0832C46.1274 49.6683 46.5892 49.1414 46.9276 48.5366C47.266 47.9318 47.4736 47.2627 47.5369 46.5725C47.5839 45.7145 47.3832 44.8611 46.9587 44.114C46.5342 43.3669 45.9037 42.7577 45.1425 42.3589C43.0209 41.2837 40.9215 42.4784 40.8333 42.5304C40.6782 42.6171 40.4953 42.6395 40.3239 42.5927C40.1526 42.5458 40.0064 42.4336 39.917 42.2801C39.8276 42.1266 39.802 41.9441 39.8458 41.7719C39.8896 41.5998 39.9993 41.4517 40.1512 41.3596C40.4377 41.1925 43.0263 39.7688 45.7528 41.1504C46.7484 41.6705 47.5733 42.4662 48.1291 43.4424C48.6848 44.4186 48.9478 45.5342 48.8867 46.6558C48.811 47.5385 48.5504 48.3954 48.1218 49.1708C47.6933 49.9462 47.1063 50.6227 46.3992 51.1565C45.4026 51.9528 44.1704 52.3969 42.895 52.4195" fill="#C8D3D9"/>
<path d="M67.802 52.42C66.5265 52.3973 65.2944 51.9532 64.2978 51.1569C63.5906 50.6232 63.0037 49.9466 62.5751 49.1712C62.1466 48.3959 61.886 47.539 61.8102 46.6563C61.7489 45.5348 62.0116 44.4194 62.567 43.4432C63.1223 42.467 63.9469 41.6712 64.9422 41.1508C67.6686 39.7682 70.2588 41.1929 70.5438 41.36C70.6957 41.4521 70.8054 41.6002 70.8492 41.7724C70.8929 41.9445 70.8674 42.127 70.778 42.2805C70.6885 42.434 70.5424 42.5463 70.371 42.5931C70.1997 42.6399 70.0168 42.6176 69.8617 42.5309C69.773 42.4783 67.6756 41.2832 65.5524 42.3594C64.7912 42.7581 64.1608 43.3673 63.7363 44.1144C63.3118 44.8615 63.1111 45.715 63.1581 46.573C63.2214 47.2631 63.4289 47.9323 63.7674 48.537C64.1058 49.1418 64.5675 49.6687 65.1226 50.0837C65.5813 50.4632 66.1152 50.7411 66.6892 50.8993C67.2631 51.0575 67.864 51.0922 68.4524 51.0012C69.133 50.8339 69.769 50.5202 70.316 50.082C70.863 49.6437 71.3078 49.0914 71.6195 48.4637C71.8243 48.1338 71.9537 47.7629 71.9986 47.3773C72.0435 46.9917 72.0027 46.601 71.8793 46.2329C71.5754 45.5751 70.6712 44.9971 69.6287 44.7953C69.2398 44.6877 68.8316 44.6687 68.4344 44.7398C68.0372 44.8109 67.661 44.9704 67.3335 45.2063C66.7883 45.7174 66.4908 46.8362 66.9424 47.4598C67.2032 47.7889 67.5781 48.008 67.9929 48.0735C68.1094 48.0956 68.23 48.0742 68.3319 48.0135C68.4172 47.8751 68.4686 47.7186 68.482 47.5566C68.4955 47.3946 68.4705 47.2317 68.4093 47.0811C68.366 46.9091 68.392 46.727 68.4816 46.5739C68.5712 46.4208 68.7173 46.309 68.8885 46.2625C69.0596 46.216 69.2422 46.2385 69.397 46.3252C69.5517 46.4119 69.6662 46.5559 69.716 46.7262C69.8563 47.1189 69.8842 47.543 69.7966 47.9507C69.7091 48.3585 69.5094 48.7337 69.2203 49.0342C69.0305 49.1929 68.8091 49.3094 68.5707 49.3758C68.3324 49.4422 68.0827 49.4571 67.8382 49.4194C67.0459 49.3089 66.3293 48.8903 65.8439 48.2545C64.9516 47.0216 65.4235 45.1374 66.4066 44.2173C66.8888 43.8311 67.4541 43.5621 68.058 43.4317C68.6619 43.3013 69.2879 43.313 69.8865 43.4658C71.3806 43.7578 72.613 44.601 73.1087 45.6668C73.3209 46.2206 73.4057 46.8151 73.3567 47.4061C73.3077 47.9971 73.1262 48.5696 72.8256 49.0808C72.4189 49.8897 71.8405 50.6 71.1306 51.1619C70.4208 51.7239 69.5967 52.124 68.7161 52.3342C68.4149 52.3928 68.1088 52.4222 67.802 52.422" fill="#C8D3D9"/>
<path d="M52.9046 60.5859C53.0638 60.5862 53.2207 60.5487 53.3624 60.4765C53.5042 60.4043 53.6268 60.2994 53.7201 60.1705C53.8966 59.9276 55.5047 57.801 57.6586 57.9184C58.0909 57.9448 58.5147 58.051 58.9083 58.2317C59.1515 58.3416 59.4284 58.3504 59.6781 58.2562C59.9279 58.1619 60.1299 57.9723 60.2398 57.7291C60.3497 57.4858 60.3585 57.2089 60.2642 56.9592C60.17 56.7095 59.9804 56.5075 59.7371 56.3976C59.1167 56.1138 58.4488 55.9479 57.7676 55.9083C54.6178 55.7472 52.4858 58.4439 52.0912 58.9882C51.9822 59.1382 51.9169 59.3155 51.9024 59.5003C51.8879 59.6852 51.9247 59.8705 52.0089 60.0357C52.0931 60.2009 52.2213 60.3396 52.3794 60.4366C52.5374 60.5335 52.7192 60.5848 52.9046 60.5849" fill="#C8D3D9"/>
<g filter="url(#filter7_d_3166_12070)">
<path d="M41.2914 78.9308L40.0822 78.1756L38.0677 76.9156L34.8431 74.9043" stroke="white" stroke-width="8.25054" stroke-linecap="round"/>
</g>
<g filter="url(#filter8_d_3166_12070)">
<path d="M33.9478 83.0333L24.8467 97.6083" stroke="white" stroke-width="8.25054" stroke-linecap="round" stroke-linejoin="round"/>
</g>
<defs>
<filter id="filter0_d_3166_12070" x="1.34215" y="0.291177" width="105.74" height="105.74" filterUnits="userSpaceOnUse" color-interpolation-filters="sRGB">
<feFlood flood-opacity="0" result="BackgroundImageFix"/>
<feColorMatrix in="SourceAlpha" type="matrix" values="0 0 0 0 0 0 0 0 0 0 0 0 0 0 0 0 0 0 127 0" result="hardAlpha"/>
<feOffset dy="2.81169"/>
<feGaussianBlur stdDeviation="1.68702"/>
<feColorMatrix type="matrix" values="0 0 0 0 0.784314 0 0 0 0 0.827451 0 0 0 0 0.85098 0 0 0 0.302 0"/>
<feBlend mode="normal" in2="BackgroundImageFix" result="effect1_dropShadow_3166_12070"/>
<feBlend mode="normal" in="SourceGraphic" in2="effect1_dropShadow_3166_12070" result="shape"/>
</filter>
<filter id="filter1_d_3166_12070" x="67.0834" y="9.57861" width="20.2674" height="20.2676" filterUnits="userSpaceOnUse" color-interpolation-filters="sRGB">
<feFlood flood-opacity="0" result="BackgroundImageFix"/>
<feColorMatrix in="SourceAlpha" type="matrix" values="0 0 0 0 0 0 0 0 0 0 0 0 0 0 0 0 0 0 127 0" result="hardAlpha"/>
<feOffset dy="1.68702"/>
<feGaussianBlur stdDeviation="1.68702"/>
<feColorMatrix type="matrix" values="0 0 0 0 0.784314 0 0 0 0 0.827451 0 0 0 0 0.85098 0 0 0 0.302 0"/>
<feBlend mode="normal" in2="BackgroundImageFix" result="effect1_dropShadow_3166_12070"/>
<feBlend mode="normal" in="SourceGraphic" in2="effect1_dropShadow_3166_12070" result="shape"/>
</filter>
<filter id="filter2_d_3166_12070" x="69.0663" y="11.563" width="16.4999" height="16.5" filterUnits="userSpaceOnUse" color-interpolation-filters="sRGB">
<feFlood flood-opacity="0" result="BackgroundImageFix"/>
<feColorMatrix in="SourceAlpha" type="matrix" values="0 0 0 0 0 0 0 0 0 0 0 0 0 0 0 0 0 0 127 0" result="hardAlpha"/>
<feOffset dy="1.68702"/>
<feGaussianBlur stdDeviation="1.68702"/>
<feColorMatrix type="matrix" values="0 0 0 0 0.784314 0 0 0 0 0.827451 0 0 0 0 0.85098 0 0 0 0.302 0"/>
<feBlend mode="normal" in2="BackgroundImageFix" result="effect1_dropShadow_3166_12070"/>
<feBlend mode="normal" in="SourceGraphic" in2="effect1_dropShadow_3166_12070" result="shape"/>
</filter>
<filter id="filter3_d_3166_12070" x="69.3243" y="73.2173" width="23.1384" height="23.1416" filterUnits="userSpaceOnUse" color-interpolation-filters="sRGB">
<feFlood flood-opacity="0" result="BackgroundImageFix"/>
<feColorMatrix in="SourceAlpha" type="matrix" values="0 0 0 0 0 0 0 0 0 0 0 0 0 0 0 0 0 0 127 0" result="hardAlpha"/>
<feOffset dy="1.68702"/>
<feGaussianBlur stdDeviation="1.68702"/>
<feColorMatrix type="matrix" values="0 0 0 0 0.784314 0 0 0 0 0.827451 0 0 0 0 0.85098 0 0 0 0.302 0"/>
<feBlend mode="normal" in2="BackgroundImageFix" result="effect1_dropShadow_3166_12070"/>
<feBlend mode="normal" in="SourceGraphic" in2="effect1_dropShadow_3166_12070" result="shape"/>
</filter>
<filter id="filter4_d_3166_12070" x="12.9542" y="24.2251" width="16.4737" height="29.1768" filterUnits="userSpaceOnUse" color-interpolation-filters="sRGB">
<feFlood flood-opacity="0" result="BackgroundImageFix"/>
<feColorMatrix in="SourceAlpha" type="matrix" values="0 0 0 0 0 0 0 0 0 0 0 0 0 0 0 0 0 0 127 0" result="hardAlpha"/>
<feOffset dy="1.68702"/>
<feGaussianBlur stdDeviation="1.68702"/>
<feColorMatrix type="matrix" values="0 0 0 0 0.784314 0 0 0 0 0.827451 0 0 0 0 0.85098 0 0 0 0.302 0"/>
<feBlend mode="normal" in2="BackgroundImageFix" result="effect1_dropShadow_3166_12070"/>
<feBlend mode="normal" in="SourceGraphic" in2="effect1_dropShadow_3166_12070" result="shape"/>
</filter>
<filter id="filter5_d_3166_12070" x="15.0339" y="48.7739" width="12.314" height="12.3145" filterUnits="userSpaceOnUse" color-interpolation-filters="sRGB">
<feFlood flood-opacity="0" result="BackgroundImageFix"/>
<feColorMatrix in="SourceAlpha" type="matrix" values="0 0 0 0 0 0 0 0 0 0 0 0 0 0 0 0 0 0 127 0" result="hardAlpha"/>
<feOffset dy="1.68702"/>
<feGaussianBlur stdDeviation="1.68702"/>
<feColorMatrix type="matrix" values="0 0 0 0 0.784314 0 0 0 0 0.827451 0 0 0 0 0.85098 0 0 0 0.302 0"/>
<feBlend mode="normal" in2="BackgroundImageFix" result="effect1_dropShadow_3166_12070"/>
<feBlend mode="normal" in="SourceGraphic" in2="effect1_dropShadow_3166_12070" result="shape"/>
</filter>
<filter id="filter6_d_3166_12070" x="22.9586" y="18.2554" width="64.2862" height="64.2862" filterUnits="userSpaceOnUse" color-interpolation-filters="sRGB">
<feFlood flood-opacity="0" result="BackgroundImageFix"/>
<feColorMatrix in="SourceAlpha" type="matrix" values="0 0 0 0 0 0 0 0 0 0 0 0 0 0 0 0 0 0 127 0" result="hardAlpha"/>
<feOffset dy="1.68702"/>
<feGaussianBlur stdDeviation="1.68702"/>
<feColorMatrix type="matrix" values="0 0 0 0 0.784314 0 0 0 0 0.827451 0 0 0 0 0.85098 0 0 0 0.302 0"/>
<feBlend mode="normal" in2="BackgroundImageFix" result="effect1_dropShadow_3166_12070"/>
<feBlend mode="normal" in="SourceGraphic" in2="effect1_dropShadow_3166_12070" result="shape"/>
</filter>
<filter id="filter7_d_3166_12070" x="27.3433" y="69.0913" width="21.448" height="19.0264" filterUnits="userSpaceOnUse" color-interpolation-filters="sRGB">
<feFlood flood-opacity="0" result="BackgroundImageFix"/>
<feColorMatrix in="SourceAlpha" type="matrix" values="0 0 0 0 0 0 0 0 0 0 0 0 0 0 0 0 0 0 127 0" result="hardAlpha"/>
<feOffset dy="1.68702"/>
<feGaussianBlur stdDeviation="1.68702"/>
<feColorMatrix type="matrix" values="0 0 0 0 0.784314 0 0 0 0 0.827451 0 0 0 0 0.85098 0 0 0 0.302 0"/>
<feBlend mode="normal" in2="BackgroundImageFix" result="effect1_dropShadow_3166_12070"/>
<feBlend mode="normal" in="SourceGraphic" in2="effect1_dropShadow_3166_12070" result="shape"/>
</filter>
<filter id="filter8_d_3166_12070" x="17.3469" y="77.2202" width="24.1007" height="29.5752" filterUnits="userSpaceOnUse" color-interpolation-filters="sRGB">
<feFlood flood-opacity="0" result="BackgroundImageFix"/>
<feColorMatrix in="SourceAlpha" type="matrix" values="0 0 0 0 0 0 0 0 0 0 0 0 0 0 0 0 0 0 127 0" result="hardAlpha"/>
<feOffset dy="1.68702"/>
<feGaussianBlur stdDeviation="1.68702"/>
<feColorMatrix type="matrix" values="0 0 0 0 0.784314 0 0 0 0 0.827451 0 0 0 0 0.85098 0 0 0 0.302 0"/>
<feBlend mode="normal" in2="BackgroundImageFix" result="effect1_dropShadow_3166_12070"/>
<feBlend mode="normal" in="SourceGraphic" in2="effect1_dropShadow_3166_12070" result="shape"/>
</filter>
</defs>
</svg>
