<svg width="48" height="48" viewBox="0 0 48 48" fill="none" xmlns="http://www.w3.org/2000/svg">
<path d="M24 3C12.4145 3 3 12.4145 3 24C3 35.5855 12.4145 45 24 45C35.5855 45 45 35.5752 45 24C45 12.4248 35.5752 3 24 3ZM24 43.4566C13.2685 43.4566 4.54336 34.7212 4.54336 24C4.54336 13.2788 13.2685 4.54336 24 4.54336C34.7315 4.54336 43.4566 13.2685 43.4566 24C43.4566 34.7315 34.7212 43.4566 24 43.4566Z" fill="#00A99D"/>
<path d="M23.9996 43.4567C34.7452 43.4567 43.4562 34.7457 43.4562 24.0001C43.4562 13.2545 34.7452 4.54346 23.9996 4.54346C13.254 4.54346 4.54297 13.2545 4.54297 24.0001C4.54297 34.7457 13.254 43.4567 23.9996 43.4567Z" fill="url(#paint0_linear_6379_182495)"/>
<path d="M38.4661 24.0001C38.4661 31.9742 31.9737 38.4563 23.9996 38.4563C16.0256 38.4563 9.5332 31.9742 9.5332 24.0001C9.5332 16.0261 16.0256 9.53369 23.9996 9.53369C31.9737 9.53369 38.4661 16.0158 38.4661 24.0001Z" fill="white"/>
<path d="M24 7.99023C15.172 7.99023 7.99023 15.172 7.99023 24C7.99023 32.8281 15.172 39.9995 24 39.9995C32.8281 39.9995 40.0098 32.8281 40.0098 24C40.0098 15.172 32.8281 7.99023 24 7.99023ZM24 38.4562C16.026 38.4562 9.5336 31.9741 9.5336 24C9.5336 16.026 16.026 9.5336 24 9.5336C31.9741 9.5336 38.4665 16.0157 38.4665 24C38.4665 31.9844 31.9741 38.4562 24 38.4562Z" fill="#00A99D"/>
<path d="M38.2601 27.0147L26.51 38.7546C25.1209 40.123 22.8573 40.123 21.4683 38.7649L9.74906 27.0147C8.18512 25.4405 7.31055 23.3312 7.31055 21.0677C7.31055 18.8041 8.18512 16.7462 9.74906 15.1514C11.3336 13.5772 13.4325 12.7026 15.6859 12.7026C17.9392 12.7026 20.0381 13.5772 21.6021 15.1411L23.9788 17.5694L26.4071 15.1411C27.9401 13.5772 30.0494 12.7129 32.3439 12.7129C34.6383 12.7129 36.6859 13.5772 38.2601 15.1514C41.5011 18.4234 41.5011 23.7428 38.2601 27.0147Z" fill="url(#paint1_linear_6379_182495)"/>
<path d="M39.3511 14.0607C37.4888 12.1984 34.9988 11.1695 32.3443 11.1695C29.6897 11.1695 27.138 12.1984 25.3065 14.0607L23.9895 15.3777L22.7034 14.0607C20.8308 12.1881 18.3408 11.1592 15.6862 11.1592C13.0317 11.1592 10.5314 12.1881 8.65881 14.0607C6.79649 15.9539 5.76758 18.4438 5.76758 21.0676C5.76758 23.6913 6.79649 26.243 8.65881 28.1053L20.3884 39.8554C21.3761 40.8329 22.6828 41.3165 23.9895 41.3165C25.2962 41.3165 26.603 40.8329 27.601 39.8554L39.3511 28.1053C43.1889 24.2263 43.1889 17.9294 39.3511 14.0607ZM21.4687 38.7648L9.74945 27.0146C8.18551 25.4404 7.31094 23.3312 7.31094 21.0676C7.31094 18.804 8.18551 16.7461 9.74945 15.1513C11.334 13.5771 13.4329 12.7025 15.6862 12.7025C17.9396 12.7025 20.0385 13.5771 21.6025 15.1411L23.9792 17.5693L26.4075 15.1411C27.9405 13.5771 30.0498 12.7128 32.3443 12.7128C34.6387 12.7128 36.6862 13.5771 38.2605 15.1513C41.5015 18.4233 41.5015 23.7427 38.2605 27.0146L26.5104 38.7545C25.1213 40.1229 22.8577 40.1229 21.4687 38.7648Z" fill="#00A99D"/>
<path d="M19.8424 30.451C19.544 30.451 19.2765 30.276 19.1428 30.0085L16.3441 24.01V29.6793C16.3441 30.1011 15.9943 30.451 15.5725 30.451C15.1506 30.451 14.8008 30.1011 14.8008 29.6793V20.5323C14.8008 20.1722 15.0477 19.8532 15.4078 19.7812C15.7577 19.7092 16.1178 19.8841 16.2721 20.2133L19.0707 26.2119V20.5426C19.0707 20.1207 19.4206 19.7709 19.8424 19.7709C20.2643 19.7709 20.6141 20.1207 20.6141 20.5426V29.6896C20.6141 30.0497 20.3672 30.3686 20.0071 30.4407C19.9556 30.451 19.8939 30.4613 19.8424 30.4613V30.451Z" fill="#00A99D"/>
<path d="M30.2868 30.4511C28.6303 30.4511 27.375 28.1567 27.375 25.1008C27.375 22.045 28.62 19.7505 30.2868 19.7505C31.9536 19.7505 33.1986 22.045 33.1986 25.1008C33.1986 28.1567 31.9536 30.4511 30.2868 30.4511ZM30.2868 21.3041C29.8032 21.3041 28.9184 22.7446 28.9184 25.1111C28.9184 27.4776 29.8032 28.9181 30.2868 28.9181C30.7704 28.9181 31.6553 27.4776 31.6553 25.1111C31.6553 22.7446 30.7704 21.3041 30.2868 21.3041Z" fill="#00A99D"/>
<path d="M23.9997 30.4511C22.3432 30.4511 21.0879 28.1567 21.0879 25.1008C21.0879 22.045 22.3329 19.7505 23.9997 19.7505C25.2035 19.7505 26.1913 20.9029 26.6543 22.8372C26.7572 23.2488 26.4999 23.6706 26.0781 23.7632C25.6665 23.8558 25.2447 23.6089 25.1521 23.187C24.8434 21.87 24.2878 21.2836 23.9997 21.2836C23.5161 21.2836 22.6313 22.724 22.6313 25.0905C22.6313 27.457 23.5161 28.8975 23.9997 28.8975C24.4833 28.8975 25.3579 27.4673 25.3681 25.1317C25.3681 24.7098 25.718 24.36 26.1398 24.36C26.5617 24.36 26.9115 24.7098 26.9115 25.1317C26.9012 28.1567 25.646 30.4408 23.9997 30.4408V30.4511Z" fill="#00A99D"/>
<path d="M24.0002 26.5515C23.5783 26.5515 23.2285 26.2017 23.2285 25.7799V25.1008C23.2285 24.6789 23.5783 24.3291 24.0002 24.3291H26.1403C26.5622 24.3291 26.912 24.6789 26.912 25.1008C26.912 25.5226 26.5622 25.8725 26.1403 25.8725H24.7719C24.7204 26.2532 24.4015 26.5515 24.0105 26.5515H24.0002Z" fill="#00A99D"/>
<defs>
<linearGradient id="paint0_linear_6379_182495" x1="23.6086" y1="2.01234" x2="24.833" y2="70.5787" gradientUnits="userSpaceOnUse">
<stop stop-color="white"/>
<stop offset="1" stop-color="#C3E6FF"/>
</linearGradient>
<linearGradient id="paint1_linear_6379_182495" x1="23.9994" y1="16" x2="25.9994" y2="81.5" gradientUnits="userSpaceOnUse">
<stop stop-color="white"/>
<stop offset="1" stop-color="#C3E6FF"/>
</linearGradient>
</defs>
</svg>
