<svg width="24" height="24" viewBox="0 0 24 24" fill="none" xmlns="http://www.w3.org/2000/svg">
<path d="M0 8C0 3.58172 3.58172 0 8 0H16C20.4183 0 24 3.58172 24 8V16C24 20.4183 20.4183 24 16 24H8C3.58172 24 0 20.4183 0 16V8Z" fill="#F4F7FB"/>
<path d="M3.27993 20.8699C3.27993 20.8699 3.22993 20.8699 3.20993 20.8699C2.62993 20.8199 2.24993 20.0999 2.07993 18.7399C1.68993 15.9699 2.74993 12.7498 4.75993 10.5598C7.07993 8.03985 10.1199 7.34986 11.9899 7.16986V4.75986C11.9899 4.10986 12.3599 3.53987 12.9499 3.26987C13.5399 2.99987 14.2199 3.09986 14.6999 3.53986L21.4399 9.53986C21.7899 9.84986 21.9899 10.2899 21.9899 10.7499C21.9899 11.2199 21.7899 11.6599 21.4399 11.9799L14.6999 17.9699C14.2099 18.3999 13.5399 18.4999 12.9499 18.2399C12.3599 17.9699 11.9899 17.3998 11.9899 16.7499V14.2699H11.9799C10.9799 14.2699 9.99993 14.4499 9.06993 14.7899C7.49993 15.3799 6.25993 16.2899 5.40993 17.4899C4.86993 18.2499 4.55993 19.0299 4.32993 19.5999C4.04993 20.2999 3.82993 20.8599 3.27993 20.8599V20.8699ZM13.6299 4.12986C13.5399 4.12986 13.4499 4.14985 13.3699 4.18985C13.1399 4.28985 12.9999 4.50987 12.9999 4.76987V7.63986C12.9999 7.90986 12.7899 8.11986 12.5299 8.13986C10.8899 8.22987 7.79993 8.74987 5.50993 11.2399C3.67993 13.2199 2.72993 16.1099 3.07993 18.6099C3.11993 18.9499 3.19993 19.2998 3.27993 19.5598C3.31993 19.4598 3.36993 19.3399 3.40993 19.2399C3.65993 18.6199 3.98993 17.7799 4.59993 16.9199C5.26993 15.9799 6.52993 14.6799 8.72993 13.8599C9.93993 13.4099 11.2199 13.2099 12.5299 13.2899C12.7899 13.2999 12.9999 13.5199 12.9999 13.7899V16.7499C12.9999 17.0099 13.1399 17.2199 13.3699 17.3299C13.5999 17.4299 13.8599 17.3999 14.0499 17.2299L20.7899 11.2399C20.9299 11.1199 20.9999 10.9499 20.9999 10.7599C20.9999 10.5799 20.9199 10.4099 20.7899 10.2899L14.0499 4.28986C13.9299 4.17986 13.7899 4.12986 13.6399 4.12986H13.6299Z" fill="#607079"/>
</svg>
