<svg width="18" height="16" viewBox="0 0 18 16" fill="none" xmlns="http://www.w3.org/2000/svg">
<path d="M11.8697 14.68L17.0298 2.69999C17.2898 2.09999 17.1998 1.40995 16.7898 0.909947C16.3798 0.399947 15.7398 0.159942 15.0898 0.279942L2.27977 2.67997C1.55977 2.80997 1.02975 3.32994 0.879746 4.02994C0.729746 4.73994 1.00978 5.43 1.59978 5.84L5.96977 8.87003L6.26976 9.06998C6.36976 9.13998 6.45975 9.25003 6.50975 9.37003L6.63976 9.71L8.62975 14.64C8.69975 14.81 8.78976 14.95 8.88976 15.09C9.20976 15.49 9.68978 15.73 10.2298 15.74C10.9598 15.75 11.5797 15.35 11.8697 14.68ZM10.2497 14.67C10.1397 14.67 9.77974 14.63 9.61974 14.24L7.51976 9.01004L12.3298 5.16996C12.5598 4.97996 12.5898 4.63996 12.4098 4.41996C12.2198 4.18996 11.8898 4.15 11.6598 4.34L6.84978 8.17997L2.20976 4.97001C1.85976 4.73001 1.90974 4.37005 1.93974 4.27005C1.94974 4.16005 2.05978 3.82002 2.47978 3.74002L15.2998 1.34C15.5498 1.29 15.7897 1.4 15.9397 1.59C16.0897 1.77 16.1398 2.03005 16.0498 2.27005L10.8898 14.25C10.7098 14.64 10.3497 14.67 10.2497 14.67Z" fill="#607079"/>
</svg>
