<svg width="24" height="24" viewBox="0 0 24 24" fill="none" xmlns="http://www.w3.org/2000/svg">
<path d="M17.07 3.53998H16.47V3.19C16.47 2.78 16.13 2.44995 15.68 2.44995C15.27 2.44995 14.94 2.78 14.94 3.19V3.53998H9.06V3.19C9.06 2.78 8.72002 2.44995 8.27002 2.44995C7.86002 2.44995 7.53003 2.78 7.53003 3.19V3.53998H6.91998C4.75998 3.53998 3 5.29996 3 7.45996V17.61C3 19.77 4.75998 21.54 6.91998 21.54H17.07C19.24 21.54 21 19.77 21 17.61V7.45996C21 5.29996 19.24 3.53998 17.07 3.53998ZM20 17.61C20 19.22 18.68 20.54 17.07 20.54H6.91998C5.30998 20.54 4 19.22 4 17.61V9.19H20V17.61ZM20 8.19H4V7.45996C4 5.84996 5.30998 4.53998 6.91998 4.53998H7.53003V6.07996C7.53003 6.48996 7.86002 6.82001 8.27002 6.82001H8.32001C8.72001 6.82001 9.06 6.48996 9.06 6.07996V4.53998H14.94V6.07996C14.94 6.48996 15.27 6.82001 15.68 6.82001H15.72C16.13 6.82001 16.47 6.48996 16.47 6.07996V4.53998H17.07C18.68 4.53998 20 5.84996 20 7.45996V8.19Z" fill="#8798A1"/>
<path d="M8.79034 12.18V12.75C8.79034 13.27 8.40037 13.68 7.94037 13.68H7.25037C6.78037 13.68 6.40039 13.27 6.40039 12.75V12.18C6.40039 11.66 6.79037 11.24 7.25037 11.24H7.94037C8.40037 11.24 8.79034 11.66 8.79034 12.18Z" fill="#8798A1"/>
<path d="M13.2006 12.18V12.75C13.2006 13.27 12.8105 13.68 12.3505 13.68H11.6705C11.1905 13.68 10.8105 13.27 10.8105 12.75V12.18C10.8105 11.66 11.2005 11.24 11.6705 11.24H12.3505C12.8205 11.24 13.2006 11.66 13.2006 12.18Z" fill="#8798A1"/>
<path d="M17.6105 12.18V12.75C17.6105 13.27 17.2205 13.68 16.7605 13.68H16.0805C15.6005 13.68 15.2305 13.27 15.2305 12.75V12.18C15.2305 11.66 15.6105 11.24 16.0805 11.24H16.7605C17.2205 11.24 17.6105 11.66 17.6105 12.18Z" fill="#8798A1"/>
<path d="M8.79034 16.19V16.7599C8.79034 17.2799 8.40037 17.69 7.94037 17.69H7.25037C6.78037 17.69 6.40039 17.2799 6.40039 16.7599V16.19C6.40039 15.67 6.79037 15.25 7.25037 15.25H7.94037C8.40037 15.26 8.79034 15.68 8.79034 16.19Z" fill="#8798A1"/>
<path d="M13.2006 16.19V16.7599C13.2006 17.2799 12.8105 17.69 12.3505 17.69H11.6705C11.1905 17.69 10.8105 17.2799 10.8105 16.7599V16.19C10.8105 15.67 11.2005 15.25 11.6705 15.25H12.3505C12.8205 15.26 13.2006 15.68 13.2006 16.19Z" fill="#8798A1"/>
<path d="M17.6105 16.19V16.7599C17.6105 17.2799 17.2205 17.69 16.7605 17.69H16.0805C15.6005 17.69 15.2305 17.2799 15.2305 16.7599V16.19C15.2305 15.67 15.6105 15.25 16.0805 15.25H16.7605C17.2205 15.26 17.6105 15.68 17.6105 16.19Z" fill="#8798A1"/>
</svg>
