<svg width="24" height="24" viewBox="0 0 24 24" fill="none" xmlns="http://www.w3.org/2000/svg">
<path d="M9.3714 15.8067L9.37138 15.8068C10.0184 16.1081 10.8419 16.27 11.8203 16.27C12.7839 16.27 13.5725 16.1265 14.1933 15.8604L14.1948 15.8598C14.8614 15.5767 15.3385 15.2078 15.6428 14.7801L15.6439 14.7787C15.9525 14.3482 16.1676 13.7058 16.2733 12.7454L9.3714 15.8067ZM9.3714 15.8067L9.36497 15.8038M9.3714 15.8067L9.36497 15.8038M9.36497 15.8038C8.66703 15.4906 8.22049 15.065 7.9927 14.5871C7.76748 14.1022 7.63053 13.377 7.63025 12.3232L7.66024 10.0165L7.66028 10.0165M9.36497 15.8038L7.66028 10.0165M7.66028 10.0165V10.01M7.66028 10.0165V10.01M7.66028 10.01C7.66028 8.71282 7.62514 7.86214 7.57718 7.30233C7.53093 6.7624 7.47008 6.4516 7.39478 6.26504C7.34228 6.13106 7.24564 5.93886 7.03539 5.78905C6.82783 5.64115 6.56903 5.57646 6.27089 5.57011L6.27089 5.57M7.66028 10.01L6.27089 5.57M6.27089 5.57H6.26025M6.27089 5.57H6.26025M6.26025 5.57C6.13646 5.57 6.07492 5.54673 6.04999 5.53406M6.26025 5.57L6.04999 5.53406M15.6893 13.3942L15.6893 13.3942C15.54 14.0947 15.2268 14.6544 14.6964 15.0429C14.1484 15.447 13.3687 15.6 12.4703 15.6C11.599 15.6 10.8412 15.4184 10.2755 15.0039C9.72438 14.6028 9.40486 14.0622 9.30573 13.384C9.30564 13.3833 9.30554 13.3827 9.30544 13.382L9.80023 13.31L15.6893 13.3942ZM15.6893 13.3942L15.6903 13.3894M15.6893 13.3942L15.6903 13.3894M15.6903 13.3894C15.842 12.6415 15.9203 11.0297 15.9203 8.64001C15.9203 7.86673 15.8719 7.32903 15.8019 6.95146C15.7337 6.58306 15.6393 6.33412 15.5215 6.16556C15.3975 5.98413 15.2383 5.83031 15.0276 5.72718C14.8198 5.62545 14.5965 5.59 14.3702 5.59C14.2651 5.59 14.2001 5.57285 14.1628 5.55761C14.1267 5.54288 14.1079 5.52654 14.0971 5.51446C14.0714 5.48592 14.0602 5.4448 14.0602 5.42001C14.0602 5.39934 14.0668 5.36624 14.0849 5.34446C14.0849 5.3444 14.085 5.34432 14.0851 5.34421C14.0902 5.33784 14.161 5.25 14.4703 5.25H17.7803C17.8463 5.25 17.8877 5.26139 17.9117 5.27136C17.9353 5.28117 17.9499 5.29277 17.9601 5.30383C17.9821 5.32779 18.0002 5.36942 18.0002 5.42001C18.0002 5.44354 17.9917 5.47253 17.974 5.49467C17.9625 5.50893 17.9267 5.54746 17.8177 5.56526C17.4833 5.61065 17.1207 5.72227 16.8917 5.97214L16.8837 5.98084M15.6903 13.3894L16.8837 5.98084M16.8837 5.98084L16.8761 5.98991M16.8837 5.98084L16.8761 5.98991M16.8761 5.98991C16.7497 6.14163 16.5815 6.43105 16.5133 7.07455M16.8761 5.98991L16.5133 7.07455M6.04999 5.53406C6.02705 5.52241 6.01821 5.51141 6.01266 5.5029M6.04999 5.53406L6.01266 5.5029M6.01266 5.5029C6.00486 5.49096 5.99816 5.4742 5.99393 5.45451M6.01266 5.5029L5.99393 5.45451M5.99393 5.45451C5.9913 5.44228 5.99052 5.43308 5.9903 5.42966M5.99393 5.45451L5.9903 5.42966M5.9903 5.42966C5.99031 5.42958 5.99032 5.4295 5.99033 5.4294C5.9909 5.42332 5.99471 5.38313 6.01649 5.35134C6.02447 5.33969 6.03918 5.32228 6.07495 5.30499C6.11322 5.28648 6.19296 5.26 6.34027 5.26H10.4902C10.6376 5.26 10.7214 5.28453 10.7644 5.30352C10.8048 5.32133 10.8202 5.33886 10.8268 5.3475C10.8459 5.37239 10.8498 5.40607 10.8502 5.40969C10.8503 5.40993 10.8503 5.41004 10.8503 5.41C10.8503 5.44036 10.8397 5.47202 10.8176 5.49655C10.8004 5.51556 10.744 5.5668 10.5845 5.58208C10.183 5.61777 9.89134 5.7318 9.70669 5.91644C9.56855 6.05458 9.40457 6.31319 9.29122 6.84595L9.78027 6.95L5.9903 5.42966ZM16.5133 7.07455C16.45 7.61481 16.4203 8.41777 16.4203 9.43999C16.4203 10.7386 16.3706 11.8492 16.2733 12.7453L16.5133 7.07455Z" fill="#354752" stroke="#354752"/>
<path d="M18.5002 5.43001C18.5002 5.55442 18.4602 5.69163 18.3703 5.80744C18.4494 5.70123 18.4902 5.57316 18.4902 5.44C18.4902 5.27186 18.4309 5.06772 18.2472 4.92203C18.171 4.86157 18.0894 4.82434 18.0109 4.80187C18.3188 4.88861 18.5002 5.14188 18.5002 5.43001ZM16.9967 7.14981C17.0067 7.0727 17.0176 7.00225 17.029 6.93795C17.0193 6.99939 17.0105 7.06584 17.003 7.13766L17.0027 7.14025C16.9503 7.6644 16.9203 8.43338 16.9203 9.44C16.9203 10.7486 16.8706 11.8795 16.7732 12.7963C16.6578 13.8431 16.4138 14.5649 16.0562 15.0555C16.0432 15.0734 16.0299 15.0911 16.0165 15.1088C16.0226 15.1006 16.0286 15.0924 16.0346 15.0841L16.0346 15.0841L16.0377 15.0798C16.429 14.5296 16.6532 13.7617 16.7573 12.8146C16.8599 11.8808 16.9103 10.7614 16.9103 9.45001C16.9103 8.41832 16.9401 7.66179 16.9967 7.14981ZM6.6961 6.18978C6.69618 6.18982 6.69626 6.18987 6.69634 6.18992L6.45026 6.60001C6.61705 6.32205 6.67561 6.22424 6.6961 6.18978ZM17.7739 5.77013C17.7739 5.77017 17.7727 5.77017 17.7705 5.77L17.7739 5.77013ZM14.2906 5.10769C14.2906 5.10768 14.2911 5.10775 14.292 5.10795L14.2906 5.10769ZM17.7395 5.0844C17.7396 5.08446 17.7378 5.08499 17.7338 5.08578C17.7374 5.08473 17.7394 5.08434 17.7395 5.0844ZM10.569 5.0979C10.569 5.09794 10.568 5.0982 10.5658 5.09855C10.5678 5.09804 10.569 5.09787 10.569 5.0979ZM5.84923 4.87466C5.73382 4.93114 5.62213 5.02563 5.55244 5.15582C5.58161 5.09494 5.62109 5.0378 5.67104 4.98757C5.78639 4.87158 5.99022 4.76001 6.34027 4.76001H10.4902C10.903 4.76001 11.0985 4.89336 11.1966 5.00458C11.3083 5.13111 11.3503 5.29387 11.3503 5.41C11.3503 5.50834 11.3278 5.61378 11.2755 5.71156C11.317 5.62748 11.3403 5.53243 11.3403 5.43001C11.3403 5.29653 11.2972 5.16332 11.2082 5.05205C11.1255 4.94861 11.0239 4.88984 10.9426 4.85597C10.7899 4.79237 10.6199 4.78001 10.4803 4.78001H6.33026C6.18601 4.78001 6.00879 4.79657 5.84923 4.87466ZM12.4603 15.1C13.0396 15.1 13.5784 15.0319 14.0068 14.8532C13.6257 15.0204 13.1091 15.12 12.4302 15.12C11.5679 15.12 10.9547 14.9344 10.5279 14.6182C10.0974 14.2993 9.8461 13.8791 9.76494 13.3273C9.67092 12.6879 9.62024 11.5018 9.62024 9.74001C9.62024 8.25807 9.67243 7.35517 9.75836 6.96848C9.82384 6.67382 9.89867 6.49273 9.96499 6.38472L9.94229 6.45284L9.93647 6.46572C9.92511 6.49102 9.90951 6.52683 9.89192 6.57289C9.85663 6.6653 9.8168 6.78989 9.78136 6.95525L9.78123 6.95522L9.77909 6.96646C9.72979 7.2253 9.65027 7.88476 9.65027 9.72C9.65027 11.419 9.6997 12.6315 9.79531 13.3007C9.87318 13.8459 10.12 14.2799 10.5662 14.6044L10.5675 14.6054C11.0462 14.951 11.7057 15.1 12.4603 15.1ZM9.94723 6.44191L9.94707 6.44225L9.94723 6.44191ZM6.22225 5.08823C6.22103 5.08807 6.22045 5.08796 6.22047 5.08794C6.22048 5.08793 6.22109 5.08801 6.22225 5.08823Z" fill="#354752" stroke="#354752"/>
<path d="M5.07031 18.72H18.9203" stroke="#354752" stroke-miterlimit="10" stroke-linecap="round" stroke-linejoin="round"/>
</svg>
