<svg width="24" height="24" viewBox="0 0 24 24" fill="none" xmlns="http://www.w3.org/2000/svg">
<path d="M19.7752 10.1225L16.5952 13.3125C16.0752 13.8325 15.4652 14.1725 14.8152 14.3625C14.8852 13.8825 14.8852 13.4125 14.8052 12.9325C15.1052 12.7825 15.3852 12.5925 15.6352 12.3525L18.8252 9.1725C19.9152 8.0725 19.9152 6.2925 18.8152 5.1725C17.7152 4.0825 15.9352 4.0825 14.8352 5.1725L11.6552 8.3525C11.4152 8.6125 11.2252 8.8825 11.0852 9.1825C11.0552 9.2325 11.0352 9.2925 11.0152 9.3425C11.0052 9.3925 10.9852 9.4525 10.9652 9.5025C10.8152 9.9325 10.7852 10.4125 10.8852 10.8625C10.8952 10.9125 10.9152 10.9825 10.9252 11.0425C10.9352 11.1125 10.9652 11.1825 10.9752 11.2425C11.1152 11.6325 11.3452 12.0125 11.6552 12.3325C11.9652 12.6525 12.3452 12.8725 12.7452 13.0125C12.8852 13.4625 12.8552 13.9625 12.7152 14.4125C11.9652 14.2525 11.2752 13.8725 10.6852 13.3025C10.1152 12.7225 9.74522 12.0225 9.58522 11.2925C9.57522 11.2425 9.54522 11.1825 9.53522 11.1325C9.53522 11.0625 9.52522 11.0225 9.52522 10.9525C9.45522 10.4925 9.47522 10.0125 9.55522 9.5425C9.56522 9.5025 9.58522 9.4325 9.60522 9.3625C9.60522 9.3125 9.61522 9.2425 9.64522 9.1825C9.83522 8.5325 10.1752 7.9225 10.6952 7.4025L13.8752 4.2225C15.5052 2.5925 18.1552 2.5925 19.7852 4.2225C21.4152 5.8525 21.4152 8.5025 19.7852 10.1225H19.7752Z" fill="#8798A1"/>
<path d="M14.445 14.4425C14.445 14.4925 14.415 14.5525 14.395 14.6225C14.395 14.6925 14.385 14.7425 14.365 14.8125C14.175 15.4625 13.835 16.0725 13.305 16.5925L10.125 19.7725C8.505 21.4025 5.855 21.4025 4.215 19.7725C2.595 18.1425 2.595 15.4925 4.215 13.8725L7.395 10.6825C7.925 10.1625 8.535 9.82251 9.185 9.63251C9.105 10.1125 9.105 10.5825 9.185 11.0725C8.885 11.2125 8.615 11.4025 8.355 11.6425L5.175 14.8225C4.085 15.9225 4.085 17.7025 5.175 18.8025C6.275 19.9025 8.075 19.9025 9.175 18.8125L12.355 15.6325C12.595 15.3725 12.785 15.0925 12.935 14.7925C12.945 14.7425 12.975 14.6925 12.985 14.6425C12.995 14.5925 13.015 14.5325 13.035 14.4825C13.175 14.0525 13.195 13.5725 13.105 13.1125C13.095 13.0625 13.095 13.0025 13.065 12.9525C13.055 12.8725 13.035 12.8125 13.015 12.7325C12.875 12.3425 12.645 11.9725 12.335 11.6425C12.025 11.3325 11.645 11.1125 11.245 10.9625C11.125 10.5125 11.135 10.0225 11.285 9.57251C12.015 9.73251 12.715 10.1025 13.295 10.6725C13.865 11.2525 14.245 11.9625 14.405 12.7025C14.415 12.7525 14.435 12.8125 14.435 12.8525C14.445 12.9225 14.475 12.9725 14.475 13.0425C14.545 13.5025 14.525 13.9825 14.435 14.4425H14.445Z" fill="#8798A1"/>
</svg>
