<svg width="15" height="24" viewBox="0 0 15 24" fill="none" xmlns="http://www.w3.org/2000/svg">
<path d="M10.38 6.5501C10.23 6.3501 10.23 6.0101 10.38 5.8001L13.89 1.4501C14.11 1.1701 13.99 0.600098 13.7 0.600098H1.73C0.79 0.600098 0 1.3701 0 2.3201V11.7601H0.00999832V22.9001C0.00999832 23.1701 0.229998 23.4001 0.509998 23.4001C0.789998 23.4001 1.01 23.1701 1.01 22.9001V11.7601H13.7C13.99 11.7601 14.11 11.1901 13.89 10.9101L10.38 6.5501V6.5501ZM1 10.7601V2.3201C1 1.9301 1.33 1.6001 1.73 1.6001H12.48L9.59 5.2001C9.16 5.7701 9.16 6.5901 9.61 7.1801L12.48 10.7601H1V10.7601Z" fill="#8798A1"/>
</svg>
