<svg width="162" height="256" viewBox="0 0 162 256" fill="none" xmlns="http://www.w3.org/2000/svg">
<path d="M80.9995 160.601C125.348 160.601 161.3 124.649 161.3 80.3003C161.3 35.9517 125.348 0 80.9995 0C36.6509 0 0.699219 35.9517 0.699219 80.3003C0.699219 124.649 36.6509 160.601 80.9995 160.601Z" fill="#DDC3CD"/>
<g opacity="0.5">
<path d="M24.5328 233.881C21.7877 233.53 19.2815 234.441 16.8314 235.554C12.2375 237.642 11.0797 245.635 15.1246 248.806C17.1975 250.43 19.1844 251.767 21.7989 252.373C23.6103 252.795 25.4964 252.955 27.3489 253.093C31.1398 253.381 34.9494 253.37 38.647 252.331C42.3445 251.293 44.7013 247.618 44.1933 243.835C43.6854 240.044 40.4734 237.157 36.5891 237.119C31.7188 237.074 26.7999 237.373 21.9408 237.679C19.1359 237.855 15.767 239.693 15.2441 242.778L15.2068 242.99C14.7773 245.53 15.3001 247.883 17.4365 249.53C19.3226 250.987 22.262 251.379 24.3498 250.016C25.1229 249.612 25.0258 249.541 24.0622 249.803C24.7569 249.717 25.4516 249.624 26.1463 249.527C26.9642 249.411 27.7747 249.28 28.5852 249.123C30.4564 248.761 32.4657 248.414 34.0792 247.364C35.6927 246.315 36.6787 244.29 36.1334 242.311C35.5881 240.331 33.8028 239.293 31.8196 239.028C30.348 238.83 28.7383 239.237 27.2556 239.315C26.5459 239.353 25.8363 239.375 25.1267 239.379C24.7718 239.383 24.4133 239.379 24.0585 239.375C25.0221 239.745 25.1192 239.707 24.3461 239.263L15.203 246.292L15.2404 246.464C15.8716 249.456 19.0201 251.521 21.9371 251.562C26.8671 251.633 31.6889 252.085 36.5853 252.6L34.5274 237.388C36.3202 237.067 34.3257 237.388 33.9821 237.396C33.4293 237.411 32.8803 237.392 32.3275 237.358C31.7748 237.325 31.1884 237.343 30.6655 237.209C32.5628 237.698 30.5236 237.171 30.1762 237.115C29.2201 236.962 28.2565 236.813 27.3153 236.581C27.0389 236.518 26.77 236.443 26.5011 236.357C25.896 236.163 26.1313 236.283 27.1995 236.716L26.7103 236.469C25.9446 236.002 26.0604 236.133 27.0576 236.858L25.3508 250.109C24.0809 250.651 23.6626 250.725 22.2807 250.516C24.6635 250.875 26.6654 250.796 28.813 249.661C31.1398 248.432 32.5218 245.986 32.8616 243.469C33.1754 241.13 32.6375 239.073 31.1921 237.205C29.4255 234.919 27.3078 234.217 24.5328 233.862V233.881Z" fill="#A59DA2"/>
</g>
<g opacity="0.5">
<path d="M20.6026 252.431C24.0014 253.749 27.9268 253.738 31.5347 253.981C35.0418 254.216 38.56 254.167 42.0746 254.193C44.9617 254.212 47.3856 251.975 47.7628 249.17C48.1102 246.593 46.4631 243.258 43.6134 242.813C37.3313 241.835 31.2135 242.907 25.529 245.749C21.6148 247.706 23.3104 254.787 27.8409 254.287C30.1416 254.033 32.446 254.436 34.7616 254.481C37.0773 254.526 39.3743 254.541 41.6824 254.53C46.295 254.507 50.9039 254.365 55.5053 254.134C58.2803 253.992 60.652 251.87 60.652 248.987C60.652 246.104 58.2952 243.919 55.5053 243.84C50.5939 243.706 45.5294 244.781 40.7935 245.992C36.3228 247.131 36.8308 253.192 40.7935 254.559C44.1101 255.706 48.2932 255.564 51.7928 255.564C55.2924 255.564 58.848 255.717 62.3663 255.99V243.153C59.8266 243.373 58.6501 243.504 55.9609 243.59C53.8283 243.661 51.6919 243.71 49.5556 243.769L51.1354 255.437C55.0309 254.332 58.2205 253.999 62.3588 254.182C65.5372 254.324 68.5737 251.288 68.4318 248.109C68.2749 244.628 65.7613 242.279 62.3588 242.036C57.5296 241.693 52.6182 242.178 47.8301 242.78C44.887 243.149 41.9887 245.133 42.1381 248.472C42.2875 251.811 44.6405 254.01 47.8301 254.164C58.0413 254.657 68.5849 255.161 78.7289 253.663C81.6384 253.234 83.3303 249.756 82.9792 247.149C82.6057 244.371 80.1108 241.853 77.149 242.003C73.937 242.167 71.1769 242.873 68.4392 244.584C65.7015 246.294 65.78 251.344 69.3916 251.863C70.3291 251.997 71.2105 252.218 72.1218 252.483C72.5401 252.606 72.9585 252.718 73.3768 252.841C73.4888 252.875 74.628 253.271 74.1574 253.065L77.1527 242.003C72.2638 242.048 67.3823 242.574 62.5007 242.772C57.608 242.97 52.7265 242.955 47.8301 242.783V254.167C52.6966 253.73 57.4922 253.969 62.3588 254.182V242.04C57.496 242.145 52.6929 242.809 47.9757 243.982C41.4247 245.611 42.8925 255.613 49.5556 255.65C51.6919 255.661 53.8246 255.669 55.9609 255.691C56.8984 255.702 57.8732 255.792 58.8069 255.721C59.6286 255.657 60.8499 255.889 62.3663 255.99C65.724 256.207 68.9322 252.882 68.7828 249.573C68.626 246.089 65.963 243.164 62.3663 243.157C58.7696 243.149 55.0571 243.235 51.4268 243.556C47.5761 243.896 43.0569 244.401 39.7291 246.444L43.154 254.563C47.2624 253.973 51.3745 254.201 55.5053 254.134V243.844C51.0271 244.27 46.5378 244.595 42.0447 244.811C39.8598 244.916 37.6749 244.998 35.49 245.05C33.4432 245.103 31.0492 245.592 29.0585 245.286V254.122C30.9707 253.734 32.9203 253.536 34.8737 253.525C36.9391 253.514 39.068 253.775 40.5321 253.988L42.0708 242.611C38.5563 242.626 35.038 242.567 31.531 242.791C27.9193 243.022 24.0051 243.004 20.5989 244.311C16.6138 245.842 16.625 250.888 20.5989 252.431H20.6026Z" fill="#A59DA2"/>
</g>
<g opacity="0.5">
<path d="M81.3525 252.684L92.4937 251.153H89.8718L89.7784 251.045L91.1379 240.643C88.9045 241.117 86.4917 241.543 84.557 241.752C83.3731 241.879 82.1891 241.98 80.9977 242.051C80.415 242.085 79.7913 242.051 79.2124 242.137C77.8193 242.357 79.3132 242.081 79.9108 242.525L82.0322 244.647L81.853 244.307L78.316 252.998C81.8866 251.904 84.684 251.396 88.3853 251.272C90.1258 251.213 91.855 251.272 93.5917 251.153C94.2827 251.104 95.0035 251.06 95.6945 251.138C95.2837 251.071 95.3733 251.093 95.9559 251.213C95.6385 251.097 95.3584 250.929 95.1119 250.708L99.2128 243.564C96.378 243.851 93.5469 244.023 90.6972 243.874C88.0604 243.735 85.8418 243.22 83.0631 242.596V253.965C85.05 253.338 87.0295 252.744 89.009 252.09C90.7868 251.504 92.8261 250.888 94.6973 250.839L92.1575 249.786L92.109 249.644L98.4247 243.328C95.5712 241.446 92.7402 243.257 89.771 243.691C88.9941 243.803 87.9931 243.81 87.0818 243.877C85.6028 243.986 84.2358 244.415 82.7904 244.695C80.852 245.069 79.4477 247.201 79.4477 249.084C79.4477 251.209 80.8968 252.755 82.7904 253.472C86.0099 254.69 88.8746 254.563 92.2322 253.913C95.5302 253.278 99.661 252.258 100.542 248.538C101.017 246.54 100.229 244.385 98.421 243.325C96.7888 242.372 94.0885 242.469 92.8298 244.045L92.8859 244.139L94.701 243.649C92.7028 243.47 90.6785 242.966 88.6878 242.675C86.234 242.316 83.9706 242.204 81.5019 242.38C78.5513 242.589 76.1199 244.464 75.7128 247.493C75.3468 250.215 77.0499 253.371 79.937 253.962C86.6 255.325 94.0101 254.992 100.483 252.886C104.662 251.523 104.823 246.649 101.618 244.21C94.0437 238.443 83.5972 240.071 75.1862 241.584C71.328 242.279 69.9125 247.209 71.6492 250.275C74.0508 254.507 78.6895 254.033 82.7942 253.577C86.6299 253.151 90.4283 252.524 94.1781 251.616C98.1184 250.664 99.4929 245.741 97.1324 242.682C94.5703 239.362 90.01 240.023 87.7504 243.257L87.4703 243.657L89.3228 241.804C88.7588 242.111 87.6271 242.159 86.9847 242.305L84.445 242.884L79.0032 244.124C76.6652 244.658 75.287 247.347 75.9033 249.584C76.6092 252.146 78.9771 253.013 81.3637 252.684H81.3525Z" fill="#A59DA2"/>
</g>
<path d="M36.0689 242.264C37.2566 239.762 38.4405 237.263 39.6282 234.761C38.3995 197.188 37.1707 159.618 35.9419 122.045C33.7084 123.625 31.9231 124.921 30.728 125.795C27.6392 128.055 26.4777 128.981 25.3236 128.593C24.2218 128.223 23.684 126.841 23.415 125.795C25.6896 110.616 27.8185 99.2474 28.9128 94.7394C29.742 91.3294 30.6944 88.9204 31.2658 87.4937C32.1584 85.264 32.6216 84.1211 33.5553 82.8512C33.9213 82.3545 35.0418 80.9016 39.307 78.1154C40.8981 77.0771 43.0531 75.7699 45.7273 74.429C45.8767 72.9874 46.0224 71.5457 46.1718 70.1077C45.6302 69.8799 44.8982 69.5438 44.0728 69.0582C42.971 68.4084 41.1334 67.3028 39.5909 65.2449C37.533 62.4998 37.1856 59.6463 37.1109 58.8545C36.8383 55.9674 37.6487 53.7937 38.0969 52.6396C38.5414 51.493 39.5349 49.013 42.0074 46.9178C45.2642 44.1614 48.9655 43.8738 50.2727 43.8327C50.5939 43.6684 51.1205 43.3621 51.6695 42.8617C52.5136 42.096 52.8087 41.4237 53.8955 39.7468C54.1533 39.3471 54.5641 38.7234 55.1019 37.9652C55.3596 38.264 56.2672 39.3882 56.2784 41.0801C56.2896 42.5591 55.6061 43.5974 55.3559 43.941C56.0506 43.4518 56.8013 42.9625 57.6118 42.4807C57.989 42.2566 58.3588 42.0437 58.7248 41.8458C58.7845 42.1371 58.8667 42.7421 58.6277 43.4368C58.2654 44.4938 57.4213 44.998 57.1972 45.1213C57.6715 45.2744 58.3475 45.5433 59.0721 46.0102C61.0778 47.3099 61.9331 49.1699 62.7585 50.9701C63.1581 51.8404 63.9424 53.7339 64.2524 56.2774C64.3981 57.4838 64.5437 58.6678 64.2674 60.2028C64.1404 60.9162 63.7445 62.9816 62.1385 64.9386C59.8826 67.6913 56.764 68.3673 55.4306 68.6586C54.7359 68.808 54.1495 68.879 53.7462 68.9126C53.4847 70.2123 53.5258 71.2544 53.6042 71.9341C53.7051 72.8118 53.8843 73.2339 54.0188 73.4916C54.3811 74.1863 54.889 74.5896 55.1617 74.795C56.7378 75.9827 58.7136 76.8418 60.088 77.529C61.6978 78.3357 62.8369 79.079 63.6175 79.5944C65.0069 80.5094 66.1124 81.2527 67.274 82.5188C67.5279 82.7952 68.3645 83.7327 69.1489 85.0922C70.5793 87.5796 70.3328 88.8831 71.4683 93.406C72.2825 96.6442 72.5252 96.4276 73.2498 99.606C73.6868 101.526 73.6308 101.754 74.2993 105.059C74.938 108.219 75.1023 108.581 75.5393 110.811C75.9613 112.958 75.9315 113.253 76.6187 117.821C77.0743 120.854 77.403 123.909 77.952 126.927C78.5944 130.456 79.0762 132.163 78.0006 133.601C77.1191 134.781 75.6887 135.114 75.4272 135.173C75.1359 135.241 73.1564 135.666 71.5168 134.363C70.725 133.732 70.3478 132.966 70.1834 132.552C70.2357 136.649 70.359 143.2 70.7063 151.267C71.1284 161.112 71.6774 168.433 71.8754 171.077C72.5738 180.496 73.7167 197.229 75.6663 229.293C76.6112 230.066 77.9744 231.362 79.0986 233.297C80.1108 235.037 81.6832 237.741 80.671 239.639C79.7485 241.368 77.1602 241.521 73.4253 241.738C70.2955 241.921 67.0163 242.111 66.1796 240.498C65.6866 239.549 66.4112 238.694 67.4196 235.063C67.9089 233.297 68.2039 231.825 68.372 230.869C67.6699 224.807 66.8108 217.091 65.892 208.127C64.6595 196.063 63.8677 187.077 63.2216 179.708C62.1833 167.839 60.8798 152.839 59.6473 133.22C59.3522 128.544 59.1281 124.66 58.9787 121.967C57.5035 121.549 55.4829 121.138 53.0664 121.108C50.381 121.074 48.1513 121.522 46.5826 121.967C46.1046 125.485 45.5182 130.77 45.3426 137.224C45.1596 144.044 45.5406 148.279 46.0112 156.391C46.2577 160.616 45.9215 155.48 47.0607 181.565C47.8413 199.414 48.2297 208.34 48.3492 209.599C48.6443 212.74 49.4099 220.169 49.4921 230.29C49.507 231.855 49.4996 233.144 49.4921 234.01C49.8208 235.235 50.3586 237.065 51.2102 239.254C51.9161 241.073 52.2671 241.674 51.9721 242.305C51.4455 243.433 49.6266 243.007 45.3912 243.545C40.9915 244.102 39.2622 245.028 37.4769 243.833C36.7561 243.351 36.3191 242.724 36.0614 242.26L36.0689 242.264Z" fill="white"/>
<path d="M43.2354 122.665C40.9422 136.955 40.8749 151.566 41.4202 166.005C41.5584 169.665 41.7414 173.322 41.9132 176.978C42.085 180.609 42.5146 184.213 42.6079 187.843C42.7835 194.906 42.649 202.021 43.1009 209.068C43.6238 217.196 44.4866 225.334 44.6061 233.48L46.2793 231.284C45.2298 231.713 44.2774 232.341 43.2205 232.729C40.0421 233.902 42.8843 238.313 45.1738 236.087C45.7116 235.564 46.1299 235.706 46.8844 235.754C48.1841 235.836 49.0656 234.641 49.1627 233.476C49.7677 226.215 48.7817 219.168 47.9003 211.978C47.0301 204.9 46.3764 197.86 46.0478 190.738C45.7228 183.723 45.805 176.698 45.6631 169.669C45.5174 162.416 45.5398 155.166 45.8349 147.917C46.171 139.674 46.8807 131.45 47.3401 123.214C47.4708 120.902 43.6164 120.316 43.2391 122.658L43.2354 122.665Z" fill="#C8D3D9"/>
<path d="M59.3741 122.856C58.8587 126.318 58.5113 129.552 58.7728 133.071C59.0342 136.589 59.3255 140.223 59.6281 143.797C59.9306 147.372 60.2779 151.192 60.6327 154.886C60.9764 158.468 60.6776 162.016 60.9241 165.594C61.4133 172.698 62.3097 179.817 63.1015 186.891C63.8933 193.964 64.4685 201.378 66.2089 208.34C67.1688 212.176 67.5871 216.21 68.1063 220.131C68.3603 222.055 68.5769 224.012 68.9952 225.905C69.2193 226.925 69.5442 227.851 69.5479 228.904C69.5517 230.1 69.0363 231.082 68.8533 232.232C68.7039 233.173 69.4695 234.372 70.5788 233.958C71.6246 233.566 72.7674 233.876 73.8095 234.171C74.6722 234.413 75.2175 233.345 74.6536 232.722C73.4173 231.355 71.9868 231.205 70.209 231.201L71.5611 232.976C72.1101 231.47 71.7814 229.778 71.9719 228.199C72.1848 226.436 72.3342 224.826 72.2035 223.048C71.9495 219.511 71.52 215.982 71.1764 212.452C70.8328 208.923 70.8962 205.147 70.4929 201.494C70.1007 197.961 69.731 194.428 69.2753 190.902C68.3266 183.574 67.363 176.25 66.5675 168.907C66.1753 165.303 65.4433 161.863 64.8084 158.304C64.1734 154.744 64.1211 150.804 63.8373 147.118C63.5236 143.05 63.236 138.983 62.9745 134.912C62.8513 133.003 62.7467 131.11 62.4628 129.216C62.1342 127.013 61.5702 124.992 60.9801 122.848C60.7784 122.116 59.5085 122.004 59.3853 122.848L59.3741 122.856Z" fill="#C8D3D9"/>
<path d="M43.3811 123.177C46.44 122.725 49.5176 122.523 52.6063 122.493C54.0704 122.478 55.5345 122.486 56.9948 122.549C58.6046 122.62 59.3964 122.762 60.6887 121.746C61.417 121.175 61.1891 120.066 60.6887 119.461C59.6989 118.269 58.4515 118.336 56.9948 118.195C55.415 118.041 53.8277 117.929 52.2403 117.914C49.0657 117.881 45.8985 118.116 42.7537 118.534C39.3848 118.983 39.9562 123.685 43.3811 123.177Z" fill="#C8D3D9"/>
<path d="M35.4447 89.0512C34.4774 90.885 33.764 92.4723 33.3271 94.5153C32.8901 96.5583 32.5502 98.7096 32.2813 100.827C31.7248 105.175 31.172 109.526 30.6193 113.873C30.3354 116.099 34.2346 116.648 34.5708 114.407C35.1833 110.306 35.7921 106.202 36.4046 102.101C36.9947 98.1307 37.428 94.1119 38.1152 90.1716C38.3804 88.6515 36.2776 87.4825 35.4522 89.0474L35.4447 89.0512Z" fill="#C8D3D9"/>
<path d="M26.279 128.955C31.59 125.638 36.9906 122.43 42.0888 118.792C44.5053 117.067 46.8695 115.252 49.0992 113.291C50.2346 112.293 51.3028 111.233 52.3859 110.18C53.4877 109.108 54.8621 108.297 55.1535 106.702C55.3738 105.5 54.3766 104.11 53.0208 104.57C51.5082 105.085 51.004 106.194 49.9956 107.33C48.9871 108.465 47.8331 109.459 46.7126 110.445C44.4754 112.413 42.1 114.213 39.6574 115.916C34.6974 119.379 29.547 122.572 24.4526 125.825C22.4955 127.076 24.292 130.195 26.2827 128.955H26.279Z" fill="#C8D3D9"/>
<path d="M67.9612 113.784C68.4467 117.903 69.3991 121.724 71.0499 125.53C71.6288 126.863 73.8548 126.18 73.7652 124.794C73.6046 122.34 73.754 119.584 73.1041 117.209C72.88 116.391 71.6512 116.376 71.4346 117.209C70.8109 119.591 70.9864 122.34 70.852 124.794L73.7166 124.406C72.2638 120.876 71.0275 117.209 70.2096 113.477C69.9407 112.245 67.8118 112.488 67.9649 113.78L67.9612 113.784Z" fill="#C8D3D9"/>
<path d="M48.2144 72.6886C49.5552 72.7409 50.8512 72.5989 52.1622 72.3113L50.0557 68.6885C49.5104 69.1442 49.0772 69.2413 48.3862 69.1628C47.4413 69.0582 46.4814 70.0928 46.5449 71.0041C46.6121 72.0013 46.7914 72.9799 46.9445 73.9659L47.4263 72.147C45.6896 74.373 43.4972 75.7587 41.1666 77.2713C39.6465 78.2573 40.6848 80.2741 42.3319 80.0389C44.3787 79.7475 46.6457 78.698 48.4646 77.7269C49.2938 77.2825 50.1043 76.7223 50.7467 76.0313C51.2285 75.5084 51.8746 73.8651 52.4834 73.6372L51.0081 72.162C50.6458 73.9136 47.8932 75.4935 46.4553 76.2591C44.8567 77.1107 42.8436 77.219 41.4356 78.3059C40.8305 78.7727 41.2526 79.6878 41.8539 79.8857C43.9267 80.5692 46.9632 78.8624 48.6887 77.7606C50.4143 76.6588 52.8942 74.9146 53.3237 72.8006C53.4881 71.9901 52.771 70.9817 51.8485 71.3253C50.0221 72.0088 49.7345 73.9696 48.2293 75.0789C46.5225 76.3338 44.05 77.219 41.9323 77.0659L42.3357 80.0389C44.6588 79.5533 46.5636 78.2909 48.3115 76.6812C49.0025 76.0425 50.1267 75.0938 50.4553 74.1863C50.8326 73.1517 50.3993 71.5606 50.164 70.5111L48.3862 72.8417C49.6449 72.7483 50.9521 72.6848 52.1622 72.3039C54.8887 71.4411 53.7084 67.7361 51.0118 68.1245C50.0744 68.259 49.1519 68.2104 48.2144 68.1096C45.3385 67.7996 45.234 72.5653 48.2144 72.6774V72.6886Z" fill="#C8D3D9"/>
<path d="M55.1057 39.0857C55.0945 39.6385 55.0684 40.1987 54.9862 40.7477L55.143 40.5461C54.7434 40.7141 54.6874 41.1063 54.5865 41.4873C54.5118 41.7748 54.4372 42.0624 54.3587 42.3463C54.228 42.8019 54.0263 43.2837 53.7499 43.6274C53.5184 43.9149 53.4698 44.3146 53.7499 44.5947C54.0151 44.8599 54.4521 44.8524 54.7173 44.5947C55.214 44.1092 55.4979 43.4593 55.6659 42.7945C55.7518 42.4546 55.8004 42.111 55.8303 41.7636C55.8452 41.562 55.8713 41.3528 55.8564 41.1511C55.834 40.8785 55.7033 40.7104 55.4867 40.5498L55.6547 40.8411C55.6958 40.2547 55.7369 39.6758 55.7369 39.0895C55.7369 38.6861 55.1169 38.6861 55.1094 39.0895L55.1057 39.0857Z" fill="#C8D3D9"/>
<path d="M57.8062 42.716C57.3842 43.59 56.7604 44.3855 56.0247 45.013C55.8753 45.1399 55.5578 45.4014 55.6997 45.6329C55.8603 45.8907 56.245 45.6404 56.4019 45.5134C56.8015 45.196 57.1787 44.8299 57.485 44.4154C57.8249 43.956 58.0975 43.4555 58.3142 42.9289C58.4337 42.6413 57.9444 42.4321 57.8062 42.716Z" fill="#C8D3D9"/>
<path d="M75.763 84.7635C75.9386 84.8121 75.9311 84.8307 76.0282 84.939L75.8078 84.5618C75.8937 84.9017 76.073 84.9951 76.3195 85.208C76.256 85.1519 76.271 85.1333 76.3195 85.2266C76.4502 85.4619 76.2822 85.1071 76.3494 85.2602C76.3718 85.3125 76.4726 85.4806 76.3755 85.2789C76.3793 85.2901 76.51 85.6898 76.4502 85.4619C76.4689 85.5254 76.4876 85.5889 76.4988 85.6524C76.454 85.4358 76.4876 85.7084 76.4913 85.7607C76.5025 86.0296 76.5361 85.6786 76.4876 85.8205C76.4614 85.8989 76.4465 85.9811 76.4204 86.0595C76.4988 85.8205 76.2672 86.3284 76.3457 86.2052C76.439 86.0595 76.2598 86.3322 76.2486 86.3023C76.2373 86.2687 76.439 86.194 76.4278 86.1977H76.4353C76.5698 86.2164 76.5735 86.2089 76.4428 86.1753L76.5249 86.2052C76.5249 86.2052 76.256 86.0334 76.3793 86.123C76.4951 86.2089 76.2822 86.0296 76.2822 86.0334C76.2411 85.9923 76.2 85.9512 76.1627 85.9101C76.1514 85.8989 75.9908 85.6786 76.088 85.8242C76.1851 85.9699 76.0319 85.7308 76.0282 85.7271C75.9983 85.6786 75.9684 85.6263 75.9423 85.5777C75.9162 85.5292 75.89 85.4731 75.8639 85.4209C75.9908 85.6674 75.8713 85.4395 75.8489 85.3723C75.8004 85.2341 75.7742 85.0922 75.7406 84.9503C75.7145 84.8457 75.6659 84.8345 75.7406 84.9988C75.7145 84.9465 75.7294 84.8419 75.7257 84.7822C75.7257 84.7486 75.7593 84.4087 75.7369 84.39C75.778 84.4236 75.6883 84.6141 75.7331 84.4423C75.7518 84.3564 75.7705 84.2742 75.7929 84.1883C75.8116 84.1174 75.8415 84.0501 75.8601 83.9829C75.9087 83.826 75.7033 84.2294 75.8713 83.9717C75.9087 83.9157 75.9386 83.8522 75.9722 83.7962C75.8116 84.0539 76.0693 83.6916 75.9348 83.8335C75.8302 83.9418 75.9983 83.7812 76.0394 83.7775C76.017 83.7775 75.7854 83.8447 76.002 83.8111C75.7219 83.8559 75.8825 83.8186 75.9498 83.8186C76.0095 83.8186 76.0693 83.8186 76.129 83.8186L75.9946 83.7962C76.1216 83.7812 76.3233 83.8783 76.439 83.9194C76.3942 83.9045 76.2261 83.8074 76.4054 83.912C76.4726 83.953 76.5399 83.9866 76.6071 84.0277C76.6743 84.0688 76.7416 84.1136 76.8051 84.1622C76.7677 84.136 76.6295 84.0091 76.7864 84.1547C76.9022 84.263 77.0105 84.3788 77.1225 84.4946C77.3279 84.7112 77.0441 84.3601 77.1375 84.5133C77.1785 84.5805 77.2271 84.644 77.2682 84.7112C77.3018 84.7672 77.3279 84.8233 77.3616 84.8793C77.5072 85.137 77.3242 84.7187 77.3765 84.9017C77.4213 85.0511 77.4587 85.2042 77.4997 85.3574C77.4437 85.1482 77.496 85.2827 77.4997 85.3499C77.4997 85.4545 77.4997 85.559 77.5035 85.6636C77.5184 85.9736 77.5483 85.5366 77.5035 85.7122C77.4848 85.7981 77.4699 85.884 77.4437 85.9661C77.425 86.0334 77.4026 86.1006 77.3802 86.1641C77.4549 85.9587 77.384 86.138 77.3541 86.194C77.3167 86.2612 77.2757 86.321 77.2346 86.3845C77.2607 86.3471 77.3952 86.2089 77.2495 86.3546C77.2084 86.3957 77.1636 86.4367 77.1225 86.4816C76.9582 86.6571 77.2757 86.4181 77.0777 86.5114C77.0665 86.5189 76.8051 86.6347 76.9806 86.5675C77.1561 86.5002 76.8835 86.5973 76.8723 86.5899C76.8947 86.6048 77.1711 86.5451 76.9022 86.5787C76.6332 86.6123 76.9843 86.6272 76.8499 86.5787C76.7677 86.5488 76.6818 86.5338 76.5996 86.5077C76.6445 86.5226 76.7789 86.6011 76.581 86.4965C76.4278 86.4143 76.2859 86.321 76.1402 86.2239C75.8825 86.0558 76.2336 86.3135 76.0917 86.1902C76.0282 86.138 75.9647 86.0857 75.9049 86.0296C75.7966 85.9325 75.6921 85.828 75.5912 85.7196C75.5352 85.6599 75.4829 85.6001 75.4306 85.5329C75.4605 85.5702 75.5427 85.6972 75.4306 85.5217C75.3447 85.3835 75.2588 85.2453 75.1878 85.0997C75.2775 85.2789 75.1804 85.0735 75.1617 85.0212C75.1318 84.9353 75.1094 84.8494 75.0907 84.7598C75.1019 84.8046 75.0945 84.9615 75.0907 84.7336C75.0907 84.7486 75.1019 84.4012 75.087 84.5581C75.0721 84.715 75.1318 84.3826 75.1318 84.3938C75.1393 84.3564 75.2103 84.2033 75.1356 84.3639C75.1654 84.3004 75.1991 84.2369 75.2364 84.1771C75.2775 84.1099 75.4269 83.9456 75.2962 84.0875C75.4045 83.9717 75.509 83.8559 75.636 83.7588C75.5949 83.7924 75.468 83.8634 75.636 83.77C75.707 83.7327 75.7705 83.6879 75.8415 83.6542C75.9012 83.6244 76.0954 83.5534 75.8676 83.6356C75.9274 83.6132 75.9871 83.5945 76.0469 83.5758C76.1066 83.5571 76.1701 83.5422 76.2299 83.5273C76.2934 83.5123 76.3531 83.5011 76.4166 83.4899L76.2859 83.5086C76.4017 83.4563 76.637 83.5011 76.7565 83.5048C76.9059 83.5086 76.8275 83.46 76.7117 83.4974C76.7602 83.4787 76.891 83.5385 76.9395 83.5497C76.9955 83.5646 77.1263 83.5833 77.1636 83.6206C77.1524 83.6057 76.9022 83.4899 77.1225 83.6057C77.2644 83.6767 77.3989 83.7551 77.5296 83.8447C77.5483 83.8559 77.7761 84.0464 77.6305 83.912C77.4848 83.7775 77.7052 83.9866 77.7164 83.9979C77.7612 84.0427 77.806 84.0875 77.8471 84.1323C77.8658 84.1547 78.0264 84.39 77.9255 84.2182C77.8172 84.0389 77.9741 84.3078 77.9853 84.3191C78.0189 84.3788 78.0525 84.4386 78.0824 84.4983C78.2056 84.7187 78.0936 84.4871 78.0749 84.461C78.1272 84.5319 78.1459 84.6627 78.1683 84.7486C78.1907 84.8307 78.2019 84.9129 78.2243 84.9951C78.2729 85.1856 78.2243 84.6739 78.2243 84.9951C78.2243 85.1482 78.2206 85.3013 78.2243 85.4507C78.2243 85.6487 78.3028 85.137 78.2243 85.4507C78.2094 85.518 78.1982 85.5815 78.1795 85.6487C78.1608 85.7159 78.1384 85.7794 78.1197 85.8429C78.0488 86.1193 78.2281 85.6674 78.0973 85.9064C78.0114 86.0595 77.9293 86.2126 77.8322 86.362C77.7985 86.4143 77.7537 86.4965 77.7089 86.5339C77.9143 86.3583 77.75 86.4778 77.6902 86.5488C77.5931 86.6646 77.496 86.7729 77.3877 86.8775C77.3391 86.9223 77.2906 86.9671 77.242 87.0119C77.0366 87.2061 77.4325 86.9223 77.1972 87.0343C77.1823 87.0418 76.9059 87.2099 77.0964 87.1016C77.2757 87.0007 77.003 87.1277 76.9731 87.1352C76.9432 87.1426 76.7864 87.1651 76.7752 87.1763L76.9358 87.1501C76.8872 87.1538 76.8349 87.1576 76.7826 87.1538C76.7266 87.1538 76.5735 87.1763 76.5287 87.1426C76.5399 87.1501 76.8573 87.2061 76.581 87.1501C76.4129 87.1128 76.2486 87.0605 76.0805 87.0157C75.763 86.926 76.2448 87.1053 76.0655 87.0157C75.9908 86.9783 75.9161 86.9447 75.8415 86.9036C75.7145 86.8364 75.5875 86.7617 75.468 86.6795L75.4269 86.6534C75.3074 86.5675 75.3223 86.5787 75.4642 86.687C75.4269 86.672 75.341 86.5824 75.3186 86.56C75.2177 86.4666 75.0384 86.3359 74.9862 86.2089C75.0907 86.4592 75.0571 86.2986 74.9974 86.2089C74.9525 86.1417 74.9189 86.0707 74.8778 85.9998C74.8368 85.9288 74.7322 85.8242 74.8891 86.0483C74.848 85.9886 74.8293 85.884 74.8106 85.813C74.7882 85.7346 74.7733 85.6524 74.7546 85.5702C74.706 85.3686 74.8069 85.5964 74.7621 85.63C74.7919 85.6076 74.7621 85.1856 74.7621 85.1333C74.7658 84.8121 74.7098 85.335 74.7621 85.1407C74.7845 85.0586 74.7957 84.9764 74.8181 84.8942C74.8368 84.8307 74.8554 84.7635 74.8741 84.7C74.8778 84.6851 75.0011 84.3825 74.9152 84.5768C74.8293 84.771 74.9712 84.4759 74.975 84.4647C75.0048 84.4087 75.0384 84.3489 75.0721 84.2929C75.1057 84.2369 75.143 84.1846 75.1766 84.1323C75.326 83.8858 75.016 84.2929 75.2028 84.0987C75.3148 83.9829 75.4269 83.8709 75.5389 83.7551C75.5875 83.7065 75.6995 83.5646 75.4904 83.785C75.5427 83.7289 75.6248 83.6879 75.6883 83.6468C75.7369 83.6132 76.0431 83.4936 76.0655 83.4376C76.0357 83.5123 75.8265 83.5198 76.0095 83.4638C76.1029 83.4339 76.1925 83.4003 76.2896 83.3779C76.3718 83.3555 76.454 83.3442 76.5324 83.3256C76.7266 83.2808 76.2 83.3256 76.5175 83.333C76.6669 83.333 76.8163 83.3368 76.9657 83.3405C77.1636 83.3442 76.6407 83.2546 76.947 83.3405C77.0105 83.3592 77.0777 83.3704 77.1412 83.3853C77.2047 83.4003 77.2682 83.4264 77.3317 83.4451C77.6118 83.5235 77.1412 83.3218 77.369 83.4638C77.44 83.5086 77.5147 83.5459 77.5856 83.5907L77.6267 83.6169C77.75 83.7028 77.735 83.6879 77.5819 83.5721C77.6902 83.6057 77.8209 83.7887 77.8956 83.8671C77.9629 83.9381 78.1272 84.0464 77.8956 83.8485C77.9367 83.8821 77.9816 83.968 78.0077 84.0053C78.0973 84.1398 78.1758 84.278 78.2505 84.4236C78.2617 84.4423 78.3924 84.7336 78.3027 84.5245C78.2131 84.3153 78.3326 84.6141 78.3401 84.6328C78.3887 84.771 78.4297 84.9092 78.4671 85.0511C78.5044 85.193 78.5754 85.3872 78.5679 85.5366C78.5829 85.2752 78.5605 85.4507 78.5605 85.5217C78.5605 85.6375 78.5754 85.7533 78.5717 85.869C78.5717 85.869 78.5455 86.25 78.5717 86.0334C78.5978 85.8168 78.5343 86.1902 78.5343 86.194C78.5194 86.2537 78.5007 86.3098 78.482 86.3695C78.3961 86.6571 78.5941 86.1828 78.4932 86.3434C78.4521 86.4069 78.4148 86.4778 78.3774 86.5451C78.2953 86.6982 78.3065 86.5226 78.426 86.489C78.4111 86.4928 78.3214 86.5973 78.299 86.6235C78.1309 86.8252 78.5082 86.5264 78.2878 86.6347C78.2729 86.6422 78.0114 86.7542 78.1832 86.6982C78.3812 86.6347 78.0226 86.7318 78.0226 86.7318C77.9666 86.7505 77.75 86.7804 78.0488 86.7355C77.9666 86.7467 77.8844 86.7542 77.8023 86.7617C77.6529 86.7729 77.5072 86.7729 77.3578 86.7617C77.3093 86.7617 77.2122 86.7617 77.1599 86.743C77.4811 86.8476 77.2047 86.743 77.1188 86.7243C76.9918 86.6945 76.7528 86.6608 76.6482 86.5824C76.6706 86.6011 76.9022 86.7094 76.6818 86.5936C76.6108 86.5563 76.5361 86.5189 76.4652 86.4778C76.3942 86.4367 76.2523 86.3023 76.4316 86.4853C76.3867 86.4405 76.3307 86.3994 76.2822 86.3546C76.2336 86.3098 76.1888 86.2649 76.1477 86.2201C76.0618 86.1305 75.9572 86.0296 76.0992 86.1828C75.9983 86.0707 75.9161 85.9139 75.8452 85.7794C75.834 85.757 75.7555 85.6151 75.7593 85.6076C75.7331 85.6375 75.8452 85.8392 75.763 85.6001C75.7182 85.4619 75.6846 85.3275 75.6547 85.1856C75.5987 84.9316 75.6547 85.2341 75.6622 85.2416C75.6248 85.193 75.651 85.025 75.651 84.9577C75.651 84.8793 75.6622 84.8009 75.6622 84.7187C75.6696 84.5282 75.58 85.025 75.6622 84.7411C75.7033 84.6066 75.7369 84.4759 75.778 84.3415C75.8302 84.1659 75.6248 84.6066 75.778 84.3527C75.8078 84.3004 75.834 84.2444 75.8676 84.1921C75.9012 84.1398 75.9348 84.0875 75.9647 84.0352C76.1066 83.7999 75.8078 84.1846 75.9871 84.0053C76.0768 83.9157 76.2 83.7364 76.3195 83.6879C76.2971 83.6991 76.0693 83.8447 76.2784 83.7289C76.3457 83.6916 76.4092 83.6505 76.4764 83.6132L76.5175 83.5907C76.6482 83.531 76.6295 83.5347 76.4577 83.6132C76.4689 83.5945 76.6295 83.5571 76.6332 83.5571C76.693 83.5385 76.7528 83.531 76.8125 83.5123C77.0852 83.4339 76.5623 83.5123 76.8275 83.5123C76.8872 83.5123 77.2495 83.4675 77.2906 83.5235C77.2981 83.5347 76.947 83.4451 77.2122 83.5235C77.2869 83.5459 77.3616 83.5609 77.4363 83.5833C77.496 83.602 77.6043 83.6206 77.6529 83.6617C77.6379 83.6505 77.3728 83.5161 77.5856 83.643C77.6342 83.6729 77.6902 83.7103 77.7425 83.7364C77.9778 83.8597 77.5856 83.5646 77.7724 83.7588C77.8322 83.8223 77.8956 83.8783 77.9554 83.9418C78.0264 84.0203 78.1795 84.0987 77.9741 83.953C78.0787 84.024 78.1571 84.2369 78.2131 84.3415L78.2318 84.3825C78.2915 84.5133 78.2841 84.4871 78.2056 84.3078C78.2243 84.3191 78.2654 84.4684 78.2691 84.4759C78.3177 84.6178 78.3476 84.7635 78.3812 84.9092C78.4484 85.2005 78.3737 84.6739 78.3737 84.8681C78.3737 84.9428 78.3812 85.0175 78.3812 85.0884C78.3812 85.1482 78.3774 85.2042 78.3737 85.264C78.3662 85.559 78.4297 85.0324 78.3812 85.2154C78.3513 85.3275 78.2878 85.4731 78.2766 85.5889C78.299 85.3686 78.3737 85.3984 78.3027 85.5068C78.2915 85.5217 78.1907 85.7308 78.1646 85.7271C78.187 85.7271 78.3625 85.5068 78.172 85.6935L78.1384 85.7271C78.0301 85.8205 78.0488 85.8093 78.1907 85.6935C78.1907 85.7084 78.0338 85.7906 78.0338 85.7906C77.7873 85.9475 78.2318 85.7421 78.0562 85.7906C77.9853 85.8093 77.9068 85.8317 77.8359 85.8541C77.6865 85.9027 77.7575 85.7943 77.9143 85.8504C77.8807 85.8392 77.7724 85.8578 77.7313 85.8578C77.6716 85.8578 77.6081 85.8578 77.5483 85.8504L77.7164 85.8728C77.7052 85.8914 77.5222 85.8205 77.4923 85.813C77.3205 85.7794 77.7575 85.9773 77.5222 85.8242C77.4736 85.7943 77.4213 85.7645 77.369 85.7346C77.1225 85.5927 77.5147 85.884 77.3914 85.7533C77.3429 85.701 77.2869 85.6487 77.2346 85.6001C77.13 85.503 77.2346 85.4955 77.2757 85.6636C77.2682 85.6263 77.201 85.5553 77.1785 85.5142C77.1487 85.4619 77.1188 85.4134 77.0926 85.3574L77.1561 85.5105C77.13 85.503 77.0964 85.3312 77.0889 85.3013L77.0777 85.2602C77.0478 85.1183 77.0478 85.1445 77.0777 85.3424C77.0478 85.3051 77.0553 84.8158 77.0628 85.0399C77.0702 85.3163 77.115 84.7224 77.1449 84.7486C77.1823 84.7784 77.0217 84.9801 77.1225 84.8009C77.1711 84.7187 77.2196 84.6365 77.2682 84.5506C77.4176 84.2929 77.13 84.6701 77.2682 84.5581C77.2981 84.5319 77.4026 84.3825 77.44 84.39C77.4549 84.39 77.1487 84.5656 77.3802 84.4423C77.4437 84.4087 77.511 84.3713 77.5744 84.3377C77.7238 84.2556 77.2682 84.405 77.5408 84.3601C77.5819 84.3527 77.679 84.334 77.7126 84.3191C77.5109 84.4236 77.4773 84.3303 77.6118 84.3377C77.9479 84.3639 77.5969 84.3489 77.5894 84.3191C77.6193 84.4124 77.8844 84.3004 77.6641 84.334L77.5782 84.3004C77.6977 84.3751 77.6753 84.3564 77.511 84.2369C77.6716 84.3788 77.44 84.1734 77.4736 84.1659L77.5184 84.2406C77.5707 84.3452 77.5744 84.3452 77.5222 84.2406L77.4885 84.1622C77.5072 84.2182 77.5222 84.278 77.5296 84.3377L77.5147 84.2481C77.4997 84.1286 77.496 84.1286 77.5035 84.2481V84.3377L77.5259 84.151C77.5259 84.151 77.4475 84.39 77.4549 84.3975C77.4101 84.3452 77.5969 84.1136 77.4587 84.3415C77.3205 84.5693 77.4699 84.2929 77.4923 84.3078C77.4923 84.3078 77.3616 84.4423 77.3728 84.4311C77.1748 84.6328 77.5707 84.3228 77.4101 84.4012C77.3914 84.4124 77.2234 84.5058 77.2234 84.5095C77.2234 84.4834 77.552 84.405 77.313 84.4685C77.3205 84.4685 77.1524 84.5058 77.1487 84.5133C77.3728 84.4909 77.4064 84.4834 77.257 84.4946H77.1711C76.9432 84.5095 77.2532 84.5095 77.3279 84.5357C77.6305 84.644 77.8471 84.9876 77.8359 85.3051C77.8359 85.3387 77.7537 85.6337 77.8247 85.4096L77.7687 85.5702C77.6603 85.701 77.6379 85.7308 77.7089 85.6599C77.8434 85.5292 77.4288 85.8055 77.7052 85.6599C77.7649 85.63 77.8284 85.5889 77.8844 85.5553C78.1309 85.4134 77.877 85.5441 77.862 85.559C77.9479 85.4769 78.1982 85.4993 77.9255 85.518C78.2505 85.4955 77.7687 85.4507 77.9255 85.4993C78.0973 85.5516 77.6417 85.3125 77.877 85.4806C77.8434 85.4582 77.6529 85.264 77.7985 85.4321L77.6865 85.2901C77.6193 85.0996 77.6006 85.0511 77.6305 85.1519L77.6417 85.193C77.6006 85.0548 77.5969 84.9166 77.6305 84.7747C77.6603 84.6477 77.735 84.5058 77.8209 84.4124C78.0899 84.1323 78.5194 84.136 78.8443 84.3004C78.187 83.968 77.2869 84.1062 76.9171 84.8046C76.5772 85.447 76.7229 86.3733 77.4213 86.7318C78.1197 87.0904 78.9339 87.0306 79.5801 86.5301C80.2262 86.0296 80.4914 85.2266 80.2935 84.461C80.1142 83.7663 79.5838 83.2359 78.9377 82.9633C78.1944 82.6496 77.4138 82.7803 76.6967 83.0977C76.1514 83.3405 75.6435 83.7439 75.3522 84.2742C74.9376 85.0324 75.0459 85.9923 75.636 86.6272C76.6108 87.6693 78.3252 87.2285 79.2551 86.3882C80.1851 85.5478 80.4316 84.1435 79.8901 83.0044C79.3485 81.8652 77.9293 81.4133 76.7714 81.7905C75.6136 82.1678 74.7695 83.1127 74.5006 84.2705C74.2317 85.4283 74.5454 86.5936 75.3484 87.4638C76.1514 88.3341 77.384 88.6515 78.5231 88.3938C79.6623 88.1361 80.5437 87.2285 80.8686 86.1305C81.4849 84.0464 80.1403 81.4768 77.9853 80.9763C76.9507 80.7373 75.778 80.883 74.8965 81.4992C74.0151 82.1155 73.3316 83.038 73.1449 84.1062C72.9581 85.1743 73.1374 86.3322 73.7536 87.2659C73.9105 87.5012 74.0823 87.729 74.2765 87.9344C74.34 88.0054 74.411 88.0726 74.4819 88.1361C74.5791 88.222 75.0907 88.5731 74.7882 88.3826C75.0347 88.5395 75.2401 88.7337 75.5016 88.8719C75.763 89.0101 76.0618 89.1371 76.3531 89.2342C77.4101 89.5815 78.7584 89.5778 79.7071 88.9354C80.7566 88.2258 81.2869 87.0082 81.272 85.7607C81.2458 83.587 79.9424 81.1444 77.6529 80.7111C76.5175 80.4945 75.3298 80.6626 74.3475 81.2938C73.3652 81.925 72.7116 82.7877 72.3194 83.8447C71.9273 84.9017 72.002 86.1641 72.4912 87.2136C72.9208 88.1324 73.7947 88.8943 74.6986 89.3276C75.8564 89.8841 77.1375 90.0559 78.3252 89.4732C79.2439 89.025 80.0208 88.0726 80.4391 87.1538C80.9209 86.0931 81.033 84.8494 80.596 83.7514C80.159 82.6533 79.3224 81.7644 78.1795 81.3087C76.1365 80.4945 73.6453 81.6972 72.9917 83.7924C72.6406 84.9129 73.0776 86.0819 73.7648 86.9708C74.3736 87.7589 75.341 88.5619 76.3307 88.786C77.552 89.0586 78.6837 88.4685 79.3373 87.434C79.9349 86.489 80.0357 85.1818 79.6361 84.1435C79.2552 83.1612 78.5493 82.2985 77.5931 81.8204C76.5399 81.2938 75.2028 81.2079 74.3064 82.1005C73.5968 82.8102 73.3055 83.9829 73.4138 84.9577C73.5221 85.9325 73.9142 86.9111 74.6575 87.602C75.1318 88.0465 75.707 88.3639 76.3643 88.405C77.0814 88.4461 77.6977 88.039 78.0936 87.4713C78.7509 86.5301 78.8256 85.0996 78.0861 84.1846C77.7911 83.8186 77.2869 83.4862 76.8163 83.4227C76.693 83.4077 76.566 83.4077 76.4465 83.4376C76.0095 83.5571 76.2187 83.5123 76.3158 83.4862C76.2411 83.5048 76.1739 83.531 76.1029 83.5609C75.8863 83.6468 75.6995 83.7626 75.5315 83.9269C75.2737 84.1809 75.397 84.6365 75.7443 84.7299L75.763 84.7635Z" fill="#FFFF00"/>
<path d="M112.81 31.108C112.899 31.1565 113.448 31.7093 113.415 31.7952C113.456 31.6906 112.798 30.783 113.149 31.3955C113.598 32.1724 112.802 30.671 113.179 31.5785C113.217 31.9969 113.224 31.9819 113.202 31.5337L112.776 33.0613C112.257 34.0062 111.473 33.9166 110.587 34.0959C110.255 34.0361 110.233 34.0398 110.52 34.1108C110.811 34.2004 110.789 34.178 110.449 34.0324C109.691 33.3153 111.319 34.9101 110.061 33.7224C110.516 34.1519 110.087 33.8307 110.042 33.5655L110.255 33.9054L109.949 32.6318C109.93 31.7055 110.33 31.0669 111.151 30.7195C111.428 30.2863 111.786 30.0734 112.227 30.0734C112.537 30.0472 112.544 30.0435 112.249 30.0622C112.104 30.0622 111.958 30.0771 111.812 30.0995C111.465 30.1219 111.05 30.0584 110.711 30.1257L110.333 30.1145L113.037 31.7242L112.843 31.4217C113.202 32.1575 113.213 32.135 112.866 31.3619C112.589 30.7046 112.201 30.051 111.637 29.5953C109.56 27.8997 107.021 27.7577 104.94 29.5953L104.761 29.7522C103.39 30.966 103.121 32.9268 103.476 34.615C104.608 39.9895 111.603 41.039 115.756 38.5665C117.982 37.2407 119.521 34.9063 119.331 32.2471C119.17 29.9763 118.139 27.8661 116.485 26.3011C112.402 22.4318 105.403 23.6419 103.54 29.1733C102.822 31.3059 103.286 33.8494 104.402 35.7728C106.02 38.5591 108.757 39.3733 111.783 38.9475C113.422 38.7159 114.658 36.856 114.856 35.3807C115.077 33.7448 114.318 31.9184 112.81 31.108Z" fill="#C1272D"/>
<path d="M53.8837 92.4313C55.2656 91.8785 57.0173 91.3257 59.079 91.0008C62.5823 90.4518 65.5553 90.7879 67.5647 91.1913C68.0875 96.8646 68.6142 102.538 69.1371 108.211C68.3116 108.656 67.4825 109.1 66.6571 109.545C65.8765 106.986 65.0996 104.428 64.319 101.869C63.9717 101.832 63.0865 101.78 62.4591 102.347C61.8241 102.923 61.8241 103.797 61.8391 104.827C61.8503 105.679 61.9885 107.038 62.6981 108.641C60.8381 110.467 58.9781 112.297 57.1181 114.124C56.7148 114.243 55.9827 114.392 55.4001 114.026C54.5224 113.474 54.5075 112.069 54.4925 111.498C54.3506 104.939 52.2852 102.392 53.6335 93.8095C53.7306 93.1932 53.8202 92.7002 53.8725 92.4275L53.8837 92.4313Z" fill="#333333"/>
<path d="M37.0328 55.6948C37.0141 56.5912 37.0702 57.4801 37.1897 58.369C37.3092 59.2579 37.4586 60.2177 37.7163 61.0805C37.974 61.9433 38.299 62.7911 38.6986 63.5941C39.0273 64.2552 39.5016 65.2935 40.3756 65.2636C40.4503 65.2636 40.5287 65.2262 40.566 65.1553C40.9283 64.4158 40.3681 63.6389 40.0656 62.9816C39.7182 62.2309 39.412 61.4727 39.1692 60.6771C38.9264 59.8816 38.6874 59.0935 38.5753 58.2457C38.4633 57.3979 38.4297 56.5426 38.4483 55.6911C38.4708 54.7797 37.0515 54.7797 37.0328 55.6911V55.6948Z" fill="#C8D3D9"/>
<path d="M46.101 69.4841C43.5127 68.6811 41.2195 66.9668 39.6807 64.7408C38.1419 62.5148 37.4174 59.5306 37.634 56.7294C38.0897 50.8657 42.6051 46.1037 48.2187 44.6993C49.003 44.5014 49.8733 44.4864 50.624 44.1764C51.0087 44.0158 51.2813 43.7395 51.5689 43.4519C51.8938 43.1269 52.2113 42.7983 52.5101 42.4472C53.6754 41.0765 54.6838 39.6161 55.4383 37.9803H54.7548C55.9238 39.7767 55.9611 41.928 55.0087 43.8254C54.8332 44.1764 55.2291 44.7217 55.6138 44.4304L57.0704 43.3249C57.287 43.1606 57.5074 42.9925 57.724 42.8244C57.8361 42.7385 58.2506 42.3202 58.3328 42.3127C58.3328 42.2492 58.3328 42.253 58.3403 42.3239C58.3515 42.3837 58.3515 42.4397 58.3403 42.4995C58.3291 42.5854 58.2955 42.6713 58.2693 42.7535C58.1871 43.0224 58.0788 43.2838 57.9481 43.5303C57.6941 44.0084 57.3841 44.4566 57.0144 44.8525C56.8538 45.0243 56.8463 45.3791 57.0966 45.4911C61.3917 47.3922 63.2106 51.8031 63.8791 56.1954C64.0659 57.4167 64.1219 58.6679 63.8754 59.8854C63.6588 60.9461 63.233 61.9732 62.6914 62.907C61.6382 64.7259 60.1891 66.1787 58.3477 67.2096C56.3122 68.345 54.0713 68.6139 51.7893 68.8193C51.6025 68.838 51.539 69.1106 51.7444 69.1629C53.8285 69.6895 56.047 69.1256 57.9705 68.2591C60.0135 67.3403 61.6942 65.9509 63.0612 64.1806C64.6411 62.1338 65.0145 59.6539 64.7494 57.1365C64.4842 54.6304 63.8903 52.0608 62.7437 49.8049C61.5971 47.5491 59.7894 45.592 57.414 44.7479L57.5933 45.4276C58.0826 44.8226 58.4822 44.1951 58.7922 43.4818C59.0088 42.9887 59.345 42.3015 58.9789 41.7936C58.5195 41.1549 57.8211 41.7114 57.3767 42.0364C56.6409 42.5742 55.9089 43.1232 55.1768 43.6648L55.7819 44.2698C56.85 42.2044 56.6558 39.5377 55.4457 37.5806C55.3001 37.3453 54.9004 37.3042 54.7622 37.5806C54.0227 39.0895 53.1413 40.576 52.0358 41.8533C51.7743 42.1559 51.5129 42.492 51.2066 42.7497C50.8481 43.0522 50.3924 43.0747 49.9405 43.1195C49.1935 43.1942 48.4689 43.31 47.7406 43.4892C44.8872 44.2026 42.1906 45.7488 40.2185 47.945C38.2465 50.1411 36.9132 53.1402 36.6069 56.1991C36.3118 59.1907 37.0439 62.1002 38.6835 64.6138C40.3231 67.1274 42.96 69.1779 45.9703 69.9659C46.284 70.0481 46.411 69.5775 46.1047 69.4804L46.101 69.4841Z" fill="black"/>
<path d="M46.9864 59.7174C46.9976 59.7995 46.9976 59.8854 46.9864 59.9676L47.0088 59.7883C46.9976 59.8705 46.9752 59.9526 46.9416 60.0311L47.0088 59.8667C47.0088 59.8667 46.9976 59.8966 46.9902 59.9116H48.1779C48.1629 59.878 48.1405 59.8443 48.1293 59.8107L48.1965 59.9751C48.1704 59.9153 48.1555 59.8555 48.148 59.792L48.1704 59.9713C48.1629 59.9078 48.1629 59.8443 48.1704 59.7808L48.148 59.9564C48.1555 59.9153 48.1629 59.8705 48.1779 59.8294L48.1106 59.9863C48.1106 59.9863 48.1256 59.9564 48.133 59.9452L48.0322 60.0759C48.0322 60.0759 48.0471 60.0572 48.0583 60.0498L47.9276 60.1506C47.9836 60.1133 48.0322 60.0722 48.0808 60.0273L47.95 60.1282C47.95 60.1282 47.9575 60.1245 47.9612 60.1207L47.8118 60.1842C47.8118 60.1842 47.823 60.1842 47.8268 60.1805L47.6625 60.2029C47.6625 60.2029 47.6737 60.2029 47.6811 60.2029L47.5168 60.1805C47.5168 60.1805 47.528 60.1805 47.5355 60.1842L47.3898 60.1245H47.3973L47.274 60.0348C47.274 60.0348 47.2852 60.0498 47.2927 60.0572L47.1993 59.9377C47.2217 59.9676 47.2404 60.0012 47.2553 60.0348L47.1956 59.8966C47.2105 59.934 47.2217 59.9751 47.2292 60.0124L47.2105 59.863C47.2105 59.8892 47.218 59.919 47.2143 59.9452C47.2143 60.0572 47.2255 60.1805 47.2927 60.2739L47.3749 60.3822C47.4234 60.4345 47.4794 60.4718 47.5467 60.4942C47.5877 60.5166 47.6326 60.5316 47.6811 60.5316C47.7521 60.5465 47.823 60.5428 47.894 60.5204C47.9874 60.483 48.0621 60.4531 48.1368 60.3784C48.2003 60.3187 48.2264 60.2701 48.2563 60.1954C48.2712 60.1543 48.2899 60.117 48.3011 60.0759C48.3123 60.0348 48.3161 59.99 48.3235 59.9489C48.331 59.9078 48.3385 59.863 48.3385 59.8182C48.3385 59.7286 48.3273 59.6389 48.3086 59.553C48.3049 59.5343 48.3011 59.5157 48.2936 59.5007C48.2712 59.4372 48.2451 59.37 48.2115 59.3102L48.2712 59.4522C48.2451 59.3887 48.2302 59.3252 48.1928 59.2692C48.1293 59.1721 48.0621 59.1048 47.965 59.0413C47.9351 59.0227 47.9239 59.0189 47.8753 59.0003C47.8455 58.989 47.8156 58.9741 47.7857 58.9629C47.7259 58.9554 47.6662 58.948 47.6064 58.9405L47.4346 58.9629C47.4047 58.9666 47.3749 58.9816 47.3487 58.9965C47.3188 59.0077 47.289 59.0189 47.2628 59.0339C47.2143 59.0637 47.1246 59.1384 47.1172 59.1459C47.0537 59.2057 46.9976 59.2766 46.9603 59.3551C46.9229 59.4372 46.8781 59.5306 46.8594 59.624C46.8408 59.7174 46.8258 59.8145 46.8184 59.9116C46.8184 59.9564 46.8184 59.9975 46.8184 60.0423C46.8296 60.1394 46.837 60.2402 46.8632 60.3336C46.8893 60.427 46.9267 60.5278 46.979 60.6137L47.0873 60.7519L47.2255 60.8602L47.3898 60.9312C47.4794 60.9611 47.5728 60.9648 47.6625 60.9424C47.7259 60.9424 47.782 60.9275 47.8343 60.8938C47.894 60.8789 47.9426 60.849 47.9874 60.8042C48.0397 60.7743 48.0808 60.7332 48.1106 60.681C48.1704 60.6137 48.2115 60.5353 48.2339 60.4457C48.2862 60.3037 48.3048 60.1469 48.3123 59.9975C48.3123 59.9489 48.3123 59.9004 48.3123 59.8518C48.3048 59.751 48.2899 59.6464 48.2675 59.5455C48.2488 59.4596 48.2077 59.3849 48.148 59.3215C48.1032 59.2505 48.0397 59.1945 47.9612 59.1534L47.8044 59.0862C47.7185 59.06 47.6288 59.0563 47.5429 59.0749C47.4832 59.0749 47.4271 59.0899 47.3749 59.1198C47.2927 59.1459 47.2217 59.1907 47.162 59.258L47.0574 59.3924C46.9976 59.497 46.9678 59.6053 46.9678 59.7248L46.9864 59.7174Z" fill="black"/>
<path d="M51.7446 59.5717C51.7446 59.5717 51.7521 59.6053 51.7558 59.624L51.7371 59.4858C51.7371 59.5119 51.7371 59.5381 51.7371 59.5605L51.7558 59.4186C51.7521 59.4484 51.7446 59.4746 51.7334 59.5007L51.7894 59.37C51.7782 59.3961 51.7633 59.4223 51.7483 59.4447L51.8342 59.3327C51.8342 59.3327 51.8268 59.3401 51.823 59.3439L51.9351 59.258H51.9276L52.0583 59.2057H52.0509L52.1965 59.187C52.1965 59.187 52.1853 59.187 52.1816 59.187L52.331 59.2057H52.3235L52.458 59.258H52.4542L52.5663 59.3401H52.5626L52.6485 59.4484C52.6485 59.4484 52.6373 59.4298 52.6335 59.4223L52.6895 59.5567C52.6895 59.5567 52.6821 59.5306 52.6783 59.5157L52.697 59.6651C52.6933 59.6016 52.6895 59.5381 52.6895 59.4746C52.6895 59.4148 52.6783 59.3551 52.6858 59.299L52.6671 59.4447C52.6671 59.4447 52.6709 59.4223 52.6746 59.4111L52.6186 59.5418C52.6186 59.5418 52.626 59.5269 52.6298 59.5231L52.5439 59.6314H52.5476L52.4393 59.7099C52.4393 59.7099 52.4468 59.7024 52.4505 59.7024L52.3235 59.7584H52.331L52.1891 59.7771C52.1891 59.7771 52.2003 59.7771 52.204 59.7771L52.0621 59.7584H52.0695L51.9426 59.7061C51.9426 59.7061 51.95 59.7099 51.9575 59.7136L51.8492 59.6314C51.8492 59.6314 51.8567 59.6389 51.8604 59.6427L51.7782 59.5343C51.7782 59.5343 51.7894 59.553 51.7969 59.5642L51.7446 59.4372C51.7595 59.4708 51.7633 59.5045 51.767 59.5418L51.7483 59.3999C51.7558 59.4708 51.7595 59.5418 51.7521 59.6128L51.7708 59.4746C51.7633 59.5119 51.7483 59.5493 51.7334 59.5866L51.7857 59.4596C51.7708 59.497 51.7521 59.5381 51.7297 59.5717L51.8156 59.4596C51.8156 59.4596 51.7857 59.4895 51.767 59.5045L52.6783 59.6202C52.6783 59.6202 52.6746 59.609 52.6709 59.6053L52.7306 59.7472C52.6895 59.6427 52.6559 59.5455 52.57 59.4671C52.5252 59.426 52.4729 59.3924 52.4244 59.3588L52.5401 59.4484C52.5177 59.4298 52.4953 59.4111 52.4692 59.3924C52.4318 59.3551 52.3907 59.3327 52.3422 59.3177C52.3198 59.3028 52.2936 59.2916 52.2675 59.2878L52.1181 59.2692C52.0397 59.2692 51.9687 59.2841 51.9015 59.3177C51.8529 59.3327 51.8118 59.3551 51.7782 59.3887C51.7185 59.4298 51.6699 59.482 51.6326 59.5455C51.6139 59.5717 51.5803 59.6576 51.5728 59.6875C51.5728 59.6837 51.5504 59.7995 51.5541 59.8518V59.8667C51.5579 59.9116 51.5653 59.99 51.5803 60.0348L51.64 60.1767V60.1842L51.7371 60.3037L51.8567 60.3971C51.9089 60.427 51.9724 60.4494 52.0285 60.4718C52.133 60.4979 52.2339 60.4979 52.3385 60.4718C52.4132 60.4531 52.4804 60.4195 52.5364 60.3672C52.5999 60.3261 52.6485 60.2738 52.6858 60.2029C52.7381 60.1132 52.7642 60.0161 52.7642 59.9116C52.7642 59.8892 52.7642 59.8705 52.7642 59.8481L52.7456 59.9937C52.7754 59.8667 52.7866 59.736 52.7941 59.609L52.7754 59.7472C52.7941 59.6464 52.8091 59.5455 52.8091 59.4447C52.8091 59.4186 52.8091 59.3887 52.8091 59.3625C52.8091 59.3289 52.8016 59.2916 52.7979 59.258C52.7941 59.2243 52.7904 59.187 52.7792 59.1534C52.7642 59.1048 52.7418 59.0488 52.7157 59.004C52.6895 58.9592 52.6559 58.9143 52.6223 58.877C52.5887 58.8434 52.5401 58.806 52.4991 58.7799C52.4244 58.7313 52.2974 58.6977 52.2115 58.7015C52.0583 58.7052 51.9127 58.7575 51.8006 58.8658C51.7633 58.9031 51.7297 58.9405 51.7035 58.989C51.6774 59.0376 51.655 59.0899 51.64 59.1384C51.6102 59.2318 51.6102 59.3364 51.6064 59.4335L51.5989 59.6277C51.5989 59.6277 51.5989 59.6539 51.5989 59.6688C51.5989 59.6763 51.5989 59.68 51.5989 59.6837C51.5989 59.7211 51.6102 59.7995 51.6214 59.8369C51.6214 59.8481 51.6251 59.8555 51.6288 59.8667C51.6699 59.9788 51.6587 59.9601 51.6886 60.0087C51.711 60.0423 51.7521 60.0983 51.782 60.1282C51.8081 60.1543 51.8679 60.1992 51.9015 60.2216C51.9426 60.2477 52.0658 60.2888 52.0397 60.2813C52.0695 60.2888 52.021 60.2813 52.1181 60.2925C52.1368 60.2925 52.1741 60.3037 52.2003 60.3037C52.2152 60.3037 52.3347 60.2888 52.3497 60.2851C52.3833 60.2738 52.458 60.244 52.4879 60.2253C52.5252 60.2066 52.6746 60.0647 52.6074 60.1357C52.6372 60.1058 52.6746 60.0535 52.7007 60.0199C52.7381 59.9601 52.768 59.8892 52.7829 59.8219C52.7978 59.7659 52.8016 59.7061 52.8091 59.6464C52.8091 59.6314 52.8091 59.6128 52.8091 59.5978C52.8091 59.5381 52.7979 59.482 52.7866 59.426C52.7866 59.4111 52.7829 59.3961 52.7792 59.3849C52.7717 59.3476 52.753 59.314 52.7381 59.2804C52.7232 59.2468 52.712 59.2131 52.6933 59.1795C52.6597 59.1198 52.6186 59.0712 52.5626 59.0339C52.514 58.989 52.4542 58.9592 52.387 58.9405L52.2488 58.9218C52.1779 58.9218 52.1106 58.933 52.0509 58.9666C52.0061 58.9778 51.9687 59.0002 51.9388 59.0339C51.8828 59.0712 51.838 59.1198 51.8081 59.1795C51.7446 59.3028 51.7185 59.441 51.7558 59.5754L51.7446 59.5717Z" fill="black"/>
<path d="M45.5214 70.2124C45.6223 70.9445 45.6559 71.684 45.6447 72.4197C45.6372 72.7895 45.6148 73.1592 45.5849 73.529C45.555 73.8988 45.5401 74.3245 45.6521 74.6681C45.738 74.9333 46.048 74.9408 46.2012 74.7391C46.429 74.4403 46.5373 73.9847 46.5821 73.6186C46.6344 73.219 46.6643 72.8194 46.683 72.4197C46.7203 71.6317 46.6904 70.8473 46.6083 70.063C46.5747 69.7343 46.3356 69.4692 45.9808 69.5177C45.626 69.5663 45.4766 69.88 45.5214 70.2087V70.2124Z" fill="black"/>
<path d="M53.4881 69.3571C53.3349 70.1489 53.249 70.9444 53.249 71.7512C53.249 72.1545 53.2602 72.5654 53.3611 72.9575C53.4096 73.1443 53.4843 73.3235 53.5553 73.5028C53.615 73.656 53.6561 73.8203 53.7682 73.9398C53.8242 73.9996 53.9288 73.9846 53.9699 73.9137C54.0558 73.7717 54.0595 73.5887 54.0931 73.4244C54.1267 73.26 54.1641 73.1144 54.1902 72.9575C54.2537 72.5728 54.2537 72.1807 54.2724 71.7922C54.3023 71.0714 54.3695 70.3431 54.4778 69.6297C54.5189 69.3571 54.4106 69.077 54.1193 68.9985C53.869 68.9276 53.5403 69.0844 53.4881 69.3571Z" fill="black"/>
<path d="M45.6935 74.1378C42.7579 75.8745 39.7961 77.5702 36.8866 79.348C35.6691 80.0912 34.5075 80.939 33.6447 82.0894C32.7334 83.3032 32.1732 84.7449 31.6316 86.153C30.4514 89.2118 29.5401 92.3678 28.7744 95.5537C28.3897 97.1522 28.0274 98.7508 27.6876 100.361C27.3477 101.97 27.0975 103.599 26.7053 105.19C25.8836 108.525 25.2636 111.92 24.5615 115.281C23.8556 118.654 23.1833 122.049 22.7762 125.47C22.6865 126.217 22.5558 127.002 22.8808 127.711C23.1459 128.298 23.6614 128.686 24.2739 128.858C25.6931 129.254 27.0452 128.324 28.2329 127.685C31.0079 126.195 33.6111 124.402 36.1098 122.486C38.6084 120.57 40.9801 118.523 43.3629 116.477C45.9811 114.224 48.603 111.976 51.2249 109.728C51.5536 109.448 51.8822 109.167 52.2072 108.884C52.5321 108.6 52.7861 108.249 53.055 107.905C53.0923 107.856 53.0475 107.778 52.984 107.812C51.5723 108.6 50.3958 109.758 49.167 110.8C47.9382 111.842 46.6721 112.914 45.4246 113.97C43.0417 115.987 40.6738 118.023 38.2461 119.991C35.8184 121.959 33.4729 123.767 30.8996 125.399C29.6148 126.213 28.2814 127.084 26.8659 127.651C26.2048 127.917 25.5101 128.115 24.8192 127.842C24.2365 127.614 23.9415 127.177 23.9676 126.557C23.9975 125.795 24.1506 125.026 24.2664 124.271C24.3934 123.45 24.5166 122.628 24.6474 121.806C24.9125 120.163 25.2113 118.523 25.4989 116.884C26.0778 113.608 26.5932 110.318 27.1348 107.035C28.1619 100.846 29.3421 94.6611 31.3851 88.7151C32.3562 85.8915 33.3273 82.799 35.7886 80.9129C36.9837 79.9979 38.3059 79.2546 39.5944 78.4815C41.0062 77.6337 42.418 76.7858 43.8298 75.9418L45.9886 74.6457C46.3172 74.4478 46.0185 73.9361 45.6898 74.1303L45.6935 74.1378Z" fill="black"/>
<path d="M36.6702 88.8272C36.5955 89.2231 36.4648 89.5965 36.3864 89.9887C36.3042 90.4108 36.2407 90.8403 36.1698 91.266C36.0353 92.0578 35.9083 92.8496 35.8 93.6452C35.5722 95.2997 35.3481 96.958 35.1203 98.6126C34.6758 101.862 34.2426 105.115 33.7794 108.361L32.9764 113.963C32.9055 114.449 33.6524 114.654 33.7197 114.168C34.6048 107.576 35.5311 100.988 36.4611 94.3996C36.5881 93.507 36.7113 92.6181 36.8047 91.7254L36.9541 90.3473C37.0064 89.8542 36.9802 89.3687 37.0251 88.8757C37.0437 88.674 36.7076 88.6255 36.6702 88.8272Z" fill="black"/>
<path d="M32.0763 115.819C33.5516 114.602 34.8999 113.212 36.2968 111.905C37.6936 110.598 39.1054 109.291 40.5023 107.976C43.2698 105.365 46.0598 102.777 48.8685 100.211C49.6528 99.4902 50.4408 98.7731 51.2289 98.0598C51.636 97.69 52.0394 97.324 52.4465 96.9542C52.8274 96.6106 53.2196 96.2969 53.4923 95.8562C53.6155 95.6545 53.3765 95.4603 53.1897 95.5536C52.3755 95.9495 51.7032 96.7488 51.0384 97.3501C50.34 97.9851 49.6416 98.62 48.9432 99.2549C47.5276 100.547 46.1158 101.847 44.7078 103.15C41.9141 105.735 39.139 108.334 36.4051 110.983C34.8588 112.48 33.223 113.933 31.8 115.547C31.6356 115.733 31.8821 115.976 32.0726 115.819H32.0763Z" fill="black"/>
<path d="M57.4363 113.72C56.8424 113.825 56.0581 113.963 55.5389 113.563C55.2476 113.339 55.1767 112.996 55.1393 112.648C55.0908 112.181 55.0646 111.711 55.0273 111.244C54.8704 109.377 54.7247 107.509 54.5903 105.642C54.4558 103.774 54.3923 101.963 54.3251 100.125C54.2579 98.2876 54.1645 96.4463 54.1309 94.6088C54.1197 93.9477 54.172 93.2829 54.7023 92.8197C55.1729 92.4089 55.8191 92.2184 56.4092 92.0541C58.1272 91.576 59.9013 91.2996 61.6829 91.1951C62.568 91.1428 63.4607 91.1353 64.3458 91.1764C65.0965 91.21 65.963 91.1054 66.6764 91.3706C67.3225 91.6096 67.4682 92.3043 67.569 92.9131C67.7072 93.7647 67.7558 94.6424 67.8342 95.5051C68.021 97.5929 68.1666 99.6882 68.2712 101.784C68.3235 102.811 68.2974 103.894 68.4542 104.913C68.6186 105.993 68.7231 107.068 68.7717 108.166C68.7866 108.54 69.3394 108.544 69.3543 108.166C69.3992 107.106 69.4402 106.041 69.5896 104.992C69.739 103.942 69.627 102.889 69.5971 101.877C69.5299 99.7816 69.4216 97.6901 69.2722 95.5985C69.2012 94.6162 69.1452 93.6265 69.0257 92.6479C68.9248 91.8188 68.7082 90.9598 68.0658 90.3771C67.4234 89.7945 66.5046 89.6301 65.6418 89.4994C64.626 89.3426 63.5951 89.3239 62.568 89.3463C60.5362 89.3911 58.5007 89.6712 56.5324 90.1754C54.8629 90.6012 52.9805 91.1988 52.4726 93.0625C52.2186 93.9813 52.3381 94.9598 52.4016 95.8936C52.4726 96.9356 52.551 97.9889 52.6892 99.0234C52.9693 101.096 53.1785 103.195 53.3764 105.276C53.6005 107.632 53.8134 109.997 54.1122 112.35C54.2168 113.175 54.3886 114.064 55.2401 114.43C55.9834 114.747 56.8686 114.587 57.623 114.389C58.06 114.273 57.8695 113.649 57.44 113.724L57.4363 113.72Z" fill="black"/>
<path d="M72.9022 124.873C71.8079 121.929 71.4195 118.811 71.0871 115.707C70.934 114.277 70.6538 112.704 70.9638 111.278C71.1506 110.407 71.9648 108.824 70.68 108.39C70.0189 108.166 69.1337 108.353 68.4764 108.503C67.9087 108.633 66.8405 108.753 66.7359 109.466C66.7285 109.507 66.7359 109.556 66.7807 109.578C67.0795 109.731 67.3148 109.675 67.6099 109.548C68.0319 109.369 68.454 109.227 68.9022 109.141C69.3504 109.055 69.7948 109.01 70.2355 109.033C70.7285 109.059 70.7995 109.38 70.6874 109.795C70.5866 110.153 70.4036 110.482 70.2729 110.829C70.1197 111.236 70.0301 111.659 69.9666 112.088C69.8471 112.932 69.8844 113.754 69.9666 114.602C70.3177 118.15 70.7136 121.761 71.9872 125.119C72.2001 125.679 73.1114 125.44 72.8985 124.869L72.9022 124.873Z" fill="black"/>
<path d="M67.4796 111.248C66.3778 108.521 65.5935 105.687 65.0556 102.796C64.9473 102.221 64.9287 101.455 64.2302 101.302C63.7186 101.19 63.0986 101.425 62.6952 101.728C61.7092 102.463 61.4477 103.737 61.5747 104.902C61.6569 105.664 61.8548 106.415 62.0603 107.154C62.2806 107.954 62.4898 108.813 62.9156 109.526C63.0276 109.716 63.2928 109.582 63.2554 109.38C63.1172 108.574 62.796 107.797 62.5944 107.005C62.4039 106.265 62.2059 105.5 62.1574 104.734C62.1126 104.021 62.2097 103.281 62.6877 102.721C62.8969 102.474 63.1807 102.265 63.4945 102.183C63.6252 102.15 63.8007 102.105 63.9202 102.202C64.0286 102.291 64.0286 102.669 64.051 102.803C64.5776 105.817 65.5449 108.745 66.7886 111.535C66.9604 111.924 67.6439 111.644 67.4833 111.244L67.4796 111.248Z" fill="black"/>
<path d="M62.1264 108.719C60.6212 110.071 59.1011 111.408 57.6221 112.787C56.9685 113.395 56.9087 113.982 57.1291 114.822C57.3494 115.662 57.6893 116.477 58.0666 117.261C58.8471 118.874 59.863 120.361 60.8752 121.836C61.8874 123.311 62.7688 124.697 63.7809 126.083C64.7931 127.472 65.8613 128.824 66.993 130.116C68.1246 131.409 69.3908 132.544 70.5448 133.799C71.6989 135.054 73.0921 136.35 74.8437 136.059C75.6915 135.917 76.4609 135.454 77.1556 134.968C77.7681 134.539 78.4367 134.087 78.8289 133.429C79.2546 132.712 78.8699 131.984 78.8289 131.226C78.7766 130.27 78.6645 129.284 78.4927 128.339C78.3209 127.394 78.1416 126.385 78.0109 125.396C77.8802 124.406 77.8204 123.487 77.6822 122.538C77.1145 118.643 76.4124 114.77 75.8148 110.882C75.2172 106.994 74.5449 103.109 73.7419 99.2475C73.3386 97.3054 72.9202 95.3707 72.487 93.436C72.0537 91.5013 71.4636 89.7534 71.0379 87.886C70.6494 86.1754 70.0518 84.5806 68.9388 83.2024C67.8258 81.8242 66.4103 80.9615 65.0321 79.9867C64.274 79.4488 63.512 78.9147 62.7464 78.3881C62.3617 78.1267 61.9695 77.8802 61.5699 77.6449C61.1404 77.3946 60.6548 77.2639 60.2291 77.0099C59.441 76.5431 58.6567 76.0725 57.8462 75.643C57.1851 75.2956 56.5128 74.9557 55.8966 74.5262C55.2803 74.0967 54.7985 73.5925 54.481 72.924C54.1636 72.2554 53.1738 72.8418 53.5025 73.4954C54.1636 74.8026 55.4409 75.5683 56.7071 76.1995C57.4242 76.558 58.145 76.9128 58.8434 77.305C59.2318 77.5216 59.6464 77.727 59.9938 78.0072C60.3411 78.2873 60.6324 78.5674 60.9835 78.8139C62.4177 79.8298 63.893 80.7822 65.3272 81.8018C65.9621 82.2537 66.5112 82.7841 67.1013 83.292C67.6914 83.8 68.2628 84.3789 68.7035 85.0362C69.6485 86.4368 70.1788 88.1586 70.4963 89.8057C70.6756 90.7357 70.7988 91.6806 71.0154 92.6031C71.2321 93.5257 71.4338 94.3847 71.6392 95.2736C72.4758 98.9263 73.2265 102.601 74.0445 106.258C74.8549 109.888 75.5683 113.526 76.1957 117.194C76.5095 119.028 76.8083 120.861 77.0996 122.695C77.3909 124.529 77.7831 126.415 77.9399 128.316C78.0146 129.213 78.1454 130.131 78.3172 131.013C78.4068 131.468 78.5039 131.838 78.2798 132.268C78.1118 132.593 77.9026 132.933 77.6374 133.187C77.1033 133.702 76.39 134.12 75.7289 134.453C75.0043 134.819 74.2237 134.994 73.4879 134.561C72.8157 134.165 72.2405 133.65 71.613 133.19C70.9333 132.69 70.3021 132.189 69.6896 131.603C68.5131 130.479 67.4001 129.287 66.3431 128.051C64.2067 125.549 62.272 122.874 60.5839 120.051C59.7024 118.579 58.765 117.108 58.2234 115.468C58.0964 115.076 57.9732 114.673 57.9059 114.269C57.8163 113.724 58.1823 113.511 58.5558 113.182C59.2804 112.548 59.9938 111.894 60.7109 111.248L62.7949 109.373C63.2431 108.969 62.582 108.312 62.1339 108.712L62.1264 108.719Z" fill="black"/>
<path d="M35.3597 122.34C36.2636 136.402 36.8948 150.479 37.4102 164.556C37.9218 178.536 38.3103 192.519 38.6987 206.503C38.807 210.406 38.9153 214.308 39.0274 218.208L39.1954 224.157L39.2814 227.134C39.2963 227.631 39.2963 228.128 39.3224 228.621C39.3486 229.114 39.5054 229.543 39.6324 229.999C39.7333 230.357 40.3047 230.387 40.3869 229.999C40.469 229.61 40.5923 229.222 40.6222 228.834C40.6558 228.419 40.596 227.974 40.5811 227.56L40.4877 224.796L40.3122 219.481C40.1964 216.008 40.0806 212.531 39.9611 209.057C39.7258 202.084 39.4606 195.115 39.2477 188.142C38.8182 174.132 38.3738 160.119 37.7463 146.117C37.3915 138.188 36.9807 130.258 36.4802 122.337C36.4354 121.619 35.3149 121.616 35.3597 122.337V122.34Z" fill="black"/>
<path d="M46.2313 122.18C45.0212 129.231 45.0324 136.387 45.1893 143.517C45.3499 150.812 45.559 158.106 45.7906 165.4C46.25 179.936 46.8438 194.465 47.5572 208.99C47.7551 213.046 47.9643 217.099 48.1847 221.155C48.2967 223.22 48.4088 225.282 48.5245 227.347C48.6403 229.412 48.7113 231.463 49.0287 233.491C49.1483 234.242 50.2911 234.025 50.3135 233.315C50.3733 231.474 50.209 229.629 50.1007 227.788C49.9924 225.946 49.8766 224.176 49.7683 222.372C49.5479 218.723 49.335 215.074 49.1296 211.425C48.7262 204.202 48.3527 196.975 48.0091 189.744C47.3256 175.286 46.7579 160.825 46.3209 146.36C46.0782 138.382 45.8093 130.322 47.0605 122.408C47.1464 121.866 46.3209 121.627 46.2276 122.18H46.2313Z" fill="black"/>
<path d="M45.7537 122.785C48.2598 122.015 50.8556 121.649 53.4738 121.661C54.781 121.664 56.0882 121.769 57.3767 121.982C58.598 122.184 59.8193 122.579 61.0593 122.4C61.1901 122.381 61.2162 122.198 61.134 122.116C60.1891 121.194 58.7997 120.955 57.5411 120.734C56.1965 120.499 54.8332 120.361 53.47 120.335C50.7398 120.279 48.0021 120.701 45.3989 121.515C44.5922 121.769 44.9358 123.039 45.75 122.789L45.7537 122.785Z" fill="black"/>
<path d="M58.3211 122.012C59.3295 136.57 60.2445 151.14 61.4472 165.684C62.6461 180.168 64.0728 194.622 65.5929 209.076C66.0187 213.11 66.4482 217.143 66.8852 221.177C67.1056 223.231 67.3222 225.285 67.5575 227.336C67.7928 229.386 67.8637 231.452 68.4576 233.398C68.6145 233.909 69.3278 233.786 69.3614 233.274C69.4922 231.441 69.1635 229.599 68.9655 227.777C68.7676 225.954 68.5547 224.109 68.3455 222.279C67.9384 218.686 67.5313 215.093 67.1317 211.5C66.3324 204.314 65.5705 197.124 64.8534 189.927C63.4155 175.477 62.183 161.019 61.1857 146.531C60.6255 138.359 60.0354 130.187 59.464 122.015C59.4117 121.287 58.2688 121.28 58.3211 122.015V122.012Z" fill="black"/>
<path d="M69.683 134.042C70.2096 146.83 70.8184 159.615 71.4309 172.396C72.0434 185.176 72.8539 197.95 73.7241 210.719C73.9669 214.282 74.1947 217.849 74.4786 221.412C74.6242 223.227 74.7662 225.043 74.9193 226.854C74.9977 227.762 75.0836 228.669 75.1658 229.573C75.2069 230.018 75.2629 230.462 75.3675 230.895C75.4646 231.291 75.6513 231.657 75.8119 232.031C75.9016 232.236 76.219 232.165 76.2713 231.971C76.4655 231.224 76.5701 230.544 76.5402 229.767C76.5066 228.927 76.4357 228.083 76.3796 227.243C76.2751 225.622 76.1518 224.004 76.036 222.383C75.8119 219.209 75.5654 216.034 75.3264 212.859C74.8521 206.51 74.4114 200.157 73.9818 193.8C73.1303 181.09 72.2601 168.377 71.6214 155.656C71.2591 148.451 70.9342 141.246 70.6354 134.042C70.6092 133.429 69.6531 133.426 69.6792 134.042H69.683Z" fill="black"/>
<path d="M68.1931 230.955C67.6366 232.247 67.2668 233.607 66.8186 234.936C66.3704 236.266 65.911 237.472 65.5525 238.768C65.2911 239.71 65.1715 240.879 65.9073 241.652C66.7215 242.507 68.2603 242.533 69.3546 242.623C72.0512 242.836 74.7777 242.642 77.4482 242.231C78.5051 242.07 79.7713 241.988 80.6153 241.26C81.5864 240.423 81.5155 239.224 81.0897 238.119C80.5481 236.707 79.9431 235.317 79.3529 233.928C79.0392 233.185 78.7628 232.412 78.4118 231.687C78.0607 230.962 77.5453 230.399 77.1755 229.723C77.1008 229.588 76.8879 229.681 76.929 229.827C77.0971 230.421 77.1942 231.007 77.3062 231.616C77.4183 232.225 77.6984 232.778 77.9225 233.338C78.3669 234.443 78.7852 235.564 79.2446 236.662C79.4687 237.2 79.6928 237.738 79.9169 238.275C80.0999 238.724 80.4174 239.359 80.2082 239.848C80.0514 240.214 79.5995 240.315 79.2558 240.419C78.774 240.565 78.2773 240.647 77.7806 240.737C75.4724 241.148 73.1418 241.405 70.7926 241.357C70.195 241.345 69.5937 241.312 68.9961 241.26C68.4545 241.211 67.8793 241.204 67.349 241.073C66.3891 240.838 66.5684 239.848 66.7813 239.105C67.1436 237.846 67.5693 236.598 67.954 235.344C68.3611 234.018 68.8616 232.714 69.1567 231.358C69.2762 230.813 68.4433 230.38 68.1968 230.955H68.1931Z" fill="black"/>
<path d="M39.7587 228.856C39.6765 229.891 39.6056 230.925 39.5533 231.96C39.5271 232.46 39.5047 232.957 39.5122 233.461C39.5122 233.719 39.5159 234.477 39.9006 234.481C40.2853 234.485 40.3152 233.715 40.3339 233.461C40.3712 232.961 40.3862 232.46 40.4086 231.96C40.4497 230.925 40.5057 229.891 40.5804 228.856C40.6177 228.329 39.8073 228.337 39.7624 228.856H39.7587Z" fill="black"/>
<path d="M39.4709 233.551C39.2953 233.868 39.0488 234.13 38.8658 234.44C38.7164 234.694 38.6081 234.985 38.4811 235.25C38.1711 235.904 37.906 236.572 37.6333 237.245C37.1328 238.47 36.651 239.706 36.1804 240.942C35.9563 241.532 35.6762 242.145 35.8966 242.783C36.0759 243.299 36.5353 243.695 36.9872 243.975C37.9022 244.543 39.0526 244.67 40.1058 244.67C41.3981 244.67 42.6941 244.565 43.9826 244.505C45.3347 244.442 46.6904 244.393 48.0425 244.307C48.7185 244.262 49.3945 244.206 50.0705 244.165C50.571 244.135 51.0939 244.124 51.572 243.952C52.7484 243.534 53.036 242.425 52.5878 241.331C52.05 240.016 51.4001 238.753 50.8922 237.424C50.6308 236.74 50.4067 236.042 50.1415 235.358C49.8763 234.675 49.4916 234.055 49.204 233.379C49.1331 233.211 48.838 233.293 48.8567 233.472C48.9164 234.033 48.9202 234.604 48.9986 235.164C49.077 235.724 49.2638 236.281 49.4431 236.823C49.7904 237.88 50.1788 238.922 50.6046 239.945C50.8175 240.453 51.0379 240.957 51.2769 241.458C51.4263 241.775 51.7811 242.369 51.4001 242.645C51.1536 242.825 50.7279 242.813 50.4365 242.828C49.8203 242.858 49.2078 242.866 48.5915 242.884C46.19 242.948 43.7922 243.108 41.3981 243.232C40.4756 243.28 39.497 243.374 38.5969 243.135C38.2122 243.034 37.8387 242.862 37.5437 242.589C37.4242 242.481 37.327 242.395 37.3196 242.234C37.3084 241.973 37.525 241.585 37.6146 241.342C38.0666 240.098 38.5334 238.862 39.0152 237.629C39.2431 237.043 39.4858 236.46 39.6987 235.866C39.807 235.56 39.9489 235.25 40.0311 234.936C40.1208 234.585 40.1394 234.231 40.2515 233.883C40.3971 233.424 39.7062 233.132 39.4746 233.555L39.4709 233.551Z" fill="black"/>
<path d="M75.7409 80.4274C74.6391 80.6253 73.7204 81.0735 72.9622 81.9176C72.204 82.7617 71.6475 83.8373 71.6251 84.9429C71.5989 86.1231 72.0583 87.2324 72.8091 88.1287C73.6643 89.1558 74.8184 89.6488 76.1032 89.9028C77.388 90.1568 78.6168 90.2053 79.7597 89.5405C80.7793 88.9504 81.3769 88.0055 81.7018 86.8962C82.348 84.6889 81.5114 82.2537 79.6215 80.9129C79.1024 80.5432 78.5459 80.1883 77.9296 80.0165C77.3133 79.8447 76.6821 79.9418 76.0397 80.0389C74.8595 80.222 73.2684 80.6664 72.7343 81.8466C72.6335 82.0745 72.8464 82.3284 73.0854 82.1977C73.9594 81.7234 74.6317 81.0548 75.6289 80.8195C76.5701 80.5954 77.5337 80.9129 78.4637 81.0847C79.3937 81.2565 80.2564 82.2463 80.7121 83.0381C81.2051 83.8934 81.4367 84.9205 81.291 85.9027C81.1453 86.885 80.6075 87.6432 79.9203 88.2819C79.1397 89.0102 78.2807 89.2866 77.2162 89.2268C76.0808 89.1633 74.9305 88.872 74.0789 88.0839C73.3693 87.4303 72.9472 86.59 72.7269 85.66C72.4841 84.6254 72.5999 83.4639 73.1527 82.5488C73.7054 81.6338 74.6989 80.7822 75.7634 80.4909C75.8082 80.4797 75.7895 80.4162 75.7447 80.4236L75.7409 80.4274Z" fill="black"/>
<path d="M78.3405 81.7831C77.9409 81.5068 77.418 81.376 76.9399 81.4507C76.4618 81.5254 76.1332 81.8018 75.7821 82.1043C75.4086 82.4255 75.0463 82.7617 74.9119 83.2584C74.7849 83.7216 74.9119 84.1735 75.2181 84.532C75.5244 84.8906 75.9352 85.0811 76.3349 85.2865C76.7868 85.518 77.2648 85.7272 77.6832 86.0148C77.8662 86.1418 78.0342 86.2912 78.1538 86.4779C78.2733 86.6647 78.4339 87.0045 78.3368 87.2249C78.165 87.6283 77.6607 87.8337 77.2574 87.9084C76.7009 88.013 76.1332 87.8934 75.685 87.5461C75.502 87.4042 75.3638 87.2249 75.2368 87.0307C75.1098 86.8365 75.0426 86.575 74.8372 86.448C74.7438 86.3883 74.5869 86.4032 74.5122 86.4891C74.2209 86.829 74.4525 87.4303 74.6878 87.744C74.9866 88.1474 75.3899 88.435 75.8792 88.5695C76.7868 88.8197 77.9633 88.5732 78.5571 87.8001C78.8074 87.4789 78.9792 86.9709 78.8933 86.5638C78.7924 86.0745 78.4339 85.6861 78.0454 85.3911C77.6234 85.0736 77.1528 84.8196 76.7046 84.547C76.4096 84.3677 75.8867 84.1249 75.7858 83.7589C75.6775 83.3667 76.2004 82.941 76.544 82.8887C76.7158 82.8625 76.9549 82.87 77.1528 82.87C77.2051 82.87 77.2536 82.87 77.3059 82.87C77.3582 82.8737 77.3582 82.87 77.3059 82.87L77.3806 82.8887C77.3806 82.8887 77.5114 82.926 77.4254 82.8924C77.4964 82.9186 77.5636 82.9671 77.6271 83.0082C77.9483 83.2211 78.4152 83.0717 78.6019 82.7542C78.8074 82.3994 78.6617 81.9998 78.348 81.7794L78.3405 81.7831Z" fill="black"/>
<path d="M76.5777 80.883C76.4619 82.3994 76.503 83.912 76.4432 85.4284C76.4134 86.1716 76.3312 86.9149 76.264 87.6581C76.1967 88.4014 76.0473 89.2156 76.1295 89.9775C76.1482 90.1456 76.3872 90.2016 76.4395 90.0186C76.6375 89.3202 76.6225 88.5582 76.6785 87.8374C76.7346 87.0643 76.7719 86.2874 76.869 85.518C77.0632 83.9681 77.3546 82.4405 77.489 80.883C77.5376 80.3004 76.6225 80.3004 76.5777 80.883Z" fill="black"/>
<path d="M85.8248 79.3554C86.0638 79.3554 86.0638 78.9857 85.8248 78.9857C85.5857 78.9857 85.5857 79.3554 85.8248 79.3554Z" fill="black"/>
<path d="M82.4528 82.2911C83.633 82.1006 84.7684 81.701 85.8142 81.1221C86.8599 80.5431 87.8796 79.8671 88.7647 79.0567C90.7405 77.2452 91.846 74.6121 92.1299 71.979C92.41 69.3758 91.9207 66.4663 90.3819 64.3001C89.6611 63.2842 88.7311 62.4364 87.5472 62.0068C86.3632 61.5773 85.0373 61.7678 83.999 62.399C81.6946 63.7996 80.9737 66.6605 81.9896 69.092C83.0055 71.5234 85.5751 73.0285 88.1074 73.3946C93.411 74.1565 98.5838 70.6569 101.258 66.287C102.692 63.9415 103.73 61.357 104.537 58.7313C105.452 55.7546 106.113 52.6509 106.315 49.5398C106.364 48.7704 106.393 48.0047 106.393 47.2353C106.393 47.142 106.263 47.1457 106.252 47.2353C105.71 52.6957 104.709 58.2383 102.319 63.2244C100.227 67.5868 96.6043 71.5943 91.6593 72.4944C89.3885 72.909 86.6321 72.4795 84.802 71.0005C83.0989 69.6186 81.9672 66.9705 83.2483 64.9387C83.7749 64.1021 84.675 63.4971 85.661 63.3626C86.647 63.2282 87.592 63.6689 88.2867 64.3188C89.8815 65.8164 90.5313 68.2255 90.6845 70.3469C90.875 73.0211 90.2176 75.7475 88.649 77.9325C87.8982 78.9782 87.0579 79.9829 85.9337 80.644C84.8095 81.3051 83.618 81.7234 82.3482 81.9213C82.0979 81.9587 82.2025 82.3396 82.4528 82.3023V82.2911Z" fill="black"/>
<path d="M109.023 23.9109C105.684 24.9044 103.278 27.8288 102.871 31.2799C102.755 32.2771 102.838 33.2818 103.013 34.2678C103.204 35.3173 103.461 36.3631 104.003 37.293C104.951 38.9289 106.614 39.9896 108.41 40.4752C111.857 41.4052 115.73 40.1278 118.128 37.5209C119.551 35.9709 120.242 34.0437 120.111 31.9409C119.999 30.1706 119.264 28.4227 118.199 27.0146C117.011 25.4459 115.122 24.2769 113.198 23.881C112.182 23.6719 111.129 23.6569 110.113 23.8661C109.157 24.064 108.242 24.6541 107.499 25.2741C107.375 25.375 107.532 25.558 107.663 25.487C108.025 25.2928 108.403 25.1322 108.795 24.9978C109.187 24.8633 109.639 24.8297 110.061 24.7475C110.875 24.5907 111.693 24.5197 112.522 24.5907C114.139 24.7326 115.861 25.4049 116.903 26.6934C117.411 27.3246 117.893 27.9371 118.263 28.6692C118.632 29.4012 118.786 30.1407 118.905 30.9026C119.17 32.6132 118.998 34.4732 118.046 35.956C116.343 38.6115 112.873 39.8813 109.826 39.6386C108.234 39.5116 106.565 38.8804 105.396 37.7711C104.014 36.4639 103.506 34.3014 103.435 32.4638C103.301 28.9119 105.777 25.4011 109.116 24.2246C109.314 24.1537 109.235 23.8437 109.026 23.9034L109.023 23.9109Z" fill="black"/>
<path d="M46.9183 56.2813C46.6195 56.5651 46.3394 56.8676 46.078 57.1888C45.936 57.3644 45.8053 57.5511 45.6933 57.7491C45.6298 57.8611 45.585 57.9732 45.5476 58.0964C45.5103 58.2197 45.458 58.3429 45.5028 58.4662V58.3242C45.4766 58.4213 45.4617 58.5222 45.4766 58.6193C45.4916 58.7127 45.6111 58.765 45.6933 58.7425C45.7866 58.7127 45.8725 58.6454 45.9472 58.5819L45.7605 58.6604C45.9024 58.6529 46.0107 58.5707 46.1153 58.4811C46.1639 58.44 46.0518 58.5297 46.134 58.4662C46.1676 58.44 46.2049 58.4139 46.2386 58.384C46.2759 58.3541 46.3058 58.3205 46.3394 58.2869C46.4813 58.1375 46.6195 57.9881 46.7502 57.8312C47.0117 57.5175 47.2881 57.2224 47.5869 56.9461C47.7661 56.778 47.7699 56.4493 47.5869 56.2813C47.4038 56.1132 47.1125 56.0982 46.922 56.2813H46.9183Z" fill="black"/>
<path d="M52.1212 56.7219C52.3229 56.8975 52.5208 57.0805 52.7076 57.271C52.8943 57.4614 53.0624 57.6743 53.2641 57.8499C53.3313 57.9096 53.4023 57.9694 53.4844 58.0067C53.5741 58.0516 53.7085 58.0814 53.8094 58.0516C54.0596 57.9731 54.0335 57.6669 53.9513 57.4764C53.8841 57.3158 53.7683 57.1776 53.6525 57.0469C53.5666 56.9498 53.477 56.8527 53.3836 56.7555C53.1707 56.5352 52.9503 56.3223 52.7188 56.1244C52.6329 56.0497 52.5358 56.0011 52.42 56.0011C52.3154 56.0011 52.1922 56.0459 52.1212 56.1244C51.9755 56.2812 51.9419 56.5688 52.1212 56.7219Z" fill="black"/>
<path d="M43.1955 66.2086C45.6232 66.2497 48.0434 66.2983 50.4711 66.3057C51.6514 66.3095 52.8353 66.302 54.0155 66.2983C54.6729 66.2983 55.3228 66.2871 55.9726 66.3804C56.5291 66.4589 57.1043 66.5298 57.6384 66.3169C57.911 66.2086 57.911 65.8688 57.6384 65.7604C57.108 65.5476 56.5329 65.6148 55.9726 65.6969C55.3526 65.7866 54.7326 65.7791 54.1089 65.7791C52.8951 65.7791 51.685 65.7679 50.4711 65.7716C48.0434 65.7791 45.6195 65.8277 43.1955 65.8688C42.9752 65.8725 42.9752 66.2086 43.1955 66.2124V66.2086Z" fill="black"/>
<path d="M111.88 34.6786C111.88 34.6786 111.861 34.6599 111.854 34.6525L111.958 34.7869C111.958 34.7869 111.94 34.757 111.932 34.7421L111.999 34.9027C111.992 34.8803 111.985 34.8579 111.981 34.8355L112.003 35.011C112.003 34.9886 112.003 34.9625 112.003 34.9401L111.981 35.1156C111.985 35.0895 111.992 35.067 111.999 35.0446L111.932 35.2052C111.947 35.1679 111.966 35.138 111.988 35.1081L111.884 35.2426C111.906 35.2164 111.925 35.194 111.951 35.1754L111.816 35.2799C111.839 35.265 111.858 35.2538 111.88 35.2426L111.719 35.3098C111.742 35.2986 111.768 35.2949 111.79 35.2874L111.615 35.3098C111.652 35.3061 111.689 35.3061 111.731 35.3098L111.551 35.2874C111.592 35.2949 111.626 35.3061 111.663 35.321L111.503 35.2538C111.548 35.2762 111.589 35.2986 111.626 35.3285L111.492 35.2239C111.536 35.2613 111.577 35.3023 111.611 35.3472L111.506 35.2127C111.548 35.265 111.577 35.321 111.607 35.3808L111.54 35.2202C111.574 35.2986 111.596 35.377 111.607 35.4629L111.585 35.2837C111.596 35.377 111.596 35.4667 111.585 35.56L111.607 35.3808C111.596 35.4555 111.577 35.5302 111.548 35.6011L111.615 35.4405C111.585 35.5115 111.548 35.575 111.503 35.6347L111.607 35.5003C111.57 35.5488 111.525 35.5899 111.48 35.6273L111.615 35.5227C111.57 35.5563 111.525 35.5825 111.473 35.6049L111.633 35.5376C111.577 35.56 111.518 35.575 111.454 35.5825L111.633 35.56C111.566 35.5675 111.499 35.5675 111.428 35.56L111.607 35.5825C111.548 35.5713 111.488 35.5563 111.432 35.5339L111.592 35.6011C111.536 35.5787 111.484 35.5488 111.436 35.5115L111.574 35.6161C111.536 35.5862 111.506 35.5526 111.477 35.519L111.581 35.6572C111.551 35.6198 111.529 35.5787 111.51 35.5339L111.577 35.6945C111.563 35.6572 111.555 35.6161 111.548 35.575L111.57 35.7543C111.566 35.7132 111.57 35.6721 111.57 35.631L111.548 35.8103C111.555 35.7543 111.57 35.702 111.589 35.6534L111.521 35.814C111.544 35.7617 111.57 35.7169 111.604 35.6721L111.499 35.8103C111.533 35.7655 111.57 35.7281 111.615 35.6945L111.477 35.7991C111.514 35.7729 111.555 35.7468 111.596 35.7319L111.436 35.7991C111.473 35.7841 111.51 35.7767 111.548 35.7692L111.368 35.7953C111.402 35.7953 111.436 35.7953 111.469 35.7953L111.29 35.7692C111.327 35.7767 111.365 35.7841 111.398 35.7991L111.234 35.7319C111.267 35.7468 111.297 35.7655 111.323 35.7841L111.185 35.6758C111.219 35.702 111.245 35.7319 111.271 35.7617L111.163 35.6235C111.193 35.6609 111.215 35.702 111.234 35.7468L111.167 35.5825C111.185 35.6347 111.2 35.687 111.208 35.7431L111.182 35.56C111.189 35.6161 111.189 35.6684 111.182 35.7244L111.208 35.5414C111.2 35.5899 111.189 35.6347 111.17 35.6796L111.238 35.5152C111.219 35.5526 111.2 35.5899 111.174 35.6235L111.282 35.4854C111.26 35.5152 111.234 35.5414 111.204 35.5638L111.342 35.4555C111.305 35.4854 111.264 35.5078 111.219 35.5264L111.383 35.4592C111.338 35.4779 111.294 35.4891 111.249 35.4966L111.432 35.4704C111.372 35.4779 111.309 35.4779 111.249 35.4704L111.432 35.4966C111.368 35.4891 111.309 35.4704 111.253 35.448L111.417 35.519C111.357 35.4928 111.305 35.4629 111.253 35.4256L111.391 35.5339C111.342 35.4966 111.297 35.4517 111.26 35.4032L111.368 35.5414C111.338 35.5003 111.316 35.4592 111.294 35.4107L111.365 35.575C111.342 35.519 111.327 35.4629 111.316 35.4032L111.342 35.5862C111.335 35.519 111.335 35.4517 111.342 35.3845L111.316 35.5675C111.327 35.4854 111.35 35.4032 111.383 35.3248L111.312 35.4891C111.342 35.4181 111.383 35.3546 111.428 35.2911L111.32 35.4293C111.365 35.3733 111.409 35.3248 111.465 35.2837L111.327 35.392C111.383 35.3509 111.443 35.3135 111.506 35.2837L111.342 35.3509C111.402 35.3248 111.462 35.3098 111.525 35.2986L111.342 35.3248C111.387 35.321 111.432 35.321 111.477 35.3248L111.294 35.2986C111.335 35.3061 111.376 35.3135 111.413 35.3285L111.249 35.2613C111.279 35.2762 111.309 35.2911 111.338 35.3135L111.2 35.2052C111.23 35.2314 111.26 35.2575 111.286 35.2911L111.178 35.1529C111.204 35.1903 111.23 35.2314 111.249 35.2725L111.182 35.1081C111.2 35.1567 111.215 35.209 111.223 35.2613L111.196 35.0782C111.204 35.138 111.204 35.1978 111.196 35.2575L111.223 35.0745C111.215 35.1231 111.204 35.1679 111.185 35.209L111.253 35.0446C111.238 35.082 111.215 35.1156 111.193 35.1492L111.301 35.011C111.279 35.0372 111.256 35.0633 111.226 35.0857L111.365 34.9774C111.327 35.0035 111.29 35.026 111.249 35.0446L111.413 34.9774C111.376 34.9923 111.338 34.9998 111.301 35.0073L111.484 34.9811C111.432 34.9886 111.379 34.9886 111.327 34.9811L111.51 35.0073C111.45 34.9998 111.394 34.9811 111.338 34.9587L111.503 35.026C111.447 34.9998 111.394 34.9699 111.346 34.9326L111.484 35.0409C111.443 35.0073 111.406 34.9699 111.372 34.9288L111.48 35.067C111.447 35.026 111.421 34.9811 111.402 34.9288L111.469 35.0932C111.454 35.0558 111.443 35.0185 111.439 34.9774L111.465 35.1604C111.458 35.1081 111.458 35.0558 111.465 35.0035L111.439 35.1866C111.447 35.1343 111.462 35.082 111.48 35.0334L111.413 35.1978C111.439 35.1417 111.469 35.0895 111.506 35.0409L111.398 35.1791C111.436 35.1305 111.48 35.0857 111.529 35.0484L111.391 35.1567C111.447 35.1156 111.506 35.0782 111.57 35.0521L111.406 35.1193C111.465 35.0969 111.521 35.082 111.585 35.0708L111.402 35.0969C111.458 35.0895 111.51 35.0932 111.562 35.0969L111.379 35.0708C111.439 35.082 111.499 35.0969 111.555 35.1193L111.391 35.0484C111.454 35.0782 111.514 35.1119 111.566 35.1529L111.428 35.0446C111.484 35.0895 111.529 35.138 111.574 35.194L111.465 35.0558C111.514 35.1193 111.551 35.1866 111.581 35.2575L111.51 35.0932C111.536 35.1604 111.555 35.2239 111.566 35.2949L111.54 35.1119C111.548 35.1828 111.551 35.2538 111.54 35.3248L111.566 35.1417C111.559 35.1978 111.544 35.2501 111.521 35.3061L111.592 35.1417C111.577 35.1791 111.559 35.2127 111.533 35.2463L111.641 35.1081C111.615 35.138 111.589 35.1679 111.559 35.1903L111.697 35.082C111.671 35.1007 111.648 35.1156 111.619 35.1268L111.783 35.0558C111.753 35.067 111.719 35.0745 111.686 35.0782L111.869 35.0521C111.843 35.0521 111.816 35.0521 111.79 35.0521L111.97 35.0782C111.936 35.0745 111.906 35.0633 111.876 35.0521L112.037 35.1193C112.014 35.1081 111.992 35.0969 111.973 35.082L112.108 35.1866C111.985 35.082 111.873 35.011 111.708 34.9886C111.663 34.9811 111.63 34.9774 111.585 34.9737L111.753 34.9961C111.753 34.9961 111.731 34.9923 111.719 34.9886L111.858 35.0484C111.858 35.0484 111.843 35.0409 111.835 35.0372C111.619 34.9139 111.346 34.9513 111.167 35.1231C111.032 35.2538 110.95 35.4443 110.95 35.631C110.946 35.9149 111.118 36.1464 111.353 36.2846C111.656 36.4639 112.044 36.4676 112.347 36.2921C112.851 36.0008 113.027 35.3248 112.855 34.7907C112.698 34.3051 112.324 33.898 111.824 33.7598C111.323 33.6216 110.741 33.7972 110.416 34.2043C110.341 34.2977 110.266 34.391 110.218 34.4993C110.132 34.6861 110.095 34.8243 110.08 35.0334C110.061 35.2613 110.136 35.5302 110.266 35.7206C110.528 36.1053 110.984 36.3892 111.465 36.3444C111.753 36.3182 112.022 36.2211 112.227 36.0082C112.38 35.8514 112.496 35.6422 112.534 35.4256C112.571 35.209 112.578 34.9737 112.5 34.7533C112.407 34.4844 112.253 34.2827 112.022 34.1146C111.772 33.9316 111.447 33.9167 111.152 33.9652C110.886 34.0101 110.64 34.1595 110.442 34.335C110.244 34.5105 110.128 34.7272 110.039 34.9662C109.964 35.1529 109.934 35.3696 109.956 35.5713C109.99 35.885 110.091 36.1539 110.304 36.3929C110.464 36.5722 110.674 36.6843 110.894 36.7664C111.335 36.9308 111.917 36.8112 112.231 36.4527C112.302 36.3705 112.369 36.2884 112.41 36.1912C112.489 36.0157 112.519 35.8962 112.541 35.7057C112.567 35.4704 112.5 35.2501 112.407 35.0372C112.19 34.5554 111.633 34.3201 111.133 34.4396C110.913 34.4919 110.689 34.6338 110.547 34.8056C110.349 35.0409 110.237 35.2949 110.21 35.6049C110.169 36.0717 110.476 36.5535 110.901 36.7403C111.122 36.8374 111.357 36.9046 111.604 36.8822C111.85 36.8598 112.074 36.8038 112.276 36.6656C112.694 36.3743 112.941 35.8887 112.922 35.377C112.903 34.8654 112.664 34.3462 112.209 34.096C111.891 33.9204 111.518 33.898 111.193 34.0661C110.946 34.1931 110.767 34.4358 110.689 34.6973C110.595 35.0148 110.685 35.3658 110.916 35.6011C111.163 35.8476 111.615 35.8663 111.858 35.6011C112.1 35.336 112.119 34.9251 111.858 34.6599L111.88 34.6786Z" fill="black"/>
<path d="M111.588 30.4656C111.054 29.08 110.737 27.6234 110.699 26.1369C110.681 25.4347 110.71 24.7288 110.804 24.0341C110.856 23.6494 110.931 23.2647 111.02 22.8875C111.058 22.7269 111.11 22.5663 111.144 22.402C111.196 22.148 111.237 22.3011 111.136 22.3161H110.692C111.114 22.3833 111.304 23.4141 111.357 23.7577C111.469 24.4748 111.45 25.2256 111.42 25.9464C111.353 27.5636 111.035 29.1509 110.52 30.686H112.107C111.708 27.7653 111.301 24.7736 112.309 21.9276H110.8C111.39 24.5719 111.472 27.3171 111.02 29.9913H112.522C112.373 29.4497 112.182 28.938 111.88 28.46C111.577 27.9819 110.811 28.1724 110.796 28.755C110.781 29.3377 110.871 29.8606 111.02 30.4096C111.211 31.108 112.391 31.1977 112.522 30.4096C113.022 27.4478 112.959 24.4487 112.305 21.5168C112.126 20.7101 111.039 20.8408 110.796 21.5168C109.728 24.5271 110.068 27.8101 110.483 30.9101C110.602 31.799 111.782 32.0642 112.1 31.1304C112.6 29.6514 112.91 28.1201 113.034 26.5627C113.142 25.1994 113.209 23.6457 112.69 22.3534C112.447 21.7484 112.059 21.106 111.454 20.8146C110.692 20.4449 109.952 20.9192 109.646 21.6326C109.373 22.2675 109.265 22.9958 109.168 23.6793C109.06 24.4412 109 25.2069 109.011 25.98C109.037 27.6644 109.358 29.3489 109.963 30.9213C110.124 31.3433 110.527 31.6346 110.991 31.5039C111.394 31.3919 111.738 30.8989 111.573 30.4768L111.588 30.4656Z" fill="black"/>
<path d="M34.7728 45.5284L35.6692 46.6713L36.1099 47.2353L36.3303 47.5154C36.39 47.5901 36.4348 47.6461 36.5095 47.7022C36.6589 47.8179 36.8756 47.9038 37.0698 47.8814C37.2453 47.859 37.3872 47.8291 37.5292 47.7171C37.6711 47.605 37.7383 47.4893 37.8018 47.3212C37.8578 47.1755 37.8578 46.9776 37.8168 46.8282C37.7682 46.6564 37.6562 46.5257 37.5478 46.3912L37.3125 46.0924L36.8569 45.5135L35.9456 44.3557C35.8223 44.1988 35.5459 44.1129 35.3592 44.1129C35.1538 44.1129 34.911 44.2026 34.7728 44.3557C34.6346 44.5088 34.5188 44.7217 34.53 44.9421L34.5599 45.1624C34.601 45.3043 34.672 45.4239 34.7728 45.5284Z" fill="black"/>
<path d="M34.198 48.4865L36.2746 49.8535C36.6145 50.0776 37.1523 49.9319 37.3391 49.5734C37.5445 49.1812 37.4213 48.748 37.059 48.5089L34.9861 47.1345C34.8218 47.0262 34.5678 47.0038 34.381 47.056C34.1943 47.1083 34.0038 47.2465 33.9142 47.4146C33.705 47.8068 33.8283 48.2437 34.1943 48.4865H34.198Z" fill="black"/>
<path d="M106.282 41.7485C105.263 43.6048 104.18 45.4648 102.887 47.1492C102.267 47.9559 101.599 48.7253 100.893 49.4536C100.516 49.8458 100.157 50.2604 99.7761 50.6525C99.3951 51.0447 98.8685 51.4481 98.932 52.0419H100.097C100.045 51.5676 100.336 51.3173 100.598 50.9737C100.818 50.6861 101.038 50.4023 101.263 50.1184C101.658 49.618 102.066 49.1175 102.476 48.6282C103.298 47.6459 104.153 46.6898 104.99 45.7187C105.046 45.6552 104.96 45.5656 104.897 45.6254C103.944 46.5255 103.059 47.4853 102.193 48.4639C101.771 48.9419 101.352 49.4275 100.941 49.9167C100.736 50.1633 100.531 50.406 100.329 50.6563C100.045 51.0036 99.8396 51.4032 99.3578 51.4779C98.7789 51.5713 98.8274 52.4752 99.3578 52.6021C100.008 52.759 100.463 52.2959 100.915 51.9037C101.326 51.5489 101.744 51.1866 102.11 50.7832C102.876 49.9392 103.593 49.0503 104.258 48.1277C105.58 46.2976 106.671 44.3555 107.38 42.2117C107.597 41.5618 106.603 41.1509 106.275 41.7448L106.282 41.7485Z" fill="black"/>
<path d="M106.794 42.0511C106.843 43.2275 106.85 44.4339 107.015 45.6029C107.179 46.772 107.414 47.9074 107.691 49.0428C107.967 50.1782 108.367 51.2763 108.789 52.3631C109.002 52.9121 109.237 53.4238 109.536 53.9318C109.771 54.3277 110.133 55.0373 110.641 55.112C110.787 55.1344 110.918 55.0971 110.996 54.9663C111.243 54.5704 111.033 53.9467 110.914 53.5321C110.757 52.9831 110.589 52.4565 110.387 51.9224C109.973 50.8318 109.633 49.7188 109.267 48.6095C108.901 47.5003 108.609 46.4358 108.333 45.3303C108.057 44.2248 107.717 43.1043 107.515 41.9539C107.444 41.5468 106.776 41.6402 106.794 42.0511Z" fill="black"/>
<path d="M106.107 43.6309C106.308 44.658 106.207 45.7038 106.092 46.7346C105.976 47.7654 105.871 48.8224 105.782 49.8719C105.692 50.9214 105.487 51.9672 105.259 53.013C105.158 53.4798 105.023 53.943 104.953 54.4173C104.882 54.8916 104.747 55.4145 104.84 55.8627C104.863 55.9598 104.982 55.9523 105.031 55.8888C105.3 55.5266 105.416 54.9327 105.524 54.4957C105.655 53.9728 105.718 53.4201 105.808 52.886C105.983 51.8066 106.178 50.7534 106.435 49.6926C106.693 48.6319 106.869 47.6347 107.022 46.5927C107.175 45.5506 107.279 44.4451 107.115 43.3545C107.014 42.6972 105.972 42.9624 106.103 43.6346L106.107 43.6309Z" fill="black"/>
</svg>
