<svg width="160" height="256" viewBox="0 0 160 256" fill="none" xmlns="http://www.w3.org/2000/svg">
<path d="M80.0005 159.843C124.14 159.843 159.922 124.061 159.922 79.9214C159.922 35.782 124.14 0 80.0005 0C35.8611 0 0.0791016 35.782 0.0791016 79.9214C0.0791016 124.061 35.8611 159.843 80.0005 159.843Z" fill="#C3E2C7"/>
<g opacity="0.5">
<path d="M32.708 234.389C30.0379 234.048 27.6002 234.934 25.2171 236.017C20.7488 238.047 19.6226 245.822 23.557 248.906C25.5732 250.486 27.5058 251.787 30.0488 252.375C31.8107 252.786 33.6452 252.942 35.4471 253.076C39.1344 253.356 42.8398 253.345 46.4363 252.335C50.0327 251.325 52.325 247.751 51.831 244.071C51.3369 240.391 48.2127 237.575 44.4346 237.539C39.6974 237.495 34.9131 237.786 30.1868 238.084C27.4586 238.255 24.1818 240.042 23.6732 243.043L23.6369 243.25C23.2191 245.72 23.7277 248.009 25.8057 249.611C27.6402 251.027 30.4992 251.409 32.5299 250.083C33.2819 249.691 33.1875 249.622 32.2502 249.876C32.9259 249.792 33.6016 249.701 34.2773 249.607C35.0729 249.494 35.8612 249.367 36.6495 249.215C38.4696 248.862 40.424 248.524 41.9934 247.504C43.5627 246.483 44.5218 244.514 43.9914 242.588C43.461 240.663 41.7245 239.653 39.7955 239.395C38.3642 239.203 36.7985 239.599 35.3563 239.675C34.666 239.711 33.9758 239.733 33.2856 239.737C32.9404 239.74 32.5917 239.737 32.2466 239.733C33.1838 240.093 33.2783 240.056 32.5263 239.624L23.6332 246.461L23.6696 246.628C24.2835 249.538 27.346 251.547 30.1832 251.587C34.9784 251.656 39.6684 252.095 44.431 252.597L42.4293 237.8C44.173 237.488 42.2331 237.8 41.8989 237.808C41.3613 237.822 40.8272 237.804 40.2896 237.771C39.7519 237.739 39.1816 237.757 38.673 237.626C40.5184 238.102 38.5349 237.59 38.1971 237.535C37.2671 237.386 36.3298 237.241 35.4144 237.016C35.1456 236.954 34.884 236.881 34.6224 236.798C34.0339 236.609 34.2628 236.725 35.3018 237.147L34.8259 236.907C34.0811 236.453 34.1938 236.58 35.1637 237.285L33.5035 250.174C32.2684 250.7 31.8615 250.773 30.5174 250.57C32.8351 250.918 34.7823 250.842 36.8711 249.738C39.1344 248.543 40.4785 246.163 40.8091 243.715C41.1142 241.44 40.5911 239.439 39.1852 237.622C37.4669 235.399 35.4071 234.716 32.708 234.371V234.389Z" fill="#8BAFAC"/>
</g>
<g opacity="0.5">
<path d="M31.3208 252.528C34.6266 253.811 38.4447 253.8 41.9539 254.036C45.3651 254.265 48.7872 254.217 52.2057 254.243C55.0138 254.261 57.3715 252.085 57.7384 249.357C58.0762 246.85 56.4742 243.606 53.7024 243.174C47.592 242.222 41.6415 243.265 36.1124 246.029C32.3052 247.933 33.9545 254.821 38.3611 254.334C40.5989 254.087 42.8403 254.479 45.0927 254.523C47.345 254.566 49.5791 254.581 51.8242 254.57C56.3107 254.548 60.7936 254.41 65.2692 254.185C67.9683 254.047 70.2752 251.983 70.2752 249.179C70.2752 246.374 67.9829 244.249 65.2692 244.173C60.4921 244.042 55.566 245.088 50.9596 246.265C46.6112 247.373 47.1052 253.269 50.9596 254.599C54.1855 255.714 58.2543 255.576 61.6582 255.576C65.0621 255.576 68.5205 255.725 71.9426 255.99V243.504C69.4723 243.719 68.328 243.846 65.7124 243.929C63.638 243.998 61.5601 244.046 59.4821 244.104L61.0188 255.453C64.8078 254.377 67.9102 254.054 71.9353 254.232C75.0268 254.37 77.9803 251.417 77.8423 248.325C77.6897 244.939 75.2448 242.654 71.9353 242.418C67.2381 242.084 62.461 242.556 57.8038 243.141C54.9411 243.501 52.1221 245.43 52.2674 248.678C52.4127 251.925 54.7014 254.065 57.8038 254.214C67.7358 254.693 77.9912 255.184 87.8578 253.727C90.6878 253.309 92.3334 249.927 91.992 247.391C91.6287 244.689 89.202 242.24 86.3212 242.386C83.197 242.545 80.5123 243.232 77.8495 244.896C75.1867 246.56 75.263 251.471 78.7759 251.976C79.6877 252.107 80.545 252.321 81.4314 252.579C81.8383 252.699 82.2452 252.808 82.6521 252.928C82.761 252.961 83.869 253.346 83.4113 253.146L86.3248 242.386C81.5695 242.429 76.8214 242.941 72.0734 243.134C67.3144 243.326 62.5664 243.312 57.8038 243.145V254.218C62.5373 253.792 67.2018 254.025 71.9353 254.232V242.422C67.2054 242.524 62.5337 243.17 57.9455 244.311C51.5736 245.895 53.0012 255.623 59.4821 255.66C61.5601 255.671 63.6344 255.678 65.7124 255.7C66.6242 255.711 67.5724 255.798 68.4806 255.729C69.2798 255.667 70.4677 255.892 71.9426 255.99C75.2085 256.201 78.329 252.968 78.1837 249.749C78.0312 246.36 75.441 243.515 71.9426 243.508C68.4442 243.501 64.8332 243.584 61.3022 243.897C57.5568 244.227 53.1611 244.718 49.9243 246.705L53.2555 254.603C57.2516 254.029 61.2513 254.25 65.2692 254.185V244.176C60.9135 244.591 56.5468 244.907 52.1766 245.117C50.0514 245.219 47.9262 245.299 45.801 245.35C43.8103 245.401 41.4817 245.877 39.5454 245.579V254.174C41.4054 253.796 43.3017 253.604 45.2016 253.593C47.2106 253.582 49.2813 253.836 50.7053 254.043L52.202 242.978C48.7836 242.992 45.3615 242.934 41.9503 243.152C38.4374 243.377 34.6302 243.359 31.3171 244.631C27.4409 246.12 27.4518 251.028 31.3171 252.528H31.3208Z" fill="#8BAFAC"/>
</g>
<g opacity="0.5">
<path d="M90.1511 253.041L100.988 251.552H98.4375L98.3467 251.447L99.6691 241.329C97.4967 241.791 95.1499 242.205 93.2681 242.408C92.1165 242.532 90.9649 242.63 89.806 242.699C89.2393 242.732 88.6326 242.699 88.0696 242.782C86.7145 242.997 88.1676 242.728 88.7489 243.16L90.8123 245.224L90.6379 244.893L87.1977 253.347C90.6706 252.282 93.3916 251.788 96.9917 251.668C98.6846 251.61 100.367 251.668 102.056 251.552C102.728 251.505 103.429 251.461 104.101 251.538C103.701 251.472 103.789 251.494 104.355 251.61C104.047 251.498 103.774 251.334 103.534 251.12L107.523 244.17C104.766 244.45 102.012 244.617 99.2404 244.472C96.6756 244.337 94.5178 243.836 91.815 243.229V254.288C93.7476 253.677 95.673 253.1 97.5984 252.464C99.3276 251.894 101.311 251.294 103.131 251.247L100.661 250.222L100.614 250.084L106.757 243.941C103.981 242.11 101.228 243.872 98.3395 244.294C97.5838 244.403 96.6102 244.41 95.7238 244.475C94.2853 244.581 92.9557 244.998 91.5498 245.271C89.6644 245.634 88.2984 247.709 88.2984 249.539C88.2984 251.607 89.7079 253.111 91.5498 253.808C94.6812 254.992 97.4676 254.869 100.733 254.237C103.941 253.619 107.959 252.627 108.816 249.009C109.278 247.066 108.511 244.969 106.753 243.938C105.165 243.011 102.539 243.106 101.315 244.639L101.369 244.73L103.135 244.254C101.191 244.079 99.2222 243.589 97.286 243.306C94.8992 242.957 92.6977 242.848 90.2965 243.019C87.4266 243.222 85.0616 245.046 84.6656 247.992C84.3096 250.64 85.9662 253.71 88.7743 254.284C95.2552 255.61 102.463 255.287 108.758 253.238C112.823 251.912 112.98 247.171 109.863 244.799C102.495 239.19 92.3345 240.774 84.1534 242.245C80.4007 242.921 79.0239 247.716 80.7132 250.698C83.049 254.814 87.561 254.353 91.5534 253.91C95.2843 253.496 98.9788 252.885 102.626 252.003C106.459 251.076 107.796 246.288 105.5 243.313C103.008 240.083 98.572 240.726 96.3741 243.872L96.1017 244.261L97.9035 242.459C97.355 242.757 96.2542 242.804 95.6294 242.946L93.1591 243.509L87.8661 244.715C85.592 245.235 84.2515 247.85 84.8509 250.026C85.5375 252.518 87.8407 253.361 90.162 253.041H90.1511Z" fill="#8BAFAC"/>
</g>
<path d="M38.2346 246.409C39.3899 243.975 40.5415 241.544 41.6967 239.11C40.5015 202.564 39.3063 166.022 38.1111 129.476C35.9387 131.013 34.2023 132.274 33.0398 133.124C30.0354 135.321 28.9056 136.222 27.7831 135.845C26.7114 135.485 26.1883 134.141 25.9268 133.124C28.1391 118.36 30.2098 107.302 31.2742 102.917C32.0807 99.6002 33.0071 97.2571 33.5629 95.8694C34.4311 93.7006 34.8816 92.589 35.7898 91.3538C36.1458 90.8707 37.2356 89.4575 41.3843 86.7474C42.9318 85.7375 45.028 84.466 47.629 83.1619C47.7744 81.7596 47.916 80.3574 48.0613 78.9587C47.5346 78.7371 46.8226 78.4102 46.0197 77.9379C44.948 77.3058 43.1607 76.2305 41.6604 74.2288C39.6587 71.5587 39.3209 68.7833 39.2482 68.0131C38.983 65.205 39.7713 63.0907 40.2073 61.9682C40.6396 60.8529 41.6059 58.4407 44.0108 56.4027C47.1786 53.7217 50.7787 53.442 52.0501 53.4021C52.3626 53.2422 52.8748 52.9443 53.4088 52.4575C54.2298 51.7128 54.5168 51.0589 55.574 49.4278C55.8246 49.0391 56.2242 48.4324 56.7473 47.6949C56.998 47.9856 57.8808 49.079 57.8917 50.7247C57.9026 52.1633 57.2378 53.1732 56.9944 53.5074C57.6701 53.0315 58.4003 52.5556 59.1886 52.087C59.5555 51.869 59.9151 51.662 60.2712 51.4694C60.3293 51.7528 60.4092 52.3413 60.1767 53.017C59.8243 54.0451 59.0033 54.5355 58.7853 54.6554C59.2467 54.8043 59.9042 55.0659 60.609 55.52C62.5598 56.7842 63.3917 58.5933 64.1946 60.3443C64.5833 61.1908 65.3462 63.0326 65.6477 65.5065C65.7894 66.6799 65.931 67.8315 65.6622 69.3246C65.5387 70.0184 65.1536 72.0274 63.5915 73.931C61.3973 76.6083 58.3639 77.2659 57.067 77.5492C56.3913 77.6945 55.821 77.7635 55.4286 77.7962C55.1743 79.0605 55.2143 80.074 55.2906 80.7352C55.3887 81.5889 55.5631 81.9994 55.6938 82.25C56.0462 82.9257 56.5403 83.3181 56.8055 83.5179C58.3385 84.6731 60.2603 85.5087 61.5971 86.1771C63.1629 86.9618 64.2709 87.6847 65.0301 88.186C66.3815 89.0761 67.4568 89.799 68.5866 91.0305C68.8336 91.2993 69.6474 92.2112 70.4103 93.5335C71.8016 95.9529 71.5619 97.2208 72.6662 101.62C73.4582 104.77 73.6943 104.559 74.3991 107.651C74.8241 109.518 74.7696 109.739 75.4199 112.954C76.0411 116.028 76.2009 116.38 76.626 118.549C77.0365 120.638 77.0074 120.925 77.6759 125.368C78.1191 128.317 78.4387 131.289 78.9728 134.224C79.5976 137.657 80.0662 139.318 79.02 140.716C78.1626 141.864 76.7713 142.187 76.517 142.246C76.2336 142.311 74.3083 142.725 72.7135 141.457C71.9433 140.843 71.5764 140.099 71.4165 139.695C71.4674 143.681 71.5873 150.052 71.9251 157.899C72.3356 167.475 72.8697 174.596 73.0622 177.168C73.7415 186.329 74.8532 202.604 76.7495 233.792C77.6686 234.544 78.9945 235.804 80.088 237.686C81.0725 239.379 82.6019 242.009 81.6174 243.855C80.7201 245.537 78.2026 245.686 74.5698 245.896C71.5255 246.074 68.3359 246.26 67.5222 244.69C67.0427 243.768 67.7474 242.936 68.7283 239.405C69.2042 237.686 69.4912 236.255 69.6547 235.325C68.9717 229.429 68.1361 221.924 67.2425 213.205C66.0437 201.471 65.2735 192.73 64.645 185.563C63.6351 174.018 62.3673 159.429 61.1685 140.346C60.8815 135.797 60.6635 132.019 60.5182 129.4C59.0832 128.993 57.1179 128.594 54.7675 128.564C52.1555 128.532 49.9867 128.968 48.461 129.4C47.996 132.822 47.4256 137.963 47.2549 144.24C47.0769 150.873 47.4474 154.993 47.9051 162.883C48.1449 166.992 47.818 161.997 48.926 187.368C49.6852 204.73 50.063 213.412 50.1793 214.636C50.4663 217.691 51.211 224.917 51.2909 234.762C51.3054 236.284 51.2982 237.537 51.2909 238.38C51.6106 239.572 52.1337 241.352 52.962 243.481C53.6486 245.25 53.9901 245.835 53.7031 246.449C53.1908 247.546 51.4217 247.131 47.3021 247.655C43.0227 248.196 41.3407 249.097 39.6042 247.934C38.9031 247.466 38.478 246.855 38.2274 246.405L38.2346 246.409Z" fill="white"/>
<path d="M45.2025 130.076C42.9719 143.975 42.9065 158.186 43.4369 172.231C43.5713 175.791 43.7493 179.347 43.9165 182.904C44.0836 186.46 44.5013 189.94 44.5922 193.472C44.7629 200.341 44.6321 207.262 45.0717 214.117C45.5803 222.022 46.4194 229.937 46.5357 237.861L48.1632 235.724C47.1424 236.142 46.216 236.753 45.1879 237.13C42.0964 238.271 44.861 242.561 47.0879 240.396C47.611 239.888 48.0179 240.026 48.7517 240.073C50.0159 240.153 50.8732 238.99 50.9677 237.857C51.5562 230.795 50.5972 223.94 49.7398 216.947C48.8825 209.953 48.2576 203.215 47.938 196.287C47.6219 189.465 47.7018 182.631 47.5638 175.794C47.4221 168.739 47.4439 161.688 47.7309 154.637C48.0578 146.619 48.7481 138.62 49.1949 130.61C49.322 128.361 45.573 127.791 45.2061 130.068L45.2025 130.076Z" fill="#C8D3D9"/>
<path d="M60.9001 130.265C60.3988 133.632 60.061 136.778 60.3153 140.2C60.5695 143.622 60.8529 147.157 61.1472 150.634C61.4414 154.11 61.7793 157.826 62.1244 161.419C62.4586 164.903 62.168 168.354 62.4077 171.835C62.8836 178.744 63.7555 185.668 64.5257 192.549C65.3031 199.48 65.8553 206.64 67.5481 213.412C68.4818 217.143 68.8886 221.066 69.3936 224.881C69.6406 226.751 69.8513 228.655 70.2582 230.497C70.4762 231.489 70.7922 232.389 70.7959 233.414C70.7995 234.576 70.2982 235.532 70.1202 236.651C69.9748 237.566 70.7196 238.732 71.7985 238.329C72.8157 237.948 73.9273 238.249 74.9409 238.536C75.78 238.772 76.3104 237.733 75.7619 237.127C74.5594 235.797 73.1681 235.652 71.4389 235.648L72.7539 237.374C73.2879 235.91 72.9683 234.264 73.1535 232.727C73.3606 231.013 73.5059 229.447 73.3788 227.718C73.1317 224.277 72.714 220.844 72.3798 217.411C72.0346 213.855 72.1073 210.306 71.7149 206.753C71.3226 203.2 70.9739 199.88 70.5307 196.45C69.6079 189.323 68.6707 182.199 67.8969 175.057C67.5154 171.551 66.8034 168.205 66.1858 164.743C65.5683 161.281 65.5174 157.449 65.2413 153.863C64.9362 149.907 64.6564 145.951 64.4021 141.991C64.2823 140.135 64.1805 138.293 63.9045 136.451C63.5848 134.308 63.0362 132.342 62.4622 130.257C62.2661 129.545 61.0309 129.436 60.911 130.257L60.9001 130.265Z" fill="#C8D3D9"/>
<path d="M45.3444 130.577C48.3196 130.137 51.313 129.941 54.3174 129.912C55.7414 129.898 57.1655 129.905 58.5859 129.967C60.1516 130.036 60.9218 130.174 62.1787 129.186C62.8871 128.63 62.6655 127.551 62.1787 126.962C61.216 125.804 60.0027 125.869 58.5859 125.731C57.0492 125.582 55.5053 125.473 53.9613 125.458C50.8735 125.426 47.7929 125.655 44.7341 126.061C41.4573 126.497 42.0131 131.071 45.3444 130.577Z" fill="#C8D3D9"/>
<path d="M37.6249 97.3842C36.684 99.1679 35.9902 100.712 35.5651 102.699C35.1401 104.686 34.8095 106.779 34.5479 108.838C34.0067 113.067 33.469 117.299 32.9314 121.528C32.6553 123.693 36.4479 124.227 36.7748 122.047C37.3706 118.058 37.9628 114.066 38.5585 110.077C39.1543 106.088 39.5539 102.307 40.2224 98.474C40.4803 96.9955 38.435 95.8584 37.6322 97.3805L37.6249 97.3842Z" fill="#C8D3D9"/>
<path d="M28.7128 136.193C33.8786 132.967 39.1316 129.847 44.0904 126.308C46.4408 124.63 48.7404 122.865 50.9091 120.957C52.0135 119.987 53.0525 118.956 54.106 117.931C55.1595 116.907 56.5145 116.1 56.7979 114.549C57.0122 113.379 56.0423 112.028 54.7236 112.475C53.2523 112.976 52.7619 114.055 51.781 115.159C50.8001 116.264 49.6776 117.23 48.5878 118.189C46.4117 120.104 44.1013 121.855 41.7254 123.511C36.9011 126.879 31.8915 129.985 26.9363 133.149C25.0328 134.366 26.7801 137.399 28.7164 136.193H28.7128Z" fill="#C8D3D9"/>
<path d="M69.2511 121.437C69.7234 125.444 70.6497 129.16 72.2554 132.862C72.8185 134.159 74.9836 133.494 74.8964 132.146C74.7402 129.76 74.8855 127.079 74.2534 124.768C74.0355 123.973 72.8403 123.958 72.6296 124.768C72.0229 127.086 72.1937 129.76 72.0629 132.146L74.8492 131.769C73.4361 128.336 72.2336 124.768 71.438 121.139C71.1765 119.94 69.1058 120.176 69.2547 121.433L69.2511 121.437Z" fill="#C8D3D9"/>
<path d="M50.0454 81.4654C51.3496 81.5162 52.6102 81.3782 53.8853 81.0985L51.8364 77.5747C51.306 78.0179 50.8846 78.1123 50.2125 78.036C49.2935 77.9343 48.3598 78.9406 48.4216 79.827C48.487 80.797 48.6613 81.7487 48.8103 82.7078L49.2789 80.9386C47.5897 83.1038 45.4572 84.4515 43.1904 85.9228C41.7118 86.8819 42.7217 88.8436 44.3238 88.6147C46.3146 88.3314 48.5197 87.3105 50.2888 86.366C51.0953 85.9337 51.8836 85.3888 52.5085 84.7167C52.9771 84.2081 53.6056 82.6097 54.1977 82.3881L52.7628 80.9532C52.4104 82.6569 49.733 84.1936 48.3344 84.9383C46.7796 85.7666 44.8215 85.872 43.4519 86.9291C42.8634 87.3832 43.2739 88.2732 43.8588 88.4658C45.875 89.1306 48.8285 87.4704 50.5068 86.3987C52.1852 85.327 54.5973 83.6305 55.0151 81.5744C55.1749 80.7861 54.4774 79.8052 53.5801 80.1394C51.8037 80.8042 51.524 82.7114 50.06 83.7904C48.3998 85.011 45.9949 85.872 43.9351 85.723L44.3274 88.6147C46.587 88.1425 48.4397 86.9146 50.1399 85.3488C50.812 84.7276 51.9054 83.8049 52.2251 82.9221C52.592 81.9159 52.1706 80.3683 51.9418 79.3475L50.2125 81.6143C51.4368 81.5235 52.7083 81.4618 53.8853 81.0912C56.5372 80.252 55.3893 76.6483 52.7664 77.0261C51.8546 77.1569 50.9573 77.1097 50.0454 77.0116C47.2482 76.7101 47.1465 81.3455 50.0454 81.4545V81.4654Z" fill="#C8D3D9"/>
<path d="M56.747 48.7811C56.7361 49.3188 56.7106 49.8637 56.6307 50.3977L56.7833 50.2015C56.3946 50.365 56.3401 50.7464 56.242 51.117C56.1694 51.3967 56.0967 51.6764 56.0204 51.9525C55.8933 52.3957 55.6971 52.8644 55.4283 53.1986C55.203 53.4783 55.1558 53.867 55.4283 54.1395C55.6862 54.3974 56.1112 54.3901 56.3692 54.1395C56.8523 53.6672 57.1284 53.0351 57.2919 52.3885C57.3754 52.0579 57.4227 51.7237 57.4517 51.3858C57.4663 51.1896 57.4917 50.9862 57.4772 50.79C57.4554 50.5248 57.3282 50.3614 57.1175 50.2052L57.281 50.4885C57.3209 49.9182 57.3609 49.3551 57.3609 48.7847C57.3609 48.3924 56.7579 48.3924 56.7506 48.7847L56.747 48.7811Z" fill="#C8D3D9"/>
<path d="M59.3746 52.3159C58.9641 53.166 58.3574 53.9397 57.6418 54.55C57.4964 54.6736 57.1877 54.9279 57.3257 55.1531C57.4819 55.4038 57.8561 55.1604 58.0087 55.0368C58.3974 54.7281 58.7643 54.372 59.0622 53.9688C59.3928 53.522 59.658 53.0352 59.8687 52.523C59.9849 52.2432 59.509 52.0398 59.3746 52.3159Z" fill="#C8D3D9"/>
<path d="M76.8436 93.2137C77.0144 93.261 77.0071 93.2791 77.1016 93.3845L76.8872 93.0176C76.9708 93.3482 77.1452 93.439 77.3849 93.646C77.3232 93.5916 77.3377 93.5734 77.3849 93.6642C77.5121 93.8931 77.3486 93.548 77.414 93.6969C77.4358 93.7478 77.5339 93.9112 77.4394 93.7151C77.4431 93.726 77.5702 94.1147 77.5121 93.8931C77.5302 93.9548 77.5484 94.0166 77.5593 94.0783C77.5157 93.8676 77.5484 94.1328 77.552 94.1837C77.5629 94.4453 77.5956 94.1038 77.5484 94.2418C77.523 94.3181 77.5085 94.398 77.483 94.4743C77.5593 94.2418 77.3341 94.7359 77.4104 94.616C77.5012 94.4743 77.3268 94.7395 77.3159 94.7104C77.305 94.6778 77.5012 94.6051 77.4903 94.6087H77.4976C77.6283 94.6269 77.632 94.6196 77.5048 94.5869L77.5847 94.616C77.5847 94.616 77.3232 94.4489 77.4431 94.5361C77.5557 94.6196 77.3486 94.4453 77.3486 94.4489C77.3086 94.4089 77.2687 94.369 77.2324 94.329C77.2215 94.3181 77.0652 94.1038 77.1597 94.2455C77.2542 94.3871 77.1052 94.1546 77.1016 94.151C77.0725 94.1038 77.0435 94.0529 77.018 94.0057C76.9926 93.9585 76.9672 93.904 76.9417 93.8531C77.0652 94.0929 76.949 93.8713 76.9272 93.8059C76.88 93.6715 76.8545 93.5334 76.8219 93.3954C76.7964 93.2937 76.7492 93.2828 76.8219 93.4426C76.7964 93.3917 76.811 93.29 76.8073 93.2319C76.8073 93.1992 76.84 92.8686 76.8182 92.8505C76.8582 92.8832 76.771 93.0684 76.8146 92.9013C76.8327 92.8178 76.8509 92.7378 76.8727 92.6543C76.8909 92.5853 76.9199 92.5199 76.9381 92.4545C76.9853 92.3019 76.7855 92.6943 76.949 92.4436C76.9853 92.3891 77.0144 92.3273 77.0471 92.2728C76.8909 92.5235 77.1415 92.1711 77.0108 92.3092C76.909 92.4145 77.0725 92.2583 77.1125 92.2547C77.0907 92.2547 76.8654 92.3201 77.0761 92.2874C76.8037 92.331 76.9599 92.2946 77.0253 92.2946C77.0834 92.2946 77.1415 92.2946 77.1997 92.2946L77.0689 92.2728C77.1924 92.2583 77.3886 92.3528 77.5012 92.3927C77.4576 92.3782 77.2941 92.2837 77.4685 92.3855C77.5339 92.4254 77.5993 92.4581 77.6647 92.4981C77.7301 92.538 77.7954 92.5816 77.8572 92.6289C77.8209 92.6034 77.6865 92.4799 77.839 92.6216C77.9517 92.727 78.057 92.8396 78.166 92.9522C78.3658 93.1629 78.0897 92.8214 78.1805 92.9703C78.2205 93.0357 78.2677 93.0975 78.3077 93.1629C78.3404 93.2174 78.3658 93.2719 78.3985 93.3264C78.5402 93.577 78.3622 93.1701 78.413 93.3482C78.4566 93.4935 78.4929 93.6424 78.5329 93.7914C78.4784 93.5879 78.5293 93.7187 78.5329 93.7841C78.5329 93.8858 78.5329 93.9875 78.5365 94.0892C78.5511 94.3908 78.5801 93.9657 78.5365 94.1365C78.5184 94.22 78.5038 94.3036 78.4784 94.3835C78.4602 94.4489 78.4384 94.5143 78.4166 94.576C78.4893 94.3762 78.4203 94.5506 78.3912 94.6051C78.3549 94.6705 78.3149 94.7286 78.275 94.7904C78.3004 94.754 78.4312 94.6196 78.2895 94.7613C78.2495 94.8013 78.2059 94.8412 78.166 94.8848C78.0061 95.0556 78.3149 94.8231 78.1224 94.9139C78.1115 94.9211 77.8572 95.0338 78.0279 94.9684C78.1987 94.903 77.9335 94.9974 77.9226 94.9902C77.9444 95.0047 78.2132 94.9466 77.9517 94.9793C77.6901 95.012 78.0316 95.0265 77.9008 94.9793C77.8209 94.9502 77.7373 94.9357 77.6574 94.9103C77.701 94.9248 77.8318 95.0011 77.6392 94.8994C77.4903 94.8194 77.3522 94.7286 77.2106 94.6342C76.9599 94.4707 77.3014 94.7214 77.1633 94.6015C77.1016 94.5506 77.0398 94.4998 76.9817 94.4453C76.8763 94.3508 76.7746 94.2491 76.6765 94.1437C76.6221 94.0856 76.5712 94.0275 76.5203 93.9621C76.5494 93.9984 76.6293 94.1219 76.5203 93.9512C76.4368 93.8168 76.3532 93.6824 76.2842 93.5407C76.3714 93.7151 76.2769 93.5153 76.2588 93.4644C76.2297 93.3808 76.2079 93.2973 76.1897 93.2101C76.2006 93.2537 76.1934 93.4063 76.1897 93.1847C76.1897 93.1992 76.2006 92.8614 76.1861 93.0139C76.1716 93.1665 76.2297 92.8432 76.2297 92.8541C76.237 92.8178 76.306 92.6688 76.2333 92.825C76.2624 92.7633 76.2951 92.7015 76.3314 92.6434C76.3714 92.578 76.5167 92.4182 76.3895 92.5562C76.4949 92.4436 76.5966 92.331 76.7201 92.2365C76.6802 92.2692 76.5567 92.3382 76.7201 92.2474C76.7892 92.2111 76.8509 92.1675 76.9199 92.1348C76.9781 92.1057 77.167 92.0367 76.9454 92.1166C77.0035 92.0948 77.0616 92.0767 77.1197 92.0585C77.1779 92.0404 77.2396 92.0258 77.2977 92.0113C77.3595 91.9968 77.4176 91.9859 77.4794 91.975L77.3522 91.9931C77.4649 91.9423 77.6937 91.9859 77.81 91.9895C77.9553 91.9931 77.879 91.9459 77.7664 91.9822C77.8136 91.9641 77.9408 92.0222 77.988 92.0331C78.0425 92.0476 78.1696 92.0658 78.2059 92.1021C78.195 92.0876 77.9516 91.975 78.166 92.0876C78.304 92.1566 78.4348 92.2329 78.562 92.3201C78.5801 92.331 78.8017 92.5162 78.66 92.3855C78.5184 92.2547 78.7327 92.4581 78.7436 92.469C78.7872 92.5126 78.8308 92.5562 78.8707 92.5998C78.8889 92.6216 79.0451 92.8505 78.947 92.6834C78.8417 92.509 78.9943 92.7705 79.0052 92.7814C79.0379 92.8396 79.0706 92.8977 79.0996 92.9558C79.2195 93.1702 79.1105 92.9449 79.0923 92.9195C79.1432 92.9885 79.1614 93.1157 79.1832 93.1992C79.205 93.2791 79.2159 93.3591 79.2377 93.439C79.2849 93.6242 79.2377 93.1266 79.2377 93.439C79.2377 93.5879 79.234 93.7369 79.2377 93.8822C79.2377 94.0747 79.3139 93.577 79.2377 93.8822C79.2231 93.9476 79.2122 94.0093 79.1941 94.0747C79.1759 94.1401 79.1541 94.2019 79.1359 94.2636C79.0669 94.5324 79.2413 94.0929 79.1141 94.3254C79.0306 94.4743 78.9507 94.6233 78.8562 94.7686C78.8235 94.8194 78.7799 94.8994 78.7363 94.9357C78.9361 94.7649 78.7763 94.8812 78.7182 94.9502C78.6237 95.0628 78.5293 95.1682 78.4239 95.2699C78.3767 95.3135 78.3295 95.3571 78.2822 95.4007C78.0824 95.5896 78.4675 95.3135 78.2386 95.4225C78.2241 95.4297 77.9553 95.5932 78.1406 95.4879C78.3149 95.3898 78.0497 95.5133 78.0207 95.5206C77.9916 95.5278 77.839 95.5496 77.8281 95.5605L77.9843 95.5351C77.9371 95.5387 77.8863 95.5424 77.8354 95.5387C77.7809 95.5387 77.632 95.5605 77.5884 95.5278C77.5993 95.5351 77.9081 95.5896 77.6392 95.5351C77.4758 95.4988 77.3159 95.4479 77.1524 95.4043C76.8437 95.3171 77.3123 95.4915 77.1379 95.4043C77.0652 95.368 76.9926 95.3353 76.9199 95.2953C76.7964 95.2299 76.6729 95.1573 76.5567 95.0774L76.5167 95.0519C76.4005 94.9684 76.415 94.9793 76.553 95.0846C76.5167 95.0701 76.4331 94.9829 76.4113 94.9611C76.3133 94.8703 76.1389 94.7431 76.088 94.6196C76.1897 94.863 76.157 94.7068 76.0989 94.6196C76.0553 94.5542 76.0226 94.4852 75.9827 94.4162C75.9427 94.3472 75.841 94.2455 75.9936 94.4634C75.9536 94.4053 75.9354 94.3036 75.9173 94.2346C75.8955 94.1583 75.881 94.0783 75.8628 93.9984C75.8156 93.8023 75.9137 94.0239 75.8701 94.0566C75.8991 94.0348 75.8701 93.6242 75.8701 93.5734C75.8737 93.261 75.8192 93.7696 75.8701 93.5807C75.8919 93.5007 75.9028 93.4208 75.9246 93.3409C75.9427 93.2791 75.9609 93.2137 75.979 93.152C75.9827 93.1375 76.1026 92.8432 76.019 93.0321C75.9354 93.221 76.0735 92.934 76.0771 92.9231C76.1062 92.8686 76.1389 92.8105 76.1716 92.756C76.2043 92.7015 76.2406 92.6507 76.2733 92.5998C76.4186 92.36 76.1171 92.756 76.2987 92.5671C76.4077 92.4545 76.5167 92.3455 76.6257 92.2329C76.6729 92.1857 76.7819 92.0476 76.5785 92.262C76.6293 92.2075 76.7092 92.1675 76.771 92.1275C76.8182 92.0948 77.1161 91.9786 77.1379 91.9241C77.1088 91.9968 76.9054 92.004 77.0834 91.9495C77.1742 91.9205 77.2614 91.8878 77.3559 91.866C77.4358 91.8442 77.5157 91.8333 77.592 91.8151C77.7809 91.7715 77.2687 91.8151 77.5775 91.8224C77.7228 91.8224 77.8681 91.826 78.0134 91.8296C78.2059 91.8333 77.6974 91.7461 77.9952 91.8296C78.057 91.8478 78.1224 91.8587 78.1841 91.8732C78.2459 91.8878 78.3077 91.9132 78.3694 91.9314C78.6419 92.0077 78.1841 91.8115 78.4057 91.9495C78.4748 91.9931 78.5474 92.0295 78.6165 92.073L78.6564 92.0985C78.7763 92.182 78.7618 92.1675 78.6128 92.0549C78.7182 92.0876 78.8453 92.2656 78.918 92.3419C78.9834 92.4109 79.1432 92.5162 78.918 92.3237C78.9579 92.3564 79.0015 92.44 79.027 92.4763C79.1141 92.6071 79.1904 92.7415 79.2631 92.8832C79.274 92.9013 79.4011 93.1847 79.3139 92.9812C79.2268 92.7778 79.343 93.0684 79.3503 93.0866C79.3975 93.221 79.4375 93.3554 79.4738 93.4935C79.5101 93.6315 79.5791 93.8204 79.5719 93.9657C79.5864 93.7114 79.5646 93.8822 79.5646 93.9512C79.5646 94.0638 79.5791 94.1764 79.5755 94.289C79.5755 94.289 79.5501 94.6596 79.5755 94.4489C79.6009 94.2382 79.5392 94.6015 79.5392 94.6051C79.5246 94.6632 79.5065 94.7177 79.4883 94.7758C79.4048 95.0556 79.5973 94.5942 79.4992 94.7504C79.4593 94.8122 79.4229 94.8812 79.3866 94.9466C79.3067 95.0955 79.3176 94.9248 79.4338 94.8921C79.4193 94.8957 79.3321 94.9974 79.3103 95.0229C79.1468 95.219 79.5138 94.9284 79.2994 95.0338C79.2849 95.041 79.0306 95.15 79.1977 95.0955C79.3902 95.0338 79.0415 95.1282 79.0415 95.1282C78.987 95.1464 78.7763 95.1754 79.0669 95.1319C78.987 95.1428 78.9071 95.15 78.8272 95.1573C78.6818 95.1682 78.5402 95.1682 78.3949 95.1573C78.3476 95.1573 78.2532 95.1573 78.2023 95.1391C78.5147 95.2408 78.2459 95.1391 78.1624 95.121C78.0388 95.0919 77.8063 95.0592 77.7046 94.9829C77.7264 95.0011 77.9517 95.1064 77.7373 94.9938C77.6683 94.9575 77.5956 94.9212 77.5266 94.8812C77.4576 94.8412 77.3195 94.7105 77.4939 94.8885C77.4503 94.8449 77.3958 94.8049 77.3486 94.7613C77.3014 94.7177 77.2578 94.6741 77.2178 94.6305C77.1343 94.5433 77.0326 94.4453 77.1706 94.5942C77.0725 94.4852 76.9926 94.3326 76.9236 94.2019C76.9127 94.1801 76.8364 94.042 76.84 94.0348C76.8146 94.0638 76.9236 94.26 76.8436 94.0275C76.8001 93.8931 76.7674 93.7623 76.7383 93.6242C76.6838 93.3772 76.7383 93.6715 76.7456 93.6787C76.7092 93.6315 76.7347 93.468 76.7347 93.4026C76.7347 93.3264 76.7456 93.2501 76.7456 93.1701C76.7528 92.9849 76.6656 93.468 76.7456 93.1919C76.7855 93.0612 76.8182 92.934 76.8582 92.8032C76.909 92.6325 76.7092 93.0612 76.8582 92.8141C76.8872 92.7633 76.9127 92.7088 76.9454 92.6579C76.9781 92.6071 77.0108 92.5562 77.0398 92.5053C77.1779 92.2765 76.8872 92.6507 77.0616 92.4763C77.1488 92.3891 77.2687 92.2147 77.3849 92.1675C77.3631 92.1784 77.1415 92.3201 77.345 92.2075C77.4104 92.1711 77.4721 92.1312 77.5375 92.0948L77.5775 92.073C77.7046 92.0149 77.6865 92.0186 77.5193 92.0948C77.5302 92.0767 77.6865 92.0404 77.6901 92.0404C77.7482 92.0222 77.8063 92.0149 77.8645 91.9968C78.1297 91.9205 77.6211 91.9968 77.879 91.9968C77.9371 91.9968 78.2895 91.9532 78.3295 92.0077C78.3367 92.0186 77.9952 91.9314 78.2532 92.0077C78.3258 92.0295 78.3985 92.044 78.4711 92.0658C78.5293 92.0839 78.6346 92.1021 78.6818 92.1421C78.6673 92.1312 78.4094 92.0004 78.6165 92.1239C78.6637 92.153 78.7182 92.1893 78.769 92.2147C78.9979 92.3346 78.6165 92.0476 78.7981 92.2365C78.8562 92.2983 78.918 92.3528 78.9761 92.4145C79.0451 92.4908 79.1941 92.5671 78.9943 92.4254C79.096 92.4944 79.1723 92.7015 79.2268 92.8032L79.2449 92.8432C79.303 92.9703 79.2958 92.9449 79.2195 92.7705C79.2377 92.7814 79.2776 92.9268 79.2813 92.934C79.3285 93.0721 79.3575 93.2137 79.3902 93.3554C79.4556 93.6388 79.383 93.1266 79.383 93.3155C79.383 93.3881 79.3902 93.4608 79.3902 93.5298C79.3902 93.5879 79.3866 93.6424 79.383 93.7005C79.3757 93.9875 79.4375 93.4753 79.3902 93.6533C79.3612 93.7623 79.2994 93.904 79.2885 94.0166C79.3103 93.8022 79.383 93.8313 79.3139 93.9367C79.303 93.9512 79.205 94.1546 79.1795 94.151C79.2013 94.151 79.3721 93.9367 79.1868 94.1183L79.1541 94.151C79.0488 94.2418 79.0669 94.2309 79.205 94.1183C79.205 94.1328 79.0524 94.2128 79.0524 94.2128C78.8126 94.3653 79.2449 94.1655 79.0742 94.2128C79.0052 94.2309 78.9289 94.2527 78.8598 94.2745C78.7145 94.3217 78.7836 94.2164 78.9361 94.2709C78.9034 94.26 78.7981 94.2781 78.7581 94.2781C78.7 94.2781 78.6382 94.2781 78.5801 94.2709L78.7436 94.2927C78.7327 94.3108 78.5547 94.2418 78.5256 94.2346C78.3585 94.2019 78.7836 94.3944 78.5547 94.2455C78.5075 94.2164 78.4566 94.1873 78.4057 94.1583C78.166 94.0202 78.5474 94.3036 78.4275 94.1764C78.3803 94.1256 78.3258 94.0747 78.275 94.0275C78.1733 93.933 78.275 93.9258 78.3149 94.0892C78.3077 94.0529 78.2423 93.9839 78.2205 93.9439C78.1914 93.8931 78.1624 93.8458 78.1369 93.7914L78.1987 93.9403C78.1732 93.933 78.1406 93.7659 78.1333 93.7369L78.1224 93.6969C78.0933 93.5589 78.0933 93.5843 78.1224 93.7768C78.0933 93.7405 78.1006 93.2646 78.1079 93.4826C78.1151 93.7514 78.1587 93.1738 78.1878 93.1992C78.2241 93.2283 78.0679 93.4244 78.166 93.2501C78.2132 93.1701 78.2604 93.0902 78.3077 93.0067C78.453 92.756 78.1732 93.1229 78.3077 93.0139C78.3367 92.9885 78.4384 92.8432 78.4748 92.8505C78.4893 92.8505 78.1914 93.0212 78.4166 92.9013C78.4784 92.8686 78.5438 92.8323 78.6056 92.7996C78.7509 92.7197 78.3077 92.865 78.5729 92.8214C78.6128 92.8141 78.7073 92.796 78.74 92.7814C78.5438 92.8832 78.5111 92.7923 78.6419 92.7996C78.9688 92.825 78.6273 92.8105 78.6201 92.7814C78.6491 92.8723 78.9071 92.7633 78.6927 92.796L78.6092 92.7633C78.7254 92.8359 78.7036 92.8178 78.5438 92.7015C78.7 92.8396 78.4748 92.6398 78.5075 92.6325L78.5511 92.7052C78.6019 92.8069 78.6056 92.8069 78.5547 92.7052L78.522 92.6289C78.5402 92.6834 78.5547 92.7415 78.562 92.7996L78.5474 92.7124C78.5329 92.5962 78.5293 92.5962 78.5365 92.7124V92.7996L78.5583 92.618C78.5583 92.618 78.482 92.8505 78.4893 92.8577C78.4457 92.8069 78.6274 92.5816 78.4929 92.8032C78.3585 93.0248 78.5038 92.756 78.5256 92.7705C78.5256 92.7705 78.3985 92.9013 78.4094 92.8904C78.2168 93.0866 78.6019 92.7851 78.4457 92.8614C78.4275 92.8723 78.2641 92.9631 78.2641 92.9667C78.2641 92.9413 78.5838 92.865 78.3513 92.9268C78.3585 92.9268 78.195 92.9631 78.1914 92.9703C78.4094 92.9485 78.4421 92.9413 78.2968 92.9522H78.2132C77.9916 92.9667 78.2931 92.9667 78.3658 92.9921C78.66 93.0975 78.8707 93.4317 78.8598 93.7405C78.8598 93.7732 78.7799 94.0602 78.8489 93.8422L78.7945 93.9984C78.6891 94.1256 78.6673 94.1546 78.7363 94.0856C78.8671 93.9585 78.4639 94.2273 78.7327 94.0856C78.7908 94.0565 78.8526 94.0166 78.9071 93.9839C79.1468 93.8458 78.8998 93.973 78.8853 93.9875C78.9688 93.9076 79.2122 93.9294 78.947 93.9476C79.2631 93.9258 78.7945 93.8822 78.947 93.9294C79.1141 93.9803 78.6709 93.7478 78.8998 93.9112C78.8671 93.8894 78.6818 93.7005 78.8235 93.864L78.7145 93.726C78.6491 93.5407 78.631 93.4935 78.66 93.5916L78.6709 93.6315C78.631 93.4971 78.6273 93.3627 78.66 93.2246C78.6891 93.1011 78.7618 92.9631 78.8453 92.8723C79.1069 92.5998 79.5246 92.6034 79.8407 92.7633C79.2013 92.44 78.3258 92.5744 77.9662 93.2537C77.6356 93.8785 77.7773 94.7795 78.4566 95.1282C79.1359 95.477 79.9279 95.4188 80.5564 94.9321C81.1848 94.4453 81.4428 93.6642 81.2502 92.9195C81.0759 92.2438 80.56 91.7279 79.9315 91.4627C79.2086 91.1576 78.4493 91.2847 77.7518 91.5935C77.2215 91.8297 76.7274 92.222 76.444 92.7378C76.0408 93.4753 76.1462 94.4089 76.7201 95.0265C77.6683 96.04 79.3357 95.6114 80.2403 94.794C81.1449 93.9766 81.3846 92.6107 80.8579 91.5027C80.3311 90.3947 78.9507 89.9551 77.8245 90.322C76.6983 90.689 75.8773 91.6081 75.6158 92.7342C75.3542 93.8604 75.6594 94.9938 76.4404 95.8403C77.2215 96.6867 78.4203 96.9955 79.5283 96.7448C80.6363 96.4942 81.4936 95.6114 81.8097 94.5433C82.4091 92.5162 81.1013 90.0169 79.0052 89.5301C77.9989 89.2976 76.8582 89.4393 76.0008 90.0387C75.1435 90.6381 74.4787 91.5354 74.2971 92.5744C74.1154 93.6133 74.2898 94.7395 74.8892 95.6477C75.0418 95.8766 75.2089 96.0982 75.3978 96.298C75.4596 96.367 75.5286 96.4324 75.5976 96.4941C75.6921 96.5777 76.1897 96.9192 75.8955 96.7339C76.1353 96.8865 76.3351 97.0754 76.5894 97.2098C76.8436 97.3442 77.1343 97.4677 77.4176 97.5622C78.4457 97.9 79.7571 97.8964 80.6799 97.2716C81.7007 96.5813 82.2165 95.3971 82.202 94.1837C82.1766 92.0694 80.9087 89.6936 78.6818 89.2722C77.5775 89.0615 76.4222 89.2249 75.4668 89.8389C74.5114 90.4528 73.8757 91.292 73.4942 92.3201C73.1128 93.3482 73.1854 94.576 73.6613 95.5968C74.0791 96.4905 74.9292 97.2316 75.8083 97.653C76.9345 98.1943 78.1805 98.3614 79.3357 97.7947C80.2294 97.3588 80.985 96.4324 81.3919 95.5387C81.8605 94.507 81.9695 93.2973 81.5445 92.2293C81.1194 91.1612 80.3057 90.2966 79.1941 89.8534C77.2069 89.0615 74.7839 90.2312 74.1481 92.2692C73.8066 93.3591 74.2317 94.4961 74.9001 95.3607C75.4923 96.1272 76.4331 96.9083 77.3958 97.1263C78.5838 97.3914 79.6845 96.8175 80.3202 95.8112C80.9015 94.8921 80.9996 93.6206 80.6108 92.6107C80.2403 91.6553 79.5537 90.8161 78.6237 90.3511C77.5993 89.8389 76.2987 89.7553 75.4269 90.6236C74.7366 91.3138 74.4533 92.4545 74.5586 93.4026C74.664 94.3508 75.0454 95.3026 75.7683 95.9747C76.2297 96.407 76.7892 96.7158 77.4285 96.7557C78.126 96.7957 78.7254 96.3997 79.1105 95.8475C79.7499 94.9321 79.8225 93.5407 79.1032 92.6507C78.8163 92.2946 78.3258 91.9713 77.8681 91.9096C77.7482 91.895 77.6247 91.895 77.5084 91.9241C77.0834 92.0403 77.2868 91.9968 77.3813 91.9713C77.3086 91.9895 77.2433 92.0149 77.1742 92.044C76.9635 92.1275 76.7819 92.2402 76.6184 92.4C76.3678 92.647 76.4876 93.0902 76.8255 93.181L76.8436 93.2137Z" fill="#FFFF00"/>
<path d="M112.878 41.0215C112.965 41.0687 113.499 41.6063 113.466 41.6899C113.506 41.5882 112.867 40.7054 113.208 41.3012C113.644 42.0568 112.871 40.5964 113.237 41.4792C113.274 41.8861 113.281 41.8715 113.259 41.4356L112.845 42.9214C112.34 43.8405 111.577 43.7533 110.716 43.9277C110.393 43.8696 110.371 43.8732 110.651 43.9422C110.934 44.0294 110.912 44.0076 110.582 43.8659C109.844 43.1684 111.428 44.7196 110.204 43.5644C110.647 43.9822 110.23 43.6698 110.186 43.4118L110.393 43.7424L110.095 42.5036C110.077 41.6027 110.466 40.9815 111.265 40.6437C111.534 40.2223 111.882 40.0152 112.311 40.0152C112.613 39.9898 112.62 39.9861 112.333 40.0043C112.191 40.0043 112.05 40.0188 111.908 40.0406C111.57 40.0624 111.167 40.0007 110.836 40.066L110.469 40.0551L113.099 41.6209L112.911 41.3266C113.259 42.0423 113.27 42.0205 112.932 41.2685C112.663 40.6291 112.286 39.9934 111.737 39.5502C109.717 37.9009 107.247 37.7629 105.224 39.5502L105.049 39.7028C103.716 40.8834 103.454 42.7906 103.799 44.4327C104.9 49.6602 111.704 50.6811 115.744 48.2761C117.909 46.9865 119.406 44.716 119.221 42.1295C119.064 39.9207 118.062 37.8682 116.452 36.3461C112.482 32.5825 105.674 33.7595 103.861 39.1397C103.164 41.214 103.614 43.6879 104.7 45.5588C106.273 48.2689 108.936 49.0608 111.879 48.6467C113.474 48.4215 114.676 46.6123 114.869 45.1774C115.083 43.5862 114.345 41.8098 112.878 41.0215Z" fill="#00FF00"/>
<path d="M55.5627 100.672C56.9068 100.134 58.6106 99.5965 60.6159 99.2805C64.0235 98.7465 66.9152 99.0734 68.8696 99.4657C69.3782 104.984 69.8904 110.502 70.399 116.02C69.5962 116.453 68.7897 116.885 67.9868 117.317C67.2276 114.829 66.472 112.34 65.7127 109.852C65.3749 109.816 64.5139 109.765 63.9036 110.317C63.286 110.876 63.286 111.726 63.3005 112.729C63.3114 113.557 63.4458 114.88 64.1361 116.438C62.3269 118.215 60.5178 119.995 58.7087 121.771C58.3163 121.887 57.6043 122.033 57.0376 121.677C56.1839 121.139 56.1694 119.773 56.1548 119.217C56.0168 112.838 54.0079 110.36 55.3193 102.012C55.4137 101.413 55.5009 100.933 55.5518 100.668L55.5627 100.672Z" fill="#333333"/>
<path d="M123.686 43.6734C123.831 43.6117 123.98 43.5608 124.129 43.5172C124.216 43.4918 124.303 43.47 124.39 43.4518C124.438 43.4409 124.619 43.3792 124.656 43.4046C124.666 43.4119 124.369 43.4373 124.499 43.4264C124.543 43.4264 124.59 43.4155 124.634 43.4119C124.714 43.4046 124.79 43.401 124.87 43.401C125.037 43.3973 125.208 43.401 125.375 43.4155C125.669 43.4409 125.142 43.3756 125.353 43.4082C125.527 43.4373 125.702 43.4591 125.876 43.4736C125.909 43.4736 125.942 43.4809 125.974 43.4845C126.127 43.4954 125.705 43.4409 125.858 43.4664C125.945 43.4809 126.036 43.4991 126.123 43.5136C126.276 43.5427 126.428 43.5608 126.585 43.5717C126.65 43.5754 126.792 43.5826 126.494 43.5572C126.559 43.5645 126.635 43.579 126.697 43.5863C126.759 43.5935 126.857 43.6153 126.926 43.6044C127.013 43.5899 126.846 43.5863 126.832 43.5826C126.955 43.6262 127.122 43.6407 127.249 43.6407C127.286 43.6407 127.326 43.6335 127.362 43.6298C127.337 43.6298 127.202 43.6044 127.351 43.6298C127.453 43.648 127.558 43.6698 127.664 43.6734C127.874 43.6771 128.081 43.6044 128.19 43.4155C128.321 43.1866 128.241 42.9251 128.136 42.7035C128.118 42.6672 128.099 42.6272 128.078 42.5945C128.06 42.5654 128.005 42.5255 128.063 42.5836L128.078 42.6236C128.06 42.5727 128.038 42.5255 128.016 42.4783C127.958 42.3366 127.918 42.2821 127.805 42.1513C127.783 42.1259 127.765 42.1004 127.74 42.0786C127.649 41.9878 127.849 42.2167 127.769 42.1295C127.678 42.0278 127.609 41.9079 127.507 41.8171C127.337 41.6681 127.148 41.5047 126.941 41.4066C126.734 41.3085 126.512 41.214 126.29 41.1341C126.036 41.0433 125.774 41.0142 125.506 40.9852C124.685 40.8907 123.802 41.0033 123.035 41.3194C122.73 41.4465 122.48 41.581 122.305 41.8788C122.153 42.1404 122.087 42.5255 122.182 42.8197C122.276 43.114 122.461 43.401 122.741 43.5499C123.021 43.6989 123.384 43.797 123.682 43.6734H123.686Z" fill="#FFFF00"/>
<path d="M98.7464 32.568C98.4085 31.7216 97.9145 30.9514 97.2388 30.3302C96.9082 30.0251 96.5413 29.7671 96.1344 29.5673C96.0436 29.5237 95.8619 29.4293 95.753 29.462C95.7057 29.4583 95.7239 29.462 95.8147 29.4656C95.7857 29.4547 95.7566 29.4438 95.7239 29.4365C95.6767 29.422 95.6331 29.4111 95.5859 29.4039C95.5277 29.3966 95.4696 29.3893 95.4115 29.3821C95.3715 29.3784 95.3824 29.3784 95.4442 29.3821C95.2008 29.2876 94.9574 29.3094 94.7104 29.3748C94.4379 29.4474 94.3979 29.7635 94.5578 29.956C94.5868 29.9887 94.6123 30.0251 94.6413 30.0578C94.5796 29.9815 94.6886 30.1195 94.6958 30.1268C94.7648 30.1994 94.8738 30.2866 94.9719 30.3229C95.0337 30.3484 94.9065 30.2539 94.9937 30.3375C95.0337 30.3774 95.0736 30.4138 95.1209 30.4465C95.2044 30.5119 95.2916 30.5736 95.3752 30.639L95.1499 30.4138C95.2771 30.6136 95.4514 30.7298 95.6367 30.8642C95.644 30.8679 95.7711 30.966 95.6839 30.8969C95.5968 30.8279 95.7203 30.926 95.7275 30.9333C95.782 30.9805 95.8365 31.0277 95.891 31.0749C96.1199 31.2711 96.3451 31.4636 96.5449 31.6852C96.5921 31.7397 96.643 31.7942 96.6902 31.8487C96.712 31.8741 96.7302 31.8996 96.752 31.925C96.8174 32.0049 96.7774 31.9759 96.7447 31.9105C96.8137 32.034 96.9155 32.1466 96.9917 32.2701C97.0753 32.4009 97.1516 32.5317 97.2206 32.6697C97.2533 32.7351 97.286 32.8005 97.3151 32.8659C97.3296 32.895 97.3369 32.9277 97.355 32.9531C97.2642 32.8005 97.3369 32.9059 97.355 32.9604C97.4277 33.142 97.5112 33.2909 97.6892 33.3927C97.8454 33.4835 98.0743 33.5234 98.2487 33.4653C98.5902 33.3563 98.9026 32.9531 98.7536 32.5753L98.7464 32.568Z" fill="#FFFF00"/>
<path d="M119.446 55.0295C120.692 54.3829 122.279 54.8988 123.126 55.9632C124.143 57.2455 124.049 59.1201 123.3 60.5041C123.108 60.8602 122.868 61.2016 122.541 61.445C122.112 61.7647 121.476 61.7575 121.331 61.1435C121.164 60.4315 121.709 59.5596 122.163 59.0619C122.737 58.4298 123.609 58.1719 124.125 59.0147C124.51 59.6468 124.63 60.3915 124.746 61.1108C124.884 61.9645 124.895 62.8582 124.804 63.7192C124.757 64.1587 124.648 64.591 124.593 65.0342C124.546 65.4375 124.459 65.9134 124.51 66.313C124.532 66.4765 124.677 66.6581 124.87 66.5854C125.32 66.4183 125.701 65.9788 125.952 65.5719C126.283 65.0379 126.37 64.4021 126.421 63.7882C126.512 62.662 126.286 61.4632 125.901 60.4024C125.574 59.5015 125.127 58.4734 124.194 58.0556C123.318 57.6633 122.454 58.0702 121.883 58.7749C121.386 59.3889 120.852 60.3007 120.972 61.129C121.091 61.9573 121.952 62.2043 122.654 61.8519C123.533 61.4087 124.012 60.3588 124.252 59.4506C124.513 58.4589 124.506 57.3836 124.118 56.4245C123.344 54.5246 120.961 53.4929 119.097 54.4447C118.708 54.6445 119.05 55.2366 119.442 55.0332L119.446 55.0295Z" fill="#F15A24"/>
<path d="M89.697 44.3419C88.7561 42.827 86.7763 42.3438 85.1597 42.9977C83.3287 43.7352 82.406 45.6824 82.2207 47.5532C82.1408 48.367 82.2571 49.2461 82.7548 49.9182C82.9546 50.1906 83.2961 50.5721 83.6557 50.5975C83.9972 50.6193 84.3823 50.3832 84.6075 50.1471C85.8463 48.8538 84.9163 46.6305 83.7066 45.6933C82.9146 45.0793 81.9338 44.8541 80.9493 45.0285C80.0919 45.181 79.122 45.755 78.8096 46.6087C78.7587 46.7504 78.9403 46.8775 79.0602 46.8013C79.6887 46.398 80.2336 46.0384 80.9856 45.8894C81.7376 45.7405 82.475 45.8785 83.0854 46.2854C83.6957 46.6923 84.1207 47.3171 84.2987 48.011C84.4295 48.5268 84.4404 49.7729 83.6557 49.7692L83.95 49.8928C82.5259 48.763 83.4922 46.2164 84.5276 45.1665C85.0907 44.5925 85.8099 44.182 86.6273 44.1711C87.343 44.1602 88.1349 44.4072 88.5709 45.0067C89.054 45.6715 90.1511 45.0757 89.697 44.3491V44.3419Z" fill="#F15A24"/>
<path d="M88.2836 53.4056C87.3391 53.9905 86.6017 54.8442 86.1221 55.8396C85.886 56.3337 85.6898 56.835 85.5482 57.3618C85.4755 57.6269 85.4137 57.8958 85.3665 58.1682C85.3266 58.4153 85.2539 58.6732 85.2939 58.9239C85.312 59.0474 85.4755 59.0619 85.5554 58.9929C85.7262 58.8367 85.8242 58.6078 85.9441 58.4116C86.0713 58.1973 86.1912 57.983 86.311 57.765C86.5544 57.3327 86.7942 56.8931 87.0594 56.4754C87.5607 55.6907 88.1347 54.9641 88.923 54.4991C89.6205 54.085 88.9775 52.9806 88.2873 53.4093L88.2836 53.4056Z" fill="#C1272D"/>
<path d="M120.547 27.3368C119.893 26.8464 120.133 25.9055 120.416 25.2806C120.7 24.6558 121.067 23.9801 121.575 23.4969C122.055 23.0428 122.847 22.6977 123.475 23.0683C124.002 23.3807 124.165 24.0854 124.136 24.6558C124.118 25.0409 123.875 25.9418 123.326 25.7856C122.68 25.6003 122.603 24.4015 122.654 23.882C122.796 22.447 123.82 21.092 124.808 20.1039C125.913 19.0032 127.348 18.3202 128.877 18.0368C129.117 17.9933 129.051 17.6845 128.877 17.6118C126.894 16.7872 124.903 18.3456 123.682 19.7987C122.462 21.2519 121.354 23.4097 122.047 25.3496C122.316 26.098 123.017 26.8464 123.889 26.6139C124.761 26.3814 125.114 25.4078 125.114 24.5977C125.114 23.744 124.794 22.814 124.053 22.3272C123.272 21.8149 122.215 21.9421 121.463 22.447C120.536 23.0646 119.955 24.1835 119.577 25.2007C119.199 26.2179 119.265 27.3259 120.18 27.9689C120.565 28.2413 120.91 27.6165 120.547 27.344V27.3368Z" fill="#C1272D"/>
<path d="M100.624 19.3846C101.031 19.0867 101.616 19.2684 101.907 19.6534C102.092 19.9005 102.15 20.2202 102.132 20.5217C102.125 20.6924 102.077 20.8523 102.063 21.023C102.048 21.1938 101.976 21.3536 101.994 21.5134C102.001 21.5861 102.074 21.6406 102.143 21.6006C102.273 21.528 102.35 21.379 102.419 21.2519C102.502 21.1029 102.553 20.9613 102.579 20.7905C102.622 20.4708 102.611 20.133 102.502 19.8242C102.306 19.2756 101.827 18.8833 101.245 18.8179C100.955 18.7852 100.65 18.8506 100.417 19.0322C100.33 19.1013 100.283 19.2102 100.344 19.312C100.395 19.3992 100.537 19.45 100.624 19.3846Z" fill="#0000FF"/>
<path d="M132.924 52.6028C133.269 52.2359 133.85 52.2105 134.304 52.4357C134.856 52.7118 135.132 53.2931 135.172 53.8961C135.183 54.0923 135.18 54.2921 135.161 54.4846C135.15 54.5791 135.125 54.6735 135.121 54.7643C135.118 54.8515 135.143 54.9678 135.169 55.0513C135.198 55.1494 135.307 55.1676 135.383 55.1095C135.55 54.975 135.608 54.7934 135.648 54.59C135.688 54.3865 135.71 54.1795 135.706 53.9724C135.695 53.5583 135.605 53.1441 135.412 52.7772C135.067 52.1233 134.355 51.7019 133.614 51.731C133.207 51.7455 132.818 51.8981 132.531 52.1923C132.277 52.4539 132.68 52.8608 132.931 52.5919L132.924 52.6028Z" fill="#0000FF"/>
<path d="M136.085 34.3662C136.175 35.0528 136.197 35.8011 136.39 36.4659C136.546 37.0036 137.374 37.0363 137.512 36.4659C137.505 36.4914 138.173 36.2407 138.221 36.2189C138.442 36.1099 138.649 35.9828 138.856 35.8484C139.082 35.703 139.303 35.5614 139.521 35.4015C139.645 35.3071 139.739 35.169 139.91 35.2199C140.081 35.2707 140.059 35.3616 140.102 35.525C140.266 36.139 140.419 36.7529 140.582 37.3669C140.702 37.8137 140.891 38.2351 141.425 38.2278C141.672 38.2278 141.893 38.1079 142.119 38.0171C142.457 37.8754 142.802 37.781 143.154 37.6793L145.065 37.1344C145.167 37.1053 145.392 36.989 145.501 37.0108C145.664 37.0435 145.628 37.0399 145.668 37.2179C145.737 37.534 145.784 37.8573 145.842 38.1733C145.948 38.751 146.031 39.3903 146.42 39.8553C146.525 39.9788 146.721 39.8989 146.765 39.7645C146.987 39.067 146.692 38.2133 146.543 37.5231C146.438 37.0254 146.373 36.3061 145.744 36.2225C145.446 36.1826 145.148 36.3315 144.872 36.4296L143.761 36.811C143.361 36.9491 142.965 37.0908 142.562 37.2252C142.358 37.2942 142.162 37.3487 141.952 37.3923L141.686 37.4468C141.519 37.4976 141.428 37.454 141.41 37.316C141.319 37.207 141.287 36.9673 141.236 36.8256L141.003 36.1717C140.88 35.8266 140.771 35.4742 140.633 35.1327C140.459 34.7004 140.092 34.4098 139.627 34.6641C139.365 34.8057 139.169 35.0564 138.94 35.2417C138.628 35.4923 138.25 35.6558 137.872 35.7793C137.832 35.7902 137.461 35.8701 137.447 35.8956C137.538 36.1971 137.563 36.2189 137.52 35.9573L137.48 35.605L137.334 34.3662C137.294 34.0283 137.076 33.745 136.709 33.7413C136.404 33.7413 136.041 34.032 136.085 34.3662Z" fill="#0000FF"/>
<path d="M109.528 34.8167C110.07 34.359 109.953 33.5997 109.855 32.9894C109.765 32.4118 109.568 31.8378 109.419 31.2711C109.27 30.7044 109.111 30.1304 108.947 29.5637C108.769 28.9425 108.649 28.1759 108.282 27.6347C108.035 27.2714 107.574 27.0207 107.127 27.166C106.68 27.3113 106.382 27.6892 106.375 28.1541C106.368 28.7463 106.619 29.3384 106.793 29.8979C106.953 30.4028 107.109 30.9042 107.276 31.4055L107.777 32.9095C107.872 33.1892 107.974 33.4653 108.093 33.7341C108.144 33.8467 108.188 33.9666 108.25 34.072C108.333 34.2173 108.253 34.0066 108.322 33.894C108.133 34.2209 108.217 34.6568 108.518 34.8821C108.838 35.1218 109.227 35.0746 109.525 34.8239L109.528 34.8167Z" fill="#FFFF00"/>
<path d="M114.099 34.2645C114.422 33.0076 114.753 31.7579 114.992 30.4828C115.109 29.8688 115.221 29.2513 115.319 28.6337C115.439 27.8781 115.584 26.7228 114.615 26.4576C114.153 26.3305 113.681 26.6248 113.445 27.0062C113.23 27.3513 113.194 27.8127 113.143 28.205C113.074 28.7281 112.994 29.313 112.903 29.9088C112.704 31.213 112.54 32.4699 112.297 33.7705C112.206 34.2681 112.435 34.7804 112.951 34.922C113.434 35.0565 113.975 34.7586 114.102 34.2681L114.099 34.2645Z" fill="#FFFF00"/>
<path d="M117.218 35.7249C117.858 34.8712 118.599 34.1046 119.274 33.28C120.005 32.3863 120.778 31.5181 121.472 30.5954C121.832 30.1158 122.242 29.4002 121.897 28.8044C121.465 28.0597 120.462 28.6264 120.019 29.0296C119.616 29.4002 119.285 29.8615 118.944 30.2866C118.566 30.7588 118.195 31.2347 117.843 31.7252C117.106 32.746 116.495 33.8431 115.82 34.9075C115.587 35.278 115.743 35.7975 116.11 36.0155C116.524 36.2589 116.953 36.0772 117.218 35.7249Z" fill="#FFFF00"/>
<path d="M119.388 38.6239C120.463 37.9009 121.568 37.2216 122.701 36.5859C123.257 36.2734 123.809 35.9574 124.361 35.6341C124.677 35.4524 124.975 35.2417 125.259 35.0129C125.517 34.8022 125.691 34.5479 125.883 34.2827C126.145 33.923 125.789 33.4762 125.411 33.458C125.277 33.4508 125.153 33.4726 125.019 33.4944H125.36C124.979 33.429 124.656 33.4617 124.285 33.5706C123.914 33.6796 123.591 33.8249 123.257 33.9848C122.698 34.25 122.156 34.5406 121.622 34.8603C120.525 35.5142 119.453 36.2081 118.411 36.9455C117.982 37.247 117.782 37.7956 118.062 38.2751C118.316 38.7074 118.956 38.9181 119.392 38.6239H119.388Z" fill="#FFFF00"/>
<path d="M109.43 51.1243C109.637 52.087 109.819 53.0533 109.979 54.0232C110.055 54.4882 110.15 54.9532 110.24 55.4146C110.338 55.9123 110.524 56.6388 111.032 56.8677C111.301 56.9876 111.537 56.9622 111.762 56.7733C112.198 56.41 112.177 55.6689 112.118 55.1603C112.053 54.6226 111.988 54.085 111.879 53.5546C111.679 52.5738 111.45 51.6038 111.196 50.6338C111.076 50.1689 110.535 49.8455 110.07 49.9945C109.576 50.1543 109.321 50.6193 109.43 51.1206V51.1243Z" fill="#FFFF00"/>
<path d="M113.372 50.8591C113.888 51.7056 114.465 52.5084 115.09 53.2786C115.373 53.6273 115.657 53.9906 115.995 54.2848C116.209 54.4737 116.431 54.6917 116.67 54.8407C116.859 54.9569 117.048 54.9969 117.266 55.0368C117.364 55.055 117.266 55.055 117.233 55.0405C117.321 55.0804 117.44 55.0659 117.535 55.0623C117.869 55.0441 118.145 54.7971 118.149 54.4483C118.149 54.3793 118.149 54.3175 118.138 54.2485C118.094 53.9252 118.156 54.4846 118.113 54.1323C118.087 53.9506 118.04 53.7835 117.945 53.62C117.862 53.4784 117.746 53.3548 117.644 53.2241C117.629 53.2059 117.52 53.0824 117.604 53.1732C117.695 53.2749 117.56 53.1151 117.542 53.0933C117.233 52.6828 116.888 52.3086 116.565 51.909C116.503 51.8327 116.438 51.7528 116.376 51.6729C116.223 51.4803 116.46 51.7855 116.376 51.6692C116.347 51.6293 116.314 51.5893 116.285 51.5493C116.151 51.3677 116.016 51.1861 115.886 51.0008C115.62 50.6194 115.366 50.2306 115.126 49.831C114.854 49.3769 114.204 49.1662 113.739 49.4678C113.274 49.7693 113.081 50.3723 113.375 50.8555L113.372 50.8591Z" fill="#FFFF00"/>
<path d="M117.491 49.0209C118.189 49.4859 118.915 49.9109 119.671 50.2815C120.1 50.4922 120.543 50.7101 120.993 50.8773C121.545 51.0807 122.225 51.2151 122.766 50.9136C123.097 50.7283 123.34 50.2343 123.195 49.8601C122.98 49.3006 122.512 48.9773 121.989 48.723C121.611 48.5414 121.222 48.3815 120.848 48.1926C120.11 47.8221 119.395 47.4007 118.712 46.9393C118.189 46.5869 117.353 46.8194 117.063 47.3716C116.743 47.9783 116.935 48.6467 117.495 49.0209H117.491Z" fill="#FFFF00"/>
<path d="M119.801 44.9776C120.517 45.1447 121.229 45.3191 121.937 45.508C122.359 45.6206 122.798 45.7369 123.238 45.7478C123.408 45.7478 123.576 45.755 123.746 45.7405C124.175 45.7042 124.618 45.5153 124.745 45.0575C124.793 44.8904 124.771 44.7161 124.727 44.5526C124.647 44.2656 124.458 44.1167 124.233 43.9459C124.106 43.8515 123.972 43.7679 123.837 43.6844C123.448 43.4555 123.005 43.3247 122.573 43.2085C121.865 43.0196 121.152 42.8415 120.437 42.6781C119.83 42.5364 119.118 42.867 118.969 43.51C118.831 44.1167 119.151 44.825 119.801 44.9776Z" fill="#FFFF00"/>
<path d="M106.186 48.8392L104.366 50.8045C104.068 51.1279 103.781 51.4621 103.501 51.7999C103.316 52.0252 103.156 52.2649 102.989 52.5047C102.8 52.7808 102.647 53.0605 102.644 53.4056L102.767 52.9515C102.673 53.1658 102.556 53.3838 102.527 53.6163C102.506 53.7144 102.509 53.8125 102.542 53.9106C102.633 54.1176 102.644 54.1467 102.575 53.9941C102.633 54.0922 102.636 54.1721 102.724 54.2593C102.742 54.2775 102.934 54.4264 102.985 54.4046C102.825 54.3283 102.851 54.3356 103.061 54.4301L103.258 54.4555C103.519 54.4664 103.781 54.2956 104.002 54.1794L103.548 54.3029C103.988 54.2702 104.238 54.0849 104.569 53.8234C104.747 53.6817 104.932 53.5473 105.099 53.3947C105.423 53.1005 105.735 52.7844 106.033 52.4684L107.871 50.5212C108.3 50.0671 108.354 49.2788 107.871 48.8356C107.388 48.3924 106.64 48.3451 106.186 48.8356V48.8392Z" fill="#FFFF00"/>
<path d="M103.639 46.576C103.225 46.7613 102.793 46.9248 102.393 47.1391C101.994 47.3534 101.605 47.5823 101.216 47.8184C100.468 48.2725 99.6068 48.5959 98.9166 49.1371C98.8149 49.2171 98.8984 49.3987 99.022 49.3914C99.4543 49.3624 99.8866 49.2352 100.304 49.1262C100.744 49.01 101.176 48.8792 101.623 48.7775C102.07 48.6758 102.506 48.5632 102.942 48.4324C103.378 48.3016 103.795 48.1054 104.217 47.9347C104.638 47.764 104.889 47.3789 104.7 46.9284C104.511 46.4779 104.05 46.3908 103.643 46.5724L103.639 46.576Z" fill="#FFFF00"/>
<path d="M103.036 42.1186C102.058 42.035 101.067 41.9842 100.086 42.0387C99.5845 42.0677 99.0941 42.1258 98.6 42.2094C98.106 42.293 97.5792 42.3765 97.2305 42.7253C97.067 42.8887 97.1215 43.1394 97.2995 43.2593C97.6882 43.5208 98.215 43.5136 98.6691 43.5245C99.1631 43.5354 99.6499 43.5245 100.14 43.4954C101.107 43.4445 102.073 43.3283 103.036 43.2229C103.74 43.1467 103.755 42.1767 103.036 42.1149V42.1186Z" fill="#FFFF00"/>
<path d="M39.1724 64.9398C39.1542 65.8117 39.2087 66.6763 39.3249 67.5409C39.4412 68.4055 39.5865 69.3391 39.8372 70.1783C40.0878 71.0174 40.4039 71.8421 40.7926 72.6231C41.1123 73.2662 41.5736 74.2761 42.4237 74.247C42.4964 74.247 42.5727 74.2107 42.609 74.1417C42.9614 73.4224 42.4165 72.6667 42.1222 72.0274C41.7843 71.2972 41.4865 70.5597 41.2503 69.7859C41.0142 69.0122 40.7817 68.2456 40.6727 67.421C40.5637 66.5963 40.531 65.7644 40.5492 64.9362C40.571 64.0498 39.1905 64.0498 39.1724 64.9362V64.9398Z" fill="#C8D3D9"/>
<path d="M43.5644 73.0627C43.3718 72.5032 43.2483 71.635 43.7496 71.1809C44.1638 70.8031 44.9775 71.0429 45.4643 71.1082C46.0928 71.1918 46.7794 71.2971 47.4115 71.2172C47.7711 71.17 48.0654 71.1228 48.4359 71.1446C48.7556 71.1627 49.0789 71.1809 49.3986 71.2063C50.612 71.2899 51.7745 71.1845 52.937 70.8067C53.4601 70.636 53.9723 70.4253 54.4736 70.2C55.0149 69.9567 55.6034 69.7387 56.0285 69.3173C56.2101 69.1393 56.0176 68.8922 55.7996 68.9249C55.1566 69.0267 54.5681 69.419 53.976 69.6769C53.3257 69.9603 52.6573 70.2073 51.967 70.3708C51.2768 70.5343 50.6047 70.5815 49.9109 70.5561C49.5657 70.5415 49.2243 70.5125 48.8828 70.4798C48.5195 70.4398 48.109 70.4434 47.7711 70.3018C47.1209 70.0329 46.3398 70.0002 45.6387 69.9748C45.032 69.953 44.4036 69.8658 43.8841 70.2473C42.9577 70.9266 42.7833 72.1545 43.1902 73.168C43.281 73.3896 43.6407 73.3025 43.5607 73.0663L43.5644 73.0627Z" fill="#C8D3D9"/>
<path d="M43.4884 73.179C44.9524 73.931 46.5762 73.8765 48.1747 73.7675C48.9666 73.713 49.7477 73.5895 50.536 73.5059C51.3243 73.4224 52.0654 73.3207 52.8246 73.1899C54.3613 72.9247 55.8871 72.536 57.3329 71.9438C58.0195 71.6605 58.7316 71.3771 59.3673 70.992C59.6979 70.7922 60.0212 70.5779 60.3336 70.3527C60.6024 70.1565 60.9367 69.9676 61.0711 69.6515C61.1546 69.4517 61.0166 69.241 60.7914 69.2883C60.439 69.3573 60.1629 69.6515 59.8723 69.8513C59.5816 70.0512 59.3092 70.2219 59.0149 70.3926C58.3646 70.7704 57.7362 71.1337 57.0387 71.4134C55.7018 71.9511 54.2996 72.3107 52.8828 72.5687C52.1562 72.6995 51.4224 72.8048 50.6849 72.8847C49.9475 72.9646 49.2137 72.9646 48.4689 73.0082C46.9395 73.0991 45.2466 73.2843 43.819 72.6159C43.4448 72.4415 43.1106 72.9864 43.4884 73.179Z" fill="#C8D3D9"/>
<path d="M43.306 73.5095C43.7492 73.782 44.1815 74.0508 44.6937 74.1888C45.2059 74.3269 45.7509 74.3705 46.2776 74.4032C46.8516 74.4395 47.4147 74.3814 47.9814 74.3196C48.5808 74.2542 49.1693 74.2143 49.7651 74.1126C50.3609 74.0108 50.8731 73.8074 51.4398 73.6912C52.0065 73.5749 52.5769 73.4805 53.1472 73.3642C53.7176 73.248 54.2843 73.1281 54.8474 72.9937C55.1307 72.9283 55.3996 72.8193 55.6793 72.7321C55.959 72.6449 56.2206 72.594 56.4458 72.4269C56.5693 72.3361 56.5221 72.169 56.3695 72.1509C55.9081 72.0927 55.3124 72.278 54.8546 72.3652C54.3424 72.4633 53.8338 72.5941 53.3252 72.6958C52.7839 72.8048 52.239 72.8919 51.6941 72.9755C51.1165 73.0627 50.5534 73.0373 49.9758 73.0554C48.9114 73.0917 47.8615 73.2661 46.7935 73.2879C45.7908 73.3061 44.7155 73.099 43.8037 72.6631C43.2406 72.3942 42.7647 73.1717 43.3096 73.5095H43.306Z" fill="#C8D3D9"/>
<path d="M46.1613 71.0538C46.1504 71.2972 46.1831 71.5406 46.2122 71.7803C46.2449 72.0383 46.2776 72.2962 46.3175 72.5541L46.5718 74.1271C46.5791 74.1671 46.6445 74.1562 46.6409 74.1162L46.5101 72.5578C46.4665 72.0601 46.3539 71.5515 46.3902 71.0501C46.4011 70.9048 46.1686 70.9048 46.165 71.0501L46.1613 71.0538Z" fill="#C8D3D9"/>
<path d="M49.5508 71.457L49.6961 72.06C49.7434 72.2562 49.7761 72.4705 49.856 72.6594C49.8742 72.6994 49.9032 72.7248 49.9504 72.7212C49.9904 72.7176 50.0267 72.6812 50.0231 72.6376C50.0086 72.4306 49.9395 72.2235 49.8923 72.0201L49.7434 71.4061C49.7143 71.2826 49.5218 71.3335 49.5508 71.4606V71.457Z" fill="#C8D3D9"/>
<path d="M53.0133 70.5161C53.0896 70.8068 53.1804 71.0901 53.2894 71.3699C53.3475 71.5188 53.4092 71.6532 53.4964 71.7876C53.5327 71.8457 53.5727 71.9039 53.609 71.962C53.6526 72.0238 53.6926 72.1 53.7507 72.1473C53.8088 72.1945 53.9106 72.1691 53.9069 72.0819C53.9069 72.0056 53.8742 71.9329 53.8524 71.8566C53.8343 71.7913 53.8161 71.7222 53.7979 71.6568C53.7616 71.5152 53.718 71.3807 53.6708 71.2463C53.5727 70.9702 53.4892 70.6869 53.4201 70.3999C53.3584 70.1347 52.9406 70.2473 53.0096 70.5125L53.0133 70.5161Z" fill="#C8D3D9"/>
<path d="M56.6277 69.0775L57.1072 70.1201C57.1835 70.2909 57.267 70.4507 57.3651 70.6069C57.4632 70.7631 57.5468 70.9593 57.7248 71.032C57.7829 71.0538 57.8374 71.0065 57.8555 70.9593C57.9173 70.7958 57.8265 70.5888 57.7829 70.4362C57.7284 70.2509 57.6666 70.0765 57.594 69.8985L57.1653 68.8559C57.0999 68.6961 56.9473 68.5944 56.773 68.667C56.5986 68.7397 56.5623 68.9213 56.6349 69.0811L56.6277 69.0775Z" fill="#C8D3D9"/>
<path d="M47.9916 78.3484C45.4741 77.5673 43.2436 75.8999 41.7469 73.7347C40.2501 71.5696 39.5454 68.667 39.7561 65.9424C40.1993 60.2389 44.5913 55.6071 50.0514 54.2412C50.8143 54.0486 51.6607 54.0341 52.3909 53.7326C52.7651 53.5764 53.0303 53.3075 53.31 53.0278C53.6261 52.7118 53.9349 52.3921 54.2255 52.0506C55.3589 50.7174 56.3398 49.2969 57.0736 47.7058H56.4088C57.5459 49.4531 57.5822 51.5456 56.6558 53.3911C56.4851 53.7326 56.8702 54.263 57.2443 53.9796L58.6611 52.9043C58.8718 52.7445 59.0862 52.581 59.2969 52.4175C59.4058 52.3339 59.8091 51.9271 59.889 51.9198C59.889 51.858 59.889 51.8617 59.8963 51.9307C59.9072 51.9888 59.9072 52.0433 59.8963 52.1014C59.8854 52.185 59.8527 52.2686 59.8273 52.3485C59.7473 52.61 59.642 52.8643 59.5148 53.1041C59.2678 53.5691 58.9663 54.005 58.6066 54.3901C58.4504 54.5572 58.4432 54.9023 58.6866 55.0113C62.8643 56.8604 64.6334 61.1507 65.2837 65.4229C65.4653 66.6108 65.5198 67.8278 65.2801 69.0121C65.0694 70.0438 64.6552 71.0428 64.1285 71.951C63.104 73.7202 61.6945 75.1333 59.9035 76.136C57.9237 77.2404 55.744 77.5019 53.5244 77.7017C53.3427 77.7199 53.281 77.9851 53.4808 78.0359C55.5079 78.5482 57.6657 77.9996 59.5366 77.1568C61.5238 76.2631 63.1585 74.9117 64.4881 73.1898C66.0248 71.199 66.3881 68.7868 66.1301 66.3384C65.8722 63.8898 65.2946 61.4014 64.1793 59.2072C63.0641 57.013 61.3058 55.1094 58.9953 54.2884L59.1697 54.9496C59.6456 54.361 60.0343 53.7507 60.3358 53.0569C60.5465 52.5773 60.8735 51.9089 60.5175 51.4148C60.0706 50.7936 59.3913 51.3349 58.959 51.651C58.2434 52.1741 57.5313 52.7081 56.8193 53.2349L57.4078 53.8234C58.4468 51.8145 58.2579 49.2206 57.0809 47.3171C56.9392 47.0882 56.5505 47.0482 56.4161 47.3171C55.6968 48.7847 54.8394 50.2306 53.7641 51.473C53.5098 51.7672 53.2555 52.0942 52.9576 52.3448C52.6089 52.6391 52.1657 52.6609 51.7261 52.7045C50.9996 52.7771 50.2948 52.8898 49.5864 53.0641C46.811 53.758 44.1881 55.262 42.27 57.3981C40.3519 59.5341 39.055 62.4513 38.7571 65.4265C38.4592 68.4018 39.1821 71.1663 40.7769 73.6112C42.3717 76.0561 44.9364 78.0505 47.8645 78.817C48.1696 78.8969 48.2931 78.4392 47.9953 78.3447L47.9916 78.3484Z" fill="black"/>
<path d="M48.1879 66.8832C48.1988 66.9632 48.1988 67.0467 48.1879 67.1266L48.2097 66.9523C48.1988 67.0322 48.177 67.1121 48.1443 67.1884L48.2097 67.0286C48.2097 67.0286 48.1988 67.0576 48.1915 67.0722H49.3467C49.3322 67.0395 49.3104 67.0068 49.2995 66.9741L49.3649 67.1339C49.3395 67.0758 49.3249 67.0177 49.3177 66.9559L49.3395 67.1303C49.3322 67.0685 49.3322 67.0068 49.3395 66.945L49.3177 67.1157C49.3249 67.0758 49.3322 67.0322 49.3467 66.9922L49.2814 67.1448C49.2814 67.1448 49.2959 67.1157 49.3032 67.1048L49.2051 67.232C49.2051 67.232 49.2196 67.2138 49.2305 67.2066L49.1034 67.3047C49.1578 67.2683 49.2051 67.2284 49.2523 67.1848L49.1251 67.2829C49.1251 67.2829 49.1324 67.2792 49.136 67.2756L48.9907 67.3373C48.9907 67.3373 49.0016 67.3373 49.0053 67.3337L48.8454 67.3555C48.8454 67.3555 48.8563 67.3555 48.8636 67.3555L48.7037 67.3337C48.7037 67.3337 48.7146 67.3337 48.7219 67.3373L48.5802 67.2792H48.5875L48.4676 67.192C48.4676 67.192 48.4785 67.2066 48.4858 67.2138L48.395 67.0976C48.4168 67.1266 48.4349 67.1593 48.4494 67.192L48.3913 67.0576C48.4059 67.0939 48.4168 67.1339 48.424 67.1702L48.4059 67.0249C48.4059 67.0504 48.4131 67.0794 48.4095 67.1048C48.4095 67.2138 48.4204 67.3337 48.4858 67.4245L48.5657 67.5299C48.6129 67.5807 48.6674 67.6171 48.7328 67.6389C48.7728 67.6607 48.8164 67.6752 48.8636 67.6752C48.9326 67.6897 49.0016 67.6861 49.0707 67.6643C49.1615 67.628 49.2341 67.5989 49.3068 67.5263C49.3685 67.4681 49.394 67.4209 49.423 67.3482C49.4376 67.3083 49.4557 67.272 49.4666 67.232C49.4775 67.192 49.4812 67.1484 49.4884 67.1085C49.4957 67.0685 49.503 67.0249 49.503 66.9813C49.503 66.8941 49.4921 66.807 49.4739 66.7234C49.4703 66.7052 49.4666 66.6871 49.4594 66.6725C49.4376 66.6108 49.4121 66.5454 49.3794 66.4873L49.4376 66.6253C49.4121 66.5636 49.3976 66.5018 49.3613 66.4473C49.2995 66.3529 49.2341 66.2875 49.1397 66.2257C49.1106 66.2075 49.0997 66.2039 49.0525 66.1858C49.0234 66.1749 48.9944 66.1603 48.9653 66.1494C48.9072 66.1422 48.8491 66.1349 48.7909 66.1276L48.6238 66.1494C48.5948 66.1531 48.5657 66.1676 48.5403 66.1821C48.5112 66.193 48.4821 66.2039 48.4567 66.2184C48.4095 66.2475 48.3223 66.3202 48.315 66.3274C48.2533 66.3856 48.1988 66.4546 48.1625 66.5309C48.1261 66.6108 48.0825 66.7016 48.0644 66.7924C48.0462 66.8832 48.0317 66.9777 48.0244 67.0722C48.0244 67.1157 48.0244 67.1557 48.0244 67.1993C48.0353 67.2937 48.0426 67.3918 48.068 67.4827C48.0934 67.5735 48.1298 67.6716 48.1806 67.7551L48.286 67.8895L48.4204 67.9949L48.5802 68.0639C48.6674 68.093 48.7582 68.0966 48.8454 68.0748C48.9072 68.0748 48.9617 68.0603 49.0125 68.0276C49.0707 68.013 49.1179 67.984 49.1615 67.9404C49.2123 67.9113 49.2523 67.8714 49.2814 67.8205C49.3395 67.7551 49.3794 67.6788 49.4012 67.5916C49.4521 67.4536 49.4703 67.301 49.4775 67.1557C49.4775 67.1085 49.4775 67.0613 49.4775 67.014C49.4703 66.9159 49.4557 66.8142 49.4339 66.7161C49.4158 66.6326 49.3758 66.5599 49.3177 66.4982C49.2741 66.4291 49.2123 66.3747 49.136 66.3347L48.9835 66.2693C48.8999 66.2439 48.8127 66.2402 48.7292 66.2584C48.671 66.2584 48.6166 66.2729 48.5657 66.302C48.4858 66.3274 48.4168 66.371 48.3586 66.4364L48.2569 66.5672C48.1988 66.6689 48.1697 66.7743 48.1697 66.8905L48.1879 66.8832Z" fill="black"/>
<path d="M53.3976 66.9414C53.3976 66.9414 53.4049 66.9741 53.4085 66.9923L53.3903 66.8579C53.3903 66.8833 53.3903 66.9087 53.3903 66.9305L53.4085 66.7925C53.4049 66.8216 53.3976 66.847 53.3867 66.8724L53.4412 66.7453C53.4303 66.7707 53.4158 66.7961 53.4012 66.8179L53.4848 66.7089C53.4848 66.7089 53.4775 66.7162 53.4739 66.7198L53.5829 66.6363H53.5756L53.7028 66.5854H53.6955L53.8372 66.5673C53.8372 66.5673 53.8263 66.5673 53.8226 66.5673L53.9679 66.5854H53.9607L54.0915 66.6363H54.0878L54.1968 66.7162H54.1932L54.2767 66.8216C54.2767 66.8216 54.2658 66.8034 54.2622 66.7961L54.3167 66.9269C54.3167 66.9269 54.3094 66.9015 54.3058 66.8869L54.324 67.0323C54.3203 66.9705 54.3167 66.9087 54.3167 66.847C54.3167 66.7889 54.3058 66.7307 54.3131 66.6762L54.2949 66.8179C54.2949 66.8179 54.2985 66.7961 54.3022 66.7852L54.2477 66.9124C54.2477 66.9124 54.2549 66.8978 54.2586 66.8942L54.175 66.9996H54.1786L54.0733 67.0759C54.0733 67.0759 54.0806 67.0686 54.0842 67.0686L53.9607 67.1231H53.9679L53.8299 67.1412C53.8299 67.1412 53.8408 67.1412 53.8444 67.1412L53.7064 67.1231H53.7136L53.5901 67.0722C53.5901 67.0722 53.5974 67.0759 53.6047 67.0795L53.4993 66.9996C53.4993 66.9996 53.5066 67.0068 53.5102 67.0105L53.4303 66.9051C53.4303 66.9051 53.4412 66.9233 53.4485 66.9342L53.3976 66.8107C53.4121 66.8434 53.4158 66.8761 53.4194 66.9124L53.4012 66.7743C53.4085 66.8434 53.4121 66.9124 53.4049 66.9814L53.423 66.847C53.4158 66.8833 53.4012 66.9196 53.3867 66.956L53.4376 66.8325C53.423 66.8688 53.4049 66.9087 53.3831 66.9414L53.4666 66.8325C53.4666 66.8325 53.4376 66.8615 53.4194 66.876L54.3058 66.9887C54.3058 66.9887 54.3022 66.9778 54.2985 66.9741L54.3567 67.1122C54.3167 67.0105 54.284 66.916 54.2004 66.8397C54.1568 66.7998 54.106 66.7671 54.0588 66.7344L54.1714 66.8216C54.1496 66.8034 54.1278 66.7852 54.1024 66.7671C54.066 66.7307 54.0261 66.7089 53.9788 66.6944C53.957 66.6799 53.9316 66.669 53.9062 66.6653L53.7609 66.6472C53.6846 66.6472 53.6156 66.6617 53.5502 66.6944C53.5029 66.7089 53.463 66.7307 53.4303 66.7634C53.3722 66.8034 53.3249 66.8543 53.2886 66.916C53.2704 66.9414 53.2378 67.025 53.2305 67.0541C53.2305 67.0504 53.2087 67.163 53.2123 67.2139V67.2284C53.216 67.272 53.2232 67.3483 53.2378 67.3919L53.2959 67.53V67.5372L53.3903 67.6535L53.5066 67.7443C53.5574 67.7733 53.6192 67.7951 53.6737 67.8169C53.7754 67.8424 53.8735 67.8424 53.9752 67.8169C54.0479 67.7988 54.1133 67.7661 54.1677 67.7152C54.2295 67.6753 54.2767 67.6244 54.3131 67.5554C54.3639 67.4682 54.3893 67.3737 54.3893 67.272C54.3893 67.2502 54.3893 67.2321 54.3893 67.2103L54.3712 67.3519C54.4002 67.2284 54.4111 67.1013 54.4184 66.9778L54.4002 67.1122C54.4184 67.0141 54.4329 66.916 54.4329 66.8179C54.4329 66.7925 54.4329 66.7634 54.4329 66.738C54.4329 66.7053 54.4257 66.669 54.422 66.6363C54.4184 66.6036 54.4148 66.5673 54.4039 66.5346C54.3893 66.4873 54.3675 66.4329 54.3421 66.3893C54.3167 66.3457 54.284 66.3021 54.2513 66.2657C54.2186 66.233 54.1714 66.1967 54.1314 66.1713C54.0588 66.1241 53.9353 66.0914 53.8517 66.095C53.7028 66.0986 53.5611 66.1495 53.4521 66.2548C53.4158 66.2912 53.3831 66.3275 53.3576 66.3747C53.3322 66.422 53.3104 66.4728 53.2959 66.52C53.2668 66.6109 53.2668 66.7126 53.2632 66.807L53.2559 66.9959C53.2559 66.9959 53.2559 67.0214 53.2559 67.0359C53.2559 67.0432 53.2559 67.0468 53.2559 67.0504C53.2559 67.0868 53.2668 67.163 53.2777 67.1994C53.2777 67.2103 53.2813 67.2175 53.285 67.2284C53.3249 67.3374 53.314 67.3193 53.3431 67.3665C53.3649 67.3992 53.4049 67.4537 53.4339 67.4827C53.4594 67.5082 53.5175 67.5517 53.5502 67.5735C53.5901 67.599 53.71 67.6389 53.6846 67.6317C53.7136 67.6389 53.6664 67.6317 53.7609 67.6426C53.779 67.6426 53.8154 67.6535 53.8408 67.6535C53.8553 67.6535 53.9716 67.6389 53.9861 67.6353C54.0188 67.6244 54.0915 67.5953 54.1205 67.5772C54.1568 67.559 54.3022 67.421 54.2368 67.49C54.2658 67.4609 54.3022 67.4101 54.3276 67.3774C54.3639 67.3193 54.393 67.2502 54.4075 67.1848C54.422 67.1303 54.4257 67.0722 54.4329 67.0141C54.4329 66.9996 54.4329 66.9814 54.4329 66.9669C54.4329 66.9087 54.422 66.8543 54.4111 66.7998C54.4111 66.7852 54.4075 66.7707 54.4039 66.7598C54.3966 66.7235 54.3784 66.6908 54.3639 66.6581C54.3494 66.6254 54.3385 66.5927 54.3203 66.56C54.2876 66.5019 54.2477 66.4546 54.1932 66.4183C54.146 66.3747 54.0878 66.3457 54.0224 66.3275L53.888 66.3093C53.819 66.3093 53.7536 66.3202 53.6955 66.3529C53.6519 66.3638 53.6156 66.3856 53.5865 66.4183C53.532 66.4546 53.4884 66.5019 53.4594 66.56C53.3976 66.6799 53.3722 66.8143 53.4085 66.9451L53.3976 66.9414Z" fill="black"/>
<path d="M52.1772 76.9243C51.3017 77.0733 50.3898 77.0224 49.5071 76.9933C48.6243 76.9643 47.8287 76.8953 47.0913 76.463C45.9397 75.7909 44.7554 75.137 44.0107 73.9854C43.3241 72.921 42.3832 71.1337 43.8363 70.2908C44.5047 69.9021 45.2785 69.9239 46.016 70.0365C46.8624 70.1637 47.6943 70.3054 48.548 70.3744C50.2482 70.5088 51.9374 70.3926 53.5794 69.9021C55.2214 69.4117 56.769 68.6125 58.3892 68.0494C60.0095 67.4863 61.132 68.9395 60.9358 70.4325C60.7324 72.0055 59.5263 73.2261 58.342 74.1634C56.9761 75.246 55.4576 76.0089 53.7683 76.4521C52.911 76.6773 52.05 76.8044 51.1709 76.888C50.3499 76.9643 49.5216 76.9352 48.7079 77.0769C48.5553 77.1023 48.5916 77.3058 48.7079 77.3494C50.2627 77.9197 52.2426 77.5201 53.7865 77.0696C55.3304 76.6192 56.9579 75.8345 58.3565 74.9009C59.0722 74.425 59.7515 73.8546 60.3328 73.2189C60.914 72.5831 61.4335 71.9438 61.6479 71.1119C62.0584 69.5207 61.6479 67.7261 60.0131 67.0359C59.1667 66.6762 58.3347 66.9015 57.521 67.232C56.6128 67.599 55.7337 68.0349 54.8364 68.4309C52.9909 69.2446 50.9784 69.6042 48.9658 69.5389C47.1821 69.4807 45.2531 68.6016 43.5202 69.3863C41.7874 70.171 41.8274 72.1036 42.4958 73.5749C43.2005 75.1261 44.6391 76.5501 46.2412 77.135C47.084 77.4438 48.0975 77.5019 48.9876 77.5528C50.0883 77.6145 51.2217 77.6327 52.3007 77.3712C52.5949 77.2985 52.4678 76.8735 52.1772 76.9207V76.9243Z" fill="black"/>
<path d="M43.2801 72.7721C43.9849 72.9646 44.7005 73.0954 45.4271 73.1608C46.1537 73.2261 46.8984 73.2407 47.5813 73.0518C47.6467 73.0336 47.6286 72.9464 47.5668 72.9392C46.873 72.8701 46.1646 72.8956 45.4707 72.8374C44.7768 72.7793 44.0575 72.6449 43.3709 72.456C43.1675 72.4015 43.0803 72.7176 43.2838 72.7721H43.2801Z" fill="black"/>
<path d="M47.4284 79.0604C47.5265 79.7724 47.5592 80.4917 47.5483 81.2074C47.541 81.567 47.5192 81.9267 47.4902 82.2863C47.4611 82.6459 47.4466 83.0601 47.5556 83.3943C47.6391 83.6522 47.9407 83.6595 48.0896 83.4633C48.3112 83.1727 48.4165 82.7295 48.4601 82.3735C48.511 81.9848 48.5401 81.5961 48.5582 81.2074C48.5946 80.4408 48.5655 79.678 48.4856 78.9151C48.4529 78.5954 48.2204 78.3375 47.8753 78.3847C47.5301 78.4319 47.3848 78.7371 47.4284 79.0568V79.0604Z" fill="black"/>
<path d="M55.1778 78.2285C55.0289 78.9986 54.9453 79.7724 54.9453 80.5571C54.9453 80.9494 54.9562 81.349 55.0543 81.7305C55.1015 81.9121 55.1742 82.0865 55.2432 82.2609C55.3013 82.4098 55.3413 82.5697 55.4503 82.6859C55.5048 82.744 55.6065 82.7295 55.6464 82.6605C55.73 82.5224 55.7336 82.3444 55.7663 82.1846C55.799 82.0247 55.8353 81.8831 55.8608 81.7305C55.9225 81.3563 55.9225 80.9749 55.9407 80.597C55.9698 79.8959 56.0352 79.1875 56.1405 78.4937C56.1805 78.2285 56.0751 77.956 55.7918 77.8797C55.5484 77.8107 55.2287 77.9633 55.1778 78.2285Z" fill="black"/>
<path d="M47.5925 82.8748C44.7371 84.5641 41.8563 86.2133 39.0264 87.9426C37.8421 88.6655 36.7123 89.4901 35.8731 90.609C34.9867 91.7897 34.4418 93.1919 33.915 94.5615C32.7671 97.5367 31.8807 100.606 31.1359 103.705C30.7618 105.26 30.4094 106.815 30.0788 108.381C29.7482 109.946 29.5048 111.53 29.1234 113.078C28.3242 116.322 27.7211 119.624 27.0381 122.894C26.3516 126.174 25.6977 129.476 25.3017 132.804C25.2145 133.53 25.0873 134.293 25.4034 134.984C25.6613 135.554 26.1626 135.932 26.7584 136.099C28.1389 136.484 29.454 135.579 30.6092 134.958C33.3083 133.509 35.8404 131.765 38.2707 129.901C40.7011 128.038 43.0079 126.047 45.3256 124.056C47.8722 121.866 50.4224 119.679 52.9726 117.492C53.2923 117.219 53.612 116.947 53.9281 116.671C54.2441 116.395 54.4911 116.053 54.7527 115.719C54.789 115.672 54.7454 115.595 54.6837 115.628C53.3105 116.395 52.1662 117.521 50.971 118.534C49.7758 119.548 48.5443 120.59 47.3309 121.619C45.0132 123.58 42.71 125.56 40.3487 127.475C37.9874 129.389 35.706 131.147 33.203 132.735C31.9533 133.527 30.6564 134.373 29.2796 134.925C28.6366 135.183 27.9609 135.376 27.2888 135.111C26.7221 134.889 26.4351 134.464 26.4605 133.861C26.4896 133.12 26.6385 132.372 26.7512 131.638C26.8747 130.839 26.9946 130.039 27.1217 129.24C27.3796 127.642 27.6703 126.047 27.95 124.452C28.5131 121.266 29.0144 118.066 29.5411 114.872C30.5402 108.853 31.6881 102.837 33.6753 97.0536C34.6198 94.3072 35.5643 91.2993 37.9583 89.4647C39.1208 88.5747 40.4068 87.8517 41.6601 87.0997C43.0333 86.2751 44.4065 85.4505 45.7797 84.6295L47.8795 83.3689C48.1992 83.1763 47.9085 82.6786 47.5888 82.8675L47.5925 82.8748Z" fill="black"/>
<path d="M38.8152 97.1663C38.7426 97.5514 38.6154 97.9146 38.5391 98.2961C38.4592 98.7066 38.3975 99.1243 38.3284 99.5385C38.1976 100.309 38.0741 101.079 37.9688 101.853C37.7472 103.462 37.5292 105.075 37.3076 106.684C36.8753 109.845 36.4539 113.009 36.0034 116.166L35.2224 121.615C35.1534 122.087 35.8799 122.287 35.9453 121.815C36.8063 115.403 37.7072 108.995 38.6118 102.586C38.7353 101.718 38.8552 100.854 38.946 99.9853L39.0913 98.6448C39.1422 98.1653 39.1167 97.693 39.1603 97.2135C39.1785 97.0173 38.8515 96.9701 38.8152 97.1663Z" fill="black"/>
<path d="M34.3505 123.42C35.7855 122.236 37.0969 120.885 38.4556 119.613C39.8142 118.342 41.1874 117.07 42.5461 115.792C45.238 113.252 47.9517 110.735 50.6835 108.239C51.4464 107.538 52.2129 106.84 52.9795 106.146C53.3754 105.787 53.7678 105.431 54.1638 105.071C54.5343 104.737 54.9157 104.432 55.1809 104.003C55.3008 103.807 55.0683 103.618 54.8867 103.709C54.0947 104.094 53.4408 104.871 52.7942 105.456C52.1149 106.074 51.4355 106.691 50.7562 107.309C49.3794 108.566 48.0062 109.83 46.6366 111.098C43.9193 113.612 41.2201 116.14 38.5609 118.716C37.057 120.173 35.4658 121.586 34.0817 123.155C33.9219 123.337 34.1616 123.573 34.3469 123.42H34.3505Z" fill="black"/>
<path d="M59.017 121.379C58.4394 121.48 57.6765 121.615 57.1716 121.226C56.8882 121.008 56.8192 120.674 56.7829 120.336C56.7356 119.882 56.7102 119.424 56.6739 118.97C56.5213 117.154 56.3796 115.337 56.2488 113.521C56.1181 111.705 56.0563 109.943 55.9909 108.155C55.9255 106.368 55.8347 104.577 55.802 102.79C55.7911 102.147 55.842 101.5 56.3578 101.05C56.8156 100.65 57.444 100.465 58.018 100.305C59.6891 99.8399 61.4147 99.5711 63.1475 99.4694C64.0085 99.4185 64.8767 99.4113 65.7377 99.4512C66.4679 99.4839 67.3107 99.3822 68.0045 99.6401C68.633 99.8726 68.7747 100.548 68.8728 101.14C69.0072 101.969 69.0544 102.822 69.1307 103.662C69.3124 105.692 69.454 107.73 69.5557 109.768C69.6066 110.767 69.5812 111.821 69.7338 112.813C69.8936 113.863 69.9953 114.909 70.0425 115.977C70.0571 116.34 70.5947 116.344 70.6093 115.977C70.6528 114.945 70.6928 113.91 70.8381 112.889C70.9834 111.868 70.8745 110.844 70.8454 109.859C70.78 107.821 70.6746 105.787 70.5293 103.752C70.4603 102.797 70.4058 101.834 70.2896 100.883C70.1915 100.076 69.9808 99.2405 69.3559 98.6738C68.7311 98.1071 67.8374 97.9472 66.9983 97.8201C66.0101 97.6675 65.0075 97.6494 64.0085 97.6712C62.0322 97.7147 60.0524 97.9872 58.1379 98.4776C56.514 98.8918 54.6831 99.473 54.189 101.286C53.942 102.179 54.0583 103.131 54.12 104.039C54.189 105.053 54.2653 106.077 54.3998 107.084C54.6722 109.1 54.8756 111.142 55.0682 113.165C55.2862 115.457 55.4932 117.757 55.7838 120.046C55.8856 120.848 56.0527 121.713 56.8809 122.069C57.6039 122.378 58.4648 122.222 59.1987 122.029C59.6237 121.916 59.4384 121.31 59.0207 121.382L59.017 121.379Z" fill="black"/>
<path d="M74.0607 132.226C72.9963 129.364 72.6185 126.33 72.2952 123.311C72.1463 121.92 71.8738 120.391 72.1753 119.003C72.357 118.156 73.1489 116.616 71.8992 116.195C71.2562 115.977 70.3953 116.158 69.7559 116.304C69.2037 116.431 68.1647 116.547 68.063 117.241C68.0557 117.281 68.063 117.328 68.1066 117.35C68.3972 117.499 68.6261 117.444 68.9131 117.321C69.3236 117.147 69.7341 117.009 70.17 116.925C70.606 116.841 71.0383 116.798 71.4669 116.82C71.9465 116.845 72.0155 117.157 71.9065 117.561C71.8084 117.909 71.6304 118.229 71.5033 118.567C71.3543 118.963 71.2671 119.373 71.2054 119.791C71.0891 120.612 71.1254 121.411 71.2054 122.236C71.5468 125.687 71.9319 129.2 73.1707 132.466C73.3778 133.011 74.2642 132.778 74.0571 132.223L74.0607 132.226Z" fill="black"/>
<path d="M68.7861 118.97C67.7144 116.318 66.9515 113.561 66.4284 110.749C66.3231 110.19 66.3049 109.445 65.6256 109.296C65.1279 109.187 64.5248 109.416 64.1325 109.71C63.1734 110.426 62.9191 111.665 63.0427 112.798C63.1226 113.539 63.3151 114.269 63.5149 114.989C63.7293 115.766 63.9327 116.602 64.3468 117.295C64.4558 117.481 64.7137 117.35 64.6774 117.154C64.543 116.369 64.2306 115.613 64.0344 114.843C63.8491 114.124 63.6566 113.379 63.6094 112.635C63.5658 111.941 63.6602 111.221 64.1252 110.677C64.3287 110.437 64.6048 110.233 64.9099 110.153C65.0371 110.121 65.2078 110.077 65.3241 110.172C65.4294 110.259 65.4294 110.626 65.4512 110.756C65.9634 113.688 66.9043 116.536 68.114 119.25C68.2811 119.628 68.9459 119.355 68.7897 118.967L68.7861 118.97Z" fill="black"/>
<path d="M63.5763 116.514C62.1123 117.83 60.6338 119.13 59.1952 120.471C58.5594 121.063 58.5013 121.633 58.7156 122.45C58.93 123.268 59.2606 124.06 59.6275 124.823C60.3867 126.392 61.3748 127.838 62.3593 129.273C63.3438 130.708 64.2012 132.056 65.1856 133.403C66.1701 134.751 67.2091 136.07 68.3098 137.327C69.4106 138.584 70.6421 139.688 71.7646 140.909C72.8872 142.129 74.2422 143.39 75.946 143.106C76.7706 142.968 77.519 142.518 78.1947 142.046C78.7904 141.628 79.4407 141.188 79.8221 140.549C80.2363 139.852 79.8621 139.143 79.8221 138.406C79.7713 137.476 79.6623 136.517 79.4952 135.598C79.3281 134.678 79.1537 133.698 79.0266 132.735C78.8994 131.772 78.8413 130.879 78.7069 129.956C78.1547 126.167 77.4717 122.4 76.8905 118.618C76.3092 114.825 75.6553 111.058 74.8743 107.302C74.482 105.413 74.0751 103.531 73.6537 101.649C73.2323 99.7673 72.6583 98.0672 72.2442 96.2508C71.8663 94.5869 71.2851 93.0357 70.2025 91.6952C69.12 90.3547 67.7431 89.5156 66.4026 88.5674C65.6652 88.0443 64.9241 87.5248 64.1794 87.0126C63.8052 86.7583 63.4237 86.5185 63.035 86.2896C62.6173 86.0463 62.145 85.9191 61.7309 85.6721C60.9643 85.218 60.2015 84.7602 59.4131 84.3425C58.7701 84.0046 58.1162 83.674 57.5168 83.2563C56.9174 82.8385 56.4488 82.3481 56.14 81.6978C55.8312 81.0475 54.8685 81.6179 55.1882 82.2536C55.8312 83.5251 57.0736 84.2698 58.3051 84.8838C59.0026 85.2325 59.7038 85.5776 60.3831 85.9591C60.7609 86.1698 61.1641 86.3696 61.502 86.642C61.8398 86.9145 62.1232 87.1869 62.4647 87.4267C63.8597 88.4148 65.2946 89.3412 66.6896 90.3329C67.3072 90.7725 67.8412 91.2884 68.4152 91.7824C68.9892 92.2765 69.545 92.8396 69.9737 93.4789C70.8928 94.8412 71.4086 96.516 71.7174 98.118C71.8918 99.0226 72.0117 99.9417 72.2224 100.839C72.4331 101.736 72.6292 102.572 72.829 103.436C73.6428 106.989 74.373 110.564 75.1685 114.12C75.9569 117.652 76.6507 121.19 77.261 124.757C77.5662 126.541 77.8568 128.325 78.1402 130.108C78.4235 131.892 78.805 133.727 78.9576 135.576C79.0302 136.448 79.1574 137.341 79.3245 138.199C79.4116 138.642 79.5061 139.001 79.2881 139.419C79.1247 139.735 78.9212 140.066 78.6633 140.313C78.1438 140.814 77.4499 141.221 76.8069 141.544C76.1022 141.9 75.3429 142.071 74.6273 141.65C73.9734 141.265 73.4139 140.763 72.8036 140.317C72.1424 139.83 71.5285 139.343 70.9327 138.773C69.7884 137.679 68.7058 136.52 67.6777 135.318C65.5998 132.884 63.718 130.283 62.076 127.536C61.2186 126.105 60.3068 124.674 59.78 123.079C59.6565 122.697 59.5367 122.305 59.4713 121.913C59.3841 121.382 59.7401 121.175 60.1034 120.856C60.8081 120.238 61.502 119.602 62.1995 118.974L64.2266 117.15C64.6625 116.758 64.0195 116.118 63.5836 116.507L63.5763 116.514Z" fill="black"/>
<path d="M37.5403 129.763C38.4195 143.441 39.0334 157.133 39.5347 170.825C40.0324 184.422 40.4102 198.023 40.788 211.625C40.8934 215.421 40.9988 219.217 41.1077 223.01L41.2712 228.797L41.3548 231.692C41.3693 232.175 41.3693 232.658 41.3947 233.138C41.4202 233.617 41.5727 234.035 41.6962 234.478C41.7943 234.827 42.3501 234.856 42.4301 234.478C42.51 234.101 42.6299 233.723 42.6589 233.345C42.6916 232.942 42.6335 232.509 42.619 232.106L42.5282 229.418L42.3574 224.248C42.2448 220.87 42.1322 217.488 42.0159 214.109C41.7871 207.327 41.5291 200.548 41.3221 193.766C40.9043 180.139 40.472 166.509 39.8617 152.89C39.5166 145.177 39.117 137.465 38.6302 129.76C38.5866 129.062 37.4967 129.058 37.5403 129.76V129.763Z" fill="black"/>
<path d="M48.1188 129.607C46.9417 136.466 46.9526 143.426 47.1052 150.361C47.2578 157.296 47.4649 164.551 47.6901 171.646C48.1369 185.784 48.7145 199.916 49.4084 214.044C49.6009 217.989 49.8044 221.931 50.0187 225.876C50.1277 227.885 50.2367 229.89 50.3493 231.899C50.4619 233.908 50.5309 235.902 50.8397 237.875C50.956 238.605 52.0676 238.395 52.0894 237.704C52.1475 235.913 51.9877 234.119 51.8823 232.328C51.777 230.537 51.6644 228.815 51.559 227.06C51.3447 223.511 51.1376 219.962 50.9378 216.412C50.5455 209.387 50.1822 202.357 49.848 195.324C49.1832 181.262 48.631 167.195 48.2059 153.126C47.9698 145.366 47.7083 137.526 48.9252 129.829C49.0088 129.302 48.2059 129.069 48.1151 129.607H48.1188Z" fill="black"/>
<path d="M47.6543 130.192C50.0919 129.444 52.6167 129.087 55.1633 129.098C56.4348 129.102 57.7062 129.204 58.9595 129.411C60.1475 129.607 61.3354 129.992 62.5415 129.818C62.6686 129.8 62.694 129.622 62.6141 129.542C61.695 128.644 60.3436 128.412 59.1194 128.197C57.8116 127.969 56.4856 127.834 55.1596 127.809C52.5041 127.754 49.8412 128.165 47.3092 128.957C46.5245 129.204 46.8587 130.439 47.6507 130.196L47.6543 130.192Z" fill="black"/>
<path d="M59.8747 129.444C60.8556 143.604 61.7456 157.776 62.9154 171.922C64.0815 186.01 65.4692 200.069 66.9478 214.128C67.3619 218.051 67.7797 221.974 68.2047 225.898C68.4191 227.896 68.6298 229.894 68.8586 231.888C69.0875 233.883 69.1565 235.892 69.7341 237.784C69.8867 238.282 70.5806 238.162 70.6133 237.664C70.7404 235.881 70.4207 234.09 70.2282 232.317C70.0357 230.544 69.8286 228.75 69.6251 226.969C69.2292 223.475 68.8332 219.98 68.4445 216.485C67.6671 209.496 66.926 202.503 66.2285 195.502C64.8299 181.447 63.631 167.384 62.6611 153.293C62.1162 145.344 61.5422 137.396 60.9864 129.447C60.9355 128.739 59.8239 128.732 59.8747 129.447V129.444Z" fill="black"/>
<path d="M70.9299 141.141C71.4421 153.58 72.0343 166.015 72.6301 178.446C73.2259 190.878 74.0142 203.302 74.8606 215.722C75.0967 219.188 75.3183 222.657 75.5944 226.123C75.7361 227.889 75.8742 229.654 76.0231 231.416C76.0994 232.299 76.1829 233.182 76.2629 234.061C76.3028 234.493 76.3573 234.925 76.459 235.347C76.5535 235.732 76.7351 236.088 76.8913 236.451C76.9785 236.651 77.2873 236.582 77.3382 236.393C77.5271 235.666 77.6288 235.005 77.5997 234.25C77.567 233.432 77.498 232.611 77.4435 231.794C77.3418 230.217 77.2219 228.644 77.1093 227.068C76.8913 223.98 76.6516 220.892 76.4191 217.804C75.9577 211.628 75.529 205.449 75.1113 199.266C74.283 186.903 73.4365 174.537 72.8153 162.164C72.463 155.157 72.1469 148.149 71.8563 141.141C71.8309 140.545 70.9009 140.542 70.9263 141.141H70.9299Z" fill="black"/>
<path d="M69.4796 235.408C68.9383 236.665 68.5787 237.988 68.1428 239.281C67.7068 240.574 67.26 241.748 66.9112 243.008C66.6569 243.924 66.5407 245.061 67.2563 245.813C68.0483 246.645 69.545 246.67 70.6094 246.757C73.2323 246.964 75.8842 246.775 78.4817 246.376C79.5098 246.22 80.7413 246.14 81.5623 245.431C82.5068 244.618 82.4378 243.451 82.0236 242.376C81.4969 241.003 80.9084 239.652 80.3344 238.3C80.0292 237.577 79.7604 236.825 79.4189 236.12C79.0774 235.416 78.5761 234.867 78.2165 234.21C78.1438 234.079 77.9367 234.17 77.9767 234.311C78.1402 234.889 78.2346 235.459 78.3436 236.051C78.4526 236.644 78.7251 237.181 78.943 237.726C79.3753 238.801 79.7822 239.891 80.229 240.959C80.447 241.482 80.665 242.006 80.8829 242.529C81.0609 242.965 81.3697 243.582 81.1663 244.058C81.0137 244.414 80.5742 244.512 80.2399 244.614C79.7713 244.756 79.2881 244.836 78.805 244.923C76.5599 245.322 74.2931 245.573 72.008 245.526C71.4268 245.515 70.8419 245.482 70.2607 245.431C69.7339 245.384 69.1745 245.377 68.6586 245.25C67.725 245.021 67.8994 244.058 68.1064 243.335C68.4588 242.111 68.8729 240.898 69.2471 239.677C69.6431 238.387 70.1299 237.119 70.4169 235.801C70.5331 235.27 69.723 234.849 69.4833 235.408H69.4796Z" fill="black"/>
<path d="M41.8242 233.367C41.7443 234.373 41.6752 235.379 41.6244 236.386C41.599 236.872 41.5772 237.356 41.5844 237.846C41.5844 238.097 41.5881 238.834 41.9622 238.838C42.3364 238.841 42.3655 238.093 42.3836 237.846C42.42 237.359 42.4345 236.872 42.4563 236.386C42.4963 235.379 42.5507 234.373 42.6234 233.367C42.6597 232.855 41.8714 232.862 41.8278 233.367H41.8242Z" fill="black"/>
<path d="M41.5438 237.93C41.3731 238.238 41.1333 238.493 40.9553 238.794C40.81 239.041 40.7046 239.325 40.5811 239.582C40.2796 240.218 40.0217 240.868 39.7565 241.522C39.2697 242.714 38.8011 243.916 38.3433 245.119C38.1254 245.693 37.8529 246.289 38.0672 246.91C38.2416 247.411 38.6884 247.796 39.128 248.069C40.018 248.621 41.1369 248.744 42.1614 248.744C43.4183 248.744 44.6789 248.643 45.9322 248.585C47.2473 248.523 48.566 248.476 49.8811 248.392C50.5386 248.348 51.1961 248.294 51.8537 248.254C52.3405 248.225 52.8491 248.214 53.3141 248.047C54.4584 247.64 54.7381 246.561 54.3022 245.497C53.7791 244.218 53.147 242.99 52.6529 241.697C52.3986 241.032 52.1806 240.353 51.9227 239.688C51.6648 239.023 51.2906 238.42 51.0109 237.762C50.9418 237.599 50.6549 237.679 50.673 237.853C50.7311 238.398 50.7348 238.954 50.8111 239.499C50.8874 240.044 51.069 240.585 51.2434 241.112C51.5812 242.14 51.959 243.154 52.3732 244.149C52.5802 244.643 52.7946 245.133 53.0271 245.62C53.1724 245.929 53.5175 246.507 53.147 246.775C52.9072 246.95 52.493 246.939 52.2097 246.953C51.6103 246.982 51.0145 246.99 50.4151 247.008C48.0792 247.07 45.747 247.226 43.4183 247.346C42.521 247.393 41.5693 247.484 40.6937 247.251C40.3196 247.153 39.9563 246.986 39.6693 246.721C39.5531 246.616 39.4586 246.532 39.4513 246.376C39.4404 246.121 39.6511 245.744 39.7383 245.508C40.1779 244.298 40.632 243.095 41.1006 241.897C41.3222 241.326 41.5584 240.759 41.7654 240.182C41.8708 239.884 42.0088 239.582 42.0887 239.277C42.1759 238.936 42.1941 238.591 42.3031 238.253C42.4448 237.806 41.7727 237.523 41.5475 237.933L41.5438 237.93Z" fill="black"/>
<path d="M76.8217 88.9925C75.7501 89.185 74.8564 89.621 74.119 90.442C73.3815 91.263 72.8402 92.3092 72.8184 93.3845C72.793 94.5325 73.2398 95.6114 73.97 96.4833C74.8019 97.4823 75.9245 97.9618 77.1741 98.2089C78.4238 98.4559 79.619 98.5031 80.7306 97.8565C81.7224 97.2825 82.3036 96.3634 82.6197 95.2845C83.2482 93.1375 82.4344 90.7689 80.5962 89.4648C80.0913 89.1051 79.55 88.76 78.9506 88.5929C78.3512 88.4258 77.7372 88.5202 77.1124 88.6147C75.9644 88.7927 74.4168 89.225 73.8974 90.373C73.7993 90.5946 74.0063 90.8416 74.2388 90.7144C75.0889 90.2531 75.7428 89.6028 76.7128 89.3739C77.6282 89.156 78.5655 89.4648 79.47 89.6319C80.3746 89.799 81.2138 90.7617 81.657 91.5318C82.1365 92.3637 82.3618 93.3627 82.2201 94.3182C82.0784 95.2736 81.5553 96.011 80.8868 96.6322C80.1276 97.3406 79.292 97.6095 78.2567 97.5513C77.1523 97.4896 76.0334 97.2062 75.2052 96.4397C74.5149 95.804 74.1044 94.9866 73.8901 94.082C73.654 93.0757 73.7666 91.9459 74.3042 91.0559C74.8419 90.1659 75.8082 89.3376 76.8435 89.0542C76.8871 89.0433 76.869 88.9816 76.8254 88.9889L76.8217 88.9925Z" fill="black"/>
<path d="M79.3503 90.3148C78.9616 90.046 78.453 89.9188 77.988 89.9915C77.523 90.0641 77.2033 90.333 76.8618 90.6272C76.4985 90.9397 76.1462 91.2666 76.0154 91.7498C75.8919 92.2002 76.0154 92.6398 76.3133 92.9885C76.6112 93.3373 77.0108 93.5226 77.3995 93.7224C77.839 93.9476 78.304 94.151 78.7109 94.4308C78.8889 94.5543 79.0524 94.6996 79.1686 94.8812C79.2849 95.0629 79.4411 95.3934 79.3466 95.6078C79.1795 96.0001 78.6891 96.1999 78.2968 96.2726C77.7555 96.3743 77.2033 96.2581 76.7674 95.9202C76.5894 95.7822 76.4549 95.6078 76.3314 95.4189C76.2079 95.23 76.1425 94.9757 75.9427 94.8522C75.8519 94.794 75.6993 94.8086 75.6267 94.8921C75.3433 95.2227 75.5685 95.8076 75.7974 96.1127C76.088 96.5051 76.4804 96.7848 76.9563 96.9156C77.839 97.159 78.9834 96.9192 79.561 96.1672C79.8044 95.8548 79.9715 95.3608 79.8879 94.9648C79.7898 94.4889 79.4411 94.1111 79.0633 93.8241C78.6528 93.5153 78.1951 93.2683 77.7591 93.0031C77.4721 92.8287 76.9635 92.5926 76.8654 92.2366C76.7601 91.8551 77.2687 91.441 77.6029 91.3901C77.77 91.3647 78.0025 91.372 78.1951 91.372C78.2459 91.372 78.2931 91.372 78.344 91.372C78.3949 91.3756 78.3949 91.372 78.344 91.372L78.4167 91.3901C78.4167 91.3901 78.5438 91.4264 78.4602 91.3937C78.5293 91.4192 78.5947 91.4664 78.6564 91.5064C78.9688 91.7134 79.4229 91.5681 79.6046 91.2593C79.8044 90.9142 79.6627 90.5255 79.3575 90.3112L79.3503 90.3148Z" fill="black"/>
<path d="M77.6322 89.4357C77.5196 90.9106 77.5595 92.3818 77.5014 93.8568C77.4723 94.5797 77.3924 95.3026 77.327 96.0255C77.2616 96.7485 77.1163 97.5404 77.1962 98.2815C77.2144 98.445 77.4469 98.4995 77.4978 98.3215C77.6903 97.6421 77.6758 96.901 77.7303 96.1999C77.7847 95.4479 77.8211 94.6923 77.9155 93.944C78.1044 92.4363 78.3878 90.9505 78.5186 89.4357C78.5658 88.8689 77.6758 88.8689 77.6322 89.4357Z" fill="black"/>
<path d="M86.6304 87.9535C86.8629 87.9535 86.8629 87.5938 86.6304 87.5938C86.3979 87.5938 86.3979 87.9535 86.6304 87.9535Z" fill="black"/>
<path d="M83.3458 90.8088C84.4937 90.6236 85.5981 90.2349 86.6153 89.6718C87.6325 89.1087 88.6242 88.4512 89.4852 87.6628C91.4069 85.9009 92.4822 83.3398 92.7583 80.7787C93.0344 78.2176 92.5549 75.4167 91.0582 73.3097C90.3571 72.3216 89.4525 71.4969 88.3009 71.0792C87.1493 70.6614 85.8597 70.8467 84.8497 71.4606C82.6083 72.8229 81.9072 75.6056 82.8953 77.9706C83.8834 80.3355 86.3828 81.7995 88.8458 82.1555C94.0044 82.8966 99.0358 79.4927 101.637 75.2423C103.032 72.9609 104.042 70.4471 104.826 67.8932C105.716 64.9979 106.359 61.979 106.556 58.9529C106.603 58.2045 106.632 57.4598 106.632 56.7115C106.632 56.6207 106.505 56.6243 106.494 56.7115C105.967 62.0226 104.994 67.4137 102.669 72.2634C100.634 76.5065 97.1104 80.4045 92.3006 81.28C90.0919 81.6833 87.4109 81.2655 85.6308 79.8269C83.9742 78.4828 82.8735 75.9071 84.1196 73.9309C84.6318 73.1172 85.5073 72.5286 86.4663 72.3979C87.4254 72.2671 88.3445 72.6958 89.0202 73.3279C90.5714 74.7846 91.2035 77.1278 91.3524 79.1912C91.5377 81.7923 90.8983 84.4442 89.3726 86.5694C88.6424 87.5866 87.825 88.5638 86.7315 89.2068C85.6381 89.8498 84.4792 90.2567 83.244 90.4492C83.0007 90.4855 83.1024 90.8561 83.3458 90.8197V90.8088Z" fill="black"/>
<path d="M102.634 60.7402C103.564 59.9374 104.33 58.9747 104.988 57.943C105.315 57.4307 105.62 56.904 105.885 56.3554C106.168 55.7742 106.372 55.1602 106.651 54.5754C106.688 54.4954 106.575 54.4264 106.535 54.5063C106.256 55.0512 105.918 55.5489 105.605 56.0721C105.293 56.5952 104.999 57.1256 104.675 57.6414C104.025 58.6768 103.266 59.6395 102.336 60.4423C102.132 60.6203 102.43 60.9109 102.63 60.7366L102.634 60.7402Z" fill="black"/>
<path d="M106.483 54.59C106.541 55.262 106.763 55.8869 107.032 56.5008C107.3 57.1147 107.584 57.7686 107.94 58.3499C108.296 58.9311 108.655 59.4797 109.037 60.0246C109.24 60.3116 109.433 60.6022 109.629 60.8965C109.8 61.1508 109.916 61.3651 110.225 61.4305C110.279 61.4414 110.348 61.4051 110.345 61.3397C110.327 61.0563 110.207 60.9473 110.014 60.7475C109.778 60.4969 109.549 60.2571 109.346 59.981C108.957 59.4579 108.601 58.9239 108.292 58.3499C107.66 57.1729 106.864 55.9486 106.737 54.59C106.723 54.4265 106.468 54.4265 106.483 54.59Z" fill="black"/>
<path d="M109.194 34.0211C105.946 34.9874 103.606 37.8319 103.211 41.1886C103.098 42.1585 103.178 43.1357 103.349 44.0948C103.534 45.1156 103.784 46.1328 104.311 47.0374C105.234 48.6285 106.851 49.6602 108.598 50.1325C111.951 51.0371 115.718 49.7946 118.05 47.259C119.435 45.7513 120.107 43.8768 119.979 41.8316C119.87 40.1096 119.155 38.4095 118.119 37.0399C116.964 35.5141 115.126 34.3771 113.255 33.992C112.267 33.7886 111.243 33.774 110.254 33.9775C109.324 34.17 108.434 34.744 107.712 35.347C107.592 35.4451 107.744 35.6231 107.871 35.5541C108.224 35.3652 108.591 35.209 108.972 35.0782C109.354 34.9474 109.793 34.9147 110.204 34.8348C110.996 34.6822 111.791 34.6132 112.598 34.6822C114.171 34.8203 115.845 35.4742 116.859 36.7275C117.353 37.3414 117.822 37.9372 118.181 38.6492C118.541 39.3613 118.69 40.0806 118.806 40.8217C119.064 42.4855 118.897 44.2946 117.971 45.7368C116.314 48.3197 112.939 49.5549 109.975 49.3187C108.427 49.1952 106.803 48.5813 105.666 47.5023C104.322 46.2309 103.828 44.1275 103.759 42.3402C103.628 38.8854 106.037 35.4706 109.285 34.3262C109.477 34.2572 109.401 33.9557 109.197 34.0138L109.194 34.0211Z" fill="black"/>
<path d="M106.625 42.5654C107.086 43.2339 107.547 43.9059 108.009 44.5744C108.397 45.1374 108.819 46.0311 109.527 46.2418C110.301 46.4707 110.773 45.8458 111.187 45.3191C111.66 44.716 112.139 44.1166 112.619 43.5172C113.578 42.322 114.548 41.1341 115.528 39.9571C116.019 39.3686 116.506 38.7764 117 38.1879C117.53 37.5522 118.119 36.9382 118.595 36.2625C119.11 35.5287 117.995 34.7404 117.385 35.3289C116.651 36.0337 116.023 36.8946 115.365 37.6721C114.707 38.4495 114.01 39.3068 113.342 40.1315C112.673 40.9561 112.048 41.7408 111.409 42.5509C111.1 42.9432 110.788 43.3392 110.483 43.7352C110.319 43.9459 110.156 44.153 109.996 44.3637C109.909 44.4763 109.825 44.5889 109.734 44.6979C109.712 44.7269 109.687 44.756 109.662 44.7814C109.607 44.8395 109.607 44.8395 109.662 44.7778H110.068C110.076 44.825 110.065 44.8286 110.039 44.7887C109.988 44.7378 109.941 44.6797 109.909 44.6143C109.818 44.4944 109.734 44.3673 109.643 44.2474C109.451 43.9786 109.255 43.7097 109.058 43.4409L107.881 41.8316C107.653 41.5155 107.253 41.3593 106.89 41.5737C106.57 41.7589 106.407 42.2421 106.632 42.5654H106.625Z" fill="black"/>
</svg>
