<svg width="25" height="24" viewBox="0 0 25 24" fill="none" xmlns="http://www.w3.org/2000/svg">
<path d="M12.5 4C16.91 4 20.5 7.59 20.5 12C20.5 16.41 16.91 20 12.5 20C8.09 20 4.5 16.41 4.5 12C4.5 7.59 8.08 4 12.5 4ZM12.5 3C7.53 3 3.5 7.03 3.5 12C3.5 16.97 7.53 21 12.5 21C17.47 21 21.5 16.97 21.5 12C21.5 7.03 17.47 3 12.5 3Z" fill="#8798A1"/>
<path d="M12.8897 6.43996V7.06996C13.3097 7.10996 13.6697 7.19997 13.9597 7.32997C14.2497 7.45997 14.5197 7.64994 14.7397 7.91994C14.9197 8.11994 15.0497 8.31993 15.1497 8.53993C15.2497 8.75993 15.2897 8.93995 15.2897 9.11995C15.2897 9.31995 15.2197 9.47996 15.0797 9.62996C14.9397 9.77996 14.7697 9.83998 14.5597 9.83998C14.1797 9.83998 13.9297 9.62992 13.8197 9.21992C13.6897 8.72992 13.3797 8.40995 12.8897 8.24995V10.69C13.3697 10.82 13.7597 10.9399 14.0497 11.0499C14.3397 11.1599 14.5897 11.32 14.8197 11.52C15.0597 11.73 15.2497 11.9899 15.3797 12.2899C15.5097 12.5899 15.5797 12.92 15.5797 13.27C15.5797 13.72 15.4697 14.13 15.2697 14.52C15.0697 14.91 14.7497 15.2299 14.3497 15.4699C13.9497 15.7099 13.4597 15.8599 12.8997 15.9099V17.3699C12.8997 17.5999 12.8797 17.7699 12.8297 17.8699C12.7797 17.9699 12.6897 18.03 12.5397 18.03C12.3997 18.03 12.2997 17.99 12.2397 17.9C12.1797 17.81 12.1597 17.68 12.1597 17.5V15.9199C11.6997 15.8699 11.2997 15.7599 10.9597 15.5999C10.6197 15.4399 10.3297 15.2299 10.0997 14.9899C9.86967 14.7499 9.69966 14.4899 9.58966 14.2299C9.47966 13.9699 9.42969 13.71 9.42969 13.45C9.42969 13.26 9.49966 13.09 9.64966 12.94C9.79966 12.79 9.97971 12.71 10.1997 12.71C10.3797 12.71 10.5197 12.75 10.6497 12.83C10.7797 12.91 10.8597 13.0299 10.8997 13.1799C11.0097 13.4999 11.0997 13.7499 11.1797 13.9199C11.2597 14.0899 11.3797 14.25 11.5297 14.39C11.6797 14.53 11.8997 14.64 12.1597 14.71V11.9899C11.6397 11.8499 11.1997 11.68 10.8497 11.51C10.4997 11.33 10.2097 11.08 9.98969 10.75C9.76969 10.42 9.65967 9.99993 9.65967 9.47993C9.65967 8.80993 9.86968 8.25997 10.2997 7.82997C10.7297 7.39997 11.3497 7.14997 12.1497 7.07997V6.45998C12.1497 6.12998 12.2697 5.96992 12.5197 5.96992C12.7597 5.95992 12.8897 6.11996 12.8897 6.43996ZM12.1397 10.46V8.21992C11.8097 8.31992 11.5597 8.44994 11.3697 8.60994C11.1797 8.76994 11.0897 9.00998 11.0897 9.33998C11.0897 9.64998 11.1797 9.87993 11.3497 10.0399C11.5197 10.1999 11.7897 10.33 12.1397 10.46ZM12.8897 12.2V14.77C13.2797 14.69 13.5897 14.5299 13.7997 14.2999C14.0097 14.0699 14.1197 13.7799 14.1197 13.4699C14.1197 13.1299 14.0097 12.8699 13.8097 12.6799C13.6097 12.4899 13.2997 12.33 12.8897 12.2Z" fill="#8798A1"/>
</svg>
