<svg width="24" height="24" viewBox="0 0 24 24" fill="none" xmlns="http://www.w3.org/2000/svg">
<path d="M15.4163 20.1392H8.59536C8.17094 20.1588 7.75385 20.0235 7.42165 19.7586C7.08945 19.4937 6.86476 19.1173 6.78936 18.6992L5.93636 9.08911C5.92531 8.98922 5.928 8.88829 5.94435 8.78912L6.02434 8.38916H17.9863L18.0673 8.78912C18.0821 8.86857 18.0858 8.94969 18.0784 9.03015L17.2103 18.6961C17.1419 19.1155 16.9209 19.4949 16.5897 19.7612C16.2586 20.0276 15.8407 20.1622 15.4163 20.1392ZM6.96035 9.3811L7.78435 18.6021C7.8398 18.7696 7.9499 18.9135 8.09697 19.0109C8.24404 19.1083 8.41955 19.1535 8.59536 19.1392H15.4163C15.591 19.1558 15.7661 19.1114 15.9119 19.0137C16.0577 18.9161 16.1653 18.771 16.2164 18.6031L17.0463 9.3811H6.96035Z" fill="#8798A1"/>
<path d="M17.916 9.38129H5.991C5.72842 9.38103 5.47666 9.2767 5.29089 9.09113C5.10513 8.90555 5.00053 8.65388 5 8.3913V7.65534C5.00212 7.16193 5.19988 6.68951 5.5499 6.34174C5.89991 5.99397 6.3736 5.79923 6.867 5.8003H17.149C17.6408 5.80083 18.1123 5.99648 18.4601 6.34424C18.8079 6.69201 19.0035 7.16352 19.004 7.65534V8.29731C19.0039 8.43996 18.9756 8.58118 18.9208 8.71289C18.8661 8.84461 18.7859 8.96426 18.6848 9.06495C18.5838 9.16563 18.4638 9.2454 18.3319 9.29969C18.2 9.35397 18.0587 9.38169 17.916 9.38129ZM6.867 6.8003C6.63873 6.79897 6.41925 6.88824 6.25671 7.04853C6.09418 7.20882 6.00185 7.42707 6 7.65534V8.3913L17.916 8.38129C17.9383 8.38129 17.9597 8.37245 17.9754 8.35669C17.9912 8.34094 18 8.31958 18 8.29731V7.65534C17.9997 7.42866 17.9096 7.21132 17.7493 7.05103C17.589 6.89074 17.3717 6.80056 17.145 6.8003H6.867Z" fill="#8798A1"/>
<path d="M15.05 6.80029H8.95703V5.57629C8.9573 5.12153 9.13809 4.68546 9.45966 4.36389C9.78122 4.04232 10.2173 3.86159 10.672 3.86133H13.3351C13.7898 3.86159 14.2259 4.04232 14.5474 4.36389C14.869 4.68546 15.0498 5.12153 15.05 5.57629V6.80029ZM9.95703 5.80029H14.05V5.57629C14.0475 5.38747 13.9713 5.20714 13.8378 5.07361C13.7042 4.94008 13.5239 4.86392 13.3351 4.86133H10.672C10.4825 4.86159 10.3008 4.93701 10.1667 5.07104C10.0327 5.20508 9.9573 5.38675 9.95703 5.57629V5.80029Z" fill="#8798A1"/>
<path d="M9.22266 17.9094C9.09005 17.9094 8.96285 17.8568 8.86908 17.763C8.77531 17.6692 8.72266 17.542 8.72266 17.4094V11.1494C8.72266 11.0168 8.77531 10.8897 8.86908 10.7959C8.96285 10.7021 9.09005 10.6494 9.22266 10.6494C9.35526 10.6494 9.48243 10.7021 9.5762 10.7959C9.66997 10.8897 9.72266 11.0168 9.72266 11.1494V17.4114C9.72213 17.5437 9.66921 17.6703 9.5755 17.7637C9.48179 17.857 9.35492 17.9094 9.22266 17.9094Z" fill="#8798A1"/>
<path d="M12.0039 17.9094C11.8713 17.9094 11.7441 17.8568 11.6504 17.763C11.5566 17.6692 11.5039 17.542 11.5039 17.4094V11.1494C11.5039 11.0168 11.5566 10.8897 11.6504 10.7959C11.7441 10.7021 11.8713 10.6494 12.0039 10.6494C12.1365 10.6494 12.2637 10.7021 12.3575 10.7959C12.4512 10.8897 12.5039 11.0168 12.5039 11.1494V17.4114C12.5034 17.5437 12.4505 17.6703 12.3568 17.7637C12.263 17.857 12.1362 17.9094 12.0039 17.9094Z" fill="#8798A1"/>
<path d="M14.7891 17.9094C14.6565 17.9094 14.5293 17.8568 14.4355 17.763C14.3417 17.6692 14.2891 17.542 14.2891 17.4094V11.1494C14.2891 11.0168 14.3417 10.8897 14.4355 10.7959C14.5293 10.7021 14.6565 10.6494 14.7891 10.6494C14.9217 10.6494 15.0489 10.7021 15.1426 10.7959C15.2364 10.8897 15.2891 11.0168 15.2891 11.1494V17.4114C15.2885 17.5437 15.2356 17.6703 15.1419 17.7637C15.0482 17.857 14.9213 17.9094 14.7891 17.9094Z" fill="#8798A1"/>
</svg>
