<svg width="227" height="224" viewBox="0 0 227 224" fill="none" xmlns="http://www.w3.org/2000/svg">
<g filter="url(#filter0_d_4804_64186)">
<path d="M217.277 108.982C217.246 134.734 207.262 159.478 189.411 178.04C171.561 196.601 147.226 207.544 121.495 208.581C95.7632 209.618 70.6271 200.668 51.3412 183.602C32.0553 166.536 20.1128 142.676 18.0103 117.01C15.9078 91.3438 23.808 65.8582 40.0595 45.8814C56.3109 25.9047 79.6554 12.9832 105.212 9.81845C130.77 6.6537 156.561 13.4907 177.194 28.9C197.827 44.3093 211.705 67.098 215.927 92.5019C216.824 97.9495 217.275 103.461 217.277 108.982Z" fill="#F4F7FB"/>
</g>
<path d="M131.236 131.417V149.839C131.226 153.416 129.8 156.844 127.271 159.374C124.741 161.903 121.313 163.329 117.736 163.339H115.587C112.01 163.329 108.582 161.903 106.052 159.374C103.523 156.844 102.097 153.416 102.087 149.839V131.401C107.587 135.046 111.545 137.377 116.126 137.952C116.29 137.968 116.487 137.985 116.667 138.001L117.193 137.952C121.762 137.377 125.736 135.046 131.236 131.417Z" fill="white" stroke="#F4F7FB" stroke-width="0.401" stroke-miterlimit="10"/>
<path d="M89.538 121.232C86.731 121.281 85.384 120.558 84.744 119.655C83.989 118.605 83.923 116.996 83.693 116.996C83.381 117.028 83.893 119.934 83.135 120.214C82.002 120.624 78.899 114.828 78.57 114.171C78.455 113.909 78.34 113.662 78.34 113.662C78.1609 113.174 78.0129 112.675 77.897 112.168C79.226 112.63 80.6004 112.95 81.997 113.121C83.3715 113.448 84.7877 113.564 86.197 113.465C86.341 114.344 86.5496 115.211 86.821 116.06C87.1492 117.08 87.5783 118.064 88.102 118.999C88.364 119.475 88.643 119.935 88.939 120.378C89.144 120.673 89.325 120.952 89.538 121.232Z" fill="#C8D3D9" stroke="#C8D3D9" stroke-width="0.414" stroke-miterlimit="10"/>
<path d="M152.38 112.907C152.363 113.039 152.33 113.17 152.314 113.301C152.084 115.203 151.517 117.049 150.639 118.752C149.339 121.199 147.29 123.333 146.732 123.022C146.255 122.759 146.863 120.805 146.732 120.788C146.551 120.788 146.042 123.859 145.402 123.859C144.942 123.859 144.502 122.266 144.252 120.559C144.598 120.057 144.916 119.536 145.205 118.999C145.734 118.065 146.17 117.08 146.505 116.06C146.759 115.218 146.967 114.362 147.129 113.498C148.486 113.542 149.843 113.415 151.168 113.121C151.608 113.039 152.002 112.973 152.38 112.907Z" fill="#C8D3D9" stroke="#C8D3D9" stroke-width="0.414" stroke-miterlimit="10"/>
<path d="M86.205 113.465C84.7956 113.564 83.3794 113.448 82.005 113.121C80.6084 112.95 79.234 112.63 77.905 112.168C77.3431 111.953 76.8171 111.655 76.345 111.282C74.9864 110.331 74.0272 108.911 73.6514 107.296C73.2756 105.68 73.5098 103.983 74.309 102.53C74.5506 102.058 74.8484 101.617 75.196 101.217C76.0541 100.216 77.1332 99.4289 78.348 98.917C79.0758 98.5599 79.8342 98.2687 80.614 98.047C82.371 104.447 84.686 108.998 85.277 108.834C85.688 108.703 85.097 106.339 84.538 100.28C84.703 101.495 84.883 102.825 85.064 104.319C85.548 108.523 85.795 111.282 86.205 113.465Z" fill="white" stroke="#F4F7FB" stroke-width="0.414" stroke-miterlimit="10"/>
<path d="M159.341 107.932C158.854 109.273 157.98 110.439 156.829 111.282C155.513 112.202 153.979 112.762 152.38 112.907C152.002 112.973 151.608 113.039 151.165 113.121C149.84 113.415 148.483 113.542 147.126 113.498C147.454 111.676 147.684 109.476 148.045 106.356C149.045 105.486 151.001 102.416 152.462 98.015C153.005 98.1627 153.537 98.3495 154.054 98.574C156.031 99.3585 157.714 100.742 158.865 102.531C159.726 104.199 159.897 106.139 159.341 107.932Z" fill="white" stroke="#F4F7FB" stroke-width="0.414" stroke-miterlimit="10"/>
<g filter="url(#filter1_d_4804_64186)">
<path d="M148.335 97.802C148.023 102.333 146.873 106.422 147.535 106.602C147.65 106.635 147.814 106.553 148.044 106.356C147.683 109.476 147.453 111.676 147.125 113.498C146.963 114.362 146.755 115.218 146.501 116.06C145.953 117.653 145.197 119.166 144.251 120.56C141.772 124.304 138.406 126.603 134.121 129.476C133.103 130.165 132.15 130.806 131.231 131.413C125.731 135.042 121.757 137.373 117.193 137.948L116.667 137.997C116.487 137.981 116.29 137.964 116.126 137.948C111.545 137.373 107.588 135.042 102.087 131.397C101.168 130.789 100.216 130.149 99.214 129.476C95.191 126.783 91.99 124.583 89.543 121.234C89.33 120.954 89.149 120.675 88.952 120.38C88.6573 119.936 88.3783 119.476 88.115 119.001C87.5913 118.066 87.1622 117.082 86.834 116.062C86.5626 115.214 86.354 114.346 86.21 113.467C85.8 111.284 85.553 108.525 85.061 104.322C84.88 102.828 84.7 101.498 84.535 100.283C84.47 99.495 84.388 98.6409 84.322 97.7219C84.289 97.2779 84.256 96.802 84.222 96.322C84.0354 94.3947 83.9806 92.4568 84.058 90.522C84.534 84.316 87.211 79.374 87.753 79.554C88.393 79.754 86.981 85.054 87.424 86.089C87.4285 86.1258 87.4431 86.1606 87.4663 86.1896C87.4894 86.2185 87.5201 86.2404 87.555 86.2529C88.393 86.5159 89.821 79.883 95.371 75.285C97.2602 73.7487 99.4133 72.569 101.725 71.804C102.425 74.3772 103.563 76.8103 105.091 78.996C111.806 88.568 124.646 90.604 124.991 89.896C125.122 89.666 123.004 88.9599 121.149 86.6119C119.239 83.9537 118.306 80.7179 118.505 77.4509C120.21 80.2049 122.409 82.6204 124.991 84.5759C129.573 87.9724 135.07 89.9118 140.769 90.142C141.984 90.142 142.723 90.011 142.769 89.83C142.9 89.338 137.744 88.6979 133.196 84.1169L133.163 84.084C131.833 82.5673 130.641 80.9352 129.6 79.207C131.689 80.6551 133.859 81.982 136.1 83.181C141.65 86.136 143.473 85.6109 145.426 87.2529C146.771 88.4636 147.678 90.0857 148.004 91.866C148.396 93.8188 148.507 95.8177 148.335 97.802Z" fill="white" stroke="#F4F7FB" stroke-width="0.414" stroke-miterlimit="10"/>
</g>
<path d="M124.993 84.585C122.411 82.6286 120.213 80.2129 118.507 77.459C120.29 80.1539 122.477 82.5575 124.993 84.585Z" fill="white" stroke="#F4F7FB" stroke-width="0.414" stroke-miterlimit="10"/>
<path d="M154.771 92.104C154.442 94.961 154.262 96.373 154.147 97.555C154.114 97.9 154.081 98.229 154.047 98.573C153.53 98.3491 152.998 98.1626 152.455 98.0151C150.993 102.415 149.04 105.486 148.038 106.356C147.808 106.556 147.644 106.635 147.529 106.602C146.872 106.422 148.022 102.333 148.329 97.802C148.501 95.8204 148.39 93.8244 148 91.8741C147.674 90.0938 146.767 88.4717 145.422 87.261C143.469 85.619 141.646 86.144 136.096 83.189C133.855 81.9899 131.685 80.6631 129.596 79.215C130.533 81.0096 131.734 82.6537 133.159 84.0921L133.192 84.125C137.74 88.706 142.892 89.3461 142.765 89.8381C142.715 90.0191 141.976 90.1501 140.765 90.1501C135.066 89.9199 129.569 87.9805 124.987 84.584C122.471 82.5571 120.283 80.1538 118.501 77.459C118.302 80.726 119.235 83.9618 121.145 86.62C123 88.968 125.118 89.674 124.987 89.904C124.642 90.61 111.802 88.5741 105.087 79.0041C103.559 76.8184 102.421 74.3853 101.721 71.812C99.4093 72.5771 97.2562 73.7567 95.367 75.293C89.817 79.893 88.389 86.524 87.551 86.261C87.5161 86.2485 87.4854 86.2265 87.4622 86.1975C87.4391 86.1686 87.4245 86.1338 87.42 86.097C86.977 85.063 88.389 79.759 87.749 79.562C87.207 79.382 84.53 84.3241 84.054 90.5301C83.9766 92.4649 84.0313 94.4026 84.218 96.33C84.251 96.806 84.284 97.282 84.318 97.73C84.368 98.385 84.439 99.2611 84.531 100.291C85.093 106.559 85.585 108.758 85.27 108.845C84.679 109.009 82.364 104.461 80.607 98.058C79.8272 98.2797 79.0688 98.5709 78.341 98.928C77.1262 99.4399 76.0471 100.227 75.189 101.228C75.107 100.916 74.959 100.391 74.828 99.734C74.4852 98.0217 74.3746 96.2709 74.499 94.529C74.811 89.488 71.872 82.8711 73.137 74.6131C74.0554 69.5502 76.216 64.7943 79.425 60.772C81.3843 58.2854 83.8245 56.2189 86.6 54.696C87.7923 54.0595 89.0397 53.5321 90.327 53.12C90.0303 52.8384 89.766 52.5244 89.539 52.184C88.258 50.23 88.176 47.2911 89.227 46.7331C89.753 46.4541 90.491 46.833 90.902 47.045C91.132 47.177 91.772 47.538 93.053 49.459C93.825 50.625 93.972 51.0511 94.253 51.0351C94.697 50.9861 94.647 49.886 95.353 48.359C95.9331 47.1406 96.7735 46.0642 97.815 45.206C97.915 45.124 98.751 44.632 100.442 43.647C101.198 43.187 101.575 42.973 101.854 43.121C102.134 43.252 102.166 43.663 102.166 45.321C102.166 46.208 102.166 46.848 102.134 47.321C101.616 48.1692 101.254 49.1038 101.066 50.08C101.336 49.7815 101.568 49.4506 101.756 49.095C102.012 48.5389 102.141 47.933 102.134 47.321C102.461 46.7742 102.871 46.2814 103.349 45.86C104.759 44.7576 106.485 44.1362 108.274 44.0871C111.528 43.6889 114.817 43.6724 118.074 44.038C126.399 45.006 130.503 45.975 133.525 47.272C133.525 47.272 146.299 52.7231 152.39 64.7911C153.157 66.3255 153.821 67.9093 154.377 69.532C155.117 71.7278 155.656 73.9865 155.986 76.2801C156.446 79.7411 156.035 81.465 154.771 92.104Z" fill="#C8D3D9" stroke="#C8D3D9" stroke-width="0.414" stroke-miterlimit="10"/>
<path d="M124.993 84.585C122.411 82.6286 120.213 80.2129 118.507 77.459C120.29 80.1539 122.477 82.5575 124.993 84.585Z" fill="white" stroke="#F4F7FB" stroke-width="0.414" stroke-miterlimit="10"/>
<path d="M174.927 190.752C158.036 202.713 137.849 209.136 117.152 209.136C96.455 209.136 76.2681 202.713 59.377 190.752C59.6036 188.576 59.9948 186.419 60.547 184.302C61.037 182.419 61.6551 180.571 62.397 178.772C66.7556 168.614 74.2838 160.138 83.857 154.612C85.5424 153.586 87.2816 152.652 89.067 151.812C93.2323 149.852 97.5978 148.35 102.087 147.332V149.842C102.1 153.418 103.526 156.843 106.056 159.37C108.585 161.898 112.011 163.322 115.587 163.332H117.737C121.313 163.322 124.739 161.898 127.268 159.37C129.798 156.843 131.224 153.418 131.237 149.842V147.112C154.867 152.122 172.757 169.502 174.927 190.752Z" fill="white" stroke="#F4F7FB" stroke-width="0.401" stroke-miterlimit="10"/>
<g filter="url(#filter2_d_4804_64186)">
<path d="M192.593 75.1944C188.521 75.1944 184.54 76.4017 181.154 78.664C177.767 80.9263 175.128 84.1418 173.569 87.9041C172.01 91.6663 171.601 95.8062 172.395 99.8006C173.188 103.795 175.148 107.464 178.027 110.345C180.906 113.226 184.574 115.188 188.568 115.984C192.562 116.78 196.702 116.374 200.465 114.817C204.228 113.261 207.446 110.623 209.71 107.238C211.974 103.854 213.184 99.8732 213.187 95.8007C213.189 93.0953 212.657 90.4161 211.623 87.9161C210.589 85.4161 209.072 83.1443 207.16 81.2306C205.247 79.317 202.977 77.7988 200.477 76.7631C197.978 75.7274 195.299 75.1944 192.593 75.1944ZM192.593 81.3982C193.932 81.3995 195.24 81.7978 196.352 82.5424C197.464 83.2871 198.331 84.3448 198.842 85.5818C199.353 86.8189 199.485 88.1797 199.223 89.4922C198.961 90.8047 198.315 92.01 197.368 92.9555C196.42 93.901 195.214 94.5443 193.901 94.8042C192.588 95.0641 191.227 94.9288 189.991 94.4154C188.755 93.902 187.699 93.0337 186.957 91.9201C186.214 90.8065 185.818 89.4977 185.82 88.1592C185.822 86.3645 186.536 84.644 187.807 83.3761C189.077 82.1083 190.799 81.3969 192.593 81.3982ZM201.466 108.753C201.02 109.212 200.486 109.576 199.896 109.823C199.307 110.07 198.673 110.195 198.033 110.19H187.167C186.524 110.191 185.887 110.065 185.293 109.819C184.698 109.573 184.158 109.212 183.704 108.757C183.249 108.303 182.888 107.763 182.642 107.169C182.397 106.574 182.27 105.938 182.271 105.295C182.27 104.408 182.445 103.531 182.783 102.712C183.122 101.893 183.619 101.149 184.246 100.522C184.873 99.8952 185.617 99.3982 186.436 99.0592C187.255 98.7203 188.132 98.546 189.019 98.5465H196.181C197.067 98.546 197.945 98.7203 198.764 99.0592C199.583 99.3982 200.327 99.8952 200.954 100.522C201.58 101.149 202.078 101.893 202.416 102.712C202.755 103.531 202.93 104.408 202.929 105.295C202.934 105.94 202.806 106.58 202.554 107.175C202.303 107.769 201.932 108.306 201.466 108.753Z" fill="#C8D3D9"/>
</g>
<g filter="url(#filter3_d_4804_64186)">
<path d="M88.658 153.353C88.2973 148.915 86.8645 144.632 84.4828 140.87C82.1012 137.108 78.8418 133.981 74.9848 131.757C71.1277 129.533 66.7884 128.279 62.3397 128.102C57.891 127.926 53.4659 128.832 49.4446 130.743C45.4234 132.654 41.9263 135.513 39.2538 139.074C36.5812 142.635 34.8133 146.791 34.1018 151.186C33.3903 155.581 33.7565 160.083 35.169 164.305C36.5815 168.528 38.9981 172.344 42.211 175.426C42.2442 175.466 42.2807 175.504 42.32 175.538C46.3558 179.381 51.4646 181.906 56.9687 182.778C62.4727 183.651 68.1119 182.829 73.1383 180.423C78.1647 178.016 82.3407 174.139 85.1125 169.304C87.8842 164.469 89.1207 158.906 88.658 153.353Z" fill="#C8D3D9" stroke="#C8D3D9" stroke-width="0.5" stroke-linecap="round" stroke-linejoin="round"/>
</g>
<path d="M77.145 170.745C74.1547 173.885 70.3004 176.068 66.0696 177.018C61.8387 177.968 57.4211 177.642 53.3756 176.081C49.33 174.52 45.8381 171.795 43.3413 168.25C40.8446 164.704 39.4552 160.498 39.3488 156.163C39.2424 151.829 40.4237 147.56 42.7435 143.896C45.0633 140.233 48.4173 137.339 52.3814 135.582C56.3455 133.824 60.7417 133.282 65.0141 134.023C69.2865 134.764 73.2432 136.755 76.384 139.745C78.47 141.73 80.1445 144.107 81.3117 146.739C82.479 149.372 83.1161 152.209 83.1868 155.087C83.2575 157.966 82.7603 160.831 81.7236 163.517C80.6869 166.204 79.1311 168.66 77.145 170.745Z" fill="#F4F7FB" stroke="#C8D3D9" stroke-width="0.5" stroke-linecap="round" stroke-linejoin="round"/>
<g filter="url(#filter4_d_4804_64186)">
<path d="M38.682 179.951L38.0664 179.361C36.4706 177.832 33.9373 177.886 32.408 179.481L16.1854 196.409C14.6562 198.005 14.7101 200.538 16.3058 202.068L16.9214 202.657C18.5172 204.187 21.0505 204.133 22.5798 202.537L38.8024 185.609C40.3316 184.013 40.2777 181.48 38.682 179.951Z" fill="#C8D3D9" stroke="#C8D3D9" stroke-width="0.498623" stroke-linecap="round" stroke-linejoin="round"/>
</g>
<path d="M43.483 178.517L39.2787 174.516C38.6642 173.931 37.6918 173.955 37.107 174.57C36.5221 175.184 36.5462 176.157 37.1608 176.742L41.365 180.743C41.9796 181.327 42.9519 181.303 43.5368 180.689C44.1217 180.074 44.0976 179.102 43.483 178.517Z" fill="#C8D3D9" stroke="#C8D3D9" stroke-width="0.499724" stroke-linecap="round" stroke-linejoin="round"/>
<path d="M60.551 161.285C59.3108 161.285 58.372 160.677 58.3051 160.132L56.4761 145.207C56.3109 143.858 56.715 142.52 57.5848 141.538C58.3562 140.666 59.4096 140.186 60.551 140.186C61.6924 140.186 62.7459 140.666 63.5173 141.538C64.387 142.52 64.7911 143.858 64.6259 145.207L62.7969 160.132C62.7301 160.677 61.7912 161.285 60.551 161.285Z" fill="#C8D3D9"/>
<path d="M60.551 160.463C61.3534 160.463 61.8747 160.14 61.9866 159.985L63.8099 145.107C63.9464 143.991 63.6154 142.889 62.9016 142.083C62.2884 141.39 61.4537 141.008 60.551 141.008C59.6484 141.008 58.8136 141.39 58.2004 142.083C57.4866 142.889 57.1556 143.991 57.2921 145.107L59.1155 159.986C59.2272 160.141 59.7483 160.463 60.551 160.463ZM60.551 162.107C58.993 162.107 57.62 161.3 57.489 160.232L55.66 145.307C55.285 142.244 57.46 139.364 60.551 139.364C63.642 139.364 65.817 142.244 65.442 145.307L63.613 160.232C63.482 161.3 62.108 162.107 60.551 162.107Z" fill="#C8D3D9"/>
<path d="M60.551 169.898C62.109 169.898 63.372 168.635 63.372 167.077C63.372 165.519 62.109 164.256 60.551 164.256C58.993 164.256 57.73 165.519 57.73 167.077C57.73 168.635 58.993 169.898 60.551 169.898Z" fill="#C8D3D9"/>
<path d="M60.551 169.076C61.655 169.076 62.55 168.181 62.55 167.077C62.55 165.973 61.655 165.078 60.551 165.078C59.447 165.078 58.552 165.973 58.552 167.077C58.552 168.181 59.447 169.076 60.551 169.076Z" stroke="#C8D3D9" stroke-width="1.644" stroke-miterlimit="10" stroke-linecap="round"/>
<path d="M56.346 96.368C56.5069 96.5426 56.5941 96.7727 56.5893 97.0102C56.5845 97.2477 56.488 97.4741 56.32 97.642C56.1521 97.81 55.9257 97.9065 55.6882 97.9113C55.4507 97.9162 55.2206 97.8289 55.046 97.6679L52.232 94.853L49.419 97.6679C49.2443 97.8289 49.0142 97.9162 48.7767 97.9113C48.5392 97.9065 48.3128 97.81 48.1449 97.642C47.9769 97.4741 47.8804 97.2477 47.8756 97.0102C47.8708 96.7727 47.958 96.5426 48.119 96.368L50.932 93.5539L48.119 90.7399C48.0278 90.6559 47.9546 90.5544 47.9037 90.4414C47.8528 90.3283 47.8252 90.2062 47.8227 90.0822C47.8202 89.9583 47.8427 89.835 47.889 89.72C47.9353 89.605 48.0043 89.5006 48.092 89.4129C48.1796 89.3253 48.2841 89.2562 48.3991 89.2099C48.5141 89.1636 48.6373 89.1411 48.7612 89.1436C48.8852 89.1461 49.0073 89.1738 49.1203 89.2247C49.2334 89.2756 49.3349 89.3487 49.419 89.4399L52.232 92.254L55.046 89.4399C55.2206 89.2789 55.4507 89.1918 55.6882 89.1966C55.9257 89.2014 56.1521 89.2979 56.32 89.4659C56.488 89.6338 56.5845 89.8603 56.5893 90.0977C56.5941 90.3352 56.5069 90.5653 56.346 90.7399L53.532 93.5539L56.346 96.368Z" fill="white"/>
<path d="M197.293 43.186C200.241 43.186 202.63 40.7965 202.63 37.849C202.63 34.9014 200.241 32.512 197.293 32.512C194.346 32.512 191.956 34.9014 191.956 37.849C191.956 40.7965 194.346 43.186 197.293 43.186Z" fill="#F4F7FB" stroke="#F4F7FB" stroke-width="1.043" stroke-miterlimit="10"/>
<path d="M5.858 110.24C8.80554 110.24 11.195 107.851 11.195 104.903C11.195 101.955 8.80554 99.566 5.858 99.566C2.91045 99.566 0.520996 101.955 0.520996 104.903C0.520996 107.851 2.91045 110.24 5.858 110.24Z" fill="#F4F7FB" stroke="#F4F7FB" stroke-width="1.043" stroke-miterlimit="10"/>
<path d="M217.274 169.898C219.163 169.898 220.694 168.367 220.694 166.478C220.694 164.589 219.163 163.058 217.274 163.058C215.385 163.058 213.854 164.589 213.854 166.478C213.854 168.367 215.385 169.898 217.274 169.898Z" fill="#F4F7FB" stroke="#F4F7FB" stroke-width="0.668" stroke-miterlimit="10"/>
<path d="M181.379 25.766C188.163 25.766 193.662 20.2667 193.662 13.483C193.662 6.69924 188.163 1.19995 181.379 1.19995C174.595 1.19995 169.096 6.69924 169.096 13.483C169.096 20.2667 174.595 25.766 181.379 25.766Z" fill="#F4F7FB" stroke="#F4F7FB" stroke-width="2.4" stroke-miterlimit="10"/>
<defs>
<filter id="filter0_d_4804_64186" x="11.6769" y="8.06165" width="211.6" height="211.6" filterUnits="userSpaceOnUse" color-interpolation-filters="sRGB">
<feFlood flood-opacity="0" result="BackgroundImageFix"/>
<feColorMatrix in="SourceAlpha" type="matrix" values="0 0 0 0 0 0 0 0 0 0 0 0 0 0 0 0 0 0 127 0" result="hardAlpha"/>
<feOffset dy="5"/>
<feGaussianBlur stdDeviation="3"/>
<feColorMatrix type="matrix" values="0 0 0 0 0.784314 0 0 0 0 0.827451 0 0 0 0 0.85098 0 0 0 0.302 0"/>
<feBlend mode="normal" in2="BackgroundImageFix" result="effect1_dropShadow_4804_64186"/>
<feBlend mode="normal" in="SourceGraphic" in2="effect1_dropShadow_4804_64186" result="shape"/>
</filter>
<filter id="filter1_d_4804_64186" x="77.817" y="68.5388" width="76.8036" height="78.666" filterUnits="userSpaceOnUse" color-interpolation-filters="sRGB">
<feFlood flood-opacity="0" result="BackgroundImageFix"/>
<feColorMatrix in="SourceAlpha" type="matrix" values="0 0 0 0 0 0 0 0 0 0 0 0 0 0 0 0 0 0 127 0" result="hardAlpha"/>
<feOffset dy="3"/>
<feGaussianBlur stdDeviation="3"/>
<feColorMatrix type="matrix" values="0 0 0 0 0.784314 0 0 0 0 0.827451 0 0 0 0 0.85098 0 0 0 0.149 0"/>
<feBlend mode="normal" in2="BackgroundImageFix" result="effect1_dropShadow_4804_64186"/>
<feBlend mode="normal" in="SourceGraphic" in2="effect1_dropShadow_4804_64186" result="shape"/>
</filter>
<filter id="filter2_d_4804_64186" x="166" y="72.1944" width="53.187" height="53.1869" filterUnits="userSpaceOnUse" color-interpolation-filters="sRGB">
<feFlood flood-opacity="0" result="BackgroundImageFix"/>
<feColorMatrix in="SourceAlpha" type="matrix" values="0 0 0 0 0 0 0 0 0 0 0 0 0 0 0 0 0 0 127 0" result="hardAlpha"/>
<feOffset dy="3"/>
<feGaussianBlur stdDeviation="3"/>
<feColorMatrix type="matrix" values="0 0 0 0 0.784314 0 0 0 0 0.827451 0 0 0 0 0.85098 0 0 0 0.2 0"/>
<feBlend mode="normal" in2="BackgroundImageFix" result="effect1_dropShadow_4804_64186"/>
<feBlend mode="normal" in="SourceGraphic" in2="effect1_dropShadow_4804_64186" result="shape"/>
</filter>
<filter id="filter3_d_4804_64186" x="27.4984" y="124.831" width="67.5045" height="67.5363" filterUnits="userSpaceOnUse" color-interpolation-filters="sRGB">
<feFlood flood-opacity="0" result="BackgroundImageFix"/>
<feColorMatrix in="SourceAlpha" type="matrix" values="0 0 0 0 0 0 0 0 0 0 0 0 0 0 0 0 0 0 127 0" result="hardAlpha"/>
<feOffset dy="3"/>
<feGaussianBlur stdDeviation="3"/>
<feColorMatrix type="matrix" values="0 0 0 0 0.784314 0 0 0 0 0.827451 0 0 0 0 0.85098 0 0 0 0.302 0"/>
<feBlend mode="normal" in2="BackgroundImageFix" result="effect1_dropShadow_4804_64186"/>
<feBlend mode="normal" in="SourceGraphic" in2="effect1_dropShadow_4804_64186" result="shape"/>
</filter>
<filter id="filter4_d_4804_64186" x="8.82355" y="174.999" width="37.3407" height="38.0204" filterUnits="userSpaceOnUse" color-interpolation-filters="sRGB">
<feFlood flood-opacity="0" result="BackgroundImageFix"/>
<feColorMatrix in="SourceAlpha" type="matrix" values="0 0 0 0 0 0 0 0 0 0 0 0 0 0 0 0 0 0 127 0" result="hardAlpha"/>
<feOffset dy="3"/>
<feGaussianBlur stdDeviation="3"/>
<feColorMatrix type="matrix" values="0 0 0 0 0.784314 0 0 0 0 0.827451 0 0 0 0 0.85098 0 0 0 0.302 0"/>
<feBlend mode="normal" in2="BackgroundImageFix" result="effect1_dropShadow_4804_64186"/>
<feBlend mode="normal" in="SourceGraphic" in2="effect1_dropShadow_4804_64186" result="shape"/>
</filter>
</defs>
</svg>
