<svg width="14" height="8" viewBox="0 0 14 8" fill="none" xmlns="http://www.w3.org/2000/svg">
<path d="M13.3533 0.766667C13.252 0.708155 13.137 0.677351 13.02 0.677351C12.903 0.677351 12.788 0.708155 12.6867 0.766667L10.3333 1.92667C10.3143 1.40905 10.0953 0.918982 9.72223 0.559626C9.3492 0.20027 8.8513 -0.00034785 8.33333 4.52771e-07H2.33333C1.8029 4.52771e-07 1.29419 0.210714 0.919115 0.585787C0.544042 0.96086 0.333328 1.46957 0.333328 2V6C0.333328 6.53043 0.544042 7.03914 0.919115 7.41421C1.29419 7.78929 1.8029 8 2.33333 8H8.33333C8.8513 8.00035 9.3492 7.79973 9.72223 7.44037C10.0953 7.08102 10.3143 6.59095 10.3333 6.07333L12.7067 7.26C12.7975 7.30659 12.8979 7.33168 13 7.33333C13.1248 7.33373 13.2472 7.29909 13.3533 7.23333C13.4494 7.17329 13.5286 7.08975 13.5834 6.9906C13.6382 6.89145 13.6669 6.77996 13.6667 6.66667V1.33333C13.6669 1.22004 13.6382 1.10855 13.5834 1.0094C13.5286 0.910255 13.4494 0.826714 13.3533 0.766667ZM9 6C9 6.17681 8.92976 6.34638 8.80473 6.4714C8.67971 6.59643 8.51014 6.66667 8.33333 6.66667H2.33333C2.15652 6.66667 1.98695 6.59643 1.86192 6.4714C1.7369 6.34638 1.66666 6.17681 1.66666 6V2C1.66666 1.82319 1.7369 1.65362 1.86192 1.5286C1.98695 1.40357 2.15652 1.33333 2.33333 1.33333H8.33333C8.51014 1.33333 8.67971 1.40357 8.80473 1.5286C8.92976 1.65362 9 1.82319 9 2V6ZM12.3333 5.58667L10.3333 4.58667V3.41333L12.3333 2.41333V5.58667Z" fill="white"/>
</svg>
