<svg width="24" height="24" viewBox="0 0 24 24" fill="none" xmlns="http://www.w3.org/2000/svg">
<path d="M11.9999 15.0501C11.4315 15.0501 11.001 14.7715 10.9702 14.5214L10.132 7.67948C10.0559 7.06087 10.241 6.44764 10.6396 5.99699C10.9934 5.59713 11.4764 5.37695 11.9999 5.37695C12.5233 5.37695 13.0064 5.59713 13.3602 5.99699C13.7588 6.44764 13.9439 7.06087 13.8679 7.67934L13.0294 14.5217C12.9987 14.7715 12.5683 15.0501 11.9999 15.0501Z" fill="#BF283A"/>
<path d="M11.9998 14.6731C12.3676 14.6731 12.6066 14.5253 12.6578 14.4542L13.4935 7.63331C13.5564 7.12196 13.4048 6.61655 13.0777 6.24669C12.7965 5.92892 12.4137 5.75389 11.9998 5.75389C11.5858 5.75389 11.203 5.92892 10.9218 6.24669C10.5947 6.61655 10.4431 7.12196 10.506 7.63359L11.3416 14.4541C11.3928 14.5252 11.6317 14.6731 11.9998 14.6731ZM11.9998 15.427C11.2858 15.427 10.6563 15.0569 10.596 14.5676L9.7577 7.7253C9.58506 6.32082 10.5824 5 11.9998 5C13.4171 5 14.4145 6.32082 14.2418 7.7253L13.4035 14.5676C13.3432 15.0569 12.7137 15.427 11.9998 15.427Z" fill="#BF283A"/>
<path d="M11.9997 18.9997C12.7142 18.9997 13.2934 18.4205 13.2934 17.706C13.2934 16.9915 12.7142 16.4124 11.9997 16.4124C11.2853 16.4124 10.7061 16.9915 10.7061 17.706C10.7061 18.4205 11.2853 18.9997 11.9997 18.9997Z" fill="#BF283A"/>
<path d="M11.9997 18.6226C12.506 18.6226 12.9165 18.2122 12.9165 17.7059C12.9165 17.1996 12.506 16.7892 11.9997 16.7892C11.4934 16.7892 11.083 17.1996 11.083 17.7059C11.083 18.2122 11.4934 18.6226 11.9997 18.6226Z" stroke="#BF283A" stroke-width="0.753887" stroke-miterlimit="10" stroke-linecap="round"/>
</svg>
