<svg width="148" height="91" viewBox="0 0 148 91" fill="none" xmlns="http://www.w3.org/2000/svg">
<path opacity="0.2" d="M78.4377 91C111.616 91 138.513 88.5959 138.513 85.6302C138.513 82.6645 111.616 80.2603 78.4377 80.2603C45.2593 80.2603 18.3628 82.6645 18.3628 85.6302C18.3628 88.5959 45.2593 91 78.4377 91Z" fill="#C8D3D9"/>
<path d="M26.7753 84.8448C74.6608 84.0461 108.504 83.8716 121.378 84.8448C122.734 84.9455 126.882 85.2878 131.487 83.4151C140.293 79.8307 145.583 70.2389 147.14 62.7346C150.181 48.0682 141.367 29.9316 128.003 24.1725C110.652 16.695 97.9926 33.1334 80.0171 24.6289C68.2438 19.0644 69.7474 8.20396 56.4235 3.0892C44.5427 -1.46844 32.9842 2.72003 30.5476 3.60605C9.75967 11.1372 -1.96669 35.6639 0.610823 55.7068C1.0337 58.9891 2.79232 73.152 13.5186 80.3879C18.4387 83.7037 23.5467 84.5898 26.7686 84.8448H26.7753Z" fill="url(#paint0_linear_7411_89786)"/>
<path d="M143.039 61.3987L141.623 61.2041C141.475 60.5731 141.227 59.9623 140.898 59.4119L141.777 58.2641C142.233 57.6533 142.2 56.7941 141.663 56.2773L140.804 55.398C140.723 55.3241 140.643 55.257 140.549 55.21C140.025 54.8811 139.32 54.908 138.797 55.2973L137.669 56.1632C137.112 55.8343 136.501 55.5859 135.87 55.4181L135.682 53.9817C135.568 53.2165 134.937 52.6459 134.185 52.6459H132.944C132.219 52.6459 131.568 53.2165 131.474 53.9817L131.286 55.398C130.655 55.5456 130.037 55.794 129.487 56.1229L128.339 55.2637C127.728 54.7871 126.869 54.8207 126.332 55.3577L125.473 56.2169C124.936 56.7538 124.896 57.613 125.359 58.2238L126.218 59.3515C125.889 59.9086 125.641 60.5194 125.473 61.1504L124.057 61.3383C123.291 61.4524 122.701 62.0834 122.701 62.8352V64.0568C122.701 64.8019 123.291 65.453 124.057 65.5469L125.453 65.7349C125.607 66.3658 125.855 66.9834 126.178 67.5338L125.318 68.6816C124.862 69.2924 124.896 70.1516 125.412 70.6885L126.292 71.5477C126.58 71.8363 126.963 71.9706 127.346 71.9706C127.668 71.9706 128.017 71.8766 128.299 71.6618L129.426 70.8027C129.984 71.1316 130.594 71.3799 131.225 71.5477L131.413 72.964C131.514 73.7292 132.165 74.3199 132.89 74.3199H134.132C134.877 74.3199 135.508 73.7292 135.622 72.964L135.816 71.5679C136.447 71.3933 137.058 71.145 137.609 70.8429L138.756 71.7021C139.045 71.9102 139.367 72.0243 139.716 72.0243C140.092 72.0243 140.475 71.8766 140.743 71.6081L141.623 70.7288C142.16 70.1918 142.2 69.3729 141.723 68.7218L140.857 67.5942C141.186 67.0371 141.455 66.4262 141.602 65.7953L143.039 65.6073C143.804 65.5067 144.375 64.8757 144.375 64.1306V62.8889C144.375 62.1438 143.804 61.5128 143.039 61.3987ZM133.541 60.365C135.259 60.365 136.656 61.7612 136.656 63.4795C136.656 65.1979 135.259 66.5806 133.541 66.5806C131.823 66.5806 130.44 65.1845 130.44 63.4795C130.44 61.7746 131.836 60.365 133.541 60.365Z" fill="white" stroke="#C8D3D9" stroke-width="2" stroke-miterlimit="10"/>
<path opacity="0.3" d="M144.374 62.8888V64.1306C144.374 64.8757 143.804 65.5066 143.039 65.6073L141.602 65.7952C141.454 66.4262 141.186 67.037 140.857 67.5941L141.723 68.7218C142.199 69.3729 142.159 70.1918 141.622 70.7288L140.743 71.6081C140.474 71.8766 140.092 72.0243 139.716 72.0243C139.367 72.0243 139.045 71.9101 138.756 71.7021L137.608 70.8429C137.058 71.1449 136.447 71.3933 135.816 71.5678L135.621 72.964C135.507 73.7292 134.876 74.3199 134.131 74.3199H132.89C132.165 74.3199 131.514 73.7292 131.413 72.964L131.225 71.5477C130.594 71.3799 129.983 71.1315 129.426 70.8026L128.298 71.6618C128.016 71.8766 127.667 71.9706 127.345 71.9706C126.963 71.9706 126.58 71.8363 126.291 71.5477L125.412 70.6885C124.895 70.1515 124.862 69.2923 125.318 68.6815L126.177 67.5337C125.855 66.9833 125.607 66.3658 125.452 65.7348C126.009 66.3994 128.171 68.8359 131.728 69.2319C132.655 69.3326 135.225 69.6212 137.427 67.9029C139.199 66.5135 139.716 64.6206 139.87 64.0433C140.917 59.9623 137.998 56.5323 137.669 56.1631C138.42 55.8074 139.421 55.4113 140.548 55.21C140.642 55.257 140.723 55.3241 140.803 55.3979L141.663 56.2772C142.199 56.7941 142.233 57.6532 141.777 58.2641L140.897 59.4119C141.226 59.9623 141.475 60.5731 141.622 61.204L143.039 61.3987C143.804 61.5128 144.374 62.1438 144.374 62.8888Z" fill="#C8D3D9"/>
<path d="M38.7432 9.76134L37.327 9.56668C37.1793 8.93573 36.9309 8.32491 36.602 7.77451L37.4813 6.6267C37.9378 6.01589 37.9042 5.15671 37.3672 4.63987L36.5081 3.76056C36.4275 3.68672 36.347 3.6196 36.253 3.57261C35.7294 3.24371 35.0246 3.27056 34.5011 3.65987L33.3734 4.52576C32.8163 4.19686 32.2055 3.9485 31.5745 3.78069L31.3866 2.34427C31.2725 1.57907 30.6415 1.00852 29.8897 1.00852H28.648C27.923 1.00852 27.272 1.57907 27.178 2.34427L26.99 3.76056C26.3591 3.90823 25.7415 4.15658 25.1911 4.48549L24.0433 3.62631C23.4325 3.14974 22.5734 3.1833 22.0364 3.72028L21.1772 4.57946C20.6402 5.11644 20.5999 5.97561 21.0631 6.58643L21.9223 7.71409C21.5934 8.27121 21.345 8.88203 21.1772 9.51299L19.7609 9.70093C18.9957 9.81504 18.405 10.446 18.405 11.1978V12.4194C18.405 13.1645 18.9957 13.8156 19.7609 13.9095L21.1571 14.0975C21.3115 14.7284 21.5598 15.346 21.882 15.8964L21.0228 17.0442C20.5664 17.655 20.5999 18.5142 21.1168 19.0511L21.9961 19.9103C22.2847 20.1989 22.6673 20.3332 23.0499 20.3332C23.3721 20.3332 23.7212 20.2392 24.0031 20.0244L25.1307 19.1653C25.6879 19.4942 26.2987 19.7425 26.9296 19.9103L27.1176 21.3266C27.2182 22.0918 27.8693 22.6825 28.5943 22.6825H29.836C30.5811 22.6825 31.2121 22.0918 31.3262 21.3266L31.5208 19.9305C32.1518 19.7559 32.7626 19.5076 33.313 19.2055L34.4608 20.0647C34.7494 20.2728 35.0716 20.3869 35.4207 20.3869C35.7966 20.3869 36.1792 20.2392 36.4477 19.9707L37.327 19.0914C37.8639 18.5544 37.9042 17.7355 37.4276 17.0844L36.5618 15.9568C36.8907 15.3997 37.1592 14.7888 37.3068 14.1579L38.7432 13.9699C39.5084 13.8693 40.079 13.2383 40.079 12.4932V11.2515C40.079 10.5064 39.5084 9.87545 38.7432 9.76134ZM29.2454 8.72765C30.9637 8.72765 32.3599 10.1238 32.3599 11.8421C32.3599 13.5605 30.9637 14.9432 29.2454 14.9432C27.527 14.9432 26.1443 13.5471 26.1443 11.8421C26.1443 10.1372 27.5404 8.72765 29.2454 8.72765Z" fill="white" stroke="#C8D3D9" stroke-width="2" stroke-miterlimit="10"/>
<path opacity="0.3" d="M40.0789 11.2515V12.4933C40.0789 13.2383 39.5083 13.8693 38.7431 13.97L37.3067 14.1579C37.159 14.7889 36.8905 15.3997 36.5616 15.9568L37.4275 17.0845C37.9041 17.7356 37.8638 18.5545 37.3268 19.0914L36.4475 19.9708C36.179 20.2392 35.7964 20.3869 35.4205 20.3869C35.0715 20.3869 34.7493 20.2728 34.4607 20.0647L33.3129 19.2056C32.7625 19.5076 32.1516 19.756 31.5207 19.9305L31.3261 21.3266C31.2119 22.0918 30.581 22.6825 29.8359 22.6825H28.5941C27.8692 22.6825 27.2181 22.0918 27.1174 21.3266L26.9295 19.9103C26.2985 19.7425 25.6877 19.4942 25.1306 19.1653L24.0029 20.0244C23.721 20.2392 23.372 20.3332 23.0498 20.3332C22.6672 20.3332 22.2846 20.199 21.996 19.9103L21.1167 19.0512C20.5998 18.5142 20.5663 17.655 21.0227 17.0442L21.8819 15.8964C21.5597 15.346 21.3113 14.7285 21.1569 14.0975C21.7141 14.762 23.8754 17.1986 27.4329 17.5946C28.3592 17.6953 30.93 17.9839 33.1317 16.2656C34.9037 14.8761 35.4205 12.9833 35.5749 12.406C36.622 8.32494 33.7022 4.89496 33.3733 4.52578C34.1251 4.17003 35.1252 3.77401 36.2529 3.57264C36.3468 3.61963 36.4274 3.68675 36.5079 3.76058L37.3671 4.63989C37.9041 5.15674 37.9376 6.01591 37.4812 6.62673L36.6019 7.77453C36.9308 8.32494 37.1792 8.93576 37.3268 9.56671L38.7431 9.76137C39.5083 9.87547 40.0789 10.5064 40.0789 11.2515Z" fill="#C8D3D9"/>
<path d="M123.576 35.3521L118.358 34.6447C117.794 32.318 116.875 30.0657 115.678 28.0181L118.923 23.7927C120.61 21.5342 120.474 18.3636 118.501 16.4588L115.324 13.2199C113.351 11.3151 110.18 11.1724 107.922 12.8663L103.765 16.0369C101.723 14.8394 99.4649 13.9211 97.1382 13.2882L96.437 8.0018C96.0089 5.17867 93.6884 3.06908 90.9335 3.06908H86.3544C83.674 3.06908 81.279 5.17867 80.9253 8.0018L80.2242 13.2199C77.8974 13.7784 75.6389 14.6967 73.5976 15.8942L69.366 12.7236C67.1075 10.9614 63.9369 11.1041 61.9638 13.0772L58.7932 16.2478C56.8201 18.2209 56.6774 21.3915 58.3713 23.65L61.5419 27.8072C60.3444 29.8547 59.4261 32.107 58.7932 34.4338L53.5751 35.1411C50.7581 35.563 48.5679 37.8898 48.5679 40.6385V45.1493C48.5679 47.8979 50.7581 50.2929 53.5751 50.6466L58.7187 51.354C58.8801 52.0116 59.0662 52.6631 59.2834 53.3084C59.2834 53.3146 59.2896 53.3146 59.2896 53.3208C59.8294 54.9465 60.5429 56.5162 61.3992 57.9806L58.2286 62.2122C56.5347 64.4645 56.6774 67.635 58.5822 69.6081L61.8211 72.7849C62.8821 73.8397 64.2905 74.3361 65.699 74.3361C66.8965 74.3361 68.1685 73.9824 69.2233 73.2069L73.3804 70.0363C75.428 71.2338 77.6865 72.1459 80.007 72.7849L80.7144 77.9969C81.068 80.82 83.463 83.0041 86.1435 83.0041H90.7225C93.4712 83.0041 95.7979 80.82 96.2261 77.9969L96.9272 72.8532C99.254 72.2203 101.512 71.302 103.554 70.1728L107.785 73.3496C108.84 74.1251 110.038 74.5471 111.31 74.5471C112.718 74.5471 114.127 73.9824 115.113 72.9959L118.358 69.7508C120.331 67.7778 120.474 64.7499 118.712 62.3487L115.541 58.1915C116.739 56.144 117.725 53.8917 118.29 51.5649L123.576 50.8576C126.393 50.5101 128.509 48.1834 128.509 45.4347V40.8494C128.509 38.1007 126.393 35.774 123.576 35.3521ZM98.4101 48.8721C96.3998 52.2102 92.7328 54.4563 88.5385 54.4563C85.8518 54.4563 83.3699 53.5132 81.4217 51.9434C80.3297 51.0685 79.399 49.9951 78.6916 48.7852C77.6927 47.0913 77.1218 45.1244 77.1218 43.0335C77.1218 39.2238 78.9832 35.8422 81.825 33.7513C83.7112 32.3614 86.0318 31.5424 88.5385 31.5424C89.8849 31.5424 91.1755 31.772 92.373 32.2001C93.4091 32.5662 94.3709 33.0749 95.2457 33.7078C98.1433 35.7926 100.03 39.1928 100.03 43.0335C100.03 45.1617 99.4401 47.1596 98.4101 48.8721Z" fill="white" stroke="#C8D3D9" stroke-width="2" stroke-miterlimit="10"/>
<path d="M109.057 43.0334C109.057 54.3632 99.8745 63.5523 88.5386 63.5523C80.7579 63.5523 73.9886 59.2215 70.514 52.843H70.5078C68.9256 49.9206 68.0259 46.5825 68.0259 43.0334C68.0259 31.7037 77.2088 22.5145 88.5448 22.5145C94.2097 22.5145 99.3347 24.8103 103.045 28.5145C103.045 28.5145 103.045 28.5207 103.051 28.5207C106.762 32.2373 109.057 37.3686 109.057 43.0334Z" fill="url(#paint1_linear_7411_89786)" stroke="#C8D3D9" stroke-width="2" stroke-miterlimit="10"/>
<path opacity="0.3" d="M109.058 43.0332C109.058 54.363 99.8747 63.5521 88.5388 63.5521C80.7581 63.5521 73.9888 59.2212 70.5142 52.8428C71.9599 53.91 73.8026 55.0455 76.1542 55.9762C78.301 56.82 84.8656 59.395 92.0506 56.8262C98.5593 54.4932 103.678 48.6298 105.068 42.2824C106.204 37.0953 104.696 32.237 103.045 28.5266C106.756 32.2432 109.051 37.3745 109.051 43.0394L109.058 43.0332Z" fill="#C8D3D9"/>
<path d="M88.5443 41.7613C85.3737 41.7613 82.6871 39.3973 82.29 36.2577C82.2527 35.9971 82.2341 35.7303 82.2341 35.4573C82.2341 31.9827 85.0635 29.1533 88.5381 29.1533C88.6932 29.1533 88.8483 29.1533 89.0034 29.1719C92.2795 29.4139 94.842 32.175 94.842 35.4573C94.842 38.9319 92.0127 41.7613 88.5381 41.7613H88.5443Z" fill="white"/>
<path d="M88.5443 29.7676C88.687 29.7676 88.8235 29.7676 88.9724 29.7862C91.9197 30.0034 94.234 32.4915 94.234 35.4573C94.234 38.5907 91.6839 41.1408 88.5505 41.1408C85.6964 41.1408 83.2703 39.0064 82.9105 36.1646C82.8794 35.9351 82.8608 35.6993 82.8608 35.4573C82.8608 32.3239 85.4109 29.7738 88.5443 29.7738V29.7676ZM88.5443 28.5329C84.716 28.5329 81.6199 31.6352 81.6199 35.4573C81.6199 35.7551 81.6385 36.053 81.6819 36.3384C82.11 39.751 85.02 42.3817 88.5505 42.3817C92.3788 42.3817 95.4749 39.2794 95.4749 35.4573C95.4749 31.6352 92.6518 28.8121 89.0655 28.5515C88.8918 28.5391 88.718 28.5329 88.5505 28.5329H88.5443Z" fill="#C8D3D9"/>
<path d="M83.7853 55.1013C82.5382 55.1013 81.3655 54.6174 80.4844 53.7363C79.6034 52.8552 79.1194 51.6826 79.1194 50.4416C79.1194 50.0445 79.1504 49.6847 79.2125 49.3434C79.7461 46.3279 82.352 44.1501 85.4109 44.1501H91.6777C92.1058 44.1501 92.5277 44.1935 92.931 44.2742C94.1409 44.5161 95.2454 45.1118 96.1264 45.9929C97.3177 47.1842 97.9692 48.7602 97.9692 50.4416C97.9692 53.0166 95.872 55.1075 93.2971 55.1075H83.7853V55.1013Z" fill="white"/>
<path d="M91.6778 44.7644C92.0625 44.7644 92.441 44.8016 92.8132 44.8823C93.8991 45.0994 94.8918 45.6331 95.6922 46.4335C96.7656 47.5069 97.3551 48.9277 97.3551 50.4417C97.3551 52.6692 95.5371 54.4871 93.3034 54.4871H83.7916C82.712 54.4871 81.6944 54.0652 80.9251 53.302C80.1619 52.5389 79.74 51.5213 79.74 50.4417C79.74 50.088 79.771 49.7592 79.8268 49.4489C80.3108 46.7375 82.6562 44.7706 85.4111 44.7706H91.6778V44.7644ZM91.6778 43.5297H85.4111C82.0047 43.5297 79.1815 45.9867 78.6045 49.2318C78.5301 49.6227 78.499 50.026 78.499 50.4417C78.499 51.906 79.0947 53.2214 80.0502 54.1769C81.0057 55.1324 82.3273 55.7281 83.7916 55.7281H93.3034C96.2258 55.7281 98.596 53.3641 98.596 50.4417C98.596 48.5306 97.8204 46.8057 96.5671 45.5524C95.624 44.6093 94.414 43.9392 93.0552 43.6662C92.6085 43.5731 92.1493 43.5297 91.6778 43.5297Z" fill="#C8D3D9"/>
<path opacity="0.3" d="M95.4693 35.4511C95.4693 39.2794 92.3669 42.3756 88.5449 42.3756C85.0144 42.3756 82.1106 39.7386 81.6763 36.3322C82.6876 38.1129 85.7155 39.7634 88.6441 38.7086C91.3866 37.722 92.9068 34.7624 92.4911 32.6218C92.1002 30.6363 90.0526 29.4388 89.0599 28.5453C92.6462 28.8121 95.4693 31.7966 95.4693 35.4511Z" fill="#C8D3D9"/>
<path opacity="0.3" d="M98.5901 50.4417C98.5901 53.3641 96.2199 55.7281 93.2975 55.7281H83.7858C82.3215 55.7281 81.0061 55.1386 80.0443 54.1769C79.0826 53.2152 78.4932 51.906 78.4932 50.4417C78.4932 50.026 78.5242 49.6227 78.5986 49.2318C79.1757 50.088 80.3484 51.5647 82.3401 52.4148C83.3887 52.8615 84.7103 52.9049 87.3535 52.9794C87.3535 52.9794 91.7091 53.1035 93.6078 51.937C93.8001 51.8191 94.2655 51.5337 94.6129 50.9691C94.6129 50.9691 94.8735 50.4541 95.0162 49.753C95.6119 46.843 93.6016 44.3301 93.0431 43.6724C94.402 43.9454 95.6119 44.6217 96.555 45.5586C97.8083 46.8119 98.5839 48.5306 98.5839 50.4479L98.5901 50.4417Z" fill="#C8D3D9"/>
<path opacity="0.3" d="M128.509 40.9215V45.5113C128.509 48.2627 126.402 50.5918 123.597 50.9396L118.334 51.6477C117.772 53.9767 116.79 56.2313 115.597 58.2809L118.754 62.4421C120.509 64.8458 120.366 67.8767 118.402 69.8517L115.171 73.1C114.189 74.0875 112.786 74.6527 111.384 74.6527C110.117 74.6527 108.925 74.2304 107.875 73.454L103.662 70.2741C101.629 71.4044 99.3804 72.3236 97.0637 72.9571L96.3656 78.106C95.9394 80.9319 93.6227 83.1181 90.8859 83.1181H86.3267C83.6579 83.1181 81.2732 80.9319 80.9211 78.106L80.2168 72.8888C77.9063 72.2491 75.6576 71.3361 73.6189 70.1374L69.4798 73.3112C68.4295 74.0875 67.1631 74.4415 65.9707 74.4415C64.5684 74.4415 63.166 73.9447 62.1096 72.8888L58.8848 69.7089C56.9882 67.7338 56.8461 64.5601 58.5326 62.3055L61.6895 58.0697C60.837 56.6039 60.1265 55.0326 59.589 53.4053C61.0594 56.2002 65.6063 63.9203 75.1139 68.2804C77.3812 69.3176 87.8032 74.1062 99.2507 69.3921C108.344 65.647 112.558 58.1815 113.645 56.1878C116.647 50.6725 117.111 45.5796 117.352 42.6295C117.858 36.313 116.691 31.1828 115.733 28.0774C116.925 30.127 117.84 32.3815 118.402 34.7106L123.597 35.4186C126.402 35.841 128.509 38.1701 128.509 40.9215Z" fill="#C8D3D9"/>
<path opacity="0.6" d="M121.396 10.4526C123.064 10.4526 124.417 9.10024 124.417 7.43204C124.417 5.76385 123.064 4.41151 121.396 4.41151C119.728 4.41151 118.375 5.76385 118.375 7.43204C118.375 9.10024 119.728 10.4526 121.396 10.4526Z" fill="url(#paint2_linear_7411_89786)"/>
<path opacity="0.6" d="M24.1238 65.6411C29.8846 65.6411 34.5547 60.971 34.5547 55.2102C34.5547 49.4494 29.8846 44.7793 24.1238 44.7793C18.3629 44.7793 13.6929 49.4494 13.6929 55.2102C13.6929 60.971 18.3629 65.6411 24.1238 65.6411Z" fill="url(#paint3_linear_7411_89786)"/>
<path d="M27.76 84.959H128.142" stroke="#C8D3D9" stroke-width="2" stroke-linecap="round" stroke-linejoin="round"/>
<path d="M59.325 88.3618H96.8142" stroke="#C8D3D9" stroke-width="2" stroke-linecap="round" stroke-linejoin="round"/>
<path d="M100.879 88.3618H104.864" stroke="#C8D3D9" stroke-width="2" stroke-linecap="round" stroke-linejoin="round"/>
<defs>
<linearGradient id="paint0_linear_7411_89786" x1="78.5874" y1="-8.02634" x2="55.0072" y2="306.142" gradientUnits="userSpaceOnUse">
<stop stop-color="white"/>
<stop offset="1" stop-color="#9BD5FF"/>
</linearGradient>
<linearGradient id="paint1_linear_7411_89786" x1="81.6948" y1="16.6387" x2="123.967" y2="179.648" gradientUnits="userSpaceOnUse">
<stop stop-color="white"/>
<stop offset="1" stop-color="#C3E6FF"/>
</linearGradient>
<linearGradient id="paint2_linear_7411_89786" x1="117.488" y1="4.26101" x2="124.213" y2="9.67229" gradientUnits="userSpaceOnUse">
<stop stop-color="white"/>
<stop offset="1" stop-color="#9BD5FF"/>
</linearGradient>
<linearGradient id="paint3_linear_7411_89786" x1="10.5919" y1="44.2802" x2="33.7964" y2="62.9623" gradientUnits="userSpaceOnUse">
<stop stop-color="white"/>
<stop offset="1" stop-color="#9BD5FF"/>
</linearGradient>
</defs>
</svg>
