<svg width="24" height="24" viewBox="0 0 24 24" fill="none" xmlns="http://www.w3.org/2000/svg">
<path d="M2.5 17.9291C2.5 16.7495 2.98154 15.6671 3.75887 14.8874C3.81092 14.8381 3.86246 14.7901 3.91408 14.7435C3.86375 14.7899 3.81468 14.8374 3.76645 14.8856C2.95365 15.6984 2.5 16.7852 2.5 17.9291ZM2.5 17.9291C2.5 19.6812 3.92437 21.0991 5.68 21.0991C3.92508 21.0991 2.5 19.6765 2.5 17.9291ZM4.31553 14.4196L4.31561 14.4197L4.32501 14.4128C4.76389 14.0921 5.27258 13.8591 5.82214 13.7315C5.28736 13.856 4.78251 14.0832 4.33367 14.4091C4.28057 14.4448 4.2293 14.4817 4.17958 14.5196C4.22403 14.4852 4.26923 14.4518 4.31553 14.4196Z" fill="#354752" stroke="#607079"/>
<path d="M13.9297 11.2798C14.2597 11.4198 15.6197 11.9698 17.0297 11.3898C18.7097 10.6898 20.0397 8.55979 19.2197 6.48979C18.4597 4.57979 16.2297 3.61979 14.2797 4.41979C14.5597 4.86979 15.3197 6.21979 15.1797 8.05979C15.0497 9.71979 14.2697 10.8498 13.9397 11.2798H13.9297Z" stroke="#607079" stroke-linecap="round" stroke-linejoin="round"/>
<path d="M15.9204 20.8396H18.6904C20.5204 20.8496 22.0104 19.4996 22.0104 17.8196C22.0104 16.7296 21.5304 15.7296 20.7304 15.0196C19.9504 14.2996 18.8604 13.8496 17.6704 13.8496H15.3604C15.5904 14.0296 17.1104 15.2896 17.1804 17.4396C17.2404 19.3196 16.1604 20.5696 15.9204 20.8296V20.8396Z" stroke="#607079" stroke-linecap="round" stroke-linejoin="round"/>
<path d="M8.97977 11.94C11.4485 11.94 13.4498 9.93871 13.4498 7.47C13.4498 5.00129 11.4485 3 8.97977 3C6.51105 3 4.50977 5.00129 4.50977 7.47C4.50977 9.93871 6.51105 11.94 8.97977 11.94Z" stroke="#607079" stroke-miterlimit="10"/>
</svg>
