<svg width="24" height="24" viewBox="0 0 24 24" fill="none" xmlns="http://www.w3.org/2000/svg">
<path d="M20.36 5.63959H17.65C17.59 5.49959 17.51 5.3596 17.42 5.2196L17.02 4.57959C16.57 3.85959 15.85 3.34961 15.29 3.34961H8.71C8.15 3.34961 7.44 3.85959 6.98 4.57959L6.58 5.2196C6.49 5.3596 6.41 5.49959 6.35 5.63959H3.65C2.19 5.63959 1 6.82961 1 8.28961V17.9996C1 19.4596 2.19 20.6396 3.65 20.6396H20.36C21.81 20.6396 23 19.4596 23 17.9996V8.28961C23 6.82961 21.81 5.63959 20.36 5.63959ZM12.01 18.3296C9.08 18.3296 6.71 15.9496 6.71 13.0196C6.71 10.0896 9.08 7.7196 12.01 7.7196C14.94 7.7196 17.31 10.0996 17.31 13.0196C17.31 15.9396 14.93 18.3296 12.01 18.3296ZM19.39 9.79959C18.89 9.79959 18.48 9.38959 18.48 8.88959C18.48 8.38959 18.89 7.9696 19.39 7.9696C19.89 7.9696 20.31 8.37959 20.31 8.88959C20.31 9.39959 19.9 9.79959 19.39 9.79959Z" fill="#354752"/>
<path d="M15.8109 13.0197C15.8109 15.1197 14.1009 16.8297 12.0109 16.8297C9.92094 16.8297 8.21094 15.1197 8.21094 13.0197C8.21094 10.9197 9.91094 9.21973 12.0109 9.21973C14.1109 9.21973 15.8109 10.9297 15.8109 13.0197Z" fill="#354752"/>
</svg>
