<svg width="24" height="24" viewBox="0 0 24 24" fill="none" xmlns="http://www.w3.org/2000/svg">
<path d="M20.35 5.64999H17.65C17.59 5.50999 17.51 5.37001 17.41 5.23001L17.02 4.59C16.57 3.87 15.85 3.35999 15.29 3.35999H8.71C8.15 3.35999 7.44 3.87 6.98 4.59L6.58 5.23001C6.48 5.37001 6.41 5.50999 6.35 5.64999H3.65C2.19 5.64999 1 6.83999 1 8.29999V18.01C1 19.47 2.19 20.65 3.65 20.65H20.35C21.81 20.65 23 19.47 23 18.01V8.29999C23 6.83999 21.81 5.64999 20.35 5.64999ZM22 18.01C22 18.92 21.26 19.65 20.35 19.65H3.65C2.73 19.65 2 18.92 2 18.01V8.29999C2 7.38999 2.73 6.64999 3.65 6.64999H7.09C7.09 6.49999 7.16 6.17999 7.41 5.76999L7.5 5.64999L7.83 5.12C8.14 4.63 8.57 4.35999 8.71 4.35999H15.29C15.42 4.35999 15.85 4.63 16.16 5.12L16.5 5.64999L16.58 5.76999C16.84 6.17999 16.91 6.49999 16.91 6.64999H20.35C21.26 6.64999 22 7.38999 22 8.29999V18.01Z" fill="#354752"/>
<path d="M11.9992 18.33C9.07922 18.33 6.69922 15.95 6.69922 13.03C6.69922 10.11 9.07922 7.73001 11.9992 7.73001C14.9192 7.73001 17.2992 10.11 17.2992 13.03C17.2992 15.95 14.9192 18.33 11.9992 18.33ZM11.9992 9.23001C9.89922 9.23001 8.19922 10.94 8.19922 13.03C8.19922 15.12 9.90922 16.83 11.9992 16.83C14.0892 16.83 15.7992 15.12 15.7992 13.03C15.7992 10.94 14.0892 9.23001 11.9992 9.23001Z" fill="#354752"/>
<path d="M20.2987 8.89999C20.2987 9.39999 19.8887 9.81 19.3887 9.81C18.8887 9.81 18.4688 9.39999 18.4688 8.89999C18.4688 8.39999 18.8787 7.98001 19.3887 7.98001C19.8987 7.98001 20.2987 8.38999 20.2987 8.89999Z" fill="#354752"/>
</svg>
