<svg width="24" height="24" viewBox="0 0 24 24" fill="none" xmlns="http://www.w3.org/2000/svg">
<path d="M17.2641 14.6661C17.1905 14.666 17.1185 14.6441 17.0573 14.6032C16.9961 14.5622 16.9483 14.5041 16.9201 14.4361C16.8919 14.368 16.8844 14.2932 16.8986 14.221C16.9129 14.1487 16.9482 14.0823 17.0001 14.0301L17.8612 13.1701C17.8952 13.1329 17.9363 13.1031 17.9821 13.0823C18.028 13.0615 18.0777 13.0503 18.128 13.0492C18.1783 13.0481 18.2284 13.0572 18.2751 13.076C18.3218 13.0947 18.3642 13.1227 18.3999 13.1584C18.4355 13.194 18.4635 13.2364 18.4823 13.2831C18.501 13.3298 18.5101 13.3799 18.509 13.4302C18.5079 13.4805 18.4967 13.5302 18.4759 13.576C18.4551 13.6219 18.4253 13.663 18.3881 13.697L17.5271 14.5571C17.4926 14.5917 17.4517 14.6192 17.4066 14.6379C17.3614 14.6566 17.313 14.6662 17.2641 14.6661Z" fill="#354752"/>
<path d="M18.4812 16.477H17.2642C17.2152 16.477 17.1667 16.4674 17.1215 16.4486C17.0762 16.4299 17.035 16.4024 17.0004 16.3677C16.9657 16.3331 16.9383 16.292 16.9196 16.2467C16.9008 16.2014 16.8911 16.153 16.8911 16.104C16.8911 16.055 16.9008 16.0065 16.9196 15.9612C16.9383 15.916 16.9657 15.8748 17.0004 15.8402C17.035 15.8056 17.0762 15.7781 17.1215 15.7594C17.1667 15.7407 17.2152 15.731 17.2642 15.731H18.4812C18.5801 15.731 18.6749 15.7703 18.7449 15.8402C18.8148 15.9102 18.8541 16.0051 18.8541 16.104C18.8541 16.2029 18.8148 16.2978 18.7449 16.3677C18.6749 16.4377 18.5801 16.477 18.4812 16.477Z" fill="#354752"/>
<path d="M18.1244 19.1469C18.0755 19.1471 18.0271 19.1376 17.9819 19.1189C17.9367 19.1002 17.8958 19.0727 17.8614 19.0379L17.0003 18.1779C16.9354 18.1071 16.9003 18.0139 16.9024 17.9178C16.9045 17.8217 16.9436 17.7302 17.0116 17.6622C17.0795 17.5942 17.1711 17.5552 17.2672 17.5531C17.3633 17.551 17.4565 17.586 17.5273 17.651L18.3884 18.511C18.4408 18.563 18.4765 18.6295 18.4911 18.7019C18.5056 18.7743 18.4981 18.8494 18.4698 18.9176C18.4415 18.9858 18.3935 19.044 18.332 19.0849C18.2705 19.1257 18.1982 19.1473 18.1244 19.1469Z" fill="#354752"/>
<path d="M6.46631 19.8176V21.0754C6.48401 21.0771 6.50342 21.0781 6.52429 21.0781H6.61426C6.82983 21.0781 7.02905 20.9793 7.08936 20.9194L7.57178 19.821H6.62134C6.5697 19.821 6.51807 19.8199 6.46631 19.8176ZM5.46631 18.5601C5.81628 18.7241 6.2113 18.821 6.62134 18.821H9.10327L7.99329 21.348C7.80627 21.7731 7.19531 22.0781 6.61426 22.0781H6.52429C5.94324 22.0781 5.46631 21.7731 5.46631 21.348V18.5601Z" fill="#354752"/>
<path d="M13.9923 12.6001L11.1593 14.3869H6.62134C6.05542 14.3869 5.53088 14.6758 5.21814 15.1597L5.21216 15.1689C5.03516 15.4364 4.94531 15.7372 4.94531 16.0629V16.1449C4.94531 16.4504 5.02466 16.7437 5.1748 16.9929L5.17981 17.0013C5.34534 17.2823 5.59314 17.509 5.89661 17.6572C6.12744 17.7643 6.37781 17.8209 6.62134 17.8209H11.1593L13.9923 19.6078V12.6001ZM14.3815 11.281C14.6981 11.281 14.9923 11.5333 14.9923 11.8889V20.3189C14.9923 20.7959 14.4634 21.0868 14.0603 20.8329L10.8702 18.8209H6.62134C6.2113 18.8209 5.81628 18.7239 5.46631 18.5599C4.98926 18.3289 4.5863 17.9639 4.31824 17.5089C4.08032 17.114 3.94531 16.6439 3.94531 16.1449V16.0629C3.94531 15.5259 4.10229 15.0339 4.3783 14.6169C4.85522 13.8789 5.68225 13.3869 6.62134 13.3869H10.8702L14.0603 11.3749C14.1628 11.3104 14.2734 11.281 14.3815 11.281Z" fill="#354752"/>
<path d="M14.9922 13.678C15.8121 14.177 16.3562 15.079 16.3562 16.108C16.3562 17.136 15.8121 18.038 14.9922 18.538V13.678Z" fill="#354752"/>
<path d="M10.8701 13.387V18.821" stroke="#354752" stroke-miterlimit="10"/>
<path d="M12.1533 11.422C12.0881 11.4217 12.0236 11.4087 11.9633 11.384C11.8716 11.3463 11.7932 11.2823 11.738 11.2001C11.6829 11.1178 11.6534 11.0211 11.6533 10.922V9.41101C11.3128 9.17234 11.0349 8.85494 10.8434 8.48584C10.6519 8.11674 10.5523 7.70685 10.5532 7.29102V4.53699C10.553 3.84458 10.8275 3.18033 11.3164 2.69006C11.8054 2.1998 12.4689 1.92359 13.1613 1.922H17.4443C18.1368 1.92359 18.8003 2.19977 19.2894 2.69C19.7785 3.18024 20.0532 3.84448 20.0532 4.53699V7.28699C20.0527 7.97877 19.7777 8.64206 19.2886 9.13123C18.7994 9.62039 18.1361 9.89547 17.4443 9.896H13.8683L12.5073 11.27C12.4613 11.3174 12.4062 11.3554 12.3455 11.3815C12.2847 11.4076 12.2195 11.4213 12.1533 11.422ZM13.1633 2.922C12.7361 2.92332 12.3267 3.09413 12.0253 3.39691C11.7238 3.6997 11.5548 4.10971 11.5553 4.53699V7.28699C11.5545 7.57411 11.6317 7.85607 11.7788 8.10266C11.9259 8.34926 12.1373 8.55124 12.3903 8.68701C12.4697 8.72979 12.5361 8.79326 12.5824 8.87073C12.6287 8.94819 12.6533 9.03677 12.6533 9.12701V9.70001L13.3063 9.04199C13.3528 8.99511 13.4081 8.9579 13.469 8.9325C13.5299 8.90709 13.5952 8.894 13.6613 8.89398H17.4463C17.8729 8.89345 18.2817 8.72375 18.5834 8.42212C18.885 8.12049 19.0548 7.71154 19.0553 7.28497V4.53699C19.0556 4.10962 18.8864 3.69961 18.5847 3.39685C18.2831 3.09409 17.8737 2.92332 17.4463 2.922H13.1633Z" fill="#354752"/>
<path d="M17.6064 6.37207H13.0063C12.8737 6.37207 12.7466 6.31935 12.6528 6.22559C12.5591 6.13182 12.5063 6.00468 12.5063 5.87207C12.5063 5.73946 12.5591 5.61226 12.6528 5.51849C12.7466 5.42473 12.8737 5.37207 13.0063 5.37207H17.6064C17.7391 5.37207 17.8662 5.42473 17.96 5.51849C18.0537 5.61226 18.1064 5.73946 18.1064 5.87207C18.1064 6.00468 18.0537 6.13182 17.96 6.22559C17.8662 6.31935 17.7391 6.37207 17.6064 6.37207Z" fill="#354752"/>
<path d="M17.6064 4.90405H13.0063C12.8737 4.90405 12.7466 4.8514 12.6528 4.75763C12.5591 4.66386 12.5063 4.53666 12.5063 4.40405C12.5063 4.27144 12.5591 4.14424 12.6528 4.05048C12.7466 3.95671 12.8737 3.90405 13.0063 3.90405H17.6064C17.7391 3.90405 17.8662 3.95671 17.96 4.05048C18.0537 4.14424 18.1064 4.27144 18.1064 4.40405C18.1064 4.53666 18.0537 4.66386 17.96 4.75763C17.8662 4.8514 17.7391 4.90405 17.6064 4.90405Z" fill="#354752"/>
<path d="M14.9944 7.84009H13.0044C12.8718 7.84009 12.7446 7.78743 12.6509 7.69366C12.5571 7.5999 12.5044 7.4727 12.5044 7.34009C12.5044 7.20748 12.5571 7.08034 12.6509 6.98657C12.7446 6.8928 12.8718 6.84009 13.0044 6.84009H14.9944C15.127 6.84009 15.2541 6.8928 15.3479 6.98657C15.4417 7.08034 15.4944 7.20748 15.4944 7.34009C15.4944 7.4727 15.4417 7.5999 15.3479 7.69366C15.2541 7.78743 15.127 7.84009 14.9944 7.84009Z" fill="#354752"/>
</svg>
