<svg width="28" height="28" viewBox="0 0 28 28" fill="none" xmlns="http://www.w3.org/2000/svg">
<path d="M14 0.667236C6.66669 0.667236 0.666687 6.66724 0.666687 14.0006C0.666687 21.3339 6.66669 27.3339 14 27.3339C21.3334 27.3339 27.3334 21.3339 27.3334 14.0006C27.3334 6.66724 21.3334 0.667236 14 0.667236ZM19.6 11.7339L13.2 18.1339C12.6667 18.6672 11.8667 18.6672 11.3334 18.1339L8.40002 15.2006C7.86669 14.6672 7.86669 13.8672 8.40002 13.3339C8.93335 12.8006 9.73335 12.8006 10.2667 13.3339L12.2667 15.3339L17.7334 9.86724C18.2667 9.3339 19.0667 9.3339 19.6 9.86724C20.1334 10.4006 20.1334 11.2006 19.6 11.7339Z" fill="#13968E"/>
</svg>
