<svg width="48" height="48" viewBox="0 0 48 48" fill="none" xmlns="http://www.w3.org/2000/svg">
<circle cx="24" cy="24" r="24" fill="#F4F7FB"/>
<path d="M9.98668 28.3599C9.98668 28.3599 9.94668 28.3065 9.92001 28.2798C10.2133 29.2265 10.6133 30.1465 11.08 31.0132C11.2933 31.3999 11.6667 32.0399 12.24 32.7732C11.2533 31.4532 10.4933 29.9732 9.98668 28.3599Z" fill="#13968E"/>
<path d="M24 8C15.1733 8 8 15.1867 8 24C8 24.3733 8.01333 24.7466 8.04 25.12C8.25333 28.2666 9.38667 31.1733 11.1867 33.5733C11.36 33.8133 11.5467 34.0533 11.7733 34.3066C12.0667 34.6533 12.3733 34.9866 12.6933 35.3066C12.8667 35.48 13.04 35.6533 13.2267 35.8133C13.2267 35.84 13.2533 35.8533 13.28 35.8666C13.4533 36.0133 13.6267 36.1733 13.8 36.32C13.8 36.32 13.8133 36.3333 13.8267 36.3333C16.5867 38.6267 20.1333 40 24 40C27.04 40 29.8667 39.1467 32.2933 37.68C32.3067 37.6667 32.32 37.6667 32.32 37.6667C35.7733 35.5467 38.3733 32.16 39.4533 28.16C39.8133 26.8267 40 25.4267 40 24C40 15.1867 32.8267 8 24 8ZM31.72 36.4666C29.48 37.8666 26.84 38.6667 24 38.6667C20.3733 38.6667 17.08 37.36 14.5067 35.1733C14.28 34.9867 14.0667 34.8 13.8667 34.6C13.76 34.5067 13.6533 34.4 13.56 34.3066C13.2267 33.9733 12.9333 33.6533 12.68 33.3333C12.52 33.1467 12.3733 32.96 12.24 32.7734C11.6667 32.04 11.2933 31.4 11.08 31.0133C10.6133 30.1467 10.2133 29.2266 9.92 28.2799C9.94667 28.3066 9.96 28.3334 9.98667 28.36C10.9733 29.56 12 30.5733 13.0267 31.3467C14.2667 32.2933 15.1467 32.6133 16.0267 32.4533C16.4933 32.3866 16.8267 32.1867 17.1467 32.0133C17.4267 31.84 17.72 31.6667 18.2133 31.52C18.7733 31.3467 19.2533 31.3467 19.7067 31.3333C20.7867 31.32 21.6 31.6667 22.4933 32.08C23.2667 32.44 24.1467 32.84 25.2933 32.9733C26.7067 33.1466 27.8133 32.8533 28.72 32.6133C29.8 32.3199 30.4 32.1866 31.0667 32.6133C31.1867 32.6933 31.3067 32.7867 31.4267 32.9067C30.8533 33.2667 30.24 33.5733 29.6133 33.84C29.5067 33.88 29.4 33.9333 29.2933 33.9733C28.4 34.2666 27.3867 34.52 26.2533 34.7333C25.8933 34.8 25.7067 34.8267 25.5467 35.0667C25.44 35.2267 25.4 35.4266 25.4533 35.6133C25.5067 35.7999 25.6267 35.96 25.8 36.04C26.2267 36.2533 28.1733 35.84 29.7733 35.2133C31.4133 34.6666 32.72 33.9867 33.68 33.16C34.8133 32.1867 35.4133 31.4133 35.44 31.3733C35.7733 30.9333 35.9733 30.6 36.1333 30.3066C36.3467 29.96 36.48 29.7334 36.8 29.44C37.16 29.12 37.56 28.88 37.88 28.7467C36.7733 31.9733 34.5733 34.6933 31.72 36.4666ZM38.2933 27.2799C37.48 27.3066 36.4933 27.92 35.8933 28.4533C35.4267 28.88 35.2133 29.2533 34.9867 29.64C34.84 29.8933 34.6667 30.1867 34.3733 30.5733C34.3733 30.5733 33.8267 31.2666 32.8133 32.1466C32.76 32.1866 32.7067 32.2399 32.6533 32.2799C32.4 31.9599 32.1067 31.6933 31.7733 31.48C30.5867 30.7333 29.4667 31.0267 28.3733 31.32C27.5067 31.5467 26.6133 31.7867 25.4533 31.6533C24.52 31.5333 23.8 31.2133 23.0533 30.8666C22.0933 30.4266 21.08 30.0267 19.68 30C19.1867 30.0133 18.5733 30.0133 17.8133 30.2533C17.1867 30.44 16.8 30.6667 16.48 30.8534C16.2133 31 16.04 31.1066 15.8 31.1466C15.7467 31.16 15.68 31.16 15.6133 31.16C15.28 31.16 14.7733 31 13.8267 30.2933C12.3067 29.1333 10.76 27.4 9.4 25.2667C9.34667 24.8533 9.33333 24.4267 9.33333 24C9.33333 19.2667 11.5867 15.04 15.0933 12.36C15.4267 12.0934 15.7867 11.8533 16.1467 11.6133C18.4133 10.1733 21.1067 9.33333 24 9.33333C26.8933 9.33333 29.5867 10.1733 31.8533 11.6133C32.2133 11.8533 32.5733 12.0934 32.9067 12.36C36.4133 15.04 38.6667 19.2667 38.6667 24C38.6667 25.1333 38.5333 26.2266 38.2933 27.2799Z" fill="#13968E"/>
<path d="M34.9867 21.2666C34.9867 23.1599 34.1867 24.8666 32.9067 26.0532C31.7333 27.1732 30.16 27.8399 28.4267 27.8399C25.7867 27.8399 23.52 26.2799 22.48 24.0399L23.4933 23.0266C24.2133 25.0533 26.1467 26.5066 28.4267 26.5066C30.32 26.5066 31.9867 25.4932 32.9067 23.9599C33.3867 23.1732 33.6533 22.2533 33.6533 21.2666C33.6533 20.2799 33.3867 19.3733 32.9067 18.5866C32 17.0666 30.3333 16.0399 28.4267 16.0399C27.1333 16.0399 25.9333 16.5199 25.0133 17.3066C24.9467 17.2132 24.8667 17.1199 24.7733 17.0266C24.5333 16.7866 24.2667 16.5866 23.9867 16.4399C25.1467 15.3599 26.7067 14.7065 28.4267 14.7065C30.1467 14.7065 31.7333 15.3732 32.9067 16.4799C34.1867 17.6666 34.9867 19.3733 34.9867 21.2666Z" fill="#13968E"/>
<path d="M25.0133 17.3066C24.9467 17.2132 24.8667 17.1199 24.7733 17.0266C24.5333 16.7866 24.2667 16.5866 23.9867 16.4399C23.4933 16.1866 22.96 16.0532 22.4267 16.0532C21.56 16.0532 20.7067 16.3733 20.0533 17.0266L19.3733 17.7065L18.7067 17.0266C18.0533 16.3733 17.2 16.0532 16.3467 16.0532C15.92 16.0532 15.4933 16.1332 15.0933 16.2932C14.6933 16.4532 14.32 16.7066 13.9867 17.0266C13.3333 17.6799 13.0133 18.5332 13.0133 19.3732C13.0133 20.2132 13.3333 21.1066 13.9867 21.7466L15.0933 22.8665L15.76 23.5332L18.2667 26.0266C18.5733 26.3333 18.9733 26.4932 19.3733 26.4932C19.7733 26.4932 20.1867 26.3333 20.4933 26.0266L22.48 24.0399L23.4933 23.0266L24.7733 21.7466C25.96 20.5332 26.0533 18.6132 25.0133 17.3066ZM23.7333 20.6933L23.1867 21.2399L21.9733 22.4666L19.4667 24.9732C19.4667 24.9732 19.4 25.0133 19.3733 25.0133C19.3467 25.0133 19.32 24.9999 19.32 24.9866L16.8133 22.4799L15.0933 20.7466L15.04 20.6933C14.68 20.3466 14.4933 19.8799 14.4933 19.3732C14.4933 18.8932 14.68 18.4132 15.04 18.0799C15.0533 18.0666 15.0667 18.0399 15.0933 18.0399C15.4267 17.7065 15.88 17.5199 16.3467 17.5199C16.84 17.5199 17.32 17.7199 17.6533 18.0532L18.32 18.7332L19.3733 19.7999L20.4267 18.7599L21.12 18.0532C21.44 17.7199 21.92 17.5199 22.4267 17.5199C22.6133 17.5199 22.7867 17.5465 22.96 17.6132C23.2533 17.6932 23.5067 17.8399 23.72 18.0532C23.84 18.1732 23.9467 18.3065 24.0133 18.4532C24.44 19.1732 24.3333 20.1066 23.7333 20.6933Z" fill="#13968E"/>
<path d="M30.52 21.4801C30.4267 21.2667 30.2933 21.0801 30.12 20.9201C29.9467 20.7734 29.76 20.6534 29.5467 20.5734C29.3467 20.4934 29.0667 20.4001 28.7067 20.3067V18.5334C29.0667 18.64 29.2933 18.8801 29.3867 19.2401C29.4667 19.5467 29.6533 19.6934 29.9333 19.6934C30.08 19.6934 30.2 19.64 30.3067 19.5334C30.4133 19.4267 30.4667 19.3067 30.4667 19.1601C30.4667 19.0401 30.4267 18.8934 30.36 18.7467C30.2933 18.5867 30.1867 18.44 30.0667 18.2934C29.8933 18.1067 29.7067 17.96 29.4933 17.8667C29.2667 17.7734 29.0133 17.7068 28.7067 17.6801V17.2134C28.7067 16.9867 28.6133 16.8667 28.44 16.8667C28.2533 16.8667 28.16 16.9867 28.16 17.2267V17.6801C27.5733 17.7334 27.12 17.9067 26.8133 18.2267C26.4933 18.5334 26.3467 18.9468 26.3467 19.4268C26.3467 19.8134 26.4267 20.1201 26.5867 20.3601C26.7467 20.6001 26.9467 20.7734 27.2 20.9067C27.4667 21.0401 27.7867 21.1601 28.16 21.2668V23.2534C27.9733 23.2001 27.8133 23.1201 27.7067 23.0134C27.5867 22.9068 27.5067 22.8001 27.44 22.6667C27.3867 22.5467 27.32 22.3734 27.24 22.1334C27.2133 22.0267 27.1467 21.9467 27.0667 21.88C26.9733 21.8267 26.8667 21.8 26.7333 21.8C26.5733 21.8 26.44 21.8534 26.3333 21.96C26.2267 22.0667 26.1733 22.1867 26.1733 22.3334C26.1733 22.5201 26.2133 22.7067 26.2933 22.8934C26.3733 23.0934 26.4933 23.2667 26.6667 23.4534C26.8267 23.6267 27.04 23.7734 27.2933 23.8934C27.5333 24.0134 27.8267 24.0934 28.16 24.1334V25.2934C28.16 25.4134 28.1867 25.5201 28.2267 25.5734C28.2667 25.6401 28.3333 25.6667 28.44 25.6667C28.5467 25.6667 28.6267 25.6267 28.6533 25.5601C28.6933 25.4801 28.7067 25.3601 28.7067 25.1868V24.12C29.12 24.0934 29.4667 23.9867 29.76 23.8C30.0533 23.6267 30.28 23.3868 30.44 23.1068C30.5867 22.8268 30.6667 22.52 30.6667 22.2C30.6667 21.9334 30.6133 21.6934 30.52 21.4801ZM28.16 20.1467C27.9067 20.0534 27.72 19.9468 27.5867 19.8401C27.4667 19.7201 27.4 19.5467 27.4 19.3201C27.4 19.0934 27.4667 18.9067 27.6 18.8C27.7333 18.68 27.92 18.5868 28.16 18.5068V20.1467ZM29.3733 22.9467C29.2133 23.12 29 23.24 28.7067 23.2934V21.4134C29 21.5067 29.2267 21.6268 29.3733 21.7601C29.5333 21.8934 29.6133 22.0934 29.6133 22.3334C29.6133 22.5734 29.5333 22.7734 29.3733 22.9467Z" fill="#13968E"/>
</svg>
