<svg width="227" height="227" viewBox="0 0 227 227" fill="none" xmlns="http://www.w3.org/2000/svg">
<g filter="url(#filter0_d_2378_251283)">
<path d="M217.277 108.981C217.29 125.007 213.449 140.802 206.079 155.033C198.708 169.264 188.024 181.514 174.927 190.751C174.667 190.941 174.397 191.121 174.127 191.301C169.737 194.351 165.109 197.043 160.287 199.351C146.822 205.79 132.083 209.122 117.157 209.101C102.229 209.122 87.4859 205.79 74.0172 199.351C68.9033 196.903 64.0058 194.026 59.3772 190.751C58.9972 190.481 58.6272 190.211 58.2572 189.941C54.6456 187.315 51.2176 184.445 47.9972 181.351C47.0072 180.421 46.0472 179.461 45.0972 178.481C43.9872 177.341 42.9172 176.171 41.8672 174.971C40.6072 173.541 39.3939 172.078 38.2272 170.581C24.464 153 17.0019 131.308 17.0372 108.981C17.0388 82.4279 27.5877 56.9629 46.3635 38.1871C65.1393 19.4113 90.6042 8.86251 117.157 8.86092C130.673 8.84373 144.051 11.5719 156.481 16.8801C168.911 22.1882 180.133 29.9657 189.467 39.7409C203.403 54.2586 212.627 72.6493 215.927 92.5009C216.824 97.9485 217.275 103.46 217.277 108.981Z" fill="#F4F7FB"/>
</g>
<path d="M197.288 84.5809C195.198 84.5796 193.129 84.9902 191.198 85.7893C189.267 86.5884 187.513 87.7603 186.035 89.2379C184.557 90.7156 183.385 92.47 182.586 94.4009C181.787 96.3318 181.377 98.4013 181.378 100.491C181.378 102.58 181.79 104.648 182.589 106.578C183.389 108.508 184.561 110.261 186.038 111.737C187.516 113.214 189.27 114.385 191.2 115.183C193.13 115.982 195.199 116.392 197.288 116.391C199.376 116.391 201.444 115.98 203.373 115.181C205.302 114.382 207.054 113.21 208.531 111.734C210.007 110.257 211.179 108.505 211.978 106.576C212.777 104.646 213.188 102.579 213.188 100.491C213.189 98.4021 212.779 96.3334 211.98 94.4032C211.182 92.473 210.011 90.719 208.534 89.2415C207.058 87.7639 205.305 86.5919 203.375 85.7922C201.445 84.9926 199.377 84.5809 197.288 84.5809ZM197.288 89.371C198.674 89.3699 200.003 89.9192 200.984 90.8981C201.964 91.877 202.516 93.2053 202.518 94.5909C202.515 95.9771 201.963 97.3057 200.983 98.2859C200.003 99.2661 198.674 99.818 197.288 99.8209C195.902 99.818 194.573 99.2661 193.593 98.2859C192.613 97.3057 192.061 95.9771 192.058 94.5909C192.06 93.2053 192.611 91.877 193.592 90.8981C194.573 89.9192 195.902 89.3699 197.288 89.371ZM204.138 110.491C203.794 110.845 203.382 111.126 202.927 111.317C202.471 111.508 201.982 111.604 201.488 111.601H193.098C192.601 111.601 192.11 111.504 191.651 111.314C191.192 111.124 190.775 110.846 190.424 110.495C190.073 110.144 189.795 109.727 189.605 109.268C189.415 108.809 189.318 108.317 189.318 107.821C189.312 107.135 189.445 106.454 189.708 105.82C189.971 105.186 190.358 104.612 190.848 104.131C191.33 103.646 191.903 103.262 192.535 103.001C193.167 102.74 193.844 102.607 194.528 102.611H200.058C200.742 102.611 201.42 102.745 202.052 103.007C202.684 103.268 203.259 103.652 203.743 104.136C204.227 104.62 204.61 105.194 204.872 105.827C205.134 106.459 205.268 107.137 205.268 107.821C205.271 108.319 205.173 108.813 204.979 109.273C204.784 109.732 204.498 110.146 204.138 110.491Z" fill="#C8D3D9"/>
<path d="M56.3457 96.3679C56.4316 96.453 56.4998 96.5542 56.5463 96.6658C56.5928 96.7773 56.6167 96.8971 56.6167 97.0179C56.6167 97.1388 56.5928 97.2584 56.5463 97.37C56.4998 97.4816 56.4316 97.5829 56.3457 97.668C56.2606 97.7537 56.1593 97.8217 56.0478 97.868C55.9362 97.9144 55.8166 97.9382 55.6957 97.938C55.5748 97.9382 55.455 97.9144 55.3432 97.868C55.2315 97.8217 55.13 97.7537 55.0447 97.668L52.2317 94.8539L49.4177 97.668C49.3326 97.7537 49.2313 97.8216 49.1197 97.8679C49.0082 97.9143 48.8885 97.9381 48.7677 97.938C48.6468 97.9382 48.527 97.9144 48.4152 97.868C48.3035 97.8217 48.2021 97.7537 48.1167 97.668C47.945 97.4952 47.8486 97.2615 47.8486 97.0179C47.8486 96.7744 47.945 96.5407 48.1167 96.3679L50.9307 93.554L48.1167 90.74C47.945 90.5672 47.8486 90.3335 47.8486 90.09C47.8486 89.8464 47.945 89.6127 48.1167 89.4399C48.2892 89.2677 48.523 89.171 48.7667 89.171C49.0105 89.171 49.2443 89.2677 49.4167 89.4399L52.2307 92.2539L55.0437 89.4399C55.2162 89.2677 55.45 89.171 55.6937 89.171C55.9375 89.171 56.1712 89.2677 56.3437 89.4399C56.4296 89.525 56.4978 89.6262 56.5443 89.7378C56.5908 89.8494 56.6147 89.9691 56.6147 90.09C56.6147 90.2108 56.5908 90.3305 56.5443 90.442C56.4978 90.5536 56.4296 90.6549 56.3437 90.74L53.5307 93.554L56.3457 96.3679Z" fill="white"/>
<path d="M197.292 43.186C200.24 43.186 202.629 40.7965 202.629 37.849C202.629 34.9014 200.24 32.512 197.292 32.512C194.345 32.512 191.955 34.9014 191.955 37.849C191.955 40.7965 194.345 43.186 197.292 43.186Z" fill="#F4F7FB" stroke="#F4F7FB" stroke-width="1.043" stroke-miterlimit="10"/>
<path d="M5.85848 110.24C8.80603 110.24 11.1955 107.85 11.1955 104.903C11.1955 101.955 8.80603 99.5659 5.85848 99.5659C2.91094 99.5659 0.521484 101.955 0.521484 104.903C0.521484 107.85 2.91094 110.24 5.85848 110.24Z" fill="#F4F7FB" stroke="#F4F7FB" stroke-width="1.043" stroke-miterlimit="10"/>
<path d="M217.274 169.898C219.162 169.898 220.694 168.367 220.694 166.478C220.694 164.589 219.162 163.058 217.274 163.058C215.385 163.058 213.854 164.589 213.854 166.478C213.854 168.367 215.385 169.898 217.274 169.898Z" fill="#F4F7FB" stroke="#F4F7FB" stroke-width="0.668" stroke-miterlimit="10"/>
<path d="M181.38 25.766C188.163 25.766 193.663 20.2667 193.663 13.483C193.663 6.69924 188.163 1.19995 181.38 1.19995C174.596 1.19995 169.097 6.69924 169.097 13.483C169.097 20.2667 174.596 25.766 181.38 25.766Z" fill="#F4F7FB" stroke="#F4F7FB" stroke-width="2.4" stroke-miterlimit="10"/>
<path d="M100.765 46.83C100.577 47.1854 100.346 47.5163 100.076 47.8149C100.263 46.839 100.625 45.9046 101.143 45.0569C101.15 45.6686 101.021 46.2743 100.765 46.83Z" fill="white" stroke="#C8D3D9" stroke-width="0.414" stroke-miterlimit="10"/>
<path d="M101.094 129.122V142.635C95.7566 143.308 92.6866 143.226 91.0616 141.584C88.6476 139.137 89.1896 134.672 88.7616 134.672C88.2366 134.704 89.3686 140.681 86.6766 142.405C85.8226 142.963 84.6076 142.848 82.1936 142.618C78.9106 142.318 77.2186 142.257 76.5626 141.584C71.9486 136.806 79.2716 115.445 77.5806 111.931C77.4997 111.788 77.4282 111.64 77.3666 111.488C77.1758 110.974 77.0221 110.448 76.9066 109.912C78.2357 110.374 79.61 110.693 81.0066 110.864C82.3797 111.199 83.7972 111.316 85.2066 111.209C85.3516 112.088 85.5601 112.955 85.8306 113.803C86.1591 114.823 86.5883 115.807 87.1116 116.742C89.6896 121.442 93.3676 123.966 98.2116 127.217C99.2216 127.891 100.174 128.531 101.094 129.122Z" fill="#C8D3D9" stroke="#C8D3D9" stroke-width="0.414" stroke-miterlimit="10"/>
<path d="M154.012 139.909C153.191 140.468 152.78 139.466 147.412 139.072C144.867 138.872 144.194 139.039 143.324 138.432C140.96 136.773 141.485 132.143 141.224 132.143C140.977 132.159 141.897 136.56 139.664 138.858C138.58 139.975 137.164 140.158 134.41 140.533C133.036 140.803 131.625 140.837 130.239 140.633V129.139C131.159 128.532 132.111 127.892 133.129 127.218C137.973 123.967 141.65 121.439 144.229 116.743C144.746 115.805 145.175 114.821 145.51 113.804C145.764 112.962 145.972 112.107 146.134 111.243C147.492 111.302 148.85 111.175 150.173 110.865C150.6 110.799 150.994 110.717 151.373 110.665C151.341 110.911 151.324 111.043 151.324 111.059C151.089 112.834 157.92 137.266 154.012 139.909Z" fill="#C8D3D9" stroke="#C8D3D9" stroke-width="0.414" stroke-miterlimit="10"/>
<path d="M130.237 129.138V147.581C130.227 151.158 128.801 154.586 126.272 157.116C123.742 159.645 120.314 161.071 116.737 161.081H114.586C111.009 161.071 107.581 159.645 105.051 157.116C102.522 154.586 101.096 151.158 101.086 147.581V129.126C104.084 131.284 107.311 133.107 110.707 134.561C112.125 135.124 113.61 135.505 115.124 135.694C115.288 135.71 115.485 135.726 115.666 135.743L116.191 135.694C119.701 135.119 123.048 133.804 126.01 131.835C127.347 131.043 128.728 130.14 130.237 129.138Z" fill="white" stroke="#F4F7FB" stroke-width="0.401" stroke-miterlimit="10"/>
<path d="M85.2156 111.209C83.8062 111.316 82.3888 111.199 81.0156 110.864C79.6191 110.693 78.2447 110.374 76.9156 109.912C76.3611 109.692 75.8414 109.394 75.3726 109.025C74.2081 108.193 73.3259 107.024 72.8446 105.676C72.2926 103.883 72.4634 101.945 73.3206 100.276C73.5615 99.7986 73.859 99.3521 74.2066 98.9459C75.0728 97.958 76.1505 97.1781 77.3596 96.6639C78.0869 96.3055 78.8454 96.0143 79.6256 95.7939C81.3816 102.194 83.6966 106.761 84.2886 106.581C84.6986 106.449 84.1076 104.081 83.5496 98.0259C83.7136 99.2259 83.8946 100.571 84.0746 102.066C84.5596 106.267 84.8056 109.025 85.2156 111.209Z" fill="white" stroke="#F4F7FB" stroke-width="0.414" stroke-miterlimit="10"/>
<path d="M158.346 105.676C157.863 107.019 156.988 108.186 155.834 109.025C154.512 109.949 152.973 110.515 151.368 110.667C150.991 110.716 150.597 110.798 150.168 110.867C148.845 111.177 147.486 111.304 146.129 111.245C146.457 109.406 146.687 107.173 147.048 104.004C148.992 101.543 150.462 98.7426 151.383 95.7449C151.95 95.8857 152.504 96.0724 153.041 96.303C153.386 96.451 153.665 96.5829 153.846 96.6649C155.562 97.3714 156.982 98.6469 157.868 100.277C158.726 101.945 158.897 103.883 158.346 105.676Z" fill="white" stroke="#F4F7FB" stroke-width="0.414" stroke-miterlimit="10"/>
<g filter="url(#filter1_d_2378_251283)">
<path d="M148.019 95.4299C148.021 96.0448 147.983 96.6592 147.904 97.2689C147.871 97.6139 147.822 97.9419 147.773 98.2689C147.756 98.3339 147.756 98.3999 147.74 98.4689C147.198 101.605 146.131 104.232 146.54 104.347C146.64 104.38 146.819 104.265 147.049 104.002C146.688 107.171 146.458 109.402 146.13 111.243C145.968 112.107 145.76 112.962 145.506 113.804C145.17 114.821 144.742 115.805 144.225 116.743C141.647 121.443 137.97 123.967 133.125 127.218C132.107 127.892 131.155 128.532 130.235 129.139C128.725 130.139 127.345 131.044 126.016 131.832C123.054 133.8 119.707 135.116 116.197 135.691L115.672 135.74C115.491 135.723 115.294 135.707 115.13 135.691C113.616 135.502 112.131 135.121 110.713 134.558C107.317 133.104 104.09 131.281 101.092 129.123C100.172 128.532 99.2198 127.892 98.2178 127.218C93.3748 123.967 89.6968 121.439 87.1178 116.743C86.5945 115.808 86.1654 114.824 85.8368 113.804C85.5664 112.956 85.3578 112.089 85.2128 111.21C84.8028 109.026 84.5568 106.268 84.0638 102.065C83.8838 100.57 83.7028 99.2239 83.5388 98.0249C83.4728 97.2369 83.3908 96.383 83.3248 95.464C83.2918 95.021 83.2598 94.545 83.2248 94.069C83.2078 93.769 83.0108 89.8819 83.0608 88.2689C83.1098 86.3969 83.6838 82.801 87.6248 78.007C87.6248 77.99 87.6248 77.99 87.6408 77.99C90.3765 74.7784 93.5233 71.9409 96.9998 69.5509C99.1583 72.1426 101.531 74.5481 104.093 76.7419C106.737 79.0079 113.698 84.919 123.106 87.542C135.831 91.105 142.694 85.7519 146.438 90.3009C146.644 90.5597 146.831 90.8339 146.996 91.121C147.71 92.4424 148.063 93.9286 148.019 95.4299Z" fill="white" stroke="#F4F7FB" stroke-width="0.414" stroke-miterlimit="10"/>
</g>
<path d="M153.782 89.8479C153.502 92.2949 153.158 95.2989 153.158 95.2989C153.125 95.6439 153.092 95.9719 153.043 96.2989C152.506 96.0675 151.952 95.8806 151.385 95.74C150.464 98.7377 148.994 101.538 147.05 103.999C146.82 104.262 146.64 104.377 146.541 104.344C146.131 104.229 147.198 101.602 147.741 98.4659C147.757 98.3999 147.757 98.334 147.774 98.266C147.823 97.937 147.874 97.609 147.905 97.266C147.984 96.6562 148.022 96.0417 148.02 95.4269C148.063 93.929 147.712 92.4462 147.002 91.1269C146.837 90.8399 146.65 90.5657 146.444 90.3069C142.7 85.7579 135.837 91.107 123.112 87.548C113.704 84.921 106.743 79.0099 104.099 76.7479C101.537 74.5541 99.164 72.1486 97.0056 69.5569C93.529 71.9468 90.3823 74.7843 87.6466 77.996C87.6306 77.996 87.6306 77.9959 87.6306 78.0129C83.6896 82.8069 83.1156 86.4029 83.0666 88.2749C83.0376 89.3619 83.1026 91.8969 83.2306 94.0749C83.2866 95.0399 83.3636 96.1009 83.5426 98.0309C84.1576 104.686 84.5766 106.495 84.2816 106.586C83.6896 106.766 81.3746 102.202 79.6186 95.7989C78.8383 96.0193 78.0798 96.3105 77.3526 96.6689C76.1435 97.183 75.0658 97.963 74.1996 98.9509C74.0846 98.4749 73.9696 97.9819 73.8386 97.4729C73.8386 97.4729 72.8696 93.4009 72.3116 89.2309C71.5021 83.7408 71.7023 78.149 72.9026 72.7309C73.8386 68.6589 76.4026 57.5099 85.6116 52.4369C86.7978 51.7918 88.0465 51.2691 89.3386 50.8769C89.0383 50.5925 88.7734 50.2728 88.5496 49.9249C87.2696 47.9709 87.1876 45.0319 88.2386 44.4739C88.7636 44.1949 89.5026 44.5739 89.9126 44.7859C90.1426 44.9169 90.7826 45.278 92.0636 47.199C92.8356 48.365 92.9836 48.8079 93.2636 48.7749C93.7066 48.7259 93.6576 47.6259 94.3636 46.0989C94.943 44.8845 95.7841 43.8135 96.8266 42.9629C96.9266 42.8629 97.7786 42.3719 99.4536 41.3869C100.209 40.9439 100.587 40.7139 100.866 40.8619C101.145 41.0099 101.178 41.4029 101.178 43.0619C101.178 43.9319 101.178 44.5719 101.145 45.0619C100.626 45.9096 100.265 46.8439 100.078 47.8199C100.347 47.5213 100.578 47.1904 100.767 46.8349C101.023 46.2793 101.152 45.6736 101.145 45.0619C101.472 44.52 101.882 44.0325 102.36 43.6169C103.753 42.4822 105.489 41.8514 107.286 41.8269C128.696 40.3169 141.286 50.8739 141.286 50.8739C154.074 62.5929 155.005 70.8649 154.996 74.0249C154.989 77.0469 154.087 87.1809 153.782 89.8479Z" fill="#C8D3D9" stroke="#C8D3D9" stroke-width="0.414" stroke-miterlimit="10"/>
<path d="M174.128 191.301C169.738 194.351 165.11 197.043 160.288 199.351C146.823 205.79 132.083 209.122 117.158 209.101C102.229 209.122 87.4865 205.79 74.0178 199.351C68.9039 196.903 64.0064 194.026 59.3778 190.751C58.9978 190.481 58.6278 190.211 58.2578 189.941C58.4235 187.524 58.7949 185.125 59.3678 182.771C59.8044 180.966 60.3589 179.193 61.0278 177.461C61.8918 175.2 62.9386 173.012 64.1578 170.921C64.9478 169.561 65.8078 168.234 66.7378 166.941H66.7478C67.4178 166.001 68.1278 165.091 68.8778 164.201C69.1578 163.861 69.4378 163.531 69.7278 163.201C74.585 157.737 80.4614 153.274 87.0278 150.061C88.6878 149.231 90.3978 148.471 92.1578 147.781C95.0685 146.66 98.0563 145.751 101.098 145.061V147.581C101.108 151.156 102.533 154.581 105.06 157.108C107.588 159.636 111.013 161.061 114.588 161.071H116.738C120.313 161.061 123.74 159.637 126.269 157.109C128.798 154.582 130.225 151.157 130.238 147.581V144.851C154.908 150.081 173.308 168.791 174.128 191.301Z" fill="white" stroke="#F4F7FB" stroke-width="0.401" stroke-miterlimit="10"/>
<g filter="url(#filter2_d_2378_251283)">
<path d="M97.6586 162.353C97.2979 157.915 95.8652 153.632 93.4835 149.87C91.1018 146.108 87.8425 142.981 83.9854 140.757C80.1284 138.533 75.7891 137.279 71.3404 137.102C66.8917 136.926 62.4666 137.832 58.4453 139.743C54.4241 141.654 50.9269 144.513 48.2544 148.074C45.5819 151.635 43.814 155.791 43.1025 160.186C42.391 164.581 42.7572 169.083 44.1697 173.305C45.5822 177.528 47.9987 181.344 51.2116 184.426C51.2449 184.466 51.2813 184.504 51.3206 184.538C55.3565 188.381 60.4653 190.906 65.9693 191.778C71.4734 192.651 77.1126 191.829 82.139 189.423C87.1654 187.016 91.3414 183.139 94.1132 178.304C96.8849 173.469 98.1214 167.906 97.6586 162.353Z" fill="#C8D3D9" stroke="#C8D3D9" stroke-width="0.5" stroke-linecap="round" stroke-linejoin="round"/>
</g>
<path d="M86.1456 179.745C83.1553 182.885 79.3011 185.068 75.0702 186.018C70.8393 186.968 66.4217 186.642 62.3762 185.081C58.3306 183.52 54.8387 180.795 52.3419 177.25C49.8452 173.704 48.4558 169.498 48.3494 165.163C48.243 160.829 49.4243 156.56 51.7441 152.896C54.0639 149.233 57.4179 146.339 61.382 144.582C65.3461 142.824 69.7423 142.282 74.0147 143.023C78.2871 143.764 82.2438 145.755 85.3846 148.745C87.4706 150.73 89.1451 153.107 90.3123 155.739C91.4796 158.372 92.1167 161.209 92.1874 164.087C92.2581 166.966 91.7609 169.831 90.7242 172.517C89.6875 175.204 88.1317 177.66 86.1456 179.745Z" fill="#F4F7FB" stroke="#C8D3D9" stroke-width="0.5" stroke-linecap="round" stroke-linejoin="round"/>
<g filter="url(#filter3_d_2378_251283)">
<path d="M47.6827 188.951L47.0671 188.361C45.4713 186.832 42.938 186.886 41.4088 188.481L25.1862 205.409C23.6569 207.005 23.7108 209.538 25.3066 211.068L25.9222 211.657C27.5179 213.187 30.0512 213.133 31.5805 211.537L47.8031 194.609C49.3323 193.013 49.2784 190.48 47.6827 188.951Z" fill="#C8D3D9" stroke="#C8D3D9" stroke-width="0.498623" stroke-linecap="round" stroke-linejoin="round"/>
</g>
<path d="M52.484 187.517L48.2798 183.516C47.6652 182.931 46.6929 182.955 46.108 183.57C45.5231 184.184 45.5472 185.157 46.1618 185.742L50.3661 189.743C50.9806 190.327 51.953 190.303 52.5378 189.689C53.1227 189.074 53.0986 188.102 52.484 187.517Z" fill="#C8D3D9" stroke="#C8D3D9" stroke-width="0.499724" stroke-linecap="round" stroke-linejoin="round"/>
<path d="M69.5516 170.285C68.3114 170.285 67.3726 169.677 67.3057 169.132L65.4767 154.207C65.3115 152.858 65.7156 151.521 66.5854 150.538C67.3568 149.666 68.4102 149.186 69.5516 149.186C70.693 149.186 71.7465 149.666 72.5179 150.538C73.3876 151.521 73.7917 152.858 73.6265 154.207L71.7976 169.132C71.7307 169.677 70.7918 170.285 69.5516 170.285Z" fill="#C8D3D9"/>
<path d="M69.5512 169.463C70.3536 169.463 70.8749 169.141 70.9868 168.985L72.81 154.107C72.9466 152.992 72.6156 151.889 71.9018 151.083C71.2886 150.39 70.4538 150.008 69.5512 150.008C68.6486 150.008 67.8138 150.39 67.2006 151.083C66.4868 151.889 66.1558 152.992 66.2923 154.107L68.1157 168.986C68.2273 169.141 68.7485 169.463 69.5512 169.463ZM69.5512 171.107C67.9932 171.107 66.6202 170.3 66.4892 169.232L64.6602 154.307C64.2852 151.244 66.4602 148.364 69.5512 148.364C72.6422 148.364 74.8172 151.244 74.4422 154.307L72.6132 169.232C72.4822 170.3 71.1082 171.107 69.5512 171.107Z" fill="#C8D3D9"/>
<path d="M69.5515 178.898C71.1095 178.898 72.3725 177.635 72.3725 176.077C72.3725 174.519 71.1095 173.256 69.5515 173.256C67.9935 173.256 66.7305 174.519 66.7305 176.077C66.7305 177.635 67.9935 178.898 69.5515 178.898Z" fill="#C8D3D9"/>
<path d="M69.5517 178.076C70.6558 178.076 71.5507 177.181 71.5507 176.077C71.5507 174.973 70.6558 174.078 69.5517 174.078C68.4477 174.078 67.5527 174.973 67.5527 176.077C67.5527 177.181 68.4477 178.076 69.5517 178.076Z" stroke="#C8D3D9" stroke-width="1.644" stroke-miterlimit="10" stroke-linecap="round"/>
<defs>
<filter id="filter0_d_2378_251283" x="11.0371" y="7.86084" width="212.24" height="212.24" filterUnits="userSpaceOnUse" color-interpolation-filters="sRGB">
<feFlood flood-opacity="0" result="BackgroundImageFix"/>
<feColorMatrix in="SourceAlpha" type="matrix" values="0 0 0 0 0 0 0 0 0 0 0 0 0 0 0 0 0 0 127 0" result="hardAlpha"/>
<feOffset dy="5"/>
<feGaussianBlur stdDeviation="3"/>
<feColorMatrix type="matrix" values="0 0 0 0 0.784314 0 0 0 0 0.827451 0 0 0 0 0.85098 0 0 0 0.302 0"/>
<feBlend mode="normal" in2="BackgroundImageFix" result="effect1_dropShadow_2378_251283"/>
<feBlend mode="normal" in="SourceGraphic" in2="effect1_dropShadow_2378_251283" result="shape"/>
</filter>
<filter id="filter1_d_2378_251283" x="76.8457" y="66.2734" width="77.3838" height="78.6744" filterUnits="userSpaceOnUse" color-interpolation-filters="sRGB">
<feFlood flood-opacity="0" result="BackgroundImageFix"/>
<feColorMatrix in="SourceAlpha" type="matrix" values="0 0 0 0 0 0 0 0 0 0 0 0 0 0 0 0 0 0 127 0" result="hardAlpha"/>
<feOffset dy="3"/>
<feGaussianBlur stdDeviation="3"/>
<feColorMatrix type="matrix" values="0 0 0 0 0.784314 0 0 0 0 0.827451 0 0 0 0 0.85098 0 0 0 0.141 0"/>
<feBlend mode="normal" in2="BackgroundImageFix" result="effect1_dropShadow_2378_251283"/>
<feBlend mode="normal" in="SourceGraphic" in2="effect1_dropShadow_2378_251283" result="shape"/>
</filter>
<filter id="filter2_d_2378_251283" x="36.499" y="133.831" width="67.5049" height="67.5363" filterUnits="userSpaceOnUse" color-interpolation-filters="sRGB">
<feFlood flood-opacity="0" result="BackgroundImageFix"/>
<feColorMatrix in="SourceAlpha" type="matrix" values="0 0 0 0 0 0 0 0 0 0 0 0 0 0 0 0 0 0 127 0" result="hardAlpha"/>
<feOffset dy="3"/>
<feGaussianBlur stdDeviation="3"/>
<feColorMatrix type="matrix" values="0 0 0 0 0.784314 0 0 0 0 0.827451 0 0 0 0 0.85098 0 0 0 0.302 0"/>
<feBlend mode="normal" in2="BackgroundImageFix" result="effect1_dropShadow_2378_251283"/>
<feBlend mode="normal" in="SourceGraphic" in2="effect1_dropShadow_2378_251283" result="shape"/>
</filter>
<filter id="filter3_d_2378_251283" x="17.8242" y="183.999" width="37.3408" height="38.0204" filterUnits="userSpaceOnUse" color-interpolation-filters="sRGB">
<feFlood flood-opacity="0" result="BackgroundImageFix"/>
<feColorMatrix in="SourceAlpha" type="matrix" values="0 0 0 0 0 0 0 0 0 0 0 0 0 0 0 0 0 0 127 0" result="hardAlpha"/>
<feOffset dy="3"/>
<feGaussianBlur stdDeviation="3"/>
<feColorMatrix type="matrix" values="0 0 0 0 0.784314 0 0 0 0 0.827451 0 0 0 0 0.85098 0 0 0 0.302 0"/>
<feBlend mode="normal" in2="BackgroundImageFix" result="effect1_dropShadow_2378_251283"/>
<feBlend mode="normal" in="SourceGraphic" in2="effect1_dropShadow_2378_251283" result="shape"/>
</filter>
</defs>
</svg>
