<svg width="28" height="22" viewBox="0 0 28 22" fill="none" xmlns="http://www.w3.org/2000/svg">
<path d="M9.66667 3.56003C8.14667 3.56003 6.90674 4.8 6.90674 6.32C6.90674 7.84 8.14667 9.08001 9.66667 9.08001C11.1867 9.08001 12.4267 7.84 12.4267 6.32C12.4267 4.8 11.1867 3.56003 9.66667 3.56003ZM9.66667 7.74667C8.88 7.74667 8.24007 7.10666 8.24007 6.32C8.24007 5.53333 8.88 4.89336 9.66667 4.89336C10.4533 4.89336 11.0933 5.53333 11.0933 6.32C11.0933 7.10666 10.4533 7.74667 9.66667 7.74667Z" fill="#354752"/>
<path d="M23.9998 0.333344H3.99984C2.15984 0.333344 0.666504 1.82668 0.666504 3.66668V18.3333C0.666504 18.76 0.746563 19.16 0.893229 19.5333C1.37323 20.7867 2.5865 21.6667 3.99984 21.6667H23.9998C25.8265 21.6667 27.3332 20.1733 27.3332 18.3333V3.66668C27.3332 1.82668 25.8265 0.333344 23.9998 0.333344ZM25.9998 18.3333C25.9998 19.44 25.1065 20.3333 23.9998 20.3333H3.99984C2.91984 20.3333 2.05318 19.4934 2.01318 18.4267L7.05322 13.3733C7.17322 13.2667 7.31989 13.2 7.46655 13.2C7.61322 13.2 7.75987 13.2667 7.86654 13.3733L10.3199 15.8267C11.0666 16.5733 12.2799 16.5733 13.0265 15.8267L20.0932 8.76002C20.3065 8.54669 20.6799 8.54669 20.8932 8.76002L25.9998 13.8534V18.3333V18.3333ZM21.8398 7.81336C21.1065 7.0667 19.8932 7.0667 19.1466 7.81336L12.0798 14.88C11.8532 15.1067 11.4932 15.1067 11.2665 14.88L8.81323 12.4267C8.06657 11.6934 6.85321 11.6934 6.11987 12.4267L1.99984 16.5467V3.66668C1.99984 2.56001 2.89317 1.66668 3.99984 1.66668H23.9998C25.1065 1.66668 25.9998 2.56001 25.9998 3.66668V11.9734L21.8398 7.81336Z" fill="#354752"/>
</svg>
