<svg width="24" height="24" viewBox="0 0 24 24" fill="none" xmlns="http://www.w3.org/2000/svg">
<path d="M20.5017 5.1647H16.3018C16.1861 4.61108 15.8835 4.11415 15.4446 3.75745C15.0057 3.40075 14.4573 3.20605 13.8917 3.20605C13.3262 3.20605 12.7779 3.40075 12.339 3.75745C11.9001 4.11415 11.5974 4.61108 11.4818 5.1647H3.51172C3.37911 5.1647 3.25197 5.21739 3.1582 5.31116C3.06443 5.40493 3.01172 5.5321 3.01172 5.6647C3.01172 5.79731 3.06443 5.92448 3.1582 6.01825C3.25197 6.11202 3.37911 6.1647 3.51172 6.1647H11.4818C11.5974 6.71832 11.9001 7.21526 12.339 7.57196C12.7779 7.92866 13.3262 8.12338 13.8917 8.12338C14.4573 8.12338 15.0057 7.92866 15.4446 7.57196C15.8835 7.21526 16.1861 6.71832 16.3018 6.1647H20.5017C20.6343 6.1647 20.7616 6.11202 20.8553 6.01825C20.9491 5.92448 21.0017 5.79731 21.0017 5.6647C21.0017 5.5321 20.9491 5.40493 20.8553 5.31116C20.7616 5.21739 20.6343 5.1647 20.5017 5.1647ZM13.8917 7.12469C13.5933 7.12637 13.3018 7.03476 13.058 6.86264C12.8141 6.69052 12.6301 6.44649 12.5317 6.1647C12.4632 6.00704 12.4292 5.83658 12.4318 5.6647C12.4302 5.49291 12.4642 5.32266 12.5317 5.1647C12.6325 4.88342 12.8178 4.64016 13.0621 4.46817C13.3065 4.29618 13.5979 4.20386 13.8967 4.20386C14.1955 4.20386 14.4871 4.29618 14.7314 4.46817C14.9758 4.64016 15.1609 4.88342 15.2617 5.1647C15.3214 5.32463 15.352 5.49399 15.3518 5.6647C15.3529 5.83549 15.3223 6.00501 15.2617 6.1647C15.16 6.44631 14.9738 6.68963 14.7286 6.86145C14.4834 7.03327 14.1911 7.12521 13.8917 7.12469Z" fill="#607079"/>
<path d="M20.4901 11.4948H11.7101C11.5945 10.9412 11.2917 10.4443 10.8528 10.0876C10.4139 9.73086 9.86561 9.53613 9.30005 9.53613C8.73448 9.53613 8.18621 9.73086 7.74731 10.0876C7.30842 10.4443 7.00564 10.9412 6.89001 11.4948H3.5C3.36803 11.4969 3.24213 11.5502 3.1488 11.6435C3.05548 11.7368 3.00206 11.8628 3 11.9948C3 12.1274 3.05272 12.2546 3.14648 12.3484C3.24025 12.4421 3.36739 12.4948 3.5 12.4948H6.89001C7.00272 13.0509 7.30429 13.5509 7.74353 13.91C8.18277 14.2691 8.73267 14.4654 9.30005 14.4654C9.86742 14.4654 10.4173 14.2691 10.8566 13.91C11.2958 13.5509 11.5974 13.0509 11.7101 12.4948H20.4901C20.6227 12.4948 20.7499 12.4421 20.8436 12.3484C20.9374 12.2546 20.9901 12.1274 20.9901 11.9948C20.9901 11.8622 20.9374 11.735 20.8436 11.6412C20.7499 11.5475 20.6227 11.4948 20.4901 11.4948ZM9.30005 13.4648C8.99929 13.4652 8.70591 13.372 8.46045 13.1982C8.21499 13.0244 8.02961 12.7786 7.93005 12.4948C7.86866 12.3353 7.83815 12.1657 7.84009 11.9948C7.83905 11.824 7.86953 11.6545 7.93005 11.4948C8.03085 11.2135 8.21612 10.9702 8.46045 10.7982C8.70478 10.6263 8.99625 10.534 9.29504 10.534C9.59384 10.534 9.8853 10.6263 10.1296 10.7982C10.374 10.9702 10.5592 11.2135 10.66 11.4948C10.7286 11.6525 10.7627 11.8229 10.76 11.9948C10.7637 12.1668 10.7296 12.3375 10.66 12.4948C10.564 12.7789 10.381 13.0255 10.1368 13.1996C9.89271 13.3737 9.59991 13.4665 9.30005 13.4648Z" fill="#607079"/>
<path d="M20.4901 17.8347H19.0701C18.9544 17.281 18.6518 16.7841 18.2129 16.4274C17.774 16.0707 17.2256 15.876 16.66 15.876C16.0945 15.876 15.5462 16.0707 15.1073 16.4274C14.6684 16.7841 14.3656 17.281 14.25 17.8347H3.5C3.36739 17.8347 3.24025 17.8873 3.14648 17.9811C3.05272 18.0748 3 18.202 3 18.3347C3.00206 18.4666 3.05548 18.5926 3.1488 18.6859C3.24213 18.7792 3.36803 18.8326 3.5 18.8347H14.25C14.3656 19.3883 14.6684 19.8852 15.1073 20.2419C15.5462 20.5986 16.0945 20.7933 16.66 20.7933C17.2256 20.7933 17.774 20.5986 18.2129 20.2419C18.6518 19.8852 18.9544 19.3883 19.0701 18.8347H20.4901C20.6227 18.8347 20.7499 18.782 20.8436 18.6882C20.9374 18.5944 20.9901 18.4673 20.9901 18.3347C20.9901 18.202 20.9374 18.0748 20.8436 17.9811C20.7499 17.8873 20.6227 17.8347 20.4901 17.8347ZM16.66 19.7946C16.3607 19.795 16.0684 19.703 15.8232 19.5312C15.5781 19.3594 15.3919 19.1162 15.29 18.8347C15.17 18.5121 15.17 18.1572 15.29 17.8347C15.3919 17.5531 15.5781 17.3099 15.8232 17.1381C16.0684 16.9663 16.3607 16.8743 16.66 16.8746C16.9585 16.873 17.2501 16.9646 17.4939 17.1367C17.7377 17.3088 17.9216 17.5529 18.02 17.8347C18.086 17.9931 18.1201 18.163 18.1201 18.3347C18.1201 18.5063 18.086 18.6762 18.02 18.8347C17.9192 19.1151 17.7345 19.3576 17.491 19.5294C17.2475 19.7011 16.957 19.7937 16.6591 19.7946H16.66Z" fill="#607079"/>
</svg>
