<svg width="48" height="48" viewBox="0 0 48 48" fill="none" xmlns="http://www.w3.org/2000/svg">
<circle cx="24" cy="24" r="24" fill="#F4F7FB"/>
<path d="M23.995 31.2004C24.3915 31.2004 24.765 31.0488 25.0472 30.7735L31.7743 24.0474C33.4156 22.3889 33.4154 19.6919 31.7769 18.038C30.9817 17.2429 29.9185 16.8049 28.783 16.8049C27.6205 16.8049 26.5533 17.2404 25.778 18.0311L25.7711 18.038L23.9883 19.8208L22.2356 18.0347C21.4377 17.2385 20.3727 16.8002 19.236 16.8002C18.0992 16.8002 17.0339 17.2387 16.236 18.0351C15.4389 18.8491 15 19.9131 15 21.0319C15 22.1789 15.438 23.249 16.233 24.0447L19.0389 26.8496L22.9441 30.7748C23.2262 31.0493 23.5992 31.2004 23.995 31.2004ZM23.995 32.2004C23.3607 32.2004 22.7265 31.9619 22.24 31.4849L18.33 27.5549L15.526 24.7519C14.515 23.7399 14 22.3859 14 21.0319C14 19.6969 14.515 18.3609 15.526 17.3309C17.567 15.2899 20.905 15.2899 22.946 17.3309L23.995 18.3999L25.064 17.3309C26.074 16.3009 27.429 15.8049 28.783 15.8049C30.118 15.8049 31.454 16.3009 32.484 17.3309C34.506 19.3719 34.506 22.7099 32.484 24.7519L25.75 31.4849C25.2635 31.9619 24.6293 32.2004 23.995 32.2004Z" fill="#2092E4"/>
</svg>
