<svg width="18" height="20" viewBox="0 0 18 20" fill="none" xmlns="http://www.w3.org/2000/svg">
<path d="M14.07 1.5402H13.47V1.1902C13.47 0.780195 13.13 0.450195 12.68 0.450195C12.27 0.450195 11.94 0.780195 11.94 1.1902V1.5402H6.06V1.1902C6.06 0.780195 5.72 0.450195 5.27 0.450195C4.86 0.450195 4.53 0.780195 4.53 1.1902V1.5402H3.92C1.76 1.5402 0 3.3002 0 5.4602V15.6102C0 17.7702 1.76 19.5402 3.92 19.5402H14.07C16.24 19.5402 18 17.7702 18 15.6102V5.4602C18 3.3002 16.24 1.5402 14.07 1.5402ZM17 15.6102C17 17.2202 15.68 18.5402 14.07 18.5402H3.92C2.31 18.5402 1 17.2202 1 15.6102V7.1902H17V15.6102ZM17 6.1902H1V5.4602C1 3.8502 2.31 2.5402 3.92 2.5402H4.53V4.0802C4.53 4.4902 4.86 4.8202 5.27 4.8202H5.32C5.72 4.8202 6.06 4.4902 6.06 4.0802V2.5402H11.94V4.0802C11.94 4.4902 12.27 4.8202 12.68 4.8202H12.72C13.13 4.8202 13.47 4.4902 13.47 4.0802V2.5402H14.07C15.68 2.5402 17 3.8502 17 5.4602V6.1902Z" fill="#607079"/>
<path d="M5.78014 10.1802V10.7502C5.78014 11.2702 5.39014 11.6802 4.93014 11.6802H4.24014C3.77014 11.6802 3.39014 11.2702 3.39014 10.7502V10.1802C3.39014 9.66023 3.78014 9.24023 4.24014 9.24023H4.93014C5.40014 9.24023 5.78014 9.66023 5.78014 10.1802Z" fill="#607079"/>
<path d="M14.6002 10.1802V10.7502C14.6002 11.2702 14.2102 11.6802 13.7502 11.6802H13.0702C12.5902 11.6802 12.2202 11.2702 12.2202 10.7502V10.1802C12.2202 9.66023 12.6002 9.24023 13.0702 9.24023H13.7502C14.2202 9.24023 14.6002 9.66023 14.6002 10.1802Z" fill="#607079"/>
<path d="M5.7899 14.4903V15.0603C5.7899 15.5803 5.3999 15.9903 4.9399 15.9903H4.2499C3.7799 15.9903 3.3999 15.5803 3.3999 15.0603V14.4903C3.3999 13.9703 3.7899 13.5503 4.2499 13.5503H4.9399C5.4099 13.5503 5.7899 13.9703 5.7899 14.4903Z" fill="#607079"/>
<path d="M10.2001 14.4903V15.0603C10.2001 15.5803 9.81006 15.9903 9.35006 15.9903H8.67006C8.19006 15.9903 7.81006 15.5803 7.81006 15.0603V14.4903C7.81006 13.9703 8.20006 13.5503 8.67006 13.5503H9.35006C9.82006 13.5503 10.2001 13.9703 10.2001 14.4903Z" fill="#607079"/>
<path d="M14.6002 14.4903V15.0603C14.6002 15.5803 14.2102 15.9903 13.7502 15.9903H13.0702C12.5902 15.9903 12.2202 15.5803 12.2202 15.0603V14.4903C12.2202 13.9703 12.6002 13.5503 13.0702 13.5503H13.7502C14.2202 13.5503 14.6002 13.9703 14.6002 14.4903Z" fill="#607079"/>
<path d="M8.99982 11.7506C8.99982 11.7506 8.97983 11.7506 8.96983 11.7406L7.50983 10.2706C7.38983 10.1506 7.31982 9.98065 7.31982 9.81065C7.31982 9.64065 7.38983 9.48065 7.50983 9.35065C7.62983 9.23065 7.78982 9.16064 7.95982 9.16064C8.12982 9.16064 8.29982 9.23065 8.41982 9.35065L8.99982 9.94064L9.58982 9.35065C9.70982 9.23065 9.86983 9.16064 10.0498 9.16064C10.2298 9.16064 10.3798 9.23065 10.5098 9.35065C10.7598 9.60065 10.7598 10.0106 10.5098 10.2706L9.03983 11.7406H9.00983L8.99982 11.7506Z" fill="#607079"/>
<path d="M7.95982 9.67043C7.95982 9.67043 8.02982 9.67043 8.05982 9.71043L8.28983 9.94043L8.99982 10.6604L9.70982 9.95043L9.94982 9.71043C9.94982 9.71043 10.0198 9.68043 10.0498 9.68043C10.1098 9.68043 10.1398 9.71043 10.1498 9.72043C10.2098 9.78043 10.2098 9.88043 10.1498 9.93043L8.99982 11.0804L8.46983 10.5504L7.85983 9.94043C7.85983 9.94043 7.81982 9.85043 7.81982 9.83043C7.81982 9.80043 7.81983 9.76043 7.85983 9.73043C7.88983 9.70043 7.93982 9.69043 7.95982 9.69043V9.67043ZM7.95982 8.69043C7.66982 8.69043 7.36983 8.80043 7.14983 9.02043C6.92983 9.25043 6.81982 9.54043 6.81982 9.83043C6.81982 10.1204 6.92983 10.4204 7.14983 10.6404L7.75983 11.2504L8.60983 12.1104C8.71983 12.2104 8.85982 12.2704 8.98982 12.2704C9.11982 12.2704 9.26983 12.2204 9.36983 12.1104L10.8398 10.6404C11.2798 10.1904 11.2798 9.46043 10.8398 9.02043C10.6098 8.79043 10.3198 8.69043 10.0298 8.69043C9.73982 8.69043 9.43983 8.80043 9.21983 9.02043L8.98982 9.25043L8.75983 9.02043C8.53983 8.80043 8.23982 8.69043 7.94982 8.69043H7.95982Z" fill="#607079"/>
</svg>
