<svg width="24" height="24" viewBox="0 0 24 24" fill="none" xmlns="http://www.w3.org/2000/svg">
<path d="M6.68444 15.2023L6.68354 15.2014L3.88355 12.4014L3.88353 12.4014C3.44269 11.9606 3.09298 11.4373 2.85438 10.8614C2.61578 10.2855 2.49296 9.66817 2.49292 9.04477C2.49288 8.42136 2.61561 7.80407 2.85413 7.22811C3.09266 6.65216 3.44231 6.12881 3.88309 5.68797C4.32387 5.24713 4.84714 4.89743 5.42306 4.65883C5.99898 4.42023 6.61629 4.29741 7.23969 4.29736C7.86308 4.29732 8.48038 4.42007 9.05634 4.65859C9.6316 4.89683 10.1544 5.24588 10.5949 5.68589L11.6421 6.75313L11.9956 7.1134L12.3525 6.75649L13.4198 5.68924C13.4201 5.68895 13.4204 5.68866 13.4207 5.68837C14.3143 4.80405 15.5207 4.308 16.778 4.308C18.0343 4.308 19.24 4.80333 20.1334 5.68644C21.0101 6.5838 21.5007 7.78881 21.5001 9.04349C21.4994 10.2987 21.0071 11.5036 20.1287 12.4002C20.1281 12.4007 20.1276 12.4013 20.127 12.4019L13.3986 19.1293C13.0232 19.4955 12.5195 19.7005 11.995 19.7005C11.4707 19.7005 10.9672 19.4956 10.5919 19.1297L6.68444 15.2023Z" stroke="#8798A1"/>
<path d="M13.0801 19.3835C13.1927 19.311 13.2987 19.2268 13.3964 19.1315C13.2978 19.2277 13.1918 19.3117 13.0801 19.3835ZM7.15611 4.30096C7.20936 4.30007 7.26262 4.30007 7.31587 4.30096C7.28928 4.30052 7.26265 4.30031 7.23599 4.30031C7.20933 4.30031 7.1827 4.30052 7.15611 4.30096ZM3.8828 5.68137C3.90968 5.65454 3.9368 5.62811 3.96417 5.60206C3.93678 5.62813 3.90966 5.65457 3.8828 5.68137L3.8828 5.68137ZM3.88119 5.68297C3.88125 5.68291 3.88131 5.68285 3.88137 5.6828L3.87879 5.68543C3.85599 5.70871 3.83345 5.73218 3.81118 5.75583C3.83422 5.73136 3.85756 5.70707 3.88119 5.68297ZM20.1312 5.68541C20.1315 5.6857 20.1318 5.68598 20.1321 5.68626L20.1312 5.68541ZM17.5661 4.36855C18.5027 4.52202 19.4007 4.95518 20.1298 5.68391L17.5661 4.36855Z" fill="#BF283A" stroke="#8798A1"/>
</svg>
