<svg width="20" height="20" viewBox="0 0 20 20" fill="none" xmlns="http://www.w3.org/2000/svg">
<path d="M15.36 13.45C15.22 13.45 15.09 13.4 14.99 13.29C14.8 13.09 14.82 12.77 15.02 12.58C15.77 11.9 16.18 10.99 16.18 10.03C16.18 9.07 15.76 8.16 15.01 7.47C14.81 7.28 14.79 6.96999 14.98 6.75999C15.17 6.55999 15.48 6.54 15.69 6.73C16.66 7.61 17.19 8.78 17.19 10.03C17.19 11.28 16.66 12.44 15.7 13.31C15.6 13.4 15.48 13.44 15.36 13.44V13.45Z" fill="#BF283A"/>
<path d="M14.31 12.55C14.17 12.55 14.04 12.49 13.94 12.39C13.75 12.18 13.77 11.87 13.97 11.68C14.46 11.24 14.73 10.65 14.73 10.03C14.73 9.40998 14.46 8.82998 13.98 8.38998C13.78 8.19998 13.76 7.88998 13.95 7.67998C14.14 7.47998 14.45 7.45998 14.66 7.64998C15.36 8.27998 15.74 9.12998 15.74 10.03C15.74 10.93 15.35 11.78 14.66 12.42C14.56 12.51 14.44 12.55 14.32 12.55H14.31Z" fill="#BF283A"/>
<path d="M13.28 11.76C13.14 11.76 13.01 11.7 12.91 11.6C12.72 11.4 12.74 11.08 12.94 10.89C13.2 10.66 13.34 10.35 13.34 10.03C13.34 9.71001 13.2 9.40001 12.94 9.17001C12.73 8.98001 12.72 8.67 12.9 8.46C13.09 8.25 13.4 8.24001 13.61 8.42001C14.08 8.84001 14.34 9.41001 14.34 10.02C14.34 10.63 14.08 11.2 13.61 11.62C13.51 11.71 13.39 11.75 13.27 11.75L13.28 11.76Z" fill="#BF283A"/>
<path d="M17.07 2.92999C15.26 1.11999 12.76 0 10 0C4.49 0 0 4.48 0 10C0 15.52 4.49 20 10 20C15.51 20 20 15.51 20 10C20 7.24 18.88 4.73999 17.07 2.92999ZM10 1C12.31 1 14.41 1.86999 16 3.28999L12.22 7.06999V5.7C12.22 5.32 12.04 5 11.73 4.83C11.25 4.56 10.51 4.67 9.78 5.11L6.45 7.14C6.38 7.18 6.32 7.22999 6.26 7.28999H4.59C3.53 7.28999 2.67 8.14999 2.67 9.20999V10.85C2.67 11.91 3.53 12.77 4.59 12.77H6.34C6.43 12.77 6.51 12.75 6.58 12.71L3.29 16C1.87 14.4 1 12.3 1 10C1 5.03 5.04 1 10 1ZM11.23 9.48V14.36C11.23 14.36 11.18 14.38 11.12 14.38C10.96 14.38 10.67 14.32 10.3 14.1L8.01 12.7L11.23 9.48ZM7.13 12.16L6.97 12.07C6.97 12.07 6.84 11.9 6.84 11.79V8.27C6.84 8.17 6.92 8.01999 6.97 7.98999L10.3 5.95999C10.67 5.73999 10.96 5.67999 11.11 5.67999C11.17 5.67999 11.21 5.69 11.22 5.7V8.06L7.13 12.16ZM5.84 8.28999V11.77H4.59C4.08 11.77 3.67 11.36 3.67 10.85V9.20999C3.67 8.70999 4.08 8.28999 4.59 8.28999H5.84ZM10 19C7.7 19 5.6 18.13 4 16.71L7.28 13.43L9.78 14.95C10.24 15.23 10.71 15.38 11.12 15.38C11.35 15.38 11.56 15.33 11.73 15.24C12.04 15.06 12.22 14.74 12.22 14.36V8.48999L16.71 4C18.13 5.59 19 7.7 19 10C19 14.96 14.97 19 10 19Z" fill="#BF283A"/>
</svg>
