<svg width="170" height="160" viewBox="0 0 170 160" fill="none" xmlns="http://www.w3.org/2000/svg">
<g clip-path="url(#clip0_2087_75422)">
<g filter="url(#filter0_d_2087_75422)">
<path d="M155.446 76.3394C155.424 95.2287 148.101 113.379 135.009 126.994C121.916 140.61 104.067 148.638 85.1928 149.399C66.3188 150.16 47.8812 143.595 33.7347 131.078C19.5882 118.561 10.828 101.059 9.28562 82.233C7.74323 63.4067 13.538 44.713 25.4585 30.06C37.379 15.407 54.5024 5.92927 73.2486 3.6082C91.9948 1.28713 110.913 6.30244 126.047 17.6056C141.181 28.9088 151.36 45.6247 154.456 64.2586C155.118 68.2514 155.449 72.2921 155.446 76.3394Z" fill="#F4F7FB"/>
</g>
<path d="M32.9092 10.4554C32.9092 10.9513 32.7622 11.436 32.4867 11.8484C32.2112 12.2607 31.8196 12.5821 31.3614 12.7718C30.9033 12.9616 30.3991 13.0113 29.9127 12.9145C29.4263 12.8178 28.9796 12.579 28.6289 12.2283C28.2783 11.8777 28.0395 11.4309 27.9427 10.9445C27.846 10.4581 27.8956 9.95399 28.0854 9.49583C28.2752 9.03767 28.5965 8.64608 29.0089 8.37056C29.4212 8.09505 29.906 7.948 30.4019 7.948C30.7312 7.948 31.0572 8.01285 31.3614 8.13886C31.6656 8.26487 31.942 8.44956 32.1749 8.68239C32.4077 8.91521 32.5924 9.19162 32.7184 9.49583C32.8444 9.80004 32.9092 10.1261 32.9092 10.4554" fill="#F4F7FB"/>
<path d="M32.9092 10.4554C32.9092 10.9513 32.7622 11.436 32.4867 11.8484C32.2112 12.2607 31.8196 12.5821 31.3614 12.7718C30.9033 12.9616 30.3991 13.0113 29.9127 12.9145C29.4263 12.8178 28.9796 12.579 28.6289 12.2283C28.2783 11.8777 28.0395 11.4309 27.9427 10.9445C27.846 10.4581 27.8956 9.95399 28.0854 9.49583C28.2752 9.03767 28.5965 8.64608 29.0089 8.37056C29.4212 8.09505 29.906 7.948 30.4019 7.948C30.7312 7.948 31.0572 8.01285 31.3614 8.13886C31.6656 8.26487 31.942 8.44956 32.1749 8.68239C32.4077 8.91521 32.5924 9.19162 32.7184 9.49583C32.8444 9.80004 32.9092 10.1261 32.9092 10.4554V10.4554Z" stroke="#F4F7FB" stroke-width="0.668" stroke-miterlimit="10"/>
<path d="M20.4022 15.9475C21.6616 17.2069 22.5193 18.8114 22.8667 20.5583C23.2142 22.3051 23.0358 24.1158 22.3542 25.7612C21.6726 27.4067 20.5184 28.8131 19.0375 29.8026C17.5566 30.7921 15.8156 31.3202 14.0345 31.3202C12.2535 31.3202 10.5124 30.7921 9.03151 29.8026C7.55061 28.8131 6.39639 27.4067 5.7148 25.7612C5.03321 24.1158 4.85487 22.3051 5.20232 20.5583C5.54977 18.8114 6.40741 17.2069 7.66679 15.9475C8.503 15.1112 9.49574 14.4479 10.5883 13.9953C11.6809 13.5427 12.8519 13.3098 14.0345 13.3098C15.2171 13.3098 16.3881 13.5427 17.4807 13.9953C18.5733 14.4479 19.566 15.1112 20.4022 15.9475Z" fill="#F4F7FB"/>
<path d="M20.4022 15.9475C21.6616 17.2069 22.5193 18.8114 22.8667 20.5583C23.2142 22.3051 23.0358 24.1158 22.3542 25.7612C21.6726 27.4067 20.5184 28.8131 19.0375 29.8026C17.5566 30.7921 15.8156 31.3202 14.0345 31.3202C12.2535 31.3202 10.5124 30.7921 9.03151 29.8026C7.55061 28.8131 6.39639 27.4067 5.7148 25.7612C5.03321 24.1158 4.85487 22.3051 5.20232 20.5583C5.54977 18.8114 6.40741 17.2069 7.66679 15.9475C8.503 15.1112 9.49574 14.4479 10.5883 13.9953C11.6809 13.5427 12.8519 13.3098 14.0345 13.3098C15.2171 13.3098 16.3881 13.5427 17.4807 13.9953C18.5733 14.4479 19.566 15.1112 20.4022 15.9475Z" stroke="#F4F7FB" stroke-width="2.4" stroke-miterlimit="10"/>
<g filter="url(#filter1_d_2087_75422)">
<path d="M68.9095 42.5752C68.7719 42.5754 68.636 42.5451 68.5114 42.4865C68.4278 42.4564 68.3522 42.4074 68.2905 42.3433C68.2289 42.2792 68.1829 42.2018 68.156 42.1171C68.1291 42.0323 68.1221 41.9425 68.1356 41.8547C68.149 41.7668 68.1826 41.6832 68.2336 41.6104L71.0694 37.71C71.1981 37.558 71.3738 37.4533 71.5687 37.4124C71.7637 37.3715 71.9667 37.3968 72.1456 37.4842C72.2292 37.5144 72.3046 37.5633 72.3662 37.6274C72.4278 37.6914 72.4738 37.7687 72.5006 37.8533C72.5275 37.938 72.5345 38.0277 72.5211 38.1155C72.5078 38.2033 72.4743 38.2868 72.4235 38.3596L69.5906 42.2629C69.5096 42.3641 69.4061 42.4452 69.2885 42.4998C69.1708 42.5543 69.0421 42.5809 68.9125 42.5774" fill="white"/>
</g>
<g filter="url(#filter2_d_2087_75422)">
<path d="M71.8585 42.5752C71.7203 42.5753 71.5838 42.5448 71.4589 42.4858C71.3754 42.4554 71.3001 42.4063 71.2387 42.3421C71.1773 42.2779 71.1315 42.2005 71.1048 42.1158C71.0781 42.031 71.0713 41.9413 71.0849 41.8536C71.0986 41.7658 71.1322 41.6823 71.1832 41.6097L74.0176 37.7071C74.146 37.5547 74.3218 37.4498 74.517 37.4091C74.7121 37.3685 74.9152 37.3944 75.0938 37.4828C75.1773 37.5131 75.2526 37.5621 75.314 37.6262C75.3754 37.6903 75.4212 37.7677 75.4479 37.8524C75.4746 37.937 75.4814 38.0267 75.4678 38.1144C75.4542 38.2022 75.4205 38.2856 75.3695 38.3582L72.5359 42.2636C72.4551 42.3648 72.3519 42.4457 72.2345 42.5002C72.117 42.5547 71.9886 42.5811 71.8592 42.5774" fill="white"/>
</g>
<g filter="url(#filter3_d_2087_75422)">
<path d="M75.1495 42.5752C75.0113 42.5753 74.8748 42.5448 74.7499 42.4858C74.6664 42.4554 74.5911 42.4063 74.5297 42.3421C74.4683 42.2779 74.4225 42.2005 74.3958 42.1158C74.3692 42.031 74.3624 41.9413 74.376 41.8536C74.3896 41.7658 74.4232 41.6823 74.4742 41.6097L77.3086 37.7071C77.437 37.5547 77.6129 37.4498 77.808 37.4091C78.0031 37.3685 78.2062 37.3944 78.3848 37.4828C78.4683 37.5131 78.5436 37.5621 78.605 37.6262C78.6665 37.6903 78.7123 37.7677 78.7389 37.8524C78.7656 37.937 78.7724 38.0267 78.7588 38.1144C78.7452 38.2022 78.7115 38.2856 78.6605 38.3582L75.8262 42.2614C75.7454 42.3626 75.6422 42.4435 75.5248 42.498C75.4073 42.5525 75.2789 42.5789 75.1495 42.5752" fill="white"/>
</g>
<g filter="url(#filter4_d_2087_75422)">
<path d="M127.967 88.7384V113.775C127.967 125.967 117.689 135.88 105.048 135.88H70.3473L56.916 148.893C56.5019 149.293 55.979 149.563 55.4126 149.668C54.8463 149.773 54.2615 149.709 53.7314 149.484C53.2012 149.258 52.7491 148.882 52.4315 148.401C52.1138 147.921 51.9448 147.357 51.9453 146.781V132.229C48.7737 130.303 46.15 127.594 44.3258 124.363C42.5015 121.132 41.5379 117.486 41.5273 113.775V88.7384C41.5273 76.5096 51.806 66.5681 64.4454 66.5681H105.046C117.686 66.5681 127.965 76.5096 127.965 88.7384" fill="white"/>
</g>
<g filter="url(#filter5_d_2087_75422)">
<path d="M37.2656 54.0847H28.1746C26.8443 54.0878 25.5695 54.6184 24.6298 55.5602C23.6901 56.5019 23.1623 57.7779 23.1621 59.1082V64.9595C23.1591 65.8033 23.3722 66.6339 23.7812 67.372C24.1902 68.11 24.7815 68.7311 25.4987 69.1758V72.6699C25.4976 72.7751 25.5285 72.8781 25.5873 72.9653C25.6461 73.0525 25.73 73.1197 25.8279 73.1582C25.8907 73.1883 25.9598 73.2029 26.0295 73.2007C26.0991 73.2017 26.1682 73.188 26.2322 73.1606C26.2962 73.1332 26.3538 73.0927 26.4012 73.0416L29.4489 69.972H37.2656C38.5943 69.9694 39.8678 69.4405 40.8072 68.501C41.7467 67.5616 42.2756 66.2881 42.2782 64.9595V59.1082C42.278 57.7779 41.7501 56.5019 40.8105 55.5602C39.8708 54.6184 38.596 54.0878 37.2656 54.0847V54.0847ZM29.3858 62.5276C29.3452 62.6224 29.2876 62.7089 29.2157 62.7827C29.069 62.9213 28.8757 62.9997 28.6739 63.0027C28.4682 63.0043 28.2701 62.9253 28.1219 62.7827C28.0498 62.709 27.9921 62.6225 27.9518 62.5276C27.9134 62.4332 27.8952 62.3318 27.8983 62.23C27.894 62.1273 27.9118 62.025 27.9504 61.9297C27.9889 61.8345 28.0474 61.7487 28.1219 61.6779C28.1877 61.597 28.2763 61.5377 28.3763 61.5078C28.4682 61.4654 28.5683 61.4435 28.6695 61.4435C28.7708 61.4435 28.8708 61.4654 28.9628 61.5078C29.0642 61.5348 29.1539 61.5946 29.2179 61.6779C29.2916 61.7497 29.3503 61.8355 29.3903 61.9304C29.4303 62.0252 29.451 62.127 29.4511 62.23C29.4503 62.3324 29.4289 62.4337 29.388 62.5276H29.3858ZM33.4445 62.5276C33.4002 62.6203 33.3429 62.7062 33.2744 62.7827C33.124 62.9219 32.9273 63.0003 32.7223 63.0027C32.517 63.0023 32.3196 62.9237 32.1703 62.7827C32.1018 62.7062 32.0445 62.6203 32.0002 62.5276C31.9619 62.4332 31.9436 62.3318 31.9467 62.23C31.945 62.1276 31.9639 62.026 32.0023 61.9312C32.0407 61.8363 32.0978 61.7502 32.1703 61.6779C32.238 61.5991 32.326 61.5403 32.4247 61.5078C32.5183 61.4658 32.6197 61.444 32.7223 61.444C32.825 61.444 32.9264 61.4658 33.02 61.5078C33.1187 61.5403 33.2067 61.5991 33.2744 61.6779C33.4153 61.8272 33.494 62.0246 33.4943 62.23C33.4976 62.3318 33.4796 62.4331 33.4416 62.5276H33.4445ZM37.4878 62.5063C37.4501 62.5994 37.3919 62.6828 37.3177 62.7505C37.246 62.8244 37.1602 62.8831 37.0653 62.9233C36.9705 62.9635 36.8686 62.9842 36.7656 62.9844C36.6642 62.9841 36.5639 62.9633 36.4707 62.9231C36.3776 62.8829 36.2936 62.8241 36.2238 62.7505C36.1498 62.6827 36.0917 62.5993 36.0538 62.5063C36.0134 62.4122 35.9917 62.3111 35.99 62.2087C35.9868 62.1052 36.006 62.0023 36.0464 61.907C36.0867 61.8117 36.1473 61.7263 36.2238 61.6566C36.2878 61.5734 36.3775 61.5136 36.479 61.4865C36.571 61.4446 36.6711 61.4228 36.7722 61.4228C36.8734 61.4228 36.9734 61.4446 37.0655 61.4865C37.1654 61.5164 37.2541 61.5757 37.3199 61.6566C37.4627 61.8047 37.5417 62.003 37.5398 62.2087C37.5422 62.3104 37.5242 62.4116 37.4871 62.5063" fill="white"/>
</g>
<path d="M37.5373 62.2052C37.5392 62.3071 37.5213 62.4085 37.4845 62.5036C37.4461 62.5963 37.3881 62.6796 37.3144 62.7477C37.2424 62.8212 37.1565 62.8796 37.0618 62.9196C36.967 62.9597 36.8652 62.9805 36.7624 62.9808C36.661 62.9806 36.5607 62.9598 36.4676 62.9197C36.3745 62.8796 36.2905 62.8211 36.2206 62.7477C36.1466 62.6798 36.0886 62.5964 36.0505 62.5036C36.0102 62.4092 35.9885 62.3078 35.9867 62.2052C35.9834 62.1017 36.0026 61.9988 36.043 61.9034C36.0833 61.8081 36.1439 61.7227 36.2206 61.6531C36.2842 61.57 36.3737 61.5105 36.475 61.4838C36.5668 61.4411 36.6669 61.4189 36.7682 61.4189C36.8695 61.4189 36.9696 61.4411 37.0615 61.4838C37.1618 61.5129 37.2508 61.572 37.3166 61.6531C37.459 61.8015 37.5379 61.9995 37.5366 62.2052" fill="#F4F7FB"/>
<path d="M33.4923 62.2263C33.4954 62.3281 33.4775 62.4295 33.4395 62.524C33.3954 62.6165 33.3381 62.7022 33.2694 62.7784C33.1196 62.919 32.9228 62.9988 32.7174 63.002C32.5113 63.0008 32.3135 62.9208 32.1646 62.7784C32.0959 62.7022 32.0386 62.6165 31.9945 62.524C31.9569 62.4294 31.9389 62.3281 31.9417 62.2263C31.9394 62.1243 31.9577 62.0228 31.9955 61.9279C32.0333 61.8331 32.0898 61.7468 32.1616 61.6743C32.2298 61.5956 32.3179 61.5368 32.4168 61.5042C32.5102 61.4622 32.6116 61.4404 32.7141 61.4404C32.8165 61.4404 32.9179 61.4622 33.0113 61.5042C33.1103 61.5366 33.1985 61.5954 33.2665 61.6743C33.4074 61.8236 33.4861 62.021 33.4864 62.2263" fill="#F4F7FB"/>
<path d="M29.4459 62.2264C29.4451 62.3289 29.4234 62.4302 29.3821 62.524C29.342 62.6188 29.2842 62.7051 29.212 62.7784C29.0666 62.9189 28.8731 62.9989 28.6709 63.0021C28.4645 63.0029 28.266 62.9226 28.1182 62.7784C28.0461 62.705 27.9885 62.6187 27.9481 62.524C27.9104 62.4294 27.8925 62.3282 27.8953 62.2264C27.8906 62.124 27.9078 62.0219 27.9458 61.9267C27.9837 61.8315 28.0415 61.7455 28.1152 61.6743C28.1813 61.5934 28.2702 61.5341 28.3704 61.5042C28.4623 61.4619 28.5624 61.4399 28.6636 61.4399C28.7649 61.4399 28.8649 61.4619 28.9569 61.5042C29.0581 61.5313 29.1476 61.5911 29.2113 61.6743C29.2852 61.7461 29.3439 61.8319 29.3841 61.9267C29.4243 62.0215 29.445 62.1234 29.4451 62.2264" fill="#F4F7FB"/>
<path d="M129.361 112.012H145.282L155.872 92.4202H168.218" stroke="#C8D3D9" stroke-width="3" stroke-linecap="round" stroke-linejoin="round"/>
<path d="M40.636 113.137H24.715L14.1247 93.5435H1.7793" stroke="#C8D3D9" stroke-width="3" stroke-linecap="round" stroke-linejoin="round"/>
<path d="M73.2335 103.341C73.2335 104.526 72.8822 105.684 72.224 106.669C71.5659 107.654 70.6304 108.422 69.5359 108.875C68.4414 109.328 67.2371 109.447 66.0752 109.216C64.9132 108.985 63.846 108.414 63.0083 107.577C62.1706 106.739 61.6001 105.672 61.369 104.51C61.1379 103.348 61.2565 102.143 61.7099 101.049C62.1632 99.9544 62.9309 99.0189 63.916 98.3608C64.901 97.7026 66.059 97.3513 67.2437 97.3513C68.8323 97.3513 70.3558 97.9824 71.4791 99.1057C72.6024 100.229 73.2335 101.753 73.2335 103.341" fill="#C8D3D9"/>
<path d="M113.251 103.341C113.251 104.526 112.9 105.684 112.242 106.669C111.583 107.654 110.648 108.422 109.553 108.875C108.459 109.328 107.255 109.447 106.093 109.216C104.931 108.985 103.864 108.414 103.026 107.577C102.188 106.739 101.618 105.672 101.387 104.51C101.155 103.348 101.274 102.143 101.727 101.049C102.181 99.9544 102.949 99.0189 103.934 98.3608C104.919 97.7026 106.077 97.3513 107.261 97.3513C108.85 97.3513 110.373 97.9824 111.497 99.1057C112.62 100.229 113.251 101.753 113.251 103.341Z" fill="#C8D3D9"/>
<path d="M84.334 108.729H90.1691" stroke="#C8D3D9" stroke-width="3" stroke-linecap="round" stroke-linejoin="round"/>
<g filter="url(#filter6_d_2087_75422)">
<path d="M139.902 25.317C136.78 21.2522 132.317 18.428 127.306 17.348C122.296 16.268 117.065 17.0023 112.546 19.42C108.027 21.8377 104.514 25.7817 102.632 30.5489C100.75 35.3161 100.622 40.5966 102.271 45.4493C103.92 50.3019 107.239 54.4111 111.636 57.0445C116.033 59.6779 121.222 60.6643 126.279 59.8278C131.335 58.9913 135.93 56.3862 139.245 52.4771C142.56 48.568 144.378 43.6088 144.377 38.4836C144.379 33.7211 142.806 29.0916 139.902 25.317V25.317ZM122.733 50.521C122.293 50.5192 121.863 50.3872 121.498 50.1416C121.133 49.896 120.849 49.5479 120.681 49.141C120.514 48.7342 120.471 48.2869 120.557 47.8555C120.643 47.4241 120.855 47.0279 121.167 46.7169C121.478 46.4058 121.874 46.1939 122.305 46.1077C122.737 46.0216 123.184 46.0651 123.591 46.2327C123.998 46.4004 124.346 46.6848 124.591 47.0499C124.837 47.4151 124.968 47.8447 124.97 48.2847C124.968 48.8775 124.732 49.4455 124.313 49.8646C123.894 50.2836 123.325 50.5196 122.733 50.521V50.521ZM125.142 42.8833C125.05 43.731 123.964 44.3792 122.733 44.3792C121.501 44.3792 120.429 43.731 120.324 42.8833L119.967 39.9461L118.881 31.1346C118.77 30.5876 118.776 30.0231 118.901 29.4789C119.025 28.9347 119.264 28.4233 119.602 27.979C119.94 27.5346 120.369 27.1675 120.86 26.9021C121.351 26.6368 121.893 26.4794 122.45 26.4404C123.007 26.4015 123.566 26.4818 124.089 26.6761C124.612 26.8705 125.088 27.1743 125.485 27.5673C125.881 27.9603 126.189 28.4334 126.388 28.9549C126.587 29.4765 126.672 30.0346 126.638 30.5917C126.645 30.7736 126.631 30.9556 126.599 31.1346L126.148 34.7747L125.142 42.8833Z" fill="#C8D3D9"/>
</g>
</g>
<defs>
<filter id="filter0_d_2087_75422" x="3.04102" y="2.05322" width="158.404" height="158.405" filterUnits="userSpaceOnUse" color-interpolation-filters="sRGB">
<feFlood flood-opacity="0" result="BackgroundImageFix"/>
<feColorMatrix in="SourceAlpha" type="matrix" values="0 0 0 0 0 0 0 0 0 0 0 0 0 0 0 0 0 0 127 0" result="hardAlpha"/>
<feOffset dy="5"/>
<feGaussianBlur stdDeviation="3"/>
<feColorMatrix type="matrix" values="0 0 0 0 0.784314 0 0 0 0 0.827451 0 0 0 0 0.85098 0 0 0 0.302 0"/>
<feBlend mode="normal" in2="BackgroundImageFix" result="effect1_dropShadow_2087_75422"/>
<feBlend mode="normal" in="SourceGraphic" in2="effect1_dropShadow_2087_75422" result="shape"/>
</filter>
<filter id="filter1_d_2087_75422" x="62.1289" y="34.3933" width="16.3984" height="17.1843" filterUnits="userSpaceOnUse" color-interpolation-filters="sRGB">
<feFlood flood-opacity="0" result="BackgroundImageFix"/>
<feColorMatrix in="SourceAlpha" type="matrix" values="0 0 0 0 0 0 0 0 0 0 0 0 0 0 0 0 0 0 127 0" result="hardAlpha"/>
<feOffset dy="3"/>
<feGaussianBlur stdDeviation="3"/>
<feColorMatrix type="matrix" values="0 0 0 0 0.784314 0 0 0 0 0.827451 0 0 0 0 0.85098 0 0 0 0.302 0"/>
<feBlend mode="normal" in2="BackgroundImageFix" result="effect1_dropShadow_2087_75422"/>
<feBlend mode="normal" in="SourceGraphic" in2="effect1_dropShadow_2087_75422" result="shape"/>
</filter>
<filter id="filter2_d_2087_75422" x="65.0781" y="34.3904" width="16.3965" height="17.1873" filterUnits="userSpaceOnUse" color-interpolation-filters="sRGB">
<feFlood flood-opacity="0" result="BackgroundImageFix"/>
<feColorMatrix in="SourceAlpha" type="matrix" values="0 0 0 0 0 0 0 0 0 0 0 0 0 0 0 0 0 0 127 0" result="hardAlpha"/>
<feOffset dy="3"/>
<feGaussianBlur stdDeviation="3"/>
<feColorMatrix type="matrix" values="0 0 0 0 0.784314 0 0 0 0 0.827451 0 0 0 0 0.85098 0 0 0 0.302 0"/>
<feBlend mode="normal" in2="BackgroundImageFix" result="effect1_dropShadow_2087_75422"/>
<feBlend mode="normal" in="SourceGraphic" in2="effect1_dropShadow_2087_75422" result="shape"/>
</filter>
<filter id="filter3_d_2087_75422" x="68.3691" y="34.3904" width="16.3965" height="17.1851" filterUnits="userSpaceOnUse" color-interpolation-filters="sRGB">
<feFlood flood-opacity="0" result="BackgroundImageFix"/>
<feColorMatrix in="SourceAlpha" type="matrix" values="0 0 0 0 0 0 0 0 0 0 0 0 0 0 0 0 0 0 127 0" result="hardAlpha"/>
<feOffset dy="3"/>
<feGaussianBlur stdDeviation="3"/>
<feColorMatrix type="matrix" values="0 0 0 0 0.784314 0 0 0 0 0.827451 0 0 0 0 0.85098 0 0 0 0.302 0"/>
<feBlend mode="normal" in2="BackgroundImageFix" result="effect1_dropShadow_2087_75422"/>
<feBlend mode="normal" in="SourceGraphic" in2="effect1_dropShadow_2087_75422" result="shape"/>
</filter>
<filter id="filter4_d_2087_75422" x="35.5273" y="63.5681" width="98.4395" height="95.1489" filterUnits="userSpaceOnUse" color-interpolation-filters="sRGB">
<feFlood flood-opacity="0" result="BackgroundImageFix"/>
<feColorMatrix in="SourceAlpha" type="matrix" values="0 0 0 0 0 0 0 0 0 0 0 0 0 0 0 0 0 0 127 0" result="hardAlpha"/>
<feOffset dy="3"/>
<feGaussianBlur stdDeviation="3"/>
<feColorMatrix type="matrix" values="0 0 0 0 0.784314 0 0 0 0 0.827451 0 0 0 0 0.85098 0 0 0 0.302 0"/>
<feBlend mode="normal" in2="BackgroundImageFix" result="effect1_dropShadow_2087_75422"/>
<feBlend mode="normal" in="SourceGraphic" in2="effect1_dropShadow_2087_75422" result="shape"/>
</filter>
<filter id="filter5_d_2087_75422" x="17.1621" y="51.0847" width="31.1152" height="31.1162" filterUnits="userSpaceOnUse" color-interpolation-filters="sRGB">
<feFlood flood-opacity="0" result="BackgroundImageFix"/>
<feColorMatrix in="SourceAlpha" type="matrix" values="0 0 0 0 0 0 0 0 0 0 0 0 0 0 0 0 0 0 127 0" result="hardAlpha"/>
<feOffset dy="3"/>
<feGaussianBlur stdDeviation="3"/>
<feColorMatrix type="matrix" values="0 0 0 0 0.784314 0 0 0 0 0.827451 0 0 0 0 0.85098 0 0 0 0.302 0"/>
<feBlend mode="normal" in2="BackgroundImageFix" result="effect1_dropShadow_2087_75422"/>
<feBlend mode="normal" in="SourceGraphic" in2="effect1_dropShadow_2087_75422" result="shape"/>
</filter>
<filter id="filter6_d_2087_75422" x="95.1211" y="13.8623" width="55.2559" height="55.2556" filterUnits="userSpaceOnUse" color-interpolation-filters="sRGB">
<feFlood flood-opacity="0" result="BackgroundImageFix"/>
<feColorMatrix in="SourceAlpha" type="matrix" values="0 0 0 0 0 0 0 0 0 0 0 0 0 0 0 0 0 0 127 0" result="hardAlpha"/>
<feOffset dy="3"/>
<feGaussianBlur stdDeviation="3"/>
<feColorMatrix type="matrix" values="0 0 0 0 0.784314 0 0 0 0 0.827451 0 0 0 0 0.85098 0 0 0 0.302 0"/>
<feBlend mode="normal" in2="BackgroundImageFix" result="effect1_dropShadow_2087_75422"/>
<feBlend mode="normal" in="SourceGraphic" in2="effect1_dropShadow_2087_75422" result="shape"/>
</filter>
<clipPath id="clip0_2087_75422">
<rect width="168.639" height="160" fill="white" transform="translate(0.679688)"/>
</clipPath>
</defs>
</svg>
