<svg width="102" height="100" viewBox="0 0 102 100" fill="none" xmlns="http://www.w3.org/2000/svg">
<g clip-path="url(#clip0_3896_368786)">
<g filter="url(#filter0_d_3896_368786)">
<path d="M97.6775 48.8488C97.6637 60.3916 93.1884 71.4823 85.1874 79.8022C77.1863 88.1221 66.2789 93.0271 54.7454 93.4917C43.2119 93.9564 31.9453 89.9448 23.3009 82.2955C14.6565 74.6463 9.30351 63.9516 8.36111 52.4473C7.4187 40.943 10.9598 29.5197 18.2441 20.5656C25.5284 11.6115 35.992 5.81975 47.4474 4.40123C58.9027 2.98271 70.463 6.04722 79.7113 12.9541C88.9597 19.8609 95.1802 30.0754 97.0724 41.4621C97.4743 43.9038 97.6767 46.3742 97.6775 48.8488Z" fill="#F4F7FB"/>
</g>
<path d="M59.112 58.9046V67.1618C59.1074 68.7653 58.4684 70.3017 57.3346 71.4355C56.2008 72.5693 54.6643 73.2083 53.0609 73.2129H52.0977C50.4943 73.2083 48.9578 72.5693 47.824 71.4355C46.6902 70.3017 46.0512 68.7653 46.0466 67.1618V58.8975C48.5119 60.5312 50.286 61.5761 52.3393 61.8338C52.4128 61.841 52.5011 61.8486 52.5818 61.8557L52.8175 61.8338C54.8655 61.5761 56.6467 60.5312 59.112 58.9046Z" fill="white" stroke="#F4F7FB" stroke-width="0.401" stroke-miterlimit="10"/>
<path d="M40.4216 54.3391C39.1635 54.361 38.5597 54.037 38.2729 53.6323C37.9344 53.1616 37.9049 52.4404 37.8018 52.4404C37.6619 52.4548 37.8914 53.7573 37.5517 53.8828C37.0438 54.0666 35.653 51.4687 35.5055 51.1742C35.454 51.0568 35.4024 50.946 35.4024 50.946C35.3221 50.7272 35.2558 50.5036 35.2039 50.2764C35.7995 50.4835 36.4156 50.6267 37.0416 50.7035C37.6577 50.85 38.2924 50.902 38.9241 50.8577C38.9887 51.2518 39.0822 51.6405 39.2038 52.0209C39.3509 52.478 39.5432 52.9193 39.778 53.3382C39.8954 53.5516 40.0205 53.7576 40.1532 53.9563C40.245 54.0885 40.3262 54.2136 40.4216 54.3391Z" fill="#C8D3D9" stroke="#C8D3D9" stroke-width="0.414" stroke-miterlimit="10"/>
<path d="M68.5892 50.6079C68.5816 50.6671 68.5668 50.7258 68.5596 50.7845C68.4566 51.6371 68.2024 52.4645 67.8089 53.2278C67.2262 54.3246 66.3078 55.2811 66.0576 55.1417C65.8438 55.0238 66.1164 54.148 66.0576 54.1404C65.9765 54.1404 65.7484 55.5169 65.4615 55.5169C65.2553 55.5169 65.0581 54.8028 64.946 54.0377C65.1012 53.8127 65.2438 53.5793 65.3732 53.3385C65.6104 52.9197 65.8056 52.4784 65.9559 52.0211C66.0696 51.6436 66.163 51.2603 66.2356 50.8728C66.8437 50.8923 67.4519 50.8356 68.046 50.7038C68.2432 50.6671 68.4198 50.6375 68.5892 50.6079Z" fill="#C8D3D9" stroke="#C8D3D9" stroke-width="0.414" stroke-miterlimit="10"/>
<path d="M38.9279 50.858C38.2962 50.9023 37.6614 50.8503 37.0454 50.7038C36.4194 50.627 35.8033 50.4838 35.2076 50.2767C34.9558 50.1805 34.72 50.0466 34.5084 49.8795C33.8995 49.4532 33.4695 48.8169 33.3011 48.0928C33.1326 47.3688 33.2376 46.6081 33.5958 45.9567C33.7041 45.7452 33.8376 45.5476 33.9934 45.3682C34.378 44.9196 34.8617 44.5667 35.4062 44.3372C35.7324 44.1771 36.0724 44.0466 36.4219 43.9473C37.2094 46.8159 38.2471 48.8558 38.512 48.7823C38.6962 48.7236 38.4313 47.664 38.1807 44.9482C38.2547 45.4928 38.3354 46.0889 38.4165 46.7585C38.6334 48.6429 38.7441 49.8795 38.9279 50.858Z" fill="white" stroke="#F4F7FB" stroke-width="0.414" stroke-miterlimit="10"/>
<path d="M71.7092 48.3777C71.4909 48.9787 71.099 49.5013 70.5833 49.8792C69.9934 50.2916 69.3059 50.5427 68.5891 50.6076C68.4197 50.6372 68.2431 50.6667 68.0445 50.7035C67.4505 50.8353 66.8423 50.892 66.2341 50.8725C66.3811 50.0558 66.4842 49.0697 66.6461 47.6712C67.0943 47.2813 67.971 45.9053 68.6259 43.9326C68.8694 43.9988 69.1079 44.0826 69.3394 44.1832C70.2258 44.5348 70.9798 45.155 71.4958 45.9568C71.8818 46.7045 71.9584 47.574 71.7092 48.3777Z" fill="white" stroke="#F4F7FB" stroke-width="0.414" stroke-miterlimit="10"/>
<g filter="url(#filter1_d_3896_368786)">
<path d="M66.776 43.8376C66.6362 45.8685 66.1207 47.7012 66.4175 47.7819C66.469 47.7967 66.5425 47.76 66.6456 47.6717C66.4838 49.0701 66.3807 50.0562 66.2337 50.8729C66.1611 51.2604 66.0677 51.6437 65.954 52.0212C65.7084 52.7352 65.3693 53.4134 64.9455 54.0382C63.8343 55.7164 62.3256 56.7469 60.405 58.0346C59.9487 58.3435 59.5215 58.6308 59.1096 58.9028C56.6444 60.5295 54.8631 61.5743 52.8174 61.832L52.5816 61.854C52.501 61.8468 52.4127 61.8392 52.3391 61.832C50.2858 61.5743 48.5122 60.5295 46.0465 58.8957C45.6346 58.6232 45.2079 58.3363 44.7587 58.0346C42.9555 56.8276 41.5208 55.8415 40.424 54.3404C40.3285 54.2149 40.2474 54.0898 40.1591 53.9576C40.027 53.7586 39.9019 53.5525 39.7839 53.3395C39.5491 52.9206 39.3568 52.4793 39.2097 52.0222C39.0881 51.6418 38.9946 51.2531 38.93 50.859C38.7463 49.8805 38.6355 48.6439 38.415 46.76C38.3339 46.0903 38.2532 45.4942 38.1793 44.9496C38.1501 44.5964 38.1134 44.2136 38.0838 43.8017C38.069 43.6027 38.0542 43.3893 38.039 43.1742C37.9553 42.3103 37.9307 41.4417 37.9654 40.5745C38.1788 37.7928 39.3787 35.5776 39.6216 35.6583C39.9085 35.748 39.2756 38.1236 39.4742 38.5875C39.4762 38.604 39.4827 38.6196 39.4931 38.6326C39.5035 38.6456 39.5173 38.6554 39.5329 38.661C39.9085 38.7789 40.5486 35.8058 43.0362 33.7449C43.883 33.0562 44.8481 32.5275 45.8842 32.1846C46.1978 33.338 46.7082 34.4286 47.393 35.4082C50.4028 39.6986 56.158 40.6112 56.3127 40.2939C56.3714 40.1908 55.422 39.8743 54.5906 38.8219C53.7347 37.6304 53.3161 36.18 53.4055 34.7157C54.1697 35.9501 55.1553 37.0328 56.3127 37.9093C58.3663 39.4317 60.8305 40.301 63.3848 40.4041C63.9294 40.4041 64.2606 40.3454 64.2812 40.2643C64.3399 40.0438 62.0289 39.7569 59.9904 37.7036L59.9756 37.6888C59.3794 37.009 58.8449 36.2774 58.3785 35.5028C59.3148 36.1519 60.2875 36.7466 61.292 37.2841C63.7796 38.6086 64.5968 38.3732 65.4722 39.1092C66.0752 39.6518 66.4815 40.3789 66.6277 41.1769C66.8033 42.0522 66.8533 42.9481 66.776 43.8376Z" fill="white" stroke="#F4F7FB" stroke-width="0.414" stroke-miterlimit="10"/>
</g>
<path d="M56.3137 37.9133C55.1565 37.0364 54.1709 35.9536 53.4065 34.7192C54.2055 35.9272 55.1861 37.0045 56.3137 37.9133Z" fill="white" stroke="#F4F7FB" stroke-width="0.414" stroke-miterlimit="10"/>
<path d="M69.6609 41.2834C69.5135 42.564 69.4328 43.1968 69.3813 43.7266C69.3665 43.8813 69.3517 44.0288 69.3364 44.1829C69.1049 44.0826 68.8664 43.999 68.6229 43.9328C67.9676 45.905 67.0922 47.2815 66.643 47.6715C66.5399 47.7611 66.4664 47.7965 66.4149 47.7817C66.1204 47.701 66.6359 45.8683 66.7735 43.8374C66.8507 42.9492 66.801 42.0545 66.626 41.1803C66.4798 40.3824 66.0735 39.6553 65.4705 39.1126C64.5951 38.3766 63.778 38.6119 61.2903 37.2874C60.2859 36.75 59.3131 36.1553 58.3769 35.5062C58.7969 36.3106 59.3353 37.0475 59.9739 37.6922L59.9887 37.707C62.0272 39.7603 64.3365 40.0472 64.2795 40.2677C64.2571 40.3488 63.9259 40.4076 63.3831 40.4076C60.8288 40.3044 58.3646 39.4351 56.311 37.9127C55.1833 37.0042 54.2027 35.927 53.4038 34.7191C53.3144 36.1835 53.733 37.6338 54.5889 38.8253C55.4204 39.8777 56.3697 40.1942 56.311 40.2973C56.1564 40.6137 50.4011 39.7012 47.3913 35.4116C46.7065 34.432 46.1961 33.3414 45.8826 32.188C44.8464 32.5309 43.8813 33.0596 43.0345 33.7482C40.5469 35.8101 39.9068 38.7823 39.5312 38.6644C39.5156 38.6588 39.5018 38.6489 39.4914 38.6359C39.4811 38.623 39.4745 38.6073 39.4725 38.5909C39.2739 38.1274 39.9068 35.75 39.62 35.6617C39.377 35.5811 38.1771 37.7962 37.9638 40.5779C37.9291 41.4451 37.9536 42.3137 38.0373 43.1776C38.0521 43.3909 38.0669 43.6043 38.0821 43.8051C38.1045 44.0987 38.1363 44.4913 38.1776 44.953C38.4295 47.7625 38.65 48.7481 38.5088 48.7871C38.2439 48.8606 37.2063 46.8221 36.4187 43.9521C36.0692 44.0515 35.7293 44.182 35.4031 44.3421C34.8586 44.5715 34.3749 44.9245 33.9903 45.373C33.9535 45.2332 33.8872 44.9978 33.8284 44.7033C33.6748 43.9358 33.6252 43.1511 33.681 42.3703C33.8208 40.1108 32.5035 37.1449 33.0705 33.4435C33.4822 31.1742 34.4506 29.0425 35.8889 27.2396C36.7672 26.125 37.8609 25.1987 39.105 24.5161C39.6394 24.2308 40.1985 23.9944 40.7755 23.8098C40.6425 23.6835 40.524 23.5428 40.4223 23.3902C39.8481 22.5144 39.8114 21.1971 40.2824 20.947C40.5182 20.8219 40.849 20.9917 41.0332 21.0868C41.1363 21.1459 41.4232 21.3078 41.9974 22.1688C42.3434 22.6914 42.4093 22.8824 42.5352 22.8752C42.7342 22.8533 42.7118 22.3602 43.0283 21.6758C43.2883 21.1296 43.665 20.6471 44.1318 20.2625C44.1766 20.2257 44.5513 20.0052 45.3093 19.5637C45.6482 19.3575 45.8171 19.2616 45.9422 19.3279C46.0677 19.3867 46.082 19.5709 46.082 20.314C46.082 20.7116 46.082 20.9985 46.0677 21.2105C45.8354 21.5907 45.6732 22.0096 45.589 22.4471C45.7099 22.3133 45.8138 22.165 45.8983 22.0056C46.0128 21.7564 46.0707 21.4848 46.0677 21.2105C46.2143 20.9654 46.398 20.7445 46.6123 20.5556C47.2442 20.0615 48.0179 19.783 48.8198 19.761C50.2781 19.5825 51.7524 19.5751 53.2124 19.739C56.9439 20.1728 58.7834 20.6072 60.1379 21.1885C60.1379 21.1885 65.8636 23.6318 68.5937 29.041C68.9375 29.7288 69.235 30.4387 69.4843 31.166C69.8161 32.1502 70.0575 33.1626 70.2055 34.1907C70.4117 35.742 70.2275 36.5147 69.6609 41.2834Z" fill="#C8D3D9" stroke="#C8D3D9" stroke-width="0.414" stroke-miterlimit="10"/>
<path d="M56.3137 37.9133C55.1565 37.0364 54.1709 35.9536 53.4065 34.7192C54.2055 35.9272 55.1861 37.0045 56.3137 37.9133Z" fill="white" stroke="#F4F7FB" stroke-width="0.414" stroke-miterlimit="10"/>
<path d="M78.6953 85.5C71.1243 90.8611 62.076 93.7403 52.7991 93.7403C43.5221 93.7403 34.4738 90.8611 26.9028 85.5C27.0044 84.5245 27.1797 83.5581 27.4273 82.609C27.6469 81.7648 27.9239 80.9367 28.2565 80.1303C30.2101 75.5771 33.5844 71.7782 37.8754 69.3011C38.6308 68.8414 39.4104 68.4225 40.2106 68.0461C42.0776 67.1678 44.0344 66.4946 46.0465 66.0381V67.1632C46.0522 68.7658 46.6917 70.3011 47.8254 71.434C48.9591 72.5668 50.4949 73.2052 52.0976 73.2097H53.0613C54.664 73.2052 56.1998 72.5668 57.3335 71.434C58.4672 70.3011 59.1066 68.7658 59.1123 67.1632V65.9395C69.7039 68.1851 77.7226 75.9752 78.6953 85.5Z" fill="white" stroke="#F4F7FB" stroke-width="0.401" stroke-miterlimit="10"/>
<g filter="url(#filter2_d_3896_368786)">
<path d="M86.6138 33.7041C84.7884 33.7041 83.004 34.2453 81.4862 35.2593C79.9684 36.2733 78.7853 37.7146 78.0865 39.4009C77.3877 41.0872 77.2046 42.9428 77.5602 44.7332C77.9159 46.5236 78.7945 48.1684 80.0848 49.4595C81.3751 50.7506 83.0193 51.6302 84.8095 51.987C86.5996 52.3438 88.4554 52.1619 90.1422 51.4642C91.8289 50.7664 93.2709 49.5842 94.2859 48.067C95.3009 46.5499 95.8432 44.7658 95.8443 42.9404C95.8451 41.7277 95.6069 40.5268 95.1434 39.4063C94.6798 38.2857 94 37.2675 93.1428 36.4097C92.2856 35.552 91.2678 34.8715 90.1475 34.4072C89.0273 33.943 87.8265 33.7041 86.6138 33.7041ZM86.6138 36.4848C87.2138 36.4854 87.8 36.6639 88.2985 36.9977C88.797 37.3315 89.1854 37.8055 89.4144 38.36C89.6435 38.9145 89.703 39.5245 89.5854 40.1127C89.4678 40.701 89.1783 41.2413 88.7537 41.6651C88.3291 42.0889 87.7884 42.3772 87.1998 42.4937C86.6113 42.6102 86.0015 42.5496 85.4474 42.3194C84.8934 42.0893 84.42 41.7001 84.0872 41.201C83.7544 40.7018 83.577 40.1152 83.5776 39.5153C83.5785 38.7108 83.8989 37.9396 84.4683 37.3714C85.0376 36.8031 85.8094 36.4842 86.6138 36.4848ZM90.5905 48.7457C90.3908 48.9514 90.1516 49.1146 89.8872 49.2254C89.6228 49.3361 89.3387 49.3921 89.0521 49.3901H84.1814C83.8931 49.3904 83.6077 49.3338 83.3413 49.2236C83.075 49.1134 82.833 48.9517 82.6292 48.7479C82.4254 48.5441 82.2637 48.3021 82.1535 48.0358C82.0433 47.7695 81.9867 47.484 81.987 47.1958C81.9867 46.7985 82.0648 46.4051 82.2167 46.038C82.3686 45.6709 82.5914 45.3374 82.8723 45.0565C83.1532 44.7756 83.4867 44.5528 83.8538 44.4009C84.2209 44.249 84.6143 44.1709 85.0115 44.1711H88.2219C88.6192 44.1709 89.0126 44.249 89.3796 44.4009C89.7467 44.5528 90.0802 44.7756 90.3611 45.0565C90.642 45.3374 90.8648 45.6709 91.0167 46.038C91.1687 46.4051 91.2467 46.7985 91.2465 47.1958C91.2485 47.4852 91.1914 47.7719 91.0786 48.0385C90.9658 48.305 90.7997 48.5457 90.5905 48.7457Z" fill="#C8D3D9"/>
</g>
<g filter="url(#filter3_d_3896_368786)">
<path d="M40.0272 68.7368C39.8655 66.7478 39.2233 64.8277 38.1558 63.1416C37.0882 61.4556 35.6273 60.0539 33.8985 59.0571C32.1697 58.0602 30.2247 57.4981 28.2307 57.4189C26.2366 57.3397 24.2532 57.7458 22.4508 58.6024C20.6483 59.4589 19.0808 60.7404 17.8829 62.3365C16.6851 63.9326 15.8926 65.7956 15.5737 67.7656C15.2548 69.7355 15.4189 71.7534 16.0521 73.6459C16.6852 75.5385 17.7683 77.249 19.2084 78.6305C19.2233 78.6485 19.2397 78.6653 19.2573 78.6807C21.0663 80.4031 23.3562 81.5349 25.8232 81.926C28.2903 82.317 30.8179 81.9488 33.0709 80.8701C35.3238 79.7915 37.1956 78.0534 38.438 75.8865C39.6804 73.7195 40.2346 71.226 40.0272 68.7368Z" fill="#C8D3D9" stroke="#C8D3D9" stroke-width="0.5" stroke-linecap="round" stroke-linejoin="round"/>
</g>
<path d="M34.8668 76.5326C33.5265 77.9401 31.7989 78.9185 29.9025 79.3443C28.0061 79.77 26.0261 79.6238 24.2127 78.9243C22.3994 78.2247 20.8342 77.0032 19.7151 75.4141C18.596 73.825 17.9733 71.9397 17.9256 69.9967C17.8779 68.0537 18.4074 66.1402 19.4472 64.4981C20.487 62.8561 21.9903 61.5592 23.7671 60.7715C25.5439 59.9838 27.5144 59.7406 29.4294 60.0728C31.3444 60.405 33.1179 61.2975 34.5257 62.6376C35.4607 63.5274 36.2112 64.5927 36.7344 65.7726C37.2576 66.9526 37.5432 68.224 37.5749 69.5144C37.6066 70.8047 37.3837 72.0887 36.919 73.2929C36.4544 74.4971 35.757 75.5979 34.8668 76.5326Z" fill="#F4F7FB" stroke="#C8D3D9" stroke-width="0.5" stroke-linecap="round" stroke-linejoin="round"/>
<g filter="url(#filter4_d_3896_368786)">
<path d="M17.6267 80.6589L17.3507 80.3944C16.6355 79.709 15.5 79.7331 14.8145 80.4484L7.54316 88.0359C6.85771 88.7512 6.88187 89.8867 7.59712 90.5721L7.87305 90.8366C8.58831 91.522 9.7238 91.4979 10.4093 90.7826L17.6806 83.1951C18.3661 82.4798 18.3419 81.3443 17.6267 80.6589Z" fill="#C8D3D9" stroke="#C8D3D9" stroke-width="0.498623" stroke-linecap="round" stroke-linejoin="round"/>
</g>
<path d="M19.7785 80.0161L17.894 78.2227C17.6186 77.9606 17.1827 77.9714 16.9206 78.2468C16.6584 78.5223 16.6692 78.9581 16.9447 79.2203L18.8292 81.0136C19.1046 81.2758 19.5405 81.265 19.8026 80.9895C20.0648 80.714 20.054 80.2782 19.7785 80.0161Z" fill="#C8D3D9" stroke="#C8D3D9" stroke-width="0.499724" stroke-linecap="round" stroke-linejoin="round"/>
<path d="M27.4289 72.2925C26.873 72.2925 26.4522 72.0201 26.4222 71.7757L25.6024 65.0859C25.5284 64.4812 25.7095 63.8818 26.0994 63.4413C26.4451 63.0506 26.9173 62.8354 27.4289 62.8354C27.9405 62.8354 28.4127 63.0506 28.7585 63.4413C29.1483 63.8818 29.3294 64.4812 29.2554 65.086L28.4356 71.7757C28.4056 72.0201 27.9848 72.2925 27.4289 72.2925Z" fill="#C8D3D9"/>
<path d="M27.4289 71.9238C27.7885 71.9238 28.0222 71.7794 28.0723 71.7099L28.8896 65.041C28.9508 64.541 28.8024 64.0469 28.4825 63.6854C28.2076 63.3748 27.8335 63.2038 27.4289 63.2038C27.0243 63.2038 26.6501 63.3748 26.3753 63.6854C26.0554 64.0469 25.907 64.541 25.9682 65.041L26.7854 71.71C26.8355 71.7794 27.0691 71.9238 27.4289 71.9238ZM27.4289 72.6608C26.7305 72.6608 26.1151 72.2991 26.0564 71.8204L25.2366 65.1306C25.0685 63.7577 26.0434 62.4668 27.4289 62.4668C28.8143 62.4668 29.7892 63.7577 29.6212 65.1306L28.8013 71.8204C28.7426 72.2991 28.1268 72.6608 27.4289 72.6608Z" fill="#C8D3D9"/>
<path d="M27.429 76.1529C28.1273 76.1529 28.6934 75.5868 28.6934 74.8885C28.6934 74.1901 28.1273 73.624 27.429 73.624C26.7307 73.624 26.1646 74.1901 26.1646 74.8885C26.1646 75.5868 26.7307 76.1529 27.429 76.1529Z" fill="#C8D3D9"/>
<path d="M27.429 75.7847C27.9238 75.7847 28.325 75.3835 28.325 74.8887C28.325 74.3938 27.9238 73.9927 27.429 73.9927C26.9341 73.9927 26.533 74.3938 26.533 74.8887C26.533 75.3835 26.9341 75.7847 27.429 75.7847Z" stroke="#C8D3D9" stroke-width="1.644" stroke-miterlimit="10" stroke-linecap="round"/>
<path d="M25.5441 43.1948C25.6162 43.2731 25.6553 43.3762 25.6531 43.4826C25.651 43.5891 25.6077 43.6906 25.5324 43.7658C25.4572 43.8411 25.3557 43.8844 25.2492 43.8865C25.1428 43.8887 25.0397 43.8496 24.9614 43.7774L23.7001 42.5157L22.4392 43.7774C22.3609 43.8496 22.2578 43.8887 22.1513 43.8865C22.0449 43.8844 21.9434 43.8411 21.8681 43.7658C21.7928 43.6906 21.7496 43.5891 21.7474 43.4826C21.7453 43.3762 21.7844 43.2731 21.8565 43.1948L23.1174 41.9334L21.8565 40.6721C21.8157 40.6345 21.7828 40.589 21.76 40.5383C21.7372 40.4876 21.7248 40.4329 21.7237 40.3773C21.7226 40.3218 21.7327 40.2665 21.7534 40.215C21.7742 40.1634 21.8051 40.1166 21.8444 40.0773C21.8837 40.038 21.9305 40.0071 21.9821 39.9863C22.0336 39.9656 22.0888 39.9555 22.1444 39.9566C22.1999 39.9578 22.2547 39.9701 22.3054 39.993C22.356 40.0158 22.4015 40.0486 22.4392 40.0894L23.7001 41.3508L24.9614 40.0894C25.0397 40.0173 25.1428 39.9782 25.2492 39.9804C25.3557 39.9825 25.4572 40.0258 25.5324 40.1011C25.6077 40.1764 25.651 40.2778 25.6531 40.3843C25.6553 40.4907 25.6162 40.5939 25.5441 40.6721L24.2828 41.9334L25.5441 43.1948Z" fill="white"/>
<path d="M88.7201 19.3571C90.0412 19.3571 91.1123 18.2861 91.1123 16.9649C91.1123 15.6438 90.0412 14.5728 88.7201 14.5728C87.3989 14.5728 86.3279 15.6438 86.3279 16.9649C86.3279 18.2861 87.3989 19.3571 88.7201 19.3571Z" fill="#F4F7FB" stroke="#F4F7FB" stroke-width="1.043" stroke-miterlimit="10"/>
<path d="M2.91415 49.4128C4.23532 49.4128 5.30633 48.3418 5.30633 47.0206C5.30633 45.6994 4.23532 44.6284 2.91415 44.6284C1.59299 44.6284 0.521973 45.6994 0.521973 47.0206C0.521973 48.3418 1.59299 49.4128 2.91415 49.4128Z" fill="#F4F7FB" stroke="#F4F7FB" stroke-width="1.043" stroke-miterlimit="10"/>
<path d="M97.6762 76.1528C98.5229 76.1528 99.2092 75.4664 99.2092 74.6198C99.2092 73.7732 98.5229 73.0869 97.6762 73.0869C96.8296 73.0869 96.1433 73.7732 96.1433 74.6198C96.1433 75.4664 96.8296 76.1528 97.6762 76.1528Z" fill="#F4F7FB" stroke="#F4F7FB" stroke-width="0.668" stroke-miterlimit="10"/>
<path d="M81.5871 11.5492C84.6277 11.5492 87.0927 9.08427 87.0927 6.04364C87.0927 3.00301 84.6277 0.538086 81.5871 0.538086C78.5465 0.538086 76.0815 3.00301 76.0815 6.04364C76.0815 9.08427 78.5465 11.5492 81.5871 11.5492Z" fill="#F4F7FB" stroke="#F4F7FB" stroke-width="2.4" stroke-miterlimit="10"/>
</g>
<defs>
<filter id="filter0_d_3896_368786" x="2.21167" y="3.06201" width="101.466" height="101.466" filterUnits="userSpaceOnUse" color-interpolation-filters="sRGB">
<feFlood flood-opacity="0" result="BackgroundImageFix"/>
<feColorMatrix in="SourceAlpha" type="matrix" values="0 0 0 0 0 0 0 0 0 0 0 0 0 0 0 0 0 0 127 0" result="hardAlpha"/>
<feOffset dy="5"/>
<feGaussianBlur stdDeviation="3"/>
<feColorMatrix type="matrix" values="0 0 0 0 0.784314 0 0 0 0 0.827451 0 0 0 0 0.85098 0 0 0 0.302 0"/>
<feBlend mode="normal" in2="BackgroundImageFix" result="effect1_dropShadow_3896_368786"/>
<feBlend mode="normal" in="SourceGraphic" in2="effect1_dropShadow_3896_368786" result="shape"/>
</filter>
<filter id="filter1_d_3896_368786" x="31.7432" y="28.9194" width="41.2751" height="42.1426" filterUnits="userSpaceOnUse" color-interpolation-filters="sRGB">
<feFlood flood-opacity="0" result="BackgroundImageFix"/>
<feColorMatrix in="SourceAlpha" type="matrix" values="0 0 0 0 0 0 0 0 0 0 0 0 0 0 0 0 0 0 127 0" result="hardAlpha"/>
<feOffset dy="3"/>
<feGaussianBlur stdDeviation="3"/>
<feColorMatrix type="matrix" values="0 0 0 0 0.784314 0 0 0 0 0.827451 0 0 0 0 0.85098 0 0 0 0.149 0"/>
<feBlend mode="normal" in2="BackgroundImageFix" result="effect1_dropShadow_3896_368786"/>
<feBlend mode="normal" in="SourceGraphic" in2="effect1_dropShadow_3896_368786" result="shape"/>
</filter>
<filter id="filter2_d_3896_368786" x="71.3833" y="30.7041" width="30.4609" height="30.4609" filterUnits="userSpaceOnUse" color-interpolation-filters="sRGB">
<feFlood flood-opacity="0" result="BackgroundImageFix"/>
<feColorMatrix in="SourceAlpha" type="matrix" values="0 0 0 0 0 0 0 0 0 0 0 0 0 0 0 0 0 0 127 0" result="hardAlpha"/>
<feOffset dy="3"/>
<feGaussianBlur stdDeviation="3"/>
<feColorMatrix type="matrix" values="0 0 0 0 0.784314 0 0 0 0 0.827451 0 0 0 0 0.85098 0 0 0 0.2 0"/>
<feBlend mode="normal" in2="BackgroundImageFix" result="effect1_dropShadow_3896_368786"/>
<feBlend mode="normal" in="SourceGraphic" in2="effect1_dropShadow_3896_368786" result="shape"/>
</filter>
<filter id="filter3_d_3896_368786" x="9.16528" y="54.1592" width="37.1545" height="37.1685" filterUnits="userSpaceOnUse" color-interpolation-filters="sRGB">
<feFlood flood-opacity="0" result="BackgroundImageFix"/>
<feColorMatrix in="SourceAlpha" type="matrix" values="0 0 0 0 0 0 0 0 0 0 0 0 0 0 0 0 0 0 127 0" result="hardAlpha"/>
<feOffset dy="3"/>
<feGaussianBlur stdDeviation="3"/>
<feColorMatrix type="matrix" values="0 0 0 0 0.784314 0 0 0 0 0.827451 0 0 0 0 0.85098 0 0 0 0.302 0"/>
<feBlend mode="normal" in2="BackgroundImageFix" result="effect1_dropShadow_3896_368786"/>
<feBlend mode="normal" in="SourceGraphic" in2="effect1_dropShadow_3896_368786" result="shape"/>
</filter>
<filter id="filter4_d_3896_368786" x="0.795166" y="76.6465" width="23.6335" height="23.938" filterUnits="userSpaceOnUse" color-interpolation-filters="sRGB">
<feFlood flood-opacity="0" result="BackgroundImageFix"/>
<feColorMatrix in="SourceAlpha" type="matrix" values="0 0 0 0 0 0 0 0 0 0 0 0 0 0 0 0 0 0 127 0" result="hardAlpha"/>
<feOffset dy="3"/>
<feGaussianBlur stdDeviation="3"/>
<feColorMatrix type="matrix" values="0 0 0 0 0.784314 0 0 0 0 0.827451 0 0 0 0 0.85098 0 0 0 0.302 0"/>
<feBlend mode="normal" in2="BackgroundImageFix" result="effect1_dropShadow_3896_368786"/>
<feBlend mode="normal" in="SourceGraphic" in2="effect1_dropShadow_3896_368786" result="shape"/>
</filter>
<clipPath id="clip0_3896_368786">
<rect width="101.423" height="100" fill="white" transform="translate(0.28833)"/>
</clipPath>
</defs>
</svg>
