<svg width="111" height="112" viewBox="0 0 111 112" fill="none" xmlns="http://www.w3.org/2000/svg">
<g filter="url(#filter0_d_3896_368842)">
<path d="M104.194 52.1052C104.18 64.7368 99.2826 76.8739 90.5272 85.9789C81.7717 95.0839 69.8356 100.452 57.2141 100.961C44.5927 101.47 32.2632 97.0798 22.8032 88.7091C13.3432 80.3385 7.48519 68.635 6.45383 56.0455C5.42247 43.4561 9.29761 30.9552 17.2691 21.1565C25.2406 11.3579 36.6913 5.01992 49.2272 3.46779C61.7632 1.91567 74.4138 5.26951 84.5344 12.8281C94.655 20.3868 101.462 31.565 103.532 44.0259C103.975 46.6961 104.197 49.3984 104.194 52.1052Z" fill="#F4F7FB"/>
</g>
<g filter="url(#filter1_d_3896_368842)">
<path d="M89.8005 37.6392V90.9035C89.7974 91.8582 89.4165 92.7728 88.7411 93.4475C88.0657 94.1222 87.1506 94.502 86.196 94.5041H14.9531C13.999 94.5014 13.0848 94.1212 12.4101 93.4465C11.7355 92.7719 11.3553 91.8576 11.3525 90.9035V37.6392C11.3553 36.6851 11.7355 35.7708 12.4101 35.0962C13.0848 34.4215 13.999 34.0413 14.9531 34.0386H86.1964C87.1511 34.0406 88.066 34.4206 88.7414 35.0953C89.4167 35.77 89.7975 36.6846 89.8005 37.6392Z" fill="white"/>
</g>
<path d="M89.8003 66.5795V90.9032C89.7972 91.8578 89.4163 92.7725 88.7408 93.4471C88.0654 94.1218 87.1504 94.5017 86.1957 94.5038H14.9529C13.9988 94.501 13.0845 94.1208 12.4099 93.4462C11.7352 92.7715 11.355 91.8573 11.3523 90.9032V82.5219L28.943 68.5715C30.1854 67.5874 31.7282 67.0601 33.3131 67.078C34.8979 67.0958 36.4284 67.6577 37.6484 68.6695L40.9529 71.4151C42.1972 72.4497 43.7656 73.0141 45.3839 73.0097C47.0022 73.0053 48.5675 72.4324 49.8063 71.3911L67.8412 56.2483C69.0588 55.2257 70.5919 54.6544 72.1819 54.6311C73.7718 54.6078 75.3211 55.1338 76.5681 56.1204L89.8003 66.5795Z" fill="#C8D3D9"/>
<path d="M33.7819 58.9847C39.4654 58.9847 44.0729 54.3773 44.0729 48.6938C44.0729 43.0102 39.4654 38.4028 33.7819 38.4028C28.0984 38.4028 23.491 43.0102 23.491 48.6938C23.491 54.3773 28.0984 58.9847 33.7819 58.9847Z" fill="#F4F7FB"/>
<path d="M59.8076 16.5972C59.3484 16.5972 59.0007 16.3722 58.9759 16.1703L58.2983 10.6425C58.2372 10.1427 58.3869 9.64717 58.7091 9.28317C58.9948 8.96046 59.3849 8.78271 59.8076 8.78271C60.2306 8.78271 60.6209 8.96058 60.9067 9.28353C61.2287 9.64752 61.3783 10.1428 61.317 10.6424L60.6394 16.1704C60.6146 16.3722 60.2669 16.5972 59.8076 16.5972Z" fill="white"/>
<path d="M59.8076 16.2924C60.1047 16.2924 60.2977 16.1732 60.3392 16.1158L61.0147 10.6052C61.0653 10.1921 60.9428 9.78386 60.6785 9.48516C60.4514 9.22847 60.1421 9.08705 59.8076 9.08705C59.4733 9.08705 59.1641 9.22835 58.9371 9.48486C58.6727 9.78356 58.55 10.192 58.6005 10.6053L59.2759 16.1157C59.3175 16.1732 59.5107 16.2924 59.8076 16.2924ZM59.8076 16.9015C59.231 16.9015 58.7221 16.6025 58.6736 16.2073L57.996 10.6794C57.8572 9.54441 58.6628 8.47803 59.8076 8.47803C60.9524 8.47803 61.7584 9.54441 61.6192 10.6794L60.9416 16.2073C60.893 16.6025 60.3846 16.9015 59.8076 16.9015Z" fill="white"/>
<path d="M59.808 19.7868C60.385 19.7868 60.8528 19.3191 60.8528 18.742C60.8528 18.165 60.385 17.6973 59.808 17.6973C59.2309 17.6973 58.7632 18.165 58.7632 18.742C58.7632 19.3191 59.2309 19.7868 59.808 19.7868Z" fill="white"/>
<path d="M59.8079 19.4826C60.2168 19.4826 60.5483 19.1511 60.5483 18.7423C60.5483 18.3334 60.2168 18.002 59.8079 18.002C59.3991 18.002 59.0676 18.3334 59.0676 18.7423C59.0676 19.1511 59.3991 19.4826 59.8079 19.4826Z" stroke="white" stroke-width="1.242" stroke-miterlimit="10" stroke-linecap="round"/>
<path d="M78.9943 5.03499C80.1085 5.03499 81.0118 4.13173 81.0118 3.0175C81.0118 1.90326 80.1085 1 78.9943 1C77.8801 1 76.9768 1.90326 76.9768 3.0175C76.9768 4.13173 77.8801 5.03499 78.9943 5.03499Z" stroke="#F4F7FB" stroke-width="1.307" stroke-miterlimit="10"/>
<path d="M5.28959 80.2071C7.21452 80.2071 8.77498 78.6466 8.77498 76.7217C8.77498 74.7968 7.21452 73.2363 5.28959 73.2363C3.36466 73.2363 1.8042 74.7968 1.8042 76.7217C1.8042 78.6466 3.36466 80.2071 5.28959 80.2071Z" stroke="#F4F7FB" stroke-width="2.258" stroke-miterlimit="10"/>
<path d="M29.3779 10.9087C28.1025 9.63281 26.447 8.80603 24.6609 8.55298C22.8748 8.29992 21.0548 8.63426 19.4752 9.50565C17.8957 10.377 16.6421 11.7382 15.9036 13.3841C15.165 15.0299 14.9814 16.8713 15.3804 18.6306C15.7991 20.4692 16.8291 22.1114 18.3021 23.2887C19.7751 24.466 21.6039 25.1088 23.4896 25.112C23.6563 25.112 23.8279 25.1071 23.9946 25.0924C26.0255 24.9733 27.9416 24.1113 29.3779 22.6704C30.9344 21.1091 31.8084 18.9943 31.8084 16.7896C31.8084 14.5849 30.9344 12.4701 29.3779 10.9087ZM26.5686 19.8611C26.5264 19.906 26.4756 19.9418 26.4191 19.9663C26.3626 19.9907 26.3016 20.0033 26.2401 20.0033C26.1785 20.0033 26.1176 19.9907 26.0611 19.9663C26.0046 19.9418 25.9537 19.906 25.9116 19.8611L23.4602 17.4146L21.7589 19.1159L21.0382 19.8366C20.9608 19.9162 20.8551 19.962 20.7441 19.9641C20.6889 19.964 20.6344 19.9526 20.5838 19.9307C20.5333 19.9088 20.4877 19.8768 20.4499 19.8366C20.4103 19.798 20.3788 19.7519 20.3574 19.7009C20.3359 19.65 20.3248 19.5953 20.3248 19.54C20.3248 19.4847 20.3359 19.43 20.3574 19.379C20.3788 19.3281 20.4103 19.282 20.4499 19.2434L22.8719 16.8214L20.8127 14.7721L20.4107 14.3749C20.3257 14.2867 20.2783 14.1689 20.2783 14.0464C20.2783 13.9239 20.3257 13.8062 20.4107 13.718C20.4532 13.6738 20.5042 13.6386 20.5607 13.6146C20.6171 13.5906 20.6778 13.5782 20.7392 13.5782C20.8005 13.5782 20.8612 13.5906 20.9176 13.6146C20.9741 13.6386 21.0251 13.6738 21.0677 13.718L22.5287 15.179L23.519 16.1644L23.8769 15.8065L25.9361 13.7424C25.9757 13.7028 26.0227 13.6714 26.0744 13.6499C26.1262 13.6285 26.1816 13.6174 26.2376 13.6174C26.2936 13.6174 26.3491 13.6285 26.4008 13.6499C26.4526 13.6714 26.4996 13.7028 26.5391 13.7424C26.6147 13.8227 26.6567 13.9288 26.6567 14.039C26.6567 14.1493 26.6147 14.2554 26.5391 14.3357L24.6025 16.2821L24.1172 16.7675L26.5686 19.214C26.6512 19.3014 26.6973 19.4172 26.6973 19.5376C26.6973 19.6579 26.6512 19.7736 26.5686 19.8611Z" fill="#C8D3D9"/>
<path d="M41.7659 27.8461C41.6959 27.8463 41.6267 27.8309 41.5634 27.8011C41.5209 27.7857 41.4825 27.7608 41.4512 27.7282C41.4199 27.6957 41.3965 27.6564 41.3829 27.6133C41.3692 27.5703 41.3657 27.5246 41.3725 27.48C41.3793 27.4353 41.3963 27.3929 41.4222 27.3558L42.8626 25.3712C42.928 25.2939 43.0173 25.2406 43.1164 25.2197C43.2155 25.1989 43.3187 25.2116 43.4098 25.256C43.4522 25.2713 43.4906 25.2962 43.5219 25.3288C43.5532 25.3613 43.5766 25.4007 43.5902 25.4437C43.6039 25.4868 43.6074 25.5324 43.6006 25.577C43.5938 25.6217 43.5768 25.6641 43.551 25.7011L42.1105 27.6858C42.0695 27.7374 42.017 27.7788 41.9571 27.8067C41.8973 27.8345 41.8318 27.848 41.7659 27.8461Z" fill="white"/>
<path d="M43.2644 27.8471C43.1941 27.8473 43.1248 27.8317 43.0614 27.8015C43.019 27.7861 42.9807 27.7611 42.9495 27.7285C42.9183 27.6959 42.8951 27.6566 42.8815 27.6135C42.8679 27.5705 42.8645 27.5249 42.8714 27.4803C42.8782 27.4357 42.8953 27.3933 42.9212 27.3563L44.3626 25.3717C44.4278 25.2942 44.5172 25.2407 44.6164 25.22C44.7156 25.1993 44.8189 25.2125 44.9097 25.2575C44.9521 25.2729 44.9904 25.2979 45.0216 25.3305C45.0528 25.3631 45.0761 25.4025 45.0896 25.4455C45.1032 25.4885 45.1066 25.5341 45.0998 25.5787C45.0929 25.6233 45.0758 25.6657 45.05 25.7026L43.609 27.6873C43.5679 27.7389 43.5154 27.7801 43.4555 27.8078C43.3957 27.8356 43.3303 27.849 43.2644 27.8471Z" fill="white"/>
<path d="M44.9396 27.8471C44.8693 27.8473 44.7997 27.8317 44.7362 27.8015C44.6938 27.7861 44.6555 27.7611 44.6243 27.7285C44.5931 27.6959 44.5699 27.6566 44.5563 27.6135C44.5428 27.5705 44.5393 27.5249 44.5462 27.4803C44.553 27.4357 44.5701 27.3933 44.596 27.3563L46.0374 25.3717C46.1026 25.2942 46.192 25.2407 46.2912 25.22C46.3904 25.1993 46.4937 25.2125 46.5845 25.2575C46.6269 25.2729 46.6652 25.2979 46.6964 25.3305C46.7276 25.3631 46.7508 25.4025 46.7644 25.4455C46.7779 25.4885 46.7814 25.5341 46.7746 25.5787C46.7677 25.6233 46.7506 25.6657 46.7247 25.7026L45.2838 27.6873C45.2428 27.7388 45.1903 27.78 45.1306 27.8077C45.0708 27.8355 45.0055 27.8489 44.9396 27.8471Z" fill="white"/>
<g filter="url(#filter2_d_3896_368842)">
<path d="M67.3158 32.1477C67.4927 29.9721 68.1951 27.8719 69.3628 26.0276C70.5305 24.1834 72.1285 22.6501 74.0195 21.5598C75.9105 20.4695 78.038 19.8546 80.2191 19.7679C82.4002 19.6813 84.5698 20.1255 86.5413 21.0625C88.5128 21.9994 90.2274 23.401 91.5376 25.1469C92.8479 26.8927 93.7147 28.9306 94.0636 31.0853C94.4124 33.2401 94.2328 35.4474 93.5403 37.5174C92.8478 39.5875 91.663 41.4585 90.0878 42.9696C90.0715 42.9893 90.0536 43.0077 90.0344 43.0245C88.0557 44.9086 85.5509 46.1466 82.8524 46.5743C80.1539 47.002 77.3891 46.5992 74.9248 45.4194C72.4605 44.2396 70.413 42.3385 69.0541 39.9682C67.6952 37.5979 67.0889 34.8705 67.3158 32.1477Z" fill="#C8D3D9" stroke="#C8D3D9" stroke-width="0.5" stroke-linecap="round" stroke-linejoin="round"/>
</g>
<path d="M72.9622 40.6758C74.4283 42.2154 76.318 43.2857 78.3923 43.7513C80.4666 44.217 82.6324 44.0571 84.6159 43.2919C86.5993 42.5267 88.3113 41.1906 89.5354 39.4524C90.7595 37.7142 91.4407 35.6521 91.4929 33.5268C91.5451 31.4015 90.9659 29.3085 89.8285 27.5124C88.6912 25.7162 87.0468 24.2977 85.1033 23.4361C83.1598 22.5745 81.0044 22.3085 78.9097 22.6718C76.8151 23.0351 74.8752 24.0114 73.3353 25.4772C72.3126 26.4505 71.4917 27.6157 70.9194 28.9064C70.3471 30.1971 70.0347 31.5878 70.0001 32.9992C69.9654 34.4106 70.2092 35.815 70.7174 37.1322C71.2257 38.4494 71.9885 39.6535 72.9622 40.6758Z" fill="#F4F7FB" stroke="#C8D3D9" stroke-width="0.5" stroke-linecap="round" stroke-linejoin="round"/>
<g filter="url(#filter3_d_3896_368842)">
<path d="M102.478 56.3896L102.779 56.1007C103.562 55.351 103.588 54.1089 102.838 53.3266L94.8849 45.0272C94.1351 44.2448 92.8931 44.2184 92.1107 44.9682L91.8093 45.2571C91.0269 46.0068 91.0005 47.2489 91.7502 48.0312L99.7038 56.3306C100.454 57.113 101.696 57.1394 102.478 56.3896Z" fill="#C8D3D9" stroke="#C8D3D9" stroke-width="0.498623" stroke-linecap="round" stroke-linejoin="round"/>
</g>
<path d="M90.5045 45.578L92.5658 43.6164C92.8671 43.3296 92.8789 42.8529 92.5921 42.5516C92.3054 42.2503 91.8287 42.2385 91.5273 42.5252L89.4661 44.4868C89.1648 44.7736 89.153 45.2503 89.4397 45.5516C89.7265 45.8529 90.2032 45.8647 90.5045 45.578Z" fill="#C8D3D9" stroke="#C8D3D9" stroke-width="0.499724" stroke-linecap="round" stroke-linejoin="round"/>
<defs>
<filter id="filter0_d_3896_368842" x="0.290283" y="2.09668" width="109.904" height="109.904" filterUnits="userSpaceOnUse" color-interpolation-filters="sRGB">
<feFlood flood-opacity="0" result="BackgroundImageFix"/>
<feColorMatrix in="SourceAlpha" type="matrix" values="0 0 0 0 0 0 0 0 0 0 0 0 0 0 0 0 0 0 127 0" result="hardAlpha"/>
<feOffset dy="5"/>
<feGaussianBlur stdDeviation="3"/>
<feColorMatrix type="matrix" values="0 0 0 0 0.784314 0 0 0 0 0.827451 0 0 0 0 0.85098 0 0 0 0.302 0"/>
<feBlend mode="normal" in2="BackgroundImageFix" result="effect1_dropShadow_3896_368842"/>
<feBlend mode="normal" in="SourceGraphic" in2="effect1_dropShadow_3896_368842" result="shape"/>
</filter>
<filter id="filter1_d_3896_368842" x="3.35254" y="31.0386" width="90.448" height="72.4653" filterUnits="userSpaceOnUse" color-interpolation-filters="sRGB">
<feFlood flood-opacity="0" result="BackgroundImageFix"/>
<feColorMatrix in="SourceAlpha" type="matrix" values="0 0 0 0 0 0 0 0 0 0 0 0 0 0 0 0 0 0 127 0" result="hardAlpha"/>
<feOffset dx="-2" dy="3"/>
<feGaussianBlur stdDeviation="3"/>
<feColorMatrix type="matrix" values="0 0 0 0 0.784314 0 0 0 0 0.827451 0 0 0 0 0.85098 0 0 0 0.502 0"/>
<feBlend mode="normal" in2="BackgroundImageFix" result="effect1_dropShadow_3896_368842"/>
<feBlend mode="normal" in="SourceGraphic" in2="effect1_dropShadow_3896_368842" result="shape"/>
</filter>
<filter id="filter2_d_3896_368842" x="61.0193" y="16.5073" width="39.4675" height="39.4829" filterUnits="userSpaceOnUse" color-interpolation-filters="sRGB">
<feFlood flood-opacity="0" result="BackgroundImageFix"/>
<feColorMatrix in="SourceAlpha" type="matrix" values="0 0 0 0 0 0 0 0 0 0 0 0 0 0 0 0 0 0 127 0" result="hardAlpha"/>
<feOffset dy="3"/>
<feGaussianBlur stdDeviation="3"/>
<feColorMatrix type="matrix" values="0 0 0 0 0.784314 0 0 0 0 0.827451 0 0 0 0 0.85098 0 0 0 0.302 0"/>
<feBlend mode="normal" in2="BackgroundImageFix" result="effect1_dropShadow_3896_368842"/>
<feBlend mode="normal" in="SourceGraphic" in2="effect1_dropShadow_3896_368842" result="shape"/>
</filter>
<filter id="filter3_d_3896_368842" x="84.9556" y="41.1733" width="24.6777" height="25.0112" filterUnits="userSpaceOnUse" color-interpolation-filters="sRGB">
<feFlood flood-opacity="0" result="BackgroundImageFix"/>
<feColorMatrix in="SourceAlpha" type="matrix" values="0 0 0 0 0 0 0 0 0 0 0 0 0 0 0 0 0 0 127 0" result="hardAlpha"/>
<feOffset dy="3"/>
<feGaussianBlur stdDeviation="3"/>
<feColorMatrix type="matrix" values="0 0 0 0 0.784314 0 0 0 0 0.827451 0 0 0 0 0.85098 0 0 0 0.302 0"/>
<feBlend mode="normal" in2="BackgroundImageFix" result="effect1_dropShadow_3896_368842"/>
<feBlend mode="normal" in="SourceGraphic" in2="effect1_dropShadow_3896_368842" result="shape"/>
</filter>
</defs>
</svg>
