<svg width="67" height="67" viewBox="0 0 67 67" fill="none" xmlns="http://www.w3.org/2000/svg">
<path fill-rule="evenodd" clip-rule="evenodd" d="M58.3234 54.7126C58.2996 54.6885 58.2518 54.6644 58.204 54.6403C58.0847 54.5681 57.9176 54.4477 57.6789 54.2791C57.2254 53.9419 56.557 53.4602 55.7454 52.7859C54.4087 51.7021 52.7139 50.2089 50.9475 48.3063C51.0668 48.1859 51.1863 48.0654 51.3056 47.945C51.3772 47.8728 51.4488 47.8005 51.5204 47.7283C51.8546 47.3911 52.1888 47.0539 52.5229 46.7168C52.5945 46.6445 52.69 46.5482 52.7617 46.4759C53.1197 46.0906 53.4778 45.7293 53.8119 45.3199C53.8597 45.2717 53.8835 45.2236 53.9313 45.1995C54.719 44.3084 55.459 43.3691 56.1751 42.4058C56.2228 42.3335 56.2706 42.2613 56.3422 42.189C56.6286 41.7796 56.9151 41.3702 57.2015 40.9367C57.2731 40.8163 57.3447 40.7199 57.4164 40.5995C57.6789 40.1901 57.9176 39.7807 58.1801 39.3472C58.2518 39.2508 58.2995 39.1304 58.3711 39.034C58.6337 38.5524 58.8963 38.0707 59.1588 37.5649C59.1827 37.5168 59.2066 37.4927 59.2304 37.4445C59.7794 36.3126 60.2569 35.1566 60.6627 33.9283C60.6865 33.8801 60.6866 33.832 60.7104 33.7838C60.8775 33.254 61.0446 32.7 61.1878 32.1461C61.2117 32.0498 61.2355 31.9293 61.2594 31.833C61.3788 31.3032 61.4981 30.7733 61.5936 30.2435C61.6175 30.1472 61.6413 30.0267 61.6413 29.9304C61.7368 29.3524 61.8084 28.7503 61.8562 28.1482C61.8562 28.1 61.8562 28.0519 61.8801 28.0278C61.9278 27.3535 61.9756 26.6791 61.9756 25.9807C61.9756 19.189 59.684 13.987 56.1751 11.0487C54.0745 9.29064 51.5204 8.35137 48.7754 8.37545C43.9059 8.42362 39.6808 11.5304 37.3893 16.7807C36.2674 19.3576 35.6229 22.4644 35.6229 26.0047C35.6229 34.8435 39.0841 42.1409 43.0227 47.5838C42.7601 47.7765 42.5214 47.9691 42.2588 48.1618C41.9485 48.3786 41.6382 48.6194 41.3278 48.8362C40.8504 49.1733 40.3969 49.4864 39.9434 49.7754C39.7047 49.944 39.4421 50.1126 39.2034 50.2571C38.6067 50.6424 38.0338 51.0037 37.4848 51.3168C37.3893 51.3649 37.2938 51.4372 37.2222 51.4853C36.5538 51.8707 35.9094 52.2319 35.3365 52.5691C34.3578 53.123 33.5224 53.5324 32.8779 53.8455C32.8063 53.8696 32.7585 53.9178 32.6869 53.9419C32.0185 53.6047 31.1115 53.1471 30.0134 52.5691C28.1038 51.5335 25.7168 50.0885 23.2343 48.2581C22.924 48.0414 22.6137 47.8005 22.3034 47.5838C22.3511 47.5115 22.3989 47.4393 22.4705 47.367C22.5659 47.2225 22.6614 47.078 22.7569 46.9576C22.924 46.7168 23.0911 46.4759 23.2582 46.2351C24.2846 44.6937 25.2633 43.0079 26.1465 41.2016C26.2181 41.0571 26.2897 40.9367 26.3374 40.7922C26.6239 40.166 26.9103 39.5398 27.1729 38.8896C27.1968 38.8414 27.2207 38.7932 27.2207 38.7691C27.4832 38.0948 27.7458 37.3964 27.9606 36.6979C28.0322 36.5053 28.08 36.2885 28.1516 36.0958C28.3187 35.5419 28.4858 34.988 28.629 34.434C28.6767 34.2414 28.7245 34.0487 28.7722 33.832C28.9393 33.1094 29.1064 32.3628 29.2258 31.6163C29.2496 31.4236 29.2734 31.2309 29.3212 31.0142C29.4167 30.4121 29.4883 29.8341 29.536 29.2079C29.5599 28.943 29.5838 28.7021 29.6077 28.4372C29.6554 27.6906 29.7031 26.944 29.7031 26.1733C29.7031 26.1252 29.7031 26.0529 29.7031 26.0047C29.7031 15.3356 23.8072 8.47177 16.5507 8.39952C16.4075 8.39952 16.2404 8.42363 16.0972 8.42363C15.8585 8.42363 15.6197 8.4477 15.381 8.4477C15.1662 8.47178 14.9752 8.49586 14.7843 8.51995C14.5933 8.54403 14.4024 8.5681 14.2114 8.61627C13.9966 8.66443 13.8056 8.71263 13.6147 8.7608C13.4237 8.80897 13.2327 8.85712 13.0656 8.92937C12.8747 9.00162 12.6837 9.04979 12.4928 9.12204C12.2779 9.19429 12.0631 9.29063 11.8721 9.38696C11.5857 9.53147 11.2754 9.67595 10.9889 9.82045C10.8219 9.91679 10.6309 10.0131 10.4638 10.1095C10.2967 10.2299 10.1057 10.3503 9.93866 10.4707C9.77157 10.5911 9.62839 10.7116 9.4613 10.832C9.29421 10.9524 9.12707 11.0969 8.95997 11.2414C8.81675 11.3859 8.64966 11.5304 8.50644 11.6749C8.36322 11.8194 8.19612 11.9639 8.0529 12.1084C7.79033 12.3974 7.52781 12.6864 7.28911 12.9995C7.16976 13.1681 7.0504 13.3367 6.90718 13.5053C6.76396 13.6979 6.64458 13.8665 6.50136 14.0833C6.382 14.276 6.26267 14.4686 6.14332 14.6613C6.02397 14.854 5.90463 15.0707 5.78528 15.2875C5.66593 15.4801 5.57044 15.6969 5.47496 15.8896C5.35561 16.1304 5.26016 16.3712 5.14081 16.6362C5.04533 16.8288 4.97369 17.0215 4.8782 17.2142C4.71111 17.6477 4.56789 18.0812 4.42467 18.5147C4.35306 18.7314 4.30535 18.9482 4.23374 19.165C4.186 19.3576 4.11437 19.5503 4.06663 19.7671C4.06663 19.7911 4.06663 19.8152 4.06663 19.8393C3.6131 21.7178 3.35056 23.7891 3.35056 26.0288C3.35056 35.3974 8.55423 42.8634 14.2353 48.2822C14.2592 48.3063 14.3069 48.3304 14.3308 48.3544C12.5882 50.233 10.8935 51.7503 9.55673 52.834C8.74514 53.4843 8.07679 53.9901 7.62325 54.3272C7.38455 54.4958 7.21746 54.6162 7.09811 54.6885C7.05037 54.7366 7.00266 54.7607 6.97879 54.7607L6.95489 54.7848C6.95489 54.7848 6.95491 54.7848 8.45872 57.1932C9.96254 59.6016 9.96255 59.6016 9.96255 59.6016H9.98644C10.0103 59.6016 10.0103 59.5775 10.0342 59.5775C10.0819 59.5534 10.1296 59.5052 10.2251 59.4571C10.3922 59.3607 10.6071 59.1922 10.8696 58.9995C11.4186 58.6142 12.1825 58.0361 13.0895 57.2895C14.6411 56.0372 16.5984 54.255 18.6512 52.0393H18.6751C19.0093 52.2801 19.3435 52.5209 19.6777 52.7618C22.4944 54.833 25.1917 56.4707 27.3161 57.6267C28.6051 58.3492 29.7032 58.8791 30.4909 59.2403C30.9205 59.4571 32.5914 60.3 32.5914 60.3C32.5914 60.3 33.1166 60.0591 33.6895 59.7942C33.6895 59.7942 33.7133 59.7942 33.7133 59.7702C33.7133 59.7702 33.7372 59.7702 33.7611 59.7461C33.8088 59.722 33.9043 59.6738 33.9998 59.6257C34.2146 59.5293 34.5249 59.3848 34.9068 59.2162C35.05 59.144 35.1933 59.0717 35.3365 58.9995C35.5752 58.8791 35.8139 58.7586 36.0765 58.6382C36.6255 58.3733 37.2461 58.0361 37.9144 57.6749C37.9622 57.6508 38.0099 57.6267 38.0577 57.6026C38.6067 57.3136 39.2034 56.9764 39.8002 56.6152C39.8718 56.567 39.9434 56.5429 40.015 56.4948C40.6118 56.1335 41.2324 55.7482 41.9008 55.3388C41.9963 55.2665 42.0917 55.2183 42.1872 55.1461C42.8317 54.7367 43.4762 54.3031 44.1446 53.8455C44.2639 53.7492 44.3833 53.677 44.5265 53.5807C45.171 53.1231 45.8393 52.6414 46.4838 52.1597C46.5554 52.1115 46.627 52.0634 46.6986 52.0152C48.7514 54.255 50.7327 56.0131 52.2843 57.2655C53.1914 58.0121 53.9791 58.59 54.5042 58.9754C54.7668 59.1681 55.0054 59.3126 55.1487 59.433C55.2203 59.4812 55.2919 59.5293 55.3397 59.5534C55.3635 59.5775 55.3874 59.5775 55.3874 59.5775H55.4113C55.4113 59.5775 55.4112 59.5775 56.915 57.1691C58.4188 54.7607 58.4189 54.7607 58.4189 54.7607L58.3234 54.7126ZM8.91226 25.9807C8.91226 24.343 9.05551 22.922 9.31808 21.6938C9.36582 21.477 9.41356 21.2603 9.4613 21.0676C9.50904 20.899 9.53288 20.7304 9.58062 20.5859C9.62836 20.3932 9.69999 20.2006 9.74773 20.0079C9.79547 19.8634 9.84323 19.6948 9.91484 19.5503C9.98645 19.3817 10.058 19.2131 10.1058 19.0445C10.1774 18.9 10.2251 18.7555 10.2967 18.6351C10.3683 18.4906 10.44 18.322 10.5116 18.1775C10.5832 18.033 10.6786 17.8885 10.7502 17.744C10.8935 17.5273 11.0128 17.3105 11.1561 17.1178C11.2277 16.9974 11.3232 16.877 11.3948 16.7807C11.4903 16.6602 11.5857 16.5639 11.6573 16.4676C11.7289 16.3713 11.8244 16.2749 11.896 16.1786C11.9915 16.0822 12.087 15.9859 12.1825 15.8896C12.2779 15.8173 12.3496 15.7451 12.4451 15.6488C12.5405 15.5524 12.636 15.4802 12.7553 15.4079C12.8269 15.3356 12.9224 15.2875 13.0179 15.2393C13.4237 14.9503 13.8056 14.7335 14.2114 14.565C14.283 14.5409 14.3307 14.5168 14.4024 14.4927C14.5217 14.4445 14.6411 14.3964 14.7843 14.3723C14.832 14.3482 14.9037 14.3482 14.9514 14.3241C15.0707 14.3001 15.214 14.2519 15.3333 14.2278C15.3811 14.2278 15.4049 14.2037 15.4526 14.2037C15.763 14.1555 16.0494 14.1315 16.3358 14.1315C19.4151 14.1555 23.8788 17.2383 23.8788 26.0047C23.8788 26.1011 23.8788 26.1974 23.8788 26.2938C23.8788 26.8718 23.8549 27.4498 23.8072 28.0278C23.7833 28.2686 23.7595 28.5094 23.7356 28.7503C23.6878 29.256 23.6163 29.7618 23.5447 30.2435C23.5208 30.4121 23.4969 30.5807 23.473 30.7492C23.3776 31.3754 23.2343 31.9775 23.0911 32.5555C23.0434 32.7723 22.9717 32.989 22.924 33.2058C22.8047 33.6875 22.6615 34.1451 22.5183 34.6026C22.4705 34.7472 22.4227 34.9157 22.375 35.0602C22.184 35.6623 21.9453 36.2403 21.7305 36.8183C21.6828 36.9388 21.635 37.0592 21.5634 37.2037C21.3247 37.7335 21.1099 38.2634 20.8473 38.7932C20.8234 38.8414 20.7996 38.8896 20.7757 38.9377C20.1551 40.166 19.4867 41.3461 18.7706 42.4539C18.4603 42.9597 18.1261 43.4414 17.7919 43.923C17.6726 43.8026 17.5533 43.6822 17.4339 43.5618C12.6599 38.7932 8.91226 32.8686 8.91226 25.9807ZM41.2324 25.9807C41.2324 19.189 43.9058 15.8173 46.5554 14.6131C47.3192 14.276 48.0831 14.0833 48.7754 14.0833C49.8495 14.0833 51.1385 14.4445 52.332 15.3597C54.4326 16.9733 56.2706 20.2246 56.2706 25.9807C56.2706 26.5105 56.2467 27.0163 56.199 27.5461C56.199 27.5943 56.1989 27.6184 56.1751 27.6665C56.1273 28.1241 56.0796 28.5817 56.008 29.0393C55.9842 29.1116 55.9841 29.2079 55.9602 29.2801C55.8886 29.6896 55.7932 30.1231 55.6977 30.5325C55.6738 30.6047 55.6738 30.677 55.6499 30.7492C55.2919 32.1943 54.7667 33.5911 54.0984 34.9398C54.0745 34.988 54.0267 35.0602 54.0029 35.1084C53.8119 35.4937 53.6209 35.855 53.4061 36.2403C53.3584 36.3126 53.3106 36.4089 53.2629 36.4812C53.0481 36.8424 52.8333 37.1796 52.6184 37.5409C52.5707 37.6131 52.523 37.6854 52.4752 37.7576C51.9262 38.6005 51.3295 39.4194 50.7089 40.2142C50.685 40.2383 50.6611 40.2623 50.6611 40.2864C50.3746 40.6477 50.0882 40.9848 49.7779 41.3461C49.7063 41.4424 49.6347 41.5147 49.5392 41.611C49.2766 41.9 49.038 42.1649 48.7754 42.4539C48.6799 42.5503 48.5844 42.6466 48.5128 42.743C48.2502 43.0079 47.9876 43.2969 47.7012 43.5618C47.6296 43.6341 47.5341 43.7304 47.4625 43.8026C47.4147 43.8508 47.367 43.899 47.3193 43.9472C43.9775 39.1304 41.2324 33.0854 41.2324 25.9807Z" fill="#13968E"/>
</svg>
