<svg width="24" height="24" viewBox="0 0 24 24" fill="none" xmlns="http://www.w3.org/2000/svg">
<path d="M20.5302 8.17994C20.5302 8.42994 20.3302 8.62995 20.0802 8.62995H18.9702V9.78995C18.9702 10.0699 18.7502 10.2899 18.4702 10.2899C18.1902 10.2899 17.9702 10.0699 17.9702 9.78995V8.62995H16.8602C16.6102 8.62995 16.4102 8.42994 16.4102 8.17994C16.4102 7.92994 16.6102 7.72995 16.8602 7.72995H17.9702V6.56995C17.9702 6.28995 18.1902 6.06995 18.4702 6.06995C18.7502 6.06995 18.9702 6.28995 18.9702 6.56995V7.72995H20.0802C20.3302 7.72995 20.5302 7.92994 20.5302 8.17994Z" fill="#354752"/>
<path d="M21.65 6.75995C21.41 6.22995 21.0401 5.76995 20.59 5.42995C20 4.96995 19.27 4.69995 18.47 4.69995C17.67 4.69995 16.93 4.96995 16.34 5.42995C16.25 5.48995 16.17 5.55995 16.1 5.62995H4.54005C3.82005 5.62995 3.17005 5.93995 2.72005 6.42995C2.70005 6.43995 2.69005 6.45995 2.67005 6.47995C2.45005 6.72995 2.28005 7.02995 2.17005 7.35995C2.09005 7.59995 2.05005 7.85995 2.05005 8.12995V16.81C2.05005 18.18 3.17005 19.31 4.54005 19.31H18.58C19.9501 19.31 21.07 18.18 21.07 16.81V10.47C21.6101 9.85995 21.9401 9.05995 21.9401 8.17995C21.9401 7.66995 21.83 7.18995 21.64 6.75995H21.65ZM16.54 6.62995C16.59 6.55995 16.65 6.48995 16.71 6.42995C17.16 5.97995 17.79 5.69995 18.47 5.69995C19.15 5.69995 19.77 5.97995 20.22 6.42995C20.26 6.46995 20.31 6.51995 20.35 6.56995C20.57 6.82995 20.74 7.12995 20.84 7.46995C20.91 7.68995 20.9501 7.92995 20.9501 8.17995C20.9501 8.92995 20.6101 9.59995 20.08 10.05C19.65 10.43 19.08 10.66 18.47 10.66C18.11 10.66 17.76 10.58 17.45 10.44C17.13 10.3 16.85 10.09 16.62 9.82995C16.22 9.38995 15.98 8.80995 15.98 8.17995C15.98 7.58995 16.19 7.04995 16.54 6.62995ZM4.55005 6.62995H15.34C15.1 7.09995 14.97 7.61995 14.97 8.17995C14.97 9.06995 15.3 9.87995 15.86 10.49L12.74 13.22C12.05 13.83 11.07 13.83 10.37 13.22L3.43005 7.13995C3.70005 6.82995 4.10005 6.62995 4.54005 6.62995H4.55005ZM20.08 16.81C20.08 17.63 19.41 18.31 18.59 18.31H4.54005C3.72005 18.31 3.05005 17.63 3.05005 16.81V8.12995L9.72005 13.97C10.25 14.44 10.91 14.68 11.56 14.68C12.21 14.68 12.87 14.44 13.4 13.97L16.63 11.14C17.16 11.47 17.79 11.66 18.46 11.66C19.04 11.66 19.59 11.52 20.07 11.26V16.81H20.08Z" fill="#354752"/>
</svg>
