<svg width="24" height="24" viewBox="0 0 24 24" fill="none" xmlns="http://www.w3.org/2000/svg">
<path d="M18.72 8.56995L18.37 8.19995L18 7.81006L17.14 6.92004L17 6.78003V5C17 3.9 16.1 3 15 3H7.01001C5.91001 3 5 3.9 5 5V17C5 18.1 5.9 18.99 7 19C7 20.1 7.91001 21 9.01001 21H17C18.1 21 19 20.1 19 19V9.28003C19 9.02003 18.91 8.75995 18.72 8.56995ZM17.65 8.90002L18 9.27002H15.39C15.1 9.27002 14.85 9.00996 14.85 8.70996V6L16 7.19006L16.42 7.62L17 8.21997L17.65 8.90002ZM7 7V18C6.45 17.99 6 17.55 6 17V5C6 4.45 6.46001 4 7.01001 4H15C15.55 4 16 4.45 16 5V5.73999L15.57 5.30005C15.38 5.11005 15.12 5 14.85 5H9.01001C7.91001 5 7 5.9 7 7ZM18 19C18 19.55 17.55 20 17 20H9.01001C8.46001 20 8 19.55 8 19V7C8 6.45 8.46001 6 9.01001 6H13.85V8.70996C13.85 9.56996 14.54 10.27 15.39 10.27H18V19Z" fill="#607079"/>
</svg>
