<svg width="138" height="90" viewBox="0 0 138 90" fill="none" xmlns="http://www.w3.org/2000/svg">
<path opacity="0.2" d="M72.4787 89.9999C103.183 89.9999 128.075 87.775 128.075 85.0305C128.075 82.2859 103.183 80.061 72.4787 80.061C41.7739 80.061 16.8828 82.2859 16.8828 85.0305C16.8828 87.775 41.7739 89.9999 72.4787 89.9999Z" fill="#C8D3D9"/>
<path d="M20.5997 83.3285H116.392C124.598 83.521 132.164 79.8064 135.711 73.8182C139.078 68.1281 138.308 61.2579 134.537 56.7729C129.99 51.3748 124.35 53.3378 119.747 48.3745C114.678 42.9143 119.865 38.4294 116.958 27.2605C116.336 24.8628 113.466 12.0664 100.415 4.89793C92.1537 0.3633 80.5438 -1.53131 70.8471 1.4131C63.3619 3.68663 55.8083 9.20895 49.6027 13.7436C45.3973 16.8122 41.664 20.0113 35.8311 20.502C33.6134 20.6884 31.7313 20.4648 28.1222 21.0425C28.1222 21.0425 23.6062 21.819 19.5002 23.7073C17.4689 24.6391 7.93995 29.9689 3.19412 40.8644C-2.2226 53.3005 -0.731757 71.3645 10.2756 79.3529C13.8847 81.9681 17.7422 82.9433 20.6059 83.3285H20.5997Z" fill="url(#paint0_linear_6550_181046)"/>
<path opacity="0.6" d="M24.4261 43.6038C29.7574 43.6038 34.0793 39.2819 34.0793 33.9506C34.0793 28.6193 29.7574 24.2974 24.4261 24.2974C19.0948 24.2974 14.7729 28.6193 14.7729 33.9506C14.7729 39.2819 19.0948 43.6038 24.4261 43.6038Z" fill="url(#paint1_linear_6550_181046)"/>
<path opacity="0.6" d="M17.0219 76.1477C19.3788 76.1477 21.2894 74.237 21.2894 71.8802C21.2894 69.5233 19.3788 67.6126 17.0219 67.6126C14.665 67.6126 12.7544 69.5233 12.7544 71.8802C12.7544 74.237 14.665 76.1477 17.0219 76.1477Z" fill="url(#paint2_linear_6550_181046)"/>
<path opacity="0.6" d="M127.772 42.8026C130.129 42.8026 132.04 40.892 132.04 38.5351C132.04 36.1782 130.129 34.2676 127.772 34.2676C125.416 34.2676 123.505 36.1782 123.505 38.5351C123.505 40.892 125.416 42.8026 127.772 42.8026Z" fill="url(#paint3_linear_6550_181046)"/>
<path opacity="0.6" d="M127.994 42.6285C130.351 42.6285 132.262 40.7179 132.262 38.361C132.262 36.0041 130.351 34.0935 127.994 34.0935C125.637 34.0935 123.727 36.0041 123.727 38.361C123.727 40.7179 125.637 42.6285 127.994 42.6285Z" fill="url(#paint4_linear_6550_181046)"/>
<path d="M107.366 5.09679H99.7631C98.471 3.17112 96.2596 1.92876 93.7563 1.92876H76.2638C73.7604 1.92876 71.549 3.17112 70.2569 5.09679H64.2066C59.4111 5.09679 55.5225 8.94812 55.5225 13.6567V73.5014C55.5225 74.3214 55.6343 75.1165 55.8579 75.8681C56.8953 79.471 60.2372 82.1048 64.2066 82.1048H107.373C112.131 82.1048 116.013 78.2473 116.013 73.5014V13.6567C116.013 8.94812 112.125 5.09679 107.373 5.09679H107.366ZM96.7379 9.37053C96.6075 10.8738 95.2719 12.1099 93.7563 12.1099H76.2638C74.7046 12.1099 73.4063 10.8676 73.2821 9.37053V9.15933C73.2821 7.53183 74.6238 6.2025 76.2638 6.2025H93.7563C95.3589 6.2025 96.7379 7.53183 96.7379 9.15933V9.37053Z" fill="url(#paint5_linear_6550_181046)" stroke="#C8D3D9" stroke-width="2" stroke-miterlimit="10"/>
<path opacity="0.3" d="M116.007 13.6568V73.5015C116.007 78.2474 112.118 82.1049 107.366 82.1049H64.2003C60.2309 82.1049 56.8889 79.4711 55.8516 75.8683C58.3301 77.2411 60.9763 77.3342 61.2745 77.3405C81.1834 77.9492 96.1104 77.8498 101.956 77.4336C103.937 77.2908 107.528 76.9678 109.603 74.3588C110.913 72.7127 111.137 70.7559 111.155 69.5632C111.019 44.6973 110.95 26.5091 111.404 18.2101C111.503 16.4211 111.789 12.079 109 8.83642C106.633 6.08458 103.086 5.33916 100.974 5.0969H107.366C112.125 5.0969 116.007 8.94823 116.007 13.6568Z" fill="#C8D3D9"/>
<path d="M67.8779 24.9498L71.0708 28.1179L77.2889 21.4898" stroke="#C8D3D9" stroke-width="3" stroke-linecap="round" stroke-linejoin="round"/>
<path d="M67.4429 37.9761L75.6487 46.1073" stroke="#C8D3D9" stroke-width="3" stroke-linecap="round" stroke-linejoin="round"/>
<path d="M75.6487 37.9761L67.4429 46.1073" stroke="#C8D3D9" stroke-width="3" stroke-linecap="round" stroke-linejoin="round"/>
<path d="M72.363 65.7181C75.0835 65.7181 77.289 63.5349 77.289 60.8418C77.289 58.1487 75.0835 55.9655 72.363 55.9655C69.6424 55.9655 67.437 58.1487 67.437 60.8418C67.437 63.5349 69.6424 65.7181 72.363 65.7181Z" stroke="#C8D3D9" stroke-width="3" stroke-linecap="round" stroke-linejoin="round"/>
<path d="M82.0405 27.2793H102.509" stroke="#C8D3D9" stroke-width="3" stroke-linecap="round" stroke-linejoin="round"/>
<path d="M82.0405 22.3285H91.8801" stroke="#C8D3D9" stroke-width="3" stroke-linecap="round" stroke-linejoin="round"/>
<path d="M82.0405 43.9146H102.509" stroke="#C8D3D9" stroke-width="3" stroke-linecap="round" stroke-linejoin="round"/>
<path d="M82.0405 38.9638H102.509" stroke="#C8D3D9" stroke-width="3" stroke-linecap="round" stroke-linejoin="round"/>
<path d="M82.0405 63.3141H102.509" stroke="#C8D3D9" stroke-width="3" stroke-linecap="round" stroke-linejoin="round"/>
<path d="M82.0405 58.3633H102.509" stroke="#C8D3D9" stroke-width="3" stroke-linecap="round" stroke-linejoin="round"/>
<path d="M60.7777 45.8837C60.1938 45.8837 59.6161 45.8589 59.0446 45.8092C55.2864 45.4862 51.6649 44.1382 48.7019 41.9206L45.6022 39.616C44.7822 38.9886 43.6082 38.9886 42.8131 39.616L39.6885 41.9206C36.2969 44.4798 31.9921 45.8837 27.5941 45.8837C26.3393 45.8837 25.333 46.8528 25.333 48.0889V55.0089C25.333 62.3078 28.5507 69.3085 34.1041 74.3215C34.9924 75.129 35.9428 75.8806 36.9491 76.5764L42.9063 80.7507C43.2852 80.9805 43.7449 81.1048 44.1797 81.1048C44.6394 81.1048 45.0866 80.9805 45.5214 80.7072L51.4537 76.5764C58.7278 71.5448 63.0699 63.4756 63.0699 55.0027V48.0827C63.0699 46.8652 62.0387 45.8775 60.7839 45.8775L60.7777 45.8837Z" fill="white" stroke="#C8D3D9" stroke-width="2" stroke-miterlimit="10"/>
<path opacity="0.2" d="M63.0639 48.0889V55.0089C63.0639 63.4756 58.7218 71.5447 51.4478 76.5825L45.5155 80.7134C45.0744 80.9867 44.6334 81.111 44.1737 81.111C43.7141 81.111 43.273 80.9867 42.9003 80.7569L36.9432 76.5825C35.9368 75.8868 34.9864 75.129 34.0981 74.3276C35.2908 74.9426 36.8313 75.5203 38.6825 75.7688C41.8754 76.2036 44.329 75.4209 45.4844 75.042C48.6214 74.0108 50.5843 72.3088 52.4168 70.6875C54.0443 69.2464 56.3365 66.8859 58.3615 63.3576C58.3615 63.3576 60.517 59.2205 61.0761 54.0833C61.1382 53.518 61.1817 52.8906 61.1817 52.8906C61.2252 51.9029 61.1134 51.319 61.25 49.7537C61.2749 49.4679 61.3246 48.8778 61.101 48.1696C60.9084 47.5857 60.6227 47.1944 60.4549 46.9832C60.0077 46.4179 59.4797 46.0576 59.0448 45.834C59.6163 45.8837 60.194 45.9085 60.7779 45.9085C62.0327 45.9085 63.0639 46.8962 63.0639 48.1137V48.0889Z" fill="#C8D3D9"/>
<path d="M52.4787 57.4811V65.6248C52.4787 67.0473 51.2612 68.1965 49.7703 68.1965H38.6574C37.1603 68.1965 35.918 67.0411 35.918 65.6248V57.4811C35.918 56.0586 37.1603 54.9156 38.6574 54.9156H49.7703C49.8138 54.9156 49.8573 54.9156 49.907 54.9218C51.3419 54.9839 52.4849 56.1082 52.4849 57.4811H52.4787Z" fill="url(#paint6_linear_6550_181046)" stroke="#C8D3D9" stroke-width="2" stroke-miterlimit="10"/>
<path d="M48.491 53.1949V54.5677C48.491 54.6671 48.4786 54.7789 48.4661 54.9094H39.9311C39.9063 54.7789 39.9062 54.6671 39.9062 54.5677V53.1949C39.9062 51.2506 41.3225 49.6666 43.0432 49.6666H45.3292C47.0623 49.6666 48.491 51.2568 48.491 53.1949Z" fill="white" stroke="#C8D3D9" stroke-width="2" stroke-miterlimit="10"/>
<path d="M44.1989 62.6182C44.837 62.6182 45.3543 62.1009 45.3543 61.4628C45.3543 60.8247 44.837 60.3074 44.1989 60.3074C43.5607 60.3074 43.0435 60.8247 43.0435 61.4628C43.0435 62.1009 43.5607 62.6182 44.1989 62.6182Z" fill="white" stroke="#C8D3D9" stroke-width="2" stroke-miterlimit="10"/>
<path d="M44.1987 63.022V63.9849" stroke="#C8D3D9" stroke-width="2" stroke-linecap="round" stroke-linejoin="round"/>
<path opacity="0.3" d="M52.4787 57.4811V65.6248C52.4787 67.0473 51.2612 68.1965 49.7703 68.1965H38.6574C37.1603 68.1965 35.918 67.0411 35.918 65.6248V65.3204C35.918 65.3204 35.949 65.308 35.9677 65.2955C36.2658 65.5502 36.7255 65.8857 37.3405 66.1714C38.7381 66.8174 39.7258 66.6062 42.1795 66.5006C45.7327 66.3515 46.6209 66.6621 48.3416 65.9229C49.2423 65.5378 49.7082 65.1402 50.0312 64.7427C50.64 63.9911 50.727 63.2022 50.932 61.7672C51.0251 61.1336 50.9879 60.0341 50.9071 57.8289C50.876 56.9841 50.8512 56.5182 50.5965 55.953C50.404 55.5243 50.1493 55.1827 49.8946 54.9094C51.3295 54.9715 52.4725 56.0958 52.4725 57.4686L52.4787 57.4811Z" fill="#C8D3D9"/>
<path d="M36.2036 26.7698L25.569 38.361C25.2211 38.74 24.7366 38.9574 24.2272 38.9636H24.1962C23.693 38.9636 23.2147 38.7648 22.8606 38.3983L21.3512 36.8391C21.3512 36.8391 21.3512 36.8391 21.3449 36.8391L17.5433 32.9133C16.8227 32.1741 16.8476 31 17.5806 30.2857C18.3198 29.5713 19.4938 29.5899 20.2082 30.3229L24.1527 34.3979L33.4518 24.254C33.9425 23.7198 34.6817 23.5396 35.334 23.726C35.6011 23.8005 35.862 23.9372 36.0794 24.1422C36.8372 24.8379 36.8869 26.0119 36.1912 26.7698H36.2036Z" fill="url(#paint7_linear_6550_181046)" stroke="#C8D3D9" stroke-width="2" stroke-miterlimit="10"/>
<path opacity="0.35" d="M36.2036 26.7697L25.5689 38.3609C25.221 38.7399 24.7365 38.9573 24.2272 38.9635H24.1961C23.6929 38.9635 23.2146 38.7647 22.8605 38.3982L21.3511 36.839C22.0903 37.2117 22.9351 37.5099 23.7923 37.3857C24.4508 37.2863 24.9353 36.9571 25.1962 36.7459C30.6378 31.0372 34.5823 26.8194 35.3153 25.9373C35.4084 25.8255 35.6196 25.5708 35.6942 25.1856C35.7936 24.6639 35.6072 24.1607 35.3401 23.7197C35.6072 23.7942 35.8681 23.9309 36.0855 24.1359C36.8434 24.8316 36.8931 26.0056 36.1973 26.7635L36.2036 26.7697Z" fill="#C8D3D9"/>
<path d="M23.0947 83.1669H115.993" stroke="#C8D3D9" stroke-width="2" stroke-linecap="round" stroke-linejoin="round"/>
<path d="M85.2129 86.894H88.9002" stroke="#C8D3D9" stroke-width="2" stroke-linecap="round" stroke-linejoin="round"/>
<defs>
<linearGradient id="paint0_linear_6550_181046" x1="74.4748" y1="-12.4206" x2="50.1555" y2="311.607" gradientUnits="userSpaceOnUse">
<stop stop-color="white"/>
<stop offset="1" stop-color="#9BD5FF"/>
</linearGradient>
<linearGradient id="paint1_linear_6550_181046" x1="11.9014" y1="23.8252" x2="33.3758" y2="41.1144" gradientUnits="userSpaceOnUse">
<stop stop-color="white"/>
<stop offset="1" stop-color="#9BD5FF"/>
</linearGradient>
<linearGradient id="paint2_linear_6550_181046" x1="11.5063" y1="67.396" x2="20.9977" y2="75.0421" gradientUnits="userSpaceOnUse">
<stop stop-color="white"/>
<stop offset="1" stop-color="#9BD5FF"/>
</linearGradient>
<linearGradient id="paint3_linear_6550_181046" x1="122.252" y1="34.0549" x2="131.752" y2="41.7002" gradientUnits="userSpaceOnUse">
<stop stop-color="white"/>
<stop offset="1" stop-color="#9BD5FF"/>
</linearGradient>
<linearGradient id="paint4_linear_6550_181046" x1="122.473" y1="33.8808" x2="131.973" y2="41.5261" gradientUnits="userSpaceOnUse">
<stop stop-color="white"/>
<stop offset="1" stop-color="#9BD5FF"/>
</linearGradient>
<linearGradient id="paint5_linear_6550_181046" x1="85.6995" y1="21.7631" x2="86.3828" y2="264.254" gradientUnits="userSpaceOnUse">
<stop stop-color="white"/>
<stop offset="1" stop-color="#C3E6FF"/>
</linearGradient>
<linearGradient id="paint6_linear_6550_181046" x1="43.9871" y1="51.6295" x2="44.9375" y2="97.0877" gradientUnits="userSpaceOnUse">
<stop stop-color="white"/>
<stop offset="1" stop-color="#C3E6FF"/>
</linearGradient>
<linearGradient id="paint7_linear_6550_181046" x1="26.2523" y1="20.8002" x2="28.9979" y2="55.9281" gradientUnits="userSpaceOnUse">
<stop stop-color="white"/>
<stop offset="1" stop-color="#C3E6FF"/>
</linearGradient>
</defs>
</svg>
