<svg width="24" height="24" viewBox="0 0 24 24" fill="none" xmlns="http://www.w3.org/2000/svg">
<path d="M7.99994 8.00049L15.9999 16.0005" stroke="#BF283A" stroke-miterlimit="10" stroke-linecap="round"/>
<path d="M7.99994 16.0005L15.9999 8.00049" stroke="#BF283A" stroke-miterlimit="10" stroke-linecap="round"/>
<path d="M12 1.33382C17.88 1.33382 22.6667 6.12049 22.6667 12.0005C22.6667 17.8805 17.88 22.6672 12 22.6672C6.12 22.6672 1.33333 17.8805 1.33333 12.0005C1.33333 6.12049 6.12 1.33382 12 1.33382ZM12 0.000488281C5.37333 0.000488281 0 5.37382 0 12.0005C0 18.6272 5.37333 24.0005 12 24.0005C18.6267 24.0005 24 18.6272 24 12.0005C24 5.37382 18.6267 0.000488281 12 0.000488281Z" fill="#BF283A"/>
</svg>
