<svg width="16" height="19" viewBox="0 0 16 19" fill="none" xmlns="http://www.w3.org/2000/svg">
<path d="M11.21 14.8799H14.26" stroke="#BF283A" stroke-width="0.75" stroke-linecap="round" stroke-linejoin="round"/>
<path d="M12.73 11.6102C12.6263 11.6066 12.5224 11.6133 12.42 11.6302C11.5728 10.8659 10.471 10.4451 9.33 10.4502H4.67C4.05669 10.4501 3.44936 10.5708 2.88271 10.8055C2.31606 11.0401 1.80119 11.3841 1.36752 11.8178C0.933843 12.2514 0.589858 12.7663 0.355215 13.333C0.120572 13.8996 -0.000131239 14.5069 1.33196e-07 15.1202C-0.000267517 16.137 0.402845 17.1124 1.12088 17.8323C1.83892 18.5522 2.81322 18.9579 3.83 18.9602H10.17C11.0313 18.9607 11.8672 18.668 12.54 18.1302C12.603 18.1386 12.6665 18.1419 12.73 18.1402C13.1588 18.1402 13.5833 18.0558 13.9795 17.8917C14.3756 17.7276 14.7355 17.4871 15.0387 17.1839C15.3419 16.8808 15.5824 16.5208 15.7465 16.1247C15.9105 15.7286 15.995 15.304 15.995 14.8752C15.995 14.4465 15.9105 14.0219 15.7465 13.6258C15.5824 13.2297 15.3419 12.8697 15.0387 12.5665C14.7355 12.2634 14.3756 12.0229 13.9795 11.8588C13.5833 11.6947 13.1588 11.6102 12.73 11.6102ZM10.17 17.9602H3.83C3.07819 17.9587 2.35778 17.6586 1.82711 17.1261C1.29644 16.5935 0.998938 15.872 1 15.1202C1.00238 14.1476 1.3898 13.2155 2.07754 12.5278C2.76529 11.84 3.69739 11.4526 4.67 11.4502H9.33C9.99704 11.4476 10.6516 11.6312 11.22 11.9802C10.6918 12.2584 10.2497 12.6755 9.94127 13.1866C9.63286 13.6977 9.46991 14.2833 9.47 14.8802C9.46818 15.4737 9.62952 16.0562 9.93639 16.5641C10.2433 17.072 10.6838 17.4858 11.21 17.7602C10.8796 17.8936 10.5263 17.9615 10.17 17.9602ZM13.3 17.3202C13.1141 17.3693 12.9223 17.3929 12.73 17.3902C12.4825 17.3902 12.2365 17.3532 12 17.2802C11.4943 17.1263 11.0501 16.8168 10.7305 16.3957C10.4109 15.9746 10.2323 15.4635 10.2202 14.935C10.208 14.4066 10.3628 13.8877 10.6626 13.4524C10.9624 13.017 11.3919 12.6873 11.89 12.5102C12.2797 12.3664 12.6998 12.3251 13.11 12.3902C13.6889 12.4761 14.2197 12.7616 14.6105 13.1973C15.0012 13.633 15.2274 14.1916 15.25 14.7764C15.2725 15.3613 15.09 15.9356 14.7339 16.4001C14.3778 16.8646 13.8706 17.1901 13.3 17.3202Z" fill="#BF283A"/>
<path d="M6.99992 9.32922e-07C6.04464 9.32922e-07 5.11081 0.283276 4.31652 0.814003C3.52223 1.34473 2.90316 2.09907 2.53759 2.98164C2.17201 3.86421 2.07636 4.83536 2.26273 5.77229C2.4491 6.70922 2.90911 7.56984 3.5846 8.24533C4.26009 8.92081 5.12071 9.38083 6.05764 9.56719C6.99457 9.75356 7.96572 9.65791 8.84829 9.29234C9.73085 8.92677 10.4852 8.30769 11.0159 7.51341C11.5466 6.71912 11.8299 5.78528 11.8299 4.83C11.8303 4.19561 11.7057 3.56735 11.4631 2.98117C11.2205 2.39499 10.8647 1.86238 10.4161 1.4138C9.96754 0.96521 9.43493 0.60945 8.84875 0.366859C8.26257 0.124269 7.63432 -0.000393469 6.99992 9.32922e-07ZM6.99992 8.66C6.24242 8.66 5.50193 8.43538 4.87209 8.01453C4.24225 7.59368 3.75135 6.99552 3.46147 6.29568C3.17158 5.59584 3.09574 4.82575 3.24352 4.08281C3.3913 3.33986 3.75607 2.65742 4.29171 2.12178C4.82734 1.58615 5.50978 1.22137 6.25273 1.07359C6.99568 0.925812 7.76576 1.00166 8.4656 1.29154C9.16544 1.58143 9.76361 2.07233 10.1845 2.70217C10.6053 3.33201 10.8299 4.0725 10.8299 4.83C10.8281 5.84521 10.424 6.81831 9.7061 7.53618C8.98824 8.25404 8.01513 8.65815 6.99992 8.66Z" fill="#BF283A"/>
</svg>
