<svg width="24" height="24" viewBox="0 0 24 24" fill="none" xmlns="http://www.w3.org/2000/svg">
<path d="M3.93595 14.97L3.9359 14.9701C3.65394 15.4583 3.50542 16.0121 3.50537 16.5758C3.50532 17.1395 3.65371 17.6933 3.93558 18.1815C4.21743 18.6697 4.62284 19.0751 5.11106 19.357C5.59927 19.6388 6.15312 19.7871 6.71686 19.787H6.71692H17.2838C17.2838 19.787 17.2839 19.787 17.2839 19.787C17.8475 19.7868 18.401 19.6383 18.8891 19.3564C19.3772 19.0745 19.7825 18.6691 20.0643 18.181C20.3461 17.6928 20.4945 17.1391 20.4946 16.5755C20.4947 16.0119 20.3465 15.4582 20.0649 14.97L3.93595 14.97ZM3.93595 14.97L9.21888 5.81907C9.21889 5.81906 9.2189 5.81904 9.21891 5.81902C9.50085 5.33083 9.90628 4.92544 10.3945 4.6436C10.8828 4.36174 11.4366 4.21338 12.0004 4.21338C12.5641 4.21338 13.118 4.36174 13.6062 4.6436C14.0945 4.92544 14.4999 5.33083 14.7818 5.81902C14.7818 5.81904 14.7818 5.81906 14.7819 5.81907L20.0648 14.9699L3.93595 14.97Z" stroke="#BF283A"/>
<path d="M9.21909 5.81898L9.21913 5.81891C9.64164 5.08734 10.3106 4.56909 11.0912 4.34202C10.3421 4.5591 9.66252 5.05126 9.21904 5.81902L9.21909 5.81898ZM9.21909 5.81898L4.96028 13.1959L9.21899 5.81911L9.21909 5.81898ZM6.71705 19.787C6.00878 19.787 5.37664 19.5673 4.86421 19.2035C5.39467 19.5789 6.0358 19.787 6.71705 19.787ZM3.51273 16.8399C3.46101 16.2355 3.58163 15.6028 3.91367 15.0094C3.59392 15.5812 3.46028 16.2157 3.51273 16.8399ZM20.065 14.97C20.4164 15.5787 20.5429 16.2308 20.4871 16.8523C20.5438 16.2097 20.4031 15.5557 20.065 14.97L14.782 5.81922L14.782 5.81916C14.3587 5.08629 13.6884 4.5675 12.9061 4.34097C13.6567 4.55752 14.3378 5.05006 14.782 5.81911L20.065 14.97ZM17.2841 19.787C17.9624 19.787 18.6008 19.5806 19.1299 19.2081C18.6187 19.5692 17.9891 19.787 17.2841 19.787Z" fill="#BF283A" stroke="#BF283A"/>
<path d="M11.2736 8.93433L11.2736 8.93437L11.8883 13.9515C11.9187 13.9577 11.9559 13.962 12 13.962C12.0444 13.962 12.0819 13.9576 12.1126 13.9514L12.7273 8.93437L12.7273 8.93431C12.7615 8.65577 12.6775 8.39068 12.5113 8.20273L11.2736 8.93433ZM11.2736 8.93433C11.2395 8.65577 11.3235 8.39057 11.4899 8.20244L11.2736 8.93433ZM11.4899 8.20234C11.6282 8.04617 11.8072 7.96704 12 7.96704C12.1935 7.96704 12.373 8.04645 12.5112 8.2027L11.4899 8.20234Z" fill="#BF283A" stroke="#BF283A"/>
<path d="M12.2144 14.4402L12.2307 14.4368C12.1602 14.4527 12.0825 14.462 11.9999 14.462C12.0789 14.462 12.1512 14.4533 12.2144 14.4402ZM12.581 14.2394C12.581 14.2395 12.5809 14.2395 12.5809 14.2396L12.6089 14.0115L13.1014 9.99211L12.581 14.2394ZM12.9316 7.92616C13.1509 8.19923 13.2698 8.57043 13.2261 8.97357C13.2658 8.60362 13.164 8.21956 12.9316 7.92616ZM11.4199 14.2395L11.0014 10.8242L11.392 14.0117L11.42 14.2397C11.42 14.2396 11.42 14.2396 11.4199 14.2395ZM11.9763 14.4618C11.905 14.4602 11.8375 14.4517 11.7755 14.4381L11.7876 14.4406C11.8435 14.4521 11.9071 14.4603 11.9763 14.4618ZM10.774 8.96672C10.7323 8.56526 10.8517 8.19601 11.0706 7.92435C10.8388 8.21617 10.7362 8.59817 10.774 8.96672Z" fill="#BF283A" stroke="#BF283A"/>
<path d="M12.4928 16.767C12.4928 17.0387 12.2725 17.259 12.0008 17.259C11.7291 17.259 11.5088 17.0387 11.5088 16.767C11.5088 16.4953 11.7291 16.275 12.0008 16.275C12.2725 16.275 12.4928 16.4953 12.4928 16.767Z" fill="#BF283A" stroke="#BF283A"/>
<path d="M12.0008 17.259C12.2725 17.259 12.4928 17.0387 12.4928 16.767C12.4928 16.4953 12.2725 16.275 12.0008 16.275C11.7291 16.275 11.5088 16.4953 11.5088 16.767C11.5088 17.0387 11.7291 17.259 12.0008 17.259Z" stroke="#BF283A" stroke-miterlimit="10" stroke-linecap="round"/>
</svg>
