<svg width="18" height="18" viewBox="0 0 18 18" fill="none" xmlns="http://www.w3.org/2000/svg">
<path d="M0.93595 11.97L0.935903 11.9701C0.653944 12.4583 0.505419 13.0121 0.505371 13.5758C0.505323 14.1395 0.653715 14.6933 0.93558 15.1815C1.21743 15.6697 1.62284 16.0751 2.11106 16.357C2.59927 16.6388 3.15312 16.7871 3.71686 16.787H3.71692H14.2838C14.2838 16.787 14.2839 16.787 14.2839 16.787C14.8475 16.7868 15.401 16.6383 15.8891 16.3564C16.3772 16.0745 16.7825 15.6691 17.0643 15.181C17.3461 14.6928 17.4945 14.1391 17.4946 13.5755C17.4947 13.0119 17.3465 12.4582 17.0649 11.97L0.93595 11.97ZM0.93595 11.97L6.21888 2.81907C6.21889 2.81906 6.2189 2.81904 6.21891 2.81902C6.50085 2.33083 6.90628 1.92544 7.39451 1.6436C7.88275 1.36174 8.43658 1.21338 9.00037 1.21338C9.56415 1.21338 10.118 1.36174 10.6062 1.6436C11.0945 1.92544 11.4999 2.33083 11.7818 2.81902C11.7818 2.81904 11.7818 2.81906 11.7819 2.81907L17.0648 11.9699L0.93595 11.97Z" stroke="#BF283A"/>
<path d="M6.21909 2.81886L6.21913 2.81879C6.64164 2.08722 7.31058 1.56897 8.09123 1.3419C7.34215 1.55898 6.66252 2.05114 6.21904 2.8189L6.21909 2.81886ZM6.21909 2.81886L1.96028 10.1958L6.21899 2.81899L6.21909 2.81886ZM3.71705 16.7869C3.00878 16.7869 2.37664 16.5672 1.86421 16.2034C2.39467 16.5788 3.0358 16.7869 3.71705 16.7869ZM0.512731 13.8397C0.461015 13.2354 0.58163 12.6027 0.913672 12.0093C0.593916 12.5811 0.46028 13.2156 0.512731 13.8397ZM17.065 11.9699C17.4164 12.5786 17.5429 13.2307 17.4871 13.8522C17.5438 13.2096 17.4031 12.5556 17.065 11.9699L11.782 2.8191L11.782 2.81904C11.3587 2.08616 10.6884 1.56738 9.90613 1.34084C10.6567 1.5574 11.3378 2.04994 11.782 2.81899L17.065 11.9699ZM14.2841 16.7869C14.9624 16.7869 15.6008 16.5805 16.1299 16.208C15.6187 16.5691 14.9891 16.7869 14.2841 16.7869Z" fill="#BF283A" stroke="#BF283A"/>
<path d="M8.27361 5.93433L8.27361 5.93437L8.88835 10.9515C8.91875 10.9577 8.95591 10.962 8.99998 10.962C9.04438 10.962 9.08186 10.9576 9.11257 10.9514L9.72733 5.93437L9.72733 5.93431C9.76149 5.65577 9.67753 5.39068 9.51126 5.20273L8.27361 5.93433ZM8.27361 5.93433C8.23945 5.65577 8.32346 5.39057 8.48985 5.20244L8.27361 5.93433ZM8.48994 5.20234C8.62822 5.04617 8.80725 4.96704 8.99998 4.96704C9.19353 4.96704 9.37297 5.04645 9.51124 5.2027L8.48994 5.20234Z" fill="#BF283A" stroke="#BF283A"/>
<path d="M9.2144 11.4402L9.23074 11.4368C9.16024 11.4527 9.08247 11.462 8.9999 11.462C9.07887 11.462 9.15123 11.4533 9.2144 11.4402ZM9.58099 11.2394C9.58097 11.2395 9.58094 11.2395 9.58091 11.2396L9.60886 11.0115L10.1014 6.99211L9.58099 11.2394ZM9.93158 4.92616C10.1509 5.19923 10.2698 5.57043 10.2261 5.97357C10.2658 5.60362 10.164 5.21956 9.93158 4.92616ZM8.41994 11.2395L8.00135 7.82419L8.39205 11.0117L8.41999 11.2397C8.41997 11.2396 8.41995 11.2396 8.41994 11.2395ZM8.97633 11.4618C8.90502 11.4602 8.83753 11.4517 8.77552 11.4381L8.78756 11.4406C8.84353 11.4521 8.90708 11.4603 8.97633 11.4618ZM7.77397 5.96672C7.73225 5.56526 7.85173 5.19601 8.07063 4.92435C7.83875 5.21617 7.73617 5.59817 7.77397 5.96672Z" fill="#BF283A" stroke="#BF283A"/>
<path d="M9.49279 13.7669C9.49279 14.0386 9.27251 14.2589 9.00079 14.2589C8.72906 14.2589 8.50879 14.0386 8.50879 13.7669C8.50879 13.4952 8.72906 13.2749 9.00079 13.2749C9.27251 13.2749 9.49279 13.4952 9.49279 13.7669Z" fill="#BF283A" stroke="#BF283A"/>
<path d="M9.00079 14.2589C9.27251 14.2589 9.49279 14.0386 9.49279 13.7669C9.49279 13.4952 9.27251 13.2749 9.00079 13.2749C8.72906 13.2749 8.50879 13.4952 8.50879 13.7669C8.50879 14.0386 8.72906 14.2589 9.00079 14.2589Z" stroke="#BF283A" stroke-miterlimit="10" stroke-linecap="round"/>
</svg>
