<svg width="24" height="24" viewBox="0 0 24 24" fill="none" xmlns="http://www.w3.org/2000/svg">
<path d="M12 22C6.49 22 2 17.51 2 12C2 6.49 6.49 2 12 2C17.51 2 22 6.49 22 12C22 17.51 17.51 22 12 22ZM12 3C7.04 3 3 7.04 3 12C3 16.96 7.04 21 12 21C16.96 21 21 16.96 21 12C21 7.04 16.96 3 12 3Z" fill="#8798A1"/>
<path d="M13.1099 7.42004C13.1099 8.09004 12.5499 8.67004 11.8899 8.67004C11.2299 8.67004 10.6699 8.09004 10.6699 7.42004C10.6699 6.75004 11.2299 6.17004 11.9199 6.17004C12.6099 6.17004 13.1099 6.73004 13.1099 7.42004Z" fill="#8798A1"/>
<path d="M14.1898 17.03V17.5C14.1898 17.69 14.0198 17.83 13.8298 17.83H10.1598C9.96981 17.83 9.7998 17.69 9.7998 17.5V17.03C9.7998 16.84 9.93981 16.7 10.1298 16.67C10.6831 16.63 10.9598 16.3067 10.9598 15.7V12.28C10.9598 11.74 10.7098 11.4333 10.2098 11.36C10.0398 11.33 9.8998 11.17 9.8998 11V10.61C9.8998 10.44 10.0398 10.3 10.2098 10.28C11.0698 10.11 11.8198 9.91998 12.4898 9.60998C12.5998 9.57998 12.7398 9.57998 12.8198 9.66998C12.9298 9.72998 12.9898 9.83999 12.9898 9.94999V15.7C12.9898 16.2933 13.2765 16.6166 13.8498 16.67C14.0398 16.7 14.1798 16.84 14.1798 17.03H14.1898Z" fill="#8798A1"/>
</svg>
