<svg width="16" height="16" viewBox="0 0 16 16" fill="none" xmlns="http://www.w3.org/2000/svg">
<path d="M6.66079 12.5231V12.5231C5.13845 12.5231 3.67833 11.9516 2.56869 10.8653L2.56773 10.8644C0.292359 8.62511 0.243721 4.92079 2.46046 2.62222C3.58858 1.44835 5.08882 0.854768 6.58968 0.854768C8.08762 0.854768 9.49498 1.40988 10.6039 2.51453C12.8786 4.7544 12.9257 8.44846 10.7106 10.755L6.66079 12.5231ZM6.66079 12.5231L6.66721 12.523M6.66079 12.5231L6.66721 12.523M6.66721 12.523C8.2084 12.5032 9.64185 11.8687 10.7104 10.7552L6.66721 12.523ZM11.3511 10.5523L11.0221 10.9742L11.4623 11.2719C11.4621 11.2718 11.462 11.2717 11.462 11.2717C11.462 11.2718 11.4678 11.2762 11.4804 11.2864L11.4895 11.2938L15.4476 15.2015L15.7988 14.8458L15.4488 15.2027C15.5133 15.266 15.5218 15.3769 15.4458 15.4567L15.4457 15.4566L15.4398 15.4631C15.4322 15.4713 15.4203 15.4804 15.402 15.4878C15.3829 15.4955 15.3599 15.5 15.3366 15.5C15.2943 15.5 15.2503 15.485 15.2121 15.4502L11.2594 11.5391C11.258 11.5374 11.2555 11.5345 11.2517 11.5298L11.2499 11.5276C11.2392 11.5146 11.2156 11.4858 11.1859 11.4556L10.8568 11.1218L10.5024 11.4287C9.43966 12.3493 8.09731 12.8498 6.67409 12.8758H6.58079C4.98902 12.8758 3.48841 12.2611 2.33686 11.1267C-0.0656401 8.73874 -0.121847 4.81292 2.22983 2.36876L2.23059 2.36797C3.36459 1.18419 4.88172 0.527013 6.50847 0.502008L6.50847 0.502036L6.51372 0.5019C8.11302 0.46051 9.66361 1.09766 10.8343 2.25191C12.0008 3.40197 12.6519 4.95312 12.6766 6.61072L12.6766 6.6118C12.7013 8.05468 12.2249 9.43172 11.3511 10.5523Z" fill="#607079" stroke="#8798A1"/>
</svg>
