<svg width="16" height="19" viewBox="0 0 16 19" fill="none" xmlns="http://www.w3.org/2000/svg">
<path d="M12.73 11.61C12.6263 11.6064 12.5224 11.6131 12.42 11.63C11.5728 10.8656 10.471 10.4449 9.33 10.45H4.67C4.05669 10.4499 3.44936 10.5706 2.88271 10.8052C2.31606 11.0399 1.80119 11.3838 1.36752 11.8175C0.933843 12.2512 0.589858 12.7661 0.355215 13.3327C0.120572 13.8994 -0.000131239 14.5067 1.33196e-07 15.12C-0.000267517 16.1368 0.402845 17.1121 1.12088 17.832C1.83892 18.552 2.81322 18.9576 3.83 18.96H10.17C11.0313 18.9604 11.8672 18.6677 12.54 18.13C12.603 18.1383 12.6665 18.1417 12.73 18.14C13.1588 18.14 13.5833 18.0555 13.9795 17.8915C14.3756 17.7274 14.7355 17.4869 15.0387 17.1837C15.3419 16.8805 15.5824 16.5206 15.7465 16.1245C15.9105 15.7283 15.995 15.3038 15.995 14.875C15.995 14.4462 15.9105 14.0217 15.7465 13.6255C15.5824 13.2294 15.3419 12.8695 15.0387 12.5663C14.7355 12.2631 14.3756 12.0226 13.9795 11.8585C13.5833 11.6944 13.1588 11.61 12.73 11.61V11.61ZM10.17 17.96H3.83C3.07819 17.9584 2.35778 17.6584 1.82711 17.1258C1.29644 16.5933 0.998938 15.8718 1 15.12C1.00238 14.1474 1.3898 13.2153 2.07754 12.5275C2.76529 11.8398 3.69739 11.4524 4.67 11.45H9.33C9.99704 11.4474 10.6516 11.6309 11.22 11.98C10.6918 12.2582 10.2497 12.6753 9.94127 13.1864C9.63286 13.6975 9.46991 14.2831 9.47 14.88C9.46818 15.4734 9.62952 16.0559 9.93639 16.5638C10.2433 17.0718 10.6838 17.4856 11.21 17.76C10.8796 17.8934 10.5263 17.9613 10.17 17.96V17.96ZM13.3 17.32C13.1141 17.3691 12.9223 17.3926 12.73 17.39C12.4825 17.39 12.2365 17.3529 12 17.28C11.4943 17.1261 11.0501 16.8165 10.7305 16.3955C10.4109 15.9744 10.2323 15.4632 10.2202 14.9348C10.208 14.4063 10.3628 13.8875 10.6626 13.4521C10.9624 13.0168 11.3919 12.6871 11.89 12.51C12.2797 12.3662 12.6998 12.3249 13.11 12.39C13.6889 12.4758 14.2197 12.7613 14.6105 13.197C15.0012 13.6328 15.2274 14.1913 15.25 14.7762C15.2725 15.361 15.09 15.9354 14.7339 16.3999C14.3778 16.8644 13.8706 17.1898 13.3 17.32" fill="#BF283A"/>
<path d="M6.99992 9.32922e-07C6.04464 9.32922e-07 5.11081 0.283276 4.31652 0.814003C3.52223 1.34473 2.90316 2.09907 2.53759 2.98164C2.17201 3.86421 2.07636 4.83536 2.26273 5.77229C2.4491 6.70922 2.90911 7.56984 3.5846 8.24533C4.26009 8.92081 5.12071 9.38083 6.05764 9.56719C6.99457 9.75356 7.96572 9.65791 8.84829 9.29234C9.73085 8.92677 10.4852 8.30769 11.0159 7.51341C11.5466 6.71912 11.8299 5.78528 11.8299 4.83C11.8303 4.19561 11.7057 3.56735 11.4631 2.98117C11.2205 2.39499 10.8647 1.86238 10.4161 1.4138C9.96754 0.96521 9.43493 0.60945 8.84875 0.366859C8.26257 0.124269 7.63432 -0.000393469 6.99992 9.32922e-07ZM6.99992 8.66C6.24242 8.66 5.50193 8.43538 4.87209 8.01453C4.24225 7.59368 3.75135 6.99552 3.46147 6.29568C3.17158 5.59584 3.09574 4.82575 3.24352 4.08281C3.3913 3.33986 3.75607 2.65742 4.29171 2.12178C4.82734 1.58615 5.50978 1.22137 6.25273 1.07359C6.99568 0.925812 7.76576 1.00166 8.4656 1.29154C9.16544 1.58143 9.76361 2.07233 10.1845 2.70217C10.6053 3.33201 10.8299 4.0725 10.8299 4.83C10.8281 5.84521 10.424 6.81831 9.7061 7.53618C8.98824 8.25404 8.01513 8.65815 6.99992 8.66Z" fill="#BF283A"/>
</svg>
