<svg width="40" height="40" viewBox="0 0 40 40" fill="none" xmlns="http://www.w3.org/2000/svg">
<circle cx="20" cy="20" r="20" fill="#F4F7FB"/>
<path d="M23.21 25.8799H26.26" stroke="#607079" stroke-width="0.75" stroke-linecap="round" stroke-linejoin="round"/>
<path d="M24.73 22.61C24.6263 22.6064 24.5224 22.6131 24.42 22.63C23.5728 21.8656 22.471 21.4449 21.33 21.45H16.67C16.0567 21.4499 15.4494 21.5706 14.8827 21.8052C14.3161 22.0399 13.8012 22.3838 13.3675 22.8175C12.9338 23.2512 12.5899 23.7661 12.3552 24.3327C12.1206 24.8994 11.9999 25.5067 12 26.12C11.9997 27.1368 12.4028 28.1121 13.1209 28.832C13.8389 29.552 14.8132 29.9576 15.83 29.96H22.17C23.0313 29.9604 23.8672 29.6677 24.54 29.13C24.603 29.1383 24.6665 29.1417 24.73 29.14C25.1588 29.14 25.5833 29.0555 25.9795 28.8915C26.3756 28.7274 26.7355 28.4869 27.0387 28.1837C27.3419 27.8805 27.5824 27.5206 27.7465 27.1245C27.9105 26.7283 27.995 26.3038 27.995 25.875C27.995 25.4462 27.9105 25.0217 27.7465 24.6255C27.5824 24.2294 27.3419 23.8695 27.0387 23.5663C26.7355 23.2631 26.3756 23.0226 25.9795 22.8585C25.5833 22.6944 25.1588 22.61 24.73 22.61ZM22.17 28.96H15.83C15.0782 28.9584 14.3578 28.6584 13.8271 28.1258C13.2964 27.5933 12.9989 26.8718 13 26.12C13.0024 25.1474 13.3898 24.2153 14.0775 23.5275C14.7653 22.8398 15.6974 22.4524 16.67 22.45H21.33C21.997 22.4474 22.6516 22.6309 23.22 22.98C22.6918 23.2582 22.2497 23.6753 21.9413 24.1864C21.6329 24.6975 21.4699 25.2831 21.47 25.88C21.4682 26.4734 21.6295 27.0559 21.9364 27.5638C22.2433 28.0718 22.6838 28.4856 23.21 28.76C22.8796 28.8934 22.5263 28.9613 22.17 28.96ZM25.3 28.32C25.1141 28.3691 24.9223 28.3926 24.73 28.39C24.4825 28.39 24.2365 28.3529 24 28.28C23.4943 28.1261 23.0501 27.8165 22.7305 27.3955C22.4109 26.9744 22.2323 26.4632 22.2202 25.9348C22.208 25.4063 22.3628 24.8875 22.6626 24.4521C22.9624 24.0168 23.3919 23.6871 23.89 23.51C24.2797 23.3662 24.6998 23.3249 25.11 23.39C25.6889 23.4758 26.2197 23.7613 26.6105 24.197C27.0012 24.6328 27.2274 25.1913 27.25 25.7762C27.2725 26.361 27.09 26.9354 26.7339 27.3999C26.3778 27.8644 25.8706 28.1898 25.3 28.32Z" fill="#607079"/>
<path d="M18.9999 11C18.0446 11 17.1108 11.2833 16.3165 11.814C15.5222 12.3447 14.9032 13.0991 14.5376 13.9816C14.172 14.8642 14.0764 15.8354 14.2627 16.7723C14.4491 17.7092 14.9091 18.5698 15.5846 19.2453C16.2601 19.9208 17.1207 20.3808 18.0576 20.5672C18.9946 20.7536 19.9657 20.6579 20.8483 20.2923C21.7309 19.9268 22.4852 19.3077 23.0159 18.5134C23.5466 17.7191 23.8299 16.7853 23.8299 15.83C23.8303 15.1956 23.7057 14.5674 23.4631 13.9812C23.2205 13.395 22.8647 12.8624 22.4161 12.4138C21.9675 11.9652 21.4349 11.6094 20.8488 11.3669C20.2626 11.1243 19.6343 10.9996 18.9999 11ZM18.9999 19.66C18.2424 19.66 17.5019 19.4354 16.8721 19.0145C16.2422 18.5937 15.7513 17.9955 15.4615 17.2957C15.1716 16.5958 15.0957 15.8258 15.2435 15.0828C15.3913 14.3399 15.7561 13.6574 16.2917 13.1218C16.8273 12.5861 17.5098 12.2214 18.2527 12.0736C18.9957 11.9258 19.7658 12.0017 20.4656 12.2915C21.1654 12.5814 21.7636 13.0723 22.1845 13.7022C22.6053 14.332 22.8299 15.0725 22.8299 15.83C22.8281 16.8452 22.424 17.8183 21.7061 18.5362C20.9882 19.254 20.0151 19.6582 18.9999 19.66Z" fill="#607079"/>
</svg>
