<svg width="24" height="24" viewBox="0 0 24 24" fill="none" xmlns="http://www.w3.org/2000/svg">
<path d="M8.74963 6.42004C7.60963 6.42004 6.67969 7.35002 6.67969 8.49002C6.67969 9.63002 7.60963 10.56 8.74963 10.56C9.88963 10.56 10.8196 9.63002 10.8196 8.49002C10.8196 7.35002 9.88963 6.42004 8.74963 6.42004ZM8.74963 9.56003C8.15963 9.56003 7.67969 9.08002 7.67969 8.49002C7.67969 7.90002 8.15963 7.42004 8.74963 7.42004C9.33963 7.42004 9.81964 7.90002 9.81964 8.49002C9.81964 9.08002 9.33963 9.56003 8.74963 9.56003Z" fill="#8798A1"/>
<path d="M19.5 4H4.5C3.12 4 2 5.12 2 6.5V17.5C2 17.82 2.06004 18.12 2.17004 18.4C2.53004 19.34 3.44 20 4.5 20H19.5C20.87 20 22 18.88 22 17.5V6.5C22 5.12 20.87 4 19.5 4ZM21 17.5C21 18.33 20.33 19 19.5 19H4.5C3.69 19 3.04001 18.37 3.01001 17.57L6.79004 13.78C6.88004 13.7 6.99004 13.65 7.10004 13.65C7.21004 13.65 7.32002 13.7 7.40002 13.78L9.24005 15.62C9.80005 16.18 10.71 16.18 11.27 15.62L16.57 10.32C16.73 10.16 17.01 10.16 17.17 10.32L21 14.14V17.5ZM17.88 9.61002C17.33 9.05002 16.42 9.05002 15.86 9.61002L10.56 14.91C10.39 15.08 10.12 15.08 9.95001 14.91L8.11005 13.07C7.55005 12.52 6.64003 12.52 6.09003 13.07L3 16.16V6.5C3 5.67 3.67 5 4.5 5H19.5C20.33 5 21 5.67 21 6.5V12.73L17.88 9.61002Z" fill="#8798A1"/>
</svg>
