<svg width="18" height="18" viewBox="0 0 18 18" fill="none" xmlns="http://www.w3.org/2000/svg">
<path d="M9.00033 0.666504C4.40866 0.666504 0.666992 4.39984 0.666992 8.99984C0.666992 13.5998 4.40866 17.3332 9.00033 17.3332C13.592 17.3332 17.3337 13.5915 17.3337 8.99984C17.3337 4.40817 13.592 0.666504 9.00033 0.666504ZM9.00033 16.4998C4.86699 16.4998 1.50033 13.1332 1.50033 8.99984C1.50033 4.8665 4.86699 1.49984 9.00033 1.49984C13.1337 1.49984 16.5003 4.8665 16.5003 8.99984C16.5003 13.1332 13.1337 16.4998 9.00033 16.4998Z" fill="#8798A1"/>
<path d="M11.9674 12.3915C11.859 12.3915 11.7507 12.3498 11.6757 12.2665L8.70068 9.29147C8.62568 9.21647 8.57568 9.10814 8.57568 8.9998V5.59147C8.57568 5.35814 8.75902 5.1748 8.99235 5.1748C9.22568 5.1748 9.40902 5.35814 9.40902 5.59147V8.8248L12.259 11.6748C12.4257 11.8415 12.4257 12.0998 12.259 12.2665C12.1757 12.3498 12.0674 12.3915 11.9674 12.3915Z" fill="#8798A1"/>
</svg>
