<svg width="24" height="25" viewBox="0 0 24 25" fill="none" xmlns="http://www.w3.org/2000/svg">
<path d="M6.41422 11.0858C7.19527 11.8668 7.19527 13.1332 6.41422 13.9142C5.63317 14.6953 4.36684 14.6953 3.58579 13.9142C2.80474 13.1332 2.80474 11.8668 3.58579 11.0858C4.36684 10.3047 5.63317 10.3047 6.41422 11.0858" stroke="#323232" stroke-width="1.5" stroke-linecap="round" stroke-linejoin="round"/>
<path d="M11 5.5H21" stroke="#323232" stroke-width="1.5" stroke-linecap="round" stroke-linejoin="round"/>
<path d="M11 12.5H21" stroke="#323232" stroke-width="1.5" stroke-linecap="round" stroke-linejoin="round"/>
<path d="M11 19.5H21" stroke="#323232" stroke-width="1.5" stroke-linecap="round" stroke-linejoin="round"/>
<path d="M6.41422 4.08579C7.19527 4.86684 7.19527 6.13317 6.41422 6.91422C5.63317 7.69527 4.36684 7.69527 3.58579 6.91422C2.80474 6.13317 2.80474 4.86684 3.58579 4.08579C4.36684 3.30474 5.63317 3.30474 6.41422 4.08579" stroke="#323232" stroke-width="1.5" stroke-linecap="round" stroke-linejoin="round"/>
<path d="M6.41422 11.0858C7.19527 11.8668 7.19527 13.1332 6.41422 13.9142C5.63317 14.6953 4.36684 14.6953 3.58579 13.9142C2.80474 13.1332 2.80474 11.8668 3.58579 11.0858C4.36684 10.3047 5.63317 10.3047 6.41422 11.0858" stroke="#323232" stroke-width="1.5" stroke-linecap="round" stroke-linejoin="round"/>
<path d="M6.41422 18.0858C7.19527 18.8668 7.19527 20.1332 6.41422 20.9142C5.63317 21.6953 4.36684 21.6953 3.58579 20.9142C2.80474 20.1332 2.80474 18.8668 3.58579 18.0858C4.36684 17.3047 5.63317 17.3047 6.41422 18.0858" stroke="#323232" stroke-width="1.5" stroke-linecap="round" stroke-linejoin="round"/>
</svg>
