<svg width="24" height="25" viewBox="0 0 24 25" fill="none" xmlns="http://www.w3.org/2000/svg">
<path d="M13.25 12.5H15.75C16.026 12.5 16.25 12.724 16.25 13V15C16.25 15.276 16.026 15.5 15.75 15.5H13.75C13.474 15.5 13.25 15.276 13.25 15V12.5" stroke="#354752" stroke-width="1.5" stroke-linecap="round" stroke-linejoin="round"/>
<path d="M13.25 12.5C13.25 10.5 13.625 10.167 14.75 9.5" stroke="#354752" stroke-width="1.5" stroke-linecap="round" stroke-linejoin="round"/>
<path d="M7.75 12.5H10.25C10.526 12.5 10.75 12.724 10.75 13V15C10.75 15.276 10.526 15.5 10.25 15.5H8.25C7.974 15.5 7.75 15.276 7.75 15V12.5" stroke="#354752" stroke-width="1.5" stroke-linecap="round" stroke-linejoin="round"/>
<path d="M7.75 12.5C7.75 10.5 8.125 10.167 9.25 9.5" stroke="#354752" stroke-width="1.5" stroke-linecap="round" stroke-linejoin="round"/>
<path fill-rule="evenodd" clip-rule="evenodd" d="M18 21.5H6C4.343 21.5 3 20.157 3 18.5V6.5C3 4.843 4.343 3.5 6 3.5H18C19.657 3.5 21 4.843 21 6.5V18.5C21 20.157 19.657 21.5 18 21.5Z" stroke="#354752" stroke-width="1.5" stroke-linecap="round" stroke-linejoin="round"/>
</svg>
