<svg width="24" height="24" viewBox="0 0 24 24" fill="none" xmlns="http://www.w3.org/2000/svg">
<path d="M19.0898 9.17001L20.4998 7.76001" stroke="#8798A1" stroke-width="1.4441" stroke-linecap="round" stroke-linejoin="round"/>
<path d="M20.4998 16.2401L19.0898 14.8301" stroke="#8798A1" stroke-width="1.4441" stroke-linecap="round" stroke-linejoin="round"/>
<path d="M20.5 12H22.5" stroke="#8798A1" stroke-width="1.4441" stroke-linecap="round" stroke-linejoin="round"/>
<path d="M4.91 14.8301L3.5 16.2401" stroke="#8798A1" stroke-width="1.4441" stroke-linecap="round" stroke-linejoin="round"/>
<path d="M3.5 7.76001L4.91 9.17001" stroke="#8798A1" stroke-width="1.4441" stroke-linecap="round" stroke-linejoin="round"/>
<path d="M3.5 12H1.5" stroke="#8798A1" stroke-width="1.4441" stroke-linecap="round" stroke-linejoin="round"/>
<path d="M12.444 10.2219C14.408 10.2219 16 11.8139 16 13.7779V15.9999C16 18.2089 14.209 19.9999 12 19.9999V19.9999C9.791 19.9999 8 18.2089 8 15.9999V15.5559" stroke="#8798A1" stroke-width="1.5" stroke-linecap="round" stroke-linejoin="round"/>
<path d="M12 14C9.791 14 8 12.209 8 10V8C8 5.791 9.791 4 12 4V4C14.209 4 16 5.791 16 8V8.444" stroke="#8798A1" stroke-width="1.5" stroke-linecap="round" stroke-linejoin="round"/>
</svg>
