<svg width="400" height="272" viewBox="0 0 400 272" fill="none" xmlns="http://www.w3.org/2000/svg">
<path opacity="0.2" d="M208.244 271.401C279.89 271.401 337.97 266.815 337.97 261.159C337.97 255.503 279.89 250.917 208.244 250.917C136.599 250.917 78.5183 255.503 78.5183 261.159C78.5183 266.815 136.599 271.401 208.244 271.401Z" fill="#C8D3D9"/>
<path d="M338.022 61.8589H349.834" stroke="#C8D3D9" stroke-width="2" stroke-linecap="round" stroke-linejoin="round"/>
<path d="M349.834 70.1375H361.646" stroke="#C8D3D9" stroke-width="2" stroke-linecap="round" stroke-linejoin="round"/>
<path d="M8.15894 186.584C8.15894 222.156 36.9888 250.969 72.544 250.969H335.615C371.17 250.969 400 222.139 400 186.584C400 156.627 379.534 131.433 351.831 124.23C352.786 120.082 353.299 115.763 353.299 111.343C353.299 79.901 327.831 54.4337 296.39 54.4337C284.783 54.4337 273.995 57.8988 264.999 63.856C247.196 26.133 208.773 0 164.257 0C102.757 0 52.8974 49.8592 52.8974 111.343C52.8974 115.951 53.1705 120.509 53.7337 124.964C27.3447 133.02 8.15894 157.549 8.15894 186.567V186.584Z" fill="url(#paint0_linear_4112_383327)"/>
<path d="M101.954 111.291V228.113C101.954 240.71 112.196 250.952 124.793 250.952H307.314C319.911 250.952 330.153 240.71 330.153 228.113V111.291C330.153 98.6943 319.911 88.4528 307.314 88.4528H124.81C112.213 88.4528 101.971 98.6943 101.971 111.291H101.954ZM105.471 185.286L119.979 172.826L154.135 143.535C159.461 138.961 167.073 139.114 172.245 143.877L235.316 201.895C239.123 205.411 244.824 205.599 248.852 202.339L275.839 180.388C278.723 178.049 282.649 178.152 285.414 180.609L326.619 217.308V228.113C326.619 238.781 317.948 247.435 307.297 247.435H124.81C114.159 247.435 105.488 238.764 105.488 228.113V185.286H105.471ZM105.471 111.291C105.471 100.623 114.159 91.969 124.793 91.969H307.314C317.982 91.969 326.636 100.64 326.636 111.291V212.597L287.77 177.998C283.759 174.413 277.801 174.277 273.637 177.657L246.65 199.608C243.97 201.792 240.266 201.673 237.706 199.317L174.635 141.299C168.132 135.308 158.556 135.137 151.865 140.872L119.758 168.405L105.471 180.661V111.291Z" fill="#C8D3D9"/>
<path d="M105.471 111.291V180.661L119.758 168.405L151.865 140.872C158.556 135.12 168.132 135.308 174.635 141.299L237.706 199.317C240.266 201.69 243.97 201.792 246.65 199.607L273.637 177.656C277.802 174.26 283.759 174.413 287.77 177.998L326.637 212.597V111.291C326.637 100.623 317.965 91.969 307.314 91.969H124.81C114.159 91.969 105.488 100.64 105.488 111.291H105.471ZM241.052 133.533C241.052 121.55 250.798 111.82 262.764 111.82C274.746 111.82 284.476 121.55 284.476 133.533C284.476 145.515 274.746 155.245 262.764 155.245C250.781 155.245 241.052 145.498 241.052 133.533Z" fill="url(#paint1_linear_4112_383327)"/>
<path d="M105.471 185.303V228.13C105.471 238.798 114.159 247.452 124.793 247.452H307.314C317.982 247.452 326.637 238.781 326.637 228.13V217.325L285.431 180.626C282.666 178.168 278.74 178.066 275.856 180.405L248.869 202.356C244.841 205.616 239.157 205.428 235.333 201.912L172.263 143.894C167.074 139.131 159.478 138.995 154.152 143.552L105.471 185.303Z" fill="white"/>
<path d="M241.051 133.549C241.051 145.515 250.798 155.261 262.764 155.261C268.089 155.261 272.954 153.35 276.726 150.141C281.471 146.164 284.476 140.189 284.476 133.532C284.476 121.55 274.746 111.82 262.764 111.82C258.735 111.82 254.98 112.913 251.737 114.842C245.336 118.614 241.034 125.578 241.034 133.532L241.051 133.549Z" fill="#F4F7FB" stroke="#C8D3D9" stroke-width="2" stroke-miterlimit="10"/>
<path opacity="0.3" d="M284.493 133.549C284.493 145.515 274.746 155.261 262.781 155.261C257.455 155.261 252.59 153.35 248.818 150.141C258.906 151.609 268.96 147.41 273.859 139.49C278.211 132.423 278.177 122.898 273.807 114.842C280.208 118.614 284.51 125.578 284.51 133.532L284.493 133.549Z" fill="#C8D3D9"/>
<path opacity="0.3" d="M330.17 111.291V228.113C330.17 240.71 319.928 250.952 307.331 250.952H211.283C214.133 248.921 218.605 247.999 224.153 247.435C242.161 245.575 271.383 247.401 292.276 226.85C303.508 215.806 308.629 201.963 308.885 201.28C309.926 198.396 310.916 194.913 312.162 172.809C312.23 171.409 312.315 169.941 312.384 168.388C312.435 167.261 312.503 166.084 312.554 164.855C313.049 154.374 313.084 144.201 313.152 123.871C313.186 111.633 313.101 107.946 311.052 102.945C309.089 98.131 306.358 94.6318 303.781 91.9519C302.501 90.6035 301.255 89.4598 300.128 88.4357H307.331C319.928 88.4357 330.17 98.6772 330.17 111.274V111.291Z" fill="#C8D3D9" fill-opacity="0.69"/>
<path d="M109.055 237.023C135.828 237.023 157.532 215.32 157.532 188.547C157.532 161.774 135.828 140.07 109.055 140.07C82.2826 140.07 60.5789 161.774 60.5789 188.547C60.5789 215.32 82.2826 237.023 109.055 237.023Z" fill="url(#paint2_linear_4112_383327)" stroke="#C8D3D9" stroke-width="2" stroke-miterlimit="10"/>
<path opacity="0.3" d="M157.003 188.546C157.003 215.328 135.291 237.04 108.509 237.04C90.1255 237.04 74.1317 226.799 65.9043 211.726C69.3181 214.253 73.6879 216.933 79.2354 219.135C84.3049 221.115 99.8208 227.208 116.805 221.132C132.184 215.618 144.286 201.758 147.581 186.771C150.26 174.516 146.71 163.028 142.801 154.271C151.558 163.045 157.003 175.181 157.003 188.564V188.546Z" fill="#C8D3D9"/>
<path d="M155.483 132.952C153.401 135.035 150.653 136.093 147.922 136.093C145.191 136.093 142.443 135.052 140.36 132.952L121.925 114.517L119.723 112.316V193.599C119.723 199.505 114.944 204.284 109.038 204.284C103.132 204.284 98.3528 199.488 98.3528 193.599V112.316L77.7332 132.952C75.6507 135.035 72.9026 136.093 70.1715 136.093C67.4404 136.093 64.6923 135.052 62.6099 132.952C58.4279 128.77 58.4279 122.011 62.6099 117.829L101.476 78.9452C101.647 78.7745 101.818 78.6038 102.006 78.4502C102.091 78.3819 102.193 78.2795 102.296 78.2112C102.552 77.9893 102.791 77.8016 103.064 77.6309C103.132 77.5967 103.183 77.5455 103.252 77.5114C103.474 77.3748 103.678 77.2553 103.9 77.1359C104.003 77.0676 104.105 77.0164 104.208 76.9652C104.429 76.8457 104.634 76.7433 104.856 76.6579C104.856 76.6579 104.856 76.6579 104.873 76.6579C104.993 76.6067 105.112 76.5555 105.232 76.5214C105.266 76.5214 105.3 76.5043 105.334 76.4872C105.556 76.419 105.744 76.3336 105.966 76.2653C106.307 76.1629 106.631 76.0946 106.973 76.0264C107.314 75.9581 107.656 75.9069 107.997 75.8727C108.338 75.8386 108.68 75.8215 109.021 75.8215C109.362 75.8215 109.704 75.8215 110.045 75.8727C110.387 75.8898 110.728 75.941 111.069 76.0264C111.411 76.0946 111.735 76.1629 112.076 76.2653C112.298 76.3336 112.486 76.4019 112.708 76.4872C112.742 76.4872 112.776 76.5043 112.81 76.5214C112.93 76.5555 113.049 76.6067 113.169 76.6579C113.169 76.6579 113.169 76.6579 113.186 76.6579C113.408 76.7433 113.63 76.8457 113.835 76.9652C113.954 77.0164 114.056 77.0847 114.142 77.1359C114.364 77.2553 114.586 77.3748 114.79 77.5114C114.859 77.5455 114.91 77.5967 114.978 77.6309C115.234 77.8016 115.49 77.9893 115.746 78.2112C116.037 78.4331 116.293 78.6721 116.566 78.9452L155.449 117.829C159.631 122.011 159.631 128.77 155.449 132.952H155.483Z" fill="#C8D3D9"/>
<path opacity="0.15" d="M118.358 115.473C118.768 114.347 119.246 113.289 119.723 112.333V193.616C119.723 199.522 114.944 204.302 109.038 204.302C103.132 204.302 98.3528 199.505 98.3528 193.616V185.85C99.3599 189.434 100.486 191.943 102.996 193.377C106.512 195.391 112.486 195.17 115.046 191.687C116.054 190.305 116.293 188.769 116.327 187.744C116.31 184.143 116.293 180.524 116.275 176.906C116.207 160.297 116.258 143.757 116.378 127.354C116.31 124.145 116.685 119.963 118.358 115.473Z" fill="#8798A1"/>
<path opacity="0.15" d="M155.483 132.952C153.401 135.035 150.653 136.093 147.922 136.093C145.191 136.093 142.443 135.052 140.36 132.952L121.925 114.517C124.895 116.651 131.706 121.567 136.707 119.689C138.909 118.87 141.282 116.549 141.794 113.647C142.818 107.741 134.71 100.862 118.46 87.1043C117.607 86.3703 117.027 85.8924 116.002 84.9877C112.845 82.2225 112.332 81.4885 110.967 80.5668C110.694 80.362 108.236 78.7233 105.351 78.3478C104.173 78.1771 103.047 78.2625 102.006 78.4673C102.091 78.399 102.193 78.2966 102.296 78.2283C102.552 78.0064 102.791 77.8187 103.064 77.648C103.132 77.6138 103.183 77.5626 103.252 77.5285C103.474 77.3919 103.678 77.2724 103.9 77.153C104.003 77.0847 104.105 77.0335 104.208 76.9823C104.429 76.8628 104.634 76.7604 104.856 76.675C104.856 76.675 104.856 76.675 104.873 76.675C104.993 76.6238 105.112 76.5726 105.232 76.5385C105.266 76.5385 105.3 76.5214 105.334 76.5043C105.556 76.436 105.744 76.3507 105.966 76.2824C106.307 76.18 106.631 76.1117 106.973 76.0435C107.314 75.9752 107.656 75.924 107.997 75.8898C108.338 75.8557 108.68 75.8386 109.021 75.8386C109.362 75.8386 109.704 75.8386 110.045 75.8898C110.387 75.9069 110.728 75.9581 111.069 76.0435C111.411 76.1117 111.735 76.18 112.076 76.2824C112.298 76.3507 112.486 76.419 112.708 76.5043C112.742 76.5043 112.776 76.5214 112.81 76.5385C112.93 76.5726 113.049 76.6238 113.169 76.675C113.169 76.675 113.169 76.675 113.186 76.675C113.408 76.7604 113.63 76.8628 113.835 76.9823C113.954 77.0335 114.056 77.1017 114.142 77.153C114.364 77.2724 114.586 77.3919 114.79 77.5285C114.859 77.5626 114.91 77.6138 114.978 77.648C115.234 77.8187 115.49 78.0064 115.746 78.2283C116.037 78.4502 116.293 78.6892 116.566 78.9623L155.449 117.846C159.631 122.028 159.631 128.787 155.449 132.969L155.483 132.952Z" fill="#8798A1"/>
<path opacity="0.5" d="M22.5826 118.443C35.0546 118.443 45.1651 108.333 45.1651 95.8608C45.1651 83.3888 35.0546 73.2782 22.5826 73.2782C10.1106 73.2782 0 83.3888 0 95.8608C0 108.333 10.1106 118.443 22.5826 118.443Z" fill="url(#paint3_linear_4112_383327)"/>
<path opacity="0.5" d="M365.179 191.517C372.363 191.517 378.186 185.693 378.186 178.51C378.186 171.326 372.363 165.503 365.179 165.503C357.996 165.503 352.172 171.326 352.172 178.51C352.172 185.693 357.996 191.517 365.179 191.517Z" fill="url(#paint4_linear_4112_383327)"/>
<path opacity="0.5" d="M270.718 45.3699C277.901 45.3699 283.724 39.5466 283.724 32.3632C283.724 25.1798 277.901 19.3564 270.718 19.3564C263.534 19.3564 257.711 25.1798 257.711 32.3632C257.711 39.5466 263.534 45.3699 270.718 45.3699Z" fill="url(#paint5_linear_4112_383327)"/>
<path d="M146.556 49.0056C146.112 49.0056 145.686 48.8349 145.344 48.5106C144.679 47.8449 144.679 46.7695 145.344 46.1038L154.374 37.0742C155.04 36.4085 156.115 36.4085 156.781 37.0742C157.446 37.7399 157.446 38.8153 156.781 39.481L147.751 48.5106C147.41 48.852 146.983 49.0056 146.539 49.0056H146.556Z" fill="url(#paint6_linear_4112_383327)"/>
<path d="M157.907 49.0057C157.463 49.0057 157.037 48.835 156.695 48.5107C156.03 47.845 156.03 46.7697 156.695 46.104L165.725 37.0743C166.391 36.4086 167.466 36.4086 168.132 37.0743C168.797 37.74 168.797 38.8154 168.132 39.4811L159.102 48.5107C158.761 48.8521 158.334 49.0057 157.89 49.0057H157.907Z" fill="url(#paint7_linear_4112_383327)"/>
<path d="M169.241 49.0057C168.797 49.0057 168.371 48.835 168.029 48.5107C167.364 47.845 167.364 46.7697 168.029 46.104L177.059 37.0743C177.725 36.4086 178.8 36.4086 179.466 37.0743C180.131 37.74 180.131 38.8154 179.466 39.4811L170.436 48.5107C170.095 48.8521 169.668 49.0057 169.224 49.0057H169.241Z" fill="url(#paint8_linear_4112_383327)"/>
<path d="M338.756 250.969H70.1544C69.1985 250.969 68.4133 250.201 68.4133 249.262C68.4133 248.323 69.1985 247.555 70.1544 247.555H338.756C339.712 247.555 340.497 248.323 340.497 249.262C340.497 250.201 339.712 250.969 338.756 250.969Z" fill="#C8D3D9"/>
<path d="M260.75 264.453H272.561" stroke="#C8D3D9" stroke-width="2" stroke-linecap="round" stroke-linejoin="round"/>
<defs>
<linearGradient id="paint0_linear_4112_383327" x1="199.01" y1="-54.7239" x2="218.622" y2="880.089" gradientUnits="userSpaceOnUse">
<stop stop-color="white"/>
<stop offset="1" stop-color="#9BD5FF"/>
</linearGradient>
<linearGradient id="paint1_linear_4112_383327" x1="221.456" y1="24.2554" x2="207.988" y2="367.944" gradientUnits="userSpaceOnUse">
<stop stop-color="white"/>
<stop offset="1" stop-color="#C3E6FF"/>
</linearGradient>
<linearGradient id="paint2_linear_4112_383327" x1="92.8738" y1="126.159" x2="192.763" y2="511.377" gradientUnits="userSpaceOnUse">
<stop stop-color="white"/>
<stop offset="1" stop-color="#C3E6FF"/>
</linearGradient>
<linearGradient id="paint3_linear_4112_383327" x1="22.2241" y1="58.1719" x2="22.8386" y2="122.625" gradientUnits="userSpaceOnUse">
<stop stop-color="white"/>
<stop offset="1" stop-color="#9BD5FF"/>
</linearGradient>
<linearGradient id="paint4_linear_4112_383327" x1="364.974" y1="156.798" x2="365.316" y2="193.923" gradientUnits="userSpaceOnUse">
<stop stop-color="white"/>
<stop offset="1" stop-color="#9BD5FF"/>
</linearGradient>
<linearGradient id="paint5_linear_4112_383327" x1="270.513" y1="10.6511" x2="270.871" y2="47.7938" gradientUnits="userSpaceOnUse">
<stop stop-color="white"/>
<stop offset="1" stop-color="#9BD5FF"/>
</linearGradient>
<linearGradient id="paint6_linear_4112_383327" x1="84.7315" y1="67.9866" x2="268.345" y2="-1.74113" gradientUnits="userSpaceOnUse">
<stop stop-color="white"/>
<stop offset="1" stop-color="#9BD5FF"/>
</linearGradient>
<linearGradient id="paint7_linear_4112_383327" x1="86.1483" y1="71.7419" x2="269.779" y2="2.01421" gradientUnits="userSpaceOnUse">
<stop stop-color="white"/>
<stop offset="1" stop-color="#9BD5FF"/>
</linearGradient>
<linearGradient id="paint8_linear_4112_383327" x1="87.5821" y1="75.5142" x2="271.213" y2="5.78651" gradientUnits="userSpaceOnUse">
<stop stop-color="white"/>
<stop offset="1" stop-color="#9BD5FF"/>
</linearGradient>
</defs>
</svg>
