<svg width="231" height="178" viewBox="0 0 231 178" fill="none" xmlns="http://www.w3.org/2000/svg">
<path d="M194.316 159.403C194.685 162.551 191.914 165.785 188.114 168.676H35.8532C34.3435 168.118 32.7137 167.5 31.0066 166.848C8.11178 158.125 5.80429 155.44 4.55189 153.389C0.468737 146.716 1.25792 136.525 5.82144 129.946C12.581 120.201 23.2092 124.679 30.5348 115.689C37.4745 107.162 30.6635 99.442 34.9611 83.6841C35.6902 81.0164 41.8321 59.3139 61.2614 49.7922C74.7376 43.1871 88.1193 45.6319 91.6706 46.3267C118.34 51.5679 119.489 74.214 141.801 75.5264C152.232 76.1354 158.708 71.5891 176.173 74.2569C184.622 75.5521 188.277 77.405 189.872 78.2971C198.776 83.281 206.316 93.343 207.14 104.906C208.066 117.911 200.157 128.213 198.107 130.881C191.639 139.313 184.648 141.783 185.437 146.724C186.261 151.854 193.621 153.595 194.307 159.385L194.316 159.403Z" fill="url(#paint0_linear_1939_185541)"/>
<path d="M184.286 71.8889C198.963 71.8889 210.861 59.9909 210.861 45.3141C210.861 30.6372 198.963 18.7393 184.286 18.7393C169.609 18.7393 157.711 30.6372 157.711 45.3141C157.711 59.9909 169.609 71.8889 184.286 71.8889Z" fill="url(#paint1_linear_1939_185541)" stroke="#C8D3D9" stroke-width="2" stroke-miterlimit="10"/>
<path d="M217.277 65.3613C221.455 65.4643 224.268 67.8404 224.286 69.9592C224.311 72.2667 221.026 74.6514 220.125 74.1195C219.516 73.7592 219.636 71.8463 220.563 70.8341C222.707 68.5009 229.578 70.4996 229.981 73.0215C230.05 73.459 230.059 74.7629 227.134 76.7444" stroke="url(#paint2_linear_1939_185541)" stroke-width="2" stroke-linecap="round" stroke-linejoin="round"/>
<path d="M208.066 17.8647C209.044 13.7643 211.978 11.4997 214.071 11.9201C216.353 12.3833 218.017 16.1233 217.296 16.8953C216.816 17.4186 214.955 16.8953 214.148 15.7716C212.295 13.1725 215.709 6.81611 218.283 6.95336C218.729 6.97909 220.016 7.24501 221.354 10.539" stroke="url(#paint3_linear_1939_185541)" stroke-width="2" stroke-linecap="round" stroke-linejoin="round"/>
<path d="M215.828 32.7474C217.467 30.9375 220.186 31.109 221.378 32.6016C222.193 33.6224 219.946 35.4238 220.649 37.5683C221.224 39.3096 223.523 40.8194 225.178 40.1932C225.95 39.9015 226.396 39.2153 226.636 38.7349" stroke="url(#paint4_linear_1939_185541)" stroke-width="2" stroke-linecap="round" stroke-linejoin="round"/>
<path d="M168.153 14.7163C171.095 12.5804 171.576 11.5081 171.361 10.9162C170.967 9.81824 168.025 10.1013 167.853 9.16631C167.699 8.28277 170.212 7.44212 170.04 6.68725C169.834 5.74367 165.768 6.07821 165.657 5.37481C165.563 4.75719 168.676 4.20819 168.719 3.1874C168.754 2.4068 166.978 1.65193 164.773 1" stroke="url(#paint5_linear_1939_185541)" stroke-width="2" stroke-linecap="round" stroke-linejoin="round"/>
<path d="M134.32 39.0351C135.967 42.2776 136.954 42.9209 137.571 42.8008C138.721 42.5864 138.901 39.6355 139.853 39.6098C140.745 39.5926 141.191 42.2089 141.963 42.1575C142.924 42.106 143.233 38.0314 143.945 38.04C144.571 38.04 144.623 41.2053 145.626 41.4112C146.39 41.5656 147.419 39.9358 148.405 37.8599" stroke="url(#paint6_linear_1939_185541)" stroke-width="2" stroke-linecap="round" stroke-linejoin="round"/>
<path d="M171.516 46.1037L180.137 54.7332L197.061 35.8872" stroke="#9BD5FF" stroke-width="6" stroke-linecap="round" stroke-linejoin="round"/>
<path d="M170.743 27.7034C170.477 27.6862 168.633 27.5661 167.183 29.0073C165.734 30.4569 165.845 32.3098 165.871 32.5757C165.897 32.3184 166.025 30.4655 164.576 29.0073C163.134 27.5576 161.282 27.6777 161.016 27.7034C161.273 27.7291 163.126 27.8492 164.576 26.3995C166.025 24.9498 165.897 23.0884 165.871 22.8311C165.854 23.097 165.734 24.9498 167.183 26.3995C168.633 27.8406 170.477 27.7291 170.743 27.7034Z" fill="#C8D3D9" stroke="#C8D3D9" stroke-width="0.5" stroke-linecap="round" stroke-linejoin="round"/>
<path opacity="0.5" d="M161.042 158.236C164.543 158.236 167.382 155.398 167.382 151.897C167.382 148.396 164.543 145.558 161.042 145.558C157.541 145.558 154.703 148.396 154.703 151.897C154.703 155.398 157.541 158.236 161.042 158.236Z" fill="url(#paint7_linear_1939_185541)"/>
<path opacity="0.5" d="M19.2025 104.177C22.7035 104.177 25.5417 101.339 25.5417 97.8377C25.5417 94.3367 22.7035 91.4985 19.2025 91.4985C15.7014 91.4985 12.8633 94.3367 12.8633 97.8377C12.8633 101.339 15.7014 104.177 19.2025 104.177Z" fill="url(#paint8_linear_1939_185541)"/>
<path opacity="0.5" d="M183.396 116.1C189.18 116.1 193.869 111.411 193.869 105.627C193.869 99.8421 189.18 95.1528 183.396 95.1528C177.611 95.1528 172.922 99.8421 172.922 105.627C172.922 111.411 177.611 116.1 183.396 116.1Z" fill="url(#paint9_linear_1939_185541)"/>
<path opacity="0.5" d="M105.679 40.0905C109.18 40.0905 112.018 37.2523 112.018 33.7513C112.018 30.2503 109.18 27.4121 105.679 27.4121C102.178 27.4121 99.3398 30.2503 99.3398 33.7513C99.3398 37.2523 102.178 40.0905 105.679 40.0905Z" fill="url(#paint10_linear_1939_185541)"/>
<g opacity="0.5">
<path opacity="0.5" d="M121.418 143.232H128.984" stroke="#9BD5FF" stroke-width="3" stroke-linecap="round" stroke-linejoin="round"/>
<path opacity="0.5" d="M137.332 143.232H145.035" stroke="#9BD5FF" stroke-width="3" stroke-linecap="round" stroke-linejoin="round"/>
<path opacity="0.5" d="M133.324 154.47V147.041" stroke="#9BD5FF" stroke-width="3" stroke-linecap="round" stroke-linejoin="round"/>
<path opacity="0.5" d="M133.324 139.578V131.326" stroke="#9BD5FF" stroke-width="3" stroke-linecap="round" stroke-linejoin="round"/>
</g>
<g opacity="0.5">
<path opacity="0.5" d="M71.2617 67.6943H76.6402" stroke="#9BD5FF" stroke-width="3" stroke-linecap="round" stroke-linejoin="round"/>
<path opacity="0.5" d="M82.5781 67.6943H88.0509" stroke="#9BD5FF" stroke-width="3" stroke-linecap="round" stroke-linejoin="round"/>
<path opacity="0.5" d="M79.7266 75.6806V70.3965" stroke="#9BD5FF" stroke-width="3" stroke-linecap="round" stroke-linejoin="round"/>
<path opacity="0.5" d="M79.7266 65.0954V59.228" stroke="#9BD5FF" stroke-width="3" stroke-linecap="round" stroke-linejoin="round"/>
</g>
<path d="M138.337 113.647C153.013 113.647 164.911 101.749 164.911 87.0724C164.911 72.3955 153.013 60.4976 138.337 60.4976C123.66 60.4976 111.762 72.3955 111.762 87.0724C111.762 101.749 123.66 113.647 138.337 113.647Z" fill="url(#paint11_linear_1939_185541)" stroke="#C8D3D9" stroke-width="2" stroke-miterlimit="10"/>
<path d="M151.823 76.3926C151.531 75.7664 151.197 75.1745 150.828 74.6084C148.1 70.3965 143.468 67.8574 138.338 67.8574C132.514 67.8574 127.35 71.1257 124.854 76.3926C122.366 81.6509 123.104 87.7242 126.792 92.2277L133.637 100.6L137.12 104.855C137.42 105.215 137.866 105.429 138.338 105.429C138.81 105.429 139.256 105.215 139.556 104.855L149.884 92.2277C153.573 87.7242 154.319 81.6509 151.823 76.3926Z" fill="white" stroke="#C8D3D9" stroke-width="2" stroke-miterlimit="10"/>
<path d="M138.337 92.0817C143.586 92.0817 147.841 87.8264 147.841 82.5772C147.841 77.3281 143.586 73.0728 138.337 73.0728C133.087 73.0728 128.832 77.3281 128.832 82.5772C128.832 87.8264 133.087 92.0817 138.337 92.0817Z" fill="url(#paint12_linear_1939_185541)" stroke="#C8D3D9" stroke-width="2" stroke-miterlimit="10"/>
<path d="M138.339 85.0992C137.807 85.0992 137.447 84.8419 137.43 84.6532L136.632 78.1424C136.563 77.5763 136.735 77.0101 137.095 76.5984C137.421 76.2295 137.859 76.0322 138.339 76.0322C138.819 76.0322 139.257 76.2295 139.583 76.5984C139.952 77.0101 140.115 77.5763 140.046 78.1424L139.248 84.6532C139.223 84.8333 138.862 85.0907 138.339 85.0907V85.0992Z" fill="#C8D3D9"/>
<path d="M138.338 76.4696C138.792 76.4696 139.093 76.7012 139.256 76.89C139.539 77.2159 139.676 77.6534 139.616 78.0995L138.827 84.5416C138.758 84.593 138.586 84.6788 138.338 84.6788C138.089 84.6788 137.909 84.593 137.849 84.5416L137.06 78.0995C137.008 77.6534 137.137 77.2159 137.42 76.89C137.591 76.7012 137.892 76.4696 138.338 76.4696ZM138.338 75.6118C136.991 75.6118 136.039 76.8642 136.202 78.2024L137 84.7131C137.06 85.1764 137.651 85.5281 138.338 85.5281C139.024 85.5281 139.616 85.1764 139.676 84.7131L140.474 78.2024C140.637 76.8642 139.684 75.6118 138.338 75.6118Z" fill="#C8D3D9"/>
<path d="M138.337 88.5045C137.891 88.5045 137.539 88.1442 137.539 87.6982C137.539 87.2521 137.899 86.9004 138.337 86.9004C138.774 86.9004 139.135 87.2607 139.135 87.6982C139.135 88.1356 138.774 88.5045 138.337 88.5045Z" fill="#C8D3D9"/>
<path d="M138.336 87.3295C138.542 87.3295 138.713 87.501 138.713 87.7069C138.713 87.9128 138.542 88.0844 138.336 88.0844C138.13 88.0844 137.967 87.9128 137.967 87.7069C137.967 87.501 138.139 87.3295 138.336 87.3295ZM138.336 86.4717C137.658 86.4717 137.109 87.0207 137.109 87.7069C137.109 88.3932 137.658 88.9422 138.336 88.9422C139.014 88.9422 139.571 88.3932 139.571 87.7069C139.571 87.0207 139.022 86.4717 138.336 86.4717Z" fill="#C8D3D9"/>
<path opacity="0.3" d="M144.694 91.9705C140.362 94.9042 134.34 93.8576 131.277 90.1004C129.819 88.3162 129.33 86.2918 129.219 84.6362C130.214 88.8223 133.98 91.9362 138.466 91.9362C143.716 91.9362 147.979 87.6814 147.979 82.4231C147.979 77.1647 143.724 72.91 138.466 72.91C138.046 72.91 137.625 72.9358 137.222 72.9958C137.574 72.91 137.934 72.85 138.303 72.8157C141.931 72.4382 145.431 74.2739 147.353 77.0961C150.398 81.5653 149.583 88.6508 144.694 91.9705Z" fill="#C8D3D9"/>
<path opacity="0.3" d="M149.884 92.2275L139.556 104.854C139.255 105.215 138.818 105.429 138.338 105.429C137.857 105.429 137.42 105.215 137.119 104.854L133.637 100.6C134.546 100.703 135.695 100.737 136.991 100.514C141.563 99.7505 144.342 96.4737 146.238 94.2434C147.576 92.665 150.673 88.9335 151.513 83.4436C152.062 79.8837 151.471 76.8127 150.819 74.5996C151.187 75.1658 151.522 75.7576 151.814 76.3838C154.31 81.6508 153.564 87.7155 149.875 92.2189L149.884 92.2275Z" fill="#C8D3D9"/>
<path opacity="0.3" d="M165.452 87.0724C165.452 101.749 153.554 113.647 138.877 113.647C128.798 113.647 120.031 108.037 115.527 99.7765C117.397 101.158 119.791 102.633 122.836 103.834C125.615 104.923 134.116 108.26 143.423 104.932C151.855 101.912 158.486 94.3122 160.288 86.0945C161.755 79.3778 159.807 73.0815 157.671 68.2778C162.475 73.0901 165.452 79.7381 165.452 87.0724Z" fill="#C8D3D9"/>
<path opacity="0.3" d="M210.561 45.3058C210.561 59.9828 198.663 71.8806 183.986 71.8806C173.907 71.8806 165.14 66.2705 160.637 58.0099C162.507 59.3909 164.9 60.8663 167.945 62.0673C170.725 63.1567 179.225 66.4936 188.533 63.1653C196.965 60.1458 203.596 52.5456 205.397 44.3279C206.864 37.6112 204.917 31.3149 202.781 26.5112C207.584 31.3235 210.561 37.9715 210.561 45.3058Z" fill="#C8D3D9"/>
<path d="M54.1496 142.452C54.1496 157.129 42.2519 169.027 27.5748 169.027C17.4956 169.027 8.72883 163.417 4.22535 155.156H4.21677C2.16662 151.373 1 147.05 1 142.452C1 127.775 12.8978 115.877 27.5748 115.877C34.9091 115.877 41.5485 118.854 46.3608 123.649C46.3608 123.649 46.3608 123.658 46.3693 123.658C51.1731 128.47 54.1496 135.118 54.1496 142.452Z" fill="url(#paint13_linear_1939_185541)" stroke="#C8D3D9" stroke-width="2" stroke-miterlimit="10"/>
<path opacity="0.3" d="M54.1509 142.452C54.1509 157.129 42.2531 169.027 27.576 169.027C17.4968 169.027 8.73004 163.417 4.22656 155.156C6.09658 156.537 8.48986 158.013 11.5351 159.214C14.3144 160.303 22.8152 163.64 32.1224 160.312C40.5546 157.292 47.1855 149.692 48.9869 141.474C50.4537 134.758 48.5065 128.461 46.3706 123.658C51.1743 128.47 54.1509 135.118 54.1509 142.452Z" fill="#C8D3D9"/>
<path d="M27.5758 140.754C23.5012 140.754 20.0442 137.709 19.5296 133.677C19.4867 133.334 19.4609 132.991 19.4609 132.639C19.4609 128.162 23.098 124.524 27.5758 124.524C27.7731 124.524 27.9789 124.524 28.1762 124.55C32.3881 124.859 35.6906 128.41 35.6906 132.639C35.6906 137.117 32.0535 140.754 27.5758 140.754Z" fill="white"/>
<path d="M27.5742 125.382C27.7543 125.382 27.9345 125.382 28.1146 125.399C31.8804 125.674 34.8312 128.856 34.8312 132.639C34.8312 136.637 31.5716 139.896 27.5742 139.896C23.9285 139.896 20.8404 137.177 20.3772 133.54C20.3343 133.248 20.3172 132.948 20.3172 132.639C20.3172 128.642 23.5768 125.382 27.5742 125.382ZM27.5742 123.667C22.6161 123.667 18.6016 127.681 18.6016 132.639C18.6016 133.025 18.6273 133.411 18.6788 133.78C19.2363 138.198 23.0021 141.612 27.5742 141.612C32.5323 141.612 36.5469 137.597 36.5469 132.639C36.5469 127.681 32.8926 124.035 28.2433 123.692C28.0203 123.675 27.7972 123.667 27.5742 123.667Z" fill="#C8D3D9"/>
<path d="M21.4179 158.039C19.8138 158.039 18.3127 157.413 17.1804 156.28C16.0481 155.148 15.4219 153.647 15.4219 152.051C15.4219 151.545 15.4648 151.082 15.542 150.636C16.2282 146.759 19.5822 143.954 23.5196 143.954H31.6344C32.192 143.954 32.7324 144.005 33.2385 144.117C34.7997 144.425 36.2237 145.189 37.356 146.33C38.8829 147.865 39.7321 149.898 39.7321 152.051C39.7321 155.354 37.0386 158.039 33.736 158.039H21.4179Z" fill="white"/>
<path d="M31.6328 144.811C32.1304 144.811 32.6107 144.863 33.0825 144.957C34.4722 145.232 35.7331 145.918 36.7539 146.93C38.1264 148.303 38.8727 150.113 38.8727 152.051C38.8727 154.882 36.5652 157.181 33.7345 157.181H21.4164C20.0439 157.181 18.7572 156.649 17.7793 155.68C16.81 154.71 16.2781 153.424 16.2781 152.051C16.2781 151.605 16.3124 151.185 16.3896 150.782C17.0072 147.325 20.001 144.811 23.518 144.811H31.6328ZM31.6328 143.096H23.518C19.1089 143.096 15.446 146.278 14.6997 150.481C14.6054 150.988 14.5625 151.511 14.5625 152.051C14.5625 153.947 15.3345 155.654 16.5698 156.889C17.805 158.124 19.5206 158.896 21.4164 158.896H33.7345C37.5174 158.896 40.5883 155.834 40.5883 152.051C40.5883 149.572 39.5847 147.342 37.9634 145.721C36.7454 144.503 35.1756 143.628 33.4171 143.276C32.8423 143.156 32.2419 143.096 31.6328 143.096Z" fill="#C8D3D9"/>
<path opacity="0.3" d="M36.5478 132.639C36.5478 137.597 32.5332 141.611 27.5751 141.611C23.003 141.611 19.2373 138.197 18.6797 133.78C19.9921 136.087 23.9123 138.223 27.7038 136.859C31.2551 135.581 33.2281 131.747 32.6877 128.976C32.1815 126.403 29.5309 124.85 28.2442 123.692C32.8935 124.035 36.5478 127.904 36.5478 132.639Z" fill="#C8D3D9"/>
<path opacity="0.3" d="M40.5883 152.051C40.5883 155.834 37.5174 158.897 33.7345 158.897H21.4164C19.5206 158.897 17.8136 158.133 16.5698 156.889C15.3259 155.645 14.5625 153.947 14.5625 152.051C14.5625 151.511 14.6054 150.988 14.6997 150.481C15.446 151.588 16.9729 153.501 19.5464 154.599C20.9103 155.182 22.6173 155.234 26.0399 155.328C26.0399 155.328 31.6843 155.491 34.1462 153.981C34.395 153.827 35.004 153.458 35.4501 152.729C35.4501 152.729 35.7846 152.06 35.9733 151.151C36.7454 147.385 34.1376 144.125 33.4171 143.276C35.1756 143.628 36.7454 144.503 37.9634 145.721C39.5847 147.342 40.5883 149.572 40.5883 152.051Z" fill="#C8D3D9"/>
<path d="M109.529 117.859C109.529 132.536 97.6308 144.434 82.9537 144.434C72.8745 144.434 64.1077 138.824 59.6043 130.563H59.5957C57.5455 126.78 56.3789 122.457 56.3789 117.859C56.3789 103.182 68.2767 91.2842 82.9537 91.2842C90.288 91.2842 96.9274 94.2608 101.74 99.0559C101.74 99.0559 101.74 99.0645 101.748 99.0645C106.552 103.877 109.529 110.525 109.529 117.859Z" fill="url(#paint14_linear_1939_185541)" stroke="#C8D3D9" stroke-width="2" stroke-miterlimit="10"/>
<path d="M85.4913 106.725C85.4913 108.252 84.2218 109.581 82.6949 109.581C81.391 109.581 80.1987 108.535 79.9499 107.231C79.9156 107.068 79.8984 106.896 79.8984 106.725C79.8984 105.129 81.168 103.86 82.7549 103.86C83.0208 103.86 83.2782 103.903 83.527 103.98C84.6678 104.314 85.4913 105.412 85.4913 106.725Z" fill="white" stroke="#C8D3D9" stroke-width="2" stroke-miterlimit="10"/>
<path d="M87.98 128.745V129.826C87.98 130.272 87.594 130.589 87.148 130.589H78.75C78.304 130.589 77.918 130.272 77.918 129.826V128.745C77.918 128.702 77.918 128.668 77.9265 128.625C77.978 128.239 78.2868 127.973 78.69 127.922C79.9595 127.836 80.5943 127.092 80.5943 125.691V117.859C80.5943 116.63 80.0225 115.929 78.8787 115.758C78.4927 115.698 78.1753 115.312 78.1753 114.934V114.042C78.1753 113.656 78.4927 113.339 78.8787 113.279C80.8517 112.893 82.5673 112.447 84.0942 111.752C84.3515 111.683 84.6603 111.683 84.849 111.872C85.1064 112.001 85.2351 112.258 85.2351 112.515V125.691C85.2351 127.047 85.8927 127.79 87.208 127.922C87.6541 127.982 87.9715 128.299 87.9715 128.745H87.98Z" fill="white" stroke="#C8D3D9" stroke-width="2" stroke-miterlimit="10"/>
<path opacity="0.3" d="M109.53 117.859C109.53 132.536 97.632 144.434 82.9549 144.434C72.8757 144.434 64.1089 138.824 59.6055 130.563C61.4755 131.944 63.8688 133.42 66.914 134.62C69.6933 135.71 78.1941 139.047 87.5013 135.718C95.9335 132.699 102.564 125.099 104.366 116.881C105.833 110.164 103.885 103.868 101.749 99.0645C106.553 103.877 109.53 110.525 109.53 117.859Z" fill="#C8D3D9"/>
<path opacity="0.3" d="M85.4945 106.724C85.4945 108.251 84.225 109.581 82.6981 109.581C81.3942 109.581 80.2019 108.534 79.9531 107.231C80.8024 107.677 81.7374 108.02 82.5265 107.625C83.2385 107.273 83.5388 106.476 83.6245 106.261C83.9505 105.395 83.7532 104.614 83.5302 103.979C84.6711 104.314 85.4945 105.412 85.4945 106.724Z" fill="#C8D3D9"/>
<path opacity="0.3" d="M87.98 128.745V129.825C87.98 130.272 87.594 130.589 87.148 130.589H78.75C78.304 130.589 77.918 130.272 77.918 129.825V128.745C77.918 128.702 77.918 128.667 77.9265 128.625C79.7365 128.719 81.5465 128.359 82.5244 127.449C83.4766 126.566 83.4337 123.941 83.3479 118.691C83.305 116.186 83.1763 114.316 84.3858 112.498C84.4802 112.352 84.6432 112.12 84.849 111.872C85.1064 112 85.2351 112.258 85.2351 112.515V125.691C85.2351 127.046 85.8927 127.79 87.208 127.921C87.6541 127.981 87.9715 128.299 87.9715 128.745H87.98Z" fill="#C8D3D9"/>
<path d="M207.215 65.0952C206.958 65.0781 205.139 64.958 203.707 66.3819C202.274 67.8059 202.394 69.633 202.412 69.8989C202.437 69.6416 202.557 67.8145 201.133 66.3819C199.709 64.958 197.882 65.0695 197.625 65.0952C197.882 65.1124 199.709 65.2325 201.133 63.8085C202.557 62.376 202.437 60.5488 202.412 60.2915C202.394 60.5488 202.274 62.376 203.707 63.8085C205.131 65.2325 206.949 65.1124 207.215 65.0952Z" fill="#C8D3D9" stroke="#C8D3D9" stroke-width="0.5" stroke-linecap="round" stroke-linejoin="round"/>
<path d="M79.0273 176.069H134.879" stroke="#C8D3D9" stroke-width="2" stroke-linecap="round" stroke-linejoin="round"/>
<path d="M37.6875 168.675H187.237" stroke="#C8D3D9" stroke-width="2" stroke-linecap="round" stroke-linejoin="round"/>
<path d="M140.934 176.069H146.87" stroke="#C8D3D9" stroke-width="2" stroke-linecap="round" stroke-linejoin="round"/>
<defs>
<linearGradient id="paint0_linear_1939_185541" x1="97.1434" y1="26.2969" x2="133.506" y2="510.751" gradientUnits="userSpaceOnUse">
<stop stop-color="white"/>
<stop offset="1" stop-color="#9BD5FF"/>
</linearGradient>
<linearGradient id="paint1_linear_1939_185541" x1="175.416" y1="11.1219" x2="230.17" y2="222.254" gradientUnits="userSpaceOnUse">
<stop stop-color="white"/>
<stop offset="1" stop-color="#C3E6FF"/>
</linearGradient>
<linearGradient id="paint2_linear_1939_185541" x1="216.42" y1="71.0572" x2="230.856" y2="71.0572" gradientUnits="userSpaceOnUse">
<stop stop-color="#F4F7FB"/>
<stop offset="1" stop-color="#9BD5FF"/>
</linearGradient>
<linearGradient id="paint3_linear_1939_185541" x1="213.496" y1="19.8979" x2="216.524" y2="5.68575" gradientUnits="userSpaceOnUse">
<stop stop-color="#F4F7FB"/>
<stop offset="1" stop-color="#9BD5FF"/>
</linearGradient>
<linearGradient id="paint4_linear_1939_185541" x1="214.97" y1="35.887" x2="227.486" y2="35.887" gradientUnits="userSpaceOnUse">
<stop stop-color="#F4F7FB"/>
<stop offset="1" stop-color="#9BD5FF"/>
</linearGradient>
<linearGradient id="paint5_linear_1939_185541" x1="163.941" y1="7.85387" x2="172.271" y2="7.85387" gradientUnits="userSpaceOnUse">
<stop stop-color="#F4F7FB"/>
<stop offset="1" stop-color="#9BD5FF"/>
</linearGradient>
<linearGradient id="paint6_linear_1939_185541" x1="141.744" y1="35.9486" x2="140.441" y2="44.1754" gradientUnits="userSpaceOnUse">
<stop stop-color="#F4F7FB"/>
<stop offset="1" stop-color="#9BD5FF"/>
</linearGradient>
<linearGradient id="paint7_linear_1939_185541" x1="153.492" y1="144.482" x2="166.411" y2="157.159" gradientUnits="userSpaceOnUse">
<stop stop-color="white"/>
<stop offset="1" stop-color="#9BD5FF"/>
</linearGradient>
<linearGradient id="paint8_linear_1939_185541" x1="11.6519" y1="90.4255" x2="24.5656" y2="103.097" gradientUnits="userSpaceOnUse">
<stop stop-color="white"/>
<stop offset="1" stop-color="#9BD5FF"/>
</linearGradient>
<linearGradient id="paint9_linear_1939_185541" x1="170.923" y1="93.3855" x2="192.268" y2="114.318" gradientUnits="userSpaceOnUse">
<stop stop-color="white"/>
<stop offset="1" stop-color="#9BD5FF"/>
</linearGradient>
<linearGradient id="paint10_linear_1939_185541" x1="98.1243" y1="26.3366" x2="111.05" y2="39.0076" gradientUnits="userSpaceOnUse">
<stop stop-color="white"/>
<stop offset="1" stop-color="#9BD5FF"/>
</linearGradient>
<linearGradient id="paint11_linear_1939_185541" x1="129.475" y1="52.8802" x2="184.229" y2="264.012" gradientUnits="userSpaceOnUse">
<stop stop-color="white"/>
<stop offset="1" stop-color="#C3E6FF"/>
</linearGradient>
<linearGradient id="paint12_linear_1939_185541" x1="135.163" y1="70.3449" x2="154.755" y2="145.892" gradientUnits="userSpaceOnUse">
<stop stop-color="white"/>
<stop offset="1" stop-color="#C3E6FF"/>
</linearGradient>
<linearGradient id="paint13_linear_1939_185541" x1="18.7051" y1="108.26" x2="73.4674" y2="319.409" gradientUnits="userSpaceOnUse">
<stop stop-color="white"/>
<stop offset="1" stop-color="#C3E6FF"/>
</linearGradient>
<linearGradient id="paint14_linear_1939_185541" x1="74.084" y1="83.6669" x2="128.838" y2="294.807" gradientUnits="userSpaceOnUse">
<stop stop-color="white"/>
<stop offset="1" stop-color="#C3E6FF"/>
</linearGradient>
</defs>
</svg>
