<svg width="40" height="42" viewBox="0 0 40 42" fill="none" xmlns="http://www.w3.org/2000/svg">
<rect width="40" height="42" rx="8" fill="#D27722"/>
<path d="M8.128 25V16.6H11.704C12.256 16.6 12.72 16.68 13.096 16.84C13.48 17 13.768 17.24 13.96 17.56C14.16 17.872 14.26 18.252 14.26 18.7C14.26 19.164 14.136 19.556 13.888 19.876C13.64 20.196 13.292 20.416 12.844 20.536L12.832 20.296C13.208 20.376 13.536 20.52 13.816 20.728C14.096 20.928 14.312 21.18 14.464 21.484C14.624 21.78 14.704 22.12 14.704 22.504C14.704 22.912 14.636 23.272 14.5 23.584C14.372 23.896 14.18 24.156 13.924 24.364C13.668 24.572 13.364 24.732 13.012 24.844C12.66 24.948 12.264 25 11.824 25H8.128ZM9.652 23.596H11.752C12.048 23.596 12.296 23.552 12.496 23.464C12.704 23.376 12.86 23.248 12.964 23.08C13.076 22.904 13.132 22.696 13.132 22.456C13.132 22.232 13.072 22.04 12.952 21.88C12.84 21.72 12.676 21.6 12.46 21.52C12.244 21.432 11.988 21.388 11.692 21.388H9.652V23.596ZM9.652 20.044H11.56C11.792 20.044 11.992 20 12.16 19.912C12.336 19.824 12.472 19.704 12.568 19.552C12.664 19.4 12.712 19.224 12.712 19.024C12.712 18.704 12.604 18.456 12.388 18.28C12.172 18.096 11.856 18.004 11.44 18.004H9.652V20.044ZM20.2057 25.12C19.5737 25.12 18.9897 25.012 18.4537 24.796C17.9177 24.572 17.4497 24.264 17.0497 23.872C16.6577 23.48 16.3537 23.024 16.1377 22.504C15.9217 21.976 15.8137 21.404 15.8137 20.788C15.8137 20.18 15.9217 19.616 16.1377 19.096C16.3617 18.568 16.6737 18.112 17.0737 17.728C17.4737 17.336 17.9417 17.032 18.4777 16.816C19.0217 16.6 19.6057 16.492 20.2297 16.492C20.6697 16.492 21.0937 16.552 21.5017 16.672C21.9097 16.792 22.2777 16.96 22.6057 17.176C22.9337 17.392 23.2057 17.636 23.4217 17.908L22.4377 18.94C22.2137 18.724 21.9817 18.544 21.7417 18.4C21.5097 18.256 21.2657 18.144 21.0097 18.064C20.7537 17.984 20.4897 17.944 20.2177 17.944C19.8177 17.944 19.4457 18.016 19.1017 18.16C18.7657 18.304 18.4697 18.504 18.2137 18.76C17.9657 19.016 17.7697 19.316 17.6257 19.66C17.4817 20.004 17.4097 20.38 17.4097 20.788C17.4097 21.18 17.4817 21.552 17.6257 21.904C17.7777 22.256 17.9857 22.564 18.2497 22.828C18.5137 23.092 18.8177 23.3 19.1617 23.452C19.5137 23.596 19.8857 23.668 20.2777 23.668C20.5737 23.668 20.8497 23.624 21.1057 23.536C21.3617 23.448 21.5897 23.328 21.7897 23.176C21.9897 23.016 22.1417 22.832 22.2457 22.624C22.3577 22.416 22.4137 22.192 22.4137 21.952V21.688L22.6297 21.94H20.1457V20.548H23.9497C23.9657 20.636 23.9777 20.736 23.9857 20.848C23.9937 20.952 23.9977 21.056 23.9977 21.16C24.0057 21.256 24.0097 21.34 24.0097 21.412C24.0097 21.964 23.9137 22.468 23.7217 22.924C23.5297 23.372 23.2577 23.76 22.9057 24.088C22.5617 24.416 22.1577 24.672 21.6937 24.856C21.2377 25.032 20.7417 25.12 20.2057 25.12ZM25.6475 25V16.6H29.0195C29.6275 16.6 30.1755 16.7 30.6635 16.9C31.1595 17.1 31.5835 17.388 31.9355 17.764C32.2955 18.14 32.5675 18.584 32.7515 19.096C32.9435 19.608 33.0395 20.176 33.0395 20.8C33.0395 21.424 32.9435 21.996 32.7515 22.516C32.5675 23.028 32.2995 23.472 31.9475 23.848C31.5955 24.216 31.1715 24.5 30.6755 24.7C30.1795 24.9 29.6275 25 29.0195 25H25.6475ZM27.2075 23.788L27.0875 23.56H28.9595C29.3515 23.56 29.6995 23.496 30.0035 23.368C30.3155 23.24 30.5795 23.056 30.7955 22.816C31.0115 22.576 31.1755 22.288 31.2875 21.952C31.3995 21.608 31.4555 21.224 31.4555 20.8C31.4555 20.376 31.3995 19.996 31.2875 19.66C31.1755 19.316 31.0075 19.024 30.7835 18.784C30.5675 18.544 30.3075 18.36 30.0035 18.232C29.6995 18.104 29.3515 18.04 28.9595 18.04H27.0515L27.2075 17.836V23.788Z" fill="white"/>
</svg>
