<svg width="80" height="80" viewBox="0 0 80 80" fill="none" xmlns="http://www.w3.org/2000/svg">
<path d="M56 20H24L30 6H50L56 20Z" fill="#797781"/>
<path d="M50.0002 6H40V20H56.0002L50.0002 6Z" fill="#58575D"/>
<path d="M68 18C74.6273 18 80 23.3727 80 30V74H0V30C0 23.3727 5.37266 18 12 18H68Z" fill="#88888F"/>
<path d="M80.0002 30C80.0002 23.3727 74.6275 18 68.0002 18H40V74H80.0002V30Z" fill="#797781"/>
<path d="M44 62C52.8366 62 60 54.8366 60 46C60 37.1634 52.8366 30 44 30C35.1634 30 28 37.1634 28 46C28 54.8366 35.1634 62 44 62Z" fill="#D1E5F5"/>
<path d="M21 18H15V74H21V18Z" fill="#797781"/>
<path d="M68 34C70.2091 34 72 32.2091 72 30C72 27.7909 70.2091 26 68 26C65.7909 26 64 27.7909 64 30C64 32.2091 65.7909 34 68 34Z" fill="#E07188"/>
<path d="M55.3134 34.6865L32.686 57.3137H32.6862C38.9343 63.5622 49.0653 63.5622 55.3135 57.3137C61.5618 51.0653 61.5618 40.9346 55.3134 34.6865Z" fill="#B4D8F1"/>
</svg>
