<svg width="167" height="153" viewBox="0 0 167 153" fill="none" xmlns="http://www.w3.org/2000/svg">
<g filter="url(#filter0_d_4804_88191)">
<path d="M148.931 71.4115C148.911 89.4469 141.97 106.776 129.561 119.776C117.152 132.777 100.234 140.441 82.345 141.168C64.4561 141.895 46.9809 135.627 33.5727 123.675C20.1646 111.724 11.8617 95.0139 10.3998 77.0387C8.93792 59.0635 14.4303 41.2149 25.7286 27.2243C37.0269 13.2338 53.2565 4.1845 71.0243 1.96836C88.792 -0.247779 106.722 4.5408 121.067 15.333C135.411 26.1251 145.059 42.0854 147.993 59.8769C148.621 63.6892 148.935 67.5472 148.931 71.4115Z" fill="#F4F7FB"/>
</g>
<path d="M150.67 110.692C150.67 111.291 150.494 111.875 150.164 112.372C149.834 112.87 149.365 113.257 148.817 113.486C148.268 113.715 147.665 113.775 147.082 113.658C146.5 113.542 145.965 113.254 145.545 112.831C145.125 112.408 144.84 111.869 144.724 111.282C144.608 110.696 144.667 110.088 144.895 109.535C145.122 108.983 145.507 108.51 146 108.178C146.494 107.846 147.074 107.668 147.668 107.668C148.464 107.668 149.228 107.987 149.791 108.554C150.354 109.121 150.67 109.89 150.67 110.692Z" fill="#F4F7FB"/>
<path d="M150.67 110.692C150.67 111.291 150.494 111.875 150.164 112.372C149.834 112.87 149.365 113.257 148.817 113.486C148.268 113.715 147.665 113.775 147.082 113.658C146.5 113.542 145.965 113.254 145.545 112.831C145.125 112.408 144.84 111.869 144.724 111.282C144.608 110.696 144.667 110.088 144.895 109.535C145.122 108.983 145.507 108.51 146 108.178C146.494 107.846 147.074 107.668 147.668 107.668C148.464 107.668 149.228 107.987 149.791 108.554C150.354 109.121 150.67 109.89 150.67 110.692V110.692Z" stroke="#F4F7FB" stroke-width="0.668" stroke-miterlimit="10"/>
<path d="M163.502 89.3107C164.696 90.5132 165.509 92.0452 165.838 93.7131C166.167 95.3809 165.998 97.1097 165.352 98.6808C164.706 100.252 163.612 101.595 162.209 102.539C160.805 103.484 159.155 103.989 157.467 103.989C155.779 103.989 154.129 103.484 152.725 102.539C151.321 101.595 150.227 100.252 149.581 98.6808C148.935 97.1097 148.766 95.3809 149.096 93.7131C149.425 92.0452 150.238 90.5132 151.431 89.3107C152.224 88.5123 153.165 87.8789 154.201 87.4468C155.236 87.0147 156.346 86.7923 157.467 86.7923C158.588 86.7923 159.698 87.0147 160.733 87.4468C161.769 87.8789 162.71 88.5123 163.502 89.3107Z" fill="#F4F7FB"/>
<g filter="url(#filter1_d_4804_88191)">
<path d="M129.404 75.4833C129.274 75.4835 129.145 75.4545 129.027 75.3986C128.947 75.3699 128.876 75.3231 128.817 75.2619C128.759 75.2008 128.715 75.1268 128.69 75.0459C128.664 74.965 128.658 74.8793 128.67 74.7954C128.683 74.7115 128.715 74.6316 128.763 74.5621L131.448 70.836C131.57 70.6908 131.737 70.5907 131.922 70.5516C132.106 70.5126 132.299 70.5368 132.468 70.6204C132.548 70.6492 132.619 70.6959 132.677 70.7571C132.736 70.8182 132.779 70.892 132.805 70.9728C132.83 71.0536 132.837 71.1393 132.824 71.2231C132.812 71.3069 132.78 71.3867 132.732 71.4562L130.047 75.183C129.97 75.2797 129.872 75.3572 129.76 75.4093C129.649 75.4614 129.527 75.4867 129.404 75.4833Z" fill="white"/>
</g>
<g filter="url(#filter2_d_4804_88191)">
<path d="M47.7379 26.689C47.6075 26.6892 47.4786 26.6602 47.3606 26.6043C47.2813 26.5756 47.2097 26.5288 47.1512 26.4676C47.0928 26.4064 47.0492 26.3325 47.0237 26.2516C46.9982 26.1707 46.9916 26.085 47.0044 26.0011C47.0171 25.9171 47.0489 25.8373 47.0972 25.7678L49.7823 22.0417C49.9042 21.8965 50.0707 21.7964 50.2555 21.7573C50.4403 21.7183 50.6327 21.7425 50.8023 21.8261C50.8815 21.8549 50.953 21.9016 51.0114 21.9628C51.0697 22.0239 51.1133 22.0977 51.1388 22.1785C51.1643 22.2593 51.1709 22.345 51.1582 22.4288C51.1456 22.5126 51.1139 22.5924 51.0657 22.6619L48.3807 26.3887C48.3039 26.4854 48.2059 26.5629 48.0944 26.615C47.9828 26.6671 47.8608 26.6924 47.7379 26.689Z" fill="white"/>
</g>
<g filter="url(#filter3_d_4804_88191)">
<path d="M132.201 75.4839C132.07 75.484 131.94 75.4548 131.822 75.3985C131.743 75.3695 131.671 75.3226 131.613 75.2613C131.555 75.2 131.511 75.1261 131.486 75.0452C131.461 74.9643 131.455 74.8786 131.467 74.7948C131.48 74.711 131.512 74.6314 131.561 74.562L134.247 70.8359C134.369 70.6904 134.535 70.5902 134.72 70.5513C134.905 70.5125 135.098 70.5373 135.267 70.6217C135.346 70.6506 135.418 70.6974 135.476 70.7586C135.534 70.8198 135.577 70.8937 135.603 70.9745C135.628 71.0554 135.634 71.141 135.621 71.2248C135.609 71.3085 135.577 71.3881 135.528 71.4575L132.842 75.1843C132.765 75.2808 132.668 75.3582 132.556 75.4102C132.445 75.4621 132.323 75.4874 132.201 75.4839Z" fill="white"/>
</g>
<g filter="url(#filter4_d_4804_88191)">
<path d="M50.5345 26.6891C50.4035 26.6892 50.2742 26.66 50.1558 26.6037C50.0767 26.5747 50.0053 26.5278 49.9471 26.4665C49.8889 26.4052 49.8454 26.3313 49.8202 26.2504C49.7949 26.1695 49.7885 26.0838 49.8014 26C49.8143 25.9162 49.8461 25.8366 49.8945 25.7672L52.5809 22.0411C52.7026 21.8956 52.8693 21.7954 53.0543 21.7565C53.2392 21.7177 53.4317 21.7425 53.601 21.8269C53.6801 21.8558 53.7515 21.9026 53.8097 21.9638C53.8679 22.025 53.9113 22.0989 53.9366 22.1797C53.9619 22.2606 53.9683 22.3462 53.9554 22.43C53.9425 22.5137 53.9106 22.5933 53.8623 22.6627L51.1759 26.3895C51.0993 26.486 51.0015 26.5634 50.8902 26.6154C50.7789 26.6673 50.6571 26.6926 50.5345 26.6891Z" fill="white"/>
</g>
<g filter="url(#filter5_d_4804_88191)">
<path d="M135.318 75.4836C135.187 75.4837 135.057 75.4546 134.939 75.3982C134.86 75.3693 134.788 75.3223 134.73 75.261C134.672 75.1998 134.629 75.1258 134.603 75.045C134.578 74.9641 134.572 74.8784 134.585 74.7946C134.597 74.7108 134.629 74.6311 134.678 74.5617L137.364 70.8356C137.486 70.6901 137.653 70.5899 137.837 70.5511C138.022 70.5123 138.215 70.537 138.384 70.6214C138.463 70.6503 138.535 70.6972 138.593 70.7584C138.651 70.8196 138.695 70.8935 138.72 70.9743C138.745 71.0551 138.752 71.1408 138.739 71.2245C138.726 71.3083 138.694 71.3879 138.646 71.4572L135.959 75.184C135.883 75.2806 135.785 75.3579 135.673 75.4099C135.562 75.4619 135.44 75.4871 135.318 75.4836Z" fill="white"/>
</g>
<g filter="url(#filter6_d_4804_88191)">
<path d="M53.6517 26.6891C53.5208 26.6892 53.3914 26.66 53.273 26.6037C53.1939 26.5747 53.1225 26.5278 53.0643 26.4665C53.0061 26.4052 52.9626 26.3313 52.9374 26.2504C52.9121 26.1695 52.9057 26.0838 52.9186 26C52.9315 25.9162 52.9633 25.8366 53.0117 25.7672L55.6981 22.0411C55.8199 21.8956 55.9865 21.7954 56.1715 21.7565C56.3564 21.7177 56.5489 21.7425 56.7182 21.8269C56.7973 21.8558 56.8687 21.9026 56.9269 21.9638C56.9851 22.025 57.0285 22.0989 57.0538 22.1797C57.0791 22.2606 57.0855 22.3462 57.0726 22.43C57.0597 22.5137 57.0279 22.5933 56.9795 22.6627L54.2931 26.3895C54.2165 26.486 54.1187 26.5634 54.0074 26.6154C53.8961 26.6673 53.7744 26.6926 53.6517 26.6891Z" fill="white"/>
</g>
<g filter="url(#filter7_d_4804_88191)">
<path d="M99.5412 68.2129C96.7078 68.2383 93.9797 67.1292 91.9537 65.1282C89.9276 63.1272 88.7685 60.3971 88.7297 57.5351V32.2383H54.7377C47.05 32.2383 40.7441 38.4276 40.7441 45.9499V127.788C40.7441 135.251 47.05 141.438 54.7377 141.438H110.771C118.519 141.438 124.824 135.251 124.824 127.788V68.216L99.5412 68.2129ZM77.1398 99.9416C77.0792 109.952 72.3947 117.476 66.2685 117.476C60.2044 117.476 55.3979 109.65 55.3979 99.8214C55.3979 89.8725 60.2021 82.1672 66.2685 82.1672C70.5891 82.1672 74.317 86.0501 76.1225 92.2386C76.1911 92.5058 76.2047 92.7845 76.1623 93.0573C76.1199 93.3301 76.0224 93.5911 75.876 93.8243C75.7296 94.0575 75.5373 94.2578 75.3111 94.4128C75.0849 94.5679 74.8296 94.6743 74.561 94.7256C74.0122 94.8611 73.4333 94.7876 72.9347 94.5193C72.4361 94.2509 72.0528 93.8064 71.858 93.2707C70.7165 89.1451 68.4341 86.2936 66.2723 86.2936C63.2092 86.2936 59.7868 92.0571 59.7868 99.8221C59.7868 107.527 63.2099 113.351 66.2723 113.351C69.0951 113.351 72.0983 108.681 72.6395 101.942L68.4356 102.124C68.4291 102.403 68.3679 102.678 68.2554 102.934C68.143 103.189 67.9816 103.419 67.7804 103.611C67.5793 103.803 67.3425 103.953 67.0838 104.051C66.825 104.15 66.5495 104.196 66.273 104.187C65.7177 104.195 65.1809 103.985 64.7772 103.599C64.3735 103.214 64.1348 102.684 64.112 102.124V99.8183C64.1183 99.5391 64.1794 99.2639 64.2918 99.0088C64.4041 98.7536 64.5654 98.5234 64.7664 98.3316C64.9674 98.1399 65.2041 97.9902 65.4627 97.8915C65.7213 97.7927 65.9967 97.7468 66.273 97.7562H74.9817C75.4145 97.7502 75.8394 97.8737 76.2028 98.1113C76.5662 98.3488 76.8519 98.6896 77.0238 99.0909C77.0929 99.3278 77.1333 99.5723 77.1443 99.8191L77.1398 99.9416ZM86.8089 113.35C86.8731 114.442 86.6447 115.532 86.1479 116.505C85.9857 116.832 85.7369 117.107 85.4291 117.3C85.1213 117.492 84.7667 117.595 84.4045 117.597C84.0605 117.584 83.7266 117.476 83.4402 117.283C83.1537 117.09 82.926 116.821 82.7824 116.505C82.2653 115.54 82.036 114.444 82.1222 113.35V86.3525C82.0361 85.2584 82.2654 84.1624 82.7824 83.1971C82.9385 82.8958 83.1709 82.6416 83.4558 82.4604C83.7407 82.2793 84.0681 82.1776 84.4045 82.1656C84.7593 82.1674 85.1073 82.2636 85.4134 82.4448C85.7196 82.6259 85.9729 82.8854 86.1479 83.1971C86.6376 84.1724 86.8656 85.2604 86.8089 86.3525V113.35ZM109.571 87.0807C109.372 87.3325 109.114 87.5307 108.821 87.6577C108.528 87.7847 108.208 87.8367 107.89 87.8089H98.6422V96.5449H106.389C106.698 96.5233 107.007 96.5783 107.29 96.7053C107.572 96.8322 107.82 97.0272 108.011 97.2731C108.346 97.841 108.512 98.4939 108.491 99.1544C108.522 99.8436 108.333 100.525 107.95 101.096C107.759 101.322 107.518 101.499 107.247 101.615C106.976 101.731 106.683 101.781 106.389 101.763H98.6422V113.048C98.7344 114.162 98.5045 115.28 97.9804 116.264C97.821 116.58 97.5771 116.844 97.2764 117.026C96.9757 117.208 96.6304 117.301 96.2798 117.295C95.9293 117.288 95.5875 117.183 95.2936 116.99C94.9996 116.797 94.7652 116.524 94.6172 116.203C94.1215 115.23 93.8934 114.141 93.9569 113.048V86.7163C93.9413 85.8969 94.0435 85.0795 94.2601 84.2897C94.4041 83.7253 94.7432 83.2314 95.2161 82.8975C95.6891 82.5635 96.2646 82.4115 96.8389 82.4689H107.889C108.207 82.4413 108.527 82.4934 108.82 82.6204C109.113 82.7474 109.371 82.9455 109.57 83.1971C109.924 83.7817 110.111 84.4535 110.111 85.1385C110.111 85.8236 109.924 86.4954 109.57 87.08" fill="white"/>
<path d="M55.0811 87.0021C54.716 84.0333 53.6407 81.1982 51.9475 78.7402C50.2543 76.2823 47.9938 74.2751 45.3603 72.8909C42.7268 71.5068 39.799 70.7871 36.8283 70.7938C33.8577 70.8004 30.933 71.5332 28.3056 72.9291C25.6781 74.3251 23.4265 76.3424 21.744 78.8079C20.0616 81.2734 18.9986 84.1133 18.6464 87.0837C18.2943 90.0541 18.6635 93.0662 19.7223 95.8612C20.7811 98.6561 22.4978 101.15 24.7251 103.13C24.7473 103.157 24.773 103.181 24.8015 103.201C27.4465 105.53 30.7004 107.046 34.1762 107.567C37.6519 108.089 41.2033 107.593 44.4077 106.141C47.6121 104.688 50.3347 102.339 52.2517 99.3733C54.1687 96.4074 55.1994 92.9495 55.221 89.4108C55.2278 88.6056 55.181 87.8009 55.0811 87.0021Z" fill="#C8D3D9" stroke="#C8D3D9" stroke-width="0.5" stroke-linecap="round" stroke-linejoin="round"/>
<path d="M47.8038 98.9232C45.9108 101.101 43.4193 102.665 40.6442 103.416C37.8691 104.168 34.9352 104.073 32.2134 103.145C29.4916 102.217 27.1041 100.496 25.353 98.2009C23.6018 95.9058 22.5656 93.1391 22.3754 90.2507C22.1852 87.3623 22.8495 84.4819 24.2843 81.9738C25.7191 79.4657 27.86 77.4426 30.4362 76.1602C33.0124 74.8778 35.9083 74.3938 38.7576 74.7694C41.6069 75.1449 44.2816 76.3632 46.4436 78.2701C49.3427 80.8272 51.1147 84.4397 51.3697 88.3129C51.6248 92.1861 50.3421 96.0027 47.8038 98.9232Z" fill="#F4F7FB" stroke="#C8D3D9" stroke-width="0.5" stroke-linecap="round" stroke-linejoin="round"/>
<path d="M22.2655 106.222L21.8348 105.842C20.7254 104.864 19.0392 104.978 18.0684 106.095L7.75865 117.963C6.78788 119.08 6.90018 120.779 8.00949 121.757L8.44025 122.137C9.54956 123.115 11.2358 123.001 12.2066 121.884L22.5163 110.016C23.4871 108.899 23.3748 107.2 22.2655 106.222Z" fill="#C8D3D9" stroke="#C8D3D9" stroke-width="0.499724" stroke-linecap="round" stroke-linejoin="round"/>
<path d="M25.4076 105.131L22.4974 102.565C22.0728 102.191 21.4273 102.234 21.0557 102.662C20.6841 103.09 20.727 103.74 21.1517 104.115L24.0619 106.68C24.4865 107.054 25.132 107.011 25.5036 106.583C25.8752 106.156 25.8322 105.505 25.4076 105.131Z" fill="#C8D3D9" stroke="#C8D3D9" stroke-width="0.499724" stroke-linecap="round" stroke-linejoin="round"/>
<path d="M36.6198 98.6854C36.4551 98.6854 36.2919 98.6527 36.1397 98.5892C35.9875 98.5257 35.8492 98.4326 35.7327 98.3152C35.6162 98.1979 35.5238 98.0586 35.4607 97.9052C35.3977 97.7519 35.3652 97.5876 35.3652 97.4216C35.3667 97.1737 35.4409 96.9319 35.5785 96.7264C35.7161 96.5209 35.911 96.361 36.1385 96.2669C36.3661 96.1727 36.6163 96.1484 36.8575 96.1971C37.0988 96.2459 37.3203 96.3654 37.4943 96.5406C37.6683 96.7159 37.7869 96.9391 37.8353 97.1821C37.8836 97.4251 37.8596 97.6771 37.7661 97.9064C37.6726 98.1357 37.5139 98.332 37.3099 98.4706C37.106 98.6092 36.8659 98.6839 36.6198 98.6854Z" fill="#C8D3D9"/>
<path d="M36.6184 96.7008C36.8082 96.701 36.9901 96.777 37.1243 96.9122C37.2585 97.0474 37.334 97.2307 37.3342 97.4219C37.3342 97.6151 37.258 97.8004 37.1224 97.9371C36.9868 98.0737 36.8028 98.1505 36.611 98.1505C36.4192 98.1505 36.2352 98.0737 36.0996 97.9371C35.964 97.8004 35.8878 97.6151 35.8878 97.4219C35.8876 97.3259 35.9066 97.2309 35.9434 97.1423C35.9803 97.0538 36.0343 96.9736 36.1024 96.9064C36.1705 96.8392 36.2512 96.7864 36.3398 96.7511C36.4284 96.7158 36.5231 96.6987 36.6184 96.7008ZM36.6184 95.6525C36.2675 95.6511 35.924 95.7546 35.6316 95.9501C35.3392 96.1456 35.111 96.4242 34.9761 96.7505C34.8411 97.0769 34.8054 97.4362 34.8735 97.783C34.9416 98.1298 35.1105 98.4484 35.3586 98.6984C35.6068 98.9484 35.923 99.1184 36.2673 99.1871C36.6115 99.2557 36.9683 99.2197 37.2922 99.0837C37.6161 98.9478 37.8927 98.7179 38.0867 98.4234C38.2808 98.1288 38.3836 97.7828 38.3822 97.4293C38.3802 96.9587 38.1938 96.5079 37.8634 96.1751C37.5331 95.8423 37.0856 95.6545 36.6184 95.6525Z" fill="#C8D3D9"/>
<path d="M36.5755 93.8533C36.2821 93.8542 35.9999 93.7397 35.789 93.5342C35.5782 93.3287 35.4552 93.0485 35.4464 92.753C35.3504 89.534 35.3652 87.6977 36.76 87.5119H36.9002C36.9495 87.5108 36.9988 87.5133 37.0478 87.5193H37.1364C37.7653 87.4404 38.3433 87.1307 38.7599 86.6495C39.0773 86.245 39.2843 85.7641 39.3607 85.2543C39.437 84.7445 39.3801 84.2235 39.1953 83.7427C38.8485 83.0141 38.0957 82.6424 36.9519 82.6424C36.5962 82.6067 36.2371 82.6479 35.8986 82.7633C35.56 82.8786 35.2498 83.0656 34.9888 83.3115C34.8005 83.5417 34.6603 83.8079 34.5766 84.0941C34.4929 84.3802 34.4675 84.6805 34.5017 84.9768C34.5142 85.1257 34.4973 85.2757 34.452 85.418C34.4068 85.5604 34.3341 85.6923 34.2381 85.8063C34.1421 85.9202 34.0247 86.014 33.8926 86.0822C33.7606 86.1503 33.6165 86.1915 33.4686 86.2034H33.38C33.0987 86.2019 32.8281 86.0942 32.6218 85.9015C32.4154 85.7088 32.2884 85.4451 32.2656 85.1626C32.2002 84.5525 32.2615 83.9354 32.4458 83.3504C32.63 82.7655 32.9331 82.2256 33.3357 81.7652C33.8061 81.2883 34.3718 80.9178 34.9953 80.6781C35.6188 80.4384 36.2857 80.3351 36.9519 80.375C39.557 80.375 40.7156 81.676 41.2322 82.7762C41.5957 83.6471 41.7189 84.6007 41.589 85.5362C41.4592 86.4718 41.0809 87.3547 40.4942 88.0917C39.8643 88.8318 39.029 89.3652 38.0957 89.6232L37.7341 89.7198L37.712 90.099C37.6751 90.7012 37.6751 91.571 37.712 92.6936C37.7188 92.9929 37.6104 93.2833 37.4094 93.5039C37.2009 93.7209 36.919 93.8509 36.6198 93.8682H36.5829L36.5755 93.8533Z" fill="#C8D3D9"/>
<path d="M36.9435 80.8952C39.2756 80.8952 40.3014 82.0401 40.7516 82.9917C41.0699 83.7728 41.1762 84.6252 41.0595 85.4613C40.9427 86.2975 40.6072 87.0873 40.0874 87.7496C39.5254 88.4089 38.7798 88.8829 37.9472 89.1101L37.224 89.3034L37.1797 90.0543C37.1428 90.6639 37.1428 91.556 37.1797 92.6934C37.1842 92.8505 37.1317 93.0038 37.0321 93.1246C36.9768 93.1866 36.9099 93.2369 36.8351 93.2727C36.7604 93.3084 36.6793 93.3288 36.5967 93.3328H36.5746C36.4964 93.3348 36.4186 93.3211 36.3458 93.2925C36.2729 93.264 36.2064 93.2212 36.1501 93.1665C36.0938 93.1119 36.0489 93.0466 36.0178 92.9743C35.9868 92.902 35.9704 92.8242 35.9694 92.7455C35.8808 89.8982 35.8956 88.1585 36.8255 88.0322H37.1502C37.9299 87.956 38.6497 87.5775 39.1575 86.9765C39.539 86.4945 39.7865 85.919 39.8746 85.309C39.9628 84.6989 39.8885 84.0763 39.6593 83.5047C39.2239 82.5754 38.3088 82.107 36.9435 82.107C36.5191 82.0715 36.0919 82.1266 35.6901 82.2688C35.2882 82.411 34.9207 82.6371 34.6115 82.9322C34.366 83.2145 34.1825 83.5459 34.0731 83.9046C33.9637 84.2634 33.9309 84.6414 33.9768 85.0138C33.9831 85.094 33.9735 85.1746 33.9486 85.2509C33.9237 85.3273 33.884 85.398 33.8319 85.4588C33.7797 85.5196 33.7161 85.5695 33.6447 85.6054C33.5733 85.6413 33.4956 85.6626 33.416 85.668H33.3717C33.222 85.6659 33.0785 85.6076 32.9693 85.5044C32.8601 85.4013 32.7931 85.2608 32.7813 85.1105C32.7228 84.5735 32.7753 84.0301 32.9353 83.5145C33.0953 82.9989 33.3595 82.5223 33.7112 82.1145C34.134 81.6929 34.6406 81.3663 35.1977 81.1561C35.7549 80.946 36.3499 80.8571 36.9435 80.8952ZM36.9435 79.847C36.2047 79.8034 35.4652 79.9203 34.7751 80.1896C34.085 80.459 33.4605 80.8745 32.9437 81.4082C32.4898 81.9194 32.148 82.5214 31.9407 83.1747C31.7335 83.828 31.6653 84.518 31.7407 85.1997C31.7724 85.6145 31.9576 86.0022 32.2597 86.2859C32.5618 86.5695 32.9587 86.7285 33.3717 86.7312H33.4971C33.7128 86.7142 33.9231 86.6547 34.1159 86.5558C34.3088 86.457 34.4803 86.3208 34.6208 86.155C34.7614 85.9893 34.8681 85.7973 34.9348 85.59C35.0016 85.3827 35.0272 85.1642 35.01 84.9469C34.9539 84.4913 35.0786 84.0318 35.3569 83.6682C35.5718 83.4801 35.8231 83.3387 36.0949 83.253C36.3666 83.1672 36.6531 83.139 36.9362 83.1701C38.3383 83.1701 38.6188 83.7723 38.7073 83.973C38.8501 84.3633 38.8918 84.7838 38.8285 85.1948C38.7652 85.6058 38.5991 85.9939 38.3457 86.3223C38.0233 86.6915 37.5814 86.9338 37.0985 87.0062C37.03 86.9976 36.961 86.9926 36.8919 86.9914C36.8202 86.9872 36.7483 86.9921 36.6779 87.0062C34.7517 87.2664 34.8255 89.7049 34.9141 92.7901C34.9249 93.2222 35.1031 93.633 35.4107 93.9345C35.7182 94.236 36.1307 94.4042 36.5598 94.4033H36.6115C37.0484 94.3834 37.4608 94.1943 37.7627 93.8755C37.9103 93.7176 38.0254 93.5319 38.1014 93.3291C38.1774 93.1262 38.2128 92.9102 38.2055 92.6934C38.1612 91.4371 38.176 90.6342 38.2055 90.1509C39.2466 89.869 40.1782 89.2753 40.877 88.4485C41.523 87.6314 41.9385 86.6541 42.0801 85.6194C42.2216 84.5846 42.0839 83.5306 41.6814 82.568C41.2091 81.5643 39.9693 79.8693 36.9288 79.8693L36.9435 79.847Z" fill="#C8D3D9"/>
</g>
<path d="M91.4375 47.7409H92.2991C92.0109 47.7321 91.7224 47.75 91.4375 47.7944V47.7409Z" fill="white"/>
<path d="M114.357 67.3065L116.618 69.5283V69.5829L114.357 67.3065Z" fill="white"/>
<path d="M118.394 73.7572V74.4621H118.34C118.385 74.23 118.403 73.9935 118.394 73.7572Z" fill="white"/>
<g filter="url(#filter8_d_4804_88191)">
<path d="M124.68 60.9243C124.69 61.1911 124.67 61.4581 124.62 61.7201H99.5244C98.2893 61.749 97.0932 61.2759 96.1975 60.4041C95.3018 59.5323 94.7793 58.3328 94.7441 57.0676V31.6034C95.0605 31.5521 95.3809 31.5314 95.7011 31.5416H95.7599C96.6639 31.5412 97.5585 31.7288 98.3895 32.0932C99.2455 32.4631 100.033 32.9805 100.719 33.623L100.778 33.6848L111.594 44.8253L122.707 56.2116C123.944 57.4551 124.653 59.1487 124.678 60.9243" fill="white"/>
</g>
<g filter="url(#filter9_d_4804_88191)">
<path d="M117.831 34.2834C116.97 34.2834 116.317 33.858 116.271 33.4763L115 23.0288C114.885 22.0845 115.166 21.1483 115.77 20.4604C116.306 19.8502 117.038 19.5142 117.831 19.5142C118.625 19.5142 119.357 19.8502 119.893 20.4604C120.497 21.1483 120.778 22.0845 120.663 23.0289L119.392 33.4764C119.346 33.858 118.693 34.2834 117.831 34.2834Z" fill="white"/>
<path d="M117.83 33.7075C118.388 33.7075 118.75 33.4819 118.828 33.3734L120.095 22.9586C120.19 22.1777 119.96 21.406 119.464 20.8414C119.037 20.3565 118.457 20.0894 117.83 20.0894C117.203 20.0894 116.623 20.3565 116.197 20.8414C115.701 21.406 115.471 22.1777 115.566 22.9585L116.833 33.3736C116.91 33.482 117.272 33.7075 117.83 33.7075ZM117.83 34.8585C116.748 34.8585 115.794 34.2936 115.702 33.546L114.432 23.0985C114.171 20.9544 115.682 18.9384 117.83 18.9384C119.978 18.9384 121.489 20.9544 121.229 23.0985L119.958 33.546C119.867 34.2936 118.912 34.8585 117.83 34.8585Z" fill="white"/>
</g>
<g filter="url(#filter10_d_4804_88191)">
<path d="M117.82 40.3145C118.902 40.3145 119.78 39.4304 119.78 38.3398C119.78 37.2492 118.902 36.3651 117.82 36.3651C116.737 36.3651 115.859 37.2492 115.859 38.3398C115.859 39.4304 116.737 40.3145 117.82 40.3145Z" fill="white"/>
<path d="M117.821 39.7389C118.588 39.7389 119.21 39.1124 119.21 38.3396C119.21 37.5668 118.588 36.9403 117.821 36.9403C117.054 36.9403 116.432 37.5668 116.432 38.3396C116.432 39.1124 117.054 39.7389 117.821 39.7389Z" stroke="white" stroke-width="1.644" stroke-miterlimit="10" stroke-linecap="round"/>
</g>
<defs>
<filter id="filter0_d_4804_88191" x="4.16797" y="0.438477" width="150.764" height="151.786" filterUnits="userSpaceOnUse" color-interpolation-filters="sRGB">
<feFlood flood-opacity="0" result="BackgroundImageFix"/>
<feColorMatrix in="SourceAlpha" type="matrix" values="0 0 0 0 0 0 0 0 0 0 0 0 0 0 0 0 0 0 127 0" result="hardAlpha"/>
<feOffset dy="5"/>
<feGaussianBlur stdDeviation="3"/>
<feColorMatrix type="matrix" values="0 0 0 0 0.784314 0 0 0 0 0.827451 0 0 0 0 0.85098 0 0 0 0.302 0"/>
<feBlend mode="normal" in2="BackgroundImageFix" result="effect1_dropShadow_4804_88191"/>
<feBlend mode="normal" in="SourceGraphic" in2="effect1_dropShadow_4804_88191" result="shape"/>
</filter>
<filter id="filter1_d_4804_88191" x="122.664" y="67.5334" width="16.166" height="16.9502" filterUnits="userSpaceOnUse" color-interpolation-filters="sRGB">
<feFlood flood-opacity="0" result="BackgroundImageFix"/>
<feColorMatrix in="SourceAlpha" type="matrix" values="0 0 0 0 0 0 0 0 0 0 0 0 0 0 0 0 0 0 127 0" result="hardAlpha"/>
<feOffset dy="3"/>
<feGaussianBlur stdDeviation="3"/>
<feColorMatrix type="matrix" values="0 0 0 0 0.784314 0 0 0 0 0.827451 0 0 0 0 0.85098 0 0 0 0.302 0"/>
<feBlend mode="normal" in2="BackgroundImageFix" result="effect1_dropShadow_4804_88191"/>
<feBlend mode="normal" in="SourceGraphic" in2="effect1_dropShadow_4804_88191" result="shape"/>
</filter>
<filter id="filter2_d_4804_88191" x="40.998" y="18.7391" width="16.166" height="16.9502" filterUnits="userSpaceOnUse" color-interpolation-filters="sRGB">
<feFlood flood-opacity="0" result="BackgroundImageFix"/>
<feColorMatrix in="SourceAlpha" type="matrix" values="0 0 0 0 0 0 0 0 0 0 0 0 0 0 0 0 0 0 127 0" result="hardAlpha"/>
<feOffset dy="3"/>
<feGaussianBlur stdDeviation="3"/>
<feColorMatrix type="matrix" values="0 0 0 0 0.784314 0 0 0 0 0.827451 0 0 0 0 0.85098 0 0 0 0.302 0"/>
<feBlend mode="normal" in2="BackgroundImageFix" result="effect1_dropShadow_4804_88191"/>
<feBlend mode="normal" in="SourceGraphic" in2="effect1_dropShadow_4804_88191" result="shape"/>
</filter>
<filter id="filter3_d_4804_88191" x="125.461" y="67.5334" width="16.166" height="16.9508" filterUnits="userSpaceOnUse" color-interpolation-filters="sRGB">
<feFlood flood-opacity="0" result="BackgroundImageFix"/>
<feColorMatrix in="SourceAlpha" type="matrix" values="0 0 0 0 0 0 0 0 0 0 0 0 0 0 0 0 0 0 127 0" result="hardAlpha"/>
<feOffset dy="3"/>
<feGaussianBlur stdDeviation="3"/>
<feColorMatrix type="matrix" values="0 0 0 0 0.784314 0 0 0 0 0.827451 0 0 0 0 0.85098 0 0 0 0.302 0"/>
<feBlend mode="normal" in2="BackgroundImageFix" result="effect1_dropShadow_4804_88191"/>
<feBlend mode="normal" in="SourceGraphic" in2="effect1_dropShadow_4804_88191" result="shape"/>
</filter>
<filter id="filter4_d_4804_88191" x="43.7949" y="18.7386" width="16.166" height="16.9508" filterUnits="userSpaceOnUse" color-interpolation-filters="sRGB">
<feFlood flood-opacity="0" result="BackgroundImageFix"/>
<feColorMatrix in="SourceAlpha" type="matrix" values="0 0 0 0 0 0 0 0 0 0 0 0 0 0 0 0 0 0 127 0" result="hardAlpha"/>
<feOffset dy="3"/>
<feGaussianBlur stdDeviation="3"/>
<feColorMatrix type="matrix" values="0 0 0 0 0.784314 0 0 0 0 0.827451 0 0 0 0 0.85098 0 0 0 0.302 0"/>
<feBlend mode="normal" in2="BackgroundImageFix" result="effect1_dropShadow_4804_88191"/>
<feBlend mode="normal" in="SourceGraphic" in2="effect1_dropShadow_4804_88191" result="shape"/>
</filter>
<filter id="filter5_d_4804_88191" x="128.578" y="67.5332" width="16.166" height="16.9508" filterUnits="userSpaceOnUse" color-interpolation-filters="sRGB">
<feFlood flood-opacity="0" result="BackgroundImageFix"/>
<feColorMatrix in="SourceAlpha" type="matrix" values="0 0 0 0 0 0 0 0 0 0 0 0 0 0 0 0 0 0 127 0" result="hardAlpha"/>
<feOffset dy="3"/>
<feGaussianBlur stdDeviation="3"/>
<feColorMatrix type="matrix" values="0 0 0 0 0.784314 0 0 0 0 0.827451 0 0 0 0 0.85098 0 0 0 0.302 0"/>
<feBlend mode="normal" in2="BackgroundImageFix" result="effect1_dropShadow_4804_88191"/>
<feBlend mode="normal" in="SourceGraphic" in2="effect1_dropShadow_4804_88191" result="shape"/>
</filter>
<filter id="filter6_d_4804_88191" x="46.9121" y="18.7386" width="16.166" height="16.9508" filterUnits="userSpaceOnUse" color-interpolation-filters="sRGB">
<feFlood flood-opacity="0" result="BackgroundImageFix"/>
<feColorMatrix in="SourceAlpha" type="matrix" values="0 0 0 0 0 0 0 0 0 0 0 0 0 0 0 0 0 0 127 0" result="hardAlpha"/>
<feOffset dy="3"/>
<feGaussianBlur stdDeviation="3"/>
<feColorMatrix type="matrix" values="0 0 0 0 0.784314 0 0 0 0 0.827451 0 0 0 0 0.85098 0 0 0 0.302 0"/>
<feBlend mode="normal" in2="BackgroundImageFix" result="effect1_dropShadow_4804_88191"/>
<feBlend mode="normal" in="SourceGraphic" in2="effect1_dropShadow_4804_88191" result="shape"/>
</filter>
<filter id="filter7_d_4804_88191" x="0.849609" y="29.2383" width="129.975" height="121.2" filterUnits="userSpaceOnUse" color-interpolation-filters="sRGB">
<feFlood flood-opacity="0" result="BackgroundImageFix"/>
<feColorMatrix in="SourceAlpha" type="matrix" values="0 0 0 0 0 0 0 0 0 0 0 0 0 0 0 0 0 0 127 0" result="hardAlpha"/>
<feOffset dy="3"/>
<feGaussianBlur stdDeviation="3"/>
<feColorMatrix type="matrix" values="0 0 0 0 0.784314 0 0 0 0 0.827451 0 0 0 0 0.85098 0 0 0 0.502 0"/>
<feBlend mode="normal" in2="BackgroundImageFix" result="effect1_dropShadow_4804_88191"/>
<feBlend mode="normal" in="SourceGraphic" in2="effect1_dropShadow_4804_88191" result="shape"/>
</filter>
<filter id="filter8_d_4804_88191" x="88.7441" y="28.5391" width="41.9375" height="42.1822" filterUnits="userSpaceOnUse" color-interpolation-filters="sRGB">
<feFlood flood-opacity="0" result="BackgroundImageFix"/>
<feColorMatrix in="SourceAlpha" type="matrix" values="0 0 0 0 0 0 0 0 0 0 0 0 0 0 0 0 0 0 127 0" result="hardAlpha"/>
<feOffset dy="3"/>
<feGaussianBlur stdDeviation="3"/>
<feColorMatrix type="matrix" values="0 0 0 0 0.784314 0 0 0 0 0.827451 0 0 0 0 0.85098 0 0 0 0.502 0"/>
<feBlend mode="normal" in2="BackgroundImageFix" result="effect1_dropShadow_4804_88191"/>
<feBlend mode="normal" in="SourceGraphic" in2="effect1_dropShadow_4804_88191" result="shape"/>
</filter>
<filter id="filter9_d_4804_88191" x="108.402" y="15.9384" width="18.8555" height="27.9201" filterUnits="userSpaceOnUse" color-interpolation-filters="sRGB">
<feFlood flood-opacity="0" result="BackgroundImageFix"/>
<feColorMatrix in="SourceAlpha" type="matrix" values="0 0 0 0 0 0 0 0 0 0 0 0 0 0 0 0 0 0 127 0" result="hardAlpha"/>
<feOffset dy="3"/>
<feGaussianBlur stdDeviation="3"/>
<feColorMatrix type="matrix" values="0 0 0 0 0.784314 0 0 0 0 0.827451 0 0 0 0 0.85098 0 0 0 0.302 0"/>
<feBlend mode="normal" in2="BackgroundImageFix" result="effect1_dropShadow_4804_88191"/>
<feBlend mode="normal" in="SourceGraphic" in2="effect1_dropShadow_4804_88191" result="shape"/>
</filter>
<filter id="filter10_d_4804_88191" x="109.609" y="33.1183" width="16.4219" height="16.4426" filterUnits="userSpaceOnUse" color-interpolation-filters="sRGB">
<feFlood flood-opacity="0" result="BackgroundImageFix"/>
<feColorMatrix in="SourceAlpha" type="matrix" values="0 0 0 0 0 0 0 0 0 0 0 0 0 0 0 0 0 0 127 0" result="hardAlpha"/>
<feOffset dy="3"/>
<feGaussianBlur stdDeviation="3"/>
<feColorMatrix type="matrix" values="0 0 0 0 0.784314 0 0 0 0 0.827451 0 0 0 0 0.85098 0 0 0 0.302 0"/>
<feBlend mode="normal" in2="BackgroundImageFix" result="effect1_dropShadow_4804_88191"/>
<feBlend mode="normal" in="SourceGraphic" in2="effect1_dropShadow_4804_88191" result="shape"/>
</filter>
</defs>
</svg>
