<svg width="24" height="24" viewBox="0 0 24 24" fill="none" xmlns="http://www.w3.org/2000/svg">
<path d="M7.42969 5.07996H22.0097" stroke="#354752" stroke-linecap="round" stroke-linejoin="round"/>
<path d="M7.42969 12H22.0097" stroke="#354752" stroke-linecap="round" stroke-linejoin="round"/>
<path d="M7.42969 18.91H22.0097" stroke="#354752" stroke-linecap="round" stroke-linejoin="round"/>
<path d="M4.09023 6.18999C3.87267 6.18999 3.66 6.12547 3.47911 6.0046C3.29821 5.88374 3.15722 5.71194 3.07397 5.51094C2.99071 5.30994 2.96893 5.08877 3.01137 4.87539C3.05382 4.66201 3.15858 4.46601 3.31242 4.31217C3.46625 4.15834 3.66226 4.05357 3.87564 4.01113C4.08902 3.96868 4.31019 3.99047 4.51119 4.07372C4.71219 4.15698 4.88398 4.29797 5.00485 4.47886C5.12572 4.65976 5.19023 4.87243 5.19023 5.08999C5.19023 5.38173 5.07434 5.66152 4.86805 5.86781C4.66177 6.0741 4.38197 6.18999 4.09023 6.18999Z" fill="#354752" stroke="#354752"/>
<path d="M4.72012 3.60918C4.52199 3.52433 4.30779 3.47998 4.09023 3.47998C4.30035 3.47998 4.50841 3.52136 4.70253 3.60177C4.70841 3.60421 4.71428 3.60668 4.72012 3.60918ZM2.95886 3.94861C2.95037 3.9571 2.94198 3.96568 2.9337 3.97434C2.95562 3.95142 2.97822 3.92913 3.0015 3.90752C2.98706 3.92093 2.97285 3.93463 2.95886 3.94861Z" fill="#354752" stroke="#354752"/>
<path d="M4.09023 13.1C3.87267 13.1 3.66 13.0355 3.47911 12.9146C3.29821 12.7938 3.15722 12.622 3.07397 12.421C2.99071 12.22 2.96893 11.9988 3.01137 11.7854C3.05382 11.572 3.15858 11.376 3.31242 11.2222C3.46625 11.0684 3.66226 10.9636 3.87564 10.9212C4.08902 10.8787 4.31019 10.9005 4.51119 10.9838C4.71219 11.067 4.88398 11.208 5.00485 11.3889C5.12572 11.5698 5.19023 11.7825 5.19023 12C5.19023 12.2918 5.07434 12.5716 4.86805 12.7778C4.66177 12.9841 4.38197 13.1 4.09023 13.1Z" fill="#354752" stroke="#354752"/>
<path d="M4.40238 13.5693C4.59143 13.5317 4.77111 13.4604 4.93326 13.3599C4.85999 13.4053 4.78286 13.445 4.70253 13.4782C4.5684 13.5338 4.42809 13.5705 4.28554 13.5881C4.32461 13.5833 4.36358 13.577 4.40238 13.5693ZM2.95886 10.8687C2.95037 10.8771 2.94198 10.8857 2.9337 10.8944C3.01403 10.8104 3.10368 10.7349 3.20132 10.6697C3.1148 10.7275 3.03352 10.794 2.95886 10.8687Z" fill="#354752" stroke="#354752"/>
<path d="M5.19023 18.9099C5.19023 19.5174 4.69775 20.0099 4.09023 20.0099C3.48272 20.0099 2.99023 19.5174 2.99023 18.9099C2.99023 18.3024 3.48272 17.8099 4.09023 17.8099C4.69775 17.8099 5.19023 18.3024 5.19023 18.9099Z" fill="#354752" stroke="#354752"/>
<path d="M4.40238 20.4792C4.60151 20.4396 4.79024 20.3627 4.95905 20.2535C4.87816 20.3058 4.79235 20.3509 4.70253 20.3881C4.5684 20.4437 4.42809 20.4804 4.28554 20.498C4.32461 20.4932 4.36358 20.4869 4.40238 20.4792ZM2.95886 17.7786C2.95051 17.7869 2.94225 17.7954 2.9341 17.8039C2.97842 17.7576 3.02558 17.7138 3.07535 17.673C3.03489 17.7062 2.99601 17.7414 2.95886 17.7786ZM2.61203 18.2976C2.53162 18.4918 2.49023 18.6998 2.49023 18.9099C2.49024 18.7008 2.53123 18.4927 2.61203 18.2976Z" fill="#354752" stroke="#354752"/>
</svg>
