<svg width="24" height="24" viewBox="0 0 24 24" fill="none" xmlns="http://www.w3.org/2000/svg">
<path d="M20.02 12.06V7.73001C20.02 5.12001 17.9 3 15.3 3H6.72C4.12 3 2 5.12001 2 7.73001V13.24C2 14.87 2.83 16.36 4.2 17.21V20.5C4.2 20.7 4.32 20.88 4.51 20.96C4.57 20.98 4.63 21 4.7 21C4.83 21 4.96 20.94 5.05 20.85L7.92 17.95H15.21C15.91 18.77 16.96 19.29 18.13 19.29C20.27 19.29 22 17.56 22 15.43C22 13.98 21.2 12.72 20.02 12.06ZM7.71 16.95C7.58 16.95 7.45 17.01 7.36 17.1L5.2 19.28V16.92C5.2 16.73 5.1 16.56 4.93 16.48C3.74 15.84 3 14.6 3 13.24V7.73001C3 5.67001 4.67 4 6.72 4H15.3C17.35 4 19.02 5.67001 19.02 7.73001V11.68C18.74 11.61 18.44 11.57 18.13 11.57C16 11.57 14.27 13.3 14.27 15.43C14.27 15.97 14.38 16.48 14.58 16.95H7.71ZM18.13 18.54C17.4 18.54 16.73 18.28 16.19 17.86C15.88 17.61 15.61 17.29 15.42 16.94C15.16 16.49 15.02 15.98 15.02 15.43C15.02 13.71 16.42 12.32 18.13 12.32C18.44 12.32 18.74 12.36 19.02 12.45C19.39 12.56 19.73 12.73 20.02 12.96C20.77 13.53 21.25 14.42 21.25 15.43C21.25 17.14 19.85 18.54 18.13 18.54Z" fill="#BF283A"/>
<path d="M15.6204 10.8999H6.40039C6.12039 10.8999 5.90039 10.6799 5.90039 10.3999C5.90039 10.1199 6.12039 9.8999 6.40039 9.8999H15.6204C15.9004 9.8999 16.1204 10.1199 16.1204 10.3999C16.1204 10.6799 15.9004 10.8999 15.6204 10.8999Z" fill="#BF283A"/>
<path d="M15.6204 7.96997H6.40039C6.12039 7.96997 5.90039 7.74997 5.90039 7.46997C5.90039 7.18997 6.12039 6.96997 6.40039 6.96997H15.6204C15.9004 6.96997 16.1204 7.18997 16.1204 7.46997C16.1204 7.74997 15.9004 7.96997 15.6204 7.96997Z" fill="#BF283A"/>
<path d="M10.3904 13.8401H6.40039C6.12039 13.8401 5.90039 13.6201 5.90039 13.3401C5.90039 13.0601 6.12039 12.8401 6.40039 12.8401H10.3904C10.6704 12.8401 10.8904 13.0601 10.8904 13.3401C10.8904 13.6201 10.6704 13.8401 10.3904 13.8401Z" fill="#BF283A"/>
<path d="M16.3301 15.4302H19.9401" stroke="#BF283A" stroke-width="0.75" stroke-linecap="round" stroke-linejoin="round"/>
<path d="M18.1309 17.2399V13.6299" stroke="#BF283A" stroke-width="0.75" stroke-linecap="round" stroke-linejoin="round"/>
</svg>
