<svg width="24" height="24" viewBox="0 0 24 24" fill="none" xmlns="http://www.w3.org/2000/svg">
<path d="M21 4H3" stroke="#354752" stroke-linecap="round" stroke-linejoin="round"/>
<path d="M21 20H3" stroke="#354752" stroke-linecap="round" stroke-linejoin="round"/>
<mask id="path-3-inside-1_4112_384707" fill="white">
<path d="M17.6499 8C18.3399 8 18.8999 8.56 18.8999 9.25V14.75C18.8999 15.44 18.3399 16 17.6499 16H12.1499C11.4599 16 10.8999 15.44 10.8999 14.75V9.25C10.8999 8.56 11.4599 8 12.1499 8H17.6499ZM17.6499 7H12.1499C10.9099 7 9.8999 8.01 9.8999 9.25V14.75C9.8999 15.99 10.9099 17 12.1499 17H17.6499C18.8899 17 19.8999 15.99 19.8999 14.75V9.25C19.8999 8.01 18.8899 7 17.6499 7Z"/>
</mask>
<path d="M17.6499 8C18.3399 8 18.8999 8.56 18.8999 9.25V14.75C18.8999 15.44 18.3399 16 17.6499 16H12.1499C11.4599 16 10.8999 15.44 10.8999 14.75V9.25C10.8999 8.56 11.4599 8 12.1499 8H17.6499ZM17.6499 7H12.1499C10.9099 7 9.8999 8.01 9.8999 9.25V14.75C9.8999 15.99 10.9099 17 12.1499 17H17.6499C18.8899 17 19.8999 15.99 19.8999 14.75V9.25C19.8999 8.01 18.8899 7 17.6499 7Z" fill="#354752"/>
<path d="M17.6499 9C17.7876 9 17.8999 9.11228 17.8999 9.25H19.8999C19.8999 8.00772 18.8922 7 17.6499 7V9ZM17.8999 9.25V14.75H19.8999V9.25H17.8999ZM17.8999 14.75C17.8999 14.8877 17.7876 15 17.6499 15V17C18.8922 17 19.8999 15.9923 19.8999 14.75H17.8999ZM17.6499 15H12.1499V17H17.6499V15ZM12.1499 15C12.0122 15 11.8999 14.8877 11.8999 14.75H9.8999C9.8999 15.9923 10.9076 17 12.1499 17V15ZM11.8999 14.75V9.25H9.8999V14.75H11.8999ZM11.8999 9.25C11.8999 9.11228 12.0122 9 12.1499 9V7C10.9076 7 9.8999 8.00772 9.8999 9.25H11.8999ZM12.1499 9H17.6499V7H12.1499V9ZM17.6499 6H12.1499V8H17.6499V6ZM12.1499 6C10.3576 6 8.8999 7.45772 8.8999 9.25H10.8999C10.8999 8.56228 11.4622 8 12.1499 8V6ZM8.8999 9.25V14.75H10.8999V9.25H8.8999ZM8.8999 14.75C8.8999 16.5423 10.3576 18 12.1499 18V16C11.4622 16 10.8999 15.4377 10.8999 14.75H8.8999ZM12.1499 18H17.6499V16H12.1499V18ZM17.6499 18C19.4422 18 20.8999 16.5423 20.8999 14.75H18.8999C18.8999 15.4377 18.3376 16 17.6499 16V18ZM20.8999 14.75V9.25H18.8999V14.75H20.8999ZM20.8999 9.25C20.8999 7.45772 19.4422 6 17.6499 6V8C18.3376 8 18.8999 8.56228 18.8999 9.25H20.8999Z" fill="#354752" mask="url(#path-3-inside-1_4112_384707)"/>
<path d="M8.36986 7.20001H4.10986" stroke="#354752" stroke-linecap="round" stroke-linejoin="round"/>
<path d="M8.36986 10.4H4.10986" stroke="#354752" stroke-linecap="round" stroke-linejoin="round"/>
<path d="M8.36986 13.6H4.10986" stroke="#354752" stroke-linecap="round" stroke-linejoin="round"/>
<path d="M8.36986 16.8H4.10986" stroke="#354752" stroke-linecap="round" stroke-linejoin="round"/>
</svg>
