<svg width="24" height="24" viewBox="0 0 24 24" fill="none" xmlns="http://www.w3.org/2000/svg">
<path d="M3 4H21" stroke="#354752" stroke-linecap="round" stroke-linejoin="round"/>
<path d="M3 20H21" stroke="#354752" stroke-linecap="round" stroke-linejoin="round"/>
<mask id="path-3-inside-1_4112_384695" fill="white">
<path d="M11.8601 8C12.5501 8 13.1101 8.56 13.1101 9.25V14.75C13.1101 15.44 12.5501 16 11.8601 16H6.3501C5.6601 16 5.1001 15.44 5.1001 14.75V9.25C5.1001 8.56 5.6601 8 6.3501 8H11.8501H11.8601ZM11.8501 7H6.3501C5.1101 7 4.1001 8.01 4.1001 9.25V14.75C4.1001 15.99 5.1101 17 6.3501 17H11.8501C13.0901 17 14.1001 15.99 14.1001 14.75V9.25C14.1001 8.01 13.0901 7 11.8501 7Z"/>
</mask>
<path d="M11.8601 8C12.5501 8 13.1101 8.56 13.1101 9.25V14.75C13.1101 15.44 12.5501 16 11.8601 16H6.3501C5.6601 16 5.1001 15.44 5.1001 14.75V9.25C5.1001 8.56 5.6601 8 6.3501 8H11.8501H11.8601ZM11.8501 7H6.3501C5.1101 7 4.1001 8.01 4.1001 9.25V14.75C4.1001 15.99 5.1101 17 6.3501 17H11.8501C13.0901 17 14.1001 15.99 14.1001 14.75V9.25C14.1001 8.01 13.0901 7 11.8501 7Z" fill="#354752"/>
<path d="M11.8601 9C11.9978 9 12.1101 9.11229 12.1101 9.25H14.1101C14.1101 8.00771 13.1024 7 11.8601 7V9ZM12.1101 9.25V14.75H14.1101V9.25H12.1101ZM12.1101 14.75C12.1101 14.8877 11.9978 15 11.8601 15V17C13.1024 17 14.1101 15.9923 14.1101 14.75H12.1101ZM11.8601 15H6.3501V17H11.8601V15ZM6.3501 15C6.21238 15 6.1001 14.8877 6.1001 14.75H4.1001C4.1001 15.9923 5.10781 17 6.3501 17V15ZM6.1001 14.75V9.25H4.1001V14.75H6.1001ZM6.1001 9.25C6.1001 9.11228 6.21238 9 6.3501 9V7C5.10781 7 4.1001 8.00772 4.1001 9.25H6.1001ZM6.3501 9H11.8501V7H6.3501V9ZM11.8501 9H11.8601V7H11.8501V9ZM11.8501 6H6.3501V8H11.8501V6ZM6.3501 6C4.55781 6 3.1001 7.45772 3.1001 9.25H5.1001C5.1001 8.56228 5.66238 8 6.3501 8V6ZM3.1001 9.25V14.75H5.1001V9.25H3.1001ZM3.1001 14.75C3.1001 16.5423 4.55781 18 6.3501 18V16C5.66238 16 5.1001 15.4377 5.1001 14.75H3.1001ZM6.3501 18H11.8501V16H6.3501V18ZM11.8501 18C13.6424 18 15.1001 16.5423 15.1001 14.75H13.1001C13.1001 15.4377 12.5378 16 11.8501 16V18ZM15.1001 14.75V9.25H13.1001V14.75H15.1001ZM15.1001 9.25C15.1001 7.45772 13.6424 6 11.8501 6V8C12.5378 8 13.1001 8.56228 13.1001 9.25H15.1001Z" fill="#354752" mask="url(#path-3-inside-1_4112_384695)"/>
<path d="M15.6299 7.20001H19.8999" stroke="#354752" stroke-linecap="round" stroke-linejoin="round"/>
<path d="M15.6299 10.4H19.8999" stroke="#354752" stroke-linecap="round" stroke-linejoin="round"/>
<path d="M15.6299 13.6H19.8999" stroke="#354752" stroke-linecap="round" stroke-linejoin="round"/>
<path d="M15.6299 16.8H19.8999" stroke="#354752" stroke-linecap="round" stroke-linejoin="round"/>
</svg>
