<svg width="24" height="24" viewBox="0 0 24 24" fill="none" xmlns="http://www.w3.org/2000/svg">
<path d="M3 4H21" stroke="#354752" stroke-linecap="round" stroke-linejoin="round"/>
<path d="M3 20H21" stroke="#354752" stroke-linecap="round" stroke-linejoin="round"/>
<mask id="path-3-inside-1_4112_384701" fill="white">
<path d="M18.75 7.84998C19.44 7.84998 20 8.40998 20 9.09998V14.9C20 15.59 19.44 16.15 18.75 16.15H5.25C4.56 16.15 4 15.59 4 14.9V9.09998C4 8.40998 4.56 7.84998 5.25 7.84998H18.75ZM18.75 6.84998H5.25C4.01 6.84998 3 7.85998 3 9.09998V14.9C3 16.14 4.01 17.15 5.25 17.15H18.75C19.99 17.15 21 16.14 21 14.9V9.09998C21 7.85998 19.99 6.84998 18.75 6.84998Z"/>
</mask>
<path d="M18.75 7.84998C19.44 7.84998 20 8.40998 20 9.09998V14.9C20 15.59 19.44 16.15 18.75 16.15H5.25C4.56 16.15 4 15.59 4 14.9V9.09998C4 8.40998 4.56 7.84998 5.25 7.84998H18.75ZM18.75 6.84998H5.25C4.01 6.84998 3 7.85998 3 9.09998V14.9C3 16.14 4.01 17.15 5.25 17.15H18.75C19.99 17.15 21 16.14 21 14.9V9.09998C21 7.85998 19.99 6.84998 18.75 6.84998Z" fill="#354752"/>
<path d="M18.75 8.84998C18.8877 8.84998 19 8.96226 19 9.09998H21C21 7.85769 19.9923 6.84998 18.75 6.84998V8.84998ZM19 9.09998V14.9H21V9.09998H19ZM19 14.9C19 15.0377 18.8877 15.15 18.75 15.15V17.15C19.9923 17.15 21 16.1423 21 14.9H19ZM18.75 15.15H5.25V17.15H18.75V15.15ZM5.25 15.15C5.11228 15.15 5 15.0377 5 14.9H3C3 16.1423 4.00772 17.15 5.25 17.15V15.15ZM5 14.9V9.09998H3V14.9H5ZM5 9.09998C5 8.96226 5.11228 8.84998 5.25 8.84998V6.84998C4.00772 6.84998 3 7.85769 3 9.09998H5ZM5.25 8.84998H18.75V6.84998H5.25V8.84998ZM18.75 5.84998H5.25V7.84998H18.75V5.84998ZM5.25 5.84998C3.45772 5.84998 2 7.30769 2 9.09998H4C4 8.41226 4.56228 7.84998 5.25 7.84998V5.84998ZM2 9.09998V14.9H4V9.09998H2ZM2 14.9C2 16.6923 3.45772 18.15 5.25 18.15V16.15C4.56228 16.15 4 15.5877 4 14.9H2ZM5.25 18.15H18.75V16.15H5.25V18.15ZM18.75 18.15C20.5423 18.15 22 16.6923 22 14.9H20C20 15.5877 19.4377 16.15 18.75 16.15V18.15ZM22 14.9V9.09998H20V14.9H22ZM22 9.09998C22 7.30769 20.5423 5.84998 18.75 5.84998V7.84998C19.4377 7.84998 20 8.41226 20 9.09998H22Z" fill="#354752" mask="url(#path-3-inside-1_4112_384701)"/>
</svg>
