<svg width="24" height="24" viewBox="0 0 24 24" fill="none" xmlns="http://www.w3.org/2000/svg">
<path d="M3 4H21" stroke="#354752" stroke-linecap="round" stroke-linejoin="round"/>
<path d="M3 20H21" stroke="#354752" stroke-linecap="round" stroke-linejoin="round"/>
<mask id="path-3-inside-1_4112_384698" fill="white">
<path d="M14.75 8C15.44 8 16 8.56 16 9.25V14.75C16 15.44 15.44 16 14.75 16H9.25C8.56 16 8 15.44 8 14.75V9.25C8 8.56 8.56 8 9.25 8H14.75ZM14.75 7H9.25C8.01 7 7 8.01 7 9.25V14.75C7 15.99 8.01 17 9.25 17H14.75C15.99 17 17 15.99 17 14.75V9.25C17 8.01 15.99 7 14.75 7Z"/>
</mask>
<path d="M14.75 8C15.44 8 16 8.56 16 9.25V14.75C16 15.44 15.44 16 14.75 16H9.25C8.56 16 8 15.44 8 14.75V9.25C8 8.56 8.56 8 9.25 8H14.75ZM14.75 7H9.25C8.01 7 7 8.01 7 9.25V14.75C7 15.99 8.01 17 9.25 17H14.75C15.99 17 17 15.99 17 14.75V9.25C17 8.01 15.99 7 14.75 7Z" fill="#354752"/>
<path d="M14.75 9C14.8877 9 15 9.11228 15 9.25H17C17 8.00772 15.9923 7 14.75 7V9ZM15 9.25V14.75H17V9.25H15ZM15 14.75C15 14.8877 14.8877 15 14.75 15V17C15.9923 17 17 15.9923 17 14.75H15ZM14.75 15H9.25V17H14.75V15ZM9.25 15C9.11228 15 9 14.8877 9 14.75H7C7 15.9923 8.00772 17 9.25 17V15ZM9 14.75V9.25H7V14.75H9ZM9 9.25C9 9.11228 9.11228 9 9.25 9V7C8.00772 7 7 8.00772 7 9.25H9ZM9.25 9H14.75V7H9.25V9ZM14.75 6H9.25V8H14.75V6ZM9.25 6C7.45772 6 6 7.45772 6 9.25H8C8 8.56228 8.56228 8 9.25 8V6ZM6 9.25V14.75H8V9.25H6ZM6 14.75C6 16.5423 7.45772 18 9.25 18V16C8.56228 16 8 15.4377 8 14.75H6ZM9.25 18H14.75V16H9.25V18ZM14.75 18C16.5423 18 18 16.5423 18 14.75H16C16 15.4377 15.4377 16 14.75 16V18ZM18 14.75V9.25H16V14.75H18ZM18 9.25C18 7.45772 16.5423 6 14.75 6V8C15.4377 8 16 8.56228 16 9.25H18Z" fill="#354752" mask="url(#path-3-inside-1_4112_384698)"/>
</svg>
