<svg width="20" height="18" viewBox="0 0 20 18" fill="none" xmlns="http://www.w3.org/2000/svg">
<path d="M18.48 5.6599H15.95V1.99289C15.951 1.79251 15.9124 1.5939 15.8365 1.40845C15.7607 1.223 15.6489 1.05435 15.5077 0.912201C15.3665 0.770048 15.1986 0.657183 15.0137 0.580078C14.8287 0.502973 14.6303 0.463151 14.4299 0.462891H5.59998C5.39956 0.463019 5.20112 0.50276 5.01611 0.579819C4.8311 0.656877 4.6631 0.769732 4.52185 0.911911C4.3806 1.05409 4.26884 1.22278 4.19299 1.40829C4.11715 1.59381 4.07877 1.79248 4.07996 1.99289V5.66289H1.52991C1.12461 5.66447 0.736418 5.82617 0.449829 6.11276C0.16324 6.39935 0.00158011 6.78759 0 7.19289V16.0129C0.00158011 16.4182 0.16324 16.8064 0.449829 17.093C0.736418 17.3796 1.12461 17.5413 1.52991 17.5429H18.48C18.8842 17.5408 19.271 17.3786 19.5559 17.0918C19.8408 16.8051 20.0005 16.4171 20 16.0129V7.19289C20.0013 6.78815 19.842 6.39942 19.557 6.11201C19.272 5.82461 18.8847 5.66201 18.48 5.6599ZM1.52991 16.5399C1.38959 16.5391 1.25523 16.483 1.15601 16.3838C1.05678 16.2846 1.00079 16.1502 1 16.0099V7.19289C1.00079 7.05256 1.05678 6.91822 1.15601 6.819C1.25523 6.71978 1.38959 6.66368 1.52991 6.66289H4.07996V7.8129H2.27991C2.1473 7.8129 2.02016 7.86557 1.92639 7.95934C1.83262 8.0531 1.77991 8.18029 1.77991 8.3129C1.77991 8.44551 1.83262 8.57267 1.92639 8.66644C2.02016 8.76021 2.1473 8.8129 2.27991 8.8129H4.07996V10.2229H2.27991C2.1473 10.2229 2.02016 10.2756 1.92639 10.3693C1.83262 10.4631 1.77991 10.5903 1.77991 10.7229C1.77991 10.8555 1.83262 10.9827 1.92639 11.0764C2.02016 11.1702 2.1473 11.2229 2.27991 11.2229H4.07996V12.6429H2.27991C2.1473 12.6429 2.02016 12.6956 1.92639 12.7893C1.83262 12.8831 1.77991 13.0103 1.77991 13.1429C1.77991 13.2755 1.83262 13.4027 1.92639 13.4964C2.02016 13.5902 2.1473 13.6429 2.27991 13.6429H4.07996V16.0129C4.0764 16.1946 4.11042 16.375 4.17993 16.5429L1.52991 16.5399ZM14.95 16.0099C14.9506 16.0788 14.9376 16.1472 14.9119 16.2112C14.8861 16.2751 14.848 16.3334 14.7997 16.3826C14.7514 16.4318 14.6939 16.471 14.6305 16.498C14.567 16.525 14.4989 16.5392 14.4299 16.5399H5.59998C5.53103 16.5392 5.46286 16.525 5.39941 16.498C5.33597 16.471 5.27851 16.4318 5.23022 16.3826C5.18194 16.3334 5.14382 16.2751 5.11804 16.2112C5.09227 16.1472 5.0793 16.0788 5.07996 16.0099V1.99289C5.0793 1.92394 5.09227 1.85554 5.11804 1.7916C5.14382 1.72765 5.18194 1.66941 5.23022 1.62019C5.27851 1.57098 5.33597 1.53175 5.39941 1.50476C5.46286 1.47777 5.53103 1.46354 5.59998 1.46289H14.4299C14.4989 1.46354 14.567 1.47777 14.6305 1.50476C14.6939 1.53175 14.7514 1.57098 14.7997 1.62019C14.848 1.66941 14.8861 1.72765 14.9119 1.7916C14.9376 1.85554 14.9506 1.92394 14.95 1.99289V16.0099ZM19 16.0099C19.0007 16.0788 18.9877 16.1472 18.9619 16.2112C18.9361 16.2751 18.898 16.3334 18.8497 16.3826C18.8014 16.4318 18.7439 16.471 18.6804 16.498C18.617 16.525 18.5489 16.5392 18.48 16.5399H15.85C15.9195 16.372 15.9535 16.1916 15.95 16.0099V13.6399H17.73C17.8626 13.6399 17.9897 13.5872 18.0835 13.4934C18.1773 13.3997 18.23 13.2725 18.23 13.1399C18.23 13.0073 18.1773 12.8801 18.0835 12.7863C17.9897 12.6926 17.8626 12.6399 17.73 12.6399H15.95V11.2199H17.73C17.8626 11.2199 17.9897 11.1672 18.0835 11.0734C18.1773 10.9797 18.23 10.8525 18.23 10.7199C18.23 10.5873 18.1773 10.4601 18.0835 10.3663C17.9897 10.2726 17.8626 10.2199 17.73 10.2199H15.95V8.80989H17.73C17.8626 8.80989 17.9897 8.75721 18.0835 8.66344C18.1773 8.56967 18.23 8.4425 18.23 8.30989C18.23 8.17728 18.1773 8.0501 18.0835 7.95633C17.9897 7.86256 17.8626 7.80989 17.73 7.80989H15.95V6.6599H18.48C18.5489 6.66055 18.617 6.67478 18.6804 6.70177C18.7439 6.72876 18.8014 6.76797 18.8497 6.81718C18.898 6.8664 18.9361 6.92465 18.9619 6.9886C18.9877 7.05255 19.0007 7.12095 19 7.1899V16.0099Z" fill="#8798A1"/>
<path d="M13.6801 2.95898C13.6801 3.09159 13.6273 3.21878 13.5336 3.31255C13.4398 3.40631 13.3127 3.45898 13.1801 3.45898H6.8501C6.71749 3.45898 6.59023 3.40631 6.49646 3.31255C6.40269 3.21878 6.3501 3.09159 6.3501 2.95898C6.3501 2.82638 6.40269 2.69921 6.49646 2.60544C6.59023 2.51167 6.71749 2.45898 6.8501 2.45898H13.1801C13.3127 2.45898 13.4398 2.51167 13.5336 2.60544C13.6273 2.69921 13.6801 2.82638 13.6801 2.95898Z" fill="#8798A1"/>
<path d="M13.6796 6.29297C13.68 6.36331 13.665 6.43288 13.6357 6.4968C13.6063 6.56071 13.5632 6.61743 13.5096 6.66296C13.4198 6.74624 13.3021 6.79266 13.1796 6.79297H6.84967C6.72426 6.79265 6.60322 6.7464 6.50958 6.66296C6.4582 6.61617 6.41742 6.55897 6.38983 6.49518C6.36225 6.43139 6.34857 6.36246 6.34967 6.29297C6.34967 6.16036 6.40226 6.03318 6.49603 5.93941C6.5898 5.84564 6.71706 5.79297 6.84967 5.79297H13.1796C13.3122 5.79297 13.4394 5.84564 13.5331 5.93941C13.6269 6.03318 13.6796 6.16036 13.6796 6.29297Z" fill="#8798A1"/>
<path d="M13.6801 12.9492C13.6801 13.0818 13.6273 13.209 13.5336 13.3028C13.4398 13.3965 13.3127 13.4492 13.1801 13.4492H6.8501C6.71749 13.4492 6.59023 13.3965 6.49646 13.3028C6.40269 13.209 6.3501 13.0818 6.3501 12.9492C6.3501 12.8166 6.40269 12.6894 6.49646 12.5957C6.59023 12.5019 6.71749 12.4492 6.8501 12.4492H13.1801C13.3127 12.4492 13.4398 12.5019 13.5336 12.5957C13.6273 12.6894 13.6801 12.8166 13.6801 12.9492Z" fill="#8798A1"/>
<path d="M13.6801 9.61914C13.6801 9.75175 13.6273 9.87893 13.5336 9.9727C13.4398 10.0665 13.3127 10.1191 13.1801 10.1191H6.8501C6.71749 10.1191 6.59023 10.0665 6.49646 9.9727C6.40269 9.87893 6.3501 9.75175 6.3501 9.61914C6.3501 9.48653 6.40269 9.35936 6.49646 9.26559C6.59023 9.17183 6.71749 9.11914 6.8501 9.11914H13.1801C13.3127 9.11914 13.4398 9.17183 13.5336 9.26559C13.6273 9.35936 13.6801 9.48653 13.6801 9.61914Z" fill="#8798A1"/>
<path d="M14.95 8.20898V8.409C14.9366 8.34301 14.9366 8.27497 14.95 8.20898Z" fill="#8798A1"/>
<path d="M14.9501 10.6191V10.8191C14.9413 10.7866 14.9379 10.7528 14.9401 10.7191C14.9384 10.6855 14.9418 10.6518 14.9501 10.6191Z" fill="#8798A1"/>
<path d="M14.9501 13.0391V13.2391C14.9413 13.2065 14.9379 13.1727 14.9401 13.1391C14.9384 13.1054 14.9418 13.0717 14.9501 13.0391Z" fill="#8798A1"/>
</svg>
