<svg width="8" height="14" viewBox="0 0 8 14" fill="none" xmlns="http://www.w3.org/2000/svg">
<path d="M0.11741 11.655L2.6567 6.68072L0.11741 1.7064C-0.00448437 1.45264 -0.0325229 1.16391 0.0382447 0.891438C0.109012 0.618967 0.274026 0.380381 0.503997 0.218016C0.733967 0.0556508 1.01402 -0.0199847 1.29446 0.00452321C1.57491 0.0290311 1.83758 0.152101 2.03591 0.351895L7.64907 5.85144C7.76011 5.9592 7.84837 6.08815 7.90865 6.23066C7.96894 6.37316 8.00001 6.52632 8.00001 6.68105C8.00001 6.83579 7.96894 6.98894 7.90865 7.13145C7.84837 7.27395 7.76011 7.40291 7.64907 7.51066L2.03591 13.0096C1.83758 13.2093 1.57491 13.3324 1.29446 13.3569C1.01402 13.3814 0.733967 13.3058 0.503997 13.1434C0.274026 12.9811 0.109012 12.7425 0.0382447 12.47C-0.0325229 12.1975 -0.00448437 11.9088 0.11741 11.655V11.655Z" fill="#2092E4"/>
</svg>
