<svg width="8" height="14" viewBox="0 0 8 14" fill="none" xmlns="http://www.w3.org/2000/svg">
<path d="M7.88259 2.34496L5.3433 7.31928L7.88259 12.2936C8.00448 12.5474 8.03252 12.8361 7.96176 13.1086C7.89099 13.381 7.72597 13.6196 7.496 13.782C7.26603 13.9443 6.98598 14.02 6.70554 13.9955C6.42509 13.971 6.16242 13.8479 5.96409 13.6481L0.350928 8.14856C0.239889 8.0408 0.151631 7.91185 0.0913482 7.76934C0.031065 7.62684 -1.15975e-05 7.47368 -1.15831e-05 7.31895C-1.15686e-05 7.16421 0.0310651 7.01105 0.0913483 6.86855C0.151632 6.72604 0.239889 6.59709 0.350929 6.48933L5.9641 0.99045C6.16242 0.790656 6.4251 0.667586 6.70554 0.643078C6.98598 0.61857 7.26603 0.694216 7.496 0.856581C7.72597 1.01895 7.89099 1.25753 7.96176 1.53C8.03252 1.80247 8.00449 2.09121 7.88259 2.34496V2.34496Z" fill="#2092E4"/>
</svg>
