<svg width="18" height="18" viewBox="0 0 18 18" fill="none" xmlns="http://www.w3.org/2000/svg">
<path d="M9.00002 8.62698C10.6342 8.62698 11.959 7.3022 11.959 5.66798C11.959 4.03377 10.6342 2.70898 9.00002 2.70898C7.36581 2.70898 6.04102 4.03377 6.04102 5.66798C6.04102 7.3022 7.36581 8.62698 9.00002 8.62698Z" stroke="#BF283A" stroke-miterlimit="10"/>
<path d="M7.43584 10.199H10.5638C11.3462 10.199 12.0966 10.5098 12.6498 11.063C13.203 11.6162 13.5138 12.3666 13.5138 13.149V13.149C13.5138 13.7165 13.2884 14.2609 12.887 14.6622C12.4857 15.0635 11.9414 15.289 11.3738 15.289H6.62584C6.34481 15.289 6.06653 15.2336 5.8069 15.1261C5.54726 15.0185 5.31135 14.8609 5.11263 14.6622C4.7113 14.2609 4.48584 13.7165 4.48584 13.149C4.48584 12.3666 4.79664 11.6162 5.34987 11.063C5.90311 10.5098 6.65345 10.199 7.43584 10.199V10.199Z" stroke="#BF283A" stroke-miterlimit="10"/>
<path d="M9 17.499C13.6944 17.499 17.5 13.6934 17.5 8.99902C17.5 4.3046 13.6944 0.499023 9 0.499023C4.30558 0.499023 0.5 4.3046 0.5 8.99902C0.5 13.6934 4.30558 17.499 9 17.499Z" stroke="#BF283A" stroke-miterlimit="10"/>
</svg>
