<svg width="20" height="18" viewBox="0 0 20 18" fill="none" xmlns="http://www.w3.org/2000/svg">
<path d="M18.48 5.66003H15.95V1.98999C15.9511 1.78958 15.9128 1.59091 15.8369 1.4054C15.7611 1.21988 15.6493 1.05124 15.5081 0.909058C15.3668 0.766878 15.1988 0.653963 15.0138 0.576904C14.8288 0.499846 14.6305 0.460089 14.4301 0.459961H5.59998C5.3996 0.460221 5.20131 0.500043 5.01636 0.577148C4.83141 0.654254 4.66344 0.767149 4.52222 0.909302C4.38099 1.05145 4.26925 1.22007 4.19336 1.40552C4.11747 1.59097 4.0789 1.78961 4.07996 1.98999V5.66003H1.53003C1.12491 5.66161 0.736756 5.82312 0.450195 6.1095C0.163635 6.39587 0.0018432 6.78384 0 7.18896V16.01C0.00158011 16.4153 0.16324 16.8035 0.449829 17.0901C0.736418 17.3767 1.12473 17.5383 1.53003 17.5399H18.48C18.8842 17.5378 19.2711 17.3756 19.556 17.0889C19.8409 16.8021 20.0005 16.4142 20 16.01V7.18896C20.0003 6.78492 19.8405 6.39726 19.5557 6.11072C19.2708 5.82418 18.884 5.66215 18.48 5.66003V5.66003ZM1.53003 16.5399C1.38971 16.5391 1.25535 16.4831 1.15613 16.3839C1.0569 16.2847 1.00079 16.1503 1 16.01V7.18896C1.00105 7.04882 1.0573 6.91468 1.15649 6.81567C1.25569 6.71667 1.38988 6.66082 1.53003 6.66003H4.07996V7.80896H2.28003C2.14742 7.80896 2.02028 7.86168 1.92651 7.95544C1.83275 8.04921 1.78003 8.17635 1.78003 8.30896C1.78003 8.44157 1.83275 8.56871 1.92651 8.66248C2.02028 8.75624 2.14742 8.80896 2.28003 8.80896H4.07996V10.22H2.28003C2.14742 10.22 2.02028 10.2727 1.92651 10.3665C1.83275 10.4602 1.78003 10.5874 1.78003 10.72C1.78003 10.8526 1.83275 10.9797 1.92651 11.0735C2.02028 11.1673 2.14742 11.22 2.28003 11.22H4.07996V12.64H2.28003C2.14742 12.64 2.02028 12.6926 1.92651 12.7864C1.83275 12.8801 1.78003 13.0074 1.78003 13.14C1.78003 13.2726 1.83275 13.3998 1.92651 13.4935C2.02028 13.5873 2.14742 13.64 2.28003 13.64H4.07996V16.01C4.07634 16.1917 4.11049 16.372 4.18005 16.5399H1.53003ZM14.95 16.01C14.9506 16.079 14.9378 16.1474 14.912 16.2113C14.8862 16.2753 14.8481 16.3335 14.7998 16.3827C14.7515 16.4319 14.6939 16.4711 14.6305 16.498C14.567 16.525 14.499 16.5393 14.4301 16.5399H5.59998C5.53103 16.5393 5.46298 16.525 5.39954 16.498C5.33609 16.4711 5.27851 16.4319 5.23022 16.3827C5.18194 16.3335 5.14382 16.2753 5.11804 16.2113C5.09227 16.1474 5.0793 16.079 5.07996 16.01V1.98999C5.0793 1.92105 5.09227 1.85264 5.11804 1.7887C5.14382 1.72475 5.18194 1.66653 5.23022 1.61731C5.27851 1.56809 5.33609 1.52882 5.39954 1.50183C5.46298 1.47484 5.53103 1.46061 5.59998 1.45996H14.4301C14.499 1.46061 14.567 1.47484 14.6305 1.50183C14.6939 1.52882 14.7515 1.56809 14.7998 1.61731C14.8481 1.66653 14.8862 1.72475 14.912 1.7887C14.9378 1.85264 14.9506 1.92105 14.95 1.98999V16.01ZM19 16.01C19.0007 16.079 18.9877 16.1474 18.9619 16.2113C18.9361 16.2753 18.898 16.3335 18.8497 16.3827C18.8014 16.4319 18.744 16.4711 18.6805 16.498C18.6171 16.525 18.5489 16.5393 18.48 16.5399H15.85C15.9195 16.372 15.9536 16.1917 15.95 16.01V13.64H17.73C17.8626 13.64 17.9898 13.5873 18.0836 13.4935C18.1774 13.3998 18.23 13.2726 18.23 13.14C18.23 13.0074 18.1774 12.8801 18.0836 12.7864C17.9898 12.6926 17.8626 12.64 17.73 12.64H15.95V11.22H17.73C17.8626 11.22 17.9898 11.1673 18.0836 11.0735C18.1774 10.9797 18.23 10.8526 18.23 10.72C18.23 10.5874 18.1774 10.4602 18.0836 10.3665C17.9898 10.2727 17.8626 10.22 17.73 10.22H15.95V8.80896H17.73C17.8626 8.80896 17.9898 8.75624 18.0836 8.66248C18.1774 8.56871 18.23 8.44157 18.23 8.30896C18.23 8.17635 18.1774 8.04921 18.0836 7.95544C17.9898 7.86168 17.8626 7.80896 17.73 7.80896H15.95V6.66003H18.48C18.619 6.66135 18.752 6.71772 18.8495 6.81689C18.947 6.91607 19.0011 7.0499 19 7.18896V16.01Z" fill="#BF283A"/>
</svg>
