<svg width="24" height="24" viewBox="0 0 24 24" fill="none" xmlns="http://www.w3.org/2000/svg">
<path d="M14.8697 18.68L20.0298 6.70005C20.2898 6.10005 20.1998 5.41001 19.7898 4.91001C19.3798 4.40001 18.7398 4.16 18.0898 4.28L5.27977 6.68003C4.55977 6.81003 4.02975 7.33 3.87975 8.03C3.72975 8.74 4.00978 9.43006 4.59978 9.84006L8.96977 12.8701L9.26976 13.07C9.36976 13.14 9.45975 13.2501 9.50975 13.3701L9.63976 13.7101L11.6297 18.6401C11.6997 18.8101 11.7898 18.9501 11.8898 19.0901C12.2098 19.4901 12.6898 19.7301 13.2298 19.7401C13.9598 19.7501 14.5797 19.35 14.8697 18.68ZM13.2497 18.67C13.1397 18.67 12.7797 18.6301 12.6197 18.2401L10.5198 13.0101L15.3298 9.17002C15.5598 8.98002 15.5898 8.64002 15.4098 8.42002C15.2198 8.19002 14.8898 8.15006 14.6598 8.34006L9.84978 12.18L5.20976 8.97007C4.85976 8.73007 4.90974 8.37011 4.93974 8.27011C4.94974 8.16011 5.05978 7.82009 5.47978 7.74009L18.2998 5.34006C18.5498 5.29006 18.7897 5.40006 18.9397 5.59006C19.0897 5.77006 19.1398 6.03011 19.0498 6.27011L13.8898 18.2501C13.7098 18.6401 13.3497 18.67 13.2497 18.67Z" fill="white"/>
</svg>
