<svg width="24" height="24" viewBox="0 0 24 24" fill="none" xmlns="http://www.w3.org/2000/svg">
<path d="M12 0C5.38 0 0 5.38 0 12C0 18.62 5.38 24 12 24C18.62 24 24 18.61 24 12C24 5.39 18.62 0 12 0ZM12.54 22.99V17.22H13.78C16.89 17.22 19.43 14.68 19.43 11.57V10.29C19.43 9.81 19.03 9.42 18.55 9.42H17.27C15.17 9.42 13.34 10.57 12.37 12.27C12.37 9.15 9.84 6.62 6.73 6.62H5.45C4.97 6.62 4.57 7.01 4.57 7.5V8.77C4.57 11.89 7.11 14.42 10.22 14.42H11.54V22.99C5.68 22.75 1 17.9 1 12C1 6.1 5.93 1 12 1C18.07 1 23 5.93 23 12C23 18.07 18.36 22.7 12.54 22.99ZM12.63 16.22V15.06C12.63 12.5 14.71 10.42 17.27 10.42H18.43V11.57C18.43 14.13 16.34 16.22 13.78 16.22H12.63ZM11.37 12.27V13.42H10.22C7.66 13.42 5.57 11.34 5.57 8.77V7.62H6.73C9.29 7.62 11.37 9.7 11.37 12.27Z" fill="#8798A1"/>
</svg>
