<svg width="24" height="24" viewBox="0 0 24 24" fill="none" xmlns="http://www.w3.org/2000/svg">
<path d="M23.84 12.03C23.71 11.92 23.54 11.88 23.37 11.92C22.88 12.05 22.38 12.15 21.87 12.21C21.93 12.06 21.98 11.9 22.02 11.75C23.23 7.41 19.64 2.62 15.52 0.859996C11.12 -1 6.44 0.609996 3.75 3.04C2.2 4.43 0.31 6.98 0.03 11.2C0.00999997 11.48 0 11.76 0 12.05C0 16.72 2.44 22.06 6.06 22.73C6.38 22.79 6.68 22.81 6.97 22.81C7.73 22.81 8.43 22.63 9.02 22.28C10.19 21.58 10.48 20.49 10.74 19.52C10.96 18.72 11.16 17.97 11.83 17.42C11.89 17.37 11.95 17.32 12.02 17.29L11.98 17.53C11.49 20.53 13.52 23.38 16.52 23.87C16.82 23.92 17.12 23.95 17.42 23.95C18.57 23.95 19.68 23.59 20.63 22.91C21.83 22.05 22.63 20.78 22.86 19.33L23.99 12.48C24.02 12.32 23.96 12.15 23.84 12.03ZM11.2 16.64C10.28 17.38 10.01 18.39 9.77 19.26C9.53 20.16 9.32 20.93 8.51 21.42C7.68 21.92 6.74 21.84 6.25 21.75C3.3 21.19 0.71 16 1.02 11.27C1.28 7.38 3.02 5.04999 4.42 3.77999C6.13 2.22999 8.72 1.04999 11.49 1.04999C12.69 1.04999 13.92 1.26999 15.13 1.77999C18.78 3.33999 22.11 7.7 21.04 11.48C20.96 11.76 20.86 12.03 20.74 12.3C19.88 12.33 19.01 12.26 18.16 12.1C16.63 11.8 15.19 11.22 13.88 10.35C13.74 10.26 13.56 10.24 13.41 10.31C13.25 10.38 13.14 10.52 13.11 10.69L12.22 16.1C11.88 16.2 11.54 16.37 11.2 16.64ZM21.88 19.17C21.68 20.35 21.03 21.39 20.05 22.1C19.06 22.8 17.87 23.08 16.68 22.88C14.24 22.48 12.57 20.15 12.97 17.69L13.09 16.97L13.26 15.96L13.99 11.59C15.22 12.31 16.56 12.81 17.97 13.08C18.7 13.22 19.44 13.3 20.18 13.31C20.58 13.31 20.99 13.3 21.39 13.26C21.9 13.23 22.4 13.16 22.89 13.06L21.88 19.17Z" fill="#8798A1"/>
<path d="M17.11 15.8C17.11 15.8 17.06 15.86 17.02 15.88C16.95 15.93 16.86 15.94 16.78 15.92H16.76C16.66 15.9 16.57 15.84 16.51 15.74C16.42 15.59 16.25 15.5 16.08 15.52C15.93 15.54 15.79 15.64 15.72 15.79C15.66 15.93 15.53 16.01 15.38 16.01C15.33 16.01 15.28 16 15.23 15.98C15.04 15.9 14.95 15.68 15.04 15.49C15.21 15.09 15.58 14.82 16 14.77C16.48 14.73 16.92 14.96 17.16 15.37C17.24 15.51 17.22 15.69 17.11 15.8Z" fill="#8798A1"/>
<path d="M19.8895 19.67C19.5295 20.09 18.5295 20.81 17.3995 20.81C17.1895 20.81 16.9695 20.78 16.7595 20.73C15.5595 20.4 14.8695 19.23 14.7395 18.74C14.6695 18.5 14.7095 18.32 14.8295 18.19C15.1095 17.91 15.4195 18.16 15.6495 18.34C15.9495 18.57 16.4395 18.96 17.1595 19.12C18.0495 19.33 18.8195 19.07 19.2395 18.93C19.5195 18.83 19.8995 18.7 20.0495 19.07C20.1595 19.33 19.9595 19.57 19.8795 19.66L19.8895 19.67Z" fill="#8798A1"/>
<path d="M20.7101 16.38C20.7401 16.58 20.6001 16.77 20.3901 16.8C20.3701 16.8 20.3501 16.81 20.3401 16.81C20.1501 16.81 19.9901 16.67 19.9701 16.49C19.9401 16.31 19.8201 16.17 19.6501 16.12C19.5001 16.08 19.3401 16.13 19.2201 16.24C19.0801 16.39 18.8401 16.39 18.6901 16.24C18.6701 16.22 18.6501 16.2 18.6401 16.17C18.5501 16.03 18.5601 15.84 18.6901 15.71C18.9701 15.43 19.3501 15.32 19.7201 15.37C19.7601 15.38 19.8101 15.39 19.8501 15.4C20.3001 15.52 20.6401 15.91 20.7101 16.38Z" fill="#8798A1"/>
<path d="M10.3103 5.36C10.3103 5.79 10.1503 6.2 9.84031 6.5C9.54031 6.81 9.13031 6.98 8.70031 6.98H8.69031C8.26031 6.98 7.86031 6.82 7.55031 6.51C7.25031 6.21 7.08031 5.8 7.07031 5.37C7.07031 4.48 7.79031 3.75 8.69031 3.75C9.59031 3.75 10.3103 4.47 10.3103 5.36Z" fill="#8798A1"/>
<path d="M6.41973 9.01005C6.41973 9.43005 6.25973 9.84005 5.94973 10.1501C5.63973 10.4701 5.21973 10.6301 4.80973 10.6301C4.39973 10.6301 3.97973 10.48 3.66973 10.17C3.02973 9.54005 3.02973 8.51005 3.65973 7.87005C4.27973 7.23005 5.30973 7.23005 5.94973 7.86005C6.26973 8.18005 6.42973 8.59005 6.42973 9.00005L6.41973 9.01005Z" fill="#8798A1"/>
<path d="M8.03998 17.8499C7.68998 18.4499 7.05998 18.7899 6.40998 18.7899C6.09998 18.7899 5.77998 18.7099 5.48998 18.5399C5.05998 18.2899 4.74998 17.8899 4.60998 17.4099C4.47998 16.9299 4.54998 16.4299 4.79998 15.9899C5.03998 15.5599 5.43998 15.2499 5.91998 15.1199C6.39998 14.9899 6.90998 15.0499 7.33998 15.2999C7.76998 15.5499 8.08998 15.9499 8.21998 16.4299C8.34998 16.9099 8.27998 17.4099 8.03998 17.8499Z" fill="#8798A1"/>
<path d="M15.0299 6.10003C14.7899 6.46003 14.4199 6.70003 13.9999 6.78003C13.8899 6.80003 13.7899 6.81004 13.6999 6.81004C13.3699 6.81004 13.0599 6.71004 12.7799 6.52004C12.4299 6.28004 12.1899 5.91004 12.1099 5.48004C12.0299 5.06004 12.1099 4.63004 12.3599 4.27004C12.6099 3.92004 12.9799 3.68003 13.3999 3.60003C13.8299 3.52003 14.2599 3.61003 14.6099 3.85003C14.9699 4.10003 15.2099 4.47004 15.2899 4.89004C15.3699 5.32004 15.2799 5.75003 15.0299 6.10003Z" fill="#8798A1"/>
<path d="M19.1103 8.56002C19.1103 8.88002 19.0203 9.20002 18.8303 9.48002C18.5903 9.84002 18.2203 10.07 17.7903 10.15C17.6903 10.17 17.5903 10.18 17.4903 10.18C17.1703 10.18 16.8503 10.09 16.5803 9.90002C16.2203 9.65002 15.9803 9.29002 15.9103 8.86002C15.8303 8.44002 15.9203 8.01002 16.1603 7.65002C16.4003 7.29002 16.7703 7.05002 17.2003 6.97002C17.6303 6.89002 18.0503 6.98002 18.4103 7.23002C18.8703 7.54002 19.1103 8.05002 19.1103 8.56002Z" fill="#8798A1"/>
</svg>
