<svg width="24" height="24" viewBox="0 0 24 24" fill="none" xmlns="http://www.w3.org/2000/svg">
<path d="M18.93 6.77996C19.06 6.10996 19.14 5.42996 19.16 4.73996C19.73 4.83996 20.29 4.98996 20.84 5.17996C20.89 5.19996 20.95 5.19996 21 5.19996C21.14 5.19996 21.27 5.14996 21.37 5.03996C21.5 4.89996 21.54 4.67997 21.46 4.49997L19.59 0.309964C19.52 0.149964 19.37 0.0399628 19.19 0.0199628C19.01 -3.72343e-05 18.84 0.0699652 18.74 0.209965L15.99 3.82996C15.87 3.98996 15.86 4.19996 15.95 4.36996C16.05 4.53996 16.23 4.63996 16.43 4.62996C16.97 4.57996 17.51 4.57996 18.05 4.61996C18.02 4.69996 17.99 4.77996 17.96 4.86996C17.86 5.15996 17.75 5.44996 17.63 5.71996C16.03 4.61996 14.09 3.97996 12 3.97996C6.48 3.97996 2 8.45996 2 13.98C2 18.08 4.48 21.61 8.02 23.15C8.18 23.23 8.35 23.29 8.52 23.35C8.69 23.42 8.85 23.47 9.02 23.53C9.39 23.64 9.78 23.74 10.18 23.81C10.34 23.84 10.51 23.87 10.68 23.89C10.84 23.91 11.01 23.93 11.18 23.95C11.45 23.97 11.72 23.98 12 23.98H12.14C12.31 23.98 12.48 23.98 12.64 23.96C12.81 23.95 12.98 23.93 13.14 23.91C13.53 23.87 13.92 23.8 14.29 23.71C14.46 23.68 14.63 23.63 14.79 23.58C14.96 23.54 15.13 23.48 15.29 23.42C15.62 23.31 15.94 23.18 16.25 23.03C16.42 22.95 16.58 22.87 16.75 22.78C16.92 22.69 17.09 22.59 17.25 22.49C17.66 22.24 18.05 21.96 18.41 21.66C18.58 21.51 18.75 21.36 18.91 21.2C19.08 21.04 19.25 20.86 19.41 20.69C21.02 18.91 22 16.55 22 13.98C22 11.15 20.82 8.59997 18.93 6.77996ZM17.43 3.58996L19.02 1.48996L20.1 3.91996C19.64 3.80996 19.17 3.71996 18.69 3.66996C18.27 3.61996 17.85 3.58996 17.43 3.58996ZM12 4.97996C13.93 4.97996 15.72 5.58996 17.19 6.62996C15.65 9.55996 13.3 11.26 12.52 11.77C8.78 14.2 4.88 14.02 3.38 13.83C3.24 13.81 3.1 13.85 3 13.93C3.03 8.97996 7.05 4.97996 12 4.97996ZM17.58 7.95997C17.49 8.24997 17.38 8.53997 17.26 8.81997C14.91 14.3 8.88 16.1 6.89 16.56C6.74 16.19 6.54 15.86 6.31 15.55C6.12 15.3 5.91 15.09 5.7 14.91C7.71 14.83 10.42 14.32 13.07 12.61C13.83 12.11 15.96 10.58 17.58 7.95997ZM10.18 22.8C9.78 22.71 9.4 22.61 9.03 22.47V18.97H10.18V22.8ZM14.29 22.69C13.91 22.78 13.53 22.86 13.14 22.91V17.02H14.29V22.69ZM17.25 21.28V14.48H18.41V20.29C18.05 20.65 17.66 20.99 17.25 21.28ZM18.4 13.48H17.26C16.7 13.48 16.25 13.93 16.25 14.48V21.91C15.94 22.08 15.62 22.23 15.29 22.35V17.02C15.29 16.47 14.84 16.02 14.29 16.02H13.14C12.59 16.02 12.14 16.47 12.14 17.02V22.98H12C11.72 22.98 11.45 22.98 11.18 22.94V18.97C11.18 18.42 10.73 17.97 10.17 17.97H9.03C8.47 17.97 8.02 18.42 8.02 18.97V22.05C5.26 20.68 3.3 17.94 3.04 14.73C3.1 14.77 3.16 14.8 3.23 14.81C3.77 14.92 4.79 15.23 5.51 16.16C5.77 16.49 5.96 16.87 6.08 17.28C6.15 17.49 6.34 17.64 6.56 17.64C6.59 17.64 6.62 17.63 6.66 17.63C8.1 17.35 15.43 15.62 18.17 9.20996C18.35 8.78996 18.51 8.34996 18.64 7.90996C20.1 9.50996 21 11.64 21 13.98C21 15.87 20.41 17.63 19.41 19.08V14.48C19.41 13.93 18.96 13.48 18.4 13.48Z" fill="#8798A1"/>
</svg>
