<svg width="25" height="24" viewBox="0 0 25 24" fill="none" xmlns="http://www.w3.org/2000/svg">
<path d="M21.0297 8.18031C21.0297 8.43031 20.8297 8.63031 20.5797 8.63031H19.4697V9.79031C19.4697 10.0703 19.2497 10.2903 18.9697 10.2903C18.6897 10.2903 18.4697 10.0703 18.4697 9.79031V8.63031H17.3597C17.1097 8.63031 16.9097 8.43031 16.9097 8.18031C16.9097 7.93031 17.1097 7.73031 17.3597 7.73031H18.4697V6.57031C18.4697 6.29031 18.6897 6.07031 18.9697 6.07031C19.2497 6.07031 19.4697 6.29031 19.4697 6.57031V7.73031H20.5797C20.8297 7.73031 21.0297 7.93031 21.0297 8.18031Z" fill="#354752"/>
<path d="M22.1498 6.76019C21.9098 6.23019 21.5398 5.7702 21.0898 5.4302C20.4998 4.9702 19.7698 4.7002 18.9698 4.7002C18.1698 4.7002 17.4298 4.9702 16.8398 5.4302C16.7498 5.4902 16.6698 5.5602 16.5998 5.6302H5.0398C4.3198 5.6302 3.6698 5.94019 3.2198 6.43019C3.1998 6.44019 3.1898 6.4602 3.1698 6.4802C2.9498 6.7302 2.7798 7.0302 2.6698 7.3602C2.5898 7.6002 2.5498 7.8602 2.5498 8.1302V16.8102C2.5498 18.1802 3.6698 19.3102 5.0398 19.3102H19.0798C20.4498 19.3102 21.5698 18.1802 21.5698 16.8102V10.4702C22.1098 9.8602 22.4398 9.06019 22.4398 8.18019C22.4398 7.67019 22.3298 7.19019 22.1398 6.76019H22.1498ZM17.0398 6.6302C17.0898 6.5602 17.1498 6.49019 17.2098 6.43019C17.6598 5.98019 18.2898 5.7002 18.9698 5.7002C19.6498 5.7002 20.2698 5.98019 20.7198 6.43019C20.7598 6.47019 20.8098 6.5202 20.8498 6.5702C21.0698 6.8302 21.2398 7.1302 21.3398 7.4702C21.4098 7.6902 21.4498 7.93019 21.4498 8.18019C21.4498 8.93019 21.1098 9.6002 20.5798 10.0502C20.1498 10.4302 19.5798 10.6602 18.9698 10.6602C18.6098 10.6602 18.2598 10.5802 17.9498 10.4402C17.6298 10.3002 17.3498 10.0902 17.1198 9.8302C16.7198 9.3902 16.4798 8.81019 16.4798 8.18019C16.4798 7.59019 16.6898 7.0502 17.0398 6.6302ZM5.0498 6.6302H15.8398C15.5998 7.1002 15.4698 7.62019 15.4698 8.18019C15.4698 9.07019 15.7998 9.8802 16.3598 10.4902L13.2398 13.2202C12.5498 13.8302 11.5698 13.8302 10.8698 13.2202L3.9298 7.1402C4.1998 6.8302 4.5998 6.6302 5.0398 6.6302H5.0498ZM20.5798 16.8102C20.5798 17.6302 19.9098 18.3102 19.0898 18.3102H5.0398C4.2198 18.3102 3.5498 17.6302 3.5498 16.8102V8.1302L10.2198 13.9702C10.7498 14.4402 11.4098 14.6802 12.0598 14.6802C12.7098 14.6802 13.3698 14.4402 13.8998 13.9702L17.1298 11.1402C17.6598 11.4702 18.2898 11.6602 18.9598 11.6602C19.5398 11.6602 20.0898 11.5202 20.5698 11.2602V16.8102H20.5798Z" fill="#354752"/>
</svg>
