<svg width="24" height="24" viewBox="0 0 24 24" fill="none" xmlns="http://www.w3.org/2000/svg">
<path d="M8.97105 8.11803L8.97102 8.11806L8.97532 8.12262C9.24522 8.40939 9.4631 8.76205 9.63318 9.20069C9.80124 9.6341 9.87939 10.0629 9.87939 10.4899C9.87939 11.4156 9.57793 12.3738 8.93738 13.3818C8.29911 14.3861 7.44171 15.237 6.35459 15.9522L6.35458 15.9522L6.35204 15.9539C5.40669 16.5841 4.75258 16.8199 4.35938 16.8199C4.25436 16.8199 4.19923 16.7903 4.15962 16.7535C4.13966 16.735 4.10938 16.6978 4.10938 16.5899C4.10938 16.5229 4.13449 16.3893 4.4615 16.2128C5.48133 15.6922 6.26964 15.1511 6.78749 14.5783C7.01736 14.3325 7.20424 14.1031 7.33684 13.8936C7.46044 13.6984 7.57941 13.4558 7.57941 13.1999C7.57941 12.9442 7.47082 12.7135 7.263 12.5536C7.08352 12.4156 6.86294 12.3557 6.66432 12.3256L6.66432 12.3256L6.66012 12.325L6.4501 12.295L6.43475 12.2928L6.41931 12.2915L6.18847 12.2731C5.60634 12.179 5.14556 11.9122 4.78985 11.4676C4.42656 11.0135 4.22937 10.456 4.22937 9.76993C4.22937 9.08364 4.4533 8.50625 4.91511 8.01086L4.91511 8.01086L4.91657 8.00929C5.42331 7.46102 6.08559 7.17993 6.91937 7.17993C7.71002 7.17993 8.38926 7.48414 8.97105 8.11803Z" fill="#354752" stroke="#354752"/>
<path d="M16.9487 6.67993C17.8887 6.67993 18.6987 7.04994 19.3687 7.77994C19.6887 8.11994 19.9387 8.52993 20.1287 9.01993C20.3187 9.50993 20.4086 9.99993 20.4086 10.4899C20.4086 11.5299 20.0687 12.5799 19.3887 13.6499C18.7087 14.7199 17.7986 15.6199 16.6586 16.3699C15.6886 17.0099 14.9387 17.3199 14.3887 17.3199C14.1687 17.3199 13.9886 17.2499 13.8486 17.1199C13.7086 16.9899 13.6387 16.8099 13.6387 16.5899C13.6387 16.2599 13.8487 15.9899 14.2587 15.7699C15.2587 15.2599 15.9887 14.7499 16.4487 14.2399C16.8887 13.7699 17.1086 13.4199 17.1086 13.1999C17.1086 12.9899 16.9487 12.8699 16.6187 12.8199L16.4086 12.7899L16.1586 12.7699C15.4486 12.6599 14.8686 12.3299 14.4286 11.7799C13.9886 11.2299 13.7587 10.5599 13.7587 9.76993C13.7587 8.95993 14.0287 8.25992 14.5787 7.66992C15.1887 7.00992 15.9787 6.67993 16.9487 6.67993Z" fill="#354752"/>
</svg>
