<svg width="24" height="24" viewBox="0 0 24 24" fill="none" xmlns="http://www.w3.org/2000/svg">
<path d="M11.4001 17.9596L8.43012 19.5197C7.49012 20.0097 6.40014 19.2197 6.58014 18.1697L7.15009 14.8697C7.22009 14.4597 7.08009 14.0297 6.78009 13.7397L4.38013 11.3996C3.62013 10.6596 4.04009 9.36964 5.09009 9.21964L8.4101 8.73966C8.8301 8.67966 9.19012 8.41965 9.37012 8.03965L10.8501 5.03965C11.3201 4.08965 12.6701 4.08965 13.1401 5.03965L14.6201 8.03965C14.8101 8.41965 15.1701 8.67966 15.5801 8.73966L18.9001 9.21964C19.9501 9.36964 20.3701 10.6596 19.6101 11.3996L17.2101 13.7397C16.9101 14.0297 16.7701 14.4597 16.8401 14.8697L17.4101 18.1697C17.5901 19.2097 16.4901 20.0097 15.5601 19.5197L12.5901 17.9596C12.2201 17.7696 11.7701 17.7696 11.4001 17.9596Z" fill="#D27722" stroke="#D27722" stroke-miterlimit="10"/>
</svg>
