<svg width="24" height="24" viewBox="0 0 24 24" fill="none" xmlns="http://www.w3.org/2000/svg">
<path d="M20.48 8.6599H17.95V4.99289C17.951 4.79251 17.9124 4.5939 17.8365 4.40845C17.7607 4.223 17.6489 4.05435 17.5077 3.9122C17.3665 3.77005 17.1986 3.65718 17.0137 3.58008C16.8287 3.50297 16.6303 3.46315 16.4299 3.46289H7.59998C7.39956 3.46302 7.20112 3.50276 7.01611 3.57982C6.8311 3.65688 6.6631 3.76973 6.52185 3.91191C6.3806 4.05409 6.26884 4.22278 6.19299 4.40829C6.11715 4.59381 6.07877 4.79248 6.07996 4.99289V8.66289H3.52991C3.12461 8.66447 2.73642 8.82617 2.44983 9.11276C2.16324 9.39935 2.00158 9.78759 2 10.1929V19.0129C2.00158 19.4182 2.16324 19.8064 2.44983 20.093C2.73642 20.3796 3.12461 20.5413 3.52991 20.5429H20.48C20.8842 20.5408 21.271 20.3786 21.5559 20.0918C21.8408 19.8051 22.0005 19.4171 22 19.0129V10.1929C22.0013 9.78815 21.842 9.39942 21.557 9.11201C21.272 8.82461 20.8847 8.66201 20.48 8.6599ZM3.52991 19.5399C3.38959 19.5391 3.25523 19.483 3.15601 19.3838C3.05678 19.2846 3.00079 19.1502 3 19.0099V10.1929C3.00079 10.0526 3.05678 9.91822 3.15601 9.819C3.25523 9.71978 3.38959 9.66368 3.52991 9.66289H6.07996V10.8129H4.27991C4.1473 10.8129 4.02016 10.8656 3.92639 10.9593C3.83262 11.0531 3.77991 11.1803 3.77991 11.3129C3.77991 11.4455 3.83262 11.5727 3.92639 11.6664C4.02016 11.7602 4.1473 11.8129 4.27991 11.8129H6.07996V13.2229H4.27991C4.1473 13.2229 4.02016 13.2756 3.92639 13.3693C3.83262 13.4631 3.77991 13.5903 3.77991 13.7229C3.77991 13.8555 3.83262 13.9827 3.92639 14.0764C4.02016 14.1702 4.1473 14.2229 4.27991 14.2229H6.07996V15.6429H4.27991C4.1473 15.6429 4.02016 15.6956 3.92639 15.7893C3.83262 15.8831 3.77991 16.0103 3.77991 16.1429C3.77991 16.2755 3.83262 16.4027 3.92639 16.4964C4.02016 16.5902 4.1473 16.6429 4.27991 16.6429H6.07996V19.0129C6.0764 19.1946 6.11042 19.375 6.17993 19.5429L3.52991 19.5399ZM16.95 19.0099C16.9506 19.0788 16.9376 19.1472 16.9119 19.2112C16.8861 19.2751 16.848 19.3334 16.7997 19.3826C16.7514 19.4318 16.6939 19.471 16.6305 19.498C16.567 19.525 16.4989 19.5392 16.4299 19.5399H7.59998C7.53103 19.5392 7.46286 19.525 7.39941 19.498C7.33597 19.471 7.27851 19.4318 7.23022 19.3826C7.18194 19.3334 7.14382 19.2751 7.11804 19.2112C7.09227 19.1472 7.0793 19.0788 7.07996 19.0099V4.99289C7.0793 4.92394 7.09227 4.85554 7.11804 4.7916C7.14382 4.72765 7.18194 4.66941 7.23022 4.62019C7.27851 4.57098 7.33597 4.53175 7.39941 4.50476C7.46286 4.47777 7.53103 4.46354 7.59998 4.46289H16.4299C16.4989 4.46354 16.567 4.47777 16.6305 4.50476C16.6939 4.53175 16.7514 4.57098 16.7997 4.62019C16.848 4.66941 16.8861 4.72765 16.9119 4.7916C16.9376 4.85554 16.9506 4.92394 16.95 4.99289V19.0099ZM21 19.0099C21.0007 19.0788 20.9877 19.1472 20.9619 19.2112C20.9361 19.2751 20.898 19.3334 20.8497 19.3826C20.8014 19.4318 20.7439 19.471 20.6804 19.498C20.617 19.525 20.5489 19.5392 20.48 19.5399H17.85C17.9195 19.372 17.9535 19.1916 17.95 19.0099V16.6399H19.73C19.8626 16.6399 19.9897 16.5872 20.0835 16.4934C20.1773 16.3997 20.23 16.2725 20.23 16.1399C20.23 16.0073 20.1773 15.8801 20.0835 15.7863C19.9897 15.6926 19.8626 15.6399 19.73 15.6399H17.95V14.2199H19.73C19.8626 14.2199 19.9897 14.1672 20.0835 14.0734C20.1773 13.9797 20.23 13.8525 20.23 13.7199C20.23 13.5873 20.1773 13.4601 20.0835 13.3663C19.9897 13.2726 19.8626 13.2199 19.73 13.2199H17.95V11.8099H19.73C19.8626 11.8099 19.9897 11.7572 20.0835 11.6634C20.1773 11.5697 20.23 11.4425 20.23 11.3099C20.23 11.1773 20.1773 11.0501 20.0835 10.9563C19.9897 10.8626 19.8626 10.8099 19.73 10.8099H17.95V9.6599H20.48C20.5489 9.66055 20.617 9.67478 20.6804 9.70177C20.7439 9.72876 20.8014 9.76797 20.8497 9.81718C20.898 9.8664 20.9361 9.92465 20.9619 9.9886C20.9877 10.0526 21.0007 10.121 21 10.1899V19.0099Z" fill="#607079"/>
<path d="M15.6801 5.95996C15.6801 6.09257 15.6273 6.21975 15.5336 6.31352C15.4398 6.40729 15.3127 6.45996 15.1801 6.45996H8.8501C8.71749 6.45996 8.59023 6.40729 8.49646 6.31352C8.40269 6.21975 8.3501 6.09257 8.3501 5.95996C8.3501 5.82735 8.40269 5.70018 8.49646 5.60641C8.59023 5.51265 8.71749 5.45996 8.8501 5.45996H15.1801C15.3127 5.45996 15.4398 5.51265 15.5336 5.60641C15.6273 5.70018 15.6801 5.82735 15.6801 5.95996Z" fill="#607079"/>
<path d="M15.6796 9.29297C15.68 9.36331 15.665 9.43288 15.6357 9.4968C15.6063 9.56071 15.5632 9.61743 15.5096 9.66296C15.4198 9.74624 15.3021 9.79266 15.1796 9.79297H8.84967C8.72426 9.79265 8.60322 9.7464 8.50958 9.66296C8.4582 9.61617 8.41742 9.55897 8.38983 9.49518C8.36225 9.43139 8.34857 9.36246 8.34967 9.29297C8.34967 9.16036 8.40226 9.03318 8.49603 8.93941C8.5898 8.84564 8.71706 8.79297 8.84967 8.79297H15.1796C15.3122 8.79297 15.4394 8.84564 15.5331 8.93941C15.6269 9.03318 15.6796 9.16036 15.6796 9.29297Z" fill="#607079"/>
<path d="M15.6801 15.9502C15.6801 16.0828 15.6273 16.21 15.5336 16.3037C15.4398 16.3975 15.3127 16.4502 15.1801 16.4502H8.8501C8.71749 16.4502 8.59023 16.3975 8.49646 16.3037C8.40269 16.21 8.3501 16.0828 8.3501 15.9502C8.3501 15.8176 8.40269 15.6904 8.49646 15.5966C8.59023 15.5029 8.71749 15.4502 8.8501 15.4502H15.1801C15.3127 15.4502 15.4398 15.5029 15.5336 15.5966C15.6273 15.6904 15.6801 15.8176 15.6801 15.9502Z" fill="#607079"/>
<path d="M15.6801 12.6201C15.6801 12.7527 15.6273 12.8799 15.5336 12.9737C15.4398 13.0674 15.3127 13.1201 15.1801 13.1201H8.8501C8.71749 13.1201 8.59023 13.0674 8.49646 12.9737C8.40269 12.8799 8.3501 12.7527 8.3501 12.6201C8.3501 12.4875 8.40269 12.3603 8.49646 12.2666C8.59023 12.1728 8.71749 12.1201 8.8501 12.1201H15.1801C15.3127 12.1201 15.4398 12.1728 15.5336 12.2666C15.6273 12.3603 15.6801 12.4875 15.6801 12.6201Z" fill="#607079"/>
<path d="M16.95 11.21V11.41C16.9366 11.344 16.9366 11.2759 16.95 11.21Z" fill="#607079"/>
<path d="M16.9501 13.6201V13.8201C16.9413 13.7876 16.9379 13.7538 16.9401 13.7201C16.9384 13.6865 16.9418 13.6528 16.9501 13.6201Z" fill="#607079"/>
<path d="M16.9501 16.04V16.24C16.9413 16.2075 16.9379 16.1737 16.9401 16.14C16.9384 16.1064 16.9418 16.0727 16.9501 16.04Z" fill="#607079"/>
</svg>
