<svg width="25" height="24" viewBox="0 0 25 24" fill="none" xmlns="http://www.w3.org/2000/svg">
<path d="M9.79 11.54H5.75C4.51 11.54 3.5 10.53 3.5 9.29V5.25C3.5 4.01 4.51 3 5.75 3H9.79C11.03 3 12.04 4.01 12.04 5.25V9.29C12.04 10.53 11.03 11.54 9.79 11.54ZM5.75 4C5.06 4 4.5 4.56 4.5 5.25V9.29C4.5 9.98 5.06 10.54 5.75 10.54H9.79C10.48 10.54 11.04 9.98 11.04 9.29V5.25C11.04 4.56 10.48 4 9.79 4H5.75Z" fill="#8798A1"/>
<path d="M19.2509 11.54H15.2109C13.9709 11.54 12.9609 10.53 12.9609 9.29V5.25C12.9609 4.01 13.9709 3 15.2109 3H19.2509C20.4909 3 21.5009 4.01 21.5009 5.25V9.29C21.5009 10.53 20.4909 11.54 19.2509 11.54ZM15.2109 4C14.5209 4 13.9609 4.56 13.9609 5.25V9.29C13.9609 9.98 14.5209 10.54 15.2109 10.54H19.2509C19.9409 10.54 20.5009 9.98 20.5009 9.29V5.25C20.5009 4.56 19.9409 4 19.2509 4H15.2109Z" fill="#8798A1"/>
<path d="M17.2309 21C14.8809 21 12.9609 19.09 12.9609 16.73C12.9609 14.37 14.8809 12.46 17.2309 12.46C19.5809 12.46 21.5009 14.38 21.5009 16.73C21.5009 19.08 19.5909 21 17.2309 21ZM17.2309 13.46C15.4309 13.46 13.9609 14.93 13.9609 16.73C13.9609 18.53 15.4309 20 17.2309 20C19.0309 20 20.5009 18.53 20.5009 16.73C20.5009 14.93 19.0309 13.46 17.2309 13.46Z" fill="#8798A1"/>
<path d="M9.79 21H5.75C4.51 21 3.5 19.99 3.5 18.75V14.71C3.5 13.47 4.51 12.46 5.75 12.46H9.79C11.03 12.46 12.04 13.47 12.04 14.71V18.75C12.04 19.99 11.03 21 9.79 21ZM5.75 13.46C5.06 13.46 4.5 14.02 4.5 14.71V18.75C4.5 19.44 5.06 20 5.75 20H9.79C10.48 20 11.04 19.44 11.04 18.75V14.71C11.04 14.02 10.48 13.46 9.79 13.46H5.75Z" fill="#8798A1"/>
</svg>
