<svg width="24" height="24" viewBox="0 0 24 24" fill="none" xmlns="http://www.w3.org/2000/svg">
<path d="M8.99994 9L14.9999 15" stroke="#BF283A" stroke-miterlimit="10" stroke-linecap="round"/>
<path d="M8.99994 15L14.9999 9" stroke="#BF283A" stroke-miterlimit="10" stroke-linecap="round"/>
<path d="M12 4C16.41 4 20 7.59 20 12C20 16.41 16.41 20 12 20C7.59 20 4 16.41 4 12C4 7.59 7.59 4 12 4ZM12 3C7.03 3 3 7.03 3 12C3 16.97 7.03 21 12 21C16.97 21 21 16.97 21 12C21 7.03 16.97 3 12 3Z" fill="#BF283A"/>
</svg>
