<svg width="24" height="24" viewBox="0 0 24 24" fill="none" xmlns="http://www.w3.org/2000/svg">
<path d="M14.5505 11.46C14.4605 11.29 14.3106 11.14 14.1306 11.03L13.5906 10.72L12.1406 9.88999L11.0605 9.27997L10.9905 9.23997C10.6405 9.03997 10.2205 9.03997 9.87054 9.23997C9.52054 9.43997 9.31055 9.80997 9.31055 10.21V13.8C9.31055 14.12 9.45054 14.42 9.68054 14.63C9.74054 14.68 9.80054 14.73 9.87054 14.77C10.0505 14.87 10.2405 14.92 10.4305 14.92C10.6205 14.92 10.8105 14.87 10.9905 14.77L11.5605 14.44L14.1306 12.98C14.4806 12.77 14.6906 12.41 14.6906 12.01C14.6906 11.81 14.6405 11.63 14.5505 11.46ZM13.6306 12.11L10.4905 13.9C10.4505 13.92 10.4206 13.92 10.4006 13.91C10.3906 13.91 10.3805 13.9 10.3705 13.9C10.3505 13.89 10.3105 13.86 10.3105 13.8V10.21C10.3105 10.15 10.3505 10.12 10.3705 10.11C10.3905 10.1 10.4105 10.09 10.4305 10.09C10.4505 10.09 10.4705 10.1 10.4905 10.11L11.4006 10.63L12.8605 11.46L13.6306 11.9C13.6806 11.93 13.6906 11.97 13.6906 12C13.6906 12.04 13.6806 12.08 13.6306 12.11Z" fill="#8798A1"/>
<path d="M21.99 6.31C21.95 5.7 21.68 5.14999 21.27 4.73999C20.98 4.44999 20.62 4.22001 20.22 4.10001C19.99 4.04001 19.75 4 19.51 4H4.41003C3.11003 4.05 2.05 5.11 2 6.41V17.51C2 17.77 2.03999 18.01 2.10999 18.24C2.22999 18.64 2.46 18.99 2.75 19.28C3.16 19.69 3.71001 19.95 4.32001 19.99C4.38001 20 4.44 20 4.5 20H19.51C20.88 20 22 18.88 22 17.51V6.5C22 6.44 22 6.37 21.99 6.31ZM4.5 19C4.1 19 3.73002 18.84 3.46002 18.57L4.5 17.53V19ZM4.5 15.85L3 17.35V15.05L4.5 13.55V15.85ZM4.5 11.87L3 13.37V11.07L4.5 9.57001V11.87ZM4.5 7.89001L3 9.39001V7.11002L4.5 5.60001V7.89001ZM18.5 19H5.5V5H18.5V19ZM21 17.51C21 18.33 20.33 19 19.51 19H19.5V18.43L21 16.93V17.51ZM21 15.24L19.5 16.74V14.45L21 12.95V15.24ZM21 11.27L19.5 12.77V10.48L21 8.98001V11.27ZM21 7.29999L19.5 8.79999V6.5L20.56 5.44C20.83 5.72 21 6.09 21 6.5V7.29999Z" fill="#8798A1"/>
</svg>
