<svg width="24" height="25" viewBox="0 0 24 25" fill="none" xmlns="http://www.w3.org/2000/svg">
<path d="M18.3398 3.80029H3.32983C1.95983 3.80029 0.839844 4.93029 0.839844 6.30029V17.3003C0.839844 18.6803 1.95983 19.8003 3.32983 19.8003H13.2498C12.9898 19.4903 12.7698 19.1603 12.5998 18.8003H3.32983C2.50983 18.8003 1.83984 18.1303 1.83984 17.3003V6.30029C1.83984 5.47029 2.50983 4.80029 3.32983 4.80029H18.3398C19.1598 4.80029 19.8398 5.47029 19.8398 6.30029V11.4503C20.1998 11.6203 20.5298 11.8303 20.8398 12.0803V6.30029C20.8398 4.93029 19.7098 3.80029 18.3398 3.80029Z" fill="#8798A1"/>
<path d="M20.84 12.0801C20.53 11.8301 20.2 11.6201 19.84 11.4501C19.12 11.0901 18.3 10.8901 17.44 10.8901C14.44 10.8901 12 13.3301 12 16.3301C12 17.2201 12.21 18.0602 12.6 18.8002C12.77 19.1602 12.99 19.4902 13.25 19.8002C14.24 21.0102 15.75 21.7802 17.44 21.7802C20.45 21.7802 22.89 19.3401 22.89 16.3301C22.89 14.6101 22.09 13.0801 20.84 12.0801ZM17.44 20.7802C16.39 20.7802 15.42 20.4102 14.66 19.8002C14.31 19.5202 14 19.1802 13.75 18.8002C13.28 18.1002 13 17.2501 13 16.3301C13 13.8801 14.99 11.8901 17.44 11.8901C18.33 11.8901 19.15 12.1502 19.84 12.6002C20.22 12.8302 20.55 13.1302 20.84 13.4702C21.49 14.2402 21.89 15.2301 21.89 16.3301C21.89 18.7801 19.9 20.7802 17.44 20.7802Z" fill="#8798A1"/>
<path d="M20.4904 16.3301C20.4904 16.6101 20.2704 16.8301 19.9904 16.8301H17.9404V18.8802C17.9404 19.1602 17.7204 19.3802 17.4404 19.3802C17.1704 19.3802 16.9404 19.1602 16.9404 18.8802V16.8301H14.9004C14.6204 16.8301 14.4004 16.6101 14.4004 16.3301C14.4004 16.0601 14.6204 15.8301 14.9004 15.8301H16.9404V13.7902C16.9404 13.5102 17.1704 13.2902 17.4404 13.2902C17.7204 13.2902 17.9404 13.5102 17.9404 13.7902V15.8301H19.9904C20.2704 15.8301 20.4904 16.0601 20.4904 16.3301Z" fill="#8798A1"/>
</svg>
