<svg width="24" height="24" viewBox="0 0 24 24" fill="none" xmlns="http://www.w3.org/2000/svg">
<path d="M7.33398 4C6.61084 4 6 4.57788 6 5.26196V18.75C6 19.4393 6.59839 20 7.33398 20H16.667C17.402 20 18 19.4393 18 18.75V7.80396C18 7.79034 17.9901 7.76019 17.963 7.7312L17.5457 7.31787L14.3011 4.06531C14.249 4.01727 14.1938 4 14.1589 4H7.33398ZM7.33398 3H14.1589C14.4619 3 14.765 3.12396 14.999 3.349L18.254 6.612L18.674 7.02795C18.8839 7.242 19 7.52295 19 7.80396V18.75C19 19.988 17.95 21 16.667 21H7.33398C6.04993 21 5 19.988 5 18.75V5.26196C5 4.02399 6.04993 3 7.33398 3Z" fill="#8798A1"/>
<path d="M17.8302 7.92999C17.9019 7.92999 17.9637 7.89484 17.9943 7.83759C17.9982 7.82581 18.0002 7.81311 18.0002 7.80066C17.9999 7.79468 17.9924 7.76642 17.963 7.737L17.5406 7.31464L16.113 5.87708L14.303 4.06696C14.2566 4.02429 14.2048 4 14.1602 4C14.1471 4 14.1345 4.00183 14.1277 4.0033L14.1069 4.01288L14.0736 4.02545C14.0214 4.04517 13.9902 4.08051 13.9902 4.12V7.16998C13.9902 7.58905 14.3491 7.92999 14.7902 7.92999H17.8302ZM17.8302 8.92999H14.7902C13.8002 8.92999 12.9902 8.13995 12.9902 7.16998V4.12C12.9902 3.66998 13.2703 3.25995 13.7202 3.08997C13.8502 3.02997 14.0103 3 14.1602 3C14.4602 3 14.7603 3.12 15.0002 3.34998L16.8202 5.16998L18.6702 7.02997C18.8802 7.23999 19.0002 7.51996 19.0002 7.79999C19.0002 7.94995 18.9702 8.09998 18.9102 8.23999C18.7202 8.65997 18.3002 8.92999 17.8302 8.92999Z" fill="#8798A1"/>
<path d="M11.8934 16.3729V11.9259C11.8812 11.7463 11.9186 11.5668 12.0014 11.4069C12.0275 11.3554 12.0673 11.312 12.1163 11.2813C12.1652 11.2507 12.2216 11.2339 12.2793 11.2329C12.3379 11.2334 12.3952 11.2497 12.4454 11.2799C12.4955 11.3102 12.5366 11.3533 12.5644 11.4049C12.6483 11.5651 12.6863 11.7454 12.6744 11.9259V16.3719C12.686 16.5533 12.648 16.7345 12.5644 16.8959C12.5368 16.9478 12.4959 16.9912 12.4457 17.0216C12.3956 17.0521 12.338 17.0684 12.2793 17.0689C12.2216 17.0673 12.1654 17.0501 12.1166 17.0191C12.0679 16.9881 12.0283 16.9446 12.0024 16.8929C11.9198 16.7326 11.8821 16.5529 11.8934 16.3729Z" fill="#8798A1"/>
<path d="M16.1874 12.1639H14.6483V13.6069H15.9344C15.9851 13.6035 16.0359 13.6124 16.0824 13.633C16.1289 13.6535 16.1697 13.6851 16.2013 13.7249C16.2642 13.8167 16.2952 13.9267 16.2893 14.0379C16.2952 14.1489 16.2639 14.2587 16.2004 14.3499C16.1685 14.3891 16.1277 14.4201 16.0815 14.4402C16.0352 14.4604 15.9847 14.4693 15.9344 14.4659H14.6483V16.3259C14.6608 16.5076 14.6231 16.6892 14.5393 16.8509C14.513 16.9028 14.4729 16.9464 14.4233 16.9769C14.3736 17.0074 14.3166 17.0236 14.2583 17.0236C14.2001 17.0236 14.143 17.0074 14.0934 16.9769C14.0438 16.9464 14.0036 16.9028 13.9773 16.8509C13.8936 16.6899 13.8555 16.509 13.8673 16.3279V11.9859C13.8639 11.8508 13.8808 11.716 13.9174 11.5859C13.9421 11.4945 13.9976 11.4143 14.0744 11.3589C14.1557 11.3079 14.2505 11.2828 14.3463 11.2869H16.1874C16.24 11.2833 16.2927 11.2925 16.341 11.3137C16.3892 11.335 16.4316 11.3676 16.4644 11.4089C16.5286 11.5018 16.5602 11.6132 16.5544 11.7259C16.5605 11.8402 16.5289 11.9534 16.4644 12.0479C16.431 12.0882 16.3884 12.1197 16.3401 12.1399C16.2919 12.1601 16.2395 12.1684 16.1874 12.1639Z" fill="#8798A1"/>
<path d="M11.0682 14.1429V14.1639C11.0562 15.8099 10.2832 17.0519 9.25818 17.0519C8.23318 17.0519 7.44922 15.7669 7.44922 14.1429C7.44922 12.5189 8.24918 11.2339 9.25818 11.2339C9.97518 11.2339 10.6012 11.8709 10.8972 12.8899C10.9085 12.9343 10.9106 12.9806 10.9034 13.0259C10.8963 13.0712 10.88 13.1146 10.8555 13.1534C10.8309 13.1921 10.7987 13.2255 10.7609 13.2513C10.723 13.2772 10.6803 13.2951 10.6353 13.3039C10.5442 13.327 10.4477 13.3147 10.3655 13.2694C10.2832 13.2241 10.2213 13.1492 10.1923 13.0599C9.99826 12.3809 9.62318 11.9139 9.25818 11.9139C8.74618 11.9139 8.17822 12.8689 8.17822 14.1429C8.17822 15.4169 8.74618 16.3719 9.25818 16.3719C9.72518 16.3719 10.2263 15.6079 10.3173 14.4929L9.62317 14.5249C9.61828 14.6183 9.57783 14.7062 9.51001 14.7706C9.44219 14.8349 9.35216 14.8708 9.25867 14.8708C9.16517 14.8708 9.07527 14.8349 9.00745 14.7706C8.93963 14.7062 8.89906 14.6183 8.89417 14.5249V14.1429C8.89532 14.0966 8.9058 14.0509 8.9248 14.0086C8.94381 13.9663 8.97099 13.9282 9.00488 13.8965C9.03877 13.8649 9.07857 13.8403 9.12207 13.8242C9.16557 13.8081 9.21185 13.8009 9.25818 13.8029H10.7042C10.7769 13.8013 10.8484 13.8217 10.9093 13.8615C10.9702 13.9013 11.0175 13.9587 11.0452 14.0259C11.058 14.0637 11.0658 14.1031 11.0682 14.1429Z" fill="#8798A1"/>
</svg>
