<svg width="94" height="82" viewBox="0 0 94 82" fill="none" xmlns="http://www.w3.org/2000/svg">
<g filter="url(#filter0_d_3802_4873)">
<path d="M77.0716 20.2934C75.6027 17.7384 73.1568 15.8277 70.38 14.9131C66.822 13.7612 63.3332 14.3293 59.9467 15.3618C58.5349 15.8 57.163 16.4028 55.8863 17.1408C54.3273 18.0363 52.8428 19.1952 51.6008 20.2311C49.6901 21.7728 47.9249 23.5691 46.3365 25.4503C45.9554 25.9007 45.5847 26.3563 45.2261 26.8153C45.0685 27.0093 44.9143 27.2068 44.7584 27.4043C43.8126 28.6151 42.8962 29.8935 42.0284 31.1633C42.3852 31.6362 42.7282 32.1229 43.0487 32.6287C43.4073 33.2194 43.7347 33.8378 44.0274 34.477L44.1625 34.3107C44.9663 33.2904 45.8099 32.2961 46.6968 31.3417C47.2753 30.7198 47.8712 30.1152 48.4879 29.5332C50.1595 27.9465 51.9715 26.5157 53.9375 25.3187C55.3597 24.4681 56.9326 23.5483 58.3045 22.949C59.6886 22.3323 61.1281 21.9356 62.6143 21.6844C65.5747 21.0989 68.2493 21.0764 70.7004 22.9334C73.1446 24.7557 73.3698 26.9816 72.9835 29.8675C72.7895 31.8423 72.2213 33.649 71.2582 35.4402C70.6104 36.6441 69.9261 37.8532 69.1449 38.9774C68.1939 40.3718 67.0264 41.7109 65.8536 42.9581C61.8989 47.209 57.0902 50.5228 52.2348 53.6651C50.6428 54.642 48.7876 55.8009 47.2372 56.8281C46.4664 57.3287 45.5778 57.9437 44.8468 58.498C44.5384 58.2503 44.211 58.0164 43.8334 57.8276C42.3783 57.1226 39.8873 57.1295 38.9294 58.6487C37.9992 60.1627 38.9381 61.7702 40.5456 62.2102C41.2333 62.3955 42.0215 62.3037 42.6503 62.1115C43.4332 61.8724 44.1694 61.5121 44.8814 61.1154C45.0615 61.2453 45.2521 61.3683 45.4478 61.4792C48.1657 63.0729 51.9992 62.7368 54.2147 60.5213C54.2476 60.4901 54.2615 60.4398 54.2459 60.3931C54.2251 60.3273 54.1523 60.2909 54.0865 60.3117C52.7631 60.7447 51.4137 60.989 50.0573 60.8833C48.9331 60.795 47.821 60.5005 46.8354 59.9721C47.0917 59.8249 47.3464 59.6829 47.6045 59.5495C49.6277 58.4876 51.7515 57.2681 53.7401 56.1404C58.9091 53.0293 63.8598 49.447 68.0709 45.0957C70.1738 43.0118 72.1278 40.6819 73.744 38.1771C75.2458 35.9581 76.5675 33.481 77.38 30.8636C78.6826 27.2588 79.0758 23.8099 77.0716 20.2934ZM40.3152 60.0345C40.2598 59.915 40.284 59.8093 40.336 59.6638C40.5612 59.106 41.5867 59.1441 42.2207 59.2619C42.6139 59.3416 42.9014 59.4837 43.1873 59.6933C42.1566 60.3567 40.9561 60.885 40.3152 60.0345Z" fill="url(#paint0_linear_3802_4873)"/>
<path d="M37.8847 46.9555C37.7946 47.6276 37.7427 48.2651 37.7825 48.8939C37.6249 48.9078 37.4672 48.913 37.3096 48.9112C36.3933 48.9043 35.4492 48.6479 34.4999 48.2357C34.5276 47.6311 34.6004 47.0335 34.6939 46.4688C35.5254 41.7709 37.8033 37.4784 40.4207 33.5359C40.5558 33.7108 40.684 33.8892 40.8035 34.0729C41.37 34.9684 41.829 35.935 42.172 36.9414C40.076 39.9607 38.4304 43.3092 37.8847 46.9555Z" fill="url(#paint1_linear_3802_4873)"/>
<path d="M51.8176 44.9105C51.7484 45.6311 51.6618 46.4019 51.5214 47.1693C51.0381 49.8855 49.81 52.5895 47.5477 54.372C46.4737 55.2485 45.2317 55.9968 43.8199 56.3173C40.6256 57.0881 37.0261 55.7439 35.4844 52.7575C35.3371 52.4769 35.2089 52.1997 35.0963 51.9243C35.8308 52.0819 36.5843 52.1651 37.3448 52.146C37.9182 52.1322 38.4881 52.0577 39.0458 51.9295C39.3247 52.2153 39.6487 52.4561 40.0176 52.6328C40.9045 53.0745 42.079 53.1888 43.0508 52.9706C43.929 52.7818 44.7363 52.295 45.4759 51.7182C47.1008 50.5212 48.0431 48.5395 48.4969 46.5422C48.9387 44.6212 49.1639 42.6291 48.9265 40.6128C48.5801 37.2141 47.8716 34.2156 46.6971 31.3436C46.155 30.0132 45.5106 28.7088 44.7588 27.4062C44.9147 27.2087 45.0688 27.0112 45.2265 26.8172C45.5851 26.3582 45.9557 25.9026 46.3368 25.4522C47.1267 26.7739 47.8474 28.1372 48.4883 29.5351C49.7442 32.2599 50.6969 35.1198 51.2529 38.075C51.7293 40.2975 52.0671 42.5927 51.8176 44.9105Z" fill="url(#paint2_linear_3802_4873)"/>
<path d="M45.7004 42.6772C45.619 44.1981 45.4735 45.861 44.8412 47.3178C44.6455 47.7682 44.4047 48.1996 44.1033 48.5997C42.8907 50.2817 41.0511 51.4631 39.0451 51.9291C38.7385 51.567 38.3228 50.9815 38.0474 50.1708C37.8828 49.6876 37.8118 49.2476 37.7823 48.8959C39.2842 48.7729 40.7531 47.9952 41.673 46.812C42.0003 46.3998 42.2203 45.958 42.3762 45.4921C42.6084 44.794 42.7002 44.037 42.8076 43.2367C43.0917 41.1407 42.8613 38.9598 42.1718 36.9435C41.8289 35.937 41.3698 34.9704 40.8034 34.0749C40.6838 33.8913 40.5557 33.7128 40.4205 33.5379C40.0689 33.084 39.6688 32.6666 39.2218 32.3097C39.1907 32.3392 39.1577 32.3686 39.1266 32.3981C36.2943 35.012 34.4374 38.13 34.6626 42.109C34.6764 42.2684 34.4339 42.3134 34.3906 42.1558C33.7237 39.9402 33.7289 37.4995 34.4235 35.2545C35.132 32.9645 36.3619 30.8927 37.791 28.9856C37.791 28.9856 38.2466 28.6287 38.2483 28.6287C38.8234 28.1783 39.6497 28.2701 40.1174 28.821C40.7826 29.597 41.427 30.3644 42.0281 31.1647C42.3849 31.6376 42.7279 32.1244 43.0484 32.6302C43.4069 33.2209 43.7343 33.8393 44.0271 34.4785C45.1929 37.0283 45.8026 39.9091 45.7004 42.6772Z" fill="url(#paint3_linear_3802_4873)"/>
<path d="M46.3368 25.4498C45.9557 25.9002 45.585 26.3558 45.2264 26.8148C45.0688 27.0088 44.9146 27.2063 44.7587 27.4038C44.317 26.6416 43.8389 25.8777 43.3209 25.1103C42.5553 23.9497 41.7065 22.8688 40.7659 21.8381C39.2381 20.137 37.6981 18.701 35.7389 17.634C34.2163 16.7938 32.4789 15.9641 30.8661 15.7146C28.6125 15.363 26.1977 15.4877 24.2005 16.6414C22.5826 17.5473 21.4635 19.1012 20.684 20.8074C19.9721 22.311 19.662 23.8596 19.6239 25.5849C19.4767 28.9247 20.3462 31.918 21.8308 34.92C22.6761 36.751 23.7085 38.4832 24.9142 40.1132C25.7023 41.1942 26.6308 42.2508 27.5454 43.2313C28.4808 44.2342 29.4163 45.1177 30.4729 45.8781C31.5452 46.6351 32.756 47.3731 33.9045 47.9586C34.1037 48.0573 34.3012 48.1508 34.5004 48.2357C35.4496 48.648 36.3937 48.9044 37.3101 48.9113C37.4677 48.913 37.6253 48.9078 37.783 48.894C37.8124 49.2456 37.8834 49.6856 38.048 50.1689C38.3234 50.9796 38.7392 51.5651 39.0458 51.9271C38.488 52.0553 37.9181 52.1298 37.3447 52.1437C36.5843 52.1627 35.8307 52.0796 35.0963 51.9219C34.1834 51.7262 33.2982 51.4144 32.465 51.0419C31.0394 50.3906 29.7419 49.6631 28.441 48.8316C27.1228 47.9759 25.9137 46.9296 24.8449 45.8816C23.7813 44.8388 22.7038 43.7215 21.7701 42.5592C20.3324 40.7975 19.0523 38.866 18.0146 36.8272C16.9216 34.7745 15.981 32.623 15.4838 30.2862C14.8464 27.0799 14.7511 23.799 15.735 20.6065C17.7531 14.2717 22.9152 10.194 29.7142 11.1346C32.5776 11.4758 34.9178 12.7542 37.1542 14.4588C39.3091 15.9987 41.1643 18.1432 42.7164 20.1907C44.0277 21.8606 45.2472 23.6171 46.3368 25.4498Z" fill="url(#paint4_linear_3802_4873)"/>
</g>
<defs>
<filter id="filter0_d_3802_4873" x="0" y="0" width="93.4661" height="81.4698" filterUnits="userSpaceOnUse" color-interpolation-filters="sRGB">
<feFlood flood-opacity="0" result="BackgroundImageFix"/>
<feColorMatrix in="SourceAlpha" type="matrix" values="0 0 0 0 0 0 0 0 0 0 0 0 0 0 0 0 0 0 127 0" result="hardAlpha"/>
<feOffset dy="4"/>
<feGaussianBlur stdDeviation="7.5"/>
<feComposite in2="hardAlpha" operator="out"/>
<feColorMatrix type="matrix" values="0 0 0 0 0 0 0 0 0 0 0 0 0 0 0 0 0 0 0.3 0"/>
<feBlend mode="normal" in2="BackgroundImageFix" result="effect1_dropShadow_3802_4873"/>
<feBlend mode="normal" in="SourceGraphic" in2="effect1_dropShadow_3802_4873" result="shape"/>
</filter>
<linearGradient id="paint0_linear_3802_4873" x1="59.1718" y1="16.024" x2="53.109" y2="62.448" gradientUnits="userSpaceOnUse">
<stop offset="0.0208333" stop-color="#35A0BF"/>
<stop offset="1" stop-color="#3E85C5"/>
</linearGradient>
<linearGradient id="paint1_linear_3802_4873" x1="38.336" y1="33.5359" x2="38.336" y2="48.9115" gradientUnits="userSpaceOnUse">
<stop stop-color="#398FC2"/>
<stop offset="1" stop-color="#349DBD"/>
</linearGradient>
<linearGradient id="paint2_linear_3802_4873" x1="46.3536" y1="26.5059" x2="37.0861" y2="53.5289" gradientUnits="userSpaceOnUse">
<stop stop-color="#31C19E"/>
<stop offset="1" stop-color="#349DBE"/>
</linearGradient>
<linearGradient id="paint3_linear_3802_4873" x1="37.0854" y1="32.1353" x2="39.8039" y2="51.9291" gradientUnits="userSpaceOnUse">
<stop stop-color="#C63F3F"/>
<stop offset="1" stop-color="#C28B2F"/>
</linearGradient>
<linearGradient id="paint4_linear_3802_4873" x1="36.3066" y1="51.4478" x2="44.1883" y2="23.6454" gradientUnits="userSpaceOnUse">
<stop stop-color="#C28330"/>
<stop offset="0.494792" stop-color="#A7BA44"/>
<stop offset="1" stop-color="#31C29F"/>
</linearGradient>
</defs>
</svg>
