<svg width="241" height="212" viewBox="0 0 241 212" fill="none" xmlns="http://www.w3.org/2000/svg">
<g filter="url(#filter0_d_2130_75318)">
<path d="M215.11 100.87C215.081 126.611 205.102 151.345 187.26 169.9C169.418 188.454 145.094 199.394 119.374 200.431C93.6534 201.468 68.5277 192.523 49.2497 175.465C29.9717 158.407 18.0338 134.557 15.932 108.902C13.8301 83.2462 21.7269 57.7715 37.9715 37.8033C54.216 17.8351 77.5507 4.91931 103.097 1.75629C128.643 -1.40673 154.423 5.42784 175.047 20.8311C195.671 36.2344 209.543 59.0139 213.762 84.4072C214.664 89.8482 215.115 95.3547 215.11 100.87Z" fill="#F4F7FB"/>
</g>
<path d="M230.332 106.936C230.332 107.99 230.02 109.022 229.434 109.899C228.848 110.776 228.015 111.46 227.041 111.864C226.066 112.267 224.994 112.373 223.959 112.167C222.925 111.962 221.974 111.454 221.228 110.708C220.482 109.962 219.974 109.012 219.769 107.977C219.563 106.943 219.668 105.871 220.072 104.896C220.476 103.921 221.159 103.088 222.036 102.502C222.913 101.916 223.944 101.604 224.999 101.604C226.413 101.604 227.77 102.165 228.77 103.165C229.77 104.165 230.332 105.521 230.332 106.936" fill="#F4F7FB"/>
<path d="M225 112.268C227.945 112.268 230.332 109.88 230.332 106.936C230.332 103.991 227.945 101.604 225 101.604C222.055 101.604 219.668 103.991 219.668 106.936C219.668 109.88 222.055 112.268 225 112.268Z" stroke="#F4F7FB" stroke-width="1.043" stroke-miterlimit="10"/>
<path d="M11.6643 146.538C11.6643 147.593 11.3515 148.624 10.7656 149.501C10.1797 150.377 9.34696 151.061 8.37264 151.464C7.39832 151.868 6.32621 151.974 5.29188 151.768C4.25755 151.562 3.30746 151.054 2.56175 150.309C1.81603 149.563 1.3082 148.613 1.10246 147.578C0.896716 146.544 1.00231 145.472 1.40589 144.498C1.80946 143.523 2.49289 142.691 3.36976 142.105C4.24662 141.519 5.27753 141.206 6.33213 141.206C7.74629 141.206 9.10254 141.768 10.1025 142.768C11.1025 143.768 11.6643 145.124 11.6643 146.538Z" fill="#F4F7FB"/>
<path d="M6.33212 151.871C9.27697 151.871 11.6642 149.484 11.6642 146.539C11.6642 143.594 9.27697 141.207 6.33212 141.207C3.38727 141.207 1 143.594 1 146.539C1 149.484 3.38727 151.871 6.33212 151.871Z" stroke="#F4F7FB" stroke-width="1.043" stroke-miterlimit="10"/>
<path d="M236.064 71.8112C237.78 73.5275 238.949 75.7141 239.423 78.0946C239.896 80.4751 239.653 82.9425 238.724 85.1849C237.795 87.4272 236.222 89.3438 234.204 90.6922C232.186 92.0406 229.814 92.7604 227.387 92.7604C224.959 92.7604 222.587 92.0406 220.569 90.6922C218.551 89.3438 216.978 87.4272 216.049 85.1849C215.12 82.9425 214.877 80.4751 215.351 78.0946C215.824 75.7141 216.993 73.5275 218.709 71.8112C219.849 70.6717 221.201 69.7677 222.69 69.151C224.179 68.5342 225.775 68.2168 227.387 68.2168C228.998 68.2168 230.594 68.5342 232.083 69.151C233.572 69.7677 234.925 70.6717 236.064 71.8112" fill="#F4F7FB"/>
<path d="M236.064 71.8112C237.78 73.5275 238.949 75.7141 239.423 78.0946C239.896 80.4751 239.653 82.9425 238.724 85.1849C237.795 87.4272 236.222 89.3438 234.204 90.6922C232.186 92.0406 229.814 92.7604 227.387 92.7604C224.959 92.7604 222.587 92.0406 220.569 90.6922C218.551 89.3438 216.978 87.4272 216.049 85.1849C215.12 82.9425 214.877 80.4751 215.351 78.0946C215.824 75.7141 216.993 73.5275 218.709 71.8112C219.849 70.6717 221.201 69.7677 222.69 69.151C224.179 68.5342 225.775 68.2168 227.387 68.2168C228.998 68.2168 230.594 68.5342 232.083 69.151C233.572 69.7677 234.925 70.6717 236.064 71.8112V71.8112Z" stroke="#F4F7FB" stroke-width="2.4" stroke-miterlimit="10"/>
<g filter="url(#filter1_d_2130_75318)">
<path d="M168.787 164.797L165.829 160.561C164.321 158.353 163.631 157.554 163.032 156.764L162.442 155.905C159.345 151.469 157.707 149.071 157.177 146.124C157.049 144.874 157.062 143.614 157.217 142.368C157.734 136.876 158.652 131.43 159.965 126.072C160.814 122.466 161.563 118.929 162.083 115.262C162.82 110.759 162.984 106.18 162.572 101.635C160.694 84.5404 148.815 73.9301 146.427 71.9719C144.136 70.1043 141.67 68.4616 139.064 67.0664C139.913 56.8557 135.237 48.3535 127.724 46.9348C120.211 45.5161 112.768 51.7204 109.83 61.5414C106.902 61.9236 104.011 62.5519 101.188 63.4197C100.469 63.7094 83.5645 69.4642 75.332 85.1398C73.2831 89.2189 71.7879 93.5533 70.8861 98.0281C70.0269 101.705 69.4174 105.361 68.798 109.088C68.0674 114.528 66.9387 119.908 65.4211 125.183C65.1653 126.336 64.7304 127.442 64.1323 128.46C62.6237 131.098 60.046 132.786 55.65 135.724L54.2113 136.703C53.452 137.142 52.5229 137.642 50.7945 138.821L46.3885 141.748C42.3322 144.665 40.374 150.57 40.3141 159.762C40.3077 160.72 40.6369 161.65 41.2446 162.391C41.8523 163.132 42.7001 163.637 43.641 163.818L81.6063 171.001C81.24 172.036 80.956 173.099 80.7571 174.178C80.1913 177.092 80.2068 180.088 80.8025 182.995C81.3982 185.902 82.5625 188.663 84.2284 191.119C85.8943 193.575 88.0291 195.677 90.51 197.306C92.991 198.934 95.7692 200.056 98.6851 200.608C101.601 201.159 104.597 201.129 107.501 200.519C110.406 199.909 113.161 198.732 115.609 197.054C118.056 195.376 120.148 193.231 121.765 190.742C123.381 188.253 124.489 185.469 125.027 182.551C125.231 181.469 125.354 180.374 125.396 179.274L163.362 186.447C164.306 186.632 165.286 186.475 166.126 186.005C166.965 185.535 167.611 184.781 167.947 183.88C171.314 175.317 171.574 169.093 168.787 164.797V164.797ZM116.944 181.022C116.239 184.75 114.082 188.046 110.948 190.184C107.813 192.322 103.957 193.127 100.229 192.422C96.5011 191.717 93.2056 189.56 91.0677 186.425C88.9299 183.291 88.1249 179.435 88.8297 175.707C89.0387 174.613 89.4091 173.555 89.9287 172.57L117.074 177.695C117.2 178.804 117.156 179.926 116.944 181.022V181.022ZM124.961 62.0639L124.881 62.044C122.852 61.6768 120.804 61.4299 118.746 61.3046C120.715 57.0785 123.782 54.5608 126.21 55.0204C128.637 55.48 130.566 58.9368 130.865 63.5925C128.931 62.9605 126.959 62.45 124.961 62.0639" fill="white"/>
</g>
<g filter="url(#filter2_d_2130_75318)">
<path d="M53.1193 83.4398C64.9898 83.4398 74.6127 73.8169 74.6127 61.9465C74.6127 50.076 64.9898 40.4531 53.1193 40.4531C41.2489 40.4531 31.626 50.076 31.626 61.9465C31.626 73.8169 41.2489 83.4398 53.1193 83.4398Z" stroke="#C8D3D9" stroke-width="5" stroke-linecap="round" stroke-linejoin="round"/>
</g>
<g filter="url(#filter3_d_2130_75318)">
<path d="M68.7498 47.1973L38.3696 77.5775" stroke="#C8D3D9" stroke-width="5" stroke-linecap="round" stroke-linejoin="round"/>
</g>
<g filter="url(#filter4_d_2130_75318)">
<path d="M176.599 167.291C176.942 167.634 177.134 168.098 177.134 168.583C177.135 169.067 176.942 169.532 176.6 169.874C176.257 170.217 175.793 170.409 175.308 170.409C174.824 170.41 174.359 170.217 174.017 169.875L168.432 164.289L162.848 169.875C162.678 170.044 162.477 170.179 162.255 170.271C162.034 170.362 161.796 170.41 161.556 170.409C161.316 170.409 161.079 170.362 160.857 170.27C160.636 170.178 160.434 170.044 160.265 169.874C160.095 169.705 159.961 169.503 159.869 169.282C159.777 169.06 159.73 168.822 159.73 168.583C159.73 168.343 159.777 168.105 159.869 167.884C159.961 167.662 160.096 167.461 160.265 167.291L165.85 161.705L160.265 156.12C160.092 155.951 159.955 155.75 159.86 155.528C159.766 155.305 159.716 155.066 159.715 154.824C159.713 154.583 159.76 154.343 159.852 154.12C159.944 153.896 160.079 153.693 160.25 153.522C160.421 153.351 160.624 153.216 160.847 153.124C161.071 153.032 161.31 152.986 161.552 152.987C161.794 152.989 162.033 153.038 162.255 153.133C162.478 153.227 162.679 153.365 162.848 153.538L168.432 159.124L174.017 153.538C174.185 153.365 174.387 153.227 174.609 153.133C174.832 153.038 175.071 152.989 175.312 152.987C175.554 152.986 175.794 153.032 176.017 153.124C176.241 153.216 176.444 153.351 176.615 153.522C176.786 153.693 176.921 153.896 177.013 154.12C177.104 154.343 177.151 154.583 177.15 154.824C177.148 155.066 177.099 155.305 177.004 155.528C176.91 155.75 176.772 155.951 176.599 156.12L171.014 161.705L176.599 167.291Z" fill="#C8D3D9"/>
</g>
<g filter="url(#filter5_d_2130_75318)">
<path d="M184.049 61.4131L181.469 82.4938C181.277 84.0054 179.35 85.1474 177.141 85.1474C174.932 85.1474 173.006 84.0054 172.813 82.4938L170.233 61.4131C169.7 57.0851 172.783 53.0088 177.141 53.0088C181.499 53.0088 184.582 57.0851 184.049 61.4131Z" fill="white"/>
</g>
<path d="M184.052 61.4131L181.472 82.4938C181.28 84.0054 179.353 85.1474 177.144 85.1474C174.935 85.1474 173.009 84.0054 172.816 82.4938L170.236 61.4131C169.703 57.0851 172.786 53.0088 177.144 53.0088C181.502 53.0088 184.585 57.0881 184.052 61.4131Z" stroke="white" stroke-width="1.475" stroke-miterlimit="10"/>
<g filter="url(#filter6_d_2130_75318)">
<path d="M181.129 92.171C181.129 92.9596 180.896 93.7305 180.458 94.3862C180.019 95.0419 179.397 95.553 178.668 95.8548C177.939 96.1566 177.138 96.2356 176.364 96.0817C175.591 95.9278 174.88 95.5481 174.323 94.9905C173.765 94.4328 173.385 93.7223 173.231 92.9489C173.078 92.1754 173.157 91.3737 173.458 90.6451C173.76 89.9165 174.271 89.2937 174.927 88.8556C175.583 88.4175 176.354 88.1836 177.142 88.1836C177.666 88.182 178.185 88.2841 178.67 88.4839C179.154 88.6837 179.595 88.9774 179.965 89.348C180.336 89.7185 180.629 90.1587 180.829 90.6432C181.029 91.1277 181.131 91.6469 181.129 92.171" fill="white"/>
</g>
<path d="M181.132 92.171C181.132 92.9596 180.899 93.7305 180.46 94.3862C180.022 95.0419 179.4 95.553 178.671 95.8548C177.942 96.1566 177.141 96.2356 176.367 96.0817C175.594 95.9278 174.883 95.5481 174.326 94.9905C173.768 94.4328 173.388 93.7223 173.234 92.9489C173.08 92.1754 173.159 91.3737 173.461 90.6451C173.763 89.9165 174.274 89.2937 174.93 88.8556C175.586 88.4175 176.356 88.1836 177.145 88.1836C177.669 88.182 178.188 88.2841 178.673 88.4839C179.157 88.6837 179.598 88.9774 179.968 89.348C180.339 89.7185 180.632 90.1587 180.832 90.6432C181.032 91.1277 181.134 91.6469 181.132 92.171V92.171Z" stroke="white" stroke-width="1.475" stroke-miterlimit="10"/>
<g filter="url(#filter7_d_2130_75318)">
<path d="M119.814 35.878C119.627 35.8783 119.441 35.837 119.272 35.7571C119.158 35.7161 119.055 35.6493 118.971 35.562C118.887 35.4747 118.824 35.3693 118.787 35.2538C118.751 35.1383 118.741 35.0159 118.76 34.8961C118.778 34.7764 118.824 34.6625 118.893 34.5632L122.754 29.2451C122.929 29.0379 123.168 28.8952 123.434 28.8395C123.7 28.7837 123.976 28.8182 124.22 28.9374C124.334 28.9785 124.437 29.0452 124.521 29.1324C124.605 29.2196 124.667 29.325 124.704 29.4404C124.741 29.5557 124.75 29.678 124.732 29.7976C124.714 29.9172 124.668 30.0311 124.599 30.1303L120.738 35.4494C120.628 35.5874 120.487 35.6979 120.327 35.7723C120.166 35.8466 119.991 35.8828 119.814 35.878" fill="white"/>
</g>
<g filter="url(#filter8_d_2130_75318)">
<path d="M123.833 35.8782C123.645 35.8783 123.459 35.8367 123.288 35.7563C123.174 35.7152 123.07 35.6481 122.986 35.5602C122.902 35.4724 122.839 35.3663 122.803 35.2502C122.766 35.1341 122.757 35.0111 122.776 34.8909C122.795 34.7707 122.842 34.6566 122.913 34.5574L126.775 29.2393C126.95 29.0316 127.19 28.8886 127.456 28.8332C127.722 28.7777 127.998 28.8131 128.242 28.9336C128.355 28.9748 128.458 29.0417 128.542 29.129C128.626 29.2164 128.688 29.3218 128.724 29.4372C128.761 29.5526 128.77 29.6748 128.751 29.7943C128.733 29.9139 128.687 30.0275 128.617 30.1265L124.755 35.4456C124.645 35.5834 124.504 35.6938 124.344 35.768C124.184 35.8422 124.009 35.8782 123.833 35.8732" fill="white"/>
</g>
<g filter="url(#filter9_d_2130_75318)">
<path d="M128.319 35.8782C128.13 35.8783 127.944 35.8367 127.774 35.7563C127.66 35.7152 127.556 35.6481 127.472 35.5602C127.388 35.4724 127.325 35.3663 127.289 35.2502C127.252 35.1341 127.243 35.0111 127.262 34.8909C127.281 34.7707 127.328 34.6566 127.398 34.5574L131.261 29.2393C131.436 29.0316 131.676 28.8886 131.941 28.8332C132.207 28.7777 132.484 28.8131 132.728 28.9336C132.841 28.9748 132.944 29.0417 133.028 29.129C133.111 29.2164 133.174 29.3218 133.21 29.4372C133.246 29.5526 133.256 29.6748 133.237 29.7943C133.219 29.9139 133.173 30.0275 133.103 30.1265L129.241 35.4456C129.131 35.5834 128.99 35.6938 128.83 35.768C128.67 35.8422 128.495 35.8782 128.319 35.8732" fill="white"/>
</g>
<defs>
<filter id="filter0_d_2130_75318" x="9.59863" y="0" width="211.512" height="211.512" filterUnits="userSpaceOnUse" color-interpolation-filters="sRGB">
<feFlood flood-opacity="0" result="BackgroundImageFix"/>
<feColorMatrix in="SourceAlpha" type="matrix" values="0 0 0 0 0 0 0 0 0 0 0 0 0 0 0 0 0 0 127 0" result="hardAlpha"/>
<feOffset dy="5"/>
<feGaussianBlur stdDeviation="3"/>
<feColorMatrix type="matrix" values="0 0 0 0 0.784314 0 0 0 0 0.827451 0 0 0 0 0.85098 0 0 0 0.302 0"/>
<feBlend mode="normal" in2="BackgroundImageFix" result="effect1_dropShadow_2130_75318"/>
<feBlend mode="normal" in="SourceGraphic" in2="effect1_dropShadow_2130_75318" result="shape"/>
</filter>
<filter id="filter1_d_2130_75318" x="34.314" y="43.7334" width="142.379" height="166.267" filterUnits="userSpaceOnUse" color-interpolation-filters="sRGB">
<feFlood flood-opacity="0" result="BackgroundImageFix"/>
<feColorMatrix in="SourceAlpha" type="matrix" values="0 0 0 0 0 0 0 0 0 0 0 0 0 0 0 0 0 0 127 0" result="hardAlpha"/>
<feOffset dy="3"/>
<feGaussianBlur stdDeviation="3"/>
<feColorMatrix type="matrix" values="0 0 0 0 0.784314 0 0 0 0 0.827451 0 0 0 0 0.85098 0 0 0 0.302 0"/>
<feBlend mode="normal" in2="BackgroundImageFix" result="effect1_dropShadow_2130_75318"/>
<feBlend mode="normal" in="SourceGraphic" in2="effect1_dropShadow_2130_75318" result="shape"/>
</filter>
<filter id="filter2_d_2130_75318" x="23.126" y="34.9531" width="59.9868" height="59.9863" filterUnits="userSpaceOnUse" color-interpolation-filters="sRGB">
<feFlood flood-opacity="0" result="BackgroundImageFix"/>
<feColorMatrix in="SourceAlpha" type="matrix" values="0 0 0 0 0 0 0 0 0 0 0 0 0 0 0 0 0 0 127 0" result="hardAlpha"/>
<feOffset dy="3"/>
<feGaussianBlur stdDeviation="3"/>
<feColorMatrix type="matrix" values="0 0 0 0 0.784314 0 0 0 0 0.827451 0 0 0 0 0.85098 0 0 0 0.302 0"/>
<feBlend mode="normal" in2="BackgroundImageFix" result="effect1_dropShadow_2130_75318"/>
<feBlend mode="normal" in="SourceGraphic" in2="effect1_dropShadow_2130_75318" result="shape"/>
</filter>
<filter id="filter3_d_2130_75318" x="29.8696" y="41.6973" width="47.3804" height="47.3799" filterUnits="userSpaceOnUse" color-interpolation-filters="sRGB">
<feFlood flood-opacity="0" result="BackgroundImageFix"/>
<feColorMatrix in="SourceAlpha" type="matrix" values="0 0 0 0 0 0 0 0 0 0 0 0 0 0 0 0 0 0 127 0" result="hardAlpha"/>
<feOffset dy="3"/>
<feGaussianBlur stdDeviation="3"/>
<feColorMatrix type="matrix" values="0 0 0 0 0.784314 0 0 0 0 0.827451 0 0 0 0 0.85098 0 0 0 0.302 0"/>
<feBlend mode="normal" in2="BackgroundImageFix" result="effect1_dropShadow_2130_75318"/>
<feBlend mode="normal" in="SourceGraphic" in2="effect1_dropShadow_2130_75318" result="shape"/>
</filter>
<filter id="filter4_d_2130_75318" x="153.715" y="149.987" width="29.4346" height="29.4219" filterUnits="userSpaceOnUse" color-interpolation-filters="sRGB">
<feFlood flood-opacity="0" result="BackgroundImageFix"/>
<feColorMatrix in="SourceAlpha" type="matrix" values="0 0 0 0 0 0 0 0 0 0 0 0 0 0 0 0 0 0 127 0" result="hardAlpha"/>
<feOffset dy="3"/>
<feGaussianBlur stdDeviation="3"/>
<feColorMatrix type="matrix" values="0 0 0 0 0.784314 0 0 0 0 0.827451 0 0 0 0 0.85098 0 0 0 0.302 0"/>
<feBlend mode="normal" in2="BackgroundImageFix" result="effect1_dropShadow_2130_75318"/>
<feBlend mode="normal" in="SourceGraphic" in2="effect1_dropShadow_2130_75318" result="shape"/>
</filter>
<filter id="filter5_d_2130_75318" x="164.173" y="50.0088" width="25.9355" height="44.1387" filterUnits="userSpaceOnUse" color-interpolation-filters="sRGB">
<feFlood flood-opacity="0" result="BackgroundImageFix"/>
<feColorMatrix in="SourceAlpha" type="matrix" values="0 0 0 0 0 0 0 0 0 0 0 0 0 0 0 0 0 0 127 0" result="hardAlpha"/>
<feOffset dy="3"/>
<feGaussianBlur stdDeviation="3"/>
<feColorMatrix type="matrix" values="0 0 0 0 0.784314 0 0 0 0 0.827451 0 0 0 0 0.85098 0 0 0 0.302 0"/>
<feBlend mode="normal" in2="BackgroundImageFix" result="effect1_dropShadow_2130_75318"/>
<feBlend mode="normal" in="SourceGraphic" in2="effect1_dropShadow_2130_75318" result="shape"/>
</filter>
<filter id="filter6_d_2130_75318" x="167.155" y="85.1836" width="19.9746" height="19.9746" filterUnits="userSpaceOnUse" color-interpolation-filters="sRGB">
<feFlood flood-opacity="0" result="BackgroundImageFix"/>
<feColorMatrix in="SourceAlpha" type="matrix" values="0 0 0 0 0 0 0 0 0 0 0 0 0 0 0 0 0 0 127 0" result="hardAlpha"/>
<feOffset dy="3"/>
<feGaussianBlur stdDeviation="3"/>
<feColorMatrix type="matrix" values="0 0 0 0 0.784314 0 0 0 0 0.827451 0 0 0 0 0.85098 0 0 0 0.302 0"/>
<feBlend mode="normal" in2="BackgroundImageFix" result="effect1_dropShadow_2130_75318"/>
<feBlend mode="normal" in="SourceGraphic" in2="effect1_dropShadow_2130_75318" result="shape"/>
</filter>
<filter id="filter7_d_2130_75318" x="112.75" y="25.8135" width="17.9902" height="19.0654" filterUnits="userSpaceOnUse" color-interpolation-filters="sRGB">
<feFlood flood-opacity="0" result="BackgroundImageFix"/>
<feColorMatrix in="SourceAlpha" type="matrix" values="0 0 0 0 0 0 0 0 0 0 0 0 0 0 0 0 0 0 127 0" result="hardAlpha"/>
<feOffset dy="3"/>
<feGaussianBlur stdDeviation="3"/>
<feColorMatrix type="matrix" values="0 0 0 0 0.784314 0 0 0 0 0.827451 0 0 0 0 0.85098 0 0 0 0.302 0"/>
<feBlend mode="normal" in2="BackgroundImageFix" result="effect1_dropShadow_2130_75318"/>
<feBlend mode="normal" in="SourceGraphic" in2="effect1_dropShadow_2130_75318" result="shape"/>
</filter>
<filter id="filter8_d_2130_75318" x="116.767" y="25.8076" width="17.9941" height="19.0703" filterUnits="userSpaceOnUse" color-interpolation-filters="sRGB">
<feFlood flood-opacity="0" result="BackgroundImageFix"/>
<feColorMatrix in="SourceAlpha" type="matrix" values="0 0 0 0 0 0 0 0 0 0 0 0 0 0 0 0 0 0 127 0" result="hardAlpha"/>
<feOffset dy="3"/>
<feGaussianBlur stdDeviation="3"/>
<feColorMatrix type="matrix" values="0 0 0 0 0.784314 0 0 0 0 0.827451 0 0 0 0 0.85098 0 0 0 0.302 0"/>
<feBlend mode="normal" in2="BackgroundImageFix" result="effect1_dropShadow_2130_75318"/>
<feBlend mode="normal" in="SourceGraphic" in2="effect1_dropShadow_2130_75318" result="shape"/>
</filter>
<filter id="filter9_d_2130_75318" x="121.252" y="25.8076" width="17.9941" height="19.0703" filterUnits="userSpaceOnUse" color-interpolation-filters="sRGB">
<feFlood flood-opacity="0" result="BackgroundImageFix"/>
<feColorMatrix in="SourceAlpha" type="matrix" values="0 0 0 0 0 0 0 0 0 0 0 0 0 0 0 0 0 0 127 0" result="hardAlpha"/>
<feOffset dy="3"/>
<feGaussianBlur stdDeviation="3"/>
<feColorMatrix type="matrix" values="0 0 0 0 0.784314 0 0 0 0 0.827451 0 0 0 0 0.85098 0 0 0 0.302 0"/>
<feBlend mode="normal" in2="BackgroundImageFix" result="effect1_dropShadow_2130_75318"/>
<feBlend mode="normal" in="SourceGraphic" in2="effect1_dropShadow_2130_75318" result="shape"/>
</filter>
</defs>
</svg>
