<svg width="24" height="24" viewBox="0 0 24 24" fill="none" xmlns="http://www.w3.org/2000/svg">
<path d="M7.25355 14.6373L7.25269 14.6364L4.44731 11.831L4.4473 11.831C3.7226 11.1063 3.30273 10.0856 3.30273 9.03293C3.30273 7.99588 3.70828 7.008 4.45154 6.24859C5.19205 5.5103 6.17884 5.10352 7.23642 5.10352C8.29431 5.10352 9.28132 5.51048 10.0219 6.24923L11.0673 7.31353L11.6348 7.89135L11.9885 8.25144L12.3453 7.89438L12.9177 7.32141L12.9177 7.3214L13.9855 6.25257L13.9857 6.2524L13.988 6.25007L13.9881 6.25009L13.9923 6.24573L13.9938 6.24424C13.9939 6.24408 13.9941 6.24392 13.9942 6.24377C14.7093 5.51555 15.6958 5.10828 16.7834 5.10828C17.84 5.10828 18.8249 5.51472 19.5626 6.2519C21.0839 7.78827 21.0843 10.295 19.5601 11.8345C19.5598 11.8348 19.5595 11.835 19.5592 11.8353L12.8357 18.5598C12.6105 18.7787 12.3141 18.8991 11.9964 18.8991C11.679 18.8991 11.383 18.779 11.1578 18.5605L7.25355 14.6373Z" fill="#BF283A" stroke="#BF283A"/>
<path d="M12.9715 18.7027L12.9715 18.7028L12.9772 18.6971L19.7003 11.9729L19.7023 11.9709C20.4731 11.1913 20.8958 10.1489 20.8958 9.04152C20.8958 7.9343 20.4732 6.89209 19.7027 6.11251L19.7004 6.11012C18.9247 5.33579 17.8867 4.91021 16.783 4.91021C15.6597 4.91021 14.6149 5.32916 13.8535 6.1042C13.8531 6.10459 13.8527 6.10498 13.8523 6.10537L13.8455 6.11227L13.8446 6.11318L11.9893 7.97019L10.1638 6.11163L10.1639 6.11161L10.1601 6.10786C9.38179 5.33212 8.34157 4.90545 7.23602 4.90545C6.13117 4.90545 5.09162 5.33145 4.31345 6.10636L4.31342 6.10632L4.3088 6.11105C3.53495 6.90228 3.10468 7.93996 3.10468 9.03252C3.10468 10.1329 3.53981 11.2031 4.30712 11.9704L7.11303 14.7763L7.11388 14.7772L11.015 18.6972L11.0149 18.6973L11.022 18.7041C11.2844 18.9575 11.6315 19.0964 11.996 19.0964C12.3612 19.0964 12.7089 18.957 12.9715 18.7027ZM16.783 4.30553C17.994 4.30553 19.199 4.75407 20.1296 5.68425C21.9575 7.53017 21.9575 10.5529 20.1296 12.3988C20.1293 12.3991 20.1291 12.3994 20.1288 12.3996L13.401 19.1285C13.4004 19.129 13.3998 19.1296 13.3993 19.1301C13.0105 19.5105 12.5043 19.701 11.996 19.701C11.4878 19.701 10.9819 19.5106 10.5931 19.1305L6.68443 15.2028L6.68357 15.202L3.87955 12.398C2.96747 11.4859 2.5 10.2614 2.5 9.03252C2.5 7.82703 2.96459 6.61816 3.8812 5.68344C5.7266 3.83987 8.74559 3.83988 10.5909 5.68355L11.6393 6.7509L11.993 7.11099L12.3497 6.75392L13.4177 5.68492L13.4177 5.68493L13.4208 5.68178C14.3289 4.75669 15.5499 4.30553 16.783 4.30553Z" fill="#BF283A" stroke="#BF283A"/>
</svg>
