<svg width="24" height="24" viewBox="0 0 24 24" fill="none" xmlns="http://www.w3.org/2000/svg">
<path d="M13.07 19.77C12.76 19.77 12.26 19.75 11.59 19.72C11.19 19.7 10.97 19.69 10.92 19.69C8.70004 19.69 7.19004 19.71 6.42004 19.75C5.53004 19.75 5.5 19.12 5.5 19.04C5.5 18.76 5.67005 18.52 5.93005 18.42C6.01005 18.39 6.15006 18.35 6.87006 18.22C7.04006 18.19 7.17001 18.12 7.26001 18.02C7.29001 17.99 7.42003 17.8 7.53003 17.08C7.61003 16.5 7.66003 15.62 7.66003 14.46C7.66003 13.28 7.67001 12.32 7.70001 11.59C7.73001 10.88 7.74005 10.33 7.74005 9.94997C7.74005 8.77997 7.70005 7.82997 7.61005 7.12997C7.50005 6.20997 7.35003 6.01997 7.34003 5.99997C7.33003 5.97997 7.19006 5.83997 6.62006 5.74997C6.08006 5.67997 5.88 5.32997 5.88 5.02997C5.88 4.67997 6.13001 4.32997 6.70001 4.32997L8.69 4.35997C9.32 4.35997 9.92003 4.34997 10.47 4.31997C11.75 4.24997 12.58 4.21997 12.95 4.21997C14.39 4.21997 15.57 4.54997 16.45 5.19997C17.36 5.88997 17.83 6.82997 17.83 7.99997C17.83 8.91997 17.5301 9.71997 16.9301 10.39C16.5701 10.79 16.09 11.14 15.46 11.44C16.24 11.76 16.87 12.15 17.35 12.6C18.12 13.33 18.51 14.24 18.51 15.29C18.51 16.4 18.04 17.43 17.11 18.36C16.18 19.3 14.82 19.77 13.07 19.77ZM10.55 18.06C10.6 18.08 10.69 18.12 10.85 18.17C11.07 18.23 11.5201 18.29 12.4301 18.29C13.0501 18.29 13.54 18.21 13.91 18.04C14.25 17.89 14.58 17.57 14.88 17.09C15.19 16.61 15.34 16.01 15.34 15.32C15.34 14.3 15.0601 13.58 14.4901 13.12C13.8901 12.64 12.96 12.4 11.73 12.4C11.38 12.4 11.01 12.42 10.61 12.45C10.59 12.56 10.58 12.71 10.58 12.93L10.5 16.31C10.5 17.48 10.54 17.91 10.55 18.06ZM10.7401 10.98C12.0201 10.98 13.05 10.75 13.8 10.3C14.48 9.88997 14.8101 9.19997 14.8101 8.18997C14.8101 7.32997 14.57 6.71997 14.07 6.31997C13.54 5.88997 12.88 5.67997 12.07 5.67997C11.67 5.67997 11.22 5.74997 10.72 5.88997C10.66 7.30997 10.64 8.47997 10.64 9.36997C10.64 9.36997 10.7101 10.98 10.7401 10.98Z" fill="#354752"/>
<path d="M12.9498 4.73999C14.2898 4.73999 15.3598 5.02999 16.1498 5.61999C16.9298 6.20999 17.3198 7.00999 17.3198 8.01999C17.3198 8.81999 17.0598 9.49999 16.5498 10.07C16.0398 10.64 15.1698 11.11 13.9598 11.48C15.3098 11.84 16.3198 12.33 16.9898 12.97C17.6598 13.61 17.9998 14.38 17.9998 15.3C17.9998 16.28 17.5798 17.18 16.7498 18.01C15.9198 18.84 14.6898 19.26 13.0698 19.26C12.7698 19.26 12.2798 19.24 11.6098 19.21C11.1798 19.19 10.9498 19.18 10.9098 19.18C8.67979 19.18 7.16976 19.2 6.37976 19.25C6.11976 19.25 5.98981 19.18 5.98981 19.04C5.98981 18.97 6.02979 18.92 6.09979 18.89C6.17979 18.86 6.45976 18.8 6.93976 18.72C7.22976 18.67 7.45976 18.55 7.62976 18.35C7.79976 18.15 7.91977 17.76 8.00977 17.15C8.09977 16.54 8.13977 15.65 8.13977 14.46C8.13977 13.29 8.14981 12.34 8.17981 11.62C8.20981 10.9 8.21979 10.35 8.21979 9.95999C8.21979 8.75999 8.16977 7.79999 8.07977 7.07999C7.98977 6.35999 7.85976 5.88999 7.68976 5.68999C7.51976 5.48999 7.1798 5.34999 6.6698 5.26999C6.4598 5.23999 6.34979 5.15999 6.34979 5.03999C6.34979 4.90999 6.4598 4.83999 6.6698 4.83999L8.64978 4.86999C9.29978 4.86999 9.89979 4.85999 10.4698 4.82999C11.7598 4.76999 12.5798 4.73999 12.9498 4.73999ZM10.7398 11.48C12.1198 11.48 13.2198 11.23 14.0598 10.72C14.8998 10.21 15.3098 9.36999 15.3098 8.17999C15.3098 7.16999 14.9998 6.41999 14.3798 5.91999C13.7598 5.41999 12.9898 5.16999 12.0698 5.16999C11.5298 5.16999 10.9198 5.27999 10.2298 5.49999C10.1598 7.08999 10.1298 8.37999 10.1298 9.35999L10.1398 10.97C10.1398 11.19 10.1698 11.33 10.2298 11.38C10.2998 11.45 10.4698 11.48 10.7398 11.48ZM12.4298 18.79C13.1198 18.79 13.6798 18.69 14.1098 18.5C14.5398 18.31 14.9398 17.93 15.2998 17.36C15.6598 16.79 15.8398 16.12 15.8398 15.33C15.8398 14.16 15.4898 13.29 14.7998 12.74C14.1098 12.19 13.0798 11.91 11.7298 11.91C11.2698 11.91 10.7698 11.94 10.2298 11.99C10.1298 12.17 10.0798 12.49 10.0798 12.94L9.99976 16.31C9.99976 17.5 10.0298 18.16 10.0898 18.3C10.1498 18.44 10.3598 18.55 10.7198 18.65C11.0798 18.75 11.6498 18.79 12.4298 18.79ZM12.9498 3.73999C12.5598 3.73999 11.7398 3.76999 10.4398 3.83999C9.88976 3.86999 9.2998 3.87999 8.6698 3.87999L6.70978 3.84999C5.82978 3.84999 5.37976 4.44999 5.37976 5.04999C5.37976 5.57999 5.73981 6.15999 6.55981 6.26999C6.75981 6.29999 6.87977 6.33999 6.94977 6.35999C6.98977 6.46999 7.04981 6.70999 7.11981 7.19999C7.20981 7.87999 7.24976 8.80999 7.24976 9.95999C7.24976 10.34 7.23978 10.87 7.20978 11.58C7.17978 12.31 7.1698 13.28 7.1698 14.47C7.1698 15.61 7.1298 16.46 7.0498 17.01C6.9798 17.53 6.88976 17.7 6.87976 17.73C6.87976 17.73 6.87981 17.72 6.86981 17.72C6.85981 17.72 6.8298 17.73 6.7998 17.73C6.0398 17.87 5.88978 17.91 5.76978 17.95C5.30978 18.13 5.00977 18.55 5.00977 19.04C5.00977 19.62 5.44978 20.25 6.39978 20.25H6.42981H6.45978C7.21978 20.21 8.72981 20.19 10.9298 20.19C10.9698 20.19 11.1898 20.2 11.5798 20.22C12.2698 20.26 12.7598 20.28 13.0898 20.28C14.9698 20.28 16.4498 19.76 17.4698 18.74C18.4898 17.72 19.0098 16.57 19.0098 15.32C19.0098 14.12 18.5698 13.1 17.6898 12.27C17.3598 11.96 16.9798 11.68 16.5298 11.43C16.8298 11.22 17.0898 11 17.2998 10.76C17.9798 9.99999 18.3298 9.08999 18.3298 8.03999C18.3298 6.71999 17.7898 5.60999 16.7498 4.83999C15.7798 4.09999 14.5098 3.73999 12.9498 3.73999ZM11.1998 6.27999C11.5198 6.20999 11.8098 6.17999 12.0698 6.17999C12.7598 6.17999 13.3198 6.34999 13.7598 6.70999C13.8998 6.81999 14.3198 7.15999 14.3198 8.18999C14.3198 9.27999 13.8798 9.67999 13.5498 9.86999C12.9598 10.23 12.1498 10.43 11.1498 10.47L11.1398 9.35999C11.1398 8.55999 11.1598 7.51999 11.1998 6.27999ZM11.0798 12.93C11.3098 12.92 11.5298 12.91 11.7298 12.91C12.8498 12.91 13.6698 13.11 14.1798 13.52C14.6298 13.87 14.8398 14.47 14.8398 15.33C14.8398 15.93 14.7098 16.42 14.4498 16.82C14.1998 17.21 13.9398 17.47 13.6898 17.58C13.3898 17.71 12.9498 17.78 12.4198 17.78C11.5998 17.78 11.1998 17.72 11.0198 17.68C11.0098 17.43 10.9998 17.01 10.9998 16.3L11.0798 12.95C11.0798 12.95 11.0798 12.94 11.0798 12.93Z" fill="#354752"/>
</svg>
