<svg width="112" height="111" viewBox="0 0 112 111" fill="none" xmlns="http://www.w3.org/2000/svg">
<path d="M104.925 50.0571C104.91 62.9593 99.9084 75.3563 90.9656 84.6563C82.0228 93.9564 69.8311 99.4395 56.9394 99.9594C44.0478 100.479 31.4542 95.9955 21.7916 87.4456C12.129 78.8958 6.14551 66.9418 5.092 54.0827C4.03849 41.2237 7.99658 28.4551 16.1387 18.4466C24.2809 8.43807 35.9767 1.96444 48.7811 0.379066C61.5855 -1.20631 74.507 2.21935 84.8443 9.93984C95.1815 17.6603 102.134 29.0779 104.249 41.8056C104.701 44.5328 104.927 47.2927 104.925 50.0571Z" fill="#F4F7FB"/>
<g filter="url(#filter0_d_2374_380531)">
<path d="M65.9104 99.3445H45.2507V40.3432C45.2507 37.9375 46.966 35.1116 49.1267 34.0313L60.9931 28.0981C63.6564 26.7666 65.9104 27.9286 65.9104 30.7265V99.3445Z" fill="white"/>
</g>
<g filter="url(#filter1_d_2374_380531)">
<path d="M45.2508 99.3445H30.5074C29.8761 99.3445 29.2706 99.0936 28.8242 98.6471C28.3777 98.2006 28.127 97.5951 28.127 96.9637V67.3003C28.127 64.8946 29.7421 62.0779 31.8215 60.9855L40.1198 56.6258C42.8637 55.1842 45.2504 56.3849 45.2504 59.3847L45.2508 99.3445Z" fill="white"/>
</g>
<g filter="url(#filter2_d_2374_380531)">
<path d="M79.4769 99.3448H65.9105V69.7364C65.9105 66.9123 68.3355 65.7125 71.0965 66.9769L78.5183 70.3761C80.5777 71.3194 82.1654 73.8621 82.1654 76.0811V96.6563C82.1653 97.3693 81.882 98.0531 81.3779 98.5573C80.8737 99.0614 80.1899 99.3447 79.4769 99.3448Z" fill="white"/>
</g>
<path d="M51.9822 41.2881V94.49" stroke="#F4F7FB" stroke-width="5" stroke-linecap="round" stroke-linejoin="round"/>
<path d="M39.2017 65.1447V94.4902" stroke="#F4F7FB" stroke-width="5" stroke-linecap="round" stroke-linejoin="round"/>
<path d="M33.1526 68.5751V94.4893" stroke="#F4F7FB" stroke-width="5" stroke-linecap="round" stroke-linejoin="round"/>
<path d="M70.8657 74.4039V94.4895" stroke="#F4F7FB" stroke-width="5" stroke-linecap="round" stroke-linejoin="round"/>
<path d="M76.2015 77.681V94.4895" stroke="#F4F7FB" stroke-width="5" stroke-linecap="round" stroke-linejoin="round"/>
<path d="M58.7136 37.4273V94.4895" stroke="#F4F7FB" stroke-width="5" stroke-linecap="round" stroke-linejoin="round"/>
<path d="M20.7214 39.3265C20.2052 38.827 19.5172 38.5444 18.799 38.5368C18.0798 38.5386 17.3898 38.8221 16.8771 39.3265C17.1262 39.0691 17.425 38.8651 17.7554 38.7269C18.0858 38.5886 18.4409 38.519 18.799 38.5222C19.1568 38.5219 19.511 38.5928 19.8411 38.7309C20.1712 38.869 20.4704 39.0715 20.7214 39.3265Z" stroke="#C8D3D9" stroke-width="1.454" stroke-miterlimit="10"/>
<path d="M26.1307 40.0716L24.745 39.8778C24.6008 39.2248 24.349 38.6003 23.9999 38.03L24.8192 36.9423C24.945 36.8065 25.0149 36.6282 25.0149 36.4431C25.0149 36.2579 24.945 36.0797 24.8192 35.9438L24.0745 35.1987C23.9387 35.1031 23.7761 35.053 23.6101 35.0557C23.4441 35.0584 23.2832 35.1137 23.1506 35.2137L22.0179 36.065C21.4589 35.7115 20.8444 35.4547 20.2001 35.3054L20.0209 33.9032C19.998 33.7246 19.9116 33.5601 19.7776 33.4398C19.6436 33.3195 19.4708 33.2513 19.2907 33.2477H18.3358C18.1574 33.2519 17.9865 33.3205 17.8549 33.4411C17.7233 33.5616 17.64 33.7258 17.6202 33.9032L17.4119 35.2894C16.7703 35.4401 16.1566 35.6916 15.5937 36.0344L14.4464 35.1702C14.3019 35.0718 14.1294 35.0229 13.9548 35.031C13.7801 35.039 13.6128 35.1035 13.4779 35.2147L12.7473 35.9748C12.6516 36.1106 12.6015 36.2732 12.6042 36.4393C12.6069 36.6053 12.6623 36.7663 12.7623 36.8988L13.6136 38.0165C13.2601 38.5754 13.0033 39.1899 12.854 39.8342L11.4383 40.0281C11.2621 40.0504 11.0995 40.1345 10.9794 40.2654C10.8593 40.3963 10.7895 40.5656 10.7823 40.7431V41.697C10.7843 41.8801 10.8539 42.0561 10.9778 42.1909C11.1017 42.3257 11.2711 42.4098 11.4534 42.4271L12.8389 42.621C12.9898 43.2671 13.2413 43.8856 13.5841 44.4537L12.7198 45.5865C12.6215 45.731 12.5727 45.9035 12.5807 46.0781C12.5888 46.2527 12.6532 46.42 12.7644 46.5549L13.4499 47.2254C13.5802 47.3515 13.752 47.4256 13.9331 47.4339C14.1142 47.4422 14.2921 47.3841 14.4334 47.2705L15.5511 46.4192C16.1062 46.7834 16.7217 47.0459 17.3688 47.1944L17.5776 48.58C17.5932 48.7579 17.6729 48.9239 17.8019 49.0473C17.9309 49.1707 18.1004 49.2429 18.2787 49.2505L19.2472 49.2655C19.4301 49.2556 19.6037 49.1814 19.7373 49.056C19.8709 48.9306 19.9558 48.762 19.9773 48.58L20.1711 47.2089C20.821 47.0625 21.4409 46.8055 22.0039 46.4493L23.1056 47.2835C23.2434 47.4007 23.4191 47.4638 23.6 47.4611C23.7809 47.4584 23.9547 47.3902 24.089 47.269L24.9403 46.4177L24.9699 46.1794C24.9974 45.9736 24.9435 45.7651 24.8196 45.5985L23.9684 44.4968C24.331 43.937 24.5886 43.3157 24.7285 42.6635L26.1307 42.4697C26.3106 42.4534 26.4783 42.3715 26.6019 42.2397C26.7255 42.1078 26.7964 41.9353 26.8012 41.7547V40.7862C26.7934 40.6065 26.7215 40.4356 26.5985 40.3045C26.4754 40.1733 26.3095 40.0907 26.1307 40.0716V40.0716ZM18.799 43.961C18.0782 43.9614 17.3866 43.6763 16.8755 43.168C16.3644 42.6597 16.0754 41.9697 16.0719 41.2489C16.0716 40.891 16.1427 40.5367 16.2809 40.2066C16.4192 39.8765 16.6219 39.5773 16.8771 39.3265C17.1262 39.0691 17.425 38.8651 17.7554 38.7269C18.0858 38.5886 18.4409 38.519 18.799 38.5222C19.1568 38.5219 19.5111 38.5928 19.8411 38.7309C20.1712 38.869 20.4705 39.0715 20.7214 39.3265C21.2209 39.8427 21.5034 40.5307 21.5111 41.2489C21.5085 41.9674 21.2219 42.6557 20.7139 43.1637C20.2058 43.6718 19.5175 43.9584 18.799 43.961V43.961Z" stroke="#C8D3D9" stroke-width="1.454" stroke-miterlimit="10"/>
<path d="M20.7214 39.3265C20.2052 38.827 19.5172 38.5444 18.799 38.5368C18.0798 38.5386 17.3898 38.8221 16.8771 39.3265C17.1262 39.0691 17.425 38.8651 17.7554 38.7269C18.0858 38.5886 18.4409 38.519 18.799 38.5222C19.1568 38.5219 19.511 38.5928 19.8411 38.7309C20.1712 38.869 20.4704 39.0715 20.7214 39.3265Z" stroke="#C8D3D9" stroke-width="1.454" stroke-miterlimit="10"/>
<path d="M92.1735 26.5058C91.234 25.5963 89.9816 25.0818 88.6741 25.0681C87.3646 25.0713 86.1084 25.5874 85.1748 26.5058C85.6282 26.037 86.1723 25.6654 86.7739 25.4136C87.3755 25.1618 88.022 25.035 88.6741 25.041C89.3255 25.0403 89.9705 25.1695 90.5713 25.421C91.1722 25.6725 91.7168 26.0413 92.1735 26.5058Z" fill="#C8D3D9"/>
<path d="M92.1735 26.5058C91.2515 25.6375 90.0307 25.0681 88.6741 25.0681C87.2905 25.0681 86.0697 25.6375 85.1748 26.5058C86.0697 25.5834 87.2905 25.041 88.6741 25.041C90.0307 25.041 91.2515 25.5834 92.1735 26.5058Z" fill="#C8D3D9"/>
<path d="M89.492 43.9366L87.7348 43.9097L87.7297 43.9097H87.7247C87.4634 43.9097 87.1534 43.6672 87.1081 43.2754L87.1068 43.2641L87.1051 43.2528L86.725 40.73L86.658 40.2852L86.2199 40.1833C85.1004 39.9227 84.0589 39.4789 83.1242 38.8644L82.7323 38.6066L82.359 38.8905L80.3373 40.4275C80.1725 40.5395 80.001 40.5987 79.8404 40.5987C79.6755 40.5987 79.5247 40.535 79.4042 40.4144L79.4015 40.4116L79.3987 40.4089L78.1944 39.2312C78.0321 38.9908 77.9073 38.6445 78.1445 38.2853L79.7065 36.2393L79.9806 35.8803L79.7467 35.4939C79.166 34.535 78.7241 33.4479 78.4686 32.3503L78.3655 31.9071L77.9148 31.8442L75.392 31.4917L75.3842 31.4906L75.3765 31.4896C75.0089 31.4472 74.7422 31.1649 74.7422 30.8185V29.0824C74.7422 28.768 75.0066 28.4971 75.3717 28.4359L77.94 28.0845L78.3923 28.0226L78.4957 27.5781C78.7523 26.475 79.1891 25.4301 79.7941 24.4723L80.0397 24.0835L79.7614 23.7173L78.2289 21.7009C78.0303 21.3931 78.0081 21.0634 78.1691 20.8289L79.4279 19.5184C79.5904 19.4044 79.7661 19.3444 79.9387 19.3444C80.0891 19.3444 80.2373 19.3902 80.3681 19.4768L82.4431 21.0393L82.8012 21.309L83.1848 21.077C84.1694 20.4814 85.218 20.0515 86.3015 19.7993L86.7396 19.6974L86.8066 19.2526L87.1867 16.7297L87.1882 16.7197L87.1894 16.7097C87.2303 16.3678 87.5132 16.0999 87.8333 16.0999H89.5694C89.9013 16.0999 90.1832 16.3622 90.2423 16.7246L90.5666 19.2648L90.6249 19.722L91.0738 19.8264C92.1769 20.083 93.2218 20.5199 94.1795 21.1248L94.5657 21.3687L94.9311 21.0947L96.9932 19.5484L97.0053 19.5393L97.0171 19.5296C97.1226 19.4427 97.2816 19.3927 97.4531 19.3927C97.6007 19.3927 97.7449 19.4317 97.8468 19.498L99.1571 20.8079C99.3901 21.0607 99.3837 21.4521 99.1412 21.7215L99.1218 21.743L99.1044 21.7661L97.6122 23.7466L97.3455 24.1004L97.5705 24.4821C98.2211 25.5854 98.6392 26.619 98.8487 27.642L98.9427 28.1006L99.4063 28.1654L101.924 28.5173C102.304 28.5774 102.579 28.8488 102.579 29.164V30.9272C102.579 31.2525 102.306 31.5292 101.945 31.5708L101.938 31.5716L101.93 31.5726L99.3802 31.9252L98.9157 31.9894L98.8217 32.4488C98.6075 33.4951 98.1719 34.5435 97.5269 35.5649L97.2797 35.9564L97.5623 36.3232L99.1024 38.3226C99.223 38.4916 99.2764 38.6981 99.249 38.8904L99.2482 38.8958L99.2475 38.9012L99.2213 39.1101L97.8355 40.4958C97.7074 40.6241 97.5474 40.651 97.4356 40.651C97.2584 40.651 97.0737 40.5847 96.9157 40.4643L94.9063 38.9441L94.5404 38.6673L94.1525 38.9123C93.1902 39.5202 92.1373 39.9566 91.0232 40.2094L90.5776 40.3106L90.5136 40.7631L90.1618 43.2542C90.1015 43.6355 89.8084 43.9341 89.492 43.9366ZM84.7029 26.0401C83.6349 27.1098 83.0468 28.5176 83.0468 30.0048C83.0468 33.0925 85.5712 35.6045 88.6741 35.6045C91.7621 35.6045 94.2743 33.0925 94.2743 30.0048C94.2743 28.5638 93.6996 27.1598 92.656 26.0512L92.6492 26.044L92.6422 26.037C91.573 24.9672 90.1637 24.378 88.6741 24.378C87.1549 24.378 85.7447 24.9683 84.7029 26.0401Z" fill="#C8D3D9"/>
<path d="M87.8585 16.7629C87.8541 16.7681 87.849 16.7765 87.8476 16.7885L87.8421 16.8286L87.3281 20.2411L86.4518 20.445C85.4364 20.6813 84.4526 21.0847 83.5279 21.6442L82.7607 22.1083L79.991 20.0226C79.9671 20.0091 79.9501 20.0073 79.9388 20.0073C79.9145 20.0073 79.8841 20.0169 79.8512 20.0346L78.7266 21.2053C78.7309 21.2302 78.7436 21.2715 78.7749 21.324L80.8457 24.0488L80.3545 24.8264C79.7892 25.7213 79.381 26.6976 79.1413 27.7283L78.9344 28.6175L75.4746 29.0909C75.4412 29.0975 75.4182 29.1099 75.405 29.1196V30.8142C75.4099 30.8188 75.4231 30.828 75.4526 30.8314L75.4838 30.8354L78.9078 31.3138L79.1141 32.2002C79.354 33.2306 79.7688 34.2508 80.3137 35.1507L80.7816 35.9236L78.6894 38.6639C78.6754 38.6902 78.6677 38.7303 78.713 38.8115L79.8592 39.9324C79.8776 39.9274 79.9092 39.9155 79.9526 39.8875L82.7047 37.7953L83.4884 38.3107C84.3575 38.8821 85.3271 39.2951 86.3702 39.5379L87.2464 39.7418L87.7665 43.1994C87.7691 43.222 87.7757 43.2376 87.7817 43.2477L89.4492 43.2733C89.4671 43.2552 89.4959 43.2161 89.5065 43.1547L89.9852 39.7655L90.8766 39.5632C91.917 39.3271 92.9001 38.9196 93.7985 38.3521L94.5744 37.862L97.3174 39.9372C97.3533 39.9645 97.386 39.9783 97.4099 39.9843L98.5921 38.8021L98.5929 38.797C98.5955 38.7785 98.5874 38.7451 98.5672 38.714L96.4722 35.9942L96.9666 35.2112C97.5686 34.2577 97.9743 33.2836 98.1724 32.316L98.3605 31.3973L101.869 30.9124C101.893 30.9097 101.908 30.9027 101.916 30.8971V29.2061C101.899 29.1948 101.869 29.1803 101.825 29.1727L98.3873 28.6924L98.1994 27.7751C98.0049 26.825 97.6124 25.858 96.9997 24.8189L96.5496 24.0556L98.6099 21.3212L98.6486 21.2782C98.6601 21.2654 98.6634 21.2571 98.6641 21.2524L97.4676 20.0561C97.463 20.0558 97.4582 20.0557 97.453 20.0557C97.4374 20.0557 97.425 20.0574 97.4169 20.0591L97.3908 20.0788L94.5979 22.1732L93.8256 21.6853C92.9307 21.12 91.9544 20.7118 90.9237 20.4721L90.0258 20.2632L89.5868 16.8236C89.5794 16.7863 89.5657 16.7692 89.5592 16.7629H87.8585ZM88.6741 36.2675C85.2057 36.2675 82.384 33.4581 82.384 30.0049C82.384 28.3423 83.0397 26.7696 84.2307 25.5751C85.3981 24.3758 86.9757 23.7153 88.6741 23.7153C90.3408 23.7153 91.9165 24.3735 93.111 25.5686L93.1386 25.597C94.2984 26.829 94.9372 28.3944 94.9372 30.0049C94.9372 33.4581 92.1275 36.2675 88.6741 36.2675ZM87.8334 15.4373H89.5695C90.2205 15.4373 90.7898 15.926 90.8985 16.6311L91.224 19.181C92.3908 19.4524 93.5029 19.9136 94.5335 20.5646L96.5956 19.0183C97.0564 18.6386 97.8161 18.6388 98.2772 18.9912L99.6338 20.3473C100.095 20.836 100.122 21.6227 99.6338 22.1651L98.1415 24.1455C98.7654 25.2037 99.2537 26.3158 99.498 27.5092L102.021 27.8617C102.726 27.9703 103.242 28.5126 103.242 29.1641V30.9273C103.242 31.5783 102.726 32.1482 102.021 32.2293L99.471 32.5819C99.2266 33.7756 98.7384 34.8879 98.0874 35.9189L99.6338 37.9265C99.8506 38.2244 99.9593 38.6045 99.9052 38.984L99.8506 39.4182L98.3042 40.9646C97.8435 41.4257 97.0837 41.4257 96.514 40.9916L94.5065 39.4728C93.4759 40.1238 92.3637 40.585 91.1699 40.8559L90.8174 43.3517C90.7087 44.0572 90.1388 44.5996 89.4879 44.5996L87.7247 44.5725C87.1008 44.5725 86.5313 44.0572 86.4497 43.3517L86.0696 40.8289C84.9034 40.5574 83.7912 40.0963 82.7601 39.4182L80.726 40.9646C80.1017 41.3987 79.3966 41.3446 78.9353 40.8829L77.6874 39.6626C77.2533 39.0657 77.2533 38.4147 77.6058 37.8989L79.1797 35.8373C78.5557 34.8067 78.0946 33.667 77.8231 32.5007L75.3003 32.1482C74.5948 32.0666 74.0795 31.4972 74.0795 30.8186V29.0825C74.0795 28.4315 74.5948 27.8892 75.2733 27.7806L77.8502 27.428C78.1216 26.2612 78.5828 25.1491 79.2338 24.1185L77.6874 22.0839C77.3079 21.514 77.3079 20.863 77.6604 20.4018L78.9894 19.0183C79.5593 18.5841 80.2373 18.5842 80.7531 18.9371L82.8418 20.51C83.8723 19.8866 84.985 19.4254 86.1513 19.154L86.5313 16.6311C86.6125 15.9526 87.1824 15.4373 87.8334 15.4373ZM88.6741 34.9419C91.3867 34.9419 93.6116 32.7176 93.6116 30.0049C93.6116 28.6483 93.0418 27.428 92.1735 26.5056C91.2515 25.5832 90.0307 25.0409 88.6741 25.0409C87.2905 25.0409 86.0696 25.5832 85.1748 26.5056C84.2524 27.428 83.7096 28.6483 83.7096 30.0049C83.7096 32.7176 85.9344 34.9419 88.6741 34.9419Z" fill="#C8D3D9"/>
<path d="M92.1735 26.5057C91.234 25.5963 89.9816 25.0817 88.6741 25.0681C87.3646 25.0713 86.1084 25.5874 85.1748 26.5057C85.6282 26.037 86.1723 25.6654 86.7739 25.4136C87.3755 25.1618 88.022 25.035 88.6741 25.041C89.3255 25.0403 89.9705 25.1694 90.5713 25.4209C91.1722 25.6724 91.7168 26.0412 92.1735 26.5057Z" fill="#C8D3D9"/>
<path d="M92.1735 26.5058C91.2515 25.6374 90.0307 25.0681 88.6741 25.0681C87.2905 25.0681 86.0697 25.6374 85.1748 26.5058C86.0697 25.5833 87.2905 25.041 88.6741 25.041C90.0307 25.041 91.2515 25.5833 92.1735 26.5058Z" fill="#C8D3D9"/>
<path d="M10.4583 15.004C11.5964 15.004 12.519 14.0814 12.519 12.9433C12.519 11.8053 11.5964 10.8827 10.4583 10.8827C9.32028 10.8827 8.39771 11.8053 8.39771 12.9433C8.39771 14.0814 9.32028 15.004 10.4583 15.004Z" stroke="#F4F7FB" stroke-width="1.307" stroke-miterlimit="10"/>
<path d="M4.65555 24.2499C6.67445 24.2499 8.3111 22.6133 8.3111 20.5944C8.3111 18.5755 6.67445 16.9388 4.65555 16.9388C2.63664 16.9388 1 18.5755 1 20.5944C1 22.6133 2.63664 24.2499 4.65555 24.2499Z" fill="#F4F7FB" stroke="#F4F7FB" stroke-width="1.426" stroke-miterlimit="10"/>
<path d="M109.636 59.4108C110.582 59.4108 111.349 58.644 111.349 57.6982C111.349 56.7524 110.582 55.9856 109.636 55.9856C108.69 55.9856 107.923 56.7524 107.923 57.6982C107.923 58.644 108.69 59.4108 109.636 59.4108Z" fill="#F4F7FB" stroke="#F4F7FB" stroke-width="0.668" stroke-miterlimit="10"/>
<defs>
<filter id="filter0_d_2374_380531" x="39.2507" y="26.5473" width="32.6597" height="83.7972" filterUnits="userSpaceOnUse" color-interpolation-filters="sRGB">
<feFlood flood-opacity="0" result="BackgroundImageFix"/>
<feColorMatrix in="SourceAlpha" type="matrix" values="0 0 0 0 0 0 0 0 0 0 0 0 0 0 0 0 0 0 127 0" result="hardAlpha"/>
<feOffset dy="5"/>
<feGaussianBlur stdDeviation="3"/>
<feColorMatrix type="matrix" values="0 0 0 0 0.784314 0 0 0 0 0.827451 0 0 0 0 0.85098 0 0 0 0.302 0"/>
<feBlend mode="normal" in2="BackgroundImageFix" result="effect1_dropShadow_2374_380531"/>
<feBlend mode="normal" in="SourceGraphic" in2="effect1_dropShadow_2374_380531" result="shape"/>
</filter>
<filter id="filter1_d_2374_380531" x="22.127" y="55.0176" width="29.1238" height="55.327" filterUnits="userSpaceOnUse" color-interpolation-filters="sRGB">
<feFlood flood-opacity="0" result="BackgroundImageFix"/>
<feColorMatrix in="SourceAlpha" type="matrix" values="0 0 0 0 0 0 0 0 0 0 0 0 0 0 0 0 0 0 127 0" result="hardAlpha"/>
<feOffset dy="5"/>
<feGaussianBlur stdDeviation="3"/>
<feColorMatrix type="matrix" values="0 0 0 0 0.784314 0 0 0 0 0.827451 0 0 0 0 0.85098 0 0 0 0.302 0"/>
<feBlend mode="normal" in2="BackgroundImageFix" result="effect1_dropShadow_2374_380531"/>
<feBlend mode="normal" in="SourceGraphic" in2="effect1_dropShadow_2374_380531" result="shape"/>
</filter>
<filter id="filter2_d_2374_380531" x="59.9105" y="65.4751" width="28.2549" height="44.8697" filterUnits="userSpaceOnUse" color-interpolation-filters="sRGB">
<feFlood flood-opacity="0" result="BackgroundImageFix"/>
<feColorMatrix in="SourceAlpha" type="matrix" values="0 0 0 0 0 0 0 0 0 0 0 0 0 0 0 0 0 0 127 0" result="hardAlpha"/>
<feOffset dy="5"/>
<feGaussianBlur stdDeviation="3"/>
<feColorMatrix type="matrix" values="0 0 0 0 0.784314 0 0 0 0 0.827451 0 0 0 0 0.85098 0 0 0 0.302 0"/>
<feBlend mode="normal" in2="BackgroundImageFix" result="effect1_dropShadow_2374_380531"/>
<feBlend mode="normal" in="SourceGraphic" in2="effect1_dropShadow_2374_380531" result="shape"/>
</filter>
</defs>
</svg>
