<svg width="100" height="101" viewBox="0 0 100 101" fill="none" xmlns="http://www.w3.org/2000/svg">
<path d="M99.9711 50.0303C99.9857 59.1211 97.5086 68.042 92.809 75.8238C92.3049 76.6556 91.7809 77.4707 91.2369 78.2693C90.5532 79.2625 89.8361 80.2291 89.0858 81.1691C87.8671 80.6313 86.5959 80.2216 85.2927 79.9463V80.7748C85.2894 81.8618 84.8561 82.9034 84.0874 83.6721C83.3187 84.4408 82.2772 84.874 81.1901 84.8773H80.5362C79.4492 84.874 78.4076 84.4408 77.6389 83.6721C76.8702 82.9034 76.437 81.8618 76.4337 80.7748V80.0111C73.5898 80.6419 70.9355 81.9366 68.6877 83.7893C65.4136 86.5144 63.3823 90.3225 63.3823 94.5399C63.3807 95.7262 63.5437 96.907 63.8664 98.0486C55.9599 100.318 47.6173 100.613 39.5704 98.907C39.975 97.637 40.1804 96.3119 40.1793 94.979C40.1793 90.8116 38.1929 87.0385 34.9837 84.3134C32.6317 82.3501 29.8298 81.0005 26.8284 80.3855V81.2139C26.825 82.3009 26.3917 83.3425 25.623 84.1111C24.8544 84.8798 23.8129 85.3132 22.7259 85.3166H22.072C20.985 85.3132 19.9435 84.8798 19.1749 84.1111C18.4062 83.3425 17.9729 82.3009 17.9695 81.2139V80.4504C15.9489 80.9036 14.0165 81.6859 12.2498 82.7662C6.95503 76.671 3.21546 69.384 1.35103 61.5285C-0.513405 53.6729 -0.447225 45.4826 1.54392 37.6582C3.53506 29.8338 7.39189 22.6082 12.7845 16.5994C18.1771 10.5906 24.945 5.9774 32.5092 3.15459C40.0734 0.33177 48.2089 -0.616644 56.2197 0.390299C64.2304 1.39724 71.878 4.32955 78.5083 8.9366C85.1386 13.5437 90.5543 19.6883 94.292 26.8448C98.0297 34.0012 99.9784 41.9566 99.9711 50.0303Z" fill="#F4F7FB"/>
<path d="M76.3317 50.1511C76.2745 50.2592 76.2041 50.3598 76.1221 50.4505C76.1791 50.1538 76.289 49.8699 76.4465 49.6121C76.4486 49.798 76.4094 49.9822 76.3317 50.1511Z" fill="white" stroke="#C8D3D9" stroke-width="0.252" stroke-miterlimit="10"/>
<path d="M76.4315 75.1658V79.2729C74.8094 79.478 73.8761 79.4526 73.382 78.9535C72.6483 78.2099 72.813 76.8528 72.6833 76.8528C72.5235 76.8628 72.8679 78.6795 72.0494 79.2031C71.7899 79.3733 71.4205 79.3378 70.6869 79.2684C69.6887 79.1786 69.1746 79.1587 68.975 78.9535C67.5725 77.5017 69.7985 71.0084 69.2844 69.9403C69.2599 69.8968 69.2383 69.8518 69.2196 69.8055C69.1616 69.6492 69.1149 69.4889 69.0798 69.3259C69.4842 69.4666 69.9025 69.5638 70.3275 69.6159C70.7453 69.7178 71.1765 69.753 71.6052 69.7202C71.649 69.9875 71.7124 70.2512 71.7948 70.5092C71.8947 70.8192 72.0251 71.1184 72.1842 71.4026C72.9677 72.8295 74.0857 73.5987 75.5581 74.5864C75.8625 74.7916 76.152 74.9862 76.4315 75.1658Z" fill="#C8D3D9" stroke="#C8D3D9" stroke-width="0.252" stroke-miterlimit="10"/>
<path d="M92.5194 78.4446C92.2699 78.6148 92.1451 78.3099 90.513 78.1901C89.7394 78.1307 89.5348 78.1805 89.2703 77.9958C88.5516 77.4918 88.7113 76.0839 88.6314 76.0839C88.5516 76.0839 88.8361 77.4269 88.1573 78.1256C87.8279 78.4645 87.3987 78.5199 86.5602 78.6347C86.1424 78.7165 85.7137 78.7267 85.2925 78.6647V75.171C85.572 74.9863 85.8615 74.7917 86.1709 74.5866C87.6432 73.5984 88.7612 72.8297 89.5448 71.4028C89.7018 71.1176 89.832 70.8185 89.9341 70.5094C90.0113 70.2533 90.0746 69.9933 90.1237 69.7304C90.5363 69.7486 90.9494 69.7101 91.3515 69.6161C91.4813 69.5956 91.6011 69.5711 91.7159 69.5562C91.7059 69.631 91.7009 69.6709 91.7009 69.6759C91.629 70.2145 93.7053 77.6416 92.5194 78.4446Z" fill="#C8D3D9" stroke="#C8D3D9" stroke-width="0.252" stroke-miterlimit="10"/>
<path d="M85.2926 75.1703V80.7751C85.2893 81.8622 84.8559 82.9038 84.0873 83.6725C83.3186 84.4411 82.2771 84.8744 81.19 84.8777H80.5362C79.4491 84.8744 78.4075 84.4411 77.6388 83.6725C76.8701 82.9038 76.4369 81.8622 76.4336 80.7751V75.1653C77.3451 75.8213 78.3259 76.3753 79.3583 76.8173C79.7894 76.9884 80.2405 77.1041 80.7008 77.1617L80.8656 77.1767L81.0253 77.1617C82.0921 76.9869 83.1095 76.5871 84.0098 75.9887C84.4141 75.7492 84.8334 75.4747 85.2926 75.1703Z" fill="white" stroke="#F4F7FB" stroke-width="0.244" stroke-miterlimit="10"/>
<path d="M71.6076 69.72C71.1788 69.7528 70.7477 69.7176 70.3299 69.6157C69.9049 69.5636 69.4866 69.4664 69.0822 69.3257C68.9135 69.2595 68.7554 69.1688 68.613 69.0567C68.259 68.8035 67.9909 68.4483 67.8444 68.0385C67.6764 67.4933 67.7284 66.9039 67.9891 66.3965C68.0624 66.2514 68.1529 66.1157 68.2587 65.9923C68.5219 65.6919 68.8495 65.4546 69.2169 65.298C69.4382 65.1897 69.6687 65.1013 69.9056 65.0339C70.4397 66.9804 71.1434 68.3679 71.3231 68.313C71.4479 68.2731 71.2682 67.5544 71.0985 65.7123C71.1484 66.0771 71.2033 66.4858 71.2582 66.9405C71.408 68.2177 71.4808 69.0567 71.6076 69.72Z" fill="white" stroke="#F4F7FB" stroke-width="0.252" stroke-miterlimit="10"/>
<path d="M93.8353 68.0386C93.6885 68.4468 93.4225 68.8015 93.0717 69.0568C92.6699 69.3376 92.2022 69.5096 91.7142 69.5559C91.5994 69.5709 91.4796 69.5954 91.3498 69.6158C90.9477 69.7099 90.5346 69.7483 90.1221 69.7301C90.2219 69.1716 90.2917 68.4928 90.4015 67.5295C90.9922 66.7814 91.439 65.9302 91.7192 65.019C91.8915 65.0619 92.0601 65.1187 92.2233 65.1888C92.3281 65.2332 92.4129 65.2736 92.4678 65.2981C92.9893 65.513 93.421 65.9006 93.6906 66.3961C93.9515 66.9037 94.0034 67.4932 93.8353 68.0386Z" fill="white" stroke="#F4F7FB" stroke-width="0.252" stroke-miterlimit="10"/>
<g filter="url(#filter0_d_2374_381677)">
<path d="M90.6959 64.9241C90.6967 65.111 90.685 65.2978 90.6609 65.4832C90.651 65.588 90.636 65.6882 90.621 65.788C90.616 65.808 90.616 65.828 90.611 65.8475C90.4463 66.8013 90.1219 67.5992 90.2467 67.6347C90.2767 67.6447 90.3315 67.6092 90.4014 67.5299C90.2916 68.4931 90.2218 69.172 90.1219 69.7305C90.0728 69.9934 90.0095 70.2534 89.9323 70.5095C89.8303 70.8186 89.6999 71.1177 89.543 71.4029C88.7594 72.8298 87.6414 73.599 86.1691 74.5867C85.8596 74.7918 85.5702 74.9859 85.2907 75.1711C84.8315 75.4755 84.4123 75.75 84.008 75.9896C83.1076 76.5879 82.0902 76.9877 81.0234 77.1625L80.8637 77.1775L80.699 77.1625C80.2386 77.105 79.7875 76.9892 79.3564 76.8176C78.3239 76.3761 77.3431 75.8222 76.4317 75.1661C76.1522 74.9864 75.8627 74.7918 75.5583 74.5867C74.0859 73.5985 72.968 72.8298 72.1844 71.4029C72.0254 71.1187 71.8949 70.8194 71.7951 70.5095C71.7126 70.2514 71.6492 69.9878 71.6054 69.7205C71.4806 69.0572 71.4058 68.2182 71.2561 66.941C71.2012 66.4863 71.1463 66.0776 71.0964 65.7127C71.0764 65.4732 71.0515 65.2136 71.0315 64.9346C71.0215 64.7993 71.0115 64.6551 71.0015 64.5103C70.9965 64.4205 70.9366 63.2372 70.9516 62.7486C70.9666 62.1791 71.1413 61.0866 72.3391 59.6293C72.3391 59.6238 72.3391 59.6238 72.3441 59.6238C73.1755 58.6474 74.132 57.785 75.1889 57.0588C75.845 57.8466 76.5662 58.5778 77.345 59.2445C79.0114 60.7442 80.9833 61.8648 83.1246 62.5289C86.9926 63.6115 89.0788 61.9845 90.2167 63.367C90.2793 63.4459 90.336 63.5293 90.3864 63.6166C90.6026 64.0177 90.7093 64.4686 90.6959 64.9241Z" fill="white" stroke="#F4F7FB" stroke-width="0.252" stroke-miterlimit="10"/>
</g>
<path d="M92.4475 63.227C92.3622 63.9711 92.2579 64.8839 92.2579 64.8844C92.2479 64.9892 92.2379 65.0886 92.223 65.1889C92.0598 65.1188 91.8912 65.062 91.7189 65.0192C91.4388 65.9303 90.992 66.7816 90.4012 67.5296C90.3314 67.6095 90.2765 67.6444 90.2465 67.6344C90.1218 67.5995 90.4462 66.801 90.6109 65.8472C90.6159 65.8278 90.6159 65.8078 90.6209 65.7878C90.6358 65.688 90.6508 65.5882 90.6608 65.4834C90.6848 65.2981 90.6965 65.1113 90.6957 64.9244C90.7091 64.4689 90.6024 64.0179 90.3862 63.6168C90.3361 63.5294 90.2794 63.446 90.2166 63.3672C89.0786 61.9847 86.9924 63.6117 83.1244 62.5287C80.9832 61.8646 79.0113 60.7443 77.3448 59.2447C76.5661 58.5778 75.8449 57.8464 75.1888 57.0586C74.1318 57.7849 73.1753 58.6475 72.344 59.624C72.339 59.624 72.339 59.624 72.339 59.629C71.1411 61.0864 70.9664 62.1794 70.9515 62.7484C70.9425 63.0788 70.9624 63.8493 71.0013 64.5101C71.0183 64.8035 71.0418 65.126 71.0962 65.7125C71.2829 67.7358 71.4106 68.2858 71.3208 68.3132C71.1411 68.3681 70.4374 66.9806 69.9034 65.0341C69.6663 65.1014 69.4358 65.19 69.2146 65.2987C68.8471 65.455 68.5196 65.6922 68.2563 65.9925C68.2214 65.8473 68.1865 65.698 68.1465 65.5432C68.1465 65.5432 67.852 64.3055 67.6823 63.0378C67.4362 61.3688 67.4971 59.6689 67.862 58.0218C68.1465 56.784 68.9251 53.3952 71.7251 51.853C72.0857 51.657 72.4652 51.4981 72.858 51.3789C72.7668 51.2924 72.6864 51.1952 72.6184 51.0894C72.2291 50.495 72.2042 49.6021 72.5236 49.4324C72.6833 49.3475 72.9079 49.4624 73.0327 49.5273C73.1026 49.5672 73.2972 49.677 73.6865 50.261C73.9211 50.6148 73.966 50.7496 74.0508 50.7396C74.1856 50.7251 74.1706 50.3901 74.3852 49.9265C74.5613 49.5573 74.817 49.2318 75.1339 48.9732C75.1638 48.9433 75.4233 48.7936 75.9324 48.4936C76.162 48.3594 76.2768 48.2895 76.3616 48.3344C76.4465 48.3793 76.4565 48.4986 76.4565 49.0027C76.4565 49.2677 76.4565 49.4624 76.4465 49.6116C76.2889 49.8695 76.179 50.1537 76.1221 50.4505C76.204 50.3598 76.2745 50.2592 76.3317 50.1512C76.4095 49.982 76.4487 49.7977 76.4465 49.6116C76.5463 49.4472 76.6709 49.2992 76.8158 49.1728C77.2393 48.8278 77.7669 48.6361 78.3131 48.6284C84.8214 48.1697 88.6494 51.3789 88.6494 51.3789C92.5364 54.941 92.8193 57.4554 92.8168 58.4161C92.8144 59.336 92.5399 62.417 92.4475 63.227Z" fill="#C8D3D9" stroke="#C8D3D9" stroke-width="0.252" stroke-miterlimit="10"/>
<path d="M89.0858 81.1693C84.3658 87.0928 78.3643 91.869 71.5326 95.139C69.8002 95.9672 68.0203 96.6921 66.2022 97.31C65.4336 97.5795 64.65 97.8242 63.8664 98.0488C63.5437 96.9072 63.3808 95.7264 63.3823 94.5401C63.3823 90.3228 65.4137 86.5146 68.6877 83.7896C70.9356 81.9368 73.5899 80.6421 76.4337 80.0114V80.775C76.437 81.862 76.8703 82.9037 77.639 83.6723C78.4076 84.441 79.4492 84.8743 80.5363 84.8776H81.1901C82.2772 84.8743 83.3188 84.441 84.0874 83.6723C84.8561 82.9037 85.2894 81.862 85.2927 80.775V79.9465C86.596 80.2218 87.8672 80.6316 89.0858 81.1693Z" fill="white" stroke="#F4F7FB" stroke-width="0.244" stroke-miterlimit="10"/>
<path d="M26.8287 75.6141V81.214C26.8253 82.301 26.3919 83.3426 25.6233 84.1112C24.8547 84.8798 23.8132 85.3132 22.7261 85.3167H22.0723C20.9853 85.3132 19.9438 84.8798 19.1751 84.1112C18.4065 83.3426 17.9731 82.301 17.9697 81.214V75.6091C18.0745 75.679 18.1743 75.744 18.2742 75.8138C18.8831 76.2081 19.4271 76.5525 19.9511 76.822C20.2107 76.9618 20.4602 77.0815 20.7098 77.1864C21.1957 77.3937 21.708 77.533 22.232 77.6005L22.3967 77.6155L22.5564 77.6005C23.9439 77.4258 25.1517 76.7171 26.8237 75.6141H26.8287Z" fill="white" stroke="#F4F7FB" stroke-width="0.244" stroke-miterlimit="10"/>
<path d="M14.1538 72.5187C13.3004 72.5337 12.8911 72.3141 12.6964 72.0396C12.4668 71.7202 12.4469 71.231 12.3771 71.231C12.2822 71.241 12.4369 72.1244 12.2073 72.2092C11.8629 72.334 10.9197 70.5722 10.8199 70.3726C10.7849 70.2927 10.75 70.2178 10.75 70.2178C10.6955 70.0694 10.6504 69.9178 10.6152 69.7637C11.0197 69.9041 11.438 70.0012 11.863 70.0532C12.2811 70.1526 12.7119 70.1879 13.1406 70.158C13.1845 70.4251 13.2479 70.6887 13.3303 70.9466C13.4301 71.2566 13.5605 71.5557 13.7196 71.8399C13.7995 71.9846 13.8843 72.1244 13.9741 72.2592C14.034 72.349 14.0889 72.4339 14.1538 72.5187Z" fill="#C8D3D9" stroke="#C8D3D9" stroke-width="0.252" stroke-miterlimit="10"/>
<path d="M33.2562 69.9883C33.2512 70.0282 33.2412 70.0681 33.2362 70.1081C33.1663 70.6862 32.9939 71.2474 32.7271 71.7651C32.3329 72.5088 31.709 73.1576 31.5393 73.0628C31.3945 72.9829 31.5792 72.389 31.5393 72.384C31.4844 72.384 31.3297 73.3173 31.135 73.3173C30.9953 73.3173 30.8605 72.8332 30.7856 72.3142C30.8909 72.1616 30.9875 72.0032 31.0752 71.8399C31.2358 71.5559 31.3678 71.2567 31.4694 70.9466C31.5466 70.6907 31.6099 70.4308 31.6591 70.168C32.0715 70.1811 32.484 70.1425 32.8869 70.0532C33.0216 70.0283 33.1414 70.0082 33.2562 69.9883Z" fill="#C8D3D9" stroke="#C8D3D9" stroke-width="0.252" stroke-miterlimit="10"/>
<path d="M13.1405 70.158C12.7118 70.188 12.281 70.1526 11.8629 70.0532C11.4378 70.0013 11.0196 69.9042 10.6151 69.7637C10.4443 69.6984 10.2844 69.6075 10.1409 69.4942C9.72828 69.2048 9.43697 68.7734 9.32277 68.2825C9.20857 67.7916 9.27951 67.2759 9.52205 66.8341C9.59545 66.6906 9.68596 66.5565 9.79159 66.4348C10.0525 66.1307 10.3806 65.8914 10.7499 65.736C10.971 65.6273 11.2016 65.5387 11.4386 65.4714C11.9727 67.4179 12.6764 68.8005 12.856 68.7505C12.9808 68.7106 12.8012 67.9919 12.6315 66.1503C12.6814 66.5196 12.7363 66.9238 12.7912 67.378C12.9409 68.6557 13.0132 69.4942 13.1405 70.158Z" fill="white" stroke="#F4F7FB" stroke-width="0.252" stroke-miterlimit="10"/>
<path d="M35.3729 68.4761C35.2247 68.8836 34.9589 69.2379 34.6093 69.4943C34.2092 69.774 33.743 69.9444 33.2568 69.9884C33.142 70.0083 33.0222 70.0284 32.8874 70.0533C32.4846 70.1426 32.0721 70.1812 31.6597 70.1681C31.7595 69.6141 31.8293 68.9453 31.9391 67.997C32.5614 67.2566 33.0191 66.3925 33.2817 65.4617C33.447 65.5065 33.6088 65.5632 33.7658 65.6313C33.8458 65.6622 33.9241 65.6971 34.0004 65.7361C34.5243 65.9491 34.9582 66.3372 35.2282 66.8342C35.4899 67.3414 35.5419 67.931 35.3729 68.4761Z" fill="white" stroke="#F4F7FB" stroke-width="0.252" stroke-miterlimit="10"/>
<g filter="url(#filter1_d_2374_381677)">
<path d="M32.0239 65.3977C31.9291 66.7752 31.5797 68.018 31.7793 68.0729C31.8143 68.0829 31.8641 68.0579 31.934 67.998C31.8242 68.9462 31.7544 69.6151 31.6546 70.1691C31.6054 70.4318 31.5421 70.6918 31.4649 70.9477C31.3633 71.2578 31.2312 71.557 31.0706 71.8411C30.9829 72.0044 30.8863 72.1626 30.7811 72.3152C30.0275 73.4532 29.0043 74.1519 27.7017 75.0253C27.3922 75.2349 27.1028 75.4295 26.8233 75.6142C25.1513 76.7172 23.9435 77.4259 22.556 77.6006L22.3963 77.6156L22.2316 77.6006C20.8391 77.4259 19.6363 76.7172 17.9643 75.6092C17.6848 75.4245 17.3953 75.2299 17.0909 75.0253C15.8681 74.2068 14.8948 73.538 14.1512 72.5198C14.0863 72.435 14.0314 72.3501 13.9715 72.2603C13.8817 72.1255 13.7968 71.9858 13.717 71.8411C13.5579 71.557 13.4275 71.2577 13.3277 70.9477C13.2453 70.6898 13.1819 70.4262 13.138 70.1591C13.0132 69.4953 12.9384 68.6568 12.7887 67.3791C12.7338 66.9249 12.6789 66.5207 12.629 66.1513C12.624 66.0715 12.619 65.9966 12.609 65.9268C12.604 65.817 12.594 65.7171 12.584 65.6223C12.574 65.5274 12.5741 65.4476 12.5641 65.3727C12.5541 65.238 12.5441 65.0933 12.5341 64.9485C12.4992 64.3796 12.4742 63.9952 12.4692 63.6708C13.0416 63.5434 13.5711 63.27 14.0064 62.8772C14.6153 62.3033 14.4607 61.9539 15.2492 59.688C15.3491 59.4036 15.4439 59.144 15.5337 58.9094C16.3422 56.7982 16.7515 56.7034 16.9062 56.6935C17.1408 56.6835 17.4602 56.8333 17.8545 57.4971C18.0314 57.1642 18.2767 56.8724 18.5743 56.6411C18.872 56.4097 19.2151 56.2438 19.5814 56.1544C20.7343 55.9997 21.448 57.2125 23.5642 58.9594C25.6454 60.6763 26.7584 61.5747 28.3755 62.1137C28.4753 62.1486 28.5801 62.1786 28.6849 62.2085C29.6024 62.4854 30.5565 62.6217 31.5148 62.6128C31.7143 62.9106 31.8533 63.2446 31.924 63.596C32.0427 64.1888 32.0763 64.7954 32.0239 65.3977Z" fill="white" stroke="#F4F7FB" stroke-width="0.252" stroke-miterlimit="10"/>
</g>
<path d="M33.9805 63.6657C33.8807 64.5342 33.8258 64.9634 33.7908 65.3228C33.7809 65.4276 33.7709 65.5273 33.7609 65.6321C33.6038 65.564 33.4421 65.5074 33.2768 65.4625C33.0142 66.3933 32.5565 67.2575 31.9342 67.9979C31.8643 68.0578 31.8145 68.0828 31.7795 68.0728C31.5799 68.0179 31.9292 66.7751 32.0241 65.3976C32.0765 64.7953 32.0429 64.1887 31.9242 63.5959C31.8535 63.2445 31.7145 62.9105 31.515 62.6127C30.5567 62.6216 29.6026 62.4852 28.6851 62.2084C28.5433 62.1675 28.4425 62.1351 28.3756 62.1136C26.4849 61.5778 24.6998 60.7223 23.0977 59.5841C21.1043 58.0369 21.0514 56.7597 19.7897 56.6798C19.0624 56.6876 18.3674 56.9812 17.8547 57.497C17.6928 57.3986 17.513 57.3334 17.3257 57.3052C17.1384 57.277 16.9473 57.2863 16.7637 57.3327C16.1523 57.5174 15.8453 58.2096 15.5339 58.9093C15.4116 59.1853 15.3527 59.3915 15.2494 59.6879C14.4609 61.9538 14.6155 62.3032 14.0066 62.8771C13.5713 63.2699 13.0417 63.5433 12.4694 63.6707C12.4744 63.9951 12.4994 64.3795 12.5343 64.9484C12.5443 65.0932 12.5543 65.2378 12.5643 65.3726C12.5743 65.4475 12.5792 65.5323 12.5842 65.6222C12.5942 65.727 12.5992 65.8268 12.6092 65.9267C12.6192 65.9965 12.6242 66.0714 12.6292 66.1512C12.8039 68.0578 12.9536 68.7216 12.8537 68.7515C12.6741 68.8014 11.9704 67.419 11.4363 65.4725C11.1992 65.5397 10.9687 65.6282 10.7476 65.7371C10.3783 65.8925 10.0502 66.1317 9.78927 66.4357C9.76432 66.3409 9.71941 66.1812 9.67949 65.9816C9.57529 65.4611 9.54168 64.9289 9.57963 64.3994C9.67446 62.8672 8.7811 60.8559 9.1654 58.3454C9.44468 56.8064 10.1015 55.3606 11.0769 54.1379C11.6725 53.3821 12.4143 52.7541 13.258 52.2913C13.6204 52.0978 13.9996 51.9374 14.3909 51.8122C14.3008 51.7265 14.2205 51.6311 14.1514 51.5277C13.7621 50.9337 13.7372 50.0404 14.0566 49.8707C14.2163 49.7859 14.4409 49.9007 14.5657 49.9655C14.6355 50.0055 14.8302 50.1153 15.2195 50.6992C15.454 51.0536 15.4989 51.1833 15.5838 51.1783C15.7185 51.1633 15.7036 50.829 15.9182 50.3648C16.0947 49.9945 16.3502 49.6673 16.6668 49.4065C16.6968 49.3815 16.9513 49.2318 17.4654 48.9324C17.695 48.7926 17.8098 48.7277 17.8946 48.7726C17.9795 48.8176 17.9895 48.9374 17.9895 49.4415C17.9895 49.711 17.9895 49.9056 17.9795 50.0504C17.8219 50.3081 17.712 50.5922 17.655 50.8889C17.737 50.7981 17.8074 50.6975 17.8647 50.5894C17.9424 50.4205 17.9816 50.2363 17.9795 50.0504C18.0789 49.8841 18.2035 49.7343 18.3488 49.6062C18.7775 49.2711 19.3022 49.0822 19.8461 49.0671C20.8353 48.9462 21.8353 48.9412 22.8257 49.0522C25.3561 49.3466 26.6039 49.6411 27.5222 50.0354C27.5222 50.0354 31.4052 51.6925 33.2568 55.3608C33.49 55.8276 33.6917 56.3094 33.8607 56.8032C34.0858 57.4706 34.2495 58.1573 34.3498 58.8545C34.4896 59.9076 34.3648 60.4316 33.9805 63.6657Z" fill="#C8D3D9" stroke="#C8D3D9" stroke-width="0.252" stroke-miterlimit="10"/>
<path d="M40.1794 94.9791C40.1806 96.312 39.9752 97.637 39.5706 98.907C39.4208 98.8771 39.2761 98.847 39.1264 98.8121C28.6771 96.4879 19.2536 90.8618 12.25 82.7662C14.0167 81.6859 15.949 80.9036 17.9696 80.4504V81.214C17.9731 82.301 18.4064 83.3425 19.175 84.1112C19.9437 84.8798 20.9852 85.3132 22.0722 85.3166H22.726C23.8131 85.3132 24.8546 84.8798 25.6232 84.1112C26.3918 83.3425 26.8252 82.301 26.8286 81.214V80.3855C29.8299 81.0005 32.6319 82.3501 34.9838 84.3134C38.193 87.0385 40.1794 90.8116 40.1794 94.9791Z" fill="white" stroke="#F4F7FB" stroke-width="0.244" stroke-miterlimit="10"/>
<path d="M39.5707 98.9069C39.5507 98.9818 39.5257 99.0566 39.4958 99.1365C39.371 99.0317 39.2462 98.9218 39.1265 98.812C39.2762 98.8469 39.4209 98.877 39.5707 98.9069Z" fill="white" stroke="#F4F7FB" stroke-width="0.244" stroke-miterlimit="10"/>
<path d="M56.212 69.1066V74.7064C56.2087 75.7935 55.7754 76.8351 55.0067 77.6038C54.2381 78.3724 53.1964 78.8057 52.1094 78.809H51.4556C50.3685 78.8057 49.3269 78.3724 48.5582 77.6038C47.7896 76.8351 47.3563 75.7935 47.353 74.7064V69.1016C49.025 70.2096 50.2278 70.9183 51.6203 71.093L51.785 71.1079L51.9447 71.093C53.3322 70.9178 54.5385 70.2096 56.212 69.1066Z" fill="white" stroke="#F4F7FB" stroke-width="0.244" stroke-miterlimit="10"/>
<path d="M43.5372 66.0099C42.6837 66.0249 42.2744 65.8053 42.0798 65.5308C41.8502 65.2114 41.8302 64.7222 41.7604 64.7222C41.6655 64.7322 41.8203 65.6157 41.5907 65.7005C41.2463 65.8253 40.303 64.0634 40.2032 63.8638C40.1682 63.7839 40.1333 63.709 40.1333 63.709C40.0788 63.5606 40.0338 63.409 39.9985 63.2549C40.403 63.3954 40.8213 63.4925 41.2463 63.5444C41.6644 63.6439 42.0952 63.6792 42.524 63.6492C42.5678 63.9163 42.6312 64.1799 42.7137 64.4378C42.8134 64.7478 42.9438 65.047 43.103 65.3311C43.1828 65.4758 43.2676 65.6156 43.3574 65.7504C43.4173 65.8402 43.4723 65.9266 43.5372 66.0099Z" fill="#C8D3D9" stroke="#C8D3D9" stroke-width="0.252" stroke-miterlimit="10"/>
<path d="M62.6395 63.4812C62.6345 63.5206 62.6245 63.5611 62.6195 63.601C62.5496 64.179 62.3772 64.7399 62.1104 65.2574C61.7162 66.0011 61.0923 66.6504 60.9226 66.5551C60.7778 66.4753 60.9625 65.8808 60.9226 65.8758C60.8677 65.8758 60.7129 66.8097 60.5183 66.8097C60.3785 66.8097 60.2438 66.3255 60.1689 65.8065C60.274 65.6538 60.3706 65.4956 60.4584 65.3323C60.619 65.0483 60.7511 64.749 60.8527 64.4389C60.9299 64.183 60.9932 63.9231 61.0424 63.6603C61.4548 63.6732 61.8672 63.6346 62.2701 63.5455C62.4049 63.5196 62.5242 63.4997 62.6395 63.4812Z" fill="#C8D3D9" stroke="#C8D3D9" stroke-width="0.252" stroke-miterlimit="10"/>
<path d="M42.5238 63.6491C42.0951 63.6791 41.6643 63.6438 41.2461 63.5443C40.8211 63.4924 40.4028 63.3953 39.9984 63.2548C39.8276 63.1895 39.6678 63.0986 39.5243 62.9853C39.1116 62.6959 38.8203 62.2645 38.7061 61.7736C38.5919 61.2827 38.6629 60.767 38.9054 60.3252C38.9788 60.1817 39.0692 60.0476 39.1749 59.9259C39.4358 59.6219 39.7639 59.3826 40.1332 59.2271C40.3543 59.1183 40.5848 59.0299 40.8219 58.9626C41.3559 60.9091 42.0597 62.2915 42.2393 62.2416C42.3641 62.2017 42.1845 61.483 42.0148 59.6414C42.0647 60.0107 42.1195 60.4149 42.1744 60.8691C42.3242 62.1468 42.3991 62.9853 42.5238 63.6491Z" fill="white" stroke="#F4F7FB" stroke-width="0.252" stroke-miterlimit="10"/>
<path d="M64.7557 61.9679C64.6075 62.3754 64.3418 62.7296 63.9921 62.986C63.592 63.2658 63.1258 63.4361 62.6396 63.4801C62.5248 63.4996 62.405 63.5196 62.2702 63.545C61.8673 63.6341 61.4549 63.6726 61.0425 63.6598C61.1423 63.1058 61.2121 62.437 61.3219 61.4887C61.9442 60.7483 62.4019 59.8842 62.6645 58.9534C62.8298 58.9982 62.9916 59.0548 63.1487 59.123C63.2286 59.1539 63.3069 59.1888 63.3832 59.2278C63.9071 59.4408 64.3411 59.8289 64.611 60.3259C64.8728 60.8331 64.9247 61.4228 64.7557 61.9679Z" fill="white" stroke="#F4F7FB" stroke-width="0.252" stroke-miterlimit="10"/>
<g filter="url(#filter2_d_2374_381677)">
<path d="M61.4094 58.8894C61.3145 60.2669 60.9652 61.5097 61.1648 61.5646C61.1998 61.5746 61.2497 61.5497 61.3196 61.4898C61.2098 62.4381 61.1399 63.1068 61.04 63.6608C60.9909 63.9236 60.9276 64.1835 60.8504 64.4394C60.7488 64.7495 60.6167 65.0488 60.4561 65.3328C60.3684 65.4961 60.2718 65.6544 60.1666 65.8069C59.413 66.9449 58.3898 67.6436 57.0872 68.517C56.7777 68.7266 56.4882 68.9214 56.2088 69.106C54.5368 70.209 53.329 70.9177 51.9415 71.0924L51.7818 71.1073L51.6171 71.0924C50.2246 70.9177 49.0218 70.209 47.3498 69.101C47.0703 68.9164 46.7808 68.7216 46.4764 68.517C45.2536 67.6985 44.2804 67.0297 43.5367 66.0115C43.4719 65.9267 43.4169 65.8418 43.357 65.752C43.2672 65.6172 43.1824 65.4776 43.1025 65.3328C42.9434 65.0487 42.813 64.7494 42.7132 64.4394C42.6308 64.1816 42.5674 63.9179 42.5236 63.6508C42.3988 62.987 42.3239 62.1486 42.1741 60.8709C42.1192 60.4167 42.0644 60.0124 42.0145 59.643C41.9945 59.4035 41.9695 59.144 41.9496 58.8645C41.9396 58.7298 41.9296 58.585 41.9196 58.4403C41.8628 57.8548 41.8462 57.2662 41.8697 56.6784C42.0144 54.7918 42.828 53.2896 42.9927 53.3445C43.1873 53.4044 42.7581 55.0165 42.8929 55.3309C42.8943 55.3421 42.8987 55.3527 42.9057 55.3615C42.9128 55.3703 42.9222 55.377 42.9328 55.3808C43.1873 55.4607 43.6215 53.4443 45.3085 52.0468C45.8827 51.5797 46.5372 51.2212 47.24 50.9888C47.4527 51.7709 47.7989 52.5104 48.2632 53.1748C50.3045 56.0845 54.2074 56.7034 54.3122 56.4888C53.8856 56.2024 53.4937 55.8674 53.1444 55.4906C52.5639 54.6825 52.2801 53.6988 52.3408 52.7056C52.859 53.5428 53.5274 54.2772 54.3122 54.8718C55.7051 55.904 57.3763 56.4935 59.1085 56.5636C59.4779 56.5636 59.7024 56.5237 59.7174 56.4688C59.7573 56.3191 58.1902 56.1245 56.8077 54.732L56.7977 54.722C56.3934 54.2611 56.0309 53.765 55.7147 53.2397C56.3497 53.68 57.0096 54.0832 57.6911 54.4475C59.3781 55.3459 59.932 55.1861 60.526 55.6852C60.9346 56.0536 61.2101 56.5466 61.3096 57.0877C61.4282 57.6805 61.4618 58.2871 61.4094 58.8894Z" fill="white" stroke="#F4F7FB" stroke-width="0.252" stroke-miterlimit="10"/>
</g>
<path d="M54.3142 54.8706C53.5295 54.2759 52.8612 53.5417 52.3428 52.7046C52.8846 53.5237 53.5496 54.2543 54.3142 54.8706Z" fill="white" stroke="#F4F7FB" stroke-width="0.252" stroke-miterlimit="10"/>
<path d="M63.3658 57.156C63.266 58.0244 63.2111 58.4537 63.1761 58.813C63.1662 58.9178 63.1561 59.0176 63.1462 59.1224C62.9891 59.0543 62.8273 58.9976 62.6621 58.9528C62.3994 59.8836 61.9418 60.7477 61.3195 61.4881C61.2496 61.548 61.1997 61.573 61.1648 61.563C60.9651 61.5081 61.3145 60.2653 61.4093 58.8878C61.4618 58.2856 61.4282 57.6789 61.3095 57.0862C61.2101 56.5451 60.9346 56.052 60.5259 55.6837C59.932 55.1846 59.378 55.3443 57.6911 54.4459C57.0096 54.0817 56.3496 53.6783 55.7146 53.238C55.9994 53.7835 56.3645 54.2833 56.7977 54.7204L56.8077 54.7303C58.1902 56.1228 59.7573 56.3175 59.7174 56.4673C59.7024 56.5222 59.4778 56.5621 59.1085 56.5621C57.3762 56.4919 55.7051 55.9023 54.3122 54.8701C53.5475 54.2537 52.8825 53.5232 52.3407 52.7041C52.28 53.6972 52.5639 54.6808 53.1443 55.4889C53.4937 55.8658 53.8856 56.2007 54.3122 56.4871C54.2074 56.7018 50.3044 56.0829 48.2631 53.1732C47.7988 52.5088 47.4527 51.7692 47.2399 50.9871C46.5372 51.2196 45.8827 51.5782 45.3084 52.0452C43.6215 53.4427 43.1873 55.459 42.9327 55.3792C42.9221 55.3754 42.9127 55.3687 42.9057 55.3599C42.8986 55.3511 42.8942 55.3405 42.8928 55.3293C42.7581 55.0149 43.1873 53.4028 42.9926 53.3429C42.8279 53.288 42.0144 54.7903 41.8697 56.6769C41.8461 57.2646 41.8628 57.8532 41.9196 58.4387C41.9295 58.5834 41.9395 58.7281 41.9495 58.8628C41.965 59.0625 41.9865 59.3285 42.0144 59.6415C42.1851 61.547 42.3348 62.2153 42.239 62.2417C42.0593 62.2917 41.3556 60.9092 40.8216 58.9628C40.5845 59.03 40.354 59.1184 40.1328 59.2272C39.7636 59.3827 39.4355 59.622 39.1745 59.926C39.1496 59.8312 39.1047 59.6714 39.0647 59.4717C38.9605 58.9512 38.927 58.4191 38.9649 57.8896C39.0598 56.3574 38.1663 54.3461 38.5507 51.8356C38.8299 50.2966 39.4867 48.8509 40.4622 47.6282C41.0578 46.8723 41.7996 46.2443 42.6433 45.7815C43.0057 45.588 43.3849 45.4276 43.7762 45.3024C43.6861 45.2168 43.6058 45.1213 43.5367 45.0179C43.1474 44.424 43.1224 43.5307 43.4418 43.361C43.6015 43.2761 43.8261 43.3909 43.9509 43.4558C44.0208 43.4957 44.2154 43.6055 44.6047 44.1894C44.8393 44.5438 44.8842 44.6735 44.9691 44.6686C45.1038 44.6536 45.0888 44.3192 45.3034 43.8551C45.4799 43.4847 45.7355 43.1575 46.0521 42.8967C46.082 42.8718 46.3366 42.7221 46.8506 42.4226C47.0802 42.2829 47.1951 42.218 47.2799 42.2629C47.3648 42.3078 47.3747 42.4276 47.3747 42.9317C47.3747 43.2012 47.3747 43.3959 47.3647 43.5406C47.2072 43.7984 47.0973 44.0824 47.0403 44.379C47.1223 44.2883 47.1927 44.1878 47.2499 44.0797C47.3277 43.9107 47.3669 43.7266 47.3647 43.5406C47.4642 43.3744 47.5888 43.2246 47.734 43.0964C48.1627 42.7614 48.6875 42.5724 49.2313 42.5574C50.2206 42.4363 51.2206 42.4313 52.211 42.5424C54.7414 42.8369 55.9891 43.1313 56.9075 43.5256C56.9075 43.5256 60.7904 45.1827 62.6421 48.8511C62.8753 49.3179 63.0771 49.7997 63.246 50.2934C63.471 50.9609 63.6347 51.6475 63.7351 52.3447C63.8749 53.3993 63.7501 53.9218 63.3658 57.156Z" fill="#C8D3D9" stroke="#C8D3D9" stroke-width="0.252" stroke-miterlimit="10"/>
<path d="M54.3142 54.8706C53.5295 54.2759 52.8612 53.5417 52.3428 52.7046C52.8846 53.5237 53.5496 54.2543 54.3142 54.8706Z" fill="white" stroke="#F4F7FB" stroke-width="0.252" stroke-miterlimit="10"/>
<path d="M39.1265 98.812C39.2762 98.8469 39.4209 98.877 39.5707 98.9069C39.5507 98.9818 39.5257 99.0566 39.4958 99.1365C39.371 99.0317 39.2462 98.9218 39.1265 98.812Z" fill="white" stroke="#F4F7FB" stroke-width="0.244" stroke-miterlimit="10"/>
<path d="M63.3825 94.5399C63.381 95.7262 63.5439 96.907 63.8666 98.0485C55.9602 100.318 47.6176 100.613 39.5706 98.907C39.9752 97.637 40.1806 96.3119 40.1795 94.979C40.1795 90.8116 38.1931 87.0385 34.9839 84.3134C36.6808 79.2625 41.3923 75.3047 47.3515 73.9421V74.7058C47.3548 75.7928 47.7881 76.8343 48.5568 77.603C49.3255 78.3717 50.367 78.805 51.4541 78.8083H52.1079C53.195 78.805 54.2365 78.3717 55.0052 77.603C55.7739 76.8343 56.2072 75.7928 56.2105 74.7058V73.8772C62.1048 75.1249 66.8213 78.9081 68.6879 83.7893C65.4138 86.5144 63.3825 90.3225 63.3825 94.5399Z" fill="white" stroke="#F4F7FB" stroke-width="0.244" stroke-miterlimit="10"/>
<path d="M40.0781 16.4446H27.0547C25.1462 16.4512 23.3183 17.2143 21.9716 18.5666C20.6249 19.9189 19.8694 21.7501 19.8707 23.6586V32.0269C19.8647 33.2363 20.1697 34.427 20.7565 35.4846C21.3434 36.5422 22.1922 37.4311 23.2216 38.066V43.0729C23.2202 43.2264 23.2643 43.3769 23.3482 43.5054C23.4321 43.6339 23.5522 43.7347 23.6933 43.7951C23.7841 43.8241 23.879 43.8378 23.9743 43.8356C24.0726 43.8382 24.1705 43.8208 24.262 43.7845C24.3534 43.7482 24.4366 43.6938 24.5063 43.6244L28.8809 39.2099H40.0781C41.983 39.2074 43.8091 38.4498 45.1563 37.1031C46.5035 35.7565 47.2619 33.9307 47.2652 32.0259V23.6586C47.2648 21.7501 46.5083 19.9195 45.1614 18.5674C43.8144 17.2154 41.9866 16.4521 40.0781 16.4446ZM32.6231 32.9398H26.5631C26.3622 32.9398 26.1696 32.8599 26.0276 32.7179C25.8855 32.5758 25.8057 32.3832 25.8057 32.1823C25.8057 31.9815 25.8855 31.7888 26.0276 31.6468C26.1696 31.5048 26.3622 31.425 26.5631 31.425H32.6231C32.824 31.425 33.0166 31.5048 33.1587 31.6468C33.3007 31.7888 33.3805 31.9815 33.3805 32.1823C33.3805 32.3832 33.3007 32.5758 33.1587 32.7179C33.0166 32.8599 32.824 32.9398 32.6231 32.9398ZM40.5588 28.4648H26.5621C26.4624 28.466 26.3636 28.4475 26.2712 28.4102C26.1788 28.373 26.0947 28.3177 26.0237 28.2477C25.9528 28.1777 25.8965 28.0943 25.858 28.0024C25.8195 27.9105 25.7996 27.8118 25.7995 27.7122C25.801 27.5104 25.8819 27.3174 26.0246 27.1747C26.1673 27.032 26.3603 26.9512 26.5621 26.9496H40.5588C40.659 26.9496 40.7581 26.9692 40.8507 27.0075C40.9432 27.0458 41.0273 27.102 41.0982 27.1728C41.169 27.2437 41.2252 27.3278 41.2635 27.4203C41.3018 27.5129 41.3214 27.612 41.3214 27.7122C41.3219 27.8119 41.3026 27.9109 41.2644 28.003C41.2262 28.0952 41.17 28.1787 41.099 28.2488C41.0281 28.3189 40.9438 28.3741 40.8512 28.4112C40.7586 28.4483 40.6595 28.4666 40.5598 28.4648H40.5588ZM40.5588 24.0099H26.5621C26.3598 24.0099 26.1658 23.9295 26.0228 23.7865C25.8798 23.6435 25.7995 23.4496 25.7995 23.2473C25.7995 23.0451 25.8798 22.851 26.0228 22.708C26.1658 22.565 26.3598 22.4847 26.5621 22.4847H40.5588C40.761 22.4847 40.955 22.565 41.098 22.708C41.2411 22.851 41.3214 23.0451 41.3214 23.2473C41.3214 23.4496 41.2411 23.6435 41.098 23.7865C40.955 23.9295 40.761 24.0099 40.5588 24.0099Z" fill="white"/>
<path d="M62.5538 2.11255H56.0756C55.1262 2.11585 54.2169 2.49544 53.547 3.16813C52.8772 3.84082 52.5013 4.75168 52.502 5.70103V9.86354C52.4989 10.4653 52.6507 11.0578 52.9427 11.5839C53.2348 12.1101 53.6572 12.5524 54.1695 12.8681V15.3586C54.1687 15.435 54.1906 15.51 54.2323 15.5739C54.2741 15.6379 54.3338 15.6879 54.4041 15.7179C54.4492 15.7323 54.4965 15.7391 54.5438 15.7379C54.5926 15.7392 54.6412 15.7306 54.6866 15.7126C54.732 15.6946 54.7733 15.6676 54.8079 15.6331L56.9839 13.437H62.5538C63.5011 13.4356 64.4092 13.0586 65.0791 12.3888C65.749 11.7189 66.1259 10.8109 66.1274 9.86354V5.70103C66.1273 4.75192 65.7512 3.84151 65.0815 3.16899C64.4118 2.49647 63.5029 2.11664 62.5538 2.11255ZM58.8456 10.3177H55.831C55.7311 10.3177 55.6352 10.2781 55.5646 10.2074C55.4939 10.1367 55.4542 10.0409 55.4542 9.94091C55.4542 9.84098 55.4939 9.7451 55.5646 9.67443C55.6352 9.60376 55.7311 9.56403 55.831 9.56403H58.8456C58.9455 9.56403 59.0413 9.60376 59.112 9.67443C59.1827 9.7451 59.2224 9.84098 59.2224 9.94091C59.2224 10.0409 59.1827 10.1367 59.112 10.2074C59.0413 10.2781 58.9455 10.3177 58.8456 10.3177ZM62.7934 8.09172H55.831C55.7814 8.09232 55.7323 8.08309 55.6863 8.06455C55.6403 8.04601 55.5985 8.01857 55.5632 7.98376C55.528 7.94895 55.4999 7.9075 55.4808 7.86179C55.4617 7.81608 55.4517 7.76696 55.4517 7.7174C55.4525 7.61704 55.4927 7.52103 55.5637 7.45006C55.6346 7.37909 55.7306 7.33886 55.831 7.33808H62.7934C62.8433 7.33801 62.8926 7.3478 62.9386 7.36684C62.9847 7.38588 63.0265 7.41385 63.0618 7.44909C63.097 7.48432 63.125 7.5261 63.144 7.57215C63.163 7.6182 63.1728 7.66757 63.1727 7.7174C63.1732 7.7672 63.1638 7.81669 63.1449 7.86277C63.126 7.90884 63.098 7.95054 63.0626 7.98559C63.0272 8.02064 62.9852 8.04826 62.9389 8.06674C62.8927 8.08523 62.8432 8.09431 62.7934 8.09331V8.09172ZM62.7934 5.87576H55.831C55.7304 5.87576 55.6339 5.83577 55.5628 5.76463C55.4917 5.6935 55.4517 5.59704 55.4517 5.49644C55.4517 5.39584 55.4917 5.29938 55.5628 5.22825C55.6339 5.15711 55.7304 5.11712 55.831 5.11712H62.7934C62.894 5.11712 62.9905 5.15711 63.0616 5.22825C63.1328 5.29938 63.1727 5.39584 63.1727 5.49644C63.1727 5.59704 63.1328 5.6935 63.0616 5.76463C62.9905 5.83577 62.894 5.87576 62.7934 5.87576Z" fill="#C8D3D9"/>
<path d="M74.4678 30.9355H67.3526C66.3112 30.9387 65.3136 31.3545 64.5783 32.092C63.8431 32.8295 63.4302 33.8284 63.4302 34.8698V39.4496C63.4327 40.4891 63.8468 41.4854 64.5818 42.2204C65.3169 42.9555 66.3131 43.3695 67.3526 43.372H73.4705L75.8607 45.7742C75.9159 45.8356 75.9893 45.8775 76.0702 45.894C76.1511 45.9104 76.2351 45.9004 76.3099 45.8654C76.3862 45.8349 76.4515 45.7819 76.4972 45.7135C76.5428 45.6451 76.5666 45.5645 76.5655 45.4822V42.7516C77.1265 42.4026 77.589 41.9161 77.9093 41.3382C78.2296 40.7604 78.397 40.1103 78.3956 39.4496V34.8698C78.3954 33.8276 77.9816 32.828 77.2453 32.0904C76.5089 31.3528 75.51 30.9375 74.4678 30.9355ZM68.3014 37.5276C68.2717 37.6016 68.226 37.668 68.1676 37.7222C68.1141 37.78 68.0491 37.826 67.9769 37.8575C67.9046 37.8889 67.8266 37.9051 67.7479 37.9049C67.6673 37.905 67.5876 37.889 67.5134 37.8576C67.4392 37.8262 67.3721 37.7801 67.3161 37.7222C67.2576 37.6681 67.2119 37.6017 67.1824 37.5276C67.1517 37.4546 67.137 37.3757 67.1395 37.2965C67.1396 37.135 67.2031 36.98 67.3161 36.8648C67.3657 36.8012 67.4337 36.7544 67.5108 36.731C67.5834 36.6979 67.6622 36.6809 67.7419 36.6809C67.8216 36.6809 67.9004 36.6979 67.973 36.731C68.0508 36.753 68.1192 36.8 68.1676 36.8648C68.2278 36.919 68.2752 36.9857 68.3067 37.0603C68.3382 37.1349 68.3529 37.2156 68.3498 37.2965C68.3502 37.3762 68.3337 37.4552 68.3014 37.5281V37.5276ZM71.4757 37.546C71.4425 37.6195 71.3973 37.687 71.3419 37.7456C71.2244 37.8545 71.0703 37.9152 70.9102 37.9158C70.7507 37.9118 70.5978 37.8515 70.4785 37.7456C70.427 37.684 70.3821 37.6171 70.3447 37.546C70.3178 37.472 70.3054 37.3936 70.3082 37.315C70.3088 37.1548 70.3696 37.0008 70.4785 36.8833C70.5321 36.8219 70.601 36.7758 70.6781 36.7495C70.7517 36.7164 70.8315 36.6993 70.9122 36.6993C70.9929 36.6993 71.0727 36.7164 71.1463 36.7495C71.2227 36.7743 71.2903 36.8208 71.3409 36.8833C71.3992 36.9386 71.4452 37.0056 71.4756 37.0801C71.5061 37.1545 71.5204 37.2346 71.5176 37.315C71.5214 37.3942 71.5071 37.4732 71.4757 37.546ZM74.6444 37.546C74.6133 37.6206 74.5678 37.6884 74.5106 37.7456C74.3935 37.8553 74.2389 37.9162 74.0784 37.9158C73.9208 37.9117 73.7698 37.8513 73.6527 37.7456C73.5993 37.6867 73.5561 37.6192 73.5249 37.546C73.4898 37.474 73.4712 37.3951 73.4705 37.315C73.4703 37.2345 73.4863 37.1547 73.5176 37.0806C73.5489 37.0064 73.5949 36.9393 73.6527 36.8833C73.7042 36.8195 73.7738 36.7728 73.8524 36.7495C73.9238 36.7164 74.0017 36.6993 74.0805 36.6993C74.1592 36.6993 74.237 36.7164 74.3085 36.7495C74.3878 36.7712 74.4579 36.8182 74.5081 36.8833C74.5674 36.9379 74.6139 37.0048 74.6444 37.0795C74.6748 37.1541 74.6885 37.2345 74.6843 37.315C74.6888 37.3941 74.6752 37.473 74.6444 37.546Z" fill="white"/>
<path d="M99.4569 33.8351C99.6348 34.0129 99.7348 34.2542 99.7349 34.5057C99.7349 34.7573 99.635 34.9985 99.4572 35.1764C99.2793 35.3543 99.0381 35.4543 98.7866 35.4543C98.535 35.4544 98.2938 35.3545 98.1159 35.1766L95.2151 32.2754L92.3143 35.1766C92.1364 35.3545 91.8952 35.4544 91.6436 35.4543C91.3921 35.4543 91.1508 35.3543 90.973 35.1764C90.7952 34.9985 90.6953 34.7573 90.6953 34.5057C90.6954 34.2542 90.7953 34.0129 90.9733 33.8351L93.874 30.9338L90.9733 28.0326C90.7953 27.8548 90.6954 27.6136 90.6953 27.3621C90.6953 27.1105 90.7952 26.8692 90.973 26.6913C91.1508 26.5134 91.3921 26.4134 91.6436 26.4133C91.8952 26.4133 92.1364 26.5132 92.3143 26.691L95.2151 29.5923L98.1159 26.691C98.2938 26.5132 98.535 26.4133 98.7866 26.4133C99.0381 26.4134 99.2793 26.5134 99.4572 26.6913C99.635 26.8692 99.7349 27.1105 99.7349 27.3621C99.7348 27.6136 99.6348 27.8548 99.4569 28.0326L96.5562 30.9338L99.4569 33.8351Z" fill="#C8D3D9"/>
<path d="M2.98494 25.3007C4.11921 25.3007 5.03872 24.3812 5.03872 23.2469C5.03872 22.1126 4.11921 21.1931 2.98494 21.1931C1.85066 21.1931 0.931152 22.1126 0.931152 23.2469C0.931152 24.3812 1.85066 25.3007 2.98494 25.3007Z" stroke="#F4F7FB" stroke-width="1.307" stroke-miterlimit="10"/>
<defs>
<filter id="filter0_d_2374_381677" x="64.8232" y="53.8899" width="31.9995" height="32.4141" filterUnits="userSpaceOnUse" color-interpolation-filters="sRGB">
<feFlood flood-opacity="0" result="BackgroundImageFix"/>
<feColorMatrix in="SourceAlpha" type="matrix" values="0 0 0 0 0 0 0 0 0 0 0 0 0 0 0 0 0 0 127 0" result="hardAlpha"/>
<feOffset dy="3"/>
<feGaussianBlur stdDeviation="3"/>
<feColorMatrix type="matrix" values="0 0 0 0 0.784314 0 0 0 0 0.827451 0 0 0 0 0.85098 0 0 0 0.141 0"/>
<feBlend mode="normal" in2="BackgroundImageFix" result="effect1_dropShadow_2374_381677"/>
<feBlend mode="normal" in="SourceGraphic" in2="effect1_dropShadow_2374_381677" result="shape"/>
</filter>
<filter id="filter1_d_2374_381677" x="6.3418" y="53.0151" width="31.832" height="33.7271" filterUnits="userSpaceOnUse" color-interpolation-filters="sRGB">
<feFlood flood-opacity="0" result="BackgroundImageFix"/>
<feColorMatrix in="SourceAlpha" type="matrix" values="0 0 0 0 0 0 0 0 0 0 0 0 0 0 0 0 0 0 127 0" result="hardAlpha"/>
<feOffset dy="3"/>
<feGaussianBlur stdDeviation="3"/>
<feColorMatrix type="matrix" values="0 0 0 0 0.784314 0 0 0 0 0.827451 0 0 0 0 0.85098 0 0 0 0.141 0"/>
<feBlend mode="normal" in2="BackgroundImageFix" result="effect1_dropShadow_2374_381677"/>
<feBlend mode="normal" in="SourceGraphic" in2="effect1_dropShadow_2374_381677" result="shape"/>
</filter>
<filter id="filter2_d_2374_381677" x="35.7334" y="47.8274" width="31.8262" height="32.4065" filterUnits="userSpaceOnUse" color-interpolation-filters="sRGB">
<feFlood flood-opacity="0" result="BackgroundImageFix"/>
<feColorMatrix in="SourceAlpha" type="matrix" values="0 0 0 0 0 0 0 0 0 0 0 0 0 0 0 0 0 0 127 0" result="hardAlpha"/>
<feOffset dy="3"/>
<feGaussianBlur stdDeviation="3"/>
<feColorMatrix type="matrix" values="0 0 0 0 0.784314 0 0 0 0 0.827451 0 0 0 0 0.85098 0 0 0 0.141 0"/>
<feBlend mode="normal" in2="BackgroundImageFix" result="effect1_dropShadow_2374_381677"/>
<feBlend mode="normal" in="SourceGraphic" in2="effect1_dropShadow_2374_381677" result="shape"/>
</filter>
</defs>
</svg>
