<svg width="96" height="102" viewBox="0 0 96 102" fill="none" xmlns="http://www.w3.org/2000/svg">
<path d="M93.0675 44.612C93.0536 56.1097 88.5956 67.157 80.6256 75.4442C72.6556 83.7314 61.7906 88.6169 50.3022 89.0794C38.8137 89.5419 27.5912 85.5455 18.9809 77.9258C10.3705 70.306 5.03896 59.6529 4.10082 48.1934C3.16267 36.734 6.69056 25.3556 13.947 16.4369C21.2034 7.51817 31.6265 1.74971 43.0372 0.337515C54.4479 -1.07468 65.9628 1.97868 75.1745 8.85927C84.3862 15.7399 90.5816 25.915 92.4654 37.2573C92.8686 39.6881 93.0699 42.148 93.0675 44.612Z" fill="#F4F7FB"/>
<path d="M75.5005 72.3815V88.4914L48.5144 99.9996V68.7805L57.1107 78.698L75.5005 72.3815Z" fill="#C8D3D9" stroke="#F4F7FB" stroke-width="3.483" stroke-linecap="round" stroke-linejoin="round"/>
<path d="M48.5145 68.7805V100L20.3367 88.6213V72.0557L39.7833 78.6985L48.5145 68.7805Z" fill="#C8D3D9" stroke="#F4F7FB" stroke-width="3.483" stroke-linecap="round" stroke-linejoin="round"/>
<path d="M75.5005 60.9718L48.5145 68.7826L20.3367 60.9718L48.5145 53.1682L75.5005 60.9718Z" fill="#C8D3D9" stroke="#F4F7FB" stroke-width="3.483" stroke-linecap="round" stroke-linejoin="round"/>
<path d="M48.5143 68.7803L39.7832 78.6978L20.3366 72.0551L13.8545 69.8372L20.3366 60.9713L48.5143 68.7803Z" fill="#C8D3D9" stroke="#F4F7FB" stroke-width="3.483" stroke-linecap="round" stroke-linejoin="round"/>
<path d="M82.9099 69.8373L75.5008 72.3814L57.112 78.6979L48.5156 68.7804L75.5017 60.9696L82.9099 69.8373Z" fill="#C8D3D9" stroke="#F4F7FB" stroke-width="3.483" stroke-linecap="round" stroke-linejoin="round"/>
<path d="M63.2897 21.0289C62.6245 19.9032 61.7175 18.9393 60.6344 18.2068C60.2899 17.9718 59.9239 17.7699 59.5414 17.6038C59.5249 17.5931 59.5034 17.5877 59.4874 17.5766C59.4387 17.5551 59.3981 17.539 59.3472 17.5176C59.2663 17.4852 59.1802 17.4529 59.0888 17.4208C59.0027 17.3882 58.9058 17.3561 58.8143 17.3235H58.8036C58.6634 17.2753 58.5179 17.2373 58.3671 17.1999C54.8071 16.3433 50.6388 18.417 48.3822 22.4777C46.1255 18.4161 41.955 16.3433 38.3915 17.1999C35.1927 17.9751 33.5663 20.8513 33.469 21.0289C31.9827 23.7649 32.6937 26.4956 32.9628 27.5404C33.83 30.8473 36.0594 32.7697 39.2962 35.4735C42.0573 37.7796 45.0993 39.7266 48.3496 41.2682L48.3822 41.2847L48.4143 41.2682C51.6648 39.7268 54.7068 37.7798 57.4677 35.4735C57.8248 35.1825 58.1626 34.8933 58.4911 34.6117C61.1731 32.3354 63.0312 30.4862 63.7958 27.5404C64.0153 26.76 64.1507 25.9582 64.1997 25.149C64.283 23.7179 63.968 22.2918 63.2897 21.0289ZM45.1883 33.1035C45.1867 33.2275 45.1424 33.3471 45.063 33.4423C44.9836 33.5375 44.8738 33.6024 44.7522 33.6262C44.7115 33.635 44.6698 33.6387 44.6281 33.6369C44.5233 33.6392 44.4199 33.6115 44.3303 33.5571C44.2406 33.5027 44.1684 33.4238 44.122 33.3298L41.3101 27.5993V33.1035C41.302 33.2466 41.2395 33.3812 41.1353 33.4796C41.0312 33.578 40.8933 33.6329 40.7499 33.6329C40.6066 33.6329 40.4687 33.578 40.3646 33.4796C40.2604 33.3812 40.1979 33.2466 40.1898 33.1035V25.187C40.1923 25.0632 40.2369 24.9439 40.3163 24.8489C40.3956 24.7539 40.505 24.6888 40.6263 24.6643C40.7493 24.638 40.8775 24.6528 40.9914 24.7063C41.1052 24.7598 41.1983 24.8491 41.2565 24.9606L44.0684 30.6965V25.187C44.0765 25.0439 44.139 24.9092 44.2432 24.8108C44.3474 24.7124 44.4852 24.6575 44.6286 24.6575C44.7719 24.6575 44.9098 24.7124 45.0139 24.8108C45.1181 24.9092 45.1806 25.0439 45.1887 25.187L45.1883 33.1035ZM50.8589 29.182C50.8482 31.6971 49.7926 33.5985 48.4041 33.5985C47.0039 33.5985 45.943 31.6793 45.943 29.1441C45.943 26.609 47.0039 24.6955 48.4041 24.6955C49.4056 24.6955 50.2407 25.6436 50.6357 27.2325C50.6514 27.2969 50.6538 27.3638 50.6429 27.4292C50.632 27.4946 50.6079 27.5572 50.5721 27.613C50.5364 27.6689 50.4897 27.7169 50.4349 27.7542C50.3801 27.7915 50.3183 27.8174 50.2532 27.8301C50.1221 27.86 49.9844 27.8388 49.8683 27.7708C49.7522 27.7028 49.6664 27.5931 49.6284 27.4641C49.3378 26.2952 48.7937 25.6814 48.4059 25.6814C47.8256 25.6814 46.9838 27.033 46.9838 29.1441C46.9838 31.2553 47.8243 32.6125 48.4059 32.6125C48.9499 32.6125 49.6931 31.4927 49.8114 29.64H48.9227V29.7293C48.915 29.8611 48.8571 29.985 48.7611 30.0756C48.665 30.1662 48.5379 30.2166 48.4059 30.2166C48.2738 30.2166 48.1467 30.1662 48.0507 30.0756C47.9546 29.985 47.8968 29.8611 47.889 29.7293V29.1419C47.8926 29.0083 47.9491 28.8816 48.046 28.7896C48.1428 28.6976 48.2723 28.6477 48.4059 28.6509H50.3447C50.4783 28.6478 50.6076 28.6977 50.7045 28.7897C50.8013 28.8817 50.8578 29.0083 50.8616 29.1419L50.8589 29.182ZM54.1171 33.5985C52.7112 33.5985 51.6556 31.6793 51.6556 29.1441C51.6556 26.609 52.7112 24.6955 54.1171 24.6955C55.523 24.6955 56.5719 26.6076 56.5719 29.1441C56.5719 31.6806 55.5181 33.6007 54.1171 33.6007V33.5985ZM54.1171 25.6814C53.5369 25.6814 52.6951 27.033 52.6951 29.1441C52.6951 31.2553 53.5351 32.6125 54.1171 32.6125C54.6991 32.6125 55.5387 31.2611 55.5387 29.1441C55.5387 27.0272 54.6942 25.6824 54.1171 25.6824V25.6814Z" fill="#C8D3D9"/>
<path d="M53.74 59.5031C53.7226 59.8006 53.6732 60.0954 53.5927 60.3824C53.3097 61.4674 52.6268 62.1471 51.64 62.9862C51.519 63.0893 51.3932 63.1947 51.2633 63.3036C50.2469 64.152 49.127 64.8683 47.9306 65.4352L47.9185 65.4411L47.9065 65.4352C46.7101 64.8683 45.5904 64.152 44.5741 63.3036C43.3842 62.3073 42.5621 61.6004 42.2443 60.3824C41.9923 59.5899 42.0591 58.7304 42.4304 57.9864C42.8297 57.3002 43.4791 56.7952 44.2425 56.5774C45.5534 56.2609 47.0874 57.0237 47.9185 58.5198C48.7496 57.0251 50.284 56.2609 51.5949 56.5774C51.6494 56.5903 51.702 56.605 51.7538 56.622H51.7587C51.7931 56.6327 51.827 56.6443 51.8605 56.6564C51.894 56.6684 51.9243 56.6805 51.9555 56.6934C51.9725 56.7003 51.9895 56.7074 52.0064 56.7148L52.0265 56.7238C52.1666 56.7864 52.301 56.8611 52.4282 56.9469C52.5947 57.0586 52.75 57.1861 52.892 57.3277C53.0918 57.5236 53.2647 57.7453 53.4061 57.9869C53.6559 58.4515 53.7716 58.9765 53.74 59.5031Z" fill="white"/>
<g filter="url(#filter0_d_2374_379741)">
<path d="M31.1807 41.7296C31.1631 42.0271 31.1137 42.3219 31.0334 42.6089C30.7504 43.6939 30.0675 44.3736 29.0803 45.2127C28.9593 45.3159 28.8339 45.4212 28.704 45.5301C27.6876 46.3786 26.5677 47.0948 25.3713 47.6618L25.3592 47.6676L25.3471 47.6618C24.1507 47.0947 23.0309 46.3785 22.0144 45.5301C20.8245 44.5344 20.0028 43.8269 19.685 42.6089C19.433 41.8164 19.4997 40.9569 19.8711 40.2129C20.27 39.5266 20.9193 39.0215 21.6828 38.8039C22.9941 38.4874 24.5281 39.2502 25.3592 40.7463C26.1903 39.252 27.7247 38.4874 29.0356 38.8039C29.0896 38.8168 29.1427 38.8316 29.1945 38.8486H29.1994C29.2338 38.8593 29.2677 38.8708 29.3007 38.8829C29.3338 38.8949 29.365 38.907 29.3963 38.9199C29.4132 38.9266 29.4297 38.9337 29.4467 38.9413L29.4668 38.9503C29.6068 39.013 29.7412 39.0876 29.8685 39.1734C30.0351 39.2848 30.1904 39.4122 30.3322 39.5537C30.5321 39.7497 30.705 39.9713 30.8464 40.2129C31.0964 40.6776 31.2122 41.2028 31.1807 41.7296Z" fill="white"/>
</g>
<g filter="url(#filter1_d_2374_379741)">
<path d="M79.8577 38.6723C79.8401 38.9698 79.7907 39.2645 79.7104 39.5515C79.4274 40.6365 78.7445 41.3163 77.7573 42.1554C77.6363 42.2585 77.5109 42.3639 77.381 42.4728C76.3646 43.3212 75.2447 44.0375 74.0483 44.6044L74.0362 44.6102L74.0241 44.6044C72.8277 44.0374 71.7079 43.3211 70.6914 42.4728C69.5015 41.477 68.6798 40.7695 68.362 39.5515C68.11 38.7591 68.1767 37.8996 68.5481 37.1556C68.947 36.4692 69.5963 35.9642 70.3598 35.7465C71.6711 35.4301 73.2051 36.1929 74.0362 37.689C74.8673 36.1947 76.4017 35.4301 77.7126 35.7465C77.7666 35.7595 77.8197 35.7742 77.8715 35.7912H77.8764C77.9108 35.8019 77.9447 35.8135 77.9777 35.8255C78.0108 35.8376 78.042 35.8496 78.0733 35.8626C78.0902 35.8693 78.1067 35.8764 78.1237 35.884L78.1438 35.8929C78.2838 35.9556 78.4183 36.0303 78.5455 36.1161C78.7121 36.2275 78.8674 36.3548 79.0092 36.4964C79.2091 36.6923 79.382 36.914 79.5234 37.1556C79.7734 37.6203 79.8892 38.1455 79.8577 38.6723Z" fill="white"/>
</g>
<path d="M7.29352 44.6112C5.85072 44.6117 4.44044 45.04 3.24101 45.8419C2.04159 46.6438 1.10685 47.7833 0.554938 49.1164C0.00302699 50.4495 -0.141284 51.9163 0.140289 53.3313C0.421863 54.7464 1.11667 56.0462 2.13685 57.0664C3.15703 58.0867 4.45681 58.7815 5.87185 59.0632C7.28689 59.3448 8.75366 59.2007 10.0868 58.6488C11.4199 58.097 12.5594 57.1623 13.3614 55.963C14.1634 54.7636 14.5917 53.3533 14.5924 51.9105C14.5925 50.9519 14.4039 50.0028 14.0371 49.1171C13.6704 48.2315 13.1328 47.4268 12.455 46.7489C11.7772 46.0711 10.9725 45.5334 10.0869 45.1666C9.20128 44.7998 8.25209 44.6111 7.29352 44.6112ZM7.29352 55.9694C7.14561 55.9679 7.00142 55.9228 6.87906 55.8397C6.7567 55.7566 6.6616 55.6392 6.60569 55.5022C6.54978 55.3653 6.53554 55.2149 6.56477 55.0699C6.594 54.9249 6.66539 54.7918 6.76998 54.6872C6.87458 54.5826 7.0077 54.5112 7.1527 54.482C7.29771 54.4527 7.44812 54.467 7.58506 54.5229C7.722 54.5788 7.83939 54.6739 7.92251 54.7962C8.00562 54.9186 8.05076 55.0628 8.05226 55.2107C8.05226 55.4119 7.97231 55.605 7.83002 55.7473C7.68772 55.8895 7.49475 55.9694 7.29352 55.9694ZM8.5968 49.4276L8.10582 53.3937C8.07502 53.6793 7.70859 53.8967 7.29305 53.8967C6.87752 53.8967 6.51687 53.6793 6.47983 53.3937L5.99558 49.4276C5.95819 49.2432 5.96062 49.0529 6.00272 48.8695C6.04481 48.6862 6.1256 48.5139 6.23967 48.3642C6.35373 48.2146 6.49845 48.091 6.66412 48.0018C6.8298 47.9126 7.0126 47.8598 7.20032 47.847C7.38804 47.8342 7.57633 47.8616 7.7526 47.9275C7.92886 47.9933 8.08906 48.096 8.22241 48.2288C8.35577 48.3615 8.45921 48.5212 8.52586 48.6972C8.5925 48.8731 8.6208 49.0613 8.60884 49.2491C8.61096 49.3088 8.60693 49.3686 8.5968 49.4276Z" fill="#C8D3D9"/>
<path d="M73.9163 19.7264C73.957 19.7639 73.9897 19.8092 74.0125 19.8597C74.0352 19.9101 74.0474 19.9646 74.0486 20.0199C74.0497 20.0753 74.0396 20.1302 74.019 20.1815C73.9983 20.2329 73.9675 20.2795 73.9284 20.3186C73.8893 20.3577 73.8427 20.3886 73.7913 20.4092C73.74 20.4299 73.685 20.4399 73.6297 20.4388C73.5744 20.4377 73.5199 20.4254 73.4694 20.4027C73.419 20.38 73.3736 20.3473 73.3361 20.3066L72.0806 19.0506L70.8246 20.3066C70.7467 20.3784 70.644 20.4174 70.538 20.4152C70.432 20.4131 70.3309 20.37 70.256 20.295C70.181 20.2201 70.1379 20.119 70.1358 20.013C70.1336 19.907 70.1725 19.8043 70.2444 19.7264L71.5004 18.4704L70.2444 17.214C70.2037 17.1765 70.171 17.1312 70.1483 17.0807C70.1256 17.0303 70.1133 16.9757 70.1121 16.9204C70.111 16.8651 70.1211 16.8101 70.1418 16.7588C70.1624 16.7074 70.1932 16.6608 70.2323 16.6217C70.2715 16.5826 70.3181 16.5517 70.3694 16.5311C70.4207 16.5104 70.4757 16.5004 70.531 16.5015C70.5864 16.5026 70.6409 16.5149 70.6913 16.5377C70.7418 16.5604 70.7871 16.593 70.8246 16.6337L72.0806 17.8897L73.3361 16.6337C73.4141 16.5619 73.5168 16.523 73.6228 16.5251C73.7288 16.5273 73.8298 16.5704 73.9048 16.6453C73.9798 16.7203 74.0228 16.8213 74.025 16.9273C74.0271 17.0333 73.9882 17.136 73.9163 17.214L72.6608 18.4704L73.9163 19.7264Z" fill="white"/>
<path d="M27.1958 16.5136C28.2101 16.5136 29.0324 15.6913 29.0324 14.677C29.0324 13.6626 28.2101 12.8403 27.1958 12.8403C26.1814 12.8403 25.3591 13.6626 25.3591 14.677C25.3591 15.6913 26.1814 16.5136 27.1958 16.5136Z" stroke="white" stroke-width="1.307" stroke-miterlimit="10"/>
<path d="M92.5481 71.1624C93.8637 71.1624 94.9302 70.0959 94.9302 68.7803C94.9302 67.4647 93.8637 66.3983 92.5481 66.3983C91.2325 66.3983 90.166 67.4647 90.166 68.7803C90.166 70.0959 91.2325 71.1624 92.5481 71.1624Z" fill="#F4F7FB" stroke="#F4F7FB" stroke-width="1.043" stroke-miterlimit="10"/>
<path d="M3.69701 23.2346C5.01259 23.2346 6.07908 22.1681 6.07908 20.8525C6.07908 19.5369 5.01259 18.4704 3.69701 18.4704C2.38143 18.4704 1.31494 19.5369 1.31494 20.8525C1.31494 22.1681 2.38143 23.2346 3.69701 23.2346Z" fill="#F4F7FB" stroke="#F4F7FB" stroke-width="1.043" stroke-miterlimit="10"/>
<path d="M86.4 87.0269C89.4278 87.0269 91.8823 84.5724 91.8823 81.5447C91.8823 78.5169 89.4278 76.0624 86.4 76.0624C83.3722 76.0624 80.9177 78.5169 80.9177 81.5447C80.9177 84.5724 83.3722 87.0269 86.4 87.0269Z" fill="#F4F7FB" stroke="#F4F7FB" stroke-width="2.4" stroke-miterlimit="10"/>
<defs>
<filter id="filter0_d_2374_379741" x="13.5347" y="35.7332" width="23.6511" height="20.9344" filterUnits="userSpaceOnUse" color-interpolation-filters="sRGB">
<feFlood flood-opacity="0" result="BackgroundImageFix"/>
<feColorMatrix in="SourceAlpha" type="matrix" values="0 0 0 0 0 0 0 0 0 0 0 0 0 0 0 0 0 0 127 0" result="hardAlpha"/>
<feOffset dy="3"/>
<feGaussianBlur stdDeviation="3"/>
<feColorMatrix type="matrix" values="0 0 0 0 0.784314 0 0 0 0 0.827451 0 0 0 0 0.85098 0 0 0 0.102 0"/>
<feBlend mode="normal" in2="BackgroundImageFix" result="effect1_dropShadow_2374_379741"/>
<feBlend mode="normal" in="SourceGraphic" in2="effect1_dropShadow_2374_379741" result="shape"/>
</filter>
<filter id="filter1_d_2374_379741" x="62.2117" y="32.6758" width="23.6511" height="20.9344" filterUnits="userSpaceOnUse" color-interpolation-filters="sRGB">
<feFlood flood-opacity="0" result="BackgroundImageFix"/>
<feColorMatrix in="SourceAlpha" type="matrix" values="0 0 0 0 0 0 0 0 0 0 0 0 0 0 0 0 0 0 127 0" result="hardAlpha"/>
<feOffset dy="3"/>
<feGaussianBlur stdDeviation="3"/>
<feColorMatrix type="matrix" values="0 0 0 0 0.784314 0 0 0 0 0.827451 0 0 0 0 0.85098 0 0 0 0.102 0"/>
<feBlend mode="normal" in2="BackgroundImageFix" result="effect1_dropShadow_2374_379741"/>
<feBlend mode="normal" in="SourceGraphic" in2="effect1_dropShadow_2374_379741" result="shape"/>
</filter>
</defs>
</svg>
