<svg width="24" height="24" viewBox="0 0 24 24" fill="none" xmlns="http://www.w3.org/2000/svg">
<path d="M11.6001 13.994L6.91316 19.808C6.84694 19.8905 6.75682 19.9505 6.65517 19.9798C6.55352 20.0091 6.44532 20.0062 6.34535 19.9716C6.24539 19.937 6.15855 19.8724 6.09676 19.7865C6.03496 19.7006 6.00123 19.5978 6.00017 19.492V6.05499C5.97614 5.53779 6.15697 5.03199 6.5035 4.64728C6.85002 4.26257 7.33426 4.02998 7.85115 4H16.1512C16.6681 4.02998 17.1523 4.26257 17.4988 4.64728C17.8453 5.03199 18.0262 5.53779 18.0022 6.05499V19.492C18.0014 19.5978 17.9679 19.7008 17.9062 19.7868C17.8446 19.8728 17.7578 19.9376 17.6578 19.9722C17.5578 20.0069 17.4495 20.0097 17.3479 19.9803C17.2462 19.9509 17.1562 19.8907 17.0902 19.808L12.4021 13.994C12.3539 13.9341 12.2928 13.8858 12.2234 13.8526C12.154 13.8194 12.0781 13.8022 12.0011 13.8022C11.9242 13.8022 11.8483 13.8194 11.7789 13.8526C11.7095 13.8858 11.6484 13.9341 11.6001 13.994Z" fill="white"/>
<path d="M7.00018 18.1068L10.8221 13.3658C11.1106 13.0085 11.54 12.8035 12.0002 12.8035C12.4604 12.8035 12.8898 13.0085 13.1786 13.3663L17.0002 18.1058V6.05499C17.0002 5.48315 16.6105 5 16.1492 5H7.85117C7.38989 5 7.00018 5.48315 7.00018 6.05499V18.1068ZM17.4837 20.0001C17.3404 20.0001 17.195 19.9407 17.0882 19.808L12.4002 13.994C12.1952 13.7402 11.8052 13.7402 11.6002 13.994L6.91318 19.808C6.61121 20.1832 6.00018 19.9721 6.00018 19.492V6.05499C6.00018 4.92505 6.83316 4 7.85117 4H16.1492C17.1672 4 18.0002 4.92505 18.0002 6.05499V19.492C18.0002 19.8022 17.7455 20.0001 17.4837 20.0001Z" fill="#607079"/>
</svg>
