<svg width="127" height="140" viewBox="0 0 127 140" fill="none" xmlns="http://www.w3.org/2000/svg">
<g filter="url(#filter0_d_1212_21896)">
<path d="M120.126 58.1033C120.108 72.8205 114.426 86.9609 104.267 97.5686C94.1085 108.176 80.2597 114.43 65.6163 115.022C50.9729 115.614 36.6685 110.498 25.6935 100.745C14.7186 90.9917 7.92287 77.3556 6.72709 62.6876C5.53131 48.0195 10.028 33.4551 19.2772 22.0392C28.5263 10.6233 41.8119 3.23963 56.3562 1.43202C70.9005 -0.375595 85.5777 3.53271 97.3191 12.3399C109.061 21.147 116.957 34.1712 119.359 48.6894C119.872 51.8008 120.129 54.9495 120.126 58.1033Z" fill="#F4F7FB"/>
</g>
<g filter="url(#filter1_d_1212_21896)">
<path d="M97.7346 93.6483V114.269L63.3376 128.999V89.0391L74.2947 101.733L97.7346 93.6483Z" fill="#C8D3D9" stroke="#F4F7FB" stroke-width="3.483" stroke-linecap="round" stroke-linejoin="round"/>
</g>
<g filter="url(#filter2_d_1212_21896)">
<path d="M63.3376 89.0391V129L27.4216 114.435V93.2313L52.2087 101.734L63.3376 89.0391Z" fill="#C8D3D9" stroke="#F4F7FB" stroke-width="3.483" stroke-linecap="round" stroke-linejoin="round"/>
</g>
<path d="M97.7346 79.0443L63.3376 89.0422L27.4216 79.0443L63.3376 69.0557L97.7346 79.0443Z" fill="#C8D3D9" stroke="#F4F7FB" stroke-width="3.483" stroke-linecap="round" stroke-linejoin="round"/>
<path d="M63.3376 89.0395L52.2087 101.734L27.4216 93.2311L19.1594 90.3923L27.4216 79.0439L63.3376 89.0395Z" fill="#C8D3D9" stroke="#F4F7FB" stroke-width="3.483" stroke-linecap="round" stroke-linejoin="round"/>
<path d="M107.179 90.3917L97.735 93.6481L74.2962 101.733L63.3391 89.0388L97.7361 79.041L107.179 90.3917Z" fill="#C8D3D9" stroke="#F4F7FB" stroke-width="3.483" stroke-linecap="round" stroke-linejoin="round"/>
<path d="M82.1706 27.917C81.3227 26.4761 80.1667 25.2423 78.7862 24.3047C78.347 24.0039 77.8805 23.7455 77.393 23.5329C77.3719 23.5191 77.3446 23.5123 77.3241 23.498C77.2621 23.4706 77.2103 23.45 77.1455 23.4225C77.0423 23.381 76.9325 23.3397 76.8161 23.2986C76.7063 23.2569 76.5828 23.2158 76.4662 23.174H76.4526C76.2739 23.1123 76.0885 23.0638 75.8962 23.0158C71.3586 21.9195 66.0456 24.5737 63.1692 29.7714C60.2929 24.5726 54.9771 21.9195 50.4349 23.0158C46.3576 24.0082 44.2845 27.6896 44.1605 27.917C42.2661 31.4191 43.1723 34.9143 43.5154 36.2518C44.6207 40.4845 47.4624 42.9452 51.5881 46.4061C55.1074 49.3579 58.9848 51.8501 63.1277 53.8233L63.1692 53.8444L63.2102 53.8233C67.3533 51.8504 71.2307 49.3581 74.7498 46.4061C75.205 46.0336 75.6356 45.6634 76.0543 45.3029C79.4729 42.3893 81.8412 40.0224 82.8157 36.2518C83.0955 35.2528 83.2681 34.2266 83.3306 33.1907C83.4367 31.3589 83.0352 29.5335 82.1706 27.917ZM59.0982 43.3725C59.0961 43.5311 59.0398 43.6843 58.9385 43.8061C58.8373 43.9279 58.6974 44.011 58.5424 44.0415C58.4904 44.0529 58.4373 44.0575 58.3842 44.0552C58.2506 44.0582 58.1188 44.0228 58.0046 43.9531C57.8903 43.8835 57.7982 43.7825 57.7391 43.6621L54.155 36.3271V43.3725C54.1447 43.5556 54.065 43.7279 53.9322 43.8539C53.7994 43.9799 53.6237 44.0501 53.441 44.0501C53.2583 44.0501 53.0826 43.9799 52.9498 43.8539C52.8171 43.7279 52.7373 43.5556 52.727 43.3725V33.2393C52.7302 33.0809 52.7871 32.9282 52.8883 32.8066C52.9894 32.685 53.1288 32.6017 53.2834 32.5703C53.4402 32.5366 53.6037 32.5555 53.7487 32.6241C53.8938 32.6926 54.0125 32.8069 54.0867 32.9496L57.6708 40.2915V33.2393C57.6811 33.0561 57.7608 32.8838 57.8936 32.7578C58.0264 32.6318 58.2021 32.5616 58.3848 32.5616C58.5675 32.5616 58.7432 32.6318 58.876 32.7578C59.0087 32.8838 59.0885 33.0561 59.0988 33.2393L59.0982 43.3725ZM66.3261 38.353C66.3124 41.5723 64.967 44.0061 63.1971 44.0061C61.4125 44.0061 60.0602 41.5495 60.0602 38.3045C60.0602 35.0595 61.4125 32.6103 63.1971 32.6103C64.4737 32.6103 65.5382 33.8237 66.0416 35.8576C66.0616 35.9401 66.0647 36.0257 66.0508 36.1094C66.0368 36.1931 66.0062 36.2732 65.9606 36.3446C65.915 36.4161 65.8555 36.4776 65.7857 36.5253C65.7158 36.5731 65.637 36.6062 65.5541 36.6226C65.3869 36.6608 65.2115 36.6336 65.0635 36.5466C64.9155 36.4596 64.8061 36.3192 64.7576 36.154C64.3873 34.6578 63.6938 33.8723 63.1994 33.8723C62.4598 33.8723 61.3869 35.6022 61.3869 38.3045C61.3869 41.0067 62.4581 42.7441 63.1994 42.7441C63.8929 42.7441 64.8401 41.3106 64.9909 38.9392H63.8582V39.0535C63.8483 39.2222 63.7746 39.3808 63.6521 39.4967C63.5297 39.6127 63.3677 39.6773 63.1994 39.6773C63.0311 39.6773 62.8691 39.6127 62.7467 39.4967C62.6242 39.3808 62.5505 39.2222 62.5406 39.0535V38.3016C62.5452 38.1306 62.6172 37.9685 62.7407 37.8507C62.8641 37.7329 63.0291 37.669 63.1994 37.6732H65.6707C65.841 37.6692 66.0058 37.733 66.1293 37.8508C66.2527 37.9686 66.3247 38.1307 66.3295 38.3016L66.3261 38.353ZM70.4791 44.0061C68.687 44.0061 67.3416 41.5495 67.3416 38.3045C67.3416 35.0595 68.687 32.6103 70.4791 32.6103C72.2711 32.6103 73.608 35.0577 73.608 38.3045C73.608 41.5512 72.2649 44.0089 70.4791 44.0089V44.0061ZM70.4791 33.8723C69.7395 33.8723 68.6666 35.6022 68.6666 38.3045C68.6666 41.0067 69.7372 42.7441 70.4791 42.7441C71.2209 42.7441 72.291 41.0142 72.291 38.3045C72.291 35.5948 71.2147 33.8734 70.4791 33.8734V33.8723Z" fill="#C8D3D9"/>
<path d="M69.9983 77.1636C69.9761 77.5444 69.9132 77.9217 69.8105 78.289C69.4499 79.6779 68.5794 80.5479 67.3216 81.622C67.1674 81.754 67.007 81.8888 66.8414 82.0282C65.5459 83.1142 64.1185 84.031 62.5935 84.7567L62.5781 84.7642L62.5627 84.7567C61.0378 84.031 59.6107 83.1142 58.3153 82.0282C56.7986 80.753 55.7507 79.8481 55.3456 78.289C55.0244 77.2747 55.1095 76.1746 55.5829 75.2222C56.0918 74.3439 56.9195 73.6975 57.8926 73.4186C59.5635 73.0136 61.5188 73.99 62.5781 75.905C63.6374 73.9917 65.5933 73.0136 67.2641 73.4186C67.3335 73.4352 67.4007 73.4541 67.4667 73.4758H67.4729C67.5167 73.4895 67.56 73.5043 67.6026 73.5198C67.6453 73.5352 67.684 73.5506 67.7238 73.5672C67.7454 73.576 67.767 73.5851 67.7887 73.5946L67.8143 73.606C67.9928 73.6862 68.1641 73.7818 68.3263 73.8917C68.5385 74.0346 68.7365 74.1978 68.9174 74.379C69.1721 74.6298 69.3925 74.9136 69.5727 75.2228C69.8911 75.8175 70.0385 76.4895 69.9983 77.1636Z" fill="white"/>
<g filter="url(#filter3_d_1212_21896)">
<path d="M41.2437 54.4136C41.2212 54.7944 41.1583 55.1717 41.0559 55.539C40.6952 56.9279 39.8248 57.7979 38.5664 58.872C38.4123 59.004 38.2524 59.1388 38.0868 59.2782C36.7913 60.3643 35.3639 61.2811 33.8388 62.0068L33.8235 62.0142L33.8081 62.0068C32.2831 61.2809 30.8558 60.3641 29.5601 59.2782C28.0434 58.0037 26.9961 57.0981 26.591 55.539C26.2698 54.5247 26.3549 53.4246 26.8283 52.4722C27.3366 51.5937 28.1643 50.9472 29.1374 50.6686C30.8088 50.2636 32.7642 51.24 33.8235 53.155C34.8828 51.2423 36.8386 50.2636 38.5095 50.6686C38.5784 50.6852 38.6461 50.7041 38.7121 50.7258H38.7183C38.7621 50.7395 38.8053 50.7543 38.8474 50.7698C38.8895 50.7852 38.9294 50.8006 38.9692 50.8172C38.9908 50.8258 39.0119 50.8349 39.0335 50.8446L39.0591 50.856C39.2376 50.9363 39.4089 51.0319 39.5711 51.1417C39.7834 51.2842 39.9814 51.4473 40.1622 51.6285C40.417 51.8793 40.6374 52.163 40.8176 52.4722C41.1363 53.0671 41.2838 53.7393 41.2437 54.4136Z" fill="white"/>
</g>
<g filter="url(#filter4_d_1212_21896)">
<path d="M103.288 50.5005C103.266 50.8813 103.203 51.2586 103.1 51.6259C102.74 53.0148 101.869 53.8849 100.611 54.9589C100.457 55.0909 100.297 55.2257 100.131 55.3651C98.8357 56.4512 97.4083 57.368 95.8833 58.0937L95.8679 58.1011L95.8525 58.0937C94.3276 57.3678 92.9002 56.451 91.6046 55.3651C90.0879 54.0906 89.0405 53.185 88.6355 51.6259C88.3142 50.6116 88.3993 49.5115 88.8727 48.5592C89.3811 47.6806 90.2087 47.0341 91.1818 46.7556C92.8533 46.3505 94.8086 47.3269 95.8679 49.2419C96.9272 47.3292 98.8831 46.3505 100.554 46.7556C100.623 46.7721 100.69 46.791 100.756 46.8127H100.763C100.807 46.8265 100.85 46.8413 100.892 46.8567C100.934 46.8721 100.974 46.8875 101.014 46.9041C101.035 46.9127 101.056 46.9218 101.078 46.9315L101.104 46.943C101.282 47.0232 101.453 47.1188 101.616 47.2286C101.828 47.3712 102.026 47.5342 102.207 47.7154C102.461 47.9662 102.682 48.2499 102.862 48.5592C103.181 49.154 103.328 49.8262 103.288 50.5005Z" fill="white"/>
</g>
<path d="M10.7965 58.1025C8.95745 58.1032 7.15988 58.6514 5.63107 59.6779C4.10225 60.7043 2.91081 62.1629 2.20734 63.8692C1.50386 65.5755 1.31992 67.453 1.67882 69.2643C2.03772 71.0756 2.92332 72.7393 4.22367 74.0452C5.52402 75.3511 7.18074 76.2406 8.98438 76.6011C10.788 76.9616 12.6576 76.7771 14.3568 76.0707C16.056 75.3644 17.5085 74.168 18.5307 72.6328C19.5529 71.0976 20.0989 69.2924 20.0997 67.4456C20.0999 66.2187 19.8595 65.0037 19.392 63.8701C18.9246 62.7365 18.2393 61.7065 17.3754 60.8388C16.5115 59.9712 15.4858 59.2829 14.357 58.8135C13.2281 58.344 12.0183 58.1024 10.7965 58.1025ZM10.7965 72.6411C10.6079 72.6392 10.4242 72.5814 10.2682 72.475C10.1122 72.3686 9.99101 72.2183 9.91975 72.0431C9.84848 71.8678 9.83034 71.6753 9.86759 71.4897C9.90485 71.3041 9.99584 71.1336 10.1292 70.9998C10.2625 70.8659 10.4322 70.7745 10.617 70.7371C10.8018 70.6997 10.9935 70.7179 11.1681 70.7895C11.3426 70.8611 11.4923 70.9828 11.5982 71.1394C11.7041 71.296 11.7617 71.4806 11.7636 71.6699C11.7636 71.9275 11.6617 72.1745 11.4803 72.3567C11.2989 72.5388 11.053 72.6411 10.7965 72.6411ZM12.4577 64.2675L11.8318 69.3441C11.7926 69.7097 11.3255 69.988 10.7959 69.988C10.2662 69.988 9.80655 69.7097 9.75933 69.3441L9.14209 64.2675C9.09444 64.0314 9.09753 63.788 9.15119 63.5532C9.20484 63.3185 9.30782 63.0979 9.45321 62.9064C9.5986 62.7148 9.78306 62.5567 9.99423 62.4426C10.2054 62.3284 10.4384 62.2608 10.6777 62.2444C10.917 62.2279 11.157 62.2631 11.3816 62.3474C11.6063 62.4316 11.8105 62.5631 11.9805 62.733C12.1504 62.9029 12.2823 63.1073 12.3672 63.3326C12.4522 63.5578 12.4882 63.7987 12.473 64.039C12.4757 64.1155 12.4706 64.192 12.4577 64.2675Z" fill="#C8D3D9"/>
<path d="M95.7155 26.25C95.7673 26.298 95.809 26.3561 95.838 26.4206C95.8669 26.4852 95.8826 26.555 95.884 26.6258C95.8854 26.6966 95.8726 26.7669 95.8463 26.8326C95.82 26.8983 95.7807 26.958 95.7308 27.0081C95.681 27.0582 95.6216 27.0976 95.5561 27.1241C95.4907 27.1505 95.4206 27.1634 95.3501 27.162C95.2796 27.1605 95.2101 27.1448 95.1458 27.1157C95.0815 27.0866 95.0237 27.0448 94.9759 26.9927L93.3756 25.3851L91.7747 26.9927C91.6753 27.0847 91.5444 27.1345 91.4093 27.1318C91.2742 27.129 91.1454 27.0739 91.0499 26.9779C90.9543 26.882 90.8994 26.7526 90.8967 26.6169C90.8939 26.4813 90.9435 26.3498 91.0351 26.25L92.636 24.6423L91.0351 23.0342C90.9833 22.9862 90.9416 22.9282 90.9126 22.8636C90.8837 22.799 90.868 22.7292 90.8666 22.6584C90.8651 22.5876 90.878 22.5172 90.9043 22.4515C90.9306 22.3858 90.9699 22.3261 91.0198 22.276C91.0696 22.2259 91.1291 22.1865 91.1945 22.16C91.2599 22.1336 91.33 22.1207 91.4005 22.1222C91.471 22.1236 91.5405 22.1394 91.6048 22.1685C91.6691 22.1976 91.7269 22.2394 91.7747 22.2914L93.3756 23.8991L94.9759 22.2914C95.0753 22.1995 95.2062 22.1497 95.3413 22.1524C95.4764 22.1552 95.6052 22.2103 95.7007 22.3063C95.7963 22.4022 95.8512 22.5316 95.8539 22.6673C95.8567 22.8029 95.8071 22.9344 95.7155 23.0342L94.1152 24.6423L95.7155 26.25Z" fill="white"/>
<path d="M36.1643 22.1374C37.4572 22.1374 38.5053 21.0848 38.5053 19.7865C38.5053 18.4881 37.4572 17.4355 36.1643 17.4355C34.8714 17.4355 33.8232 18.4881 33.8232 19.7865C33.8232 21.0848 34.8714 22.1374 36.1643 22.1374Z" stroke="white" stroke-width="1.307" stroke-miterlimit="10"/>
<path d="M119.464 92.0883C121.141 92.0883 122.5 90.7232 122.5 89.0393C122.5 87.3553 121.141 85.9902 119.464 85.9902C117.787 85.9902 116.427 87.3553 116.427 89.0393C116.427 90.7232 117.787 92.0883 119.464 92.0883Z" fill="#F4F7FB" stroke="#F4F7FB" stroke-width="1.043" stroke-miterlimit="10"/>
<path d="M6.21226 30.7407C7.88913 30.7407 9.2485 29.3756 9.2485 27.6916C9.2485 26.0077 7.88913 24.6426 6.21226 24.6426C4.53539 24.6426 3.17603 26.0077 3.17603 27.6916C3.17603 29.3756 4.53539 30.7407 6.21226 30.7407Z" fill="#F4F7FB" stroke="#F4F7FB" stroke-width="1.043" stroke-miterlimit="10"/>
<path d="M111.627 112.394C115.487 112.394 118.615 109.252 118.615 105.377C118.615 101.501 115.487 98.3594 111.627 98.3594C107.768 98.3594 104.639 101.501 104.639 105.377C104.639 109.252 107.768 112.394 111.627 112.394Z" fill="#F4F7FB" stroke="#F4F7FB" stroke-width="2.4" stroke-miterlimit="10"/>
<defs>
<filter id="filter0_d_1212_21896" x="0.537598" y="0" width="125.588" height="126.068" filterUnits="userSpaceOnUse" color-interpolation-filters="sRGB">
<feFlood flood-opacity="0" result="BackgroundImageFix"/>
<feColorMatrix in="SourceAlpha" type="matrix" values="0 0 0 0 0 0 0 0 0 0 0 0 0 0 0 0 0 0 127 0" result="hardAlpha"/>
<feOffset dy="5"/>
<feGaussianBlur stdDeviation="3"/>
<feColorMatrix type="matrix" values="0 0 0 0 0.784314 0 0 0 0 0.827451 0 0 0 0 0.85098 0 0 0 0.302 0"/>
<feBlend mode="normal" in2="BackgroundImageFix" result="effect1_dropShadow_1212_21896"/>
<feBlend mode="normal" in="SourceGraphic" in2="effect1_dropShadow_1212_21896" result="shape"/>
</filter>
<filter id="filter1_d_1212_21896" x="55.5962" y="84.2974" width="49.8799" height="55.4438" filterUnits="userSpaceOnUse" color-interpolation-filters="sRGB">
<feFlood flood-opacity="0" result="BackgroundImageFix"/>
<feColorMatrix in="SourceAlpha" type="matrix" values="0 0 0 0 0 0 0 0 0 0 0 0 0 0 0 0 0 0 127 0" result="hardAlpha"/>
<feOffset dy="3"/>
<feGaussianBlur stdDeviation="3"/>
<feColorMatrix type="matrix" values="0 0 0 0 0.784314 0 0 0 0 0.827451 0 0 0 0 0.85098 0 0 0 0.502 0"/>
<feBlend mode="normal" in2="BackgroundImageFix" result="effect1_dropShadow_1212_21896"/>
<feBlend mode="normal" in="SourceGraphic" in2="effect1_dropShadow_1212_21896" result="shape"/>
</filter>
<filter id="filter2_d_1212_21896" x="19.6802" y="84.2974" width="51.3989" height="55.4443" filterUnits="userSpaceOnUse" color-interpolation-filters="sRGB">
<feFlood flood-opacity="0" result="BackgroundImageFix"/>
<feColorMatrix in="SourceAlpha" type="matrix" values="0 0 0 0 0 0 0 0 0 0 0 0 0 0 0 0 0 0 127 0" result="hardAlpha"/>
<feOffset dy="3"/>
<feGaussianBlur stdDeviation="3"/>
<feColorMatrix type="matrix" values="0 0 0 0 0.784314 0 0 0 0 0.827451 0 0 0 0 0.85098 0 0 0 0.502 0"/>
<feBlend mode="normal" in2="BackgroundImageFix" result="effect1_dropShadow_1212_21896"/>
<feBlend mode="normal" in="SourceGraphic" in2="effect1_dropShadow_1212_21896" result="shape"/>
</filter>
<filter id="filter3_d_1212_21896" x="20.3994" y="47.5781" width="26.8507" height="23.436" filterUnits="userSpaceOnUse" color-interpolation-filters="sRGB">
<feFlood flood-opacity="0" result="BackgroundImageFix"/>
<feColorMatrix in="SourceAlpha" type="matrix" values="0 0 0 0 0 0 0 0 0 0 0 0 0 0 0 0 0 0 127 0" result="hardAlpha"/>
<feOffset dy="3"/>
<feGaussianBlur stdDeviation="3"/>
<feColorMatrix type="matrix" values="0 0 0 0 0.784314 0 0 0 0 0.827451 0 0 0 0 0.85098 0 0 0 0.102 0"/>
<feBlend mode="normal" in2="BackgroundImageFix" result="effect1_dropShadow_1212_21896"/>
<feBlend mode="normal" in="SourceGraphic" in2="effect1_dropShadow_1212_21896" result="shape"/>
</filter>
<filter id="filter4_d_1212_21896" x="82.4438" y="43.665" width="26.8507" height="23.436" filterUnits="userSpaceOnUse" color-interpolation-filters="sRGB">
<feFlood flood-opacity="0" result="BackgroundImageFix"/>
<feColorMatrix in="SourceAlpha" type="matrix" values="0 0 0 0 0 0 0 0 0 0 0 0 0 0 0 0 0 0 127 0" result="hardAlpha"/>
<feOffset dy="3"/>
<feGaussianBlur stdDeviation="3"/>
<feColorMatrix type="matrix" values="0 0 0 0 0.784314 0 0 0 0 0.827451 0 0 0 0 0.85098 0 0 0 0.102 0"/>
<feBlend mode="normal" in2="BackgroundImageFix" result="effect1_dropShadow_1212_21896"/>
<feBlend mode="normal" in="SourceGraphic" in2="effect1_dropShadow_1212_21896" result="shape"/>
</filter>
</defs>
</svg>
