<svg width="217" height="216" viewBox="0 0 217 216" fill="none" xmlns="http://www.w3.org/2000/svg">
<g filter="url(#filter0_d_2180_28338)">
<path d="M210.841 105.236C210.811 131 200.823 155.756 182.965 174.327C165.107 192.898 140.761 203.847 115.018 204.885C89.2747 205.922 64.1267 196.969 44.8316 179.895C25.5365 162.822 13.5881 138.951 11.4845 113.273C9.38084 87.5947 17.2848 62.0973 33.5439 42.1113C49.803 22.1254 73.1585 9.19814 98.7276 6.03233C124.297 2.86653 150.1 9.70723 170.742 25.1243C191.385 40.5413 205.268 63.341 209.491 88.7569C210.395 94.2033 210.846 99.7151 210.841 105.236V105.236Z" fill="white"/>
</g>
<g filter="url(#filter1_d_2180_28338)">
<path d="M181.482 75.7307V184.372C181.476 186.319 180.699 188.184 179.321 189.561C177.944 190.937 176.077 191.711 174.13 191.716H28.8191C26.873 191.71 25.0083 190.935 23.6322 189.559C22.2561 188.183 21.4806 186.318 21.4751 184.372V75.7307C21.4806 73.7847 22.2561 71.9199 23.6322 70.5438C25.0083 69.1678 26.873 68.3923 28.8191 68.3867H174.131C176.078 68.3909 177.944 69.1658 179.322 70.542C180.699 71.9181 181.476 73.7836 181.482 75.7307V75.7307Z" fill="white"/>
</g>
<path d="M181.482 134.76V184.372C181.476 186.319 180.699 188.184 179.321 189.561C177.944 190.937 176.077 191.712 174.13 191.716H28.8191C26.873 191.71 25.0083 190.935 23.6322 189.559C22.2561 188.183 21.4806 186.318 21.4751 184.372V167.277L57.3541 138.823C59.8882 136.816 63.035 135.74 66.2675 135.777C69.5 135.813 72.6218 136.959 75.11 139.023L81.8501 144.623C84.3882 146.733 87.5871 147.884 90.8879 147.875C94.1887 147.866 97.3814 146.698 99.908 144.574L136.693 113.688C139.177 111.602 142.304 110.437 145.547 110.389C148.789 110.342 151.95 111.415 154.493 113.427L181.482 134.76Z" fill="#C8D3D9"/>
<path d="M67.2241 119.269C78.8166 119.269 88.2141 109.871 88.2141 98.2786C88.2141 86.6861 78.8166 77.2886 67.2241 77.2886C55.6317 77.2886 46.2341 86.6861 46.2341 98.2786C46.2341 109.871 55.6317 119.269 67.2241 119.269Z" fill="#F4F7FB"/>
<path d="M120.308 32.8119C119.371 32.8119 118.662 32.353 118.611 31.9413L117.229 20.6664C117.105 19.6469 117.41 18.6362 118.067 17.8938C118.65 17.2356 119.446 16.873 120.308 16.873C121.171 16.873 121.967 17.2358 122.55 17.8945C123.207 18.637 123.512 19.6472 123.387 20.6663L122.005 31.9414C121.954 32.353 121.245 32.8119 120.308 32.8119Z" fill="white"/>
<path d="M120.308 32.1907C120.914 32.1907 121.308 31.9474 121.392 31.8304L122.77 20.5907C122.873 19.748 122.624 18.9154 122.084 18.3062C121.621 17.7826 120.99 17.4941 120.308 17.4941C119.626 17.4941 118.996 17.7823 118.532 18.3055C117.993 18.9148 117.743 19.7479 117.846 20.5908L119.224 31.8302C119.308 31.9474 119.702 32.1907 120.308 32.1907ZM120.308 33.433C119.132 33.433 118.094 32.823 117.995 32.017L116.613 20.7419C116.33 18.427 117.973 16.252 120.308 16.252C122.643 16.252 124.287 18.427 124.003 20.7419L122.621 32.017C122.522 32.823 121.485 33.433 120.308 33.433Z" fill="white"/>
<path d="M120.308 39.3191C121.485 39.3191 122.439 38.365 122.439 37.1881C122.439 36.0112 121.485 35.0571 120.308 35.0571C119.131 35.0571 118.177 36.0112 118.177 37.1881C118.177 38.365 119.131 39.3191 120.308 39.3191Z" fill="white"/>
<path d="M120.308 38.6982C121.142 38.6982 121.818 38.0222 121.818 37.1882C121.818 36.3543 121.142 35.6782 120.308 35.6782C119.474 35.6782 118.798 36.3543 118.798 37.1882C118.798 38.0222 119.474 38.6982 120.308 38.6982Z" stroke="white" stroke-width="1.242" stroke-miterlimit="10" stroke-linecap="round"/>
<path d="M159.441 9.23C161.714 9.23 163.556 7.38765 163.556 5.115C163.556 2.84235 161.714 1 159.441 1C157.168 1 155.326 2.84235 155.326 5.115C155.326 7.38765 157.168 9.23 159.441 9.23Z" stroke="#F4F7FB" stroke-width="1.307" stroke-miterlimit="10"/>
<path d="M9.109 162.555C13.0352 162.555 16.218 159.372 16.218 155.446C16.218 151.52 13.0352 148.337 9.109 148.337C5.18281 148.337 2 151.52 2 155.446C2 159.372 5.18281 162.555 9.109 162.555Z" stroke="#F4F7FB" stroke-width="2.258" stroke-miterlimit="10"/>
<path d="M58.241 21.2119C55.6398 18.6096 52.2631 16.9232 48.62 16.4071C44.9769 15.8909 41.2648 16.5729 38.043 18.3502C34.8213 20.1275 32.2645 22.9039 30.7581 26.2608C29.2516 29.6178 28.8771 33.3735 29.691 36.9619C30.5449 40.712 32.6459 44.0615 35.6503 46.4629C38.6547 48.8642 42.3849 50.1753 46.231 50.1819C46.571 50.1819 46.921 50.1718 47.261 50.1418C51.4033 49.8989 55.3116 48.1407 58.241 45.2019C61.4158 42.0172 63.1985 37.7037 63.1985 33.2069C63.1985 28.71 61.4158 24.3966 58.241 21.2119V21.2119ZM52.511 39.4718C52.425 39.5633 52.3213 39.6364 52.2061 39.6862C52.0908 39.7361 51.9666 39.7618 51.841 39.7618C51.7154 39.7618 51.5912 39.7361 51.476 39.6862C51.3607 39.6364 51.257 39.5633 51.171 39.4718L46.171 34.4818L42.701 37.9519L41.231 39.4218C41.0731 39.5841 40.8574 39.6776 40.631 39.6819C40.5185 39.6816 40.4074 39.6584 40.3042 39.6137C40.201 39.569 40.1081 39.5037 40.031 39.4218C39.9503 39.3431 39.8861 39.249 39.8423 39.1451C39.7985 39.0412 39.7759 38.9296 39.7759 38.8169C39.7759 38.7041 39.7985 38.5924 39.8423 38.4885C39.8861 38.3846 39.9503 38.2906 40.031 38.2119L44.971 33.2718L40.771 29.0919L39.951 28.2818C39.7777 28.1018 39.6809 27.8616 39.6809 27.6118C39.6809 27.3619 39.7777 27.1219 39.951 26.9419C40.0378 26.8517 40.1418 26.78 40.257 26.731C40.3721 26.6821 40.4959 26.6568 40.621 26.6568C40.7461 26.6568 40.8699 26.6821 40.985 26.731C41.1002 26.78 41.2043 26.8517 41.291 26.9419L44.271 29.9218L46.291 31.9319L47.021 31.2019L51.221 26.9918C51.3017 26.9109 51.3976 26.8468 51.5031 26.8031C51.6086 26.7593 51.7218 26.7368 51.836 26.7368C51.9502 26.7368 52.0634 26.7593 52.1689 26.8031C52.2744 26.8468 52.3703 26.9109 52.451 26.9918C52.605 27.1556 52.6909 27.3719 52.6909 27.5968C52.6909 27.8216 52.605 28.0381 52.451 28.2019L48.501 32.1718L47.511 33.1618L52.511 38.1518C52.6796 38.3302 52.7735 38.5664 52.7735 38.8119C52.7735 39.0573 52.6796 39.2934 52.511 39.4718Z" fill="#C8D3D9"/>
<path d="M83.5069 55.7567C83.3641 55.7571 83.223 55.7258 83.0939 55.6648C83.0073 55.6335 82.929 55.5827 82.8652 55.5163C82.8014 55.4499 82.7537 55.3697 82.7258 55.2819C82.698 55.1941 82.6907 55.101 82.7046 55.0099C82.7185 54.9189 82.7532 54.8322 82.8059 54.7567L85.7439 50.7088C85.8774 50.5511 86.0595 50.4424 86.2616 50.3998C86.4637 50.3572 86.6742 50.3833 86.8599 50.4738C86.9465 50.5051 87.0248 50.5558 87.0887 50.6222C87.1525 50.6886 87.2002 50.7689 87.228 50.8567C87.2559 50.9445 87.2631 51.0375 87.2492 51.1286C87.2354 51.2196 87.2007 51.3062 87.1479 51.3817L84.2099 55.4297C84.1262 55.5351 84.0191 55.6195 83.8971 55.6763C83.775 55.7331 83.6415 55.7606 83.5069 55.7567V55.7567Z" fill="white"/>
<path d="M86.5649 55.7568C86.4217 55.7571 86.2802 55.7253 86.1509 55.6638C86.0645 55.6323 85.9864 55.5813 85.9228 55.5148C85.8592 55.4483 85.8117 55.3681 85.7841 55.2803C85.7564 55.1926 85.7493 55.0996 85.7634 55.0086C85.7774 54.9177 85.8121 54.8312 85.8649 54.7558L88.8049 50.7078C88.938 50.5496 89.1203 50.4406 89.3227 50.3984C89.525 50.3561 89.7357 50.3831 89.921 50.4748C90.0074 50.5063 90.0855 50.5572 90.1491 50.6237C90.2127 50.6902 90.2602 50.7706 90.2878 50.8583C90.3155 50.9461 90.3225 51.039 90.3085 51.13C90.2945 51.2209 90.2598 51.3074 90.207 51.3828L87.2679 55.4309C87.1841 55.536 87.0769 55.6201 86.9549 55.6767C86.8329 55.7333 86.6994 55.7607 86.5649 55.7568Z" fill="white"/>
<path d="M89.9819 55.7568C89.8384 55.7572 89.6966 55.7254 89.5669 55.6638C89.4805 55.6323 89.4024 55.5813 89.3388 55.5148C89.2752 55.4483 89.2277 55.3681 89.2001 55.2803C89.1724 55.1926 89.1654 55.0996 89.1794 55.0086C89.1934 54.9177 89.2281 54.8312 89.2809 54.7558L92.2209 50.7078C92.354 50.5496 92.5363 50.4406 92.7386 50.3984C92.941 50.3561 93.1517 50.3831 93.337 50.4748C93.4234 50.5063 93.5014 50.5572 93.5651 50.6237C93.6287 50.6902 93.6761 50.7706 93.7038 50.8583C93.7314 50.9461 93.7386 51.039 93.7245 51.13C93.7105 51.2209 93.6757 51.3074 93.6229 51.3828L90.684 55.4309C90.6002 55.5359 90.4932 55.6199 90.3713 55.6765C90.2495 55.733 90.1162 55.7605 89.9819 55.7568V55.7568Z" fill="white"/>
<g filter="url(#filter2_d_2180_28338)">
<path d="M135.622 64.53C135.983 60.0924 137.415 55.8087 139.797 52.0471C142.179 48.2854 145.438 45.1582 149.295 42.9343C153.152 40.7103 157.492 39.4562 161.94 39.2795C166.389 39.1028 170.814 40.0088 174.835 41.9199C178.857 43.8309 182.354 46.6898 185.026 50.2507C187.699 53.8116 189.467 57.9681 190.178 62.3631C190.89 66.7581 190.523 71.2601 189.111 75.4824C187.698 79.7046 185.282 83.5208 182.069 86.603C182.036 86.6432 181.999 86.6806 181.96 86.7149C177.924 90.5577 172.815 93.0829 167.311 93.9553C161.807 94.8277 156.168 94.0061 151.142 91.5997C146.115 89.1932 141.939 85.3156 139.168 80.481C136.396 75.6465 135.159 70.0835 135.622 64.53V64.53Z" fill="#C8D3D9" stroke="#C8D3D9" stroke-width="0.5" stroke-linecap="round" stroke-linejoin="round"/>
</g>
<path d="M147.138 81.924C150.128 85.0642 153.983 87.2472 158.213 88.1969C162.444 89.1467 166.862 88.8207 170.907 87.2599C174.953 85.6992 178.445 82.9739 180.942 79.4286C183.438 75.8834 184.828 71.6773 184.934 67.3424C185.041 63.0076 183.859 58.7385 181.54 55.075C179.22 51.4115 175.866 48.5182 171.902 46.7608C167.938 45.0034 163.541 44.4609 159.269 45.2019C154.997 45.943 151.04 47.9343 147.899 50.924C145.813 52.9092 144.139 55.2859 142.971 57.9184C141.804 60.5509 141.167 63.3875 141.096 66.2663C141.026 69.1451 141.523 72.0096 142.559 74.6962C143.596 77.3828 145.152 79.8388 147.138 81.924V81.924Z" fill="#F4F7FB" stroke="#C8D3D9" stroke-width="0.5" stroke-linecap="round" stroke-linejoin="round"/>
<g filter="url(#filter3_d_2180_28338)">
<path d="M207.339 113.974L207.954 113.385C209.55 111.855 209.603 109.322 208.074 107.726L191.852 90.7984C190.322 89.2027 187.789 89.1488 186.193 90.6781L185.578 91.2673C183.983 92.7966 183.929 95.3299 185.458 96.9256L201.681 113.854C203.21 115.449 205.743 115.503 207.339 113.974Z" fill="#C8D3D9" stroke="#C8D3D9" stroke-width="0.498623" stroke-linecap="round" stroke-linejoin="round"/>
</g>
<path d="M182.918 91.9228L187.122 87.9218C187.737 87.3369 187.761 86.3646 187.176 85.75C186.591 85.1354 185.619 85.1113 185.004 85.6962L180.8 89.6972C180.185 90.2821 180.161 91.2544 180.746 91.869C181.331 92.4836 182.303 92.5077 182.918 91.9228Z" fill="#C8D3D9" stroke="#C8D3D9" stroke-width="0.499724" stroke-linecap="round" stroke-linejoin="round"/>
<defs>
<filter id="filter0_d_2180_28338" x="5.15088" y="4.27539" width="211.69" height="211.69" filterUnits="userSpaceOnUse" color-interpolation-filters="sRGB">
<feFlood flood-opacity="0" result="BackgroundImageFix"/>
<feColorMatrix in="SourceAlpha" type="matrix" values="0 0 0 0 0 0 0 0 0 0 0 0 0 0 0 0 0 0 127 0" result="hardAlpha"/>
<feOffset dy="5"/>
<feGaussianBlur stdDeviation="3"/>
<feColorMatrix type="matrix" values="0 0 0 0 0.784314 0 0 0 0 0.827451 0 0 0 0 0.85098 0 0 0 0.302 0"/>
<feBlend mode="normal" in2="BackgroundImageFix" result="effect1_dropShadow_2180_28338"/>
<feBlend mode="normal" in="SourceGraphic" in2="effect1_dropShadow_2180_28338" result="shape"/>
</filter>
<filter id="filter1_d_2180_28338" x="13.4751" y="65.3867" width="172.007" height="135.329" filterUnits="userSpaceOnUse" color-interpolation-filters="sRGB">
<feFlood flood-opacity="0" result="BackgroundImageFix"/>
<feColorMatrix in="SourceAlpha" type="matrix" values="0 0 0 0 0 0 0 0 0 0 0 0 0 0 0 0 0 0 127 0" result="hardAlpha"/>
<feOffset dx="-2" dy="3"/>
<feGaussianBlur stdDeviation="3"/>
<feColorMatrix type="matrix" values="0 0 0 0 0.784314 0 0 0 0 0.827451 0 0 0 0 0.85098 0 0 0 0.502 0"/>
<feBlend mode="normal" in2="BackgroundImageFix" result="effect1_dropShadow_2180_28338"/>
<feBlend mode="normal" in="SourceGraphic" in2="effect1_dropShadow_2180_28338" result="shape"/>
</filter>
<filter id="filter2_d_2180_28338" x="129.277" y="36.0078" width="67.5045" height="67.5361" filterUnits="userSpaceOnUse" color-interpolation-filters="sRGB">
<feFlood flood-opacity="0" result="BackgroundImageFix"/>
<feColorMatrix in="SourceAlpha" type="matrix" values="0 0 0 0 0 0 0 0 0 0 0 0 0 0 0 0 0 0 127 0" result="hardAlpha"/>
<feOffset dy="3"/>
<feGaussianBlur stdDeviation="3"/>
<feColorMatrix type="matrix" values="0 0 0 0 0.784314 0 0 0 0 0.827451 0 0 0 0 0.85098 0 0 0 0.302 0"/>
<feBlend mode="normal" in2="BackgroundImageFix" result="effect1_dropShadow_2180_28338"/>
<feBlend mode="normal" in="SourceGraphic" in2="effect1_dropShadow_2180_28338" result="shape"/>
</filter>
<filter id="filter3_d_2180_28338" x="178.096" y="86.3159" width="37.34" height="38.02" filterUnits="userSpaceOnUse" color-interpolation-filters="sRGB">
<feFlood flood-opacity="0" result="BackgroundImageFix"/>
<feColorMatrix in="SourceAlpha" type="matrix" values="0 0 0 0 0 0 0 0 0 0 0 0 0 0 0 0 0 0 127 0" result="hardAlpha"/>
<feOffset dy="3"/>
<feGaussianBlur stdDeviation="3"/>
<feColorMatrix type="matrix" values="0 0 0 0 0.784314 0 0 0 0 0.827451 0 0 0 0 0.85098 0 0 0 0.302 0"/>
<feBlend mode="normal" in2="BackgroundImageFix" result="effect1_dropShadow_2180_28338"/>
<feBlend mode="normal" in="SourceGraphic" in2="effect1_dropShadow_2180_28338" result="shape"/>
</filter>
</defs>
</svg>
