<svg width="199" height="207" viewBox="0 0 199 207" fill="none" xmlns="http://www.w3.org/2000/svg">
<g filter="url(#filter0_d_2249_32364)">
<path d="M192.036 94.1247C192.009 118.127 182.704 141.19 166.067 158.492C149.43 175.793 126.749 185.994 102.766 186.961C78.7827 187.928 55.3541 179.586 37.3782 163.681C19.4023 147.775 8.27072 125.536 6.31081 101.614C4.3509 77.6911 11.7144 53.937 26.8617 35.3175C42.0091 16.698 63.7676 4.6546 87.5884 1.70521C111.409 -1.24418 135.448 5.12875 154.679 19.4916C173.91 33.8545 186.845 55.0955 190.778 78.7736C191.62 83.8472 192.041 88.9818 192.036 94.1247Z" fill="#F4F7FB"/>
</g>
<g filter="url(#filter1_d_2249_32364)">
<path d="M146.257 94.3617C149.994 94.3614 153.647 95.4692 156.755 97.5452C159.862 99.6212 162.284 102.572 163.715 106.025C165.145 109.477 165.519 113.277 164.791 116.942C164.062 120.607 162.262 123.974 159.62 126.617C156.977 129.26 153.611 131.059 149.945 131.788C146.28 132.518 142.481 132.144 139.028 130.714C135.575 129.283 132.624 126.862 130.548 123.754C128.472 120.647 127.363 116.994 127.363 113.257C127.369 108.247 129.361 103.445 132.903 99.9027C136.445 96.3605 141.248 94.3678 146.257 94.3617ZM146.257 92C142.053 92 137.943 93.2466 134.447 95.5823C130.951 97.918 128.227 101.238 126.618 105.122C125.009 109.006 124.588 113.28 125.408 117.404C126.229 121.527 128.253 125.315 131.226 128.287C134.199 131.26 137.987 133.285 142.11 134.105C146.233 134.925 150.507 134.504 154.391 132.895C158.276 131.287 161.595 128.562 163.931 125.066C166.267 121.571 167.514 117.461 167.514 113.257C167.514 110.465 166.964 107.701 165.896 105.122C164.828 102.543 163.262 100.199 161.288 98.2255C159.314 96.2516 156.971 94.6857 154.392 93.6175C151.813 92.5494 149.048 91.9998 146.257 92Z" fill="white"/>
</g>
<path d="M146.257 97.7737C149.318 97.7737 152.31 98.6814 154.855 100.382C157.4 102.083 159.384 104.499 160.555 107.327C161.727 110.155 162.033 113.267 161.436 116.269C160.839 119.272 159.365 122.029 157.201 124.193C155.036 126.358 152.279 127.832 149.276 128.429C146.274 129.026 143.163 128.72 140.335 127.548C137.507 126.377 135.09 124.393 133.389 121.848C131.689 119.303 130.781 116.311 130.781 113.25C130.787 109.147 132.419 105.215 135.32 102.313C138.222 99.4124 142.155 97.7799 146.257 97.7737ZM146.257 96.5928C142.962 96.5928 139.74 97.5701 136.999 99.4011C134.259 101.232 132.123 103.835 130.862 106.879C129.601 109.924 129.271 113.275 129.914 116.507C130.557 119.739 132.144 122.709 134.474 125.039C136.805 127.369 139.774 128.956 143.006 129.599C146.239 130.242 149.589 129.912 152.634 128.651C155.679 127.39 158.281 125.254 160.112 122.514C161.943 119.774 162.921 116.552 162.921 113.256C162.921 111.068 162.49 108.901 161.652 106.879C160.815 104.858 159.587 103.021 158.04 101.474C156.493 99.9262 154.656 98.6986 152.634 97.8612C150.612 97.0238 148.446 96.5928 146.257 96.5928Z" fill="white"/>
<path d="M147.185 100.137V101.633C148.057 101.705 148.912 101.91 149.722 102.241C150.44 102.551 151.076 103.025 151.579 103.624C151.97 104.058 152.293 104.548 152.538 105.077C152.748 105.505 152.865 105.972 152.88 106.447C152.882 106.671 152.838 106.893 152.751 107.099C152.664 107.305 152.535 107.491 152.373 107.645C152.215 107.808 152.024 107.938 151.814 108.024C151.604 108.111 151.378 108.154 151.15 108.15C150.729 108.163 150.317 108.021 149.993 107.75C149.669 107.48 149.456 107.1 149.394 106.682C149.265 106.138 148.993 105.638 148.606 105.235C148.219 104.831 147.731 104.538 147.193 104.386V110.143C148.337 110.452 149.247 110.738 149.923 111C150.596 111.255 151.215 111.636 151.746 112.122C152.314 112.625 152.764 113.247 153.065 113.942C153.38 114.675 153.538 115.466 153.529 116.264C153.533 117.295 153.278 118.311 152.786 119.218C152.279 120.152 151.526 120.93 150.608 121.467C149.566 122.075 148.396 122.43 147.191 122.505V125.952C147.213 126.355 147.161 126.758 147.037 127.142C146.975 127.27 146.874 127.375 146.748 127.442C146.623 127.509 146.48 127.535 146.339 127.515C146.205 127.529 146.07 127.507 145.947 127.453C145.824 127.399 145.718 127.314 145.638 127.206C145.485 126.917 145.416 126.591 145.439 126.265V122.529C144.46 122.437 143.503 122.179 142.609 121.767C141.851 121.415 141.165 120.925 140.588 120.322C140.084 119.798 139.679 119.189 139.391 118.522C139.142 117.943 139.01 117.32 139.003 116.689C139.005 116.465 139.052 116.243 139.141 116.038C139.231 115.832 139.36 115.646 139.523 115.492C139.69 115.318 139.891 115.181 140.114 115.089C140.336 114.997 140.576 114.953 140.817 114.959C141.189 114.946 141.555 115.048 141.868 115.25C142.154 115.445 142.365 115.733 142.463 116.066C142.649 116.655 142.866 117.235 143.113 117.802C143.312 118.223 143.597 118.598 143.949 118.902C144.382 119.265 144.892 119.526 145.439 119.664V113.229C144.373 112.95 143.336 112.567 142.344 112.087C141.525 111.677 140.829 111.059 140.325 110.295C139.71 109.213 139.45 107.966 139.583 106.729C139.716 105.493 140.234 104.329 141.064 103.403C142.265 102.307 143.82 101.679 145.446 101.633V100.165C145.446 99.3895 145.737 99.0019 146.318 99.0029C146.9 99.004 147.189 99.3822 147.185 100.137ZM145.427 109.631V104.33C144.765 104.502 144.147 104.814 143.615 105.245C143.203 105.707 142.971 106.302 142.963 106.921C142.956 107.541 143.172 108.142 143.573 108.614C144.121 109.067 144.75 109.412 145.427 109.631ZM147.185 113.741V119.802C148.011 119.677 148.773 119.283 149.352 118.681C149.848 118.148 150.121 117.444 150.113 116.716C150.133 116.371 150.077 116.025 149.949 115.704C149.82 115.383 149.623 115.095 149.37 114.858C148.726 114.34 147.983 113.96 147.185 113.741Z" fill="white"/>
<g filter="url(#filter2_d_2249_32364)">
<path d="M89.395 11.3426C91.5748 11.3426 93.7056 11.973 95.518 13.1539C97.3304 14.3348 98.743 16.0133 99.5772 17.9771C100.411 19.9409 100.63 22.1017 100.204 24.1865C99.7791 26.2712 98.7294 28.1863 97.1881 29.6894C95.6468 31.1924 93.6831 32.2159 91.5452 32.6305C89.4073 33.0452 87.1913 32.8324 85.1775 32.0189C83.1637 31.2055 81.4425 29.8281 80.2315 28.0608C79.0205 26.2934 78.3742 24.2155 78.3742 22.0899C78.3764 19.2402 79.5382 16.5079 81.6045 14.4929C83.6709 12.4779 86.4728 11.3448 89.395 11.3426ZM89.395 10C86.9435 10 84.5472 10.7088 82.5088 12.037C80.4704 13.3651 78.8817 15.2528 77.9435 17.4615C77.0054 19.6701 76.7599 22.1005 77.2382 24.4452C77.7164 26.7899 78.897 28.9437 80.6305 30.6341C82.3639 32.3245 84.5724 33.4757 86.9769 33.9421C89.3813 34.4085 91.8735 34.1691 94.1385 33.2543C96.4034 32.3394 98.3393 30.7901 99.7013 28.8024C101.063 26.8147 101.79 24.4777 101.79 22.0871C101.79 20.4997 101.47 18.9279 100.847 17.4613C100.224 15.9947 99.3112 14.6623 98.1601 13.5398C97.0091 12.4174 95.6427 11.527 94.1388 10.9197C92.6349 10.3123 91.0228 9.99982 89.395 10Z" fill="white"/>
</g>
<path d="M89.3954 13.2839C91.1808 13.2839 92.9262 13.8002 94.4107 14.7675C95.8953 15.7348 97.0523 17.1096 97.7356 18.7182C98.4188 20.3268 98.5975 22.097 98.2492 23.8046C97.9009 25.5123 97.0412 27.0808 95.7787 28.312C94.5162 29.5431 92.9075 30.3816 91.1564 30.7212C89.4052 31.0609 87.5901 30.8865 85.9406 30.2202C84.291 29.5539 82.8812 28.4256 81.8892 26.978C80.8973 25.5303 80.3678 23.8283 80.3678 22.0872C80.3704 19.7532 81.3223 17.5154 83.0147 15.865C84.7071 14.2147 87.0019 13.2864 89.3954 13.2839ZM89.3954 12.6118C87.4736 12.6118 85.5949 13.1675 83.997 14.2087C82.3991 15.2499 81.1537 16.7298 80.4182 18.4611C79.6828 20.1925 79.4905 22.0976 79.8655 23.9356C80.2404 25.7737 81.1657 27.4619 82.5246 28.7871C83.8835 30.1122 85.6148 31.0147 87.4996 31.3804C89.3845 31.746 91.3381 31.5583 93.1136 30.8411C94.8891 30.124 96.4067 28.9095 97.4743 27.3513C98.542 25.7931 99.1119 23.9612 99.1119 22.0872C99.1119 19.5742 98.0881 17.1641 96.2659 15.3871C94.4437 13.6101 91.9724 12.6118 89.3954 12.6118Z" fill="white"/>
<path d="M89.9367 14.6264V15.4767C90.4448 15.5178 90.9434 15.6344 91.4154 15.8223C91.8326 15.9992 92.2019 16.2684 92.4939 16.6086C92.7212 16.8551 92.9092 17.1335 93.0518 17.4344C93.1744 17.6775 93.2425 17.9432 93.2514 18.2139C93.2523 18.341 93.2264 18.4668 93.1756 18.5838C93.1247 18.7008 93.0499 18.8065 92.9556 18.8942C92.8633 18.9871 92.7524 19.0605 92.6298 19.1099C92.5071 19.1593 92.3754 19.1835 92.2427 19.1811C91.9969 19.1887 91.7568 19.108 91.568 18.9543C91.3792 18.8005 91.2549 18.5844 91.2187 18.3471C91.1435 18.0377 90.9849 17.7536 90.7593 17.5239C90.5336 17.2943 90.249 17.1276 89.9352 17.0412V20.3143C90.602 20.4957 91.1328 20.6581 91.5271 20.8014C91.9199 20.9462 92.2806 21.1627 92.5901 21.4394C92.921 21.7255 93.1834 22.0789 93.3588 22.4747C93.5428 22.8903 93.6354 23.3389 93.6308 23.7916C93.6331 24.3783 93.4839 24.956 93.1969 25.4717C92.9011 26.0028 92.4623 26.4449 91.9275 26.7504C91.3198 27.096 90.6374 27.2983 89.9352 27.3409V29.2998C89.9475 29.5302 89.9159 29.7609 89.8419 29.98C89.8058 30.0529 89.7468 30.1127 89.6736 30.1509C89.6004 30.189 89.5167 30.2035 89.4345 30.1922C89.3569 30.2002 89.2785 30.1885 89.2069 30.1582C89.1352 30.1279 89.0728 30.0802 89.0257 30.0195C88.9366 29.8554 88.8964 29.6701 88.9099 29.4848V27.3598C88.3386 27.3077 87.7806 27.1614 87.2595 26.9272C86.8179 26.729 86.4182 26.4523 86.0807 26.111C85.7872 25.8136 85.5509 25.4671 85.3832 25.0881C85.2378 24.7587 85.161 24.4045 85.1572 24.046C85.1585 23.9186 85.1859 23.7928 85.2379 23.676C85.2899 23.5592 85.3655 23.4537 85.46 23.3658C85.5572 23.2668 85.6746 23.1887 85.8045 23.1365C85.9345 23.0842 86.0741 23.059 86.2146 23.0624C86.4313 23.0552 86.6452 23.1131 86.8271 23.2283C86.9945 23.339 87.1173 23.5031 87.1745 23.6923C87.2833 24.0277 87.4099 24.3573 87.554 24.6799C87.6699 24.9192 87.8357 25.1324 88.0408 25.3058C88.2933 25.5121 88.5904 25.66 88.9099 25.7384V22.0788C88.285 21.9208 87.6777 21.7035 87.0964 21.43C86.6191 21.1969 86.213 20.8454 85.919 20.411C85.5602 19.7962 85.4087 19.0869 85.4861 18.3835C85.5634 17.6801 85.8657 17.0183 86.35 16.4917C87.0503 15.8686 87.9568 15.5114 88.9044 15.485V14.651C88.9044 14.2102 89.0741 13.9897 89.4136 13.9897C89.7531 13.9897 89.9274 14.202 89.9367 14.6264ZM88.9114 20.0246V17.01C88.5255 17.108 88.1654 17.2851 87.8552 17.5296C87.6148 17.7923 87.48 18.1309 87.4756 18.483C87.4713 18.835 87.5977 19.1767 87.8315 19.445C88.149 19.7025 88.5134 19.8991 88.9058 20.0246H88.9114ZM89.9367 22.3618V25.8076C90.4154 25.7352 90.8564 25.5116 91.1922 25.1711C91.4816 24.8676 91.6406 24.4672 91.6359 24.0528C91.6479 23.8562 91.6153 23.6595 91.5406 23.4766C91.4658 23.2936 91.3507 23.129 91.2034 22.9943C90.8298 22.7014 90.3988 22.4861 89.9367 22.3618Z" fill="white"/>
<path d="M180.508 17.6191L168.634 60.9783C165.392 56.1339 162.151 51.2874 158.909 46.4387L128.505 80.1184L109.671 59.2968L80.292 91.5027L77.2178 88.094L109.7 52.0302L128.299 72.6506L155.172 42.8864C149.743 40.1158 144.309 37.3458 138.869 34.5764L180.508 17.6191Z" fill="#C8D3D9" stroke="#C8D3D9" stroke-width="3.023" stroke-linecap="round" stroke-linejoin="round"/>
<g filter="url(#filter3_d_2249_32364)">
<path d="M82.0316 197.399H45.7658C19.9069 197.399 3.64555 174.549 8.7126 150.894L18.4145 105.612C21.1301 92.9417 31.3639 82.8905 44.3488 77.7666C45.2213 78.5381 46.346 78.9637 47.5107 78.9628H80.2904C81.4551 78.9637 82.5799 78.5381 83.4524 77.7666C86.8567 79.1014 90.1034 80.8076 93.1337 82.8542C101.342 88.4197 107.393 96.3114 109.383 105.612L119.085 150.894C124.155 174.549 107.89 197.399 82.0316 197.399Z" fill="white" stroke="#F4F7FB" stroke-width="0.684" stroke-miterlimit="10"/>
</g>
<path d="M85.1052 73.943V74.148C85.0991 75.423 84.5899 76.644 83.6883 77.5456C82.7868 78.4472 81.5657 78.9564 80.2907 78.9626H47.511C46.2359 78.9564 45.0149 78.4472 44.1133 77.5456C43.2117 76.644 42.7024 75.423 42.6963 74.148V73.943C42.6998 72.782 43.1215 71.6612 43.884 70.7857C44.6466 69.9102 45.699 69.3388 46.8485 69.176C47.0679 69.1441 47.2893 69.1282 47.511 69.1284H80.2907C81.5664 69.1321 82.789 69.6406 83.6911 70.5427C84.5932 71.4448 85.1015 72.6672 85.1052 73.943Z" fill="white" stroke="#F4F7FB" stroke-width="0.644" stroke-miterlimit="10"/>
<path d="M83.9378 62.6532C82.124 65.6176 80.8318 67.724 79.8732 69.1289H47.5108C47.2892 69.1287 47.0677 69.1446 46.8484 69.1765C46.5121 68.9361 46.1869 68.6911 45.8702 68.4386C42.3831 65.6438 37.8816 60.1248 39.8277 55.6074C40.5554 53.9729 41.8886 52.6842 43.5468 52.0123C45.982 51.1096 47.9076 52.209 52.1176 52.8872C55.0168 53.368 57.9651 53.48 60.8924 53.2206C67.6168 52.3822 68.0659 48.2654 73.935 47.182C79.5843 46.1432 86.8509 48.8431 88.307 52.5378C88.6564 53.4126 88.812 54.6888 83.9378 62.6532Z" fill="white" stroke="#F4F7FB" stroke-width="0.644" stroke-miterlimit="10"/>
<path d="M64.4526 148.983C64.4675 149.333 64.5433 150.223 64.68 151.653C64.7713 152.745 64.8169 153.635 64.8169 154.323C64.8169 155.158 64.1492 155.576 62.8139 155.577C62.0183 155.577 61.5128 155.361 61.2973 154.929C61.1062 154.371 61.0304 153.779 61.0746 153.19V148.841C58.6431 148.748 56.2384 148.298 53.9375 147.506C50.6048 146.4 48.9385 145.025 48.9385 143.379C48.9677 142.626 49.1387 141.885 49.4425 141.196C49.8593 140.197 50.3228 139.698 50.8333 139.699C51.1687 139.699 51.525 140.062 51.902 140.79C52.3852 141.735 52.6606 142.247 52.7283 142.328C53.886 143.258 55.2352 143.922 56.6792 144.27C58.095 144.794 59.5722 145.134 61.0746 145.281V139.799C57.9686 139.386 54.9895 138.303 52.3436 136.624C49.3587 134.629 47.8662 132.08 47.8662 128.978C47.8662 121.939 52.269 118.022 61.0746 117.226C61.0647 117.078 61.0392 116.747 60.9982 116.235C60.9684 115.817 60.9535 115.479 60.9535 115.223C60.9535 114.01 61.493 113.403 62.5718 113.403C63.9599 113.403 64.6542 113.888 64.6548 114.86C64.6445 115.234 64.6106 115.608 64.5533 115.978C64.4971 116.343 64.4635 116.711 64.4526 117.08H65.5892C67.5649 117.121 69.5202 117.489 71.3755 118.17C74.1225 119.098 75.4963 120.187 75.4969 121.439C75.4036 122.329 75.0895 123.182 74.583 123.921C73.9328 125.051 73.3239 125.616 72.7562 125.615C72.3357 125.615 71.8416 125.251 71.2739 124.524C70.5026 123.54 70.0678 123.007 69.9696 122.926C68.3457 121.669 66.4577 120.798 64.448 120.377V126.805C68.5732 127.898 71.4547 128.977 73.0925 130.041C74.4004 130.846 75.471 131.983 76.1947 133.338C76.9184 134.692 77.2692 136.214 77.2112 137.749C77.2032 139.308 76.8257 140.843 76.1097 142.228C75.3938 143.613 74.3598 144.809 73.0925 145.718C70.6245 147.682 67.603 148.824 64.4526 148.983ZM61.0746 125.879V120.275C60.074 120.266 59.0783 120.416 58.1251 120.721C56.7873 121.139 56.1185 121.732 56.1185 122.501C56.1179 124.041 57.7699 125.169 61.0746 125.884V125.879ZM68.1744 143.476C68.186 143.046 68.0749 142.622 67.854 142.253C67.633 141.884 67.3114 141.586 66.927 141.393C66.1327 141.033 65.3036 140.755 64.4526 140.564V145.196C65.1976 145.168 65.9346 145.032 66.6401 144.791C67.663 144.444 68.1744 144.007 68.1744 143.481V143.476Z" fill="#C8D3D9"/>
<defs>
<filter id="filter0_d_2249_32364" x="0" y="0" width="198.036" height="198.037" filterUnits="userSpaceOnUse" color-interpolation-filters="sRGB">
<feFlood flood-opacity="0" result="BackgroundImageFix"/>
<feColorMatrix in="SourceAlpha" type="matrix" values="0 0 0 0 0 0 0 0 0 0 0 0 0 0 0 0 0 0 127 0" result="hardAlpha"/>
<feOffset dy="5"/>
<feGaussianBlur stdDeviation="3"/>
<feColorMatrix type="matrix" values="0 0 0 0 0.784314 0 0 0 0 0.827451 0 0 0 0 0.85098 0 0 0 0.302 0"/>
<feBlend mode="normal" in2="BackgroundImageFix" result="effect1_dropShadow_2249_32364"/>
<feBlend mode="normal" in="SourceGraphic" in2="effect1_dropShadow_2249_32364" result="shape"/>
</filter>
<filter id="filter1_d_2249_32364" x="119" y="89" width="54.5137" height="54.5137" filterUnits="userSpaceOnUse" color-interpolation-filters="sRGB">
<feFlood flood-opacity="0" result="BackgroundImageFix"/>
<feColorMatrix in="SourceAlpha" type="matrix" values="0 0 0 0 0 0 0 0 0 0 0 0 0 0 0 0 0 0 127 0" result="hardAlpha"/>
<feOffset dy="3"/>
<feGaussianBlur stdDeviation="3"/>
<feColorMatrix type="matrix" values="0 0 0 0 0.784314 0 0 0 0 0.827451 0 0 0 0 0.85098 0 0 0 1 0"/>
<feBlend mode="normal" in2="BackgroundImageFix" result="effect1_dropShadow_2249_32364"/>
<feBlend mode="normal" in="SourceGraphic" in2="effect1_dropShadow_2249_32364" result="shape"/>
</filter>
<filter id="filter2_d_2249_32364" x="71" y="7" width="36.79" height="36.1743" filterUnits="userSpaceOnUse" color-interpolation-filters="sRGB">
<feFlood flood-opacity="0" result="BackgroundImageFix"/>
<feColorMatrix in="SourceAlpha" type="matrix" values="0 0 0 0 0 0 0 0 0 0 0 0 0 0 0 0 0 0 127 0" result="hardAlpha"/>
<feOffset dy="3"/>
<feGaussianBlur stdDeviation="3"/>
<feColorMatrix type="matrix" values="0 0 0 0 0.784314 0 0 0 0 0.827451 0 0 0 0 0.85098 0 0 0 1 0"/>
<feBlend mode="normal" in2="BackgroundImageFix" result="effect1_dropShadow_2249_32364"/>
<feBlend mode="normal" in="SourceGraphic" in2="effect1_dropShadow_2249_32364" result="shape"/>
</filter>
<filter id="filter3_d_2249_32364" x="1.44727" y="74.3716" width="124.903" height="132.37" filterUnits="userSpaceOnUse" color-interpolation-filters="sRGB">
<feFlood flood-opacity="0" result="BackgroundImageFix"/>
<feColorMatrix in="SourceAlpha" type="matrix" values="0 0 0 0 0 0 0 0 0 0 0 0 0 0 0 0 0 0 127 0" result="hardAlpha"/>
<feOffset dy="3"/>
<feGaussianBlur stdDeviation="3"/>
<feColorMatrix type="matrix" values="0 0 0 0 0.784314 0 0 0 0 0.827451 0 0 0 0 0.85098 0 0 0 0.302 0"/>
<feBlend mode="normal" in2="BackgroundImageFix" result="effect1_dropShadow_2249_32364"/>
<feBlend mode="normal" in="SourceGraphic" in2="effect1_dropShadow_2249_32364" result="shape"/>
</filter>
</defs>
</svg>
