<svg width="24" height="24" viewBox="0 0 24 24" fill="none" xmlns="http://www.w3.org/2000/svg">
<path d="M15.4168 20.1391H8.59584C8.17143 20.1587 7.75433 20.0234 7.42214 19.7585C7.08994 19.4937 6.86525 19.1172 6.78984 18.6991L5.93685 9.08905C5.9258 8.98915 5.92848 8.88823 5.94484 8.78906L6.02483 8.3891H17.9868L18.0678 8.78906C18.0826 8.86851 18.0863 8.94963 18.0788 9.03009L17.2108 18.696C17.1424 19.1155 16.9214 19.4948 16.5902 19.7612C16.2591 20.0275 15.8412 20.1622 15.4168 20.1391ZM6.96083 9.38104L7.78484 18.6021C7.84029 18.7695 7.95039 18.9135 8.09746 19.0109C8.24453 19.1082 8.42004 19.1534 8.59584 19.1391H15.4168C15.5915 19.1557 15.7666 19.1114 15.9124 19.0137C16.0582 18.916 16.1657 18.771 16.2168 18.6031L17.0468 9.38104H6.96083Z" fill="#BF283A"/>
<path d="M17.916 9.38105H5.991C5.72842 9.38078 5.47666 9.27646 5.29089 9.09089C5.10513 8.90531 5.00053 8.65363 5 8.39106V7.65509C5.00212 7.16169 5.19988 6.68926 5.5499 6.3415C5.89991 5.99373 6.3736 5.79899 6.867 5.80005H17.149C17.6408 5.80058 18.1123 5.99623 18.4601 6.344C18.8079 6.69176 19.0035 7.16328 19.004 7.65509V8.29706C19.0039 8.43972 18.9756 8.58093 18.9208 8.71265C18.8661 8.84437 18.7859 8.96402 18.6848 9.0647C18.5838 9.16539 18.4638 9.24516 18.3319 9.29944C18.2 9.35373 18.0587 9.38144 17.916 9.38105ZM6.867 6.80005C6.63873 6.79872 6.41925 6.888 6.25671 7.04828C6.09418 7.20857 6.00185 7.42682 6 7.65509V8.39106L17.916 8.38105C17.9383 8.38105 17.9597 8.3722 17.9754 8.35645C17.9912 8.3407 18 8.31934 18 8.29706V7.65509C17.9997 7.42842 17.9096 7.21107 17.7493 7.05079C17.589 6.8905 17.3717 6.80032 17.145 6.80005H6.867Z" fill="#BF283A"/>
<path d="M15.0491 6.80005H8.95605V5.57605C8.95632 5.12128 9.13711 4.68521 9.45868 4.36365C9.78025 4.04208 10.2163 3.86135 10.6711 3.86108H13.3341C13.7888 3.86135 14.2249 4.04208 14.5464 4.36365C14.868 4.68521 15.0488 5.12128 15.0491 5.57605V6.80005ZM9.95605 5.80005H14.0491V5.57605C14.0465 5.38723 13.9703 5.2069 13.8368 5.07336C13.7033 4.93983 13.5229 4.86367 13.3341 4.86108H10.6711C10.4815 4.86135 10.2998 4.93677 10.1658 5.0708C10.0317 5.20483 9.95632 5.3865 9.95605 5.57605V5.80005Z" fill="#BF283A"/>
<path d="M9.22217 17.9091C9.08956 17.9091 8.96236 17.8564 8.86859 17.7626C8.77482 17.6689 8.72217 17.5417 8.72217 17.4091V11.149C8.72217 11.0164 8.77482 10.8893 8.86859 10.7955C8.96236 10.7018 9.08956 10.649 9.22217 10.649C9.35478 10.649 9.48195 10.7018 9.57571 10.7955C9.66948 10.8893 9.72217 11.0164 9.72217 11.149V17.4111C9.72164 17.5433 9.66872 17.67 9.57501 17.7633C9.4813 17.8566 9.35443 17.9091 9.22217 17.9091Z" fill="#BF283A"/>
<path d="M12.0054 17.9091C11.8728 17.9091 11.7456 17.8564 11.6518 17.7626C11.5581 17.6689 11.5054 17.5417 11.5054 17.4091V11.149C11.5054 11.0164 11.5581 10.8893 11.6518 10.7955C11.7456 10.7018 11.8728 10.649 12.0054 10.649C12.138 10.649 12.2651 10.7018 12.3589 10.7955C12.4527 10.8893 12.5054 11.0164 12.5054 11.149V17.4111C12.5048 17.5433 12.4519 17.67 12.3582 17.7633C12.2645 17.8566 12.1376 17.9091 12.0054 17.9091Z" fill="#BF283A"/>
<path d="M14.7881 17.9091C14.6555 17.9091 14.5283 17.8564 14.4345 17.7626C14.3408 17.6689 14.2881 17.5417 14.2881 17.4091V11.149C14.2881 11.0164 14.3408 10.8893 14.4345 10.7955C14.5283 10.7018 14.6555 10.649 14.7881 10.649C14.9207 10.649 15.0479 10.7018 15.1417 10.7955C15.2354 10.8893 15.2881 11.0164 15.2881 11.149V17.4111C15.2876 17.5433 15.2346 17.67 15.1409 17.7633C15.0472 17.8566 14.9203 17.9091 14.7881 17.9091Z" fill="#BF283A"/>
</svg>
