<svg width="101" height="110" viewBox="0 0 101 110" fill="none" xmlns="http://www.w3.org/2000/svg">
<path d="M100.724 47.4161C100.71 59.6375 95.9719 71.3804 87.501 80.1897C79.03 88.9991 67.4816 94.1929 55.2701 94.6853C43.0586 95.1777 31.1295 90.9305 21.9768 82.8318C12.824 74.7331 7.15618 63.4098 6.15826 51.2292C5.16033 39.0487 8.90958 26.9538 16.6221 17.4734C24.3347 7.99292 35.4134 1.86081 47.5422 0.359071C59.671 -1.14266 71.9107 2.10223 81.7026 9.41535C91.4944 16.7285 98.0803 27.5437 100.083 39.5998C100.512 42.1831 100.726 44.7975 100.724 47.4161Z" fill="#F4F7FB"/>
<g filter="url(#filter0_d_2374_380606)">
<path d="M77.4144 47.5367C79.3172 47.5366 81.1773 48.1006 82.7596 49.1577C84.3418 50.2147 85.575 51.7172 86.3033 53.4751C87.0316 55.2331 87.2222 57.1676 86.8511 59.0339C86.48 60.9002 85.5638 62.6145 84.2183 63.9601C82.8729 65.3057 81.1586 66.222 79.2923 66.5933C77.4261 66.9645 75.4916 66.7741 73.7336 66.0459C71.9756 65.3178 70.473 64.0846 69.4158 62.5025C68.3586 60.9204 67.7944 59.0603 67.7944 57.1575C67.7973 54.6069 68.8117 52.1616 70.6151 50.358C72.4186 48.5545 74.8638 47.5399 77.4144 47.5367ZM77.4144 46.3342C75.2737 46.3342 73.1811 46.9689 71.4012 48.1582C69.6213 49.3475 68.2341 51.0379 67.4149 53.0155C66.5957 54.9932 66.3814 57.1695 66.799 59.269C67.2166 61.3685 68.2475 63.297 69.7611 64.8106C71.2748 66.3243 73.2033 67.3552 75.3028 67.7728C77.4024 68.1904 79.5785 67.976 81.5562 67.1568C83.5339 66.3377 85.2242 64.9504 86.4135 63.1705C87.6028 61.3907 88.2376 59.2981 88.2376 57.1575C88.2377 55.7361 87.9578 54.3286 87.4139 53.0154C86.87 51.7023 86.0728 50.5091 85.0678 49.504C84.0627 48.499 82.8695 47.7017 81.5563 47.1578C80.2431 46.6139 78.8357 46.3341 77.4144 46.3342Z" fill="white"/>
</g>
<path d="M77.4143 49.2741C78.9728 49.2741 80.4963 49.7363 81.7922 50.6022C83.0881 51.4681 84.0981 52.6987 84.6945 54.1386C85.2909 55.5785 85.4469 57.163 85.1429 58.6916C84.8388 60.2201 84.0884 61.6242 82.9863 62.7262C81.8843 63.8283 80.4801 64.5788 78.9516 64.8829C77.423 65.1869 75.8386 65.0308 74.3987 64.4344C72.9588 63.838 71.7282 62.828 70.8623 61.5321C69.9964 60.2362 69.5343 58.7127 69.5343 57.1542C69.5374 55.0652 70.3685 53.0628 71.8457 51.5856C73.3228 50.1085 75.3254 49.2773 77.4143 49.2741ZM77.4143 48.6729C75.7362 48.6729 74.0958 49.1705 72.7005 50.1027C71.3053 51.035 70.2178 52.3602 69.5756 53.9105C68.9335 55.4608 68.7655 57.1667 69.0928 58.8126C69.4202 60.4584 70.2282 61.9702 71.4148 63.1568C72.6014 64.3434 74.1132 65.1514 75.759 65.4788C77.4049 65.8062 79.1108 65.6382 80.6611 64.996C82.2114 64.3538 83.5366 63.2664 84.4689 61.8711C85.4011 60.4758 85.8987 58.8355 85.8987 57.1574C85.8987 56.0432 85.6793 54.9399 85.2529 53.9105C84.8265 52.8811 84.2016 51.9458 83.4137 51.158C82.6259 50.3701 81.6905 49.7451 80.6611 49.3187C79.6317 48.8923 78.5285 48.6729 77.4143 48.6729Z" fill="white"/>
<path d="M77.8871 50.4775V51.2388C78.3309 51.2757 78.7664 51.3801 79.1786 51.5484C79.5444 51.7064 79.8683 51.9477 80.1243 52.253C80.3233 52.4737 80.488 52.7231 80.6128 52.9929C80.7196 53.2104 80.779 53.4481 80.7869 53.6903C80.7879 53.8042 80.7654 53.9171 80.721 54.022C80.6765 54.1269 80.611 54.2215 80.5285 54.3001C80.4479 54.3834 80.351 54.4492 80.2439 54.4934C80.1368 54.5376 80.0219 54.5593 79.906 54.557C79.6913 54.5638 79.4815 54.4915 79.3166 54.3538C79.1518 54.2161 79.0432 54.0225 79.0116 53.81C78.946 53.5329 78.8074 53.2785 78.6104 53.0729C78.4134 52.8673 78.1651 52.718 77.8911 52.6406V55.572C78.4737 55.7296 78.937 55.8752 79.2811 56.0086C79.624 56.1383 79.9391 56.3322 80.2094 56.5799C80.4983 56.8359 80.7274 57.1523 80.8807 57.5066C81.0413 57.8797 81.1219 58.2824 81.1172 58.6886C81.1194 59.2138 80.9893 59.7311 80.7389 60.1929C80.4807 60.6684 80.0972 61.0644 79.6301 61.3378C79.0993 61.6473 78.5035 61.8284 77.8902 61.8666V63.6215C77.9015 63.8267 77.8748 64.032 77.8114 64.2274C77.7798 64.2926 77.7285 64.3461 77.6646 64.3802C77.6008 64.4143 77.5278 64.4274 77.4561 64.4174C77.388 64.4244 77.3193 64.4135 77.2567 64.3859C77.1941 64.3582 77.1398 64.3148 77.0991 64.2598C77.0214 64.1126 76.9864 63.9466 76.9982 63.7806V61.8784C76.4993 61.8317 76.012 61.7005 75.557 61.4907C75.171 61.3116 74.822 61.062 74.5278 60.7547C74.2714 60.4883 74.0651 60.1779 73.9187 59.8383C73.7916 59.5435 73.7244 59.2264 73.7209 58.9053C73.722 58.7911 73.7459 58.6782 73.7914 58.5735C73.8368 58.4687 73.9029 58.3741 73.9857 58.2954C74.0706 58.2069 74.173 58.1371 74.2865 58.0904C74.3999 58.0437 74.5219 58.0212 74.6445 58.0243C74.8338 58.0177 75.0205 58.0694 75.1795 58.1724C75.3256 58.2716 75.4328 58.4184 75.4829 58.5877C75.5776 58.888 75.6881 59.1832 75.8139 59.4719C75.9152 59.6862 76.0601 59.877 76.2394 60.0321C76.4599 60.2169 76.7193 60.3495 76.9982 60.4199V57.1433C76.4552 57.0011 75.9274 56.8064 75.4222 56.5618C75.0053 56.3531 74.6507 56.0383 74.3939 55.6492C74.0808 55.0987 73.9487 54.4637 74.0163 53.834C74.0839 53.2043 74.3477 52.6117 74.7705 52.1402C75.3821 51.5822 76.1738 51.2624 77.0014 51.2388V50.4918C77.0014 50.0967 77.1495 49.8994 77.4458 49.8999C77.7421 49.9004 77.8892 50.093 77.8871 50.4775ZM76.992 55.3112V52.6122C76.6547 52.7 76.3401 52.8589 76.0692 53.078C75.8592 53.3132 75.7414 53.6164 75.7375 53.9317C75.7336 54.247 75.8439 54.5531 76.0479 54.7935C76.327 55.0242 76.6474 55.1999 76.992 55.3112ZM77.8871 57.4041V60.49C78.3076 60.4264 78.6954 60.2259 78.9904 59.9195C79.2431 59.6479 79.3819 59.2897 79.378 58.9187C79.3881 58.743 79.3595 58.5672 79.2941 58.4038C79.2288 58.2404 79.1283 58.0933 78.9998 57.973C78.6719 57.709 78.2931 57.5154 77.8871 57.4041Z" fill="white"/>
<g filter="url(#filter1_d_2374_380606)">
<path d="M48.4621 5.26615C49.572 5.26615 50.6569 5.5871 51.5797 6.18839C52.5025 6.78968 53.2218 7.64431 53.6465 8.64421C54.0712 9.64411 54.1824 10.7443 53.9659 11.8058C53.7493 12.8673 53.2149 13.8424 52.4301 14.6077C51.6453 15.373 50.6454 15.8941 49.5569 16.1053C48.4684 16.3164 47.34 16.208 46.3147 15.7939C45.2893 15.3797 44.4129 14.6784 43.7963 13.7785C43.1797 12.8786 42.8506 11.8206 42.8506 10.7383C42.8518 9.28734 43.4433 7.89615 44.4954 6.87016C45.5475 5.84417 46.9742 5.26725 48.4621 5.26615ZM48.4621 4.58252C47.2139 4.58252 45.9937 4.94342 44.9559 5.61967C43.918 6.29593 43.109 7.25709 42.6314 8.38167C42.1537 9.50624 42.0287 10.7437 42.2722 11.9375C42.5157 13.1314 43.1168 14.228 43.9995 15.0887C44.8821 15.9495 46.0066 16.5356 47.2308 16.7731C48.4551 17.0106 49.7241 16.8887 50.8773 16.4229C52.0305 15.957 53.0162 15.1682 53.7097 14.1561C54.4032 13.144 54.7733 11.9541 54.7733 10.7369C54.7734 9.92863 54.6102 9.12831 54.2931 8.38158C53.976 7.63485 53.5111 6.95641 52.925 6.3849C52.3389 5.81339 51.6432 5.36004 50.8775 5.05079C50.1117 4.74153 49.2909 4.58243 48.4621 4.58252Z" fill="white"/>
</g>
<path d="M48.4622 6.25455C49.3713 6.25455 50.2599 6.51744 51.0158 7.00996C51.7717 7.50249 52.3608 8.2025 52.7087 9.02153C53.0566 9.84057 53.1476 10.7419 52.9702 11.6114C52.7929 12.4809 52.3552 13.2795 51.7124 13.9064C51.0695 14.5332 50.2504 14.9601 49.3588 15.1331C48.4672 15.306 47.543 15.2172 46.7031 14.878C45.8632 14.5387 45.1454 13.9642 44.6403 13.2271C44.1352 12.49 43.8656 11.6234 43.8656 10.7369C43.8669 9.54851 44.3516 8.40911 45.2133 7.56879C46.0751 6.72847 47.2435 6.25583 48.4622 6.25455ZM48.4622 5.91235C47.4837 5.91235 46.5271 6.19531 45.7135 6.72544C44.8999 7.25556 44.2658 8.00908 43.8913 8.89064C43.5168 9.7722 43.4189 10.7422 43.6098 11.6781C43.8007 12.6139 44.2719 13.4736 44.9638 14.1483C45.6557 14.823 46.5372 15.2825 47.4969 15.4687C48.4566 15.6548 49.4513 15.5593 50.3554 15.1941C51.2594 14.829 52.0321 14.2106 52.5757 13.4172C53.1193 12.6238 53.4095 11.6911 53.4095 10.7369C53.4095 9.45737 52.8882 8.23021 51.9604 7.32544C51.0326 6.42067 49.7743 5.91235 48.4622 5.91235Z" fill="white"/>
<path d="M48.7378 6.9382V7.37112C48.9965 7.39205 49.2503 7.4514 49.4907 7.54708C49.7031 7.63715 49.8911 7.77423 50.0398 7.94745C50.1556 8.07294 50.2513 8.21471 50.3239 8.36794C50.3863 8.49169 50.421 8.627 50.4255 8.76484C50.426 8.82954 50.4128 8.89358 50.3869 8.95315C50.361 9.01271 50.3229 9.06654 50.2749 9.11118C50.2279 9.15853 50.1714 9.19587 50.109 9.22102C50.0465 9.24616 49.9795 9.25852 49.9119 9.25729C49.7867 9.26117 49.6645 9.22007 49.5684 9.14179C49.4722 9.06351 49.4089 8.95346 49.3905 8.83266C49.3522 8.67509 49.2715 8.53043 49.1566 8.41352C49.0417 8.29661 48.8968 8.21173 48.737 8.16771V9.8343C49.0765 9.92665 49.3468 10.0093 49.5476 10.0823C49.7475 10.156 49.9312 10.2663 50.0888 10.4072C50.2573 10.5528 50.3909 10.7327 50.4802 10.9343C50.5739 11.1459 50.621 11.3743 50.6187 11.6048C50.6199 11.9035 50.5439 12.1977 50.3977 12.4602C50.2472 12.7307 50.0237 12.9558 49.7514 13.1113C49.442 13.2873 49.0945 13.3903 48.737 13.412V14.4094C48.7432 14.5267 48.7272 14.6442 48.6895 14.7557C48.6711 14.7928 48.6411 14.8233 48.6038 14.8428C48.5665 14.8622 48.5239 14.8695 48.4821 14.8638C48.4425 14.8679 48.4026 14.8619 48.3661 14.8465C48.3297 14.8311 48.2979 14.8068 48.2739 14.7759C48.2285 14.6923 48.2081 14.5979 48.2149 14.5036V13.4216C47.9241 13.3951 47.6399 13.3206 47.3746 13.2014C47.1498 13.1005 46.9462 12.9595 46.7744 12.7858C46.625 12.6343 46.5047 12.4579 46.4193 12.2649C46.3452 12.0972 46.3061 11.9169 46.3042 11.7343C46.3048 11.6695 46.3188 11.6054 46.3453 11.5459C46.3718 11.4865 46.4102 11.4327 46.4584 11.388C46.5079 11.3376 46.5676 11.2978 46.6338 11.2712C46.7 11.2446 46.771 11.2318 46.8426 11.2335C46.9529 11.2299 47.0619 11.2593 47.1545 11.318C47.2397 11.3744 47.3022 11.4579 47.3314 11.5542C47.3867 11.725 47.4512 11.8929 47.5245 12.0571C47.5836 12.1789 47.668 12.2875 47.7724 12.3758C47.901 12.4808 48.0522 12.5561 48.2149 12.596V10.7327C47.8968 10.6522 47.5876 10.5416 47.2916 10.4023C47.0485 10.2837 46.8418 10.1047 46.692 9.88351C46.5094 9.57045 46.4322 9.2093 46.4716 8.85117C46.511 8.49304 46.6649 8.15608 46.9115 7.88792C47.2681 7.57068 47.7297 7.3888 48.2121 7.37535V6.95071C48.2121 6.72629 48.2986 6.61401 48.4714 6.61401C48.6443 6.61401 48.733 6.72208 48.7378 6.9382ZM48.2157 9.68675V8.15182C48.0192 8.20175 47.8358 8.29193 47.6779 8.41639C47.5555 8.55015 47.4869 8.72256 47.4847 8.90182C47.4824 9.08108 47.5468 9.25505 47.6659 9.39165C47.8275 9.52274 48.0131 9.62288 48.2128 9.68675H48.2157ZM48.7378 10.8768V12.6313C48.9815 12.5944 49.206 12.4806 49.377 12.3072C49.5244 12.1527 49.6053 11.9488 49.603 11.7378C49.6091 11.6377 49.5925 11.5375 49.5544 11.4444C49.5163 11.3513 49.4577 11.2674 49.3827 11.1988C49.1925 11.0497 48.9731 10.9401 48.7378 10.8768Z" fill="white"/>
<path d="M94.8536 8.46191L88.808 30.539C87.1573 28.0724 85.5067 25.6047 83.8563 23.1359L68.3755 40.2845L58.7856 29.6829L43.827 46.0811L42.2617 44.3455L58.8007 25.9829L68.2706 36.4822L81.9537 21.3272C79.1892 19.9165 76.4222 18.5061 73.6526 17.096L94.8536 8.46191Z" fill="#C8D3D9" stroke="#C8D3D9" stroke-width="3.023" stroke-linecap="round" stroke-linejoin="round"/>
<g filter="url(#filter2_d_2374_380606)">
<path d="M44.7131 100H26.2477C13.0812 100 4.8014 88.3658 7.38138 76.3211L12.3213 53.265C13.704 46.8138 18.9147 41.6961 25.5262 39.0872C25.9704 39.48 26.5431 39.6967 27.1361 39.6962H43.8265C44.4195 39.6967 44.9922 39.48 45.4365 39.0872C47.1699 39.7668 48.823 40.6355 50.3659 41.6776C54.5454 44.5114 57.6263 48.5296 58.6395 53.265L63.5793 76.3211C66.1612 88.3658 57.8796 100 44.7131 100Z" fill="white" stroke="#F4F7FB" stroke-width="0.684" stroke-miterlimit="10"/>
</g>
<path d="M46.2779 37.1404V37.2448C46.2748 37.894 46.0156 38.5157 45.5565 38.9747C45.0975 39.4338 44.4757 39.6931 43.8265 39.6962H27.1361C26.4869 39.6931 25.8652 39.4338 25.4061 38.9747C24.9471 38.5157 24.6878 37.894 24.6847 37.2448V37.1404C24.6865 36.5492 24.9011 35.9786 25.2894 35.5328C25.6777 35.087 26.2135 34.7961 26.7988 34.7132C26.9105 34.6969 27.0233 34.6888 27.1361 34.689H43.8265C44.4761 34.6908 45.0986 34.9497 45.5579 35.4091C46.0172 35.8684 46.2761 36.4908 46.2779 37.1404Z" fill="white" stroke="#F4F7FB" stroke-width="0.644" stroke-miterlimit="10"/>
<path d="M45.6836 31.3919C44.76 32.9013 44.1021 33.9738 43.614 34.6891H27.1361C27.0233 34.689 26.9105 34.6971 26.7988 34.7133C26.6276 34.5909 26.462 34.4662 26.3007 34.3376C24.5252 32.9146 22.2332 30.1045 23.2241 27.8044C23.5946 26.9722 24.2734 26.316 25.1178 25.9739C26.3577 25.5142 27.3382 26.074 29.4817 26.4193C30.9579 26.6642 32.4591 26.7212 33.9496 26.5891C37.3734 26.1622 37.6021 24.0661 40.5905 23.5144C43.4669 22.9855 47.1668 24.3602 47.9083 26.2415C48.0861 26.6869 48.1654 27.3367 45.6836 31.3919Z" fill="white" stroke="#F4F7FB" stroke-width="0.644" stroke-miterlimit="10"/>
<path d="M35.7626 75.3483C35.7702 75.5266 35.8088 75.9798 35.8783 76.7077C35.9248 77.2637 35.9481 77.7168 35.9481 78.0672C35.9481 78.4925 35.6081 78.7053 34.9282 78.7056C34.5231 78.7056 34.2657 78.5958 34.156 78.376C34.0587 78.0915 34.0201 77.7902 34.0426 77.4904V75.2761C32.8045 75.2286 31.5802 74.9996 30.4086 74.5964C28.7117 74.0332 27.8633 73.3327 27.8633 72.495C27.8782 72.1116 27.9652 71.7344 28.1199 71.3832C28.3321 70.8747 28.5681 70.6206 28.8281 70.6209C28.9988 70.6209 29.1803 70.8062 29.3722 71.1768C29.6182 71.6578 29.7585 71.9187 29.7929 71.9595C30.3824 72.4334 31.0693 72.7712 31.8046 72.9485C32.5255 73.2152 33.2776 73.3883 34.0426 73.4632V70.6721C32.4611 70.4618 30.9443 69.9101 29.597 69.0555C28.0772 68.0394 27.3173 66.7418 27.3173 65.1626C27.3173 61.5784 29.5591 59.5838 34.0426 59.1787C34.0376 59.1031 34.0246 58.9348 34.0037 58.6739C33.9885 58.4614 33.9809 58.2892 33.9809 58.1588C33.9809 57.5412 34.2556 57.2322 34.8049 57.2319C35.5117 57.2319 35.8652 57.4792 35.8655 57.9738C35.8603 58.1644 35.843 58.3545 35.8138 58.543C35.7852 58.7288 35.7681 58.9162 35.7626 59.1041H36.3413C37.3473 59.125 38.3428 59.3126 39.2875 59.6591C40.6862 60.1316 41.3857 60.6864 41.386 61.3237C41.3385 61.777 41.1785 62.2114 40.9207 62.5873C40.5896 63.1628 40.2795 63.4505 39.9905 63.4502C39.7764 63.4502 39.5248 63.2649 39.2358 62.8942C38.843 62.3933 38.6216 62.1221 38.5717 62.0807C37.7448 61.4409 36.7835 60.9971 35.7602 60.7829V64.0559C37.8606 64.6125 39.3278 65.1618 40.1617 65.7038C40.8277 66.1134 41.3728 66.6926 41.7413 67.3821C42.1098 68.0717 42.2884 68.8468 42.2588 69.6281C42.2548 70.422 42.0625 71.2036 41.698 71.9089C41.3335 72.6142 40.807 73.2232 40.1617 73.6857C38.9051 74.686 37.3667 75.2674 35.7626 75.3483ZM34.0426 63.5844V60.7312C33.5331 60.7263 33.0261 60.8029 32.5408 60.9579C31.8597 61.1708 31.5191 61.4729 31.5191 61.8644C31.5188 62.6487 32.3599 63.2228 34.0426 63.5868V63.5844ZM37.6576 72.5444C37.6635 72.3255 37.6069 72.1094 37.4944 71.9216C37.3819 71.7337 37.2182 71.5818 37.0225 71.4837C36.618 71.3003 36.1959 71.1588 35.7626 71.0615V73.42C36.1419 73.4058 36.5171 73.3363 36.8764 73.2137C37.3972 73.0369 37.6576 72.8146 37.6576 72.5468V72.5444Z" fill="#C8D3D9"/>
<defs>
<filter id="filter0_d_2374_380606" x="60.591" y="43.3342" width="33.6466" height="33.6465" filterUnits="userSpaceOnUse" color-interpolation-filters="sRGB">
<feFlood flood-opacity="0" result="BackgroundImageFix"/>
<feColorMatrix in="SourceAlpha" type="matrix" values="0 0 0 0 0 0 0 0 0 0 0 0 0 0 0 0 0 0 127 0" result="hardAlpha"/>
<feOffset dy="3"/>
<feGaussianBlur stdDeviation="3"/>
<feColorMatrix type="matrix" values="0 0 0 0 0.784314 0 0 0 0 0.827451 0 0 0 0 0.85098 0 0 0 1 0"/>
<feBlend mode="normal" in2="BackgroundImageFix" result="effect1_dropShadow_2374_380606"/>
<feBlend mode="normal" in="SourceGraphic" in2="effect1_dropShadow_2374_380606" result="shape"/>
</filter>
<filter id="filter1_d_2374_380606" x="36.1509" y="1.58252" width="24.6224" height="24.3088" filterUnits="userSpaceOnUse" color-interpolation-filters="sRGB">
<feFlood flood-opacity="0" result="BackgroundImageFix"/>
<feColorMatrix in="SourceAlpha" type="matrix" values="0 0 0 0 0 0 0 0 0 0 0 0 0 0 0 0 0 0 127 0" result="hardAlpha"/>
<feOffset dy="3"/>
<feGaussianBlur stdDeviation="3"/>
<feColorMatrix type="matrix" values="0 0 0 0 0.784314 0 0 0 0 0.827451 0 0 0 0 0.85098 0 0 0 1 0"/>
<feBlend mode="normal" in2="BackgroundImageFix" result="effect1_dropShadow_2374_380606"/>
<feBlend mode="normal" in="SourceGraphic" in2="effect1_dropShadow_2374_380606" result="shape"/>
</filter>
<filter id="filter2_d_2374_380606" x="0.56942" y="35.6921" width="69.8224" height="73.6499" filterUnits="userSpaceOnUse" color-interpolation-filters="sRGB">
<feFlood flood-opacity="0" result="BackgroundImageFix"/>
<feColorMatrix in="SourceAlpha" type="matrix" values="0 0 0 0 0 0 0 0 0 0 0 0 0 0 0 0 0 0 127 0" result="hardAlpha"/>
<feOffset dy="3"/>
<feGaussianBlur stdDeviation="3"/>
<feColorMatrix type="matrix" values="0 0 0 0 0.784314 0 0 0 0 0.827451 0 0 0 0 0.85098 0 0 0 0.302 0"/>
<feBlend mode="normal" in2="BackgroundImageFix" result="effect1_dropShadow_2374_380606"/>
<feBlend mode="normal" in="SourceGraphic" in2="effect1_dropShadow_2374_380606" result="shape"/>
</filter>
</defs>
</svg>
