<svg width="109" height="110" viewBox="0 0 109 110" fill="none" xmlns="http://www.w3.org/2000/svg">
<path d="M107.426 52.2701C107.411 64.4994 102.669 76.2496 94.1923 85.0641C85.7152 93.8786 74.1589 99.075 61.9395 99.5669C49.7201 100.059 37.7835 95.8081 28.6253 87.7035C19.4671 79.599 13.7963 68.268 12.7985 56.0794C11.8007 43.8909 15.553 31.7884 23.2711 22.3022C30.9892 12.8161 42.0755 6.68062 54.2123 5.17857C66.349 3.67651 78.5965 6.92421 88.3944 14.2426C98.1922 21.561 104.782 32.3834 106.786 44.4475C107.214 47.0329 107.428 49.6494 107.426 52.2701Z" fill="#F4F7FB"/>
<path d="M45.2036 43.469H52.7181" stroke="#354752" stroke-width="1.439" stroke-miterlimit="10" stroke-linecap="round"/>
<path d="M45.2036 40.502H52.7181" stroke="#354752" stroke-width="1.439" stroke-miterlimit="10" stroke-linecap="round"/>
<path d="M48.2053 38.2947L46.8015 45.6772" stroke="#354752" stroke-width="1.439" stroke-miterlimit="10" stroke-linecap="round"/>
<path d="M51.1206 38.2947L49.7168 45.6772" stroke="#354752" stroke-width="1.439" stroke-miterlimit="10" stroke-linecap="round"/>
<path d="M33.3259 69.9651H53.3021" stroke="#354752" stroke-width="3.825" stroke-miterlimit="10" stroke-linecap="round"/>
<path d="M33.3259 62.0774H53.3021" stroke="#354752" stroke-width="3.825" stroke-miterlimit="10" stroke-linecap="round"/>
<path d="M41.3051 56.209L37.5737 75.8334" stroke="#354752" stroke-width="3.825" stroke-miterlimit="10" stroke-linecap="round"/>
<path d="M49.0536 56.209L45.3223 75.8334" stroke="#354752" stroke-width="3.825" stroke-miterlimit="10" stroke-linecap="round"/>
<g filter="url(#filter0_d_2374_381299)">
<path d="M98.5024 25.6577H22.7669C20.5711 25.6577 18.791 27.4378 18.791 29.6336V83.1162C18.791 85.312 20.5711 87.092 22.7669 87.092H98.5024C100.698 87.092 102.478 85.312 102.478 83.1162V29.6336C102.478 27.4378 100.698 25.6577 98.5024 25.6577Z" fill="white"/>
</g>
<path d="M102.474 32.8555H18.7898" stroke="#F4F7FB" stroke-width="1.043" stroke-linecap="round" stroke-linejoin="round"/>
<path d="M98.7623 29.9632C98.8201 30.0263 98.8513 30.1093 98.8495 30.1949C98.8476 30.2805 98.8127 30.3621 98.7522 30.4226C98.6917 30.4831 98.6101 30.518 98.5245 30.5198C98.4389 30.5217 98.3559 30.4905 98.2928 30.4327L97.2778 29.4173L96.2623 30.4327C96.1992 30.4905 96.1162 30.5217 96.0306 30.5198C95.945 30.518 95.8634 30.4831 95.8029 30.4226C95.7423 30.3621 95.7075 30.2805 95.7056 30.1949C95.7038 30.1093 95.735 30.0263 95.7928 29.9632L96.8083 28.9478L95.7928 27.9322C95.735 27.8691 95.7038 27.7861 95.7056 27.7006C95.7075 27.615 95.7423 27.5333 95.8029 27.4728C95.8634 27.4123 95.945 27.3774 96.0306 27.3756C96.1162 27.3737 96.1992 27.4049 96.2623 27.4627L97.2778 28.4782L98.2928 27.4627C98.3559 27.4049 98.4389 27.3737 98.5245 27.3756C98.6101 27.3774 98.6917 27.4123 98.7522 27.4728C98.8127 27.5333 98.8476 27.615 98.8495 27.7006C98.8513 27.7861 98.8201 27.8691 98.7623 27.9322L97.7468 28.9478L98.7623 29.9632Z" fill="#F4F7FB"/>
<path d="M91.5174 29.2415H87.881C87.8031 29.2415 87.7283 29.2105 87.6732 29.1554C87.6181 29.1003 87.5872 29.0257 87.5872 28.9477C87.5872 28.8698 87.6181 28.795 87.6732 28.7399C87.7283 28.6848 87.8031 28.6538 87.881 28.6538H91.5174C91.5954 28.6538 91.6701 28.6848 91.7252 28.7399C91.7803 28.795 91.8113 28.8698 91.8113 28.9477C91.8113 29.0257 91.7803 29.1003 91.7252 29.1554C91.6701 29.2105 91.5954 29.2415 91.5174 29.2415Z" fill="#F4F7FB"/>
<g filter="url(#filter1_d_2374_381299)">
<path d="M25.5815 82.6915L25.1416 82.2294C23.9993 81.0294 22.1005 80.9827 20.9005 82.125L8.1728 94.2412C6.97283 95.3835 6.92609 97.2823 8.06841 98.4823L8.50834 98.9444C9.65066 100.144 11.5495 100.191 12.7494 99.0488L25.4771 86.9326C26.6771 85.7903 26.7238 83.8915 25.5815 82.6915Z" fill="#C8D3D9" stroke="#C8D3D9" stroke-width="0.787" stroke-linecap="round" stroke-linejoin="round"/>
</g>
<g filter="url(#filter2_d_2374_381299)">
<path d="M29.1983 81.8007L26.2059 78.6573C25.7685 78.1977 25.0413 78.1798 24.5817 78.6173C24.1222 79.0548 24.1043 79.782 24.5417 80.2415L27.5341 83.3849C27.9716 83.8445 28.6988 83.8624 29.1583 83.4249C29.6179 82.9875 29.6358 82.2603 29.1983 81.8007Z" fill="#C8D3D9" stroke="#C8D3D9" stroke-width="0.787" stroke-linecap="round" stroke-linejoin="round"/>
</g>
<path d="M88.742 41.4221H59.6472C59.1187 41.4221 58.6902 41.8506 58.6902 42.3792V43.172C58.6902 43.7005 59.1187 44.129 59.6472 44.129H88.742C89.2706 44.129 89.699 43.7005 89.699 43.172V42.3792C89.699 41.8506 89.2706 41.4221 88.742 41.4221Z" fill="#F4F7FB"/>
<g filter="url(#filter3_d_2374_381299)">
<path d="M61.7256 56.2398C61.2608 55.2961 60.7211 54.3911 60.1115 53.5338C59.5317 52.7082 58.8906 51.9275 58.1936 51.1981C54.63 47.4641 49.7872 45.2142 44.6352 44.8991C39.4831 44.5839 34.4023 46.2268 30.4101 49.4987C26.418 52.7706 23.8093 57.4301 23.1066 62.5437C22.404 67.6573 23.6591 72.8475 26.6207 77.075C29.5824 81.3025 34.0318 84.255 39.0778 85.3413C44.1239 86.4275 49.3941 85.5672 53.8328 82.9327C58.2716 80.2983 61.5511 76.0842 63.0147 71.1344C64.4783 66.1845 64.0179 60.8646 61.7256 56.2398ZM59.4374 68.3264C58.6807 72.5094 56.3359 76.2377 52.8935 78.7314C49.451 81.2252 45.1776 82.2912 40.9672 81.7065C36.7568 81.1217 32.9356 78.9316 30.3029 75.5941C27.6703 72.2566 26.4302 68.0304 26.8421 63.7996C27.2539 59.5688 29.2858 55.6611 32.5127 52.894C35.7396 50.1269 39.9114 48.7149 44.1556 48.9531C48.3997 49.1914 52.3873 51.0615 55.2842 54.1724C58.181 57.2833 59.7628 61.3938 59.6985 65.6441C59.6856 66.5439 59.5983 67.4411 59.4374 68.3264Z" fill="#C8D3D9"/>
</g>
<path d="M89.6967 54.4879V55.2808C89.6968 55.5343 89.5965 55.7776 89.4177 55.9573C89.2388 56.137 88.9961 56.2386 88.7425 56.2397H61.7256C61.2609 55.296 60.7211 54.391 60.1116 53.5337H88.7425C88.9956 53.5337 89.2383 53.6343 89.4172 53.8132C89.5962 53.9922 89.6967 54.2348 89.6967 54.4879Z" fill="#F4F7FB"/>
<path d="M89.6967 66.5983V67.3911C89.6968 67.6447 89.5965 67.8879 89.4177 68.0676C89.2388 68.2474 88.996 68.349 88.7425 68.3501H63.6436C63.7725 67.4537 63.8422 66.5496 63.8524 65.644H88.7425C88.9956 65.644 89.2383 65.7446 89.4172 65.9236C89.5962 66.1025 89.6967 66.3452 89.6967 66.5983Z" fill="#F4F7FB"/>
<path d="M23.8177 27.8081C24.0802 27.8081 24.2929 27.5953 24.2929 27.3329C24.2929 27.0704 24.0802 26.8577 23.8177 26.8577C23.5553 26.8577 23.3425 27.0704 23.3425 27.3329C23.3425 27.5953 23.5553 27.8081 23.8177 27.8081Z" fill="#F4F7FB"/>
<path d="M23.8171 27.0161C23.8798 27.0161 23.941 27.0347 23.9931 27.0695C24.0451 27.1043 24.0857 27.1538 24.1097 27.2116C24.1336 27.2695 24.1399 27.3331 24.1277 27.3945C24.1155 27.4559 24.0853 27.5124 24.041 27.5567C23.9968 27.6009 23.9403 27.6311 23.8789 27.6434C23.8175 27.6556 23.7538 27.6492 23.696 27.6253C23.6381 27.6013 23.5887 27.5608 23.5539 27.5087C23.5191 27.4566 23.5005 27.3954 23.5005 27.3327C23.5006 27.2488 23.534 27.1683 23.5934 27.1089C23.6527 27.0496 23.7332 27.0162 23.8171 27.0161ZM23.8171 26.6995C23.6919 26.6996 23.5695 26.7368 23.4654 26.8064C23.3614 26.8761 23.2803 26.975 23.2324 27.0907C23.1845 27.2065 23.1721 27.3338 23.1966 27.4566C23.221 27.5795 23.2814 27.6922 23.37 27.7807C23.4586 27.8692 23.5714 27.9295 23.6942 27.9539C23.8171 27.9783 23.9444 27.9658 24.0601 27.9178C24.1758 27.8699 24.2746 27.7886 24.3442 27.6845C24.4138 27.5804 24.4509 27.458 24.4509 27.3327C24.4509 27.2495 24.4345 27.1671 24.4027 27.0903C24.3708 27.0134 24.3241 26.9436 24.2653 26.8848C24.2064 26.826 24.1365 26.7794 24.0596 26.7476C23.9827 26.7158 23.9003 26.6994 23.8171 26.6995Z" fill="#F4F7FB"/>
<path d="M23.8177 29.7165C24.0802 29.7165 24.2929 29.5038 24.2929 29.2413C24.2929 28.9789 24.0802 28.7661 23.8177 28.7661C23.5553 28.7661 23.3425 28.9789 23.3425 29.2413C23.3425 29.5038 23.5553 29.7165 23.8177 29.7165Z" fill="#F4F7FB"/>
<path d="M23.8171 28.9241C23.8797 28.9241 23.9409 28.9426 23.993 28.9774C24.0451 29.0121 24.0857 29.0615 24.1096 29.1194C24.1336 29.1772 24.1399 29.2408 24.1277 29.3022C24.1156 29.3637 24.0854 29.4201 24.0412 29.4644C23.997 29.5087 23.9406 29.5389 23.8792 29.5512C23.8178 29.5635 23.7542 29.5572 23.6963 29.5334C23.6384 29.5095 23.5889 29.469 23.5541 29.417C23.5192 29.365 23.5006 29.3038 23.5005 29.2412C23.5006 29.1572 23.534 29.0767 23.5933 29.0172C23.6527 28.9578 23.7332 28.9243 23.8171 28.9241ZM23.8171 28.6074C23.6919 28.6075 23.5696 28.6447 23.4655 28.7143C23.3614 28.7839 23.2803 28.8829 23.2324 28.9986C23.1846 29.1143 23.1721 29.2416 23.1965 29.3644C23.221 29.4872 23.2813 29.6 23.3698 29.6885C23.4583 29.7771 23.5711 29.8374 23.6939 29.8618C23.8168 29.8863 23.944 29.8738 24.0597 29.8259C24.1754 29.778 24.2744 29.6969 24.344 29.5928C24.4136 29.4887 24.4508 29.3664 24.4509 29.2412C24.451 29.1579 24.4346 29.0755 24.4028 28.9986C24.371 28.9217 24.3243 28.8517 24.2654 28.7929C24.2066 28.734 24.1367 28.6873 24.0597 28.6555C23.9828 28.6237 23.9004 28.6074 23.8171 28.6074Z" fill="#F4F7FB"/>
<path d="M23.8177 31.6245C24.0802 31.6245 24.2929 31.4117 24.2929 31.1493C24.2929 30.8868 24.0802 30.6741 23.8177 30.6741C23.5553 30.6741 23.3425 30.8868 23.3425 31.1493C23.3425 31.4117 23.5553 31.6245 23.8177 31.6245Z" fill="#F4F7FB"/>
<path d="M23.8171 30.8325C23.8798 30.8325 23.941 30.851 23.9931 30.8858C24.0451 30.9206 24.0857 30.9701 24.1097 31.0279C24.1336 31.0858 24.1399 31.1495 24.1277 31.2109C24.1155 31.2723 24.0853 31.3288 24.041 31.3731C23.9968 31.4174 23.9403 31.4474 23.8789 31.4596C23.8175 31.4719 23.7538 31.4656 23.696 31.4417C23.6381 31.4177 23.5887 31.3772 23.5539 31.3251C23.5191 31.273 23.5005 31.2118 23.5005 31.1491C23.5006 31.0652 23.534 30.9847 23.5934 30.9253C23.6527 30.866 23.7332 30.8326 23.8171 30.8325ZM23.8171 30.5159C23.6919 30.516 23.5695 30.5532 23.4654 30.6228C23.3614 30.6925 23.2803 30.7914 23.2324 30.9071C23.1845 31.0229 23.1721 31.1501 23.1966 31.2729C23.221 31.3957 23.2814 31.5086 23.37 31.5971C23.4586 31.6856 23.5714 31.7459 23.6942 31.7703C23.8171 31.7947 23.9444 31.7822 24.0601 31.7342C24.1758 31.6863 24.2746 31.605 24.3442 31.5009C24.4138 31.3968 24.4509 31.2744 24.4509 31.1491C24.4509 31.0659 24.4345 30.9836 24.4027 30.9067C24.3708 30.8298 24.3241 30.76 24.2653 30.7012C24.2064 30.6424 24.1365 30.5958 24.0596 30.564C23.9827 30.5322 23.9003 30.5158 23.8171 30.5159Z" fill="#F4F7FB"/>
<path d="M34.2136 69.2361H52.4081" stroke="#C8D3D9" stroke-width="3.643" stroke-miterlimit="10" stroke-linecap="round"/>
<path d="M34.2136 62.052H52.4081" stroke="#C8D3D9" stroke-width="3.643" stroke-miterlimit="10" stroke-linecap="round"/>
<path d="M41.4818 56.707L38.0833 74.5816" stroke="#C8D3D9" stroke-width="3.643" stroke-miterlimit="10" stroke-linecap="round"/>
<path d="M48.5392 56.707L45.1406 74.5815" stroke="#C8D3D9" stroke-width="3.643" stroke-miterlimit="10" stroke-linecap="round"/>
<path d="M49.0376 43.6746H56.3997" stroke="#F4F7FB" stroke-width="1.474" stroke-miterlimit="10" stroke-linecap="round"/>
<path d="M49.0376 40.7678H56.3997" stroke="#F4F7FB" stroke-width="1.474" stroke-miterlimit="10" stroke-linecap="round"/>
<path d="M51.9781 38.6052L50.6028 45.8377" stroke="#F4F7FB" stroke-width="1.474" stroke-miterlimit="10" stroke-linecap="round"/>
<path d="M54.834 38.6052L53.4587 45.8377" stroke="#F4F7FB" stroke-width="1.474" stroke-miterlimit="10" stroke-linecap="round"/>
<path d="M34.5759 7.27332C35.9752 7.27332 37.1095 6.13897 37.1095 4.73969C37.1095 3.3404 35.9752 2.20605 34.5759 2.20605C33.1766 2.20605 32.0422 3.3404 32.0422 4.73969C32.0422 6.13897 33.1766 7.27332 34.5759 7.27332Z" fill="#F4F7FB" stroke="#F4F7FB" stroke-width="1.043" stroke-miterlimit="10"/>
<path d="M88.9614 102C90.3607 102 91.495 100.866 91.495 99.4663C91.495 98.067 90.3607 96.9326 88.9614 96.9326C87.5621 96.9326 86.4277 98.067 86.4277 99.4663C86.4277 100.866 87.5621 102 88.9614 102Z" fill="#F4F7FB" stroke="#F4F7FB" stroke-width="1.043" stroke-miterlimit="10"/>
<path d="M23.5005 13.6622C26.721 13.6622 29.3316 11.0515 29.3316 7.83111C29.3316 4.61067 26.721 2 23.5005 2C20.2801 2 17.6694 4.61067 17.6694 7.83111C17.6694 11.0515 20.2801 13.6622 23.5005 13.6622Z" fill="#F4F7FB" stroke="#F4F7FB" stroke-width="2.4" stroke-miterlimit="10"/>
<defs>
<filter id="filter0_d_2374_381299" x="12.791" y="22.6577" width="95.6873" height="73.4343" filterUnits="userSpaceOnUse" color-interpolation-filters="sRGB">
<feFlood flood-opacity="0" result="BackgroundImageFix"/>
<feColorMatrix in="SourceAlpha" type="matrix" values="0 0 0 0 0 0 0 0 0 0 0 0 0 0 0 0 0 0 127 0" result="hardAlpha"/>
<feOffset dy="3"/>
<feGaussianBlur stdDeviation="3"/>
<feColorMatrix type="matrix" values="0 0 0 0 0.784314 0 0 0 0 0.827451 0 0 0 0 0.85098 0 0 0 0.502 0"/>
<feBlend mode="normal" in2="BackgroundImageFix" result="effect1_dropShadow_2374_381299"/>
<feBlend mode="normal" in="SourceGraphic" in2="effect1_dropShadow_2374_381299" result="shape"/>
</filter>
<filter id="filter1_d_2374_381299" x="0.8479" y="77.9043" width="31.9541" height="31.365" filterUnits="userSpaceOnUse" color-interpolation-filters="sRGB">
<feFlood flood-opacity="0" result="BackgroundImageFix"/>
<feColorMatrix in="SourceAlpha" type="matrix" values="0 0 0 0 0 0 0 0 0 0 0 0 0 0 0 0 0 0 127 0" result="hardAlpha"/>
<feOffset dy="3"/>
<feGaussianBlur stdDeviation="3"/>
<feColorMatrix type="matrix" values="0 0 0 0 0.784314 0 0 0 0 0.827451 0 0 0 0 0.85098 0 0 0 0.302 0"/>
<feBlend mode="normal" in2="BackgroundImageFix" result="effect1_dropShadow_2374_381299"/>
<feBlend mode="normal" in="SourceGraphic" in2="effect1_dropShadow_2374_381299" result="shape"/>
</filter>
<filter id="filter2_d_2374_381299" x="17.8315" y="74.907" width="18.0771" height="18.2283" filterUnits="userSpaceOnUse" color-interpolation-filters="sRGB">
<feFlood flood-opacity="0" result="BackgroundImageFix"/>
<feColorMatrix in="SourceAlpha" type="matrix" values="0 0 0 0 0 0 0 0 0 0 0 0 0 0 0 0 0 0 127 0" result="hardAlpha"/>
<feOffset dy="3"/>
<feGaussianBlur stdDeviation="3"/>
<feColorMatrix type="matrix" values="0 0 0 0 0.784314 0 0 0 0 0.827451 0 0 0 0 0.85098 0 0 0 0.302 0"/>
<feBlend mode="normal" in2="BackgroundImageFix" result="effect1_dropShadow_2374_381299"/>
<feBlend mode="normal" in="SourceGraphic" in2="effect1_dropShadow_2374_381299" result="shape"/>
</filter>
<filter id="filter3_d_2374_381299" x="16.916" y="41.8608" width="52.939" height="52.9387" filterUnits="userSpaceOnUse" color-interpolation-filters="sRGB">
<feFlood flood-opacity="0" result="BackgroundImageFix"/>
<feColorMatrix in="SourceAlpha" type="matrix" values="0 0 0 0 0 0 0 0 0 0 0 0 0 0 0 0 0 0 127 0" result="hardAlpha"/>
<feOffset dy="3"/>
<feGaussianBlur stdDeviation="3"/>
<feColorMatrix type="matrix" values="0 0 0 0 0.784314 0 0 0 0 0.827451 0 0 0 0 0.85098 0 0 0 0.302 0"/>
<feBlend mode="normal" in2="BackgroundImageFix" result="effect1_dropShadow_2374_381299"/>
<feBlend mode="normal" in="SourceGraphic" in2="effect1_dropShadow_2374_381299" result="shape"/>
</filter>
</defs>
</svg>
