<svg width="109" height="108" viewBox="0 0 109 108" fill="none" xmlns="http://www.w3.org/2000/svg">
<path d="M105 50.0578C104.985 62.9599 99.9832 75.3568 91.0403 84.6568C82.0974 93.9567 69.9057 99.4397 57.0141 99.9594C44.1224 100.479 31.5289 95.9954 21.8664 87.4455C12.2039 78.8956 6.22049 66.9415 5.16705 54.0825C4.11361 41.2235 8.07171 28.455 16.2139 18.4465C24.356 8.43806 36.0519 1.96444 48.8562 0.379072C61.6605 -1.2063 74.582 2.21925 84.9193 9.9397C95.2566 17.6601 102.209 29.0777 104.324 41.8053C104.776 44.5328 105.003 47.2931 105 50.0578Z" fill="#F4F7FB"/>
<path d="M99.3741 31.614H19.8613C17.8882 31.614 16.2886 33.2135 16.2886 35.1867V79.5294C16.2886 81.5026 17.8882 83.1021 19.8613 83.1021H99.3741C101.347 83.1021 102.947 81.5026 102.947 79.5294V35.1867C102.947 33.2135 101.347 31.614 99.3741 31.614Z" fill="#C8D3D9" stroke="#C8D3D9" stroke-width="4.286" stroke-miterlimit="10"/>
<g filter="url(#filter0_d_2374_381499)">
<path d="M65.8472 96.3821H54.2854C53.8866 96.3821 53.8028 95.6811 54.077 94.8922L55.8461 89.7775C55.9711 89.4137 56.2695 89.132 56.515 89.132H63.6205C63.8656 89.132 64.1623 89.4137 64.2873 89.7775L66.0564 94.8922C66.3302 95.6811 66.246 96.3821 65.8472 96.3821Z" fill="#C8D3D9" stroke="#C8D3D9" stroke-width="3.327" stroke-miterlimit="10"/>
</g>
<path d="M99.6972 34.021H19.5385C18.9507 34.021 18.4741 34.4976 18.4741 35.0854V74.4613C18.4741 75.0491 18.9507 75.5256 19.5385 75.5256H99.6972C100.285 75.5256 100.762 75.0491 100.762 74.4613V35.0854C100.762 34.4976 100.285 34.021 99.6972 34.021Z" fill="white" stroke="white" stroke-width="2.858" stroke-miterlimit="10"/>
<path d="M59.6178 81.5689C60.6149 81.5689 61.4232 80.7606 61.4232 79.7636C61.4232 78.7665 60.6149 77.9583 59.6178 77.9583C58.6208 77.9583 57.8125 78.7665 57.8125 79.7636C57.8125 80.7606 58.6208 81.5689 59.6178 81.5689Z" fill="#F4F7FB" stroke="#F4F7FB" stroke-width="2.858" stroke-miterlimit="10"/>
<g filter="url(#filter1_d_2374_381499)">
<path d="M88.6496 75.7524L98.1131 90.021L94.4832 92.3244L85.0335 78.0741C82.5238 81.0572 80.0143 84.0406 77.5049 87.0242L70.7407 52.6288L100.072 72.6743C96.2616 73.6987 92.4542 74.7247 88.6496 75.7524Z" fill="#F4F7FB" stroke="#F4F7FB" stroke-width="3.877" stroke-linecap="round" stroke-linejoin="round"/>
</g>
<g filter="url(#filter2_d_2374_381499)">
<path d="M10.516 61.1793H24.5146C25.2646 61.1793 25.9839 61.4772 26.5142 62.0076C27.0446 62.5379 27.3425 63.2572 27.3425 64.0072V93.7307C27.3428 94.1022 27.2698 94.4702 27.1278 94.8135C26.9858 95.1568 26.7776 95.4688 26.5149 95.7316C26.2523 95.9944 25.9405 96.2029 25.5972 96.3452C25.254 96.4874 24.8861 96.5606 24.5146 96.5606H10.516C10.1444 96.5606 9.77651 96.4874 9.43328 96.3452C9.09004 96.2029 8.7782 95.9944 8.51557 95.7316C8.25295 95.4688 8.04468 95.1568 7.90268 94.8135C7.76068 94.4702 7.68773 94.1022 7.68799 93.7307V64.0072C7.68799 63.2572 7.98593 62.5379 8.51628 62.0076C9.04663 61.4772 9.76593 61.1793 10.516 61.1793V61.1793Z" fill="white" stroke="#C8D3D9" stroke-width="2.353"/>
</g>
<path d="M22.8722 61.1812H12.597C11.6956 61.1812 11.2899 61.682 11.6575 62.2329C11.8936 62.5047 12.1863 62.7217 12.515 62.8688C12.8436 63.0158 13.2005 63.0893 13.5605 63.0842H21.9057C22.2657 63.0892 22.6225 63.0157 22.9512 62.8686C23.2799 62.7216 23.5725 62.5046 23.8087 62.2329C24.1778 61.683 23.7736 61.1812 22.8722 61.1812Z" fill="#C8D3D9" stroke="#C8D3D9" stroke-width="1.989" stroke-miterlimit="10"/>
<path d="M13.1805 62.635C13.4573 62.635 13.6818 62.4106 13.6818 62.1337C13.6818 61.8569 13.4573 61.6324 13.1805 61.6324C12.9036 61.6324 12.6792 61.8569 12.6792 62.1337C12.6792 62.4106 12.9036 62.635 13.1805 62.635Z" fill="#F4F7FB"/>
<path d="M12.8462 62.1343C12.8461 62.0681 12.8657 62.0033 12.9024 61.9482C12.9391 61.8931 12.9914 61.8502 13.0525 61.8248C13.1137 61.7995 13.181 61.7928 13.2459 61.8057C13.3109 61.8185 13.3705 61.8504 13.4173 61.8972C13.4641 61.944 13.496 62.0037 13.5089 62.0686C13.5218 62.1336 13.5151 62.2009 13.4898 62.2621C13.4644 62.3232 13.4214 62.3754 13.3663 62.4121C13.3112 62.4488 13.2465 62.4684 13.1803 62.4683C13.0917 62.4682 13.0069 62.4329 12.9442 62.3703C12.8816 62.3076 12.8464 62.2228 12.8462 62.1343ZM12.5117 62.1343C12.5117 62.2665 12.5509 62.3958 12.6244 62.5057C12.6979 62.6157 12.8023 62.7014 12.9244 62.752C13.0466 62.8026 13.181 62.8158 13.3107 62.79C13.4404 62.7642 13.5595 62.7005 13.653 62.607C13.7465 62.5135 13.8102 62.3943 13.836 62.2646C13.8618 62.1349 13.8485 62.0006 13.7979 61.8784C13.7473 61.7562 13.6617 61.6518 13.5517 61.5784C13.4418 61.5049 13.3125 61.4658 13.1803 61.4658C13.003 61.4658 12.8329 61.5361 12.7075 61.6615C12.5822 61.7869 12.5117 61.957 12.5117 62.1343Z" fill="#F4F7FB"/>
<path d="M15.1942 62.6351C15.471 62.6351 15.6955 62.4107 15.6955 62.1338C15.6955 61.8569 15.471 61.6325 15.1942 61.6325C14.9173 61.6325 14.6929 61.8569 14.6929 62.1338C14.6929 62.4107 14.9173 62.6351 15.1942 62.6351Z" fill="#F4F7FB"/>
<path d="M14.8594 62.1344C14.8594 62.0683 14.879 62.0037 14.9157 61.9488C14.9524 61.8938 15.0046 61.851 15.0656 61.8258C15.1267 61.8005 15.1938 61.7938 15.2586 61.8067C15.3234 61.8196 15.3829 61.8514 15.4296 61.8981C15.4764 61.9449 15.5082 62.0044 15.5211 62.0692C15.5339 62.134 15.5273 62.2011 15.5021 62.2621C15.4768 62.3232 15.434 62.3753 15.379 62.412C15.3241 62.4487 15.2595 62.4684 15.1935 62.4684C15.1049 62.4682 15.02 62.4329 14.9574 62.3703C14.8948 62.3077 14.8596 62.2229 14.8594 62.1344ZM14.5249 62.1344C14.5249 62.2666 14.5641 62.3959 14.6376 62.5058C14.711 62.6157 14.8154 62.7014 14.9376 62.752C15.0598 62.8026 15.1942 62.8159 15.3239 62.7901C15.4536 62.7643 15.5727 62.7005 15.6662 62.607C15.7597 62.5135 15.8234 62.3944 15.8492 62.2647C15.875 62.135 15.8617 62.0006 15.8111 61.8785C15.7605 61.7563 15.6748 61.6519 15.5649 61.5784C15.4549 61.505 15.3257 61.4658 15.1935 61.4658C15.0161 61.4658 14.8461 61.5362 14.7207 61.6616C14.5953 61.7869 14.5249 61.957 14.5249 62.1344Z" fill="#F4F7FB"/>
<path d="M19.8459 61.7998H16.9649C16.7801 61.7998 16.6304 61.9495 16.6304 62.1341C16.6304 62.3187 16.7801 62.4684 16.9649 62.4684H19.8459C20.0307 62.4684 20.1805 62.3187 20.1805 62.1341C20.1805 61.9495 20.0307 61.7998 19.8459 61.7998Z" fill="#F4F7FB"/>
<path d="M30.9607 50.1702C30.2189 50.1702 29.4937 50.3902 28.8769 50.8024C28.2601 51.2145 27.7794 51.8003 27.4955 52.4856C27.2116 53.171 27.1373 53.9251 27.282 54.6527C27.4268 55.3803 27.784 56.0486 28.3085 56.5731C28.8331 57.0977 29.5014 57.4548 30.229 57.5995C30.9565 57.7443 31.7107 57.6701 32.396 57.3862C33.0814 57.1023 33.6672 56.6215 34.0793 56.0047C34.4914 55.3879 34.7114 54.6628 34.7114 53.9209C34.7117 53.4283 34.6149 52.9404 34.4266 52.4852C34.2382 52.03 33.9619 51.6164 33.6136 51.2681C33.2652 50.9197 32.8516 50.6434 32.3964 50.455C31.9412 50.2666 31.4533 50.1699 30.9607 50.1702ZM31.9525 56.5423H29.973C29.7365 56.5421 29.5098 56.448 29.3426 56.2808C29.1754 56.1136 29.0814 55.8869 29.0812 55.6504C29.0815 55.3245 29.2111 55.012 29.4416 54.7815C29.6721 54.551 29.9846 54.4214 30.3106 54.421H31.615C31.7764 54.421 31.9363 54.4528 32.0855 54.5145C32.2347 54.5763 32.3702 54.6668 32.4844 54.781C32.5986 54.8952 32.6891 55.0308 32.7509 55.1799C32.8127 55.3291 32.8444 55.4889 32.8444 55.6504C32.8414 55.886 32.7464 56.1111 32.5798 56.2777C32.4132 56.4443 32.1881 56.5393 31.9525 56.5423ZM30.9607 51.2996C31.2042 51.3 31.4422 51.3726 31.6445 51.5083C31.8468 51.6439 32.0043 51.8366 32.0971 52.0618C32.19 52.2869 32.2139 52.5346 32.166 52.7734C32.1181 53.0122 32.0004 53.2314 31.8279 53.4034C31.6554 53.5753 31.4358 53.6922 31.1968 53.7393C30.9578 53.7864 30.7103 53.7616 30.4854 53.668C30.2605 53.5744 30.0685 53.4163 29.9335 53.2135C29.7985 53.0108 29.7267 52.7725 29.7271 52.529C29.7276 52.2022 29.8578 51.889 30.0891 51.6582C30.3204 51.4275 30.6339 51.298 30.9607 51.2984V51.2996Z" fill="#F4F7FB"/>
<path d="M30.9607 39.8475C30.2189 39.8475 29.4937 40.0675 28.8769 40.4797C28.2601 40.8918 27.7794 41.4776 27.4955 42.1629C27.2116 42.8483 27.1373 43.6024 27.282 44.33C27.4268 45.0576 27.784 45.7259 28.3085 46.2504C28.8331 46.775 29.5014 47.1322 30.229 47.2769C30.9565 47.4217 31.7107 47.3474 32.396 47.0635C33.0814 46.7796 33.6672 46.2989 34.0793 45.6821C34.4914 45.0653 34.7114 44.3401 34.7114 43.5983C34.7117 43.1056 34.6149 42.6177 34.4266 42.1625C34.2382 41.7073 33.9619 41.2937 33.6136 40.9454C33.2652 40.597 32.8516 40.3207 32.3964 40.1323C31.9412 39.9439 31.4533 39.8472 30.9607 39.8475ZM31.9525 46.2196H29.973C29.7365 46.2194 29.5098 46.1253 29.3426 45.9581C29.1754 45.7909 29.0814 45.5642 29.0812 45.3277C29.0815 45.0018 29.2111 44.6893 29.4416 44.4588C29.6721 44.2283 29.9846 44.0987 30.3106 44.0983H31.615C31.7764 44.0983 31.9363 44.1301 32.0855 44.1918C32.2347 44.2536 32.3702 44.3441 32.4844 44.4583C32.5986 44.5725 32.6891 44.7081 32.7509 44.8572C32.8127 45.0064 32.8444 45.1662 32.8444 45.3277C32.8413 45.5633 32.7463 45.7883 32.5797 45.9549C32.4131 46.1214 32.1881 46.2165 31.9525 46.2196ZM30.9607 40.9769C31.2042 40.9773 31.4422 41.0499 31.6445 41.1856C31.8468 41.3212 32.0043 41.5139 32.0971 41.7391C32.19 41.9643 32.2139 42.2119 32.166 42.4507C32.1181 42.6895 32.0004 42.9087 31.8279 43.0807C31.6554 43.2526 31.4358 43.3695 31.1968 43.4166C30.9578 43.4638 30.7103 43.4389 30.4854 43.3453C30.2605 43.2517 30.0685 43.0936 29.9335 42.8908C29.7985 42.6881 29.7267 42.4498 29.7271 42.2063C29.728 41.8798 29.8584 41.567 30.0896 41.3365C30.3209 41.106 30.6342 40.9767 30.9607 40.9769Z" fill="#F4F7FB"/>
<path d="M71.3806 41.7505H39.3669C38.5586 41.7505 37.9033 42.4725 37.9033 43.3631C37.9033 44.2538 38.5586 44.9758 39.3669 44.9758H71.3806C72.1889 44.9758 72.8442 44.2538 72.8442 43.3631C72.8442 42.4725 72.1889 41.7505 71.3806 41.7505Z" fill="#F4F7FB"/>
<path d="M64.0292 52.5015H39.7292C39.0174 52.5015 38.4404 53.0272 38.4404 53.6757V54.0151C38.4404 54.6636 39.0174 55.1893 39.7292 55.1893H64.0292C64.741 55.1893 65.318 54.6636 65.318 54.0151V53.6757C65.318 53.0272 64.741 52.5015 64.0292 52.5015Z" fill="#F4F7FB"/>
<path d="M80.4954 18.7909C80.6492 18.9447 80.7712 19.1273 80.8545 19.3283C80.9378 19.5292 80.9806 19.7446 80.9806 19.9621C80.9807 20.1796 80.9379 20.395 80.8547 20.596C80.7714 20.797 80.6494 20.9795 80.4957 21.1334C80.3419 21.2872 80.1593 21.4092 79.9583 21.4924C79.7574 21.5757 79.542 21.6186 79.3245 21.6186C79.1069 21.6186 78.8916 21.5758 78.6906 21.4926C78.4896 21.4093 78.307 21.2874 78.1532 21.1336L73.0877 16.0671L68.0222 21.1336C67.7105 21.4393 67.2907 21.6096 66.8542 21.6075C66.4176 21.6054 65.9995 21.4311 65.6908 21.1223C65.382 20.8136 65.2077 20.3956 65.2056 19.959C65.2035 19.5224 65.3738 19.1026 65.6795 18.7909L70.7455 13.7244L65.6795 8.65992C65.3738 8.34824 65.2035 7.92853 65.2056 7.49194C65.2077 7.05536 65.382 6.6372 65.6908 6.32848C65.9995 6.01977 66.4176 5.84545 66.8542 5.84334C67.2907 5.84123 67.7105 6.01152 68.0222 6.31724L73.0877 11.3837L78.1532 6.31724C78.306 6.15899 78.4888 6.03275 78.691 5.94592C78.8931 5.85909 79.1105 5.81346 79.3305 5.81156C79.5505 5.80965 79.7686 5.85148 79.9722 5.9348C80.1759 6.01811 80.3608 6.14124 80.5164 6.29682C80.6719 6.45239 80.7949 6.63739 80.8782 6.84101C80.9614 7.04464 81.0033 7.26279 81.0014 7.48277C80.9994 7.70276 80.9537 7.9201 80.8668 8.12221C80.7799 8.32432 80.6537 8.50713 80.4954 8.65992L75.4299 13.7269L80.4954 18.7909Z" fill="#C8D3D9"/>
<path d="M54.903 19.6089C56.0412 19.6089 56.9638 18.6863 56.9638 17.5481C56.9638 16.41 56.0412 15.4874 54.903 15.4874C53.7649 15.4874 52.8423 16.41 52.8423 17.5481C52.8423 18.6863 53.7649 19.6089 54.903 19.6089Z" stroke="white" stroke-width="1.307" stroke-miterlimit="10"/>
<path d="M35.0984 31.3928C35.0043 31.393 34.9114 31.3721 34.8264 31.3317C34.7694 31.3111 34.7178 31.2776 34.6758 31.2339C34.6337 31.1901 34.6023 31.1374 34.5839 31.0796C34.5656 31.0217 34.5608 30.9604 34.5699 30.9004C34.5791 30.8405 34.6019 30.7834 34.6366 30.7337L36.5717 28.068C36.6596 27.9641 36.7796 27.8925 36.9127 27.8645C37.0459 27.8365 37.1845 27.8537 37.3069 27.9133C37.364 27.9339 37.4156 27.9672 37.4577 28.011C37.4998 28.0547 37.5313 28.1076 37.5497 28.1655C37.568 28.2234 37.5728 28.2847 37.5636 28.3448C37.5544 28.4048 37.5315 28.4619 37.4967 28.5117L35.5616 31.1759C35.5065 31.2455 35.436 31.3014 35.3556 31.339C35.2752 31.3766 35.1871 31.3951 35.0984 31.3928Z" fill="white"/>
<path d="M37.1124 31.3927C37.0181 31.3929 36.925 31.3718 36.84 31.3311C36.7829 31.3105 36.7314 31.2771 36.6893 31.2333C36.6473 31.1895 36.616 31.1366 36.5978 31.0787C36.5796 31.0209 36.5749 30.9596 36.5843 30.8996C36.5936 30.8397 36.6167 30.7827 36.6517 30.7331L38.5872 28.0674C38.675 27.9633 38.7951 27.8916 38.9283 27.8638C39.0616 27.8361 39.2004 27.8538 39.3224 27.9142C39.3795 27.9348 39.431 27.9682 39.473 28.012C39.515 28.0558 39.5463 28.1087 39.5646 28.1666C39.5828 28.2244 39.5874 28.2857 39.5781 28.3457C39.5687 28.4056 39.5457 28.4625 39.5107 28.5121L37.5751 31.1758C37.5202 31.2455 37.4498 31.3014 37.3694 31.339C37.2891 31.3767 37.2011 31.3951 37.1124 31.3927Z" fill="white"/>
<path d="M39.3586 31.3927C39.2643 31.3929 39.1712 31.3718 39.0862 31.3311C39.0291 31.3105 38.9776 31.2769 38.9356 31.2332C38.8936 31.1894 38.8623 31.1366 38.844 31.0787C38.8257 31.0209 38.821 30.9597 38.8303 30.8998C38.8396 30.8398 38.8625 30.7827 38.8974 30.7331L40.8334 28.0674C40.9212 27.9633 41.0413 27.8916 41.1745 27.8638C41.3078 27.8361 41.4466 27.8538 41.5686 27.9142C41.6257 27.9348 41.6772 27.9682 41.7192 28.012C41.7612 28.0558 41.7926 28.1087 41.8108 28.1666C41.829 28.2244 41.8336 28.2857 41.8243 28.3457C41.8149 28.4056 41.7919 28.4625 41.7569 28.5121L39.8233 31.1758C39.7682 31.2458 39.6975 31.3018 39.6167 31.3394C39.536 31.3771 39.4476 31.3954 39.3586 31.3927Z" fill="white"/>
<defs>
<filter id="filter0_d_2374_381499" x="46.2534" y="84.4684" width="27.626" height="22.5771" filterUnits="userSpaceOnUse" color-interpolation-filters="sRGB">
<feFlood flood-opacity="0" result="BackgroundImageFix"/>
<feColorMatrix in="SourceAlpha" type="matrix" values="0 0 0 0 0 0 0 0 0 0 0 0 0 0 0 0 0 0 127 0" result="hardAlpha"/>
<feOffset dy="3"/>
<feGaussianBlur stdDeviation="3"/>
<feColorMatrix type="matrix" values="0 0 0 0 0.784314 0 0 0 0 0.827451 0 0 0 0 0.85098 0 0 0 0.302 0"/>
<feBlend mode="normal" in2="BackgroundImageFix" result="effect1_dropShadow_2374_381499"/>
<feBlend mode="normal" in="SourceGraphic" in2="effect1_dropShadow_2374_381499" result="shape"/>
</filter>
<filter id="filter1_d_2374_381499" x="62.8022" y="47.6903" width="45.208" height="55.5728" filterUnits="userSpaceOnUse" color-interpolation-filters="sRGB">
<feFlood flood-opacity="0" result="BackgroundImageFix"/>
<feColorMatrix in="SourceAlpha" type="matrix" values="0 0 0 0 0 0 0 0 0 0 0 0 0 0 0 0 0 0 127 0" result="hardAlpha"/>
<feOffset dy="3"/>
<feGaussianBlur stdDeviation="3"/>
<feColorMatrix type="matrix" values="0 0 0 0 0.784314 0 0 0 0 0.827451 0 0 0 0 0.85098 0 0 0 0.502 0"/>
<feBlend mode="normal" in2="BackgroundImageFix" result="effect1_dropShadow_2374_381499"/>
<feBlend mode="normal" in="SourceGraphic" in2="effect1_dropShadow_2374_381499" result="shape"/>
</filter>
<filter id="filter2_d_2374_381499" x="0.511719" y="57.0027" width="34.0073" height="49.7344" filterUnits="userSpaceOnUse" color-interpolation-filters="sRGB">
<feFlood flood-opacity="0" result="BackgroundImageFix"/>
<feColorMatrix in="SourceAlpha" type="matrix" values="0 0 0 0 0 0 0 0 0 0 0 0 0 0 0 0 0 0 127 0" result="hardAlpha"/>
<feOffset dy="3"/>
<feGaussianBlur stdDeviation="3"/>
<feColorMatrix type="matrix" values="0 0 0 0 0.784314 0 0 0 0 0.827451 0 0 0 0 0.85098 0 0 0 0.302 0"/>
<feBlend mode="normal" in2="BackgroundImageFix" result="effect1_dropShadow_2374_381499"/>
<feBlend mode="normal" in="SourceGraphic" in2="effect1_dropShadow_2374_381499" result="shape"/>
</filter>
</defs>
</svg>
