<svg width="129" height="112" viewBox="0 0 129 112" fill="none" xmlns="http://www.w3.org/2000/svg">
<g filter="url(#filter0_d_5104_113469)">
<path d="M115.987 51.0572C115.972 63.9594 110.971 76.3564 102.028 85.6564C93.0851 94.9564 80.8934 100.44 68.0018 100.959C55.1101 101.479 42.5166 96.9955 32.854 88.4457C23.1914 79.8958 17.2079 67.9418 16.1544 55.0828C15.1009 42.2237 19.0589 29.4552 27.2011 19.4466C35.3432 9.43813 47.0391 2.96446 59.8434 1.37907C72.6478 -0.206313 85.5694 3.21933 95.9066 10.9398C106.244 18.6603 113.197 30.0779 115.311 42.8056C115.764 45.5328 115.99 48.2927 115.987 51.0572Z" fill="white"/>
</g>
<path d="M124.595 50.2645C124.595 50.8697 124.416 51.4613 124.079 51.9644C123.743 52.4676 123.265 52.8598 122.706 53.0913C122.147 53.3229 121.532 53.3835 120.938 53.2655C120.345 53.1474 119.8 52.856 119.372 52.4281C118.944 52.0002 118.652 51.455 118.534 50.8615C118.416 50.2679 118.477 49.6527 118.708 49.0936C118.94 48.5346 119.332 48.0567 119.835 47.7205C120.339 47.3843 120.93 47.2048 121.535 47.2048C122.347 47.205 123.125 47.5274 123.699 48.1011C124.272 48.6749 124.595 49.4531 124.595 50.2645Z" fill="white"/>
<path d="M126.486 31.5082C127.346 32.3684 127.932 33.4644 128.169 34.6576C128.406 35.8507 128.285 37.0875 127.819 38.2114C127.354 39.3353 126.565 40.296 125.554 40.9719C124.542 41.6477 123.353 42.0085 122.136 42.0085C120.92 42.0085 119.731 41.6477 118.719 40.9719C117.708 40.296 116.919 39.3353 116.454 38.2114C115.988 37.0875 115.866 35.8507 116.104 34.6576C116.341 33.4644 116.927 32.3684 117.787 31.5082C118.358 30.937 119.036 30.4839 119.782 30.1748C120.529 29.8656 121.329 29.7065 122.136 29.7065C122.944 29.7065 123.744 29.8656 124.49 30.1748C125.237 30.4839 125.915 30.937 126.486 31.5082Z" fill="white"/>
<path d="M85.313 16.7243C85.4714 16.874 85.5981 17.0538 85.6858 17.2533C85.7734 17.4528 85.8202 17.6678 85.8232 17.8857C85.8263 18.1035 85.7857 18.3198 85.7038 18.5217C85.6218 18.7235 85.5002 18.9069 85.3462 19.061C85.1921 19.2151 85.0087 19.3367 84.8068 19.4186C84.6049 19.5006 84.3887 19.5412 84.1708 19.5381C83.9529 19.535 83.7379 19.4883 83.5384 19.4006C83.339 19.313 83.1591 19.1862 83.0095 19.0279L78.0253 14.0427L73.0401 19.0279C72.7309 19.3146 72.3227 19.4703 71.9011 19.4624C71.4795 19.4545 71.0773 19.2834 70.7792 18.9853C70.481 18.6871 70.31 18.285 70.302 17.8634C70.2941 17.4418 70.4499 17.0335 70.7366 16.7243L75.7208 11.7392L70.7366 6.75348C70.4499 6.4443 70.2941 6.03602 70.302 5.61442C70.31 5.19282 70.481 4.7907 70.7792 4.49253C71.0773 4.19436 71.4795 4.02334 71.9011 4.0154C72.3227 4.00746 72.7309 4.16321 73.0401 4.44994L78.0243 9.43511L83.0085 4.44994C83.3168 4.15863 83.7265 3.99903 84.1507 4.00505C84.5748 4.01106 84.9799 4.18222 85.2798 4.48215C85.5797 4.78209 85.7509 5.18715 85.7569 5.61128C85.7629 6.03541 85.6033 6.44516 85.312 6.75348L80.3278 11.7392L85.313 16.7243Z" fill="#F4F7FB"/>
<path d="M44.3019 66.3908C44.2429 66.3317 44.2163 66.2781 44.1572 66.219C44.79 68.2324 45.6163 70.1798 46.6245 72.0339C47.3475 73.3451 48.1727 74.5972 49.0923 75.7787C46.9747 72.9437 45.3548 69.7691 44.3019 66.3908Z" fill="white"/>
<path d="M40.1585 59.4978C40.0869 59.707 40.058 59.9283 40.0733 60.1488C40.5155 64.7929 41.8954 69.2989 44.1296 73.3942C44.9317 74.8233 45.8421 76.1889 46.8528 77.479C42.9266 72.2598 40.6011 66.0124 40.159 59.4963" fill="white"/>
<path d="M74.1076 23.0771C65.0846 23.0896 56.4348 26.6798 50.055 33.0605C43.6753 39.4412 40.0863 48.0915 40.0752 57.1145C40.0752 57.9082 40.1022 58.7019 40.1608 59.4962C40.6021 66.0116 42.9261 72.2587 46.8506 77.4783C47.2398 78.0196 47.6561 78.5407 48.098 79.0397C48.72 79.7748 49.3745 80.4884 50.056 81.1695C50.4261 81.5341 50.7907 81.9046 51.1878 82.2426C51.2126 82.2942 51.2543 82.3358 51.306 82.3603C51.6705 82.6718 52.0406 83.0113 52.4112 83.3208C52.4112 83.3208 52.4377 83.3529 52.4648 83.3529C57.9026 87.8546 64.6082 90.5496 71.649 91.063C78.6897 91.5763 85.7154 89.8826 91.7487 86.2173C91.7558 86.2081 91.7647 86.2005 91.7748 86.195C91.785 86.1895 91.7962 86.1861 91.8078 86.1852C99.2554 81.6242 104.681 74.3925 106.978 65.9666V65.9346C107.756 63.0597 108.148 60.0939 108.142 57.1155C108.131 48.0917 104.541 39.4408 98.1605 33.06C91.7797 26.6793 83.1288 23.0895 74.105 23.0781L74.1076 23.0771ZM52.8103 42.2832C53.4861 41.6148 54.2855 41.0843 55.1639 40.7213C56.4573 40.205 57.8733 40.0778 59.238 40.3553C60.6027 40.6328 61.8566 41.3028 62.8457 42.2832L64.2674 43.7259L65.7106 42.2832C66.3743 41.6212 67.1626 41.0974 68.03 40.7419C68.8973 40.3864 69.8265 40.2063 70.7639 40.212C71.9185 40.2187 73.0548 40.5002 74.079 41.0333C76.2472 39.0351 78.9919 37.7739 81.9203 37.4301C84.8488 37.0863 87.8109 37.6775 90.383 39.1192C92.9551 40.5608 95.0053 42.7791 96.2403 45.4565C97.4753 48.1339 97.8319 51.1333 97.259 54.0257C96.6861 56.9181 95.2131 59.5551 93.0507 61.5596C90.8883 63.5641 88.1474 64.8333 85.2199 65.1856C82.2925 65.538 79.3287 64.9554 76.7524 63.5213C74.1761 62.0871 72.1194 59.8749 70.8766 57.2011L66.6491 61.4281C66.34 61.7426 65.9714 61.9924 65.5648 62.1629C65.1581 62.3334 64.7216 62.4213 64.2807 62.4213C63.8397 62.4213 63.4032 62.3334 62.9966 62.1629C62.59 61.9924 62.2214 61.7426 61.9123 61.4281L56.5801 56.123L55.1639 54.7068L52.8103 52.3196C51.484 50.9862 50.7396 49.1821 50.7396 47.3014C50.7396 45.4208 51.484 43.6166 52.8103 42.2832ZM90.5333 83.6318C84.9259 87.1124 78.3579 88.7219 71.7766 88.2283C65.1953 87.7346 58.9409 85.1632 53.9155 80.8851C53.4403 80.5014 52.9855 80.0932 52.5529 79.6622C52.3276 79.4619 52.1022 79.2385 51.9019 79.0397C51.2363 78.3882 50.611 77.6967 50.0295 76.969C49.6865 76.5719 49.375 76.1753 49.0911 75.7782C48.1712 74.597 47.346 73.3451 46.6233 72.0339C45.6148 70.1799 44.7884 68.2324 44.1555 66.219C44.2146 66.2776 44.2416 66.3312 44.3002 66.3903C46.1979 68.7544 48.3676 70.8865 50.7646 72.7425C53.4037 74.7596 55.2761 75.4347 57.1485 75.0961C57.9943 74.9386 58.8025 74.6218 59.5301 74.1627C60.23 73.7014 60.9947 73.3469 61.7991 73.1111C62.8327 72.8243 63.9027 72.6905 64.975 72.714C67.271 72.6874 69.0037 73.4226 70.9026 74.3019C72.7665 75.2655 74.7797 75.9075 76.8573 76.2008C79.8669 76.5709 82.2215 75.9505 84.1475 75.4337C86.4435 74.8117 87.7205 74.5273 89.1417 75.4337C89.416 75.6171 89.6713 75.8274 89.9038 76.0616C88.6735 76.8249 87.3841 77.4885 86.0479 78.0462C85.8226 78.1323 85.5972 78.2465 85.3669 78.3306C83.2496 79.0095 81.0902 79.549 78.9024 79.9456C78.1357 80.0903 77.7386 80.1459 77.4001 80.6537C77.2841 80.8214 77.2061 81.0125 77.1715 81.2135C77.1369 81.4145 77.1465 81.6206 77.1998 81.8175C77.2485 82.0131 77.3396 82.1958 77.4665 82.3524C77.5934 82.5091 77.7532 82.6361 77.9344 82.7244C78.8413 83.1801 82.9827 82.3002 86.3889 80.9717C89.8758 79.8074 92.6546 78.3592 94.6987 76.5995C96.0659 75.4567 97.3198 74.1849 98.443 72.8016C98.9908 72.0831 99.4839 71.3245 99.9182 70.5321C100.286 69.8437 100.764 69.2204 101.334 68.6873C102.018 68.078 102.792 67.58 103.63 67.2115C101.284 74.0301 96.6573 79.8302 90.5303 83.6323" fill="#F4F7FB"/>
<path d="M93.0548 41.119C90.4877 38.711 87.1043 37.3637 83.5846 37.3478C80.0648 37.3319 76.6694 38.6486 74.0807 41.0334C73.0564 40.5008 71.92 40.2194 70.7656 40.2127C69.8282 40.2071 68.899 40.3873 68.0316 40.7429C67.1643 41.0984 66.376 41.6224 65.7123 42.2843L64.2691 43.7271L62.8474 42.2843C61.8582 41.3042 60.6042 40.6343 59.2396 40.3569C57.8749 40.0795 56.4589 40.2067 55.1656 40.7229C54.2872 41.086 53.4879 41.6163 52.8119 42.2843C51.4857 43.6177 50.7412 45.4219 50.7412 47.3026C50.7412 49.1832 51.4857 50.9874 52.8119 52.3208L55.1656 54.7079L56.5817 56.1246L61.9139 61.4298C62.2231 61.7441 62.5917 61.9937 62.9984 62.1641C63.405 62.3345 63.8415 62.4223 64.2823 62.4223C64.7232 62.4223 65.1597 62.3345 65.5663 62.1641C65.9729 61.9937 66.3416 61.7441 66.6507 61.4298L70.8782 57.2028C71.9956 59.6168 73.7803 61.6607 76.0217 63.0931C78.2632 64.5255 80.8677 65.2867 83.5277 65.2867C86.3286 65.2841 89.0641 64.4393 91.3788 62.8621C93.6935 61.285 95.4805 59.0483 96.5077 56.4425C97.535 53.8368 97.755 50.9823 97.1393 48.2499C96.5236 45.5175 95.1005 43.0333 93.0548 41.12V41.119ZM69.8001 53.8521L64.4674 59.1843C64.4094 59.2303 64.3403 59.26 64.2671 59.2705C64.208 59.2705 64.1544 59.2384 64.1544 59.2114L58.8222 53.8792L55.1636 50.1935L55.0459 50.0808C54.6722 49.7154 54.3767 49.2778 54.1775 48.7945C53.9783 48.3113 53.8795 47.7926 53.8871 47.27C53.8829 46.7566 53.9834 46.2478 54.1827 45.7746C54.3819 45.3015 54.6757 44.874 55.0459 44.5183C55.0779 44.4912 55.1045 44.4321 55.1636 44.4321C55.8713 43.7259 56.8299 43.3287 57.8297 43.3274C58.8689 43.3292 59.8662 43.7374 60.6084 44.4647L62.0246 45.9074L64.2671 48.1769L66.504 45.9665L67.9793 44.4642C68.3447 44.0993 68.779 43.8109 69.2571 43.6156C69.7351 43.4203 70.2472 43.3222 70.7636 43.3269C71.15 43.323 71.5337 43.391 71.8953 43.5273C72.5075 43.6911 73.065 44.0152 73.5103 44.4662C73.7685 44.7091 73.9812 44.9962 74.1383 45.314C74.5841 46.0617 74.7677 46.9369 74.6598 47.8007C74.552 48.6646 74.1589 49.4677 73.5428 50.0828L72.3785 51.2471L69.8001 53.8521ZM93.0548 57.028C91.9734 58.8395 90.3988 60.3058 88.5149 61.2555C86.631 62.2053 84.5157 62.5991 82.4162 62.3912C80.3167 62.1832 78.3198 61.3819 76.6589 60.0811C74.9979 58.7802 73.7415 57.0334 73.0366 55.045L75.7562 52.3198C76.9723 51.0759 77.6946 49.4323 77.7884 47.6952C77.8822 45.9582 77.3411 44.2463 76.266 42.8788C77.4931 41.8192 78.9375 41.0412 80.4975 40.5997C82.0575 40.1581 83.6953 40.0636 85.2957 40.3228C86.8961 40.5821 88.4203 41.1887 89.7612 42.1001C91.102 43.0116 92.2269 44.2057 93.0568 45.5984C94.0958 47.324 94.6448 49.3001 94.6448 51.3142C94.6448 53.3284 94.0958 55.3045 93.0568 57.03" fill="white"/>
<path d="M103.633 67.2116C101.286 74.0301 96.6593 79.8302 90.5324 83.6324C84.925 87.113 78.357 88.7226 71.7757 88.2289C65.1944 87.7352 58.94 85.1639 53.9146 80.8857C53.4397 80.5018 52.9849 80.0936 52.552 79.6628C52.3267 79.4625 52.1013 79.2386 51.901 79.0403C51.2355 78.3888 50.6104 77.6973 50.0291 76.9696C49.6856 76.5725 49.3746 76.1754 49.0902 75.7788C46.9724 72.9439 45.3525 69.7693 44.2998 66.3909C46.1973 68.7548 48.3669 70.8868 50.7637 72.7426C53.4033 74.7592 55.2752 75.4353 57.1476 75.0963C57.9936 74.9393 58.8019 74.6225 59.5292 74.1628C60.2292 73.7014 60.9941 73.3469 61.7987 73.1112C62.832 72.8239 63.9019 72.6901 64.9741 72.7141C67.2701 72.6871 69.0028 73.4222 70.9022 74.302C72.766 75.2655 74.779 75.9075 76.8564 76.201C79.866 76.571 82.2211 75.9506 84.1466 75.4338C86.4426 74.8113 87.7196 74.5274 89.1413 75.4338C89.4155 75.617 89.6706 75.8272 89.903 76.0612C88.6724 76.8244 87.383 77.4882 86.047 78.0463C85.8217 78.1319 85.5963 78.2466 85.3655 78.3307C83.2484 79.0094 81.0891 79.5488 78.9015 79.9452C78.1343 80.0904 77.7372 80.1455 77.3992 80.6533C77.2831 80.8211 77.205 81.0122 77.1704 81.2133C77.1358 81.4144 77.1456 81.6206 77.1989 81.8176C77.2477 82.0133 77.3388 82.1958 77.4658 82.3525C77.5928 82.5091 77.7527 82.6359 77.934 82.724C78.8404 83.1802 82.9818 82.3003 86.388 80.9713C89.8749 79.8075 92.6537 78.3588 94.6978 76.5996C96.0654 75.4571 97.3193 74.185 98.4421 72.8012C98.99 72.0829 99.4831 71.3245 99.9173 70.5322C100.285 69.8438 100.764 69.2204 101.334 68.6869C102.017 68.0776 102.791 67.5797 103.63 67.2116" fill="white"/>
<path d="M73.5433 50.0829L72.379 51.2472L69.7991 53.8542L64.4669 59.1864C64.4087 59.2319 64.3397 59.2615 64.2666 59.2721C64.2075 59.2721 64.1539 59.24 64.1539 59.2135L58.8217 53.8808L55.1646 50.1966L55.0469 50.0839C54.6732 49.7185 54.3777 49.2809 54.1785 48.7976C53.9793 48.3144 53.8805 47.7957 53.8881 47.2731C53.8836 46.7593 53.984 46.25 54.1833 45.7764C54.3825 45.3028 54.6764 44.8749 55.0469 44.5189C55.0789 44.4923 55.1055 44.4332 55.1646 44.4332C55.8723 43.727 56.8308 43.3296 57.8307 43.328C58.8698 43.3301 59.867 43.7382 60.6094 44.4653L62.0256 45.9085L64.2681 48.1775L66.505 45.9676L67.9803 44.4653C68.3457 44.1005 68.7801 43.8121 69.2581 43.6168C69.7361 43.4216 70.2482 43.3234 70.7646 43.328C71.1509 43.3244 71.5346 43.3923 71.8963 43.5283C72.5084 43.6924 73.0659 44.0165 73.5113 44.4673C73.7687 44.7101 73.9806 44.9968 74.1372 45.3141C74.5831 46.0618 74.7667 46.9369 74.6588 47.8008C74.551 48.6647 74.1579 49.4678 73.5418 50.0829" fill="#F4F7FB"/>
<path d="M93.0544 45.5984C92.2244 44.2057 91.0995 43.0117 89.7587 42.1003C88.4178 41.189 86.8937 40.5823 85.2933 40.3231C83.6929 40.0638 82.0552 40.1582 80.4952 40.5996C78.9352 41.0411 77.4908 41.8188 76.2636 42.8782C77.3386 44.2459 77.8796 45.9578 77.7859 47.6949C77.6921 49.432 76.9698 51.0757 75.7538 52.3197L73.0361 55.0449C73.7416 57.0332 74.9982 58.7796 76.6592 60.0803C78.3202 61.381 80.317 62.1822 82.4164 62.3903C84.5157 62.5985 86.631 62.205 88.5151 61.2558C90.3992 60.3066 91.9743 58.841 93.0564 57.03C94.0954 55.3044 94.6443 53.3284 94.6443 51.3142C94.6443 49.3 94.0954 47.3239 93.0564 45.5984H93.0544ZM87.8089 55.2167C87.4651 55.8262 86.9675 56.3349 86.3656 56.692C85.6883 57.1057 84.9167 57.34 84.1237 57.373V59.6425C84.1435 59.9121 84.1051 60.1828 84.011 60.4362C83.9574 60.5041 83.8897 60.5595 83.8124 60.5984C83.7352 60.6373 83.6503 60.6588 83.5639 60.6613C83.4774 60.6639 83.3915 60.6475 83.312 60.6133C83.2326 60.5791 83.1616 60.5279 83.1041 60.4633C82.9994 60.2829 82.9491 60.0761 82.9594 59.8678V57.4C82.3202 57.3339 81.6966 57.1616 81.1141 56.8903C80.615 56.6648 80.1634 56.3463 79.7835 55.9518C79.4462 55.6083 79.1769 55.2041 78.9898 54.7605C78.8228 54.3855 78.7351 53.9801 78.7324 53.5697C78.7307 53.4207 78.7603 53.273 78.8194 53.1363C78.8785 52.9995 78.9657 52.8767 79.0754 52.7759C79.1862 52.6648 79.3186 52.5775 79.4644 52.5194C79.6102 52.4612 79.7663 52.4335 79.9232 52.4379C80.1699 52.4285 80.4146 52.486 80.6313 52.6042C80.8116 52.7385 80.9418 52.9292 81.0014 53.146C81.1245 53.5305 81.2678 53.9083 81.4305 54.2777C81.5677 54.5593 81.7592 54.811 81.9939 55.0184C82.2693 55.2644 82.6008 55.4392 82.9594 55.5277V51.3007C82.2559 51.1087 81.5718 50.8519 80.9157 50.5335C80.3888 50.2638 79.9404 49.8628 79.6138 49.3692C79.2501 48.7732 79.0728 48.0821 79.1045 47.3846C79.0834 46.9142 79.1608 46.4445 79.3318 46.0057C79.5027 45.5668 79.7633 45.1685 80.097 44.8362C80.8774 44.1112 81.8964 43.6971 82.9614 43.6724V42.7069C82.9614 42.1972 83.1617 41.9398 83.5568 41.9398C83.9269 41.9398 84.1257 42.1972 84.1257 42.6799V43.6724C84.7009 43.7163 85.2657 43.8503 85.7993 44.0695C86.2629 44.2853 86.6774 44.5938 87.0171 44.9759C87.2723 45.2643 87.4821 45.5898 87.6391 45.9414C87.7766 46.2154 87.8552 46.5151 87.87 46.8213C87.8618 47.1198 87.7392 47.4038 87.5275 47.6144C87.3158 47.8251 87.0313 47.9463 86.7327 47.953C86.4536 47.9647 86.18 47.8725 85.9649 47.6941C85.7499 47.5158 85.6086 47.264 85.5684 46.9875C85.4895 46.6286 85.313 46.2984 85.0585 46.0333C84.8039 45.7683 84.4811 45.5786 84.1257 45.4852V49.2565C84.7326 49.4076 85.3293 49.5974 85.9119 49.8249C86.359 49.9967 86.7715 50.2474 87.1298 50.565C87.4948 50.8972 87.785 51.3031 87.9811 51.7559C88.1905 52.2383 88.2965 52.7593 88.2921 53.2852C88.2899 53.9585 88.1243 54.6211 87.8094 55.2162" fill="#F4F7FB"/>
<path d="M87.9798 51.7563C87.7838 51.3034 87.4936 50.8975 87.1284 50.5655C86.7703 50.2475 86.3577 49.9968 85.9106 49.8253C85.328 49.5976 84.7313 49.4076 84.1243 49.2565V45.4852C84.4798 45.5786 84.8026 45.7682 85.0573 46.0333C85.3119 46.2983 85.4885 46.6285 85.5675 46.9875C85.6075 47.264 85.7486 47.5158 85.9636 47.6942C86.1786 47.8725 86.4522 47.9648 86.7313 47.953C87.0299 47.9463 87.3145 47.825 87.5261 47.6144C87.7378 47.4037 87.8604 47.1197 87.8686 46.8212C87.8542 46.5151 87.7757 46.2153 87.6382 45.9414C87.4809 45.5898 87.271 45.2642 87.0158 44.9759C86.676 44.5936 86.2615 44.285 85.7979 44.069C85.2641 43.8502 84.6995 43.7162 84.1243 43.6719V42.6798C84.1243 42.1971 83.924 41.9392 83.5555 41.9392C83.1588 41.9392 82.96 42.1971 82.96 42.7064V43.6719C81.895 43.6967 80.876 44.1109 80.0956 44.8362C79.7618 45.1684 79.5012 45.5667 79.3302 46.0056C79.1593 46.4444 79.082 46.9141 79.1031 47.3846C79.0713 48.0821 79.2488 48.7733 79.6129 49.3691C79.9396 49.8627 80.388 50.2637 80.9149 50.5334C81.571 50.8516 82.2551 51.1084 82.9585 51.3006V55.5276C82.6 55.4388 82.2686 55.2638 81.993 55.0178C81.7585 54.8105 81.5671 54.559 81.4297 54.2777C81.2673 53.9081 81.124 53.5303 81.0005 53.1459C80.941 52.9291 80.8107 52.7385 80.6305 52.6041C80.4137 52.4859 80.1691 52.4285 79.9224 52.4379C79.7656 52.4335 79.6096 52.4611 79.4639 52.5192C79.3182 52.5772 79.1859 52.6644 79.075 52.7754C78.9652 52.8762 78.8778 52.999 78.8187 53.1359C78.7595 53.2727 78.7298 53.4205 78.7315 53.5696C78.7343 53.98 78.8219 54.3855 78.9889 54.7604C79.1762 55.2039 79.4457 55.6079 79.7831 55.9513C80.1628 56.346 80.6142 56.6646 81.1132 56.8902C81.6959 57.161 82.3195 57.3333 82.9585 57.4V59.8673C82.9481 60.0756 82.9985 60.2826 83.1038 60.4627C83.1611 60.5274 83.232 60.5787 83.3114 60.613C83.3908 60.6473 83.4767 60.6638 83.5632 60.6613C83.6496 60.6588 83.7344 60.6373 83.8117 60.5984C83.8889 60.5595 83.9567 60.5041 84.0101 60.4362C84.1043 60.1826 84.1427 59.9117 84.1228 59.6419V57.3729C84.9159 57.3395 85.6875 57.1052 86.3653 56.6919C86.9667 56.3346 87.4641 55.8259 87.808 55.2166C88.1232 54.6215 88.2889 53.9586 88.2907 53.2852C88.2951 52.7594 88.1891 52.2386 87.9798 51.7563ZM82.9585 48.9184C82.5199 48.7678 82.1087 48.5467 81.7412 48.2639C81.6033 48.1165 81.4969 47.9425 81.4287 47.7525C81.3604 47.5626 81.3316 47.3607 81.344 47.1592C81.327 46.955 81.3563 46.7496 81.4296 46.5582C81.503 46.3669 81.6185 46.1945 81.7677 46.054C82.1172 45.7662 82.5227 45.5542 82.9585 45.4316V48.9184ZM85.539 54.8731C85.1642 55.2728 84.665 55.5337 84.1228 55.6132V51.6116C84.6414 51.7566 85.1239 52.0088 85.539 52.3517C85.7106 52.5029 85.8455 52.6911 85.9338 52.9021C86.0222 53.113 86.0614 53.3413 86.0488 53.5696C86.0578 54.054 85.8745 54.5222 85.539 54.8716" fill="white"/>
<path d="M82.9581 45.4316V48.919C82.5194 48.768 82.1082 48.547 81.7402 48.2645C81.6025 48.1169 81.4964 47.9427 81.4282 47.7527C81.36 47.5627 81.3312 47.3608 81.3436 47.1593C81.3265 46.9551 81.3558 46.7498 81.4291 46.5585C81.5025 46.3672 81.6181 46.195 81.7673 46.0546C82.1165 45.7664 82.5221 45.5542 82.9581 45.4316Z" fill="#F4F7FB"/>
<path d="M86.048 53.5696C86.0571 54.054 85.8738 54.5222 85.5382 54.8716C85.1634 55.2713 84.6642 55.5322 84.1221 55.6118V51.6101C84.6406 51.7554 85.123 52.0075 85.5382 52.3502C85.7098 52.5015 85.8448 52.6896 85.9331 52.9006C86.0214 53.1115 86.0607 53.3398 86.048 53.5681" fill="#F4F7FB"/>
<path d="M40.2522 17.0249C38.6676 17.0255 37.1186 17.4961 35.8014 18.377C34.4841 19.258 33.4577 20.5097 32.8518 21.9741C32.246 23.4384 32.088 25.0494 32.3978 26.6035C32.7075 28.1577 33.4712 29.585 34.5922 30.7051C35.7132 31.8252 37.1412 32.5877 38.6956 32.8962C40.2499 33.2048 41.8609 33.0454 43.3247 32.4384C44.7885 31.8314 46.0394 30.8039 46.9193 29.4859C47.7992 28.1679 48.2685 26.6187 48.2678 25.034C48.2674 23.9818 48.0597 22.94 47.6567 21.968C47.2536 20.9961 46.6631 20.1131 45.9188 19.3694C45.1744 18.6256 44.2909 18.0358 43.3187 17.6336C42.3464 17.2313 41.3044 17.0245 40.2522 17.0249ZM40.2522 32.156C38.8436 32.156 37.4667 31.7383 36.2954 30.9557C35.1242 30.1732 34.2114 29.0608 33.6723 27.7595C33.1333 26.4581 32.9922 25.0261 33.267 23.6445C33.5418 22.263 34.2201 20.9939 35.2162 19.9979C36.2122 19.0019 37.4812 18.3236 38.8628 18.0487C40.2443 17.7739 41.6763 17.915 42.9777 18.454C44.2791 18.9931 45.3914 19.9059 46.174 21.0772C46.9566 22.2484 47.3743 23.6254 47.3743 25.034C47.3719 26.9221 46.6207 28.7322 45.2856 30.0674C43.9505 31.4025 42.1404 32.1536 40.2522 32.156Z" fill="#F4F7FB"/>
<path d="M40.2559 18.0261C38.8693 18.0261 37.5138 18.4373 36.3609 19.2077C35.208 19.978 34.3094 21.0729 33.7788 22.354C33.2482 23.635 33.1093 25.0447 33.3798 26.4046C33.6503 27.7646 34.3181 29.0138 35.2985 29.9943C36.279 30.9747 37.5282 31.6425 38.8882 31.913C40.2481 32.1835 41.6578 32.0447 42.9388 31.514C44.2199 30.9834 45.3148 30.0848 46.0851 28.9319C46.8555 27.779 47.2667 26.4235 47.2667 25.0369C47.2643 23.1783 46.5249 21.3964 45.2106 20.0822C43.8964 18.7679 42.1146 18.0285 40.2559 18.0261ZM40.2559 31.2259C39.0313 31.2284 37.8335 30.8676 36.814 30.1891C35.7945 29.5106 34.9993 28.5449 34.5289 27.4142C34.0585 26.2836 33.9341 25.0388 34.1714 23.8374C34.4088 22.636 34.9972 21.532 35.8622 20.6652C36.7273 19.7983 37.83 19.2076 39.0309 18.9678C40.2318 18.7279 41.4769 18.8497 42.6085 19.3178C43.7402 19.7858 44.7075 20.5791 45.3881 21.5971C46.0688 22.6152 46.4321 23.8123 46.4321 25.0369C46.4334 26.6765 45.7836 28.2496 44.6254 29.4102C43.4672 30.5707 41.8955 31.2239 40.2559 31.2259Z" fill="white"/>
<path d="M39.7545 21.5315V23.5346C39.4779 23.4516 39.2215 23.3186 38.9999 23.1431C38.9139 23.0622 38.8475 22.965 38.8053 22.8581C38.7631 22.7511 38.7461 22.6369 38.7554 22.5232C38.7464 22.404 38.7654 22.2843 38.8113 22.1727C38.8572 22.0611 38.9287 21.9603 39.0209 21.8773C39.2388 21.7183 39.4881 21.6008 39.7545 21.5315Z" fill="#F4F7FB"/>
<path d="M41.7556 26.2709C41.7541 26.5697 41.6181 26.8578 41.3729 27.0816C41.0751 27.3322 40.681 27.4941 40.2549 27.5407V25.0369C40.6658 25.1196 41.048 25.2766 41.3729 25.496C41.502 25.5953 41.603 25.7159 41.6691 25.8496C41.7351 25.9834 41.7647 26.1271 41.7556 26.2709Z" fill="#F4F7FB"/>
<path d="M40.0177 18.5269C38.7792 18.5243 37.5676 18.8892 36.5365 19.5755C35.5054 20.2617 34.7011 21.2385 34.2253 22.382C33.7496 23.5256 33.6238 24.7846 33.8638 25.9997C34.1039 27.2148 34.699 28.3314 35.5739 29.2081C36.4488 30.0848 37.5642 30.6823 38.7788 30.9249C39.9934 31.1675 41.2526 31.0443 42.3972 30.5709C43.5417 30.0975 44.5201 29.2952 45.2085 28.2655C45.8969 27.2358 46.2644 26.0251 46.2644 24.7865C46.2645 23.1285 45.6069 21.5382 44.4357 20.3647C43.2646 19.1911 41.6757 18.5301 40.0177 18.5269ZM42.4657 27.0202C42.2758 27.3715 41.9927 27.6636 41.6476 27.8644C41.2574 28.0976 40.8159 28.2314 40.3619 28.254V29.5462C40.3695 29.6999 40.3497 29.8538 40.3034 30.0007C40.2806 30.0488 40.2433 30.0884 40.1967 30.1141C40.15 30.1397 40.0965 30.15 40.0437 30.1435C39.9932 30.1469 39.9426 30.138 39.8963 30.1177C39.8499 30.0973 39.8092 30.0661 39.7775 30.0267C39.7209 29.9189 39.6962 29.7973 39.706 29.676V28.2734C39.3368 28.2385 38.9765 28.1396 38.6411 27.9812C38.3539 27.8522 38.0955 27.6667 37.8814 27.4358C37.6947 27.2416 37.5451 27.0149 37.4399 26.767C37.342 26.5481 37.289 26.3119 37.284 26.0722C37.2898 25.9054 37.3596 25.7473 37.4788 25.6306C37.5428 25.5649 37.6196 25.5131 37.7045 25.4785C37.7895 25.4439 37.8806 25.4271 37.9723 25.4293C38.1097 25.4241 38.2454 25.4603 38.3619 25.5332C38.4708 25.6084 38.5509 25.7183 38.5892 25.8449C38.6539 26.0646 38.7342 26.2794 38.8294 26.4878C38.9053 26.6488 39.0136 26.7925 39.1476 26.9098C39.309 27.0459 39.5004 27.1416 39.706 27.189V24.78C39.3051 24.6703 38.9141 24.527 38.5372 24.3514C38.2338 24.1956 37.9747 23.9655 37.784 23.6826C37.553 23.2764 37.4551 22.8081 37.504 22.3434C37.5529 21.8786 37.7462 21.4409 38.0567 21.0918C38.509 20.6799 39.0945 20.4448 39.706 20.4294V19.8775C39.706 19.5853 39.8164 19.4424 40.0372 19.4424C40.258 19.4424 40.3619 19.5853 40.3619 19.871V20.4294C40.6925 20.4521 41.0171 20.5289 41.3229 20.6567C41.5865 20.7762 41.8213 20.9512 42.0112 21.1697C42.1541 21.3371 42.2742 21.5227 42.3683 21.7216C42.4479 21.8813 42.4921 22.0563 42.4982 22.2346C42.4906 22.402 42.4203 22.5605 42.3012 22.6784C42.182 22.7963 42.0229 22.8651 41.8554 22.8709C41.6966 22.8769 41.5412 22.8248 41.4181 22.7244C41.2949 22.624 41.2126 22.4822 41.1865 22.3255C41.1384 22.1205 41.0366 21.9319 40.8918 21.779C40.7469 21.6262 40.564 21.5145 40.3619 21.4554V23.6177C40.7969 23.7346 41.1346 23.8514 41.3943 23.9488C41.6476 24.0394 41.8796 24.1808 42.0761 24.3644C42.2885 24.5528 42.457 24.7856 42.5696 25.0462C42.6859 25.3213 42.7434 25.6177 42.7384 25.9163C42.7407 26.3012 42.647 26.6806 42.4657 27.0202Z" fill="#F4F7FB"/>
<path d="M42.588 25.0345C42.4745 24.7783 42.3044 24.5496 42.0897 24.3646C41.8914 24.184 41.6571 24.045 41.4011 23.9563C41.1389 23.8606 40.7979 23.7458 40.3592 23.6309V21.5064C40.5632 21.5645 40.7477 21.6743 40.8939 21.8245C41.0401 21.9747 41.1427 22.1599 41.1913 22.3613C41.2178 22.5152 41.3009 22.6545 41.4252 22.7531C41.5495 22.8517 41.7064 22.9029 41.8667 22.8972C42.0359 22.8913 42.1966 22.8238 42.317 22.7079C42.4374 22.5921 42.5086 22.4365 42.5166 22.272C42.5107 22.0967 42.4659 21.9248 42.3854 21.768C42.2903 21.5726 42.1693 21.3903 42.0254 21.2257C41.8333 21.0111 41.596 20.8392 41.3297 20.7216C41.0211 20.5961 40.6935 20.5206 40.3598 20.4983V19.9496C40.3598 19.6689 40.2543 19.5286 40.032 19.5286C39.8097 19.5286 39.6969 19.6689 39.6969 19.956V20.4983C39.0794 20.5135 38.4881 20.7446 38.0313 21.1491C37.7974 21.369 37.6207 21.64 37.5158 21.9396C37.411 22.2392 37.3812 22.5588 37.4287 22.8719C37.4762 23.185 37.5997 23.4826 37.789 23.74C37.9783 23.9974 38.2279 24.2071 38.5172 24.3519C38.8977 24.5245 39.2925 24.6654 39.6975 24.773V27.14C39.49 27.0935 39.2969 26.9994 39.1343 26.8656C38.999 26.7502 38.8894 26.6091 38.8123 26.4509C38.7167 26.246 38.6356 26.035 38.5697 25.8193C38.531 25.6949 38.4501 25.5869 38.3402 25.513C38.2226 25.4413 38.0854 25.4057 37.9467 25.411C37.854 25.4087 37.7618 25.4251 37.676 25.4592C37.5901 25.4932 37.5124 25.5441 37.4477 25.6087C37.3273 25.7234 37.2568 25.8788 37.251 26.0426C37.2561 26.2781 37.3096 26.5102 37.4083 26.7253C37.5141 26.969 37.6651 27.1917 37.8536 27.3824C38.0699 27.6095 38.3311 27.7917 38.6215 27.9183C38.9599 28.0739 39.3236 28.1711 39.6962 28.2054V29.5835C39.6861 29.7028 39.7114 29.8223 39.769 29.928C39.801 29.9669 39.8421 29.9976 39.8889 30.0176C39.9358 30.0376 39.9869 30.0463 40.0379 30.0429C40.0912 30.0493 40.1452 30.0391 40.1923 30.0139C40.2394 29.9887 40.2771 29.9498 40.3002 29.9025C40.3469 29.7582 40.3669 29.607 40.3592 29.4559V28.1863C40.8174 28.164 41.2631 28.0326 41.6569 27.8035C42.0056 27.6064 42.2915 27.3193 42.4831 26.9741C42.6663 26.6405 42.7612 26.2677 42.7592 25.8895C42.764 25.596 42.7057 25.3048 42.588 25.0345ZM39.6962 23.4459C39.4368 23.3648 39.1964 23.2347 38.9887 23.0631C38.9077 22.9842 38.8452 22.8892 38.8055 22.7845C38.7657 22.6799 38.7497 22.5682 38.7585 22.457C38.7501 22.3403 38.7681 22.2233 38.8113 22.1142C38.8544 22.005 38.9217 21.9065 39.0083 21.8254C39.2127 21.67 39.4464 21.5552 39.6962 21.4872V23.4459ZM41.1854 26.7827C40.9652 27.0055 40.674 27.1494 40.3592 27.191V24.9644C40.6627 25.0381 40.9452 25.1777 41.1854 25.3727C41.2807 25.461 41.3552 25.5683 41.4039 25.6872C41.4525 25.8061 41.4742 25.9339 41.4674 26.0617C41.4665 26.3274 41.3663 26.5837 41.1854 26.7827Z" fill="white"/>
<g filter="url(#filter1_d_5104_113469)">
<path d="M22.8132 86.1599L19.8096 83.1562" stroke="#C8D3D9" stroke-width="10" stroke-linecap="round" stroke-linejoin="round"/>
</g>
<g filter="url(#filter2_d_5104_113469)">
<path d="M18.5004 87.4678L11.7119 94.2562" stroke="#C8D3D9" stroke-width="10" stroke-linecap="round" stroke-linejoin="round"/>
</g>
<path d="M20.1572 72.8192C20.1572 75.271 20.8843 77.6677 22.2464 79.7063C23.6086 81.7449 25.5447 83.3338 27.8098 84.2721C30.075 85.2104 32.5675 85.4559 34.9722 84.9775C37.3769 84.4992 39.5858 83.3186 41.3195 81.5849C43.0532 79.8512 44.2338 77.6423 44.7122 75.2376C45.1905 72.8329 44.945 70.3404 44.0067 68.0752C43.0685 65.81 41.4796 63.874 39.441 62.5118C37.4024 61.1497 35.0056 60.4226 32.5538 60.4226C29.266 60.4226 26.1129 61.7287 23.7881 64.0535C21.4633 66.3783 20.1572 69.5314 20.1572 72.8192Z" fill="white"/>
<g filter="url(#filter3_d_5104_113469)">
<path d="M32.5557 85.2143C39.4022 85.2143 44.9523 79.6641 44.9523 72.8177C44.9523 65.9713 39.4022 60.4211 32.5557 60.4211C25.7093 60.4211 20.1592 65.9713 20.1592 72.8177C20.1592 79.6641 25.7093 85.2143 32.5557 85.2143Z" stroke="#C8D3D9" stroke-width="7" stroke-miterlimit="10"/>
</g>
<g filter="url(#filter4_d_5104_113469)">
<path d="M26.8109 48.3931L26.238 53.0733C26.1954 53.4088 25.7678 53.6622 25.277 53.6622C24.7863 53.6622 24.3591 53.4088 24.316 53.0733L23.7437 48.3931C23.6988 48.1664 23.7047 47.9326 23.7609 47.7085C23.8172 47.4844 23.9225 47.2755 24.0691 47.097C24.2158 46.9184 24.4002 46.7746 24.6091 46.6758C24.818 46.5771 25.0462 46.5259 25.2773 46.5259C25.5083 46.5259 25.7365 46.5771 25.9454 46.6758C26.1543 46.7746 26.3387 46.9184 26.4854 47.097C26.6321 47.2755 26.7373 47.4844 26.7936 47.7085C26.8499 47.9326 26.8558 48.1664 26.8109 48.3931Z" fill="#C8D3D9"/>
</g>
<path d="M26.8109 48.3938L26.238 53.074C26.1954 53.4095 25.7678 53.6629 25.277 53.6629C24.7863 53.6629 24.3591 53.4095 24.316 53.074L23.7437 48.3938C23.6988 48.1671 23.7047 47.9333 23.7609 47.7092C23.8172 47.4851 23.9225 47.2763 24.0691 47.0977C24.2158 46.9192 24.4002 46.7753 24.6091 46.6766C24.818 46.5778 25.0462 46.5266 25.2773 46.5266C25.5083 46.5266 25.7365 46.5778 25.9454 46.6766C26.1543 46.7753 26.3387 46.9192 26.4854 47.0977C26.6321 47.2763 26.7373 47.4851 26.7936 47.7092C26.8499 47.9333 26.8558 48.1671 26.8109 48.3938V48.3938Z" stroke="#C8D3D9" stroke-width="1.475" stroke-miterlimit="10"/>
<g filter="url(#filter5_d_5104_113469)">
<path d="M26.1623 55.2218C26.1623 55.3969 26.1104 55.5681 26.0131 55.7137C25.9158 55.8593 25.7776 55.9727 25.6158 56.0398C25.454 56.1068 25.276 56.1243 25.1042 56.0901C24.9325 56.056 24.7747 55.9717 24.6509 55.8478C24.5271 55.724 24.4428 55.5663 24.4086 55.3945C24.3745 55.2228 24.392 55.0448 24.459 54.883C24.526 54.7212 24.6395 54.5829 24.7851 54.4856C24.9307 54.3884 25.1019 54.3364 25.277 54.3364C25.3933 54.3361 25.5086 54.3588 25.6162 54.4032C25.7237 54.4475 25.8215 54.5127 25.9037 54.595C25.986 54.6773 26.0512 54.775 26.0956 54.8826C26.14 54.9902 26.1626 55.1054 26.1623 55.2218Z" fill="#C8D3D9"/>
</g>
<path d="M26.1623 55.2233C26.1623 55.3984 26.1104 55.5695 26.0131 55.7151C25.9158 55.8607 25.7776 55.9742 25.6158 56.0412C25.454 56.1082 25.276 56.1258 25.1042 56.0916C24.9325 56.0574 24.7747 55.9731 24.6509 55.8493C24.5271 55.7255 24.4428 55.5677 24.4086 55.396C24.3745 55.2242 24.392 55.0462 24.459 54.8844C24.526 54.7227 24.6395 54.5844 24.7851 54.4871C24.9307 54.3898 25.1019 54.3379 25.277 54.3379C25.3933 54.3376 25.5086 54.3602 25.6162 54.4046C25.7237 54.449 25.8215 54.5142 25.9037 54.5965C25.986 54.6788 26.0512 54.7765 26.0956 54.8841C26.14 54.9916 26.1626 55.1069 26.1623 55.2233V55.2233Z" stroke="#C8D3D9" stroke-width="1.475" stroke-miterlimit="10"/>
<path d="M39.7173 75.1348C38.2179 74.8201 36.6626 74.8974 35.2018 75.3592C33.741 75.8211 32.4239 76.6519 31.3779 77.7713C30.6553 78.5621 31.8286 79.7444 32.5562 78.9502C33.3921 78.0362 34.4493 77.353 35.626 76.9662C36.8026 76.5795 38.059 76.5024 39.2741 76.7423C39.4871 76.7963 39.7127 76.7658 39.9037 76.6572C40.0948 76.5487 40.2365 76.3705 40.2992 76.1599C40.3558 75.9468 40.3266 75.7201 40.2177 75.5284C40.1089 75.3367 39.9292 75.1954 39.7173 75.1348Z" fill="#C8D3D9"/>
<path d="M36.2842 69.0254C36.2833 69.3784 36.3747 69.7254 36.5493 70.0322C36.7238 70.339 36.9755 70.5949 37.2793 70.7745C37.5832 70.9541 37.9287 71.0512 38.2816 71.0562C38.6346 71.0612 38.9827 70.9739 39.2915 70.8029C39.6003 70.632 39.8591 70.3834 40.0423 70.0816C40.2254 69.7799 40.3266 69.4356 40.3357 69.0827C40.3449 68.7299 40.2617 68.3808 40.0944 68.07C39.9271 67.7592 39.6815 67.4974 39.382 67.3108C39.0618 67.1067 38.6899 66.9986 38.3103 66.9993C37.7732 67.0002 37.2584 67.214 36.8787 67.5937C36.4989 67.9735 36.2851 68.4883 36.2842 69.0254Z" fill="#C8D3D9"/>
<path d="M36.2842 69.0254C36.2833 69.3784 36.3747 69.7254 36.5493 70.0322C36.7238 70.339 36.9755 70.5949 37.2793 70.7745C37.5832 70.9541 37.9287 71.0512 38.2816 71.0562C38.6346 71.0612 38.9827 70.9739 39.2915 70.8029C39.6003 70.632 39.8591 70.3834 40.0423 70.0816C40.2254 69.7799 40.3266 69.4356 40.3357 69.0827C40.3449 68.7299 40.2617 68.3808 40.0944 68.07C39.9271 67.7592 39.6815 67.4974 39.382 67.3108C39.0618 67.1067 38.6899 66.9986 38.3103 66.9993C37.7732 67.0002 37.2584 67.214 36.8787 67.5937C36.4989 67.9735 36.2851 68.4883 36.2842 69.0254V69.0254Z" stroke="#C8D3D9" stroke-width="1.267" stroke-miterlimit="10"/>
<path d="M27.7471 71.0496C27.7462 71.4025 27.8376 71.7496 28.0121 72.0564C28.1867 72.3632 28.4384 72.619 28.7422 72.7986C29.0461 72.9782 29.3916 73.0753 29.7445 73.0803C30.0974 73.0853 30.4456 72.998 30.7544 72.8271C31.0632 72.6562 31.322 72.4075 31.5052 72.1058C31.6883 71.8041 31.7895 71.4597 31.7986 71.1069C31.8078 70.754 31.7246 70.4049 31.5573 70.0941C31.39 69.7833 31.1444 69.5216 30.8448 69.3349C30.5247 69.1309 30.1528 69.0228 29.7732 69.0234C29.2361 69.0244 28.7213 69.2381 28.3415 69.6179C27.9618 69.9977 27.748 70.5125 27.7471 71.0496Z" fill="#C8D3D9"/>
<path d="M27.7471 71.0496C27.7462 71.4025 27.8376 71.7496 28.0121 72.0564C28.1867 72.3632 28.4384 72.619 28.7422 72.7986C29.0461 72.9782 29.3916 73.0753 29.7445 73.0803C30.0974 73.0853 30.4456 72.998 30.7544 72.8271C31.0632 72.6562 31.322 72.4075 31.5052 72.1058C31.6883 71.8041 31.7895 71.4597 31.7986 71.1069C31.8078 70.754 31.7246 70.4049 31.5573 70.0941C31.39 69.7833 31.1444 69.5216 30.8448 69.3349C30.5247 69.1309 30.1528 69.0228 29.7732 69.0234C29.2361 69.0244 28.7213 69.2381 28.3415 69.6179C27.9618 69.9977 27.748 70.5125 27.7471 71.0496V71.0496Z" stroke="#C8D3D9" stroke-width="1.267" stroke-miterlimit="10"/>
<defs>
<filter id="filter0_d_5104_113469" x="9.9873" y="0" width="112" height="112" filterUnits="userSpaceOnUse" color-interpolation-filters="sRGB">
<feFlood flood-opacity="0" result="BackgroundImageFix"/>
<feColorMatrix in="SourceAlpha" type="matrix" values="0 0 0 0 0 0 0 0 0 0 0 0 0 0 0 0 0 0 127 0" result="hardAlpha"/>
<feOffset dy="5"/>
<feGaussianBlur stdDeviation="3"/>
<feColorMatrix type="matrix" values="0 0 0 0 0.784314 0 0 0 0 0.827451 0 0 0 0 0.85098 0 0 0 0.302 0"/>
<feBlend mode="normal" in2="BackgroundImageFix" result="effect1_dropShadow_5104_113469"/>
<feBlend mode="normal" in="SourceGraphic" in2="effect1_dropShadow_5104_113469" result="shape"/>
</filter>
<filter id="filter1_d_5104_113469" x="8.80957" y="75.1562" width="25.0039" height="25.0037" filterUnits="userSpaceOnUse" color-interpolation-filters="sRGB">
<feFlood flood-opacity="0" result="BackgroundImageFix"/>
<feColorMatrix in="SourceAlpha" type="matrix" values="0 0 0 0 0 0 0 0 0 0 0 0 0 0 0 0 0 0 127 0" result="hardAlpha"/>
<feOffset dy="3"/>
<feGaussianBlur stdDeviation="3"/>
<feColorMatrix type="matrix" values="0 0 0 0 0.784314 0 0 0 0 0.827451 0 0 0 0 0.85098 0 0 0 0.302 0"/>
<feBlend mode="normal" in2="BackgroundImageFix" result="effect1_dropShadow_5104_113469"/>
<feBlend mode="normal" in="SourceGraphic" in2="effect1_dropShadow_5104_113469" result="shape"/>
</filter>
<filter id="filter2_d_5104_113469" x="0.711914" y="79.4678" width="28.7881" height="28.7883" filterUnits="userSpaceOnUse" color-interpolation-filters="sRGB">
<feFlood flood-opacity="0" result="BackgroundImageFix"/>
<feColorMatrix in="SourceAlpha" type="matrix" values="0 0 0 0 0 0 0 0 0 0 0 0 0 0 0 0 0 0 127 0" result="hardAlpha"/>
<feOffset dy="3"/>
<feGaussianBlur stdDeviation="3"/>
<feColorMatrix type="matrix" values="0 0 0 0 0.784314 0 0 0 0 0.827451 0 0 0 0 0.85098 0 0 0 0.302 0"/>
<feBlend mode="normal" in2="BackgroundImageFix" result="effect1_dropShadow_5104_113469"/>
<feBlend mode="normal" in="SourceGraphic" in2="effect1_dropShadow_5104_113469" result="shape"/>
</filter>
<filter id="filter3_d_5104_113469" x="10.6592" y="53.9211" width="43.793" height="43.7932" filterUnits="userSpaceOnUse" color-interpolation-filters="sRGB">
<feFlood flood-opacity="0" result="BackgroundImageFix"/>
<feColorMatrix in="SourceAlpha" type="matrix" values="0 0 0 0 0 0 0 0 0 0 0 0 0 0 0 0 0 0 127 0" result="hardAlpha"/>
<feOffset dy="3"/>
<feGaussianBlur stdDeviation="3"/>
<feColorMatrix type="matrix" values="0 0 0 0 0.784314 0 0 0 0 0.827451 0 0 0 0 0.85098 0 0 0 0.302 0"/>
<feBlend mode="normal" in2="BackgroundImageFix" result="effect1_dropShadow_5104_113469"/>
<feBlend mode="normal" in="SourceGraphic" in2="effect1_dropShadow_5104_113469" result="shape"/>
</filter>
<filter id="filter4_d_5104_113469" x="17.7139" y="43.5259" width="15.127" height="19.1362" filterUnits="userSpaceOnUse" color-interpolation-filters="sRGB">
<feFlood flood-opacity="0" result="BackgroundImageFix"/>
<feColorMatrix in="SourceAlpha" type="matrix" values="0 0 0 0 0 0 0 0 0 0 0 0 0 0 0 0 0 0 127 0" result="hardAlpha"/>
<feOffset dy="3"/>
<feGaussianBlur stdDeviation="3"/>
<feColorMatrix type="matrix" values="0 0 0 0 0.784314 0 0 0 0 0.827451 0 0 0 0 0.85098 0 0 0 0.502 0"/>
<feBlend mode="normal" in2="BackgroundImageFix" result="effect1_dropShadow_5104_113469"/>
<feBlend mode="normal" in="SourceGraphic" in2="effect1_dropShadow_5104_113469" result="shape"/>
</filter>
<filter id="filter5_d_5104_113469" x="18.3916" y="51.3364" width="13.7705" height="13.7708" filterUnits="userSpaceOnUse" color-interpolation-filters="sRGB">
<feFlood flood-opacity="0" result="BackgroundImageFix"/>
<feColorMatrix in="SourceAlpha" type="matrix" values="0 0 0 0 0 0 0 0 0 0 0 0 0 0 0 0 0 0 127 0" result="hardAlpha"/>
<feOffset dy="3"/>
<feGaussianBlur stdDeviation="3"/>
<feColorMatrix type="matrix" values="0 0 0 0 0.784314 0 0 0 0 0.827451 0 0 0 0 0.85098 0 0 0 0.502 0"/>
<feBlend mode="normal" in2="BackgroundImageFix" result="effect1_dropShadow_5104_113469"/>
<feBlend mode="normal" in="SourceGraphic" in2="effect1_dropShadow_5104_113469" result="shape"/>
</filter>
</defs>
</svg>
