<svg width="107" height="103" viewBox="0 0 107 103" fill="none" xmlns="http://www.w3.org/2000/svg">
<path d="M101.66 49.8382C101.666 58.1723 99.5796 66.3747 95.5931 73.6936C91.6066 81.0124 85.8471 87.2139 78.8423 91.7296C71.6918 96.3364 63.4829 99.0399 54.9943 99.5836C46.5056 100.127 38.0189 98.4932 30.3391 94.8363C28.4234 93.92 26.5691 92.8806 24.7877 91.7246C21.451 89.5703 18.3839 87.0247 15.6517 84.1419C15.5023 83.9876 15.3579 83.8332 15.2136 83.6789C10.4766 78.5511 6.86954 72.4855 4.62596 65.8749C2.38239 59.2643 1.55233 52.2562 2.18955 45.3045C2.82677 38.3527 4.91706 31.6123 8.32504 25.5198C11.733 19.4272 16.3827 14.1185 21.9729 9.93727C27.5632 5.75607 33.9693 2.79568 40.7765 1.24783C47.5836 -0.300017 54.64 -0.400812 61.4886 0.951975C68.3372 2.30476 74.8252 5.08097 80.5326 9.10079C86.24 13.1206 91.0394 18.2944 94.62 24.2871C94.8939 24.7451 95.1577 25.2032 95.4166 25.6712C95.9145 26.5624 96.3842 27.4719 96.8256 28.3996C98.2059 31.2919 99.3014 34.3116 100.097 37.4161C100.127 37.5257 100.156 37.6352 100.181 37.7447C100.5 39.0243 100.769 40.3221 100.988 41.6381C101.306 43.5495 101.511 45.478 101.6 47.4135C101.64 48.2151 101.66 49.0266 101.66 49.8382Z" fill="#F4F7FB"/>
<path d="M20.3266 6.4879C21.388 6.4879 22.2484 5.62748 22.2484 4.56609C22.2484 3.50471 21.388 2.64429 20.3266 2.64429C19.2652 2.64429 18.4048 3.50471 18.4048 4.56609C18.4048 5.62748 19.2652 6.4879 20.3266 6.4879Z" fill="#F4F7FB" stroke="#F4F7FB" stroke-width="0.694689" stroke-miterlimit="10"/>
<path d="M76.7794 41.9488L71.7603 36.7271L76.7355 41.9488L78.2038 43.4564L76.7754 41.9488H76.7794Z" fill="white"/>
<g filter="url(#filter0_d_5607_12176)">
<path d="M79.3902 49.3324V85.9623C79.3751 88.128 78.5054 90.2001 76.9703 91.7279C75.4352 93.2556 73.3589 94.1153 71.1932 94.12H38.5986C36.4369 94.1141 34.3654 93.2527 32.8368 91.7241C31.3082 90.1955 30.4468 88.124 30.4409 85.9623V37.0523C30.4456 34.8865 31.3053 32.8102 32.8331 31.2751C34.3608 29.74 36.4329 28.8703 38.5986 28.8552H59.3601V43.9877C59.3533 45.3928 59.9028 46.7436 60.8885 47.745C61.8742 48.7464 63.2161 49.3171 64.6212 49.3324H79.3892H79.3902Z" fill="white"/>
</g>
<g filter="url(#filter1_d_5607_12176)">
<path d="M71.1949 28.8552V31.7519L68.3819 28.8552L67.5643 27.9984C67.3255 27.7465 67.0668 27.5142 66.7906 27.3038C65.5488 26.321 64.0099 25.7895 62.4262 25.7963H38.6033C35.6233 25.8039 32.7682 26.9941 30.6651 29.1053C28.5619 31.2166 27.3828 34.0763 27.3866 37.0563V85.3554C25.8754 84.7532 24.5787 83.7129 23.6632 82.3682C22.7476 81.0235 22.255 79.4358 22.2485 77.809V28.8946C22.256 26.7229 23.122 24.6423 24.6577 23.1066C26.1933 21.571 28.2739 20.705 30.4456 20.6975H63.0361C64.6568 20.7075 66.2382 21.197 67.5811 22.1043C68.924 23.0116 69.9683 24.296 70.5825 25.7958C70.7733 26.285 70.9232 26.7893 71.0306 27.3033C71.1483 27.812 71.2035 28.3332 71.1949 28.8552Z" fill="white"/>
</g>
<path d="M76.7794 41.9485L71.7603 36.7268L76.7355 41.9485L78.2038 43.4561L76.7754 41.9485H76.7794Z" fill="white"/>
<path d="M79.3532 46.271H64.6275C64.0342 46.2546 63.4711 46.0059 63.0593 45.5785C62.6474 45.1512 62.4198 44.5792 62.4254 43.9857V28.8552C62.9748 28.8589 63.5179 28.9728 64.0224 29.1902C64.527 29.4076 64.9828 29.7241 65.3629 30.1208L71.1955 36.1601L71.7671 36.7316L76.7423 41.9534L78.2106 43.461C78.9365 44.2187 79.346 45.2247 79.3557 46.274L79.3532 46.271Z" fill="white"/>
<path d="M78.2087 43.4564L76.7404 41.9488L71.7651 36.7271L76.7803 41.9488L78.2087 43.4564Z" fill="white"/>
<path d="M76.7798 41.9488L71.7607 36.7271L76.736 41.9488L78.2043 43.4564L76.7759 41.9488H76.7798Z" fill="white"/>
<path d="M99.3898 94.1192C102.766 94.1192 105.504 91.3819 105.504 88.0053C105.504 84.6287 102.766 81.8914 99.3898 81.8914C96.0132 81.8914 93.2759 84.6287 93.2759 88.0053C93.2759 91.3819 96.0132 94.1192 99.3898 94.1192Z" fill="#F4F7FB" stroke="#F4F7FB" stroke-width="2.223" stroke-miterlimit="10"/>
<path d="M13.4512 12.1389C15.3677 12.1389 16.9214 10.5852 16.9214 8.66869C16.9214 6.75215 15.3677 5.19849 13.4512 5.19849C11.5346 5.19849 9.98096 6.75215 9.98096 8.66869C9.98096 10.5852 11.5346 12.1389 13.4512 12.1389Z" fill="#F4F7FB" stroke="#F4F7FB" stroke-width="1.2597" stroke-miterlimit="10"/>
<path d="M38.0112 71.436C37.8307 69.227 37.1168 67.0948 35.9306 65.2227C34.7444 63.3505 33.1214 61.7942 31.2011 60.6876C29.2808 59.581 27.1206 58.9572 24.906 58.8696C22.6914 58.782 20.4886 59.2334 18.487 60.1849C16.4853 61.1364 14.7445 62.5596 13.4142 64.3322C12.0838 66.1049 11.2037 68.174 10.8494 70.3618C10.4951 72.5496 10.6772 74.7908 11.3801 76.8927C12.083 78.9946 13.2857 80.8945 14.8848 82.4291C14.9004 82.4498 14.9189 82.4682 14.9395 82.4839C16.8391 84.2908 19.2178 85.5141 21.7927 86.0082C24.3675 86.5022 27.03 86.2463 29.4635 85.2708C31.8971 84.2953 33.9992 82.6412 35.5198 80.5055C37.0404 78.3697 37.9155 75.8421 38.041 73.2233C38.071 72.6275 38.061 72.0304 38.0112 71.436Z" fill="#C8D3D9" stroke="#C8D3D9" stroke-width="0.463126" stroke-linecap="round" stroke-linejoin="round"/>
<path d="M32.276 80.0989C30.7871 81.6627 28.8679 82.7498 26.7612 83.2228C24.6545 83.6958 22.4548 83.5335 20.4403 82.7564C18.4259 81.9792 16.6871 80.6222 15.4439 78.8568C14.2006 77.0915 13.5088 74.9971 13.4559 72.8386C13.403 70.6801 13.9913 68.5543 15.1466 66.7302C16.3018 64.906 17.972 63.4654 19.9459 62.5905C21.9199 61.7156 24.109 61.4456 26.2364 61.8148C28.3637 62.1841 30.3339 63.1758 31.8976 64.6647C33.9944 66.6613 35.2123 69.409 35.2833 72.3035C35.3542 75.1979 34.2725 78.002 32.276 80.0989Z" fill="#F4F7FB" stroke="#C8D3D9" stroke-width="0.463126" stroke-linecap="round" stroke-linejoin="round"/>
<path d="M13.1397 84.684L12.8297 84.389C12.0314 83.6293 10.7684 83.6606 10.0087 84.4589L1.94045 92.937C1.18074 93.7353 1.21203 94.9983 2.01033 95.758L2.32033 96.053C3.11863 96.8127 4.38165 96.7815 5.14137 95.9832L13.2096 87.5051C13.9693 86.7068 13.938 85.4437 13.1397 84.684Z" fill="#C8D3D9" stroke="#C8D3D9" stroke-width="0.46287" stroke-linecap="round" stroke-linejoin="round"/>
<path d="M15.5197 83.9732L13.4254 81.9802C13.1198 81.6894 12.6363 81.7013 12.3455 82.0069C12.0547 82.3125 12.0667 82.796 12.3723 83.0868L14.4665 85.0799C14.7721 85.3707 15.2556 85.3587 15.5464 85.0531C15.8372 84.7475 15.8253 84.264 15.5197 83.9732Z" fill="#C8D3D9" stroke="#C8D3D9" stroke-width="0.46287" stroke-linecap="round" stroke-linejoin="round"/>
<path d="M24.1506 79.3024C24.0394 79.3024 23.9294 79.2805 23.8267 79.238C23.724 79.1955 23.6307 79.1331 23.5521 79.0545C23.4735 78.9759 23.4112 78.8826 23.3686 78.78C23.3261 78.6773 23.3042 78.5672 23.3042 78.4561C23.3052 78.2901 23.3552 78.1281 23.4481 77.9905C23.5409 77.8529 23.6724 77.7458 23.8259 77.6827C23.9795 77.6197 24.1482 77.6034 24.311 77.636C24.4737 77.6687 24.6232 77.7487 24.7406 77.8661C24.8579 77.9835 24.938 78.1329 24.9706 78.2957C25.0032 78.4584 24.987 78.6272 24.9239 78.7807C24.8608 78.9343 24.7538 79.0657 24.6162 79.1586C24.4786 79.2514 24.3166 79.3015 24.1506 79.3024Z" fill="#C8D3D9"/>
<path d="M24.1506 77.9733C24.2786 77.9734 24.4014 78.0243 24.4919 78.1149C24.5824 78.2054 24.6334 78.3282 24.6335 78.4562C24.6335 78.5856 24.5821 78.7097 24.4906 78.8012C24.3991 78.8927 24.275 78.9441 24.1456 78.9441C24.0162 78.9441 23.8921 78.8927 23.8006 78.8012C23.7091 78.7097 23.6577 78.5856 23.6577 78.4562C23.6576 78.3919 23.6703 78.3283 23.6952 78.269C23.7201 78.2097 23.7565 78.156 23.8025 78.111C23.8484 78.066 23.9028 78.0306 23.9626 78.007C24.0224 77.9833 24.0863 77.9719 24.1506 77.9733ZM24.1506 77.2713C23.9138 77.2703 23.6821 77.3396 23.4848 77.4706C23.2876 77.6015 23.1336 77.788 23.0426 78.0066C22.9515 78.2251 22.9275 78.4658 22.9734 78.698C23.0193 78.9303 23.1333 79.1437 23.3007 79.3111C23.4681 79.4785 23.6814 79.5924 23.9137 79.6383C24.1459 79.6843 24.3866 79.6602 24.6052 79.5691C24.8237 79.4781 25.0103 79.3242 25.1412 79.1269C25.2721 78.9296 25.3415 78.6979 25.3405 78.4612C25.3392 78.146 25.2134 77.8441 24.9905 77.6212C24.7676 77.3984 24.4657 77.2726 24.1506 77.2713Z" fill="#C8D3D9"/>
<path d="M24.1205 76.0663C23.9226 76.0669 23.7322 75.9902 23.59 75.8526C23.4477 75.715 23.3648 75.5273 23.3588 75.3294C23.2941 73.1736 23.304 71.9439 24.245 71.8194H24.3396C24.3729 71.8187 24.4062 71.8204 24.4392 71.8244H24.4989C24.9233 71.7715 25.3132 71.5641 25.5943 71.2419C25.8083 70.971 25.948 70.6489 25.9996 70.3075C26.0511 69.9661 26.0126 69.6172 25.888 69.2952C25.654 68.8072 25.1462 68.5583 24.3745 68.5583C24.1345 68.5344 23.8923 68.562 23.6639 68.6392C23.4355 68.7165 23.2262 68.8417 23.0501 69.0064C22.9231 69.1606 22.8285 69.3388 22.772 69.5305C22.7156 69.7221 22.6984 69.9232 22.7215 70.1216C22.7299 70.2214 22.7185 70.3218 22.688 70.4171C22.6574 70.5125 22.6084 70.6008 22.5436 70.6772C22.4789 70.7535 22.3997 70.8163 22.3106 70.8619C22.2215 70.9076 22.1243 70.9352 22.0245 70.9431H21.9647C21.7749 70.9421 21.5924 70.87 21.4532 70.7409C21.314 70.6119 21.2283 70.4353 21.2129 70.2461C21.1688 69.8375 21.2102 69.4242 21.3345 69.0325C21.4587 68.6407 21.6632 68.2792 21.9349 67.9708C22.2522 67.6515 22.6339 67.4033 23.0545 67.2428C23.4751 67.0823 23.9251 67.0131 24.3745 67.0398C26.132 67.0398 26.9136 67.9111 27.2622 68.6479C27.5074 69.2311 27.5905 69.8698 27.5029 70.4963C27.4153 71.1229 27.1601 71.7142 26.7643 72.2077C26.3393 72.7034 25.7758 73.0606 25.1462 73.2334L24.9022 73.2981L24.8873 73.552C24.8624 73.9553 24.8624 74.5378 24.8873 75.2896C24.8919 75.4901 24.8187 75.6846 24.6832 75.8323C24.5425 75.9776 24.3523 76.0647 24.1504 76.0763H24.1255L24.1205 76.0663Z" fill="#C8D3D9"/>
<path d="M24.3695 67.3884C25.9428 67.3884 26.6348 68.1551 26.9385 68.7924C27.1533 69.3155 27.225 69.8863 27.1463 70.4463C27.0675 71.0063 26.8412 71.5352 26.4905 71.9788C26.1113 72.4203 25.6083 72.7377 25.0466 72.8899L24.5587 73.0194L24.5288 73.5222C24.5039 73.9305 24.5039 74.5279 24.5288 75.2897C24.5318 75.3949 24.4964 75.4975 24.4292 75.5785C24.3919 75.62 24.3468 75.6537 24.2963 75.6776C24.2459 75.7015 24.1912 75.7152 24.1355 75.7179H24.1206C24.0678 75.7192 24.0154 75.71 23.9662 75.6909C23.9171 75.6718 23.8722 75.6431 23.8342 75.6065C23.7962 75.5699 23.7659 75.5262 23.745 75.4778C23.7241 75.4294 23.7129 75.3773 23.7123 75.3245C23.6526 73.4177 23.6625 72.2526 24.2898 72.168H24.5089C25.035 72.117 25.5206 71.8635 25.8631 71.461C26.1205 71.1382 26.2874 70.7528 26.3469 70.3443C26.4064 69.9357 26.3563 69.5187 26.2017 69.1359C25.9079 68.5136 25.2906 68.1999 24.3695 68.1999C24.0831 68.1761 23.795 68.213 23.5238 68.3083C23.2527 68.4035 23.0048 68.5549 22.7962 68.7526C22.6306 68.9416 22.5068 69.1635 22.433 69.4038C22.3592 69.6441 22.337 69.8972 22.368 70.1466C22.3722 70.2003 22.3658 70.2543 22.349 70.3054C22.3322 70.3566 22.3054 70.4039 22.2702 70.4446C22.235 70.4854 22.1921 70.5187 22.144 70.5428C22.0958 70.5668 22.0434 70.5811 21.9896 70.5848H21.9598C21.8588 70.5833 21.762 70.5443 21.6883 70.4752C21.6146 70.4061 21.5694 70.312 21.5615 70.2113C21.522 69.8517 21.5574 69.4878 21.6654 69.1425C21.7733 68.7972 21.9515 68.478 22.1888 68.2049C22.474 67.9226 22.8158 67.7038 23.1917 67.5631C23.5676 67.4224 23.969 67.3628 24.3695 67.3884ZM24.3695 66.6864C23.8711 66.6572 23.3722 66.7354 22.9066 66.9158C22.441 67.0962 22.0197 67.3745 21.671 67.7319C21.3648 68.0743 21.1342 68.4774 20.9944 68.9149C20.8545 69.3525 20.8086 69.8146 20.8595 70.2711C20.8808 70.5489 21.0058 70.8085 21.2096 70.9985C21.4134 71.1885 21.6812 71.2949 21.9598 71.2967H22.0444C22.1899 71.2854 22.3318 71.2455 22.4619 71.1793C22.592 71.1131 22.7077 71.0219 22.8025 70.9109C22.8973 70.7999 22.9693 70.6713 23.0143 70.5325C23.0594 70.3937 23.0766 70.2473 23.0651 70.1018C23.0272 69.7967 23.1113 69.489 23.2991 69.2455C23.4441 69.1195 23.6136 69.0248 23.7969 68.9674C23.9803 68.91 24.1735 68.8911 24.3645 68.9119C25.3105 68.9119 25.4997 69.3152 25.5594 69.4496C25.6557 69.711 25.6838 69.9926 25.6412 70.2678C25.5985 70.5431 25.4864 70.8029 25.3155 71.0229C25.0979 71.2702 24.7998 71.4324 24.4741 71.4809C24.4278 71.4751 24.3813 71.4718 24.3346 71.471C24.2863 71.4682 24.2378 71.4715 24.1903 71.4809C22.8908 71.6552 22.9406 73.2882 23.0003 75.3544C23.0076 75.6438 23.1279 75.9189 23.3353 76.1208C23.5428 76.3227 23.8211 76.4354 24.1106 76.4348H24.1455C24.4402 76.4214 24.7185 76.2948 24.9221 76.0813C25.0217 75.9756 25.0994 75.8512 25.1506 75.7154C25.2019 75.5795 25.2258 75.4348 25.2209 75.2897C25.191 74.4483 25.201 73.9106 25.2209 73.587C25.9232 73.3982 26.5517 73.0006 27.0232 72.4468C27.459 71.8996 27.7393 71.2451 27.8348 70.5522C27.9303 69.8592 27.8374 69.1533 27.5659 68.5086C27.2472 67.8365 26.4108 66.7013 24.3595 66.7013L24.3695 66.6864Z" fill="#C8D3D9"/>
<path d="M97.3633 20.6975C95.754 20.698 94.181 21.1756 92.8432 22.07C91.5053 22.9644 90.4626 24.2354 89.847 25.7223C89.2314 27.2092 89.0704 28.8452 89.3845 30.4235C89.6986 32.0019 90.4736 33.4517 91.6115 34.5896C92.7495 35.7276 94.1993 36.5026 95.7776 36.8166C97.356 37.1307 98.992 36.9698 100.479 36.3541C101.966 35.7385 103.237 34.6959 104.131 33.358C105.026 32.0201 105.503 30.4471 105.504 28.8378C105.504 27.7688 105.293 26.7102 104.884 25.7225C104.475 24.7348 103.876 23.8374 103.12 23.0815C102.364 22.3255 101.466 21.7259 100.479 21.3169C99.491 20.9078 98.4324 20.6974 97.3633 20.6975ZM97.3633 33.3685C97.2531 33.3678 97.144 33.3454 97.0425 33.3024C96.9409 33.2595 96.8488 33.1969 96.7716 33.1182C96.6943 33.0396 96.6333 32.9464 96.5922 32.8441C96.5511 32.7418 96.5306 32.6324 96.5319 32.5221C96.5308 32.4126 96.5516 32.304 96.593 32.2027C96.6344 32.1013 96.6956 32.0092 96.773 31.9318C96.8505 31.8544 96.9425 31.7932 97.0439 31.7518C97.1453 31.7104 97.2539 31.6896 97.3633 31.6906C97.5856 31.6896 97.7992 31.7764 97.9577 31.9321C98.1163 32.0878 98.2068 32.2999 98.2097 32.5221C98.2083 32.7461 98.1187 32.9606 97.9602 33.119C97.8018 33.2774 97.5874 33.3671 97.3633 33.3685ZM98.8171 26.0696L98.2695 30.4957C98.2346 30.8144 97.8264 31.0583 97.3633 31.0583C96.9003 31.0583 96.497 30.8144 96.4572 30.4957L95.9195 26.0696C95.8856 25.8564 95.8973 25.6384 95.9538 25.43C96.0103 25.2216 96.1102 25.0276 96.2471 24.8606C96.384 24.6936 96.5546 24.5575 96.7479 24.4613C96.9411 24.365 97.1526 24.3108 97.3683 24.3021C97.5676 24.3077 97.7638 24.3527 97.9457 24.4344C98.1275 24.5161 98.2914 24.633 98.4279 24.7783C98.5644 24.9236 98.6708 25.0944 98.741 25.281C98.8113 25.4676 98.8439 25.6662 98.8371 25.8655C98.8395 25.9322 98.8345 25.999 98.8221 26.0646L98.8171 26.0696Z" fill="#C8D3D9"/>
<path d="M10.7452 33.3887C10.6516 33.3889 10.5593 33.3681 10.4748 33.3279C10.4181 33.3075 10.3668 33.2742 10.325 33.2307C10.2832 33.1872 10.252 33.1348 10.2337 33.0773C10.2155 33.0198 10.2107 32.9588 10.2198 32.8992C10.2289 32.8396 10.2516 32.7829 10.2861 32.7334L12.2099 30.0832C12.2973 29.98 12.4166 29.9088 12.549 29.881C12.6813 29.8531 12.8192 29.8702 12.9408 29.9295C12.9976 29.9499 13.0489 29.9831 13.0908 30.0266C13.1327 30.0701 13.1639 30.1227 13.1822 30.1802C13.2004 30.2378 13.2052 30.2987 13.1961 30.3584C13.1869 30.4181 13.1641 30.4749 13.1295 30.5243L11.2057 33.1731C11.151 33.2423 11.0808 33.2978 11.0009 33.3352C10.921 33.3726 10.8334 33.391 10.7452 33.3887Z" fill="white"/>
<path d="M12.7475 33.3885C12.6537 33.3887 12.5612 33.3677 12.4766 33.3272C12.4199 33.3068 12.3687 33.2735 12.3269 33.23C12.2851 33.1865 12.254 33.1339 12.2359 33.0764C12.2178 33.0188 12.2132 32.9579 12.2225 32.8983C12.2317 32.8387 12.2547 32.782 12.2894 32.7327L14.2137 30.0825C14.301 29.979 14.4204 29.9078 14.5529 29.8801C14.6854 29.8525 14.8233 29.8702 14.9446 29.9302C15.0013 29.9507 15.0526 29.984 15.0943 30.0275C15.1361 30.071 15.1673 30.1236 15.1854 30.1811C15.2035 30.2386 15.2081 30.2996 15.1988 30.3592C15.1895 30.4188 15.1666 30.4753 15.1318 30.5246L13.2075 33.1729C13.1529 33.2421 13.0829 33.2977 13.003 33.3351C12.9231 33.3726 12.8356 33.3909 12.7475 33.3885Z" fill="white"/>
<path d="M14.9805 33.3885C14.8868 33.3887 14.7942 33.3678 14.7097 33.3272C14.653 33.3068 14.6017 33.2734 14.56 33.2299C14.5182 33.1864 14.487 33.1339 14.4689 33.0764C14.4507 33.0189 14.4461 32.958 14.4553 32.8984C14.4645 32.8388 14.4873 32.7821 14.522 32.7327L16.4468 30.0825C16.534 29.979 16.6534 29.9078 16.7859 29.8801C16.9184 29.8525 17.0563 29.8702 17.1776 29.9302C17.2344 29.9507 17.2856 29.984 17.3274 30.0275C17.3691 30.071 17.4003 30.1236 17.4184 30.1811C17.4365 30.2386 17.4411 30.2996 17.4318 30.3592C17.4225 30.4188 17.3996 30.4753 17.3648 30.5246L15.4425 33.1729C15.3877 33.2424 15.3174 33.2981 15.2371 33.3355C15.1569 33.373 15.069 33.3912 14.9805 33.3885Z" fill="white"/>
<path d="M90.3847 50.9857C91.5162 50.9857 92.4335 50.0685 92.4335 48.9369C92.4335 47.8054 91.5162 46.8882 90.3847 46.8882C89.2532 46.8882 88.3359 47.8054 88.3359 48.9369C88.3359 50.0685 89.2532 50.9857 90.3847 50.9857Z" stroke="white" stroke-width="1.21061" stroke-miterlimit="10"/>
<defs>
<filter id="filter0_d_5607_12176" x="24.8834" y="26.0765" width="60.0642" height="76.3799" filterUnits="userSpaceOnUse" color-interpolation-filters="sRGB">
<feFlood flood-opacity="0" result="BackgroundImageFix"/>
<feColorMatrix in="SourceAlpha" type="matrix" values="0 0 0 0 0 0 0 0 0 0 0 0 0 0 0 0 0 0 127 0" result="hardAlpha"/>
<feOffset dy="2.77875"/>
<feGaussianBlur stdDeviation="2.77875"/>
<feColorMatrix type="matrix" values="0 0 0 0 0.784314 0 0 0 0 0.827451 0 0 0 0 0.85098 0 0 0 0.2 0"/>
<feBlend mode="normal" in2="BackgroundImageFix" result="effect1_dropShadow_5607_12176"/>
<feBlend mode="normal" in="SourceGraphic" in2="effect1_dropShadow_5607_12176" result="shape"/>
</filter>
<filter id="filter1_d_5607_12176" x="16.691" y="16.0663" width="60.0623" height="75.773" filterUnits="userSpaceOnUse" color-interpolation-filters="sRGB">
<feFlood flood-opacity="0" result="BackgroundImageFix"/>
<feColorMatrix in="SourceAlpha" type="matrix" values="0 0 0 0 0 0 0 0 0 0 0 0 0 0 0 0 0 0 127 0" result="hardAlpha"/>
<feOffset dy="0.926251"/>
<feGaussianBlur stdDeviation="2.77875"/>
<feColorMatrix type="matrix" values="0 0 0 0 0.784314 0 0 0 0 0.827451 0 0 0 0 0.85098 0 0 0 0.2 0"/>
<feBlend mode="normal" in2="BackgroundImageFix" result="effect1_dropShadow_5607_12176"/>
<feBlend mode="normal" in="SourceGraphic" in2="effect1_dropShadow_5607_12176" result="shape"/>
</filter>
</defs>
</svg>
