<svg width="98" height="100" viewBox="0 0 98 100" fill="none" xmlns="http://www.w3.org/2000/svg">
<path d="M95.7548 48.0283C95.7604 55.0911 94.0678 62.0519 90.8196 68.3235C87.5714 74.5952 82.8629 79.9939 77.091 84.0646C76.9764 84.1483 76.8574 84.2276 76.7384 84.3069C74.8038 85.6511 72.7641 86.8375 70.6391 87.8546C64.705 90.6922 58.2093 92.1607 51.6316 92.1515C45.0525 92.1606 38.5553 90.6922 32.6196 87.8546C30.3659 86.7756 28.2076 85.5077 26.1677 84.0646C26.0003 83.9456 25.8372 83.8266 25.6741 83.7076C24.0825 82.5501 22.5718 81.2853 21.1525 79.922C20.7162 79.5121 20.2932 79.089 19.8745 78.6571C19.3853 78.1547 18.9138 77.6391 18.451 77.1103C17.8957 76.4801 17.361 75.8352 16.8469 75.1756C10.7813 67.4278 7.49278 57.8679 7.50836 48.0283C7.50906 36.3263 12.158 25.1037 20.4325 16.8292C28.7071 8.55462 39.9296 3.90574 51.6316 3.90503C57.588 3.89746 63.484 5.09979 68.9618 7.43911C74.4397 9.77843 79.3853 13.206 83.4988 17.514C89.6406 23.9119 93.7053 32.0168 95.1599 40.7655C95.555 43.1662 95.7539 45.5952 95.7548 48.0283Z" fill="#F4F7FB"/>
<path d="M86.9447 37.2751C86.0238 37.2745 85.1117 37.4555 84.2608 37.8076C83.4098 38.1598 82.6367 38.6762 81.9855 39.3274C81.3343 39.9786 80.8178 40.7518 80.4657 41.6028C80.1135 42.4537 79.9325 43.3658 79.9331 44.2867C79.9331 45.2073 80.1145 46.1188 80.4669 46.9692C80.8193 47.8197 81.3359 48.5923 81.987 49.243C82.6382 49.8938 83.4112 50.4098 84.2618 50.7617C85.1125 51.1136 86.0241 51.2945 86.9447 51.2939C87.8649 51.2939 88.7761 51.1126 89.6262 50.7605C90.4764 50.4083 91.2488 49.8922 91.8995 49.2415C92.5502 48.5908 93.0663 47.8183 93.4185 46.9682C93.7706 46.118 93.9519 45.2069 93.9519 44.2867C93.9525 43.3661 93.7716 42.4545 93.4198 41.6038C93.0679 40.7531 92.5518 39.9801 91.9011 39.329C91.2503 38.6779 90.4777 38.1613 89.6272 37.8089C88.7768 37.4565 87.8653 37.2751 86.9447 37.2751ZM86.9447 39.3861C87.5554 39.3856 88.1412 39.6277 88.5735 40.0591C89.0057 40.4905 89.2489 41.0759 89.2496 41.6865C89.2483 42.2974 89.005 42.8829 88.5731 43.3149C88.1411 43.7469 87.5556 43.9901 86.9447 43.9914C86.3338 43.9901 85.7483 43.7469 85.3163 43.3149C84.8843 42.8829 84.6411 42.2974 84.6398 41.6865C84.6405 41.0759 84.8837 40.4905 85.3159 40.0591C85.7482 39.6277 86.334 39.3856 86.9447 39.3861ZM89.9635 48.6937C89.812 48.8499 89.6304 48.9737 89.4296 49.0578C89.2289 49.1418 89.0133 49.1844 88.7957 49.1829H85.0981C84.8793 49.1831 84.6626 49.1401 84.4604 49.0564C84.2583 48.9728 84.0745 48.8501 83.9198 48.6953C83.7651 48.5406 83.6424 48.3569 83.5587 48.1547C83.4751 47.9525 83.4321 47.7358 83.4323 47.517C83.4298 47.2146 83.4882 46.9147 83.6041 46.6354C83.7199 46.356 83.8908 46.1028 84.1066 45.8909C84.3188 45.6771 84.5716 45.5077 84.8501 45.3927C85.1285 45.2777 85.4271 45.2193 85.7284 45.221H88.1654C88.467 45.2208 88.7657 45.2801 89.0443 45.3954C89.323 45.5107 89.5762 45.6798 89.7894 45.8931C90.0026 46.1063 90.1718 46.3595 90.2871 46.6381C90.4024 46.9168 90.4617 47.2155 90.4615 47.517C90.463 47.7367 90.4197 47.9544 90.334 48.1568C90.2484 48.3591 90.1223 48.5419 89.9635 48.6937Z" fill="#C8D3D9"/>
<path d="M24.8311 42.4697C24.869 42.5072 24.899 42.5518 24.9195 42.6009C24.94 42.6501 24.9506 42.7029 24.9506 42.7561C24.9506 42.8094 24.94 42.8621 24.9195 42.9113C24.899 42.9605 24.869 43.0051 24.8311 43.0426C24.7936 43.0804 24.749 43.1104 24.6998 43.1308C24.6506 43.1512 24.5979 43.1617 24.5447 43.1616C24.4914 43.1617 24.4386 43.1512 24.3893 43.1308C24.3401 43.1104 24.2954 43.0804 24.2578 43.0426L23.0181 41.8024L21.7779 43.0426C21.7404 43.0804 21.6958 43.1103 21.6466 43.1307C21.5974 43.1511 21.5447 43.1617 21.4915 43.1616C21.4382 43.1617 21.3854 43.1512 21.3361 43.1308C21.2869 43.1104 21.2422 43.0804 21.2046 43.0426C21.1289 42.9665 21.0864 42.8635 21.0864 42.7561C21.0864 42.6488 21.1289 42.5458 21.2046 42.4697L22.4447 41.2295L21.2046 39.9894C21.1289 39.9133 21.0864 39.8103 21.0864 39.703C21.0864 39.5956 21.1289 39.4926 21.2046 39.4165C21.2806 39.3406 21.3836 39.298 21.491 39.298C21.5985 39.298 21.7015 39.3406 21.7775 39.4165L23.0176 40.6566L24.2573 39.4165C24.3334 39.3406 24.4364 39.298 24.5438 39.298C24.6512 39.298 24.7542 39.3406 24.8302 39.4165C24.8681 39.454 24.8981 39.4986 24.9186 39.5478C24.9391 39.5969 24.9497 39.6497 24.9497 39.703C24.9497 39.7562 24.9391 39.8089 24.9186 39.8581C24.8981 39.9073 24.8681 39.9519 24.8302 39.9894L23.5906 41.2295L24.8311 42.4697Z" fill="white"/>
<path d="M86.9472 19.0322C88.2462 19.0322 89.2993 17.9792 89.2993 16.6802C89.2993 15.3812 88.2462 14.3281 86.9472 14.3281C85.6483 14.3281 84.5952 15.3812 84.5952 16.6802C84.5952 17.9792 85.6483 19.0322 86.9472 19.0322Z" fill="#F4F7FB" stroke="#F4F7FB" stroke-width="1.043" stroke-miterlimit="10"/>
<path d="M2.58153 48.5831C3.88052 48.5831 4.93356 47.5301 4.93356 46.2311C4.93356 44.9321 3.88052 43.879 2.58153 43.879C1.28253 43.879 0.229492 44.9321 0.229492 46.2311C0.229492 47.5301 1.28253 48.5831 2.58153 48.5831Z" fill="#F4F7FB" stroke="#F4F7FB" stroke-width="1.043" stroke-miterlimit="10"/>
<path d="M95.7528 74.8746C96.5852 74.8746 97.26 74.1998 97.26 73.3674C97.26 72.535 96.5852 71.8602 95.7528 71.8602C94.9204 71.8602 94.2456 72.535 94.2456 73.3674C94.2456 74.1998 94.9204 74.8746 95.7528 74.8746Z" fill="#F4F7FB" stroke="#F4F7FB" stroke-width="0.668" stroke-miterlimit="10"/>
<path d="M79.9342 11.3551C82.9238 11.3551 85.3473 8.93157 85.3473 5.94197C85.3473 2.95236 82.9238 0.528809 79.9342 0.528809C76.9446 0.528809 74.521 2.95236 74.521 5.94197C74.521 8.93157 76.9446 11.3551 79.9342 11.3551Z" fill="#F4F7FB" stroke="#F4F7FB" stroke-width="2.4" stroke-miterlimit="10"/>
<path d="M44.4067 20.6381C44.3237 20.7947 44.2217 20.9405 44.103 21.0722C44.1855 20.6421 44.3447 20.2303 44.5733 19.8567C44.5764 20.1263 44.5195 20.3932 44.4067 20.6381Z" fill="white" stroke="#C8D3D9" stroke-width="0.414" stroke-miterlimit="10"/>
<path d="M44.5516 56.9044V62.8596C42.1995 63.1562 40.8466 63.1201 40.1304 62.3965C39.0666 61.3181 39.3054 59.3503 39.1168 59.3503C38.8854 59.3644 39.3843 61.9985 38.1979 62.7583C37.8216 63.0042 37.2861 62.9535 36.2223 62.8521C34.7754 62.7199 34.0298 62.6931 33.7407 62.3965C31.7073 60.2908 34.9345 50.8769 34.1893 49.3283C34.1536 49.2653 34.1221 49.2001 34.095 49.1331C34.0109 48.9067 33.9432 48.6746 33.8923 48.4385C34.478 48.642 35.0837 48.7826 35.6991 48.858C36.3043 49.0057 36.929 49.0571 37.5501 49.0101C37.614 49.3973 37.7059 49.7794 37.8251 50.1533C37.9699 50.6027 38.159 51.0366 38.3896 51.4485C39.5258 53.5198 41.1467 54.6321 43.2815 56.0649C43.7266 56.3619 44.1461 56.644 44.5516 56.9044Z" fill="#C8D3D9" stroke="#C8D3D9" stroke-width="0.414" stroke-miterlimit="10"/>
<path d="M67.8728 61.6583C67.511 61.9047 67.3299 61.4631 64.9642 61.2894C63.8426 61.2013 63.546 61.2749 63.1626 61.0074C62.1208 60.2763 62.3521 58.2358 62.2371 58.2358C62.1283 58.2429 62.5337 60.1824 61.5496 61.1951C61.0719 61.6874 60.4479 61.7681 59.2342 61.9333C58.6284 62.0525 58.0068 62.0674 57.396 61.9774V56.9119C57.8014 56.6444 58.221 56.3624 58.6696 56.0653C60.8044 54.6326 62.4249 53.5185 63.5614 51.449C63.7892 51.0356 63.9782 50.602 64.126 50.1538C64.2378 49.7828 64.3296 49.406 64.401 49.0251C64.9991 49.0511 65.598 48.9951 66.181 48.8586C66.3692 48.8295 66.5428 48.7933 66.7098 48.7704C66.6957 48.8788 66.6882 48.937 66.6882 48.944C66.5847 49.7263 69.5951 60.4935 67.8728 61.6583Z" fill="#C8D3D9" stroke="#C8D3D9" stroke-width="0.414" stroke-miterlimit="10"/>
<path d="M57.3953 56.9115V65.0394C57.3909 66.616 56.7626 68.1267 55.6478 69.2415C54.533 70.3563 53.0223 70.9845 51.4458 70.9889H50.4978C48.9213 70.9845 47.4106 70.3563 46.2958 69.2415C45.181 68.1267 44.5528 66.616 44.5483 65.0394V56.9062C45.8697 57.8575 47.2916 58.6607 48.7883 59.3014C49.4135 59.5495 50.0676 59.7173 50.7349 59.8008C50.8072 59.8078 50.894 59.8149 50.9738 59.8224L51.2052 59.8008C52.7519 59.5474 54.227 58.9677 55.5324 58.1001C56.1217 57.7511 56.7303 57.3531 57.3953 56.9115Z" fill="white" stroke="#F4F7FB" stroke-width="0.401" stroke-miterlimit="10"/>
<path d="M37.5541 49.0101C36.933 49.0571 36.3083 49.0058 35.7032 48.8581C35.0877 48.7826 34.482 48.642 33.8963 48.4385C33.6519 48.3418 33.4229 48.2101 33.2163 48.0476C32.703 47.6808 32.3143 47.1658 32.1022 46.5717C31.8589 45.7814 31.9342 44.9274 32.312 44.1919C32.4181 43.9815 32.5492 43.7848 32.7024 43.6058C33.0842 43.1704 33.5591 42.8267 34.092 42.6001C34.4124 42.4421 34.7467 42.3138 35.0906 42.2167C35.8645 45.0372 36.8847 47.0499 37.1456 46.9705C37.3263 46.9124 37.0658 45.8688 36.8199 43.2003C36.8922 43.7291 36.9719 44.3219 37.0513 44.9808C37.265 46.8321 37.3734 48.0476 37.5541 49.0101Z" fill="white" stroke="#F4F7FB" stroke-width="0.414" stroke-miterlimit="10"/>
<path d="M69.783 46.5717C69.5704 47.1636 69.1847 47.6778 68.676 48.0476C68.0935 48.4549 67.4154 48.7043 66.7078 48.7713C66.5416 48.7929 66.368 48.829 66.1789 48.8594C65.596 48.9959 64.9971 49.052 64.3989 49.026C64.5435 48.2155 64.6448 47.2314 64.8039 45.8349C65.6607 44.7504 66.3085 43.5162 66.7144 42.1951C66.9642 42.2571 67.2086 42.3394 67.4451 42.441C67.5971 42.5063 67.7201 42.5644 67.7998 42.6005C68.5559 42.9119 69.1818 43.474 69.5723 44.1924C69.9503 44.9276 70.0259 45.7815 69.783 46.5717Z" fill="white" stroke="#F4F7FB" stroke-width="0.414" stroke-miterlimit="10"/>
<g filter="url(#filter0_d_5770_656)">
<path d="M65.2319 42.0562C65.233 42.3272 65.2161 42.598 65.1812 42.8667C65.1666 43.0187 65.145 43.1633 65.1234 43.3074C65.1159 43.336 65.1159 43.3651 65.1089 43.3955C64.87 44.7776 64.3998 45.9353 64.5801 45.986C64.6241 46.0005 64.703 45.9499 64.8044 45.834C64.6453 47.2306 64.5439 48.2138 64.3994 49.0251C64.328 49.406 64.2362 49.7827 64.1244 50.1537C63.9765 50.602 63.7876 51.0356 63.5598 51.449C62.4237 53.5203 60.8032 54.6326 58.668 56.0653C58.2194 56.3623 57.7998 56.6444 57.3944 56.9119C56.7289 57.3526 56.1208 57.7514 55.5351 58.0987C54.2297 58.9663 52.7546 59.546 51.2078 59.7994L50.9764 59.821C50.8967 59.8135 50.8098 59.8065 50.7376 59.7994C50.0702 59.7159 49.4161 59.5482 48.791 59.3001C47.2942 58.6593 45.8724 57.8561 44.551 56.9049C44.1455 56.6444 43.726 56.3623 43.2844 56.0653C41.1501 54.6326 39.5292 53.5185 38.3926 51.449C38.1619 51.037 37.9728 50.6031 37.828 50.1537C37.7088 49.7798 37.6169 49.3978 37.553 49.0106C37.3724 48.0481 37.2639 46.8326 37.0467 44.9803C36.9673 44.3215 36.8876 43.7283 36.8153 43.1999C36.7862 42.8526 36.7501 42.4763 36.721 42.0713C36.7064 41.876 36.6923 41.6662 36.6769 41.4565C36.6694 41.3243 36.5826 39.6112 36.6046 38.9004C36.6262 38.0754 36.8792 36.4906 38.616 34.3779C38.616 34.3704 38.616 34.3704 38.6231 34.3704C39.8287 32.955 41.2155 31.7045 42.7476 30.6513C43.6989 31.7934 44.7445 32.8536 45.8735 33.8204C47.0387 34.819 50.1065 37.424 54.2526 38.58C59.8606 40.1502 62.8851 37.7911 64.5351 39.7959C64.6261 39.9099 64.7083 40.0308 64.781 40.1573C65.0956 40.7396 65.2511 41.3946 65.2319 42.0562Z" fill="white" stroke="#F4F7FB" stroke-width="0.414" stroke-miterlimit="10"/>
</g>
<path d="M67.7717 39.5962C67.6483 40.6746 67.4967 41.9985 67.4967 41.9985C67.4822 42.1506 67.4676 42.2951 67.446 42.4392C67.2096 42.3373 66.9652 42.2549 66.7154 42.1929C66.3095 43.514 65.6616 44.7482 64.8049 45.8326C64.7035 45.9485 64.6242 45.9992 64.5806 45.9847C64.3999 45.934 64.8701 44.7763 65.1094 43.3942C65.1165 43.3651 65.1165 43.3361 65.124 43.3061C65.1456 43.1611 65.168 43.0166 65.1817 42.8654C65.2166 42.5967 65.2335 42.3259 65.2324 42.0549C65.2516 41.3948 65.0969 40.7413 64.7837 40.1599C64.711 40.0334 64.6288 39.9126 64.5378 39.7985C62.8878 37.7938 59.8633 40.1511 54.2553 38.5826C50.1092 37.4249 47.0415 34.8199 45.8762 33.823C44.7472 32.8562 43.7016 31.7961 42.7503 30.6539C41.2182 31.7072 39.8314 32.9577 38.6258 34.373C38.6187 34.373 38.6187 34.373 38.6187 34.3805C36.8819 36.4933 36.629 38.078 36.6074 38.903C36.5946 39.3821 36.6232 40.4993 36.6797 41.4591C36.7043 41.8844 36.7383 42.3519 36.8172 43.2025C37.0882 46.1354 37.2728 46.9326 37.1428 46.9727C36.8819 47.0521 35.8617 45.0407 35.0878 42.2189C34.744 42.316 34.4097 42.4443 34.0892 42.6023C33.5563 42.8289 33.0814 43.1726 32.6997 43.608C32.649 43.3982 32.5983 43.1809 32.5406 42.9566C32.5406 42.9566 32.1135 41.1621 31.8676 39.3243C31.5109 36.9048 31.5991 34.4405 32.1281 32.0527C32.5406 30.2582 33.6705 25.3448 37.729 23.1091C38.2517 22.8248 38.8021 22.5945 39.3715 22.4216C39.2391 22.2962 39.1224 22.1554 39.0238 22.002C38.4597 21.1409 38.4235 19.8457 38.8867 19.5997C39.1181 19.4768 39.4437 19.6438 39.6244 19.7373C39.7258 19.795 40.0078 19.9541 40.5724 20.8007C40.9126 21.3146 40.9778 21.5098 41.1012 21.4952C41.2965 21.4736 41.2749 20.9888 41.586 20.3159C41.8413 19.7807 42.212 19.3087 42.6715 18.9339C42.7155 18.8898 43.091 18.6734 43.8292 18.2393C44.1619 18.0441 44.3285 17.9427 44.4515 18.008C44.5744 18.0732 44.589 18.2464 44.589 18.9775C44.589 19.3609 44.589 19.6429 44.5744 19.8589C44.3459 20.2325 44.1866 20.6443 44.1042 21.0744C44.2229 20.9427 44.3249 20.7969 44.4078 20.6403C44.5206 20.3954 44.5776 20.1285 44.5744 19.8589C44.7187 19.6201 44.8994 19.4052 45.1099 19.2221C45.7239 18.722 46.4889 18.444 47.2808 18.4332C56.7162 17.7678 62.2647 22.4203 62.2647 22.4203C67.9004 27.5849 68.3107 31.2304 68.3067 32.623C68.3036 33.9548 67.9061 38.4209 67.7717 39.5962Z" fill="#C8D3D9" stroke="#C8D3D9" stroke-width="0.414" stroke-miterlimit="10"/>
<path d="M76.7381 84.3069C74.8034 85.6511 72.7637 86.8375 70.6388 87.8546C64.7047 90.6922 58.2089 92.1606 51.6313 92.1514C45.0522 92.1606 38.555 90.6922 32.6193 87.8546C30.3656 86.7756 28.2072 85.5077 26.1674 84.0645C26 83.9456 25.8369 83.8265 25.6738 83.7075C25.7469 82.6423 25.9105 81.5852 26.163 80.5477C26.3554 79.7525 26.5998 78.9708 26.8946 78.2076C27.2753 77.211 27.7367 76.247 28.274 75.3254C28.6221 74.726 29.0011 74.1413 29.411 73.5714H29.4154C29.7107 73.1571 30.0236 72.7561 30.3541 72.3638C30.4775 72.214 30.6009 72.0686 30.7287 71.9231C32.8693 69.5154 35.459 67.5483 38.3529 66.1323C39.0844 65.7665 39.838 65.4316 40.6137 65.1275C41.8964 64.6337 43.2131 64.2331 44.5536 63.9288V65.0394C44.5581 66.6147 45.1859 68.1242 46.2998 69.2381C47.4138 70.3521 48.9233 70.9799 50.4986 70.9844H51.4462C53.0219 70.98 54.532 70.3524 55.6467 69.2386C56.7613 68.1247 57.3901 66.6151 57.3957 65.0394V63.8362C68.2678 66.1411 76.3767 74.3867 76.7381 84.3069Z" fill="white" stroke="#F4F7FB" stroke-width="0.401" stroke-miterlimit="10"/>
<g filter="url(#filter1_d_5770_656)">
<path d="M43.0382 71.5495C42.8792 69.5938 42.2478 67.706 41.1982 66.0483C40.1486 64.3905 38.7122 63.0123 37.0124 62.0322C35.3126 61.0521 33.4002 60.4994 31.4397 60.4215C29.4791 60.3437 27.5289 60.743 25.7568 61.5852C23.9846 62.4274 22.4434 63.6873 21.2656 65.2566C20.0878 66.8259 19.3087 68.6577 18.9951 70.5946C18.6816 72.5315 18.843 74.5155 19.4654 76.3763C20.0879 78.237 21.1529 79.9188 22.5689 81.2772C22.5835 81.2949 22.5996 81.3114 22.6169 81.3265C24.3955 83.02 26.647 84.1329 29.0726 84.5173C31.4983 84.9018 33.9835 84.5398 36.1986 83.4792C38.4138 82.4187 40.2542 80.7098 41.4757 78.5792C42.6972 76.4486 43.2421 73.997 43.0382 71.5495Z" fill="#C8D3D9" stroke="#C8D3D9" stroke-width="0.5" stroke-linecap="round" stroke-linejoin="round"/>
</g>
<path d="M37.9645 79.2142C36.6467 80.5981 34.9481 81.5602 33.0835 81.9787C31.219 82.3973 29.2722 82.2536 27.4893 81.5658C25.7064 80.878 24.1675 79.6769 23.0671 78.1145C21.9668 76.5521 21.3545 74.6985 21.3076 72.7881C21.2607 70.8777 21.7813 68.9963 22.8037 67.3818C23.826 65.7673 25.3041 64.4922 27.0511 63.7177C28.7981 62.9432 30.7355 62.7041 32.6184 63.0307C34.5013 63.3573 36.245 64.2348 37.6291 65.5524C38.5485 66.4273 39.2864 67.4747 39.8008 68.6349C40.3152 69.795 40.596 71.0451 40.6272 72.3138C40.6583 73.5825 40.4392 74.8449 39.9823 76.0289C39.5255 77.2129 38.8398 78.2953 37.9645 79.2142Z" fill="#F4F7FB" stroke="#C8D3D9" stroke-width="0.5" stroke-linecap="round" stroke-linejoin="round"/>
<g filter="url(#filter2_d_5770_656)">
<path d="M21.0134 83.2712L20.7421 83.0112C20.0388 82.3373 18.9224 82.3611 18.2485 83.0643L11.0991 90.5245C10.4252 91.2277 10.4489 92.3442 11.1522 93.0181L11.4235 93.2781C12.1267 93.9521 13.2432 93.9283 13.9171 93.2251L21.0665 85.7649C21.7404 85.0616 21.7167 83.9452 21.0134 83.2712Z" fill="#C8D3D9" stroke="#C8D3D9" stroke-width="0.498623" stroke-linecap="round" stroke-linejoin="round"/>
</g>
<path d="M23.1294 82.6394L21.2765 80.8761C21.0057 80.6184 20.5772 80.629 20.3194 80.8998C20.0617 81.1707 20.0723 81.5992 20.3431 81.8569L22.196 83.6202C22.4668 83.878 22.8953 83.8673 23.1531 83.5965C23.4108 83.3257 23.4002 82.8971 23.1294 82.6394Z" fill="#C8D3D9" stroke="#C8D3D9" stroke-width="0.499724" stroke-linecap="round" stroke-linejoin="round"/>
<path d="M30.6512 75.0451C30.1046 75.0451 29.6909 74.7773 29.6614 74.537L28.8553 67.9595C28.7825 67.365 28.9606 66.7756 29.3439 66.3425C29.6839 65.9584 30.1481 65.7468 30.6512 65.7468C31.1542 65.7468 31.6184 65.9584 31.9584 66.3425C32.3417 66.7756 32.5198 67.365 32.447 67.9596L31.641 74.5371C31.6115 74.7773 31.1977 75.0451 30.6512 75.0451Z" fill="#C8D3D9"/>
<path d="M30.6511 74.6828C31.0047 74.6828 31.2344 74.5408 31.2837 74.4725L32.0872 67.9156C32.1474 67.4239 32.0015 66.9381 31.687 66.5826C31.4167 66.2773 31.0489 66.1092 30.6511 66.1092C30.2533 66.1092 29.8854 66.2773 29.6152 66.5826C29.3006 66.9381 29.1547 67.4239 29.2149 67.9155L30.0184 74.4726C30.0676 74.5408 30.2973 74.6828 30.6511 74.6828ZM30.6511 75.4074C29.9644 75.4074 29.3594 75.0518 29.3016 74.5811L28.4956 68.0036C28.3303 66.6537 29.2888 65.3845 30.6511 65.3845C32.0133 65.3845 32.9718 66.6537 32.8065 68.0036L32.0005 74.5811C31.9428 75.0518 31.3372 75.4074 30.6511 75.4074Z" fill="#C8D3D9"/>
<path d="M30.6509 78.841C31.3376 78.841 31.8942 78.2844 31.8942 77.5978C31.8942 76.9112 31.3376 76.3546 30.6509 76.3546C29.9643 76.3546 29.4077 76.9112 29.4077 77.5978C29.4077 78.2844 29.9643 78.841 30.6509 78.841Z" fill="#C8D3D9"/>
<path d="M30.651 78.4787C31.1375 78.4787 31.5319 78.0843 31.5319 77.5978C31.5319 77.1112 31.1375 76.7168 30.651 76.7168C30.1644 76.7168 29.77 77.1112 29.77 77.5978C29.77 78.0843 30.1644 78.4787 30.651 78.4787Z" stroke="#C8D3D9" stroke-width="1.644" stroke-miterlimit="10" stroke-linecap="round"/>
<defs>
<filter id="filter0_d_5770_656" x="30.394" y="27.3738" width="41.0464" height="41.6552" filterUnits="userSpaceOnUse" color-interpolation-filters="sRGB">
<feFlood flood-opacity="0" result="BackgroundImageFix"/>
<feColorMatrix in="SourceAlpha" type="matrix" values="0 0 0 0 0 0 0 0 0 0 0 0 0 0 0 0 0 0 127 0" result="hardAlpha"/>
<feOffset dy="3"/>
<feGaussianBlur stdDeviation="3"/>
<feColorMatrix type="matrix" values="0 0 0 0 0.784314 0 0 0 0 0.827451 0 0 0 0 0.85098 0 0 0 0.141 0"/>
<feBlend mode="normal" in2="BackgroundImageFix" result="effect1_dropShadow_5770_656"/>
<feBlend mode="normal" in="SourceGraphic" in2="effect1_dropShadow_5770_656" result="shape"/>
</filter>
<filter id="filter1_d_5770_656" x="12.5894" y="57.162" width="36.7407" height="36.7547" filterUnits="userSpaceOnUse" color-interpolation-filters="sRGB">
<feFlood flood-opacity="0" result="BackgroundImageFix"/>
<feColorMatrix in="SourceAlpha" type="matrix" values="0 0 0 0 0 0 0 0 0 0 0 0 0 0 0 0 0 0 127 0" result="hardAlpha"/>
<feOffset dy="3"/>
<feGaussianBlur stdDeviation="3"/>
<feColorMatrix type="matrix" values="0 0 0 0 0.784314 0 0 0 0 0.827451 0 0 0 0 0.85098 0 0 0 0.302 0"/>
<feBlend mode="normal" in2="BackgroundImageFix" result="effect1_dropShadow_5770_656"/>
<feBlend mode="normal" in="SourceGraphic" in2="effect1_dropShadow_5770_656" result="shape"/>
</filter>
<filter id="filter2_d_5770_656" x="4.35938" y="79.2716" width="23.4468" height="23.7462" filterUnits="userSpaceOnUse" color-interpolation-filters="sRGB">
<feFlood flood-opacity="0" result="BackgroundImageFix"/>
<feColorMatrix in="SourceAlpha" type="matrix" values="0 0 0 0 0 0 0 0 0 0 0 0 0 0 0 0 0 0 127 0" result="hardAlpha"/>
<feOffset dy="3"/>
<feGaussianBlur stdDeviation="3"/>
<feColorMatrix type="matrix" values="0 0 0 0 0.784314 0 0 0 0 0.827451 0 0 0 0 0.85098 0 0 0 0.302 0"/>
<feBlend mode="normal" in2="BackgroundImageFix" result="effect1_dropShadow_5770_656"/>
<feBlend mode="normal" in="SourceGraphic" in2="effect1_dropShadow_5770_656" result="shape"/>
</filter>
</defs>
</svg>
