<svg width="110" height="101" viewBox="0 0 110 101" fill="none" xmlns="http://www.w3.org/2000/svg">
<path d="M104.39 52.1047C104.376 64.7364 99.4788 76.8734 90.7233 85.9784C81.9679 95.0834 70.0317 100.451 57.4103 100.96C44.7889 101.469 32.4593 97.0793 22.9994 88.7087C13.5394 80.338 7.68136 68.6345 6.65 56.0451C5.61864 43.4556 9.49378 30.9547 17.4653 21.156C25.4368 11.3574 36.8875 5.01943 49.4234 3.4673C61.9594 1.91518 74.61 5.26903 84.7306 12.8277C94.8512 20.3863 101.658 31.5645 103.728 44.0254C104.171 46.6956 104.393 49.398 104.39 52.1047Z" fill="#F4F7FB"/>
<path d="M89.9962 37.6389V90.9033C89.9931 91.8579 89.6122 92.7726 88.9368 93.4472C88.2613 94.1219 87.3463 94.5018 86.3916 94.5039H15.1488C14.1947 94.5012 13.2805 94.1209 12.6058 93.4463C11.9311 92.7716 11.5509 91.8574 11.5482 90.9033V37.6389C11.5509 36.6848 11.9311 35.7706 12.6058 35.0959C13.2805 34.4213 14.1947 34.041 15.1488 34.0383H86.3921C87.3467 34.0404 88.2617 34.4203 88.9371 35.095C89.6124 35.7697 89.9932 36.6843 89.9962 37.6389Z" fill="white"/>
<path d="M89.9962 66.5797V90.9034C89.9931 91.8581 89.6122 92.7727 88.9368 93.4474C88.2613 94.1221 87.3463 94.5019 86.3916 94.504H15.1488C14.1947 94.5013 13.2805 94.1211 12.6058 93.4464C11.9311 92.7718 11.5509 91.8575 11.5482 90.9034V82.5221L29.1389 68.5717C30.3813 67.5877 31.9241 67.0604 33.509 67.0782C35.0938 67.0961 36.6243 67.658 37.8443 68.6698L41.1488 71.4153C42.3932 72.4499 43.9615 73.0144 45.5798 73.01C47.1981 73.0056 48.7634 72.4327 50.0022 71.3913L68.0371 56.2486C69.2547 55.2259 70.7879 54.6547 72.3778 54.6314C73.9677 54.608 75.517 55.1341 76.7641 56.1206L89.9962 66.5797Z" fill="#C8D3D9"/>
<path d="M33.978 58.9847C39.6615 58.9847 44.2689 54.3773 44.2689 48.6938C44.2689 43.0102 39.6615 38.4028 33.978 38.4028C28.2944 38.4028 23.687 43.0102 23.687 48.6938C23.687 54.3773 28.2944 58.9847 33.978 58.9847Z" fill="#F4F7FB"/>
<path d="M60.0039 16.5967C59.5446 16.5967 59.197 16.3717 59.1721 16.1699L58.4946 10.642C58.4335 10.1422 58.5832 9.64668 58.9054 9.28268C59.1911 8.95998 59.5812 8.78223 60.0039 8.78223C60.4269 8.78223 60.8172 8.9601 61.103 9.28304C61.425 9.64704 61.5746 10.1423 61.5133 10.642L60.8357 16.1699C60.8109 16.3717 60.4632 16.5967 60.0039 16.5967Z" fill="white"/>
<path d="M60.0039 16.2922C60.3009 16.2922 60.494 16.1729 60.5355 16.1156L61.2109 10.605C61.2616 10.1918 61.1391 9.78362 60.8748 9.48491C60.6477 9.22822 60.3383 9.0868 60.0039 9.0868C59.6695 9.0868 59.3604 9.2281 59.1334 9.48461C58.869 9.78332 58.7463 10.1918 58.7968 10.605L59.4722 16.1155C59.5138 16.1729 59.7069 16.2922 60.0039 16.2922ZM60.0039 16.9013C59.4273 16.9013 58.9184 16.6022 58.8698 16.207L58.1923 10.6791C58.0535 9.54416 58.8591 8.47778 60.0039 8.47778C61.1487 8.47778 61.9547 9.54416 61.8155 10.6791L61.1379 16.207C61.0893 16.6022 60.5809 16.9013 60.0039 16.9013Z" fill="white"/>
<path d="M60.0039 19.7871C60.5809 19.7871 61.0487 19.3193 61.0487 18.7423C61.0487 18.1653 60.5809 17.6975 60.0039 17.6975C59.4269 17.6975 58.9591 18.1653 58.9591 18.7423C58.9591 19.3193 59.4269 19.7871 60.0039 19.7871Z" fill="white"/>
<path d="M60.0039 19.4826C60.4127 19.4826 60.7442 19.1511 60.7442 18.7423C60.7442 18.3334 60.4127 18.002 60.0039 18.002C59.595 18.002 59.2635 18.3334 59.2635 18.7423C59.2635 19.1511 59.595 19.4826 60.0039 19.4826Z" stroke="white" stroke-width="1.242" stroke-miterlimit="10" stroke-linecap="round"/>
<path d="M79.19 5.03499C80.3042 5.03499 81.2075 4.13173 81.2075 3.0175C81.2075 1.90326 80.3042 1 79.19 1C78.0757 1 77.1725 1.90326 77.1725 3.0175C77.1725 4.13173 78.0757 5.03499 79.19 5.03499Z" stroke="#F4F7FB" stroke-width="1.307" stroke-miterlimit="10"/>
<path d="M5.48539 80.2069C7.41032 80.2069 8.97078 78.6464 8.97078 76.7215C8.97078 74.7965 7.41032 73.2361 5.48539 73.2361C3.56046 73.2361 2 74.7965 2 76.7215C2 78.6464 3.56046 80.2069 5.48539 80.2069Z" stroke="#F4F7FB" stroke-width="2.258" stroke-miterlimit="10"/>
<path d="M29.5738 10.9094C28.2985 9.63354 26.643 8.80677 24.8568 8.55371C23.0707 8.30065 21.2507 8.63499 19.6712 9.50638C18.0916 10.3778 16.8381 11.7389 16.0995 13.3848C15.3609 15.0306 15.1773 16.872 15.5763 18.6313C15.995 20.4699 17.025 22.1121 18.498 23.2894C19.971 24.4667 21.7999 25.1096 23.6856 25.1128C23.8522 25.1128 24.0238 25.1078 24.1905 25.0931C26.2214 24.9741 28.1376 24.112 29.5738 22.6712C31.1303 21.1098 32.0044 18.995 32.0044 16.7903C32.0044 14.5856 31.1303 12.4708 29.5738 10.9094ZM26.7645 19.8618C26.7223 19.9067 26.6715 19.9425 26.615 19.967C26.5585 19.9914 26.4976 20.004 26.436 20.004C26.3744 20.004 26.3135 19.9914 26.257 19.967C26.2005 19.9425 26.1497 19.9067 26.1075 19.8618L23.6561 17.4153L21.9549 19.1167L21.2342 19.8374C21.1567 19.9169 21.051 19.9627 20.94 19.9648C20.8848 19.9647 20.8303 19.9534 20.7798 19.9314C20.7292 19.9095 20.6836 19.8775 20.6458 19.8374C20.6062 19.7988 20.5748 19.7526 20.5533 19.7017C20.5318 19.6507 20.5208 19.596 20.5208 19.5407C20.5208 19.4855 20.5318 19.4307 20.5533 19.3798C20.5748 19.3288 20.6062 19.2827 20.6458 19.2441L23.0678 16.8221L21.0086 14.7728L20.6066 14.3756C20.5216 14.2874 20.4742 14.1696 20.4742 14.0471C20.4742 13.9246 20.5216 13.8069 20.6066 13.7187C20.6491 13.6745 20.7002 13.6393 20.7566 13.6153C20.813 13.5913 20.8738 13.5789 20.9351 13.5789C20.9964 13.5789 21.0571 13.5913 21.1136 13.6153C21.17 13.6393 21.221 13.6745 21.2636 13.7187L22.7246 15.1797L23.715 16.1652L24.0729 15.8073L26.132 13.7432C26.1716 13.7035 26.2186 13.6721 26.2703 13.6506C26.3221 13.6292 26.3775 13.6181 26.4336 13.6181C26.4896 13.6181 26.545 13.6292 26.5968 13.6506C26.6485 13.6721 26.6955 13.7035 26.7351 13.7432C26.8106 13.8235 26.8527 13.9295 26.8527 14.0398C26.8527 14.15 26.8106 14.2562 26.7351 14.3364L24.7985 16.2828L24.3131 16.7682L26.7645 19.2147C26.8471 19.3022 26.8932 19.418 26.8932 19.5383C26.8932 19.6586 26.8471 19.7744 26.7645 19.8618Z" fill="#C8D3D9"/>
<path d="M41.9612 27.8461C41.8912 27.8463 41.822 27.8309 41.7587 27.801C41.7162 27.7857 41.6778 27.7608 41.6466 27.7282C41.6153 27.6957 41.5919 27.6564 41.5782 27.6133C41.5646 27.5703 41.561 27.5246 41.5678 27.48C41.5746 27.4353 41.5916 27.3929 41.6175 27.3558L43.0579 25.3712C43.1233 25.2939 43.2127 25.2406 43.3117 25.2197C43.4108 25.1989 43.514 25.2116 43.6051 25.256C43.6475 25.2713 43.6859 25.2962 43.7172 25.3288C43.7485 25.3613 43.7719 25.4007 43.7855 25.4437C43.7992 25.4868 43.8028 25.5324 43.7959 25.577C43.7891 25.6217 43.7721 25.6641 43.7463 25.7011L42.3058 27.6858C42.2648 27.7374 42.2123 27.7788 42.1525 27.8067C42.0926 27.8345 42.0271 27.848 41.9612 27.8461Z" fill="white"/>
<path d="M43.4604 27.8461C43.3902 27.8463 43.3208 27.8307 43.2574 27.8005C43.215 27.7851 43.1768 27.7601 43.1456 27.7275C43.1144 27.6949 43.0911 27.6556 43.0775 27.6125C43.064 27.5695 43.0605 27.5239 43.0674 27.4793C43.0743 27.4347 43.0913 27.3923 43.1172 27.3554L44.5586 25.3707C44.6238 25.2932 44.7133 25.2397 44.8125 25.219C44.9117 25.1983 45.015 25.2115 45.1058 25.2565C45.1482 25.2719 45.1864 25.2969 45.2176 25.3295C45.2488 25.3621 45.2721 25.4015 45.2857 25.4445C45.2992 25.4876 45.3027 25.5331 45.2958 25.5777C45.2889 25.6223 45.2719 25.6647 45.246 25.7016L43.8051 27.6863C43.7639 27.7379 43.7114 27.7791 43.6516 27.8069C43.5918 27.8346 43.5263 27.848 43.4604 27.8461Z" fill="white"/>
<path d="M45.1357 27.8461C45.0653 27.8463 44.9958 27.8308 44.9322 27.8005C44.8898 27.7851 44.8516 27.7601 44.8204 27.7275C44.7892 27.6949 44.7659 27.6556 44.7524 27.6125C44.7388 27.5695 44.7353 27.5239 44.7422 27.4793C44.7491 27.4347 44.7661 27.3923 44.792 27.3554L46.2334 25.3707C46.2987 25.2932 46.388 25.2397 46.4872 25.219C46.5864 25.1983 46.6898 25.2115 46.7806 25.2565C46.823 25.2719 46.8612 25.2969 46.8924 25.3295C46.9236 25.3621 46.9469 25.4015 46.9604 25.4445C46.974 25.4876 46.9775 25.5331 46.9706 25.5777C46.9637 25.6223 46.9467 25.6647 46.9208 25.7016L45.4799 27.6863C45.4388 27.7378 45.3863 27.779 45.3266 27.8067C45.2669 27.8345 45.2015 27.848 45.1357 27.8461Z" fill="white"/>
<g filter="url(#filter0_d_2374_379816)">
<path d="M67.512 32.1475C67.6888 29.9718 68.3913 27.8716 69.559 26.0274C70.7267 24.1831 72.3247 22.6499 74.2157 21.5596C76.1067 20.4692 78.2342 19.8543 80.4153 19.7677C82.5964 19.6811 84.7659 20.1253 86.7374 21.0622C88.709 21.9992 90.4235 23.4008 91.7338 25.1466C93.0441 26.8925 93.9109 28.9303 94.2597 31.0851C94.6086 33.2399 94.429 35.4471 93.7365 37.5172C93.044 39.5873 91.8592 41.4583 90.284 42.9694C90.2677 42.9891 90.2498 43.0074 90.2305 43.0243C88.2518 44.9083 85.7471 46.1463 83.0486 46.5741C80.3501 47.0018 77.5853 46.599 75.121 45.4192C72.6566 44.2393 70.6092 42.3382 69.2503 39.9679C67.8913 37.5976 67.2851 34.8702 67.512 32.1475Z" fill="#C8D3D9" stroke="#C8D3D9" stroke-width="0.5" stroke-linecap="round" stroke-linejoin="round"/>
</g>
<path d="M73.158 40.6753C74.6241 42.2149 76.5138 43.2852 78.5881 43.7508C80.6624 44.2165 82.8282 44.0566 84.8117 43.2914C86.7951 42.5262 88.5071 41.1901 89.7312 39.4519C90.9553 37.7138 91.6365 35.6516 91.6887 33.5263C91.7409 31.401 91.1617 29.308 90.0244 27.5119C88.887 25.7157 87.2426 24.2972 85.2991 23.4356C83.3556 22.574 81.2002 22.308 79.1056 22.6713C77.0109 23.0346 75.071 24.0109 73.5312 25.4767C72.5084 26.45 71.6875 27.6153 71.1152 28.9059C70.5429 30.1966 70.2305 31.5873 70.1959 32.9987C70.1612 34.4101 70.405 35.8145 70.9132 37.1317C71.4215 38.4489 72.1843 39.653 73.158 40.6753Z" fill="#F4F7FB" stroke="#C8D3D9" stroke-width="0.5" stroke-linecap="round" stroke-linejoin="round"/>
<g filter="url(#filter1_d_2374_379816)">
<path d="M102.673 56.3889L102.975 56.1C103.757 55.3502 103.783 54.1082 103.034 53.3258L95.0801 45.0264C94.3303 44.2441 93.0883 44.2177 92.3059 44.9674L92.0045 45.2563C91.2221 46.0061 91.1957 47.2481 91.9454 48.0305L99.899 56.3299C100.649 57.1122 101.891 57.1387 102.673 56.3889Z" fill="#C8D3D9" stroke="#C8D3D9" stroke-width="0.498623" stroke-linecap="round" stroke-linejoin="round"/>
</g>
<path d="M90.7002 45.5775L92.7614 43.6159C93.0627 43.3291 93.0746 42.8524 92.7878 42.5511C92.5011 42.2498 92.0243 42.238 91.723 42.5247L89.6618 44.4863C89.3604 44.7731 89.3486 45.2498 89.6354 45.5511C89.9221 45.8524 90.3988 45.8642 90.7002 45.5775Z" fill="#C8D3D9" stroke="#C8D3D9" stroke-width="0.499724" stroke-linecap="round" stroke-linejoin="round"/>
<defs>
<filter id="filter0_d_2374_379816" x="61.2155" y="16.5071" width="39.4675" height="39.4832" filterUnits="userSpaceOnUse" color-interpolation-filters="sRGB">
<feFlood flood-opacity="0" result="BackgroundImageFix"/>
<feColorMatrix in="SourceAlpha" type="matrix" values="0 0 0 0 0 0 0 0 0 0 0 0 0 0 0 0 0 0 127 0" result="hardAlpha"/>
<feOffset dy="3"/>
<feGaussianBlur stdDeviation="3"/>
<feColorMatrix type="matrix" values="0 0 0 0 0.784314 0 0 0 0 0.827451 0 0 0 0 0.85098 0 0 0 0.302 0"/>
<feBlend mode="normal" in2="BackgroundImageFix" result="effect1_dropShadow_2374_379816"/>
<feBlend mode="normal" in="SourceGraphic" in2="effect1_dropShadow_2374_379816" result="shape"/>
</filter>
<filter id="filter1_d_2374_379816" x="85.1506" y="41.1726" width="24.6779" height="25.011" filterUnits="userSpaceOnUse" color-interpolation-filters="sRGB">
<feFlood flood-opacity="0" result="BackgroundImageFix"/>
<feColorMatrix in="SourceAlpha" type="matrix" values="0 0 0 0 0 0 0 0 0 0 0 0 0 0 0 0 0 0 127 0" result="hardAlpha"/>
<feOffset dy="3"/>
<feGaussianBlur stdDeviation="3"/>
<feColorMatrix type="matrix" values="0 0 0 0 0.784314 0 0 0 0 0.827451 0 0 0 0 0.85098 0 0 0 0.302 0"/>
<feBlend mode="normal" in2="BackgroundImageFix" result="effect1_dropShadow_2374_379816"/>
<feBlend mode="normal" in="SourceGraphic" in2="effect1_dropShadow_2374_379816" result="shape"/>
</filter>
</defs>
</svg>
