<svg width="24" height="24" viewBox="0 0 24 24" fill="none" xmlns="http://www.w3.org/2000/svg">
<path d="M19.7989 18.8457L15.8254 14.9229C15.8254 14.9229 15.7721 14.8778 15.7454 14.8598C16.6877 13.6513 17.2032 12.1634 17.1766 10.6033C17.1499 8.81769 16.4476 7.14034 15.1854 5.89585C13.9231 4.65137 12.2431 3.95698 10.5008 4.00207C8.74073 4.02912 7.09623 4.74154 5.86953 6.02209C3.32722 8.66437 3.38945 12.9028 5.98509 15.482C7.22957 16.7084 8.85629 17.3758 10.5808 17.3758H10.6786C12.2164 17.3487 13.6742 16.8076 14.8298 15.8066C14.8565 15.8337 14.8743 15.8607 14.9009 15.8878L18.8655 19.8106C18.9988 19.9369 19.1677 20 19.3366 20C19.5055 20 19.6833 19.9369 19.8078 19.8016C20.0655 19.5311 20.0655 19.1072 19.7989 18.8457ZM10.6608 16.0231C9.26519 16.0231 7.93182 15.5 6.91845 14.508C4.83838 12.461 4.79394 9.07019 6.82067 6.969C7.85181 5.89586 9.22075 5.35477 10.5897 5.35477C11.9586 5.35477 13.2387 5.85977 14.252 6.86979C16.3321 8.91687 16.3765 12.2986 14.3498 14.4089C13.372 15.4279 12.0653 16.005 10.6608 16.0231Z" fill="#8798A1"/>
</svg>
