<svg width="24" height="24" viewBox="0 0 24 24" fill="none" xmlns="http://www.w3.org/2000/svg">
<path d="M21.3321 12.827L13.9251 20.233C13.409 20.7373 12.7161 21.0197 11.9946 21.0197C11.273 21.0197 10.5801 20.7373 10.0641 20.233L5.76407 15.911L2.68005 12.827C1.61386 11.7412 1.01957 10.2785 1.02643 8.75677C1.03328 7.2351 1.64074 5.77767 2.71667 4.7016C3.79261 3.62553 5.24996 3.01791 6.77163 3.01086C8.29331 3.00382 9.75622 3.59794 10.8421 4.664L11.9961 5.83899L13.1711 4.664C14.2571 3.58861 15.7237 2.98535 17.2521 2.98535C18.7804 2.98535 20.247 3.58861 21.3331 4.664C22.4019 5.75372 23.0006 7.21925 23.0004 8.74567C23.0002 10.2721 22.4012 11.7375 21.3321 12.827Z" fill="white"/>
<path d="M11.9945 19.8304C12.4068 19.8304 12.795 19.6732 13.0884 19.3875L20.4886 11.9883C22.2578 10.1996 22.2575 7.29092 20.4879 5.50247C19.6308 4.64688 18.485 4.17575 17.261 4.17575C16.0069 4.17575 14.8555 4.64511 14.019 5.49747L14.0111 5.5054L11.9874 7.52908L9.99591 5.50143C9.13522 4.64279 7.98627 4.17001 6.76001 4.17001C5.53381 4.17001 4.38489 4.64279 3.52423 5.50131C2.66354 6.38016 2.18958 7.52847 2.18958 8.7352C2.18958 9.97275 2.66223 11.1273 3.52017 11.9861L6.6062 15.0721L10.9013 19.3882C11.1946 19.6734 11.5826 19.8304 11.9945 19.8304ZM11.9945 21.0199C11.2968 21.0199 10.599 20.7577 10.064 20.2332L5.763 15.9112L2.67902 12.8272C1.56702 11.7142 1 10.2252 1 8.7352C1 7.2662 1.56702 5.79721 2.67902 4.66422C4.92401 2.41922 8.59601 2.41922 10.841 4.66422L11.995 5.8392L13.17 4.66422C14.282 3.53122 15.772 2.98618 17.261 2.98618C18.73 2.98618 20.199 3.53122 21.332 4.66422C23.556 6.91019 23.556 10.5812 21.332 12.8272L13.925 20.2332C13.39 20.7577 12.6923 21.0199 11.9945 21.0199Z" fill="#607079"/>
<path d="M7.34082 14.1508V8.71875L9.87582 14.1508V8.71875" stroke="#607079" stroke-width="0.733" stroke-linecap="round" stroke-linejoin="round"/>
<path d="M16.0736 14.1488C16.7734 14.1488 17.3406 12.9328 17.3406 11.4328C17.3406 9.93279 16.7734 8.7168 16.0736 8.7168C15.3739 8.7168 14.8066 9.93279 14.8066 11.4328C14.8066 12.9328 15.3739 14.1488 16.0736 14.1488Z" stroke="#607079" stroke-width="0.677" stroke-linecap="round" stroke-linejoin="round"/>
<path d="M13.6058 11.4509C13.5998 12.9409 13.0348 14.1439 12.3388 14.1439C11.6428 14.1439 11.0708 12.9279 11.0708 11.4279C11.0708 9.92786 11.6388 8.71289 12.3388 8.71289C12.8318 8.71289 13.2588 9.31286 13.4678 10.1959" stroke="#607079" stroke-width="0.677" stroke-linecap="round" stroke-linejoin="round"/>
<path d="M12.3418 11.8326V11.4326H13.6058" stroke="#607079" stroke-width="0.677" stroke-linecap="round" stroke-linejoin="round"/>
</svg>
