<svg width="24" height="24" viewBox="0 0 24 24" fill="none" xmlns="http://www.w3.org/2000/svg">
<path d="M14.8697 18.68L20.0298 6.69999C20.2898 6.09999 20.1998 5.40995 19.7898 4.90995C19.3798 4.39995 18.7398 4.15994 18.0898 4.27994L5.27977 6.67997C4.55977 6.80997 4.02975 7.32994 3.87975 8.02994C3.72975 8.73994 4.00978 9.43 4.59978 9.84L8.96977 12.87L9.26976 13.07C9.36976 13.14 9.45975 13.25 9.50975 13.37L9.63976 13.71L11.6297 18.64C11.6997 18.81 11.7898 18.95 11.8898 19.09C12.2098 19.49 12.6898 19.73 13.2298 19.74C13.9598 19.75 14.5797 19.35 14.8697 18.68ZM13.2497 18.67C13.1397 18.67 12.7797 18.63 12.6197 18.24L10.5198 13.01L15.3298 9.16996C15.5598 8.97996 15.5898 8.63996 15.4098 8.41996C15.2198 8.18996 14.8898 8.15 14.6598 8.34L9.84978 12.18L5.20976 8.97001C4.85976 8.73001 4.90974 8.37005 4.93974 8.27005C4.94974 8.16005 5.05978 7.82002 5.47978 7.74002L18.2998 5.34C18.5498 5.29 18.7897 5.4 18.9397 5.59C19.0897 5.77 19.1398 6.03005 19.0498 6.27005L13.8898 18.25C13.7098 18.64 13.3497 18.67 13.2497 18.67Z" fill="#8798A1"/>
</svg>
