<svg width="24" height="24" viewBox="0 0 24 24" fill="none" xmlns="http://www.w3.org/2000/svg">
<path d="M9 9L15 15" stroke="#8798A1" stroke-miterlimit="10" stroke-linecap="round"/>
<path d="M9 15L15 9" stroke="#8798A1" stroke-miterlimit="10" stroke-linecap="round"/>
<path d="M20.5 12C20.5 7.31386 16.6861 3.5 12 3.5M20.5 12C20.5 16.6861 16.6861 20.5 12 20.5M20.5 12C20.5 16.6939 16.6939 20.5 12 20.5M20.5 12C20.5 7.30614 16.6939 3.5 12 3.5M12 3.5C7.31386 3.5 3.5 7.31386 3.5 12M12 3.5C7.30614 3.5 3.5 7.30614 3.5 12M12 20.5C7.31386 20.5 3.5 16.6861 3.5 12M12 20.5C7.30614 20.5 3.5 16.6939 3.5 12" fill="#BF283A" stroke="#8798A1"/>
</svg>
