<svg width="24" height="24" viewBox="0 0 24 24" fill="none" xmlns="http://www.w3.org/2000/svg">
<path d="M8.46758 16.4259C8.20203 16.4259 7.93648 16.328 7.72683 16.1184C7.32152 15.7131 7.32152 15.0422 7.72683 14.6369L15.6374 6.72635C16.0427 6.32104 16.7136 6.32104 17.1189 6.72635C17.5242 7.13166 17.5242 7.80252 17.1189 8.20783L9.20832 16.1184C9.01265 16.328 8.73312 16.4259 8.46758 16.4259Z" fill="#354752"/>
<path d="M16.3781 16.4259C16.1126 16.4259 15.847 16.328 15.6374 16.1184L7.72683 8.20783C7.32152 7.80252 7.32152 7.13166 7.72683 6.72635C8.13215 6.32104 8.803 6.32104 9.20832 6.72635L17.1189 14.6369C17.5242 15.0422 17.5242 15.7131 17.1189 16.1184C16.9092 16.328 16.6437 16.4259 16.3781 16.4259Z" fill="#354752"/>
</svg>
