<svg width="24" height="24" viewBox="0 0 24 24" fill="none" xmlns="http://www.w3.org/2000/svg">
<path d="M8.91022 19.93L7.36023 19.96C6.51023 19.96 6.49023 19.33 6.49023 19.26C6.49023 18.84 6.82022 18.59 7.48022 18.5C8.21022 18.41 8.52022 18.22 8.66022 18.08C8.78022 17.96 9.02025 17.61 9.26025 16.65L10.4502 12.3L11.5002 8.38C11.8602 7.01 11.9002 6.73 11.9002 6.67C11.9002 6.48 11.9002 6.01 10.6802 5.93C9.90024 5.86 9.86023 5.31 9.86023 5.2C9.86023 4.89 10.0302 4.65 10.3102 4.56C10.4202 4.52 10.5802 4.5 11.0502 4.5L16.9002 4.61L16.9902 4.65C17.4402 4.84 17.4802 5.18 17.4802 5.31C17.4802 5.63 17.2603 5.98 16.7603 6.02C16.0303 6.09 15.7302 6.22 15.6202 6.29C15.4302 6.41 15.2702 6.62 15.1402 6.89C15.0302 7.12 14.7602 7.87 14.1102 10.12C13.5802 11.95 13.1102 13.67 12.7202 15.23C12.2002 17.31 12.1402 17.81 12.1402 17.92C12.1402 18.14 12.1402 18.46 12.9202 18.53C13.7902 18.6 13.9202 19.03 13.9202 19.29C13.9202 19.45 13.8502 19.99 12.9702 19.99L8.91022 19.93Z" fill="#354752"/>
<path d="M11.05 5L16.8 5.11C16.92 5.16 16.99 5.23 16.99 5.31C16.99 5.44 16.9 5.51 16.73 5.52C16.08 5.58 15.63 5.7 15.36 5.87C15.09 6.05 14.88 6.31 14.7 6.67C14.53 7.03 14.17 8.13 13.64 9.98C13.11 11.82 12.64 13.53 12.25 15.11C11.86 16.69 11.66 17.63 11.66 17.93C11.66 18.6 12.07 18.97 12.9 19.04C13.26 19.07 13.44 19.16 13.44 19.3C13.44 19.43 13.29 19.5 13 19.5L8.92999 19.43L7.35999 19.46C7.11999 19.46 7 19.39 7 19.26C7 19.13 7.19 19.04 7.56 18.99C8.25 18.9 8.73996 18.71 9.01996 18.43C9.29996 18.15 9.54 17.59 9.75 16.77L10.93 12.43L11.98 8.51C12.26 7.45 12.4 6.84 12.4 6.68C12.4 5.92 11.84 5.51 10.71 5.43C10.48 5.41 10.36 5.33 10.36 5.2C10.36 5.11 10.4 5.05 10.47 5.03C10.54 5.01 10.73 5 11.05 5ZM11.06 4C10.58 4 10.35 4.02 10.16 4.08C9.66997 4.23 9.35999 4.67 9.35999 5.2C9.35999 5.75 9.75 6.35 10.62 6.43C11.22 6.47 11.38 6.6 11.4 6.62C11.4 6.62 11.4 6.64 11.4 6.69C11.4 6.69 11.35 6.98 11.01 8.26L9.95996 12.18L8.77997 16.52C8.53997 17.49 8.33 17.72 8.31 17.74C8.29 17.76 8.10999 17.92 7.42999 18.01C6.17999 18.18 6 18.87 6 19.27C6 19.85 6.42999 20.47 7.35999 20.47L8.94995 20.44L12.99 20.51C14.15 20.51 14.45 19.76 14.45 19.31C14.45 19.04 14.35 18.17 12.99 18.06C12.81 18.05 12.71 18.01 12.67 18C12.67 17.99 12.67 17.97 12.67 17.96C12.67 17.88 12.72 17.42 13.23 15.39C13.62 13.83 14.08 12.12 14.61 10.29C15.31 7.86 15.55 7.28 15.61 7.13C15.7 6.94 15.8 6.8 15.91 6.73C15.92 6.72 16.11 6.6 16.82 6.54C17.5 6.48 17.99 5.98 17.99 5.33C17.99 4.84 17.69 4.42 17.19 4.21L17.01 4.14H16.82L11.06 4Z" fill="#354752"/>
</svg>
