<svg width="24" height="24" viewBox="0 0 24 24" fill="none" xmlns="http://www.w3.org/2000/svg">
<path d="M17.07 3.54022H16.47V3.19025C16.47 2.78025 16.13 2.4502 15.68 2.4502C15.27 2.4502 14.94 2.78025 14.94 3.19025V3.54022H9.06V3.19025C9.06 2.78025 8.72002 2.4502 8.27002 2.4502C7.86002 2.4502 7.53003 2.78025 7.53003 3.19025V3.54022H6.91998C4.75998 3.54022 3 5.3002 3 7.46021V17.6102C3 19.7702 4.75998 21.5402 6.91998 21.5402H17.07C19.24 21.5402 21 19.7702 21 17.6102V7.46021C21 5.3002 19.24 3.54022 17.07 3.54022ZM20 17.6102C20 19.2202 18.68 20.5402 17.07 20.5402H6.91998C5.30998 20.5402 4 19.2202 4 17.6102V9.19025H20V17.6102ZM20 8.19025H4V7.46021C4 5.8502 5.30998 4.54022 6.91998 4.54022H7.53003V6.0802C7.53003 6.4902 7.86002 6.82025 8.27002 6.82025H8.32001C8.72001 6.82025 9.06 6.4902 9.06 6.0802V4.54022H14.94V6.0802C14.94 6.4902 15.27 6.82025 15.68 6.82025H15.72C16.13 6.82025 16.47 6.4902 16.47 6.0802V4.54022H17.07C18.68 4.54022 20 5.8502 20 7.46021V8.19025Z" fill="#607079"/>
<path d="M8.78986 12.1802V12.7502C8.78986 13.2702 8.39988 13.6802 7.93988 13.6802H7.24988C6.77988 13.6802 6.3999 13.2702 6.3999 12.7502V12.1802C6.3999 11.6602 6.78988 11.2402 7.24988 11.2402H7.93988C8.39988 11.2402 8.78986 11.6602 8.78986 12.1802Z" fill="#607079"/>
<path d="M13.2001 12.1802V12.7502C13.2001 13.2702 12.81 13.6802 12.35 13.6802H11.67C11.19 13.6802 10.8101 13.2702 10.8101 12.7502V12.1802C10.8101 11.6602 11.2 11.2402 11.67 11.2402H12.35C12.82 11.2402 13.2001 11.6602 13.2001 12.1802Z" fill="#607079"/>
<path d="M17.61 12.1802V12.7502C17.61 13.2702 17.22 13.6802 16.76 13.6802H16.08C15.6 13.6802 15.23 13.2702 15.23 12.7502V12.1802C15.23 11.6602 15.61 11.2402 16.08 11.2402H16.76C17.22 11.2402 17.61 11.6602 17.61 12.1802Z" fill="#607079"/>
<path d="M8.78986 16.19V16.7599C8.78986 17.2799 8.39988 17.69 7.93988 17.69H7.24988C6.77988 17.69 6.3999 17.2799 6.3999 16.7599V16.19C6.3999 15.67 6.78988 15.25 7.24988 15.25H7.93988C8.39988 15.26 8.78986 15.68 8.78986 16.19Z" fill="#607079"/>
<path d="M13.2001 16.19V16.7599C13.2001 17.2799 12.81 17.69 12.35 17.69H11.67C11.19 17.69 10.8101 17.2799 10.8101 16.7599V16.19C10.8101 15.67 11.2 15.25 11.67 15.25H12.35C12.82 15.26 13.2001 15.68 13.2001 16.19Z" fill="#607079"/>
<path d="M17.61 16.19V16.7599C17.61 17.2799 17.22 17.69 16.76 17.69H16.08C15.6 17.69 15.23 17.2799 15.23 16.7599V16.19C15.23 15.67 15.61 15.25 16.08 15.25H16.76C17.22 15.26 17.61 15.68 17.61 16.19Z" fill="#607079"/>
</svg>
