<svg width="22" height="20" viewBox="0 0 22 20" fill="none" xmlns="http://www.w3.org/2000/svg">
<path d="M20.3321 10.8279L12.9251 18.2339C12.409 18.7383 11.7161 19.0207 10.9946 19.0207C10.273 19.0207 9.58009 18.7383 9.06405 18.2339L4.76407 13.912L1.68005 10.8279C0.613859 9.74222 0.0195679 8.27943 0.0264259 6.75775C0.0332838 5.23607 0.640738 3.77864 1.71667 2.70258C2.79261 1.62651 4.24996 1.01889 5.77163 1.01184C7.29331 1.0048 8.75622 1.59892 9.84207 2.66498L10.9961 3.83997L12.1711 2.66498C13.2571 1.58958 14.7237 0.986328 16.2521 0.986328C17.7804 0.986328 19.247 1.58958 20.3331 2.66498C21.4019 3.7547 22.0006 5.22023 22.0004 6.74664C22.0002 8.27306 21.4012 9.73848 20.3321 10.8279Z" fill="white"/>
<path d="M10.9945 17.8304C11.4068 17.8304 11.795 17.6732 12.0884 17.3875L19.4886 9.98825C21.2578 8.19955 21.2575 5.29092 19.4879 3.50247C18.6308 2.64688 17.485 2.17575 16.261 2.17575C15.0069 2.17575 13.8555 2.64511 13.019 3.49747L13.0111 3.5054L10.9874 5.52908L8.99591 3.50143C8.13522 2.64279 6.98627 2.17001 5.76001 2.17001C4.53381 2.17001 3.38489 2.64279 2.52423 3.50131C1.66354 4.38016 1.18958 5.52847 1.18958 6.7352C1.18958 7.97275 1.66223 9.12735 2.52017 9.98605L5.6062 13.0721L9.90134 17.3882C10.1946 17.6734 10.5826 17.8304 10.9945 17.8304ZM10.9945 19.0199C10.2968 19.0199 9.599 18.7577 9.064 18.2332L4.763 13.9112L1.67902 10.8272C0.567017 9.7142 0 8.22519 0 6.7352C0 5.2662 0.567017 3.79721 1.67902 2.66422C3.92401 0.41922 7.59601 0.41922 9.841 2.66422L10.995 3.8392L12.17 2.66422C13.282 1.53122 14.772 0.986176 16.261 0.986176C17.73 0.986176 19.199 1.53122 20.332 2.66422C22.556 4.91019 22.556 8.58121 20.332 10.8272L12.925 18.2332C12.39 18.7577 11.6923 19.0199 10.9945 19.0199Z" fill="#8798A1"/>
<path d="M6.34082 12.1508V6.71875L8.87582 12.1508V6.71875" stroke="#8798A1" stroke-width="0.733" stroke-linecap="round" stroke-linejoin="round"/>
<path d="M15.0736 12.1488C15.7734 12.1488 16.3406 10.9328 16.3406 9.4328C16.3406 7.93279 15.7734 6.7168 15.0736 6.7168C14.3739 6.7168 13.8066 7.93279 13.8066 9.4328C13.8066 10.9328 14.3739 12.1488 15.0736 12.1488Z" stroke="#8798A1" stroke-width="0.677" stroke-linecap="round" stroke-linejoin="round"/>
<path d="M12.6058 9.45087C12.5998 10.9409 12.0348 12.1439 11.3388 12.1439C10.6428 12.1439 10.0708 10.9279 10.0708 9.42786C10.0708 7.92786 10.6388 6.71289 11.3388 6.71289C11.8318 6.71289 12.2588 7.31286 12.4678 8.19586" stroke="#8798A1" stroke-width="0.677" stroke-linecap="round" stroke-linejoin="round"/>
<path d="M11.3418 9.83362V9.43359H12.6058" stroke="#8798A1" stroke-width="0.677" stroke-linecap="round" stroke-linejoin="round"/>
</svg>
