<svg width="25" height="24" viewBox="0 0 25 24" fill="none" xmlns="http://www.w3.org/2000/svg">
<path d="M2.99991 8.85988L11.9999 14.0599C12.1519 14.1477 12.3244 14.1939 12.4999 14.1939C12.6754 14.1939 12.8479 14.1477 12.9999 14.0599L21.9999 8.85988C22.151 8.77263 22.2767 8.64734 22.3644 8.49647C22.4521 8.3456 22.4989 8.1744 22.4999 7.99988C22.5006 7.82367 22.4547 7.65041 22.3669 7.49763C22.2791 7.34485 22.1525 7.21799 21.9999 7.12988L12.9999 1.93988C12.8479 1.85211 12.6754 1.80591 12.4999 1.80591C12.3244 1.80591 12.1519 1.85211 11.9999 1.93988L2.99991 7.12988C2.8473 7.21799 2.72069 7.34485 2.63289 7.49763C2.54508 7.65041 2.49921 7.82367 2.49991 7.99988C2.50096 8.1744 2.54767 8.3456 2.63538 8.49647C2.7231 8.64734 2.84877 8.77263 2.99991 8.85988ZM12.4999 3.99988L19.4999 7.99988L12.4999 11.9999L5.49991 7.99988L12.4999 3.99988ZM20.9999 11.1699L12.4999 15.9999L3.99991 11.1299C3.88577 11.0638 3.75969 11.0209 3.62891 11.0037C3.49813 10.9865 3.36524 10.9954 3.2379 11.0298C3.11056 11.0642 2.99129 11.1234 2.88694 11.2041C2.78259 11.2848 2.69524 11.3853 2.62991 11.4999C2.49954 11.7295 2.46527 12.0014 2.53459 12.2561C2.6039 12.5109 2.77118 12.728 2.99991 12.8599L11.9999 18.0599C12.1519 18.1477 12.3244 18.1939 12.4999 18.1939C12.6754 18.1939 12.8479 18.1477 12.9999 18.0599L21.9999 12.8599C22.2286 12.728 22.3959 12.5109 22.4652 12.2561C22.5345 12.0014 22.5003 11.7295 22.3699 11.4999C22.3046 11.3853 22.2172 11.2848 22.1129 11.2041C22.0085 11.1234 21.8893 11.0642 21.7619 11.0298C21.6346 10.9954 21.5017 10.9865 21.3709 11.0037C21.2401 11.0209 21.114 11.0638 20.9999 11.1299V11.1699ZM20.9999 15.1699L12.4999 19.9999L3.99991 15.1299C3.88577 15.0638 3.75969 15.0209 3.62891 15.0037C3.49813 14.9865 3.36524 14.9954 3.2379 15.0298C3.11056 15.0642 2.99129 15.1234 2.88694 15.2041C2.78259 15.2848 2.69524 15.3853 2.62991 15.4999C2.49954 15.7295 2.46527 16.0014 2.53459 16.2561C2.6039 16.5109 2.77118 16.728 2.99991 16.8599L11.9999 22.0599C12.1519 22.1477 12.3244 22.1939 12.4999 22.1939C12.6754 22.1939 12.8479 22.1477 12.9999 22.0599L21.9999 16.8599C22.2286 16.728 22.3959 16.5109 22.4652 16.2561C22.5345 16.0014 22.5003 15.7295 22.3699 15.4999C22.3046 15.3853 22.2172 15.2848 22.1129 15.2041C22.0085 15.1234 21.8893 15.0642 21.7619 15.0298C21.6346 14.9954 21.5017 14.9865 21.3709 15.0037C21.2401 15.0209 21.114 15.0638 20.9999 15.1299V15.1699Z" fill="#607079"/>
</svg>
