<svg width="24" height="24" viewBox="0 0 24 24" fill="none" xmlns="http://www.w3.org/2000/svg">
<path d="M19.5 4H4.5C3.12 4 2 5.12 2 6.5V17.5C2 17.82 2.06004 18.12 2.17004 18.4C2.53004 19.34 3.44 20 4.5 20H19.5C20.87 20 22 18.88 22 17.5V6.5C22 5.12 20.87 4 19.5 4ZM17.88 9.61002C17.33 9.05002 16.42 9.05002 15.86 9.61002L10.56 14.91C10.39 15.08 10.12 15.08 9.95001 14.91L8.11005 13.07C7.55005 12.52 6.64003 12.52 6.09003 13.07L3 16.16V6.5C3 5.67 3.67 5 4.5 5H19.5C20.33 5 21 5.67 21 6.5V12.73L17.88 9.61002Z" fill="#BF283A"/>
<path d="M8.74963 10.5699C9.89286 10.5699 10.8196 9.64317 10.8196 8.49994C10.8196 7.35671 9.89286 6.42993 8.74963 6.42993C7.6064 6.42993 6.67969 7.35671 6.67969 8.49994C6.67969 9.64317 7.6064 10.5699 8.74963 10.5699Z" fill="#BF283A"/>
</svg>
