<svg width="24" height="24" viewBox="0 0 24 24" fill="none" xmlns="http://www.w3.org/2000/svg">
<path d="M18.0289 20.29H16.5488C16.2688 20.29 16.0488 20.07 16.0488 19.79C16.0488 19.51 16.2688 19.29 16.5488 19.29H18.0289C18.4989 19.29 18.8188 19.05 18.8188 18.88V14.32C18.8188 13.92 19.0289 13.53 19.4089 13.27L20.8889 12.23C20.9889 12.16 21.0588 12.07 21.0588 12C21.0588 11.93 20.9989 11.84 20.8889 11.77L19.4089 10.73C19.0289 10.47 18.8188 10.08 18.8188 9.67999V5.12C18.8188 4.96 18.5089 4.70996 18.0289 4.70996H16.5488C16.2688 4.70996 16.0488 4.48996 16.0488 4.20996C16.0488 3.92996 16.2688 3.70996 16.5488 3.70996H18.0289C19.0289 3.70996 19.8188 4.33 19.8188 5.12V9.67999C19.8188 9.74999 19.8788 9.83997 19.9888 9.90997L21.4689 10.95C21.8489 11.21 22.0588 11.6 22.0588 12C22.0588 12.4 21.8489 12.79 21.4689 13.05L19.9888 14.09C19.8888 14.16 19.8188 14.25 19.8188 14.32V18.88C19.8088 19.67 19.0289 20.29 18.0289 20.29Z" fill="#8798A1"/>
<path d="M7.45923 20.29H5.97919C4.97919 20.29 4.18921 19.67 4.18921 18.88V14.32C4.18921 14.25 4.12923 14.16 4.01923 14.09L2.53918 13.05C2.15918 12.79 1.94922 12.4 1.94922 12C1.94922 11.6 2.15918 11.21 2.53918 10.95L4.01923 9.90997C4.11923 9.83997 4.18921 9.74999 4.18921 9.67999V5.12C4.18921 4.33 4.97919 3.70996 5.97919 3.70996H7.45923C7.73923 3.70996 7.95923 3.92996 7.95923 4.20996C7.95923 4.48996 7.73923 4.70996 7.45923 4.70996H5.97919C5.50919 4.70996 5.18921 4.95 5.18921 5.12V9.67999C5.18921 10.08 4.97918 10.47 4.59918 10.73L3.1192 11.77C3.0092 11.84 2.94922 11.93 2.94922 12C2.94922 12.07 3.0092 12.16 3.1192 12.23L4.59918 13.27C4.97918 13.53 5.18921 13.92 5.18921 14.32V18.88C5.18921 19.04 5.49919 19.29 5.97919 19.29H7.45923C7.73923 19.29 7.95923 19.51 7.95923 19.79C7.95923 20.07 7.73923 20.29 7.45923 20.29Z" fill="#8798A1"/>
<path d="M9.57936 19.53C9.52936 19.53 9.46933 19.52 9.41933 19.5C9.15933 19.41 9.01933 19.12 9.10933 18.86L13.9594 4.81002C14.0494 4.55002 14.3393 4.41002 14.5993 4.50002C14.8593 4.59002 14.9994 4.88003 14.9094 5.14003L10.0593 19.19C9.97934 19.4 9.78936 19.53 9.57936 19.53Z" fill="#8798A1"/>
</svg>
