<svg width="40" height="37" viewBox="0 0 40 37" fill="none" xmlns="http://www.w3.org/2000/svg">
<path d="M32.65 4.58008C32.56 4.58008 32.47 4.58008 32.38 4.58008H11.82C7.90998 4.58008 4.72998 7.76008 4.72998 11.6701V29.6001C4.72998 29.7101 4.72998 29.8301 4.74998 29.9401L6.22998 28.6201V11.6601C6.22998 8.58008 8.73998 6.07008 11.82 6.07008H32.38C32.65 6.07008 32.91 6.09008 33.17 6.13008C33.08 5.58008 32.9 5.06008 32.65 4.58008ZM34.39 4.86008C33.84 4.69008 33.25 4.60008 32.65 4.58008C32.56 4.58008 32.47 4.58008 32.38 4.58008H11.82C7.90998 4.58008 4.72998 7.76008 4.72998 11.6701V29.6001C4.72998 29.7101 4.72998 29.8301 4.74998 29.9401C4.73998 30.0001 4.73998 30.0501 4.75998 30.1101C4.78998 30.7101 4.90998 31.2901 5.09998 31.8401C6.02998 34.6601 8.68998 36.7001 11.82 36.7001H32.38C36.3 36.7001 39.48 33.5101 39.48 29.6001V11.6601C39.48 8.45008 37.33 5.73008 34.39 4.86008ZM37.98 29.6001C37.98 32.6901 35.47 35.2001 32.38 35.2001H11.82C9.64998 35.2001 7.75998 33.9501 6.83998 32.1201C6.58998 31.6401 6.40998 31.1201 6.31998 30.5701C6.25998 30.2501 6.22998 29.9301 6.22998 29.6001V11.6601C6.22998 8.58008 8.73998 6.07008 11.82 6.07008H32.38C32.65 6.07008 32.91 6.09008 33.17 6.13008C33.72 6.21008 34.25 6.36008 34.73 6.60008C36.65 7.48008 37.98 9.42008 37.98 11.6601V29.6001Z" fill="#13968E"/>
<path d="M34.39 4.86C33.46 2.04 30.79 0 27.66 0H7.1C3.18 0 0 3.19 0 7.1V25.04C0 27.06 0.85 28.89 2.22 30.18C2.58 30.53 2.99 30.85 3.43 31.11C3.94 31.42 4.5 31.67 5.1 31.84C5.65 32.01 6.24 32.1 6.84 32.12C6.59 31.64 6.41 31.12 6.32 30.57C5.77 30.5 5.25 30.34 4.76 30.11C4.71 30.09 4.67 30.07 4.63 30.04C4.16 29.82 3.73 29.53 3.35 29.17C2.21 28.16 1.5 26.68 1.5 25.04V7.1C1.5 4.01 4.01 1.5 7.1 1.5H27.66C29.83 1.5 31.73 2.75 32.65 4.58C32.9 5.06 33.08 5.58 33.17 6.13C33.72 6.21 34.25 6.36 34.73 6.6C34.7 6 34.58 5.41 34.39 4.86ZM33.26 18.07V20.05L34.76 21.33V19.36L33.26 18.07Z" fill="#13968E"/>
<path d="M37.98 22.1201L34.76 19.3601L33.26 18.0701L32.66 17.5601C31.37 16.4501 29.52 16.4901 28.27 17.6401L17.77 27.3C17.51 27.53 17.15 27.5501 16.88 27.3301L12.39 23.6801C11.52 22.9701 10.28 23.0001 9.43997 23.7501L6.22997 26.6101L4.72997 27.9401V29.6001C4.72997 29.7101 4.72997 29.8301 4.74997 29.9401L6.22997 28.6201L10.44 24.8701C10.73 24.6101 11.14 24.6001 11.44 24.8401L15.93 28.4901C16.78 29.18 17.98 29.1501 18.78 28.4001L29.28 18.7501C29.97 18.1101 30.98 18.1001 31.69 18.7001L33.26 20.0501L34.76 21.3301L37.98 24.1001L39.48 25.39V23.4101L37.98 22.1201ZM2.21997 30.1801C2.57997 30.5301 2.98997 30.8501 3.42997 31.1101L4.62997 30.0401C4.15997 29.8201 3.72997 29.5301 3.34997 29.1701L2.21997 30.1801Z" fill="#13968E"/>
<path d="M16.85 10.1699C14.43 10.1699 12.46 12.1399 12.46 14.5599C12.46 16.9799 14.43 18.9499 16.85 18.9499C19.27 18.9499 21.24 16.9799 21.24 14.5599C21.24 12.1399 19.27 10.1699 16.85 10.1699ZM16.85 17.4499C15.26 17.4499 13.96 16.1599 13.96 14.5599C13.96 12.9599 15.26 11.6699 16.85 11.6699C18.44 11.6699 19.74 12.9699 19.74 14.5599C19.74 16.1499 18.45 17.4499 16.85 17.4499Z" fill="#13968E"/>
<path d="M16.78 8.21997V8.74997" stroke="#13968E" stroke-width="1.5" stroke-linecap="round" stroke-linejoin="round"/>
<path d="M13.6201 9.09998L13.8901 9.55998" stroke="#13968E" stroke-width="1.5" stroke-linecap="round" stroke-linejoin="round"/>
<path d="M11.3201 11.45L11.7901 11.72" stroke="#13968E" stroke-width="1.5" stroke-linecap="round" stroke-linejoin="round"/>
<path d="M10.51 14.63H11.04" stroke="#13968E" stroke-width="1.5" stroke-linecap="round" stroke-linejoin="round"/>
<path d="M11.3899 17.79L11.8499 17.52" stroke="#13968E" stroke-width="1.5" stroke-linecap="round" stroke-linejoin="round"/>
<path d="M13.74 20.09L14 19.62" stroke="#13968E" stroke-width="1.5" stroke-linecap="round" stroke-linejoin="round"/>
<path d="M16.9199 20.9V20.37" stroke="#13968E" stroke-width="1.5" stroke-linecap="round" stroke-linejoin="round"/>
<path d="M20.0801 20.0199L19.8101 19.5599" stroke="#13968E" stroke-width="1.5" stroke-linecap="round" stroke-linejoin="round"/>
<path d="M22.3799 17.6699L21.9099 17.4099" stroke="#13968E" stroke-width="1.5" stroke-linecap="round" stroke-linejoin="round"/>
<path d="M23.1899 14.49H22.6599" stroke="#13968E" stroke-width="1.5" stroke-linecap="round" stroke-linejoin="round"/>
<path d="M22.3101 11.33L21.8501 11.6" stroke="#13968E" stroke-width="1.5" stroke-linecap="round" stroke-linejoin="round"/>
<path d="M19.9599 9.03003L19.7 9.50003" stroke="#13968E" stroke-width="1.5" stroke-linecap="round" stroke-linejoin="round"/>
</svg>
