<svg width="18" height="20" viewBox="0 0 18 20" fill="none" xmlns="http://www.w3.org/2000/svg">
<path d="M14.07 1.53925H13.47V1.18927C13.47 0.77927 13.13 0.449219 12.68 0.449219C12.27 0.449219 11.94 0.77927 11.94 1.18927V1.53925H6.06V1.18927C6.06 0.77927 5.72002 0.449219 5.27002 0.449219C4.86002 0.449219 4.53003 0.77927 4.53003 1.18927V1.53925H3.91998C1.75998 1.53925 0 3.29923 0 5.45923V15.6093C0 17.7693 1.75998 19.5392 3.91998 19.5392H14.07C16.24 19.5392 18 17.7693 18 15.6093V5.45923C18 3.29923 16.24 1.53925 14.07 1.53925ZM17 15.6093C17 17.2193 15.68 18.5392 14.07 18.5392H3.91998C2.30998 18.5392 1 17.2193 1 15.6093V7.18927H17V15.6093ZM17 6.18927H1V5.45923C1 3.84923 2.30998 2.53925 3.91998 2.53925H4.53003V4.07922C4.53003 4.48922 4.86002 4.81927 5.27002 4.81927H5.32001C5.72001 4.81927 6.06 4.48922 6.06 4.07922V2.53925H11.94V4.07922C11.94 4.48922 12.27 4.81927 12.68 4.81927H12.72C13.13 4.81927 13.47 4.48922 13.47 4.07922V2.53925H14.07C15.68 2.53925 17 3.84923 17 5.45923V6.18927Z" fill="#8798A1"/>
<path d="M5.78986 10.1783V10.7483C5.78986 11.2683 5.39988 11.6783 4.93988 11.6783H4.24988C3.77988 11.6783 3.3999 11.2683 3.3999 10.7483V10.1783C3.3999 9.65828 3.78988 9.23828 4.24988 9.23828H4.93988C5.39988 9.23828 5.78986 9.65828 5.78986 10.1783Z" fill="#8798A1"/>
<path d="M10.2001 10.1783V10.7483C10.2001 11.2683 9.81004 11.6783 9.35004 11.6783H8.67004C8.19004 11.6783 7.81006 11.2683 7.81006 10.7483V10.1783C7.81006 9.65828 8.20004 9.23828 8.67004 9.23828H9.35004C9.82004 9.23828 10.2001 9.65828 10.2001 10.1783Z" fill="#8798A1"/>
<path d="M14.61 10.1783V10.7483C14.61 11.2683 14.22 11.6783 13.76 11.6783H13.08C12.6 11.6783 12.23 11.2683 12.23 10.7483V10.1783C12.23 9.65828 12.61 9.23828 13.08 9.23828H13.76C14.22 9.23828 14.61 9.65828 14.61 10.1783Z" fill="#8798A1"/>
<path d="M5.78986 14.19V14.7599C5.78986 15.2799 5.39988 15.69 4.93988 15.69H4.24988C3.77988 15.69 3.3999 15.2799 3.3999 14.7599V14.19C3.3999 13.67 3.78988 13.25 4.24988 13.25H4.93988C5.39988 13.26 5.78986 13.68 5.78986 14.19Z" fill="#8798A1"/>
<path d="M10.2001 14.19V14.7599C10.2001 15.2799 9.81004 15.69 9.35004 15.69H8.67004C8.19004 15.69 7.81006 15.2799 7.81006 14.7599V14.19C7.81006 13.67 8.20004 13.25 8.67004 13.25H9.35004C9.82004 13.26 10.2001 13.68 10.2001 14.19Z" fill="#8798A1"/>
<path d="M14.61 14.19V14.7599C14.61 15.2799 14.22 15.69 13.76 15.69H13.08C12.6 15.69 12.23 15.2799 12.23 14.7599V14.19C12.23 13.67 12.61 13.25 13.08 13.25H13.76C14.22 13.26 14.61 13.68 14.61 14.19Z" fill="#8798A1"/>
</svg>
