<svg width="24" height="24" viewBox="0 0 24 24" fill="none" xmlns="http://www.w3.org/2000/svg">
<path d="M11.9987 22.0719C11.8743 22.0718 11.7513 22.0442 11.6389 21.9908C11.5264 21.9375 11.4272 21.8598 11.3484 21.7635L5.80994 14.9952C4.85001 13.8233 4.24247 12.4029 4.0581 10.8992C3.87374 9.39558 4.12006 7.87052 4.76842 6.50137C5.41678 5.13222 6.44063 3.97526 7.72069 3.16509C9.00076 2.35493 10.4845 1.9248 11.9994 1.9248C13.5143 1.9248 14.998 2.35493 16.2781 3.16509C17.5582 3.97526 18.5818 5.13222 19.2302 6.50137C19.8786 7.87052 20.1249 9.39558 19.9405 10.8992C19.7562 12.4029 19.1488 13.8233 18.1888 14.9952L12.6517 21.7635C12.5724 21.86 12.4727 21.9377 12.3598 21.991C12.2469 22.0443 12.1236 22.0719 11.9987 22.0719ZM11.9987 3.26525C10.7371 3.2654 9.50131 3.62366 8.43525 4.29846C7.36919 4.97325 6.51652 5.93686 5.97652 7.07714C5.43652 8.21742 5.23141 9.4875 5.38486 10.7398C5.5383 11.9921 6.04398 13.1752 6.84331 14.1514L11.9987 20.451L17.1566 14.1514C17.9555 13.1749 18.4609 11.9917 18.6139 10.7393C18.767 9.48696 18.5615 8.21682 18.0213 7.07665C17.4811 5.93648 16.6284 4.97307 15.5622 4.29837C14.4961 3.62367 13.2604 3.26543 11.9987 3.26525Z" fill="#C8D3D9"/>
<path d="M11.9987 13.3834C11.2314 13.3831 10.4812 13.1553 9.84333 12.7288C9.20542 12.3023 8.70835 11.6962 8.41487 10.9872C8.12139 10.2781 8.04464 9.49797 8.19451 8.74538C8.34437 7.99279 8.71402 7.30151 9.25672 6.759C9.79943 6.21648 10.491 5.84712 11.2436 5.69751C11.9962 5.5479 12.7763 5.62481 13.4852 5.91853C14.1942 6.21225 14.8 6.70958 15.2263 7.34764C15.6526 7.9857 15.8802 8.73584 15.8802 9.50321C15.8788 10.5321 15.4694 11.5184 14.7417 12.2458C14.0141 12.9732 13.0276 13.3823 11.9987 13.3834ZM11.9987 6.95825C11.4955 6.95852 11.0034 7.10802 10.5851 7.38782C10.1668 7.66762 9.84081 8.06518 9.64839 8.53023C9.45598 8.99528 9.4058 9.50691 9.50415 10.0005C9.60249 10.4941 9.84497 10.9474 10.2009 11.3032C10.5569 11.659 11.0104 11.9013 11.5041 11.9993C11.9977 12.0974 12.5093 12.0469 12.9742 11.8543C13.4392 11.6616 13.8366 11.3354 14.1162 10.9169C14.3957 10.4984 14.545 10.0065 14.545 9.50321C14.5443 8.82823 14.2757 8.1811 13.7983 7.70394C13.3209 7.22679 12.6737 6.95861 11.9987 6.95825Z" fill="#C8D3D9"/>
</svg>
