<svg width="212" height="226" viewBox="0 0 212 226" fill="none" xmlns="http://www.w3.org/2000/svg">
<g filter="url(#filter0_d_1644_168938)">
<path d="M205.846 114.389C205.817 140.154 195.829 164.91 177.971 183.482C160.112 202.053 135.766 213.003 110.022 214.041C84.2785 215.079 59.1298 206.125 39.8342 189.052C20.5385 171.978 8.58977 148.107 6.48598 122.428C4.38218 96.7491 12.2862 71.2511 28.5456 51.2646C44.805 31.2782 68.161 18.3506 93.7306 15.1847C119.3 12.0188 145.104 18.8596 165.747 34.277C186.39 49.6944 200.274 72.4947 204.496 97.9112C205.4 103.357 205.852 108.869 205.846 114.389Z" fill="#F4F7FB"/>
</g>
<g filter="url(#filter1_d_1644_168938)">
<path d="M102.538 36.5858C102.803 36.8502 103.013 37.1641 103.156 37.5096C103.299 37.855 103.373 38.2253 103.373 38.5993C103.373 38.9732 103.299 39.3435 103.156 39.689C103.013 40.0344 102.803 40.3484 102.538 40.6128C102.274 40.8772 101.96 41.0869 101.615 41.23C101.269 41.3731 100.899 41.4468 100.525 41.4468C100.151 41.4468 99.7808 41.3731 99.4353 41.23C99.0898 41.0869 98.7759 40.8772 98.5115 40.6128L89.8035 31.9038L81.0965 40.6128C80.5625 41.1467 79.8383 41.4465 79.0831 41.4464C78.328 41.4463 77.6039 41.1463 77.07 40.6123C76.5361 40.0783 76.2362 39.354 76.2363 38.5989C76.2364 37.8438 76.5365 37.1196 77.0705 36.5858L85.7785 27.8788L77.0715 19.1688C76.5375 18.6349 76.2374 17.9107 76.2373 17.1556C76.2372 16.4005 76.5371 15.6763 77.071 15.1423C77.6049 14.6083 78.329 14.3082 79.0841 14.3081C79.8393 14.308 80.5635 14.6079 81.0975 15.1418L89.8045 23.8518L98.5125 15.1418C98.7769 14.8774 99.0908 14.6677 99.4363 14.5247C99.7817 14.3817 100.152 14.3081 100.526 14.3081C100.9 14.3082 101.27 14.3818 101.615 14.525C101.961 14.6681 102.275 14.8779 102.539 15.1423C102.803 15.4067 103.013 15.7206 103.156 16.066C103.299 16.4115 103.373 16.7817 103.373 17.1556C103.373 17.5295 103.299 17.8997 103.156 18.2452C103.013 18.5906 102.803 18.9044 102.538 19.1688L93.8315 27.8788L102.538 36.5858Z" fill="#C8D3D9"/>
</g>
<path d="M143.803 6.337C143.803 7.39256 143.49 8.42441 142.903 9.30208C142.317 10.1797 141.483 10.8638 140.508 11.2677C139.533 11.6717 138.46 11.7774 137.425 11.5715C136.389 11.3655 135.438 10.8572 134.692 10.1108C133.946 9.36444 133.437 8.41347 133.231 7.3782C133.026 6.34292 133.131 5.26983 133.535 4.29462C133.939 3.31941 134.623 2.48588 135.501 1.89945C136.378 1.31301 137.41 1 138.466 1C139.881 1 141.239 1.56229 142.24 2.56317C143.241 3.56405 143.803 4.92154 143.803 6.337Z" fill="#F4F7FB"/>
<path d="M138.466 11.674C141.413 11.674 143.803 9.28454 143.803 6.337C143.803 3.38946 141.413 1 138.466 1C135.518 1 133.129 3.38946 133.129 6.337C133.129 9.28454 135.518 11.674 138.466 11.674Z" stroke="#F4F7FB" stroke-width="1.043" stroke-miterlimit="10"/>
<path d="M174.371 5.57916C176.089 7.29698 177.258 9.4856 177.732 11.8683C178.206 14.2509 177.963 16.7206 177.033 18.965C176.104 21.2094 174.529 23.1277 172.509 24.4774C170.489 25.8271 168.115 26.5474 165.685 26.5474C163.256 26.5474 160.881 25.8271 158.861 24.4774C156.841 23.1277 155.267 21.2094 154.337 18.965C153.408 16.7206 153.164 14.2509 153.638 11.8683C154.112 9.4856 155.282 7.29698 157 5.57916C158.14 4.43855 159.495 3.53376 160.985 2.91646C162.475 2.29916 164.072 1.98145 165.685 1.98145C167.298 1.98145 168.896 2.29916 170.386 2.91646C171.876 3.53376 173.23 4.43855 174.371 5.57916Z" fill="#F4F7FB"/>
<path d="M174.371 5.57916C176.089 7.29698 177.258 9.4856 177.732 11.8683C178.206 14.2509 177.963 16.7206 177.033 18.965C176.104 21.2094 174.529 23.1277 172.509 24.4774C170.489 25.8271 168.115 26.5474 165.685 26.5474C163.256 26.5474 160.881 25.8271 158.861 24.4774C156.841 23.1277 155.267 21.2094 154.337 18.965C153.408 16.7206 153.164 14.2509 153.638 11.8683C154.112 9.4856 155.282 7.29698 157 5.57916C158.14 4.43855 159.495 3.53376 160.985 2.91646C162.475 2.29916 164.072 1.98145 165.685 1.98145C167.298 1.98145 168.896 2.29916 170.386 2.91646C171.876 3.53376 173.23 4.43855 174.371 5.57916V5.57916Z" stroke="#F4F7FB" stroke-width="2.4" stroke-miterlimit="10"/>
<g filter="url(#filter2_d_1644_168938)">
<path d="M63.8743 69.5319C62.4476 66.4676 60.171 63.8774 57.3152 62.0692C54.4594 60.2611 51.1444 59.311 47.7643 59.3319C36.7343 59.3319 29.9043 68.6219 29.9043 77.2419C29.921 81.3312 31.3599 85.2874 33.9743 88.4319L34.7643 89.3719C34.7629 89.3827 34.764 89.3938 34.7675 89.4042C34.7709 89.4145 34.7767 89.424 34.7843 89.4319L40.1043 95.9219L45.4543 102.452L46.6943 103.972C46.8204 104.135 46.9829 104.265 47.1687 104.354C47.3545 104.443 47.5585 104.486 47.7643 104.482H47.8043C48.0054 104.484 48.2043 104.439 48.3849 104.35C48.5655 104.262 48.7228 104.132 48.8443 103.972L50.0743 102.452L53.6843 98.0519L55.4143 95.9219L60.7643 89.4119L61.5743 88.4519V88.4319C63.7246 85.8312 65.0842 82.6685 65.4918 79.3187C65.8995 75.9689 65.3381 72.5724 63.8743 69.5319ZM51.3943 95.8619H44.1543C44.0221 95.8632 43.891 95.8383 43.7685 95.7887C43.6461 95.739 43.5346 95.6655 43.4407 95.5725C43.3468 95.4796 43.2722 95.3689 43.2214 95.2469C43.1705 95.1249 43.1443 94.9941 43.1443 94.8619C43.1443 94.7302 43.1705 94.5998 43.2215 94.4783C43.2725 94.3569 43.3472 94.2469 43.4413 94.1547C43.5354 94.0625 43.6469 93.99 43.7693 93.9414C43.8917 93.8929 44.0226 93.8692 44.1543 93.8719H51.3943C51.5242 93.8707 51.653 93.8955 51.7731 93.9449C51.8932 93.9944 52.0022 94.0674 52.0936 94.1597C52.1849 94.252 52.2569 94.3617 52.3051 94.4824C52.3533 94.603 52.3768 94.732 52.3743 94.8619C52.3761 94.992 52.3522 95.1213 52.3039 95.2421C52.2555 95.363 52.1837 95.4731 52.0926 95.566C52.0015 95.659 51.8929 95.733 51.773 95.7838C51.6532 95.8346 51.5245 95.8611 51.3943 95.8619ZM51.3943 91.0519H44.1543C44.0153 91.0658 43.8748 91.0505 43.7421 91.0068C43.6093 90.9632 43.4872 90.8922 43.3836 90.7985C43.2799 90.7047 43.1971 90.5903 43.1404 90.4625C43.0837 90.3348 43.0544 90.1966 43.0544 90.0569C43.0544 89.9171 43.0837 89.7789 43.1404 89.6512C43.1971 89.5235 43.2799 89.4091 43.3836 89.3153C43.4872 89.2216 43.6093 89.1506 43.7421 89.1069C43.8748 89.0633 44.0153 89.0479 44.1543 89.0619H51.3943C51.641 89.0866 51.8697 89.2022 52.036 89.386C52.2023 89.5699 52.2944 89.809 52.2944 90.0569C52.2944 90.3048 52.2023 90.5439 52.036 90.7277C51.8697 90.9116 51.641 91.0271 51.3943 91.0519ZM51.3943 86.2419H44.1543C43.8917 86.2419 43.6399 86.1376 43.4543 85.9519C43.2686 85.7663 43.1643 85.5144 43.1643 85.2519C43.1643 84.9893 43.2686 84.7375 43.4543 84.5518C43.6399 84.3662 43.8917 84.2619 44.1543 84.2619H51.3943C51.6569 84.2619 51.9087 84.3662 52.0943 84.5518C52.28 84.7375 52.3843 84.9893 52.3843 85.2519C52.3843 85.5144 52.28 85.7663 52.0943 85.9519C51.9087 86.1376 51.6569 86.2419 51.3943 86.2419ZM51.3943 81.4419H44.1543C44.0153 81.4558 43.8748 81.4405 43.7421 81.3968C43.6093 81.3532 43.4872 81.2822 43.3836 81.1885C43.2799 81.0947 43.1971 80.9803 43.1404 80.8525C43.0837 80.7248 43.0544 80.5866 43.0544 80.4469C43.0544 80.3071 43.0837 80.1689 43.1404 80.0412C43.1971 79.9135 43.2799 79.7991 43.3836 79.7053C43.4872 79.6116 43.6093 79.5406 43.7421 79.4969C43.8748 79.4533 44.0153 79.4379 44.1543 79.4519H51.3943C51.641 79.4766 51.8697 79.5922 52.036 79.776C52.2023 79.9599 52.2944 80.199 52.2944 80.4469C52.2944 80.6948 52.2023 80.9339 52.036 81.1178C51.8697 81.3016 51.641 81.4171 51.3943 81.4419ZM51.8243 76.5319C51.6894 76.5944 51.543 76.6285 51.3943 76.6319H44.1543C44.0023 76.6296 43.8524 76.5955 43.7143 76.5319C43.5086 76.4354 43.3422 76.2712 43.243 76.0668C43.1437 75.8624 43.1177 75.6301 43.1692 75.4088C43.2208 75.1875 43.3467 74.9905 43.526 74.851C43.7053 74.7114 43.9271 74.6376 44.1543 74.6419H51.3943C51.6165 74.6475 51.8306 74.727 52.0026 74.8679C52.1746 75.0088 52.2947 75.2029 52.344 75.4197C52.3934 75.6365 52.369 75.8635 52.2749 76.0649C52.1808 76.2663 52.0222 76.4307 51.8243 76.5319ZM60.9743 85.9019C60.6843 86.3319 60.3643 86.7719 60.0343 87.1819L59.0043 88.4319L57.8643 89.7919V89.8319L56.7543 91.1919H56.7343L55.6543 92.5119V92.5319L53.6643 94.9619V72.8419C53.6646 72.6605 53.5933 72.4864 53.466 72.3572C53.3387 72.228 53.1656 72.1542 52.9843 72.1519H42.5343C42.3551 72.1581 42.1853 72.2334 42.0604 72.362C41.9355 72.4906 41.8652 72.6626 41.8643 72.8419V94.9619L39.8943 92.5319V86.4719H38.5843C38.4453 86.4858 38.3048 86.4705 38.1721 86.4268C38.0393 86.3832 37.9172 86.3122 37.8136 86.2185C37.7099 86.1247 37.6271 86.0103 37.5704 85.8826C37.5137 85.7548 37.4844 85.6166 37.4844 85.4769C37.4844 85.3371 37.5137 85.1989 37.5704 85.0712C37.6271 84.9435 37.7099 84.8291 37.8136 84.7353C37.9172 84.6416 38.0393 84.5706 38.1721 84.5269C38.3048 84.4833 38.4453 84.4679 38.5843 84.4819H39.8943V81.7619H38.5843C38.3183 81.7587 38.0643 81.651 37.8772 81.462C37.69 81.273 37.5848 81.0179 37.5843 80.7519C37.5895 80.4901 37.6972 80.2409 37.8842 80.0577C38.0711 79.8744 38.3225 79.7718 38.5843 79.7719H39.8943V78.5019H37.4043C37.1747 78.5055 36.9555 78.5983 36.7931 78.7607C36.6307 78.9231 36.5379 79.1423 36.5343 79.3719V88.4519L35.5123 87.1789C35.1652 86.7686 34.8477 86.3342 34.5623 85.8789V79.3689C34.562 78.9959 34.6353 78.6264 34.7779 78.2818C34.9206 77.9371 35.1298 77.6239 35.3935 77.3601C35.6573 77.0963 35.9705 76.8872 36.3152 76.7445C36.6598 76.6019 37.0293 76.5286 37.4023 76.5289H39.8923V72.8389C39.8899 72.4906 39.9564 72.1453 40.088 71.8228C40.2196 71.5003 40.4137 71.207 40.659 70.9598C40.9044 70.7126 41.1962 70.5163 41.5177 70.3823C41.8392 70.2483 42.184 70.1791 42.5323 70.1789H52.9823C53.6889 70.1781 54.367 70.4578 54.8676 70.9565C55.3682 71.4552 55.6504 72.1322 55.6523 72.8389V76.5289H58.1323C58.5053 76.5286 58.8747 76.6019 59.2194 76.7445C59.5641 76.8872 59.8773 77.0963 60.1411 77.3601C60.4048 77.6239 60.614 77.9371 60.7566 78.2818C60.8993 78.6264 60.9726 78.9959 60.9723 79.3689L60.9743 85.9019Z" fill="white"/>
</g>
<path d="M52.3726 94.8618C52.3744 94.9919 52.3505 95.1212 52.3021 95.242C52.2538 95.3629 52.182 95.473 52.0909 95.5659C51.9998 95.6589 51.8912 95.7329 51.7713 95.7837C51.6515 95.8345 51.5227 95.861 51.3926 95.8618H44.1526C44.0204 95.8631 43.8893 95.8382 43.7668 95.7886C43.6443 95.7389 43.5329 95.6654 43.439 95.5725C43.3451 95.4795 43.2705 95.3688 43.2196 95.2468C43.1688 95.1248 43.1426 94.994 43.1426 94.8618C43.1426 94.7301 43.1688 94.5997 43.2198 94.4783C43.2708 94.3568 43.3455 94.2468 43.4396 94.1546C43.5336 94.0624 43.6451 93.9899 43.7676 93.9413C43.89 93.8928 44.0209 93.8691 44.1526 93.8718H51.3926C51.5225 93.8706 51.6513 93.8954 51.7714 93.9448C51.8915 93.9943 52.0005 94.0673 52.0918 94.1596C52.1832 94.2519 52.2551 94.3617 52.3034 94.4823C52.3516 94.6029 52.3751 94.7319 52.3726 94.8618Z" fill="#F4F7FB"/>
<path d="M52.3726 90.0621C52.3734 90.1915 52.3487 90.3198 52.2998 90.4396C52.251 90.5594 52.179 90.6684 52.0879 90.7604C51.9969 90.8523 51.8886 90.9254 51.7693 90.9755C51.65 91.0256 51.522 91.0516 51.3926 91.0521H44.1526C44.0136 91.0661 43.8731 91.0507 43.7404 91.0071C43.6076 90.9634 43.4855 90.8925 43.3819 90.7987C43.2782 90.705 43.1954 90.5905 43.1387 90.4628C43.082 90.3351 43.0527 90.1969 43.0527 90.0571C43.0527 89.9174 43.082 89.7792 43.1387 89.6515C43.1954 89.5237 43.2782 89.4093 43.3819 89.3156C43.4855 89.2218 43.6076 89.1508 43.7404 89.1072C43.8731 89.0635 44.0136 89.0482 44.1526 89.0621H51.3926C51.5228 89.0629 51.6515 89.0895 51.7714 89.1402C51.8912 89.191 51.9998 89.265 52.0909 89.358C52.182 89.4509 52.2538 89.561 52.3022 89.6819C52.3505 89.8027 52.3745 89.932 52.3726 90.0621Z" fill="#F4F7FB"/>
<path d="M52.3741 85.2522C52.3758 85.3819 52.3517 85.5106 52.3032 85.6308C52.2547 85.751 52.1827 85.8604 52.0915 85.9526C52.0003 86.0447 51.8916 86.1178 51.7719 86.1675C51.6522 86.2172 51.5237 86.2426 51.3941 86.2422H44.1541C43.8915 86.2422 43.6397 86.1379 43.454 85.9523C43.2684 85.7666 43.1641 85.5148 43.1641 85.2522C43.1641 84.9897 43.2684 84.7378 43.454 84.5522C43.6397 84.3665 43.8915 84.2622 44.1541 84.2622H51.3941C51.5237 84.2618 51.6522 84.2872 51.7719 84.3369C51.8916 84.3867 52.0003 84.4597 52.0915 84.5519C52.1827 84.644 52.2547 84.7534 52.3032 84.8736C52.3517 84.9939 52.3758 85.1226 52.3741 85.2522Z" fill="#F4F7FB"/>
<path d="M52.3726 80.4418C52.3745 80.5719 52.3505 80.7012 52.3022 80.822C52.2538 80.9429 52.182 81.053 52.0909 81.1459C51.9998 81.2389 51.8912 81.3129 51.7714 81.3637C51.6515 81.4145 51.5228 81.441 51.3926 81.4418H44.1526C44.0136 81.4557 43.8731 81.4404 43.7404 81.3967C43.6076 81.3531 43.4855 81.2821 43.3819 81.1884C43.2782 81.0946 43.1954 80.9802 43.1387 80.8524C43.082 80.7247 43.0527 80.5865 43.0527 80.4468C43.0527 80.307 43.082 80.1688 43.1387 80.0411C43.1954 79.9134 43.2782 79.799 43.3819 79.7052C43.4855 79.6115 43.6076 79.5405 43.7404 79.4968C43.8731 79.4532 44.0136 79.4378 44.1526 79.4518H51.3926C51.522 79.4523 51.65 79.4783 51.7693 79.5284C51.8886 79.5785 51.9969 79.6516 52.0879 79.7435C52.179 79.8355 52.251 79.9445 52.2998 80.0643C52.3487 80.1841 52.3734 80.3124 52.3726 80.4418Z" fill="#F4F7FB"/>
<path d="M52.3735 75.6418C52.3756 75.827 52.3251 76.009 52.2277 76.1666C52.1303 76.3242 51.9901 76.4508 51.8235 76.5318H51.1735C50.9334 76.5327 50.6945 76.5664 50.4635 76.6318H45.0735C44.8423 76.5671 44.6036 76.5335 44.3635 76.5318H43.7115C43.5058 76.4353 43.3394 76.2711 43.2402 76.0667C43.141 75.8623 43.1149 75.63 43.1665 75.4087C43.218 75.1874 43.3439 74.9904 43.5232 74.8508C43.7025 74.7113 43.9243 74.6375 44.1515 74.6418H51.3915C51.5217 74.6426 51.6504 74.6691 51.7703 74.7199C51.8901 74.7707 51.9987 74.8447 52.0898 74.9376C52.1809 75.0306 52.2527 75.1407 52.3011 75.2615C52.3494 75.3824 52.3734 75.5116 52.3715 75.6418" fill="#F4F7FB"/>
<path d="M60.9725 79.3722V85.9022C60.6825 86.3322 60.3625 86.7722 60.0325 87.1822L59.0025 88.4322V79.3722C59.0007 79.142 58.9085 78.9218 58.7457 78.759C58.5829 78.5963 58.3627 78.504 58.1325 78.5022H55.6525V79.7722H56.9525C57.2134 79.7722 57.4637 79.8751 57.6491 80.0586C57.8344 80.2421 57.9399 80.4914 57.9425 80.7522C57.9439 80.8835 57.9193 81.0138 57.8703 81.1357C57.8212 81.2575 57.7487 81.3685 57.6567 81.4623C57.5648 81.556 57.4553 81.6308 57.3345 81.6823C57.2136 81.7337 57.0839 81.7609 56.9525 81.7622H55.6525V84.4792H56.9525C57.1992 84.504 57.4279 84.6195 57.5942 84.8033C57.7606 84.9872 57.8527 85.2263 57.8527 85.4742C57.8527 85.7221 57.7606 85.9612 57.5942 86.1451C57.4279 86.3289 57.1992 86.4444 56.9525 86.4692H55.6525V92.5292L53.6625 94.9592V72.8422C53.6628 72.6608 53.5916 72.4867 53.4643 72.3575C53.337 72.2283 53.1639 72.1546 52.9825 72.1522H42.5325C42.3534 72.1584 42.1835 72.2337 42.0586 72.3623C41.9337 72.491 41.8635 72.6629 41.8625 72.8422V94.9622L39.8925 92.5322V86.4722H38.5825C38.4435 86.4862 38.3031 86.4708 38.1703 86.4272C38.0376 86.3835 37.9154 86.3125 37.8118 86.2188C37.7082 86.125 37.6253 86.0106 37.5687 85.8829C37.512 85.7551 37.4827 85.617 37.4827 85.4772C37.4827 85.3375 37.512 85.1993 37.5687 85.0715C37.6253 84.9438 37.7082 84.8294 37.8118 84.7356C37.9154 84.6419 38.0376 84.5709 38.1703 84.5272C38.3031 84.4836 38.4435 84.4682 38.5825 84.4822H39.8925V81.7622H38.5825C38.3166 81.759 38.0625 81.6513 37.8754 81.4623C37.6883 81.2733 37.5831 81.0182 37.5825 80.7522C37.5878 80.4905 37.6954 80.2412 37.8824 80.058C38.0694 79.8748 38.3208 79.7722 38.5825 79.7722H39.8925V78.5022H37.4025C37.1729 78.5058 36.9537 78.5986 36.7914 78.761C36.629 78.9234 36.5362 79.1426 36.5325 79.3722V88.4522L35.5105 87.1792C35.1634 86.769 34.846 86.3345 34.5605 85.8792V79.3692C34.5603 78.9962 34.6336 78.6268 34.7762 78.2821C34.9188 77.9374 35.128 77.6242 35.3918 77.3604C35.6555 77.0967 35.9687 76.8875 36.3134 76.7449C36.6581 76.6022 37.0275 76.5289 37.4005 76.5292H39.8905V72.8392C39.8882 72.4909 39.9547 72.1456 40.0863 71.8231C40.2179 71.5006 40.4119 71.2073 40.6573 70.9601C40.9026 70.7129 41.1944 70.5166 41.5159 70.3826C41.8374 70.2486 42.1822 70.1795 42.5305 70.1792H52.9805C53.6872 70.1784 54.3653 70.4581 54.8659 70.9568C55.3665 71.4555 55.6487 72.1326 55.6505 72.8392V76.5292H58.1305C58.5036 76.5289 58.873 76.6022 59.2177 76.7449C59.5624 76.8875 59.8755 77.0967 60.1393 77.3604C60.4031 77.6242 60.6123 77.9374 60.7549 78.2821C60.8975 78.6268 60.9708 78.9962 60.9705 79.3692" fill="#F4F7FB"/>
<path d="M59.0043 79.3719V88.432L57.8643 89.792V89.8319L56.7543 91.1919H56.7343L55.6543 92.5119V86.4719H56.9543C57.201 86.4472 57.4297 86.3317 57.596 86.1478C57.7623 85.964 57.8544 85.7249 57.8544 85.477C57.8544 85.229 57.7623 84.9899 57.596 84.8061C57.4297 84.6222 57.201 84.5067 56.9543 84.4819H55.6543V81.7619H56.9543C57.0856 81.7606 57.2154 81.7335 57.3362 81.682C57.4571 81.6305 57.5666 81.5558 57.6585 81.462C57.7504 81.3682 57.823 81.2572 57.872 81.1354C57.9211 81.0136 57.9456 80.8833 57.9443 80.752C57.9417 80.4911 57.8362 80.2419 57.6508 80.0584C57.4654 79.8749 57.2151 79.7719 56.9543 79.7719H55.6543V78.502H58.1343C58.3645 78.5038 58.5847 78.596 58.7475 78.7588C58.9102 78.9216 59.0025 79.1418 59.0043 79.3719Z" fill="white"/>
<path d="M44.3629 76.5322H43.7109C43.849 76.5959 43.9989 76.6299 44.1509 76.6322H45.0709C44.8398 76.5675 44.601 76.5339 44.3609 76.5322" fill="white"/>
<path d="M51.1729 76.5322C50.9328 76.5332 50.6939 76.5668 50.4629 76.6322H51.3929C51.5416 76.6288 51.688 76.5948 51.8229 76.5322H51.1729ZM51.1729 76.5322C50.9328 76.5332 50.6939 76.5668 50.4629 76.6322H51.3929C51.5416 76.6288 51.688 76.5948 51.8229 76.5322H51.1729ZM51.1729 76.5322C50.9328 76.5332 50.6939 76.5668 50.4629 76.6322H51.3929C51.5416 76.6288 51.688 76.5948 51.8229 76.5322H51.1729ZM51.1729 76.5322C50.9328 76.5332 50.6939 76.5668 50.4629 76.6322H51.3929C51.5416 76.6288 51.688 76.5948 51.8229 76.5322H51.1729ZM51.1729 76.5322C50.9328 76.5332 50.6939 76.5668 50.4629 76.6322H51.3929C51.5416 76.6288 51.688 76.5948 51.8229 76.5322H51.1729ZM51.1729 76.5322C50.9328 76.5332 50.6939 76.5668 50.4629 76.6322H51.3929C51.5416 76.6288 51.688 76.5948 51.8229 76.5322H51.1729ZM51.1729 76.5322C50.9328 76.5332 50.6939 76.5668 50.4629 76.6322H51.3929C51.5416 76.6288 51.688 76.5948 51.8229 76.5322H51.1729ZM51.1729 76.5322C50.9328 76.5332 50.6939 76.5668 50.4629 76.6322H51.3929C51.5416 76.6288 51.688 76.5948 51.8229 76.5322H51.1729ZM51.1729 76.5322C50.9328 76.5332 50.6939 76.5668 50.4629 76.6322H51.3929C51.5416 76.6288 51.688 76.5948 51.8229 76.5322H51.1729ZM51.1729 76.5322C50.9328 76.5332 50.6939 76.5668 50.4629 76.6322H51.3929C51.5416 76.6288 51.688 76.5948 51.8229 76.5322H51.1729Z" fill="white"/>
<path d="M45.0729 76.6322H44.1529C44.0009 76.6299 43.851 76.5959 43.7129 76.5322H44.3629C44.6029 76.5339 44.8417 76.5675 45.0729 76.6322Z" fill="white"/>
<path d="M51.8229 76.5322C51.688 76.5948 51.5416 76.6288 51.3929 76.6322H50.4629C50.6939 76.5668 50.9328 76.5332 51.1729 76.5322H51.8229Z" fill="white"/>
<g filter="url(#filter3_d_1644_168938)">
<path d="M181.364 96.9251C180.664 95.4504 179.659 94.141 178.415 93.0837C177.171 92.0264 175.717 91.2453 174.148 90.7919C172.58 90.3386 170.933 90.2234 169.317 90.454C167.701 90.6845 166.152 91.2556 164.773 92.1294C163.395 93.0032 162.217 94.1599 161.318 95.5228C160.42 96.8858 159.821 98.424 159.561 100.036C159.301 101.647 159.387 103.296 159.812 104.872C160.237 106.448 160.991 107.916 162.026 109.179L170.01 118.919C170.121 119.064 170.264 119.182 170.428 119.262C170.591 119.343 170.771 119.385 170.954 119.385C171.136 119.385 171.317 119.343 171.48 119.262C171.644 119.182 171.787 119.064 171.898 118.919L179.87 109.179C181.269 107.496 182.153 105.446 182.418 103.273C182.683 101.101 182.317 98.8982 181.364 96.9281V96.9251ZM170.954 106.848C169.848 106.847 168.767 106.518 167.848 105.903C166.929 105.288 166.213 104.414 165.791 103.392C165.368 102.37 165.258 101.246 165.474 100.161C165.69 99.0768 166.222 98.0806 167.004 97.2986C167.786 96.5166 168.783 95.984 169.867 95.7679C170.952 95.5519 172.076 95.6622 173.098 96.0848C174.12 96.5075 174.994 97.2235 175.609 98.1425C176.224 99.0615 176.553 100.142 176.554 101.248C176.553 102.733 175.962 104.157 174.912 105.206C173.862 106.256 172.439 106.847 170.954 106.848Z" fill="#C8D3D9"/>
</g>
<path d="M170.955 95.6592C169.849 95.6606 168.768 95.9901 167.848 96.606C166.929 97.222 166.214 98.0967 165.792 99.1195C165.37 100.142 165.261 101.267 165.478 102.352C165.696 103.437 166.23 104.433 167.014 105.214C167.798 105.995 168.795 106.526 169.881 106.74C170.966 106.954 172.091 106.841 173.112 106.415C174.134 105.99 175.006 105.271 175.619 104.35C176.232 103.429 176.557 102.347 176.555 101.24C176.548 99.7588 175.955 98.3404 174.906 97.2947C173.857 96.249 172.436 95.661 170.955 95.6592ZM170.955 104.921C170.23 104.919 169.523 104.702 168.921 104.298C168.32 103.894 167.851 103.321 167.575 102.651C167.299 101.981 167.227 101.244 167.369 100.533C167.511 99.8229 167.86 99.1702 168.373 98.6578C168.885 98.1454 169.538 97.7962 170.248 97.6543C170.959 97.5123 171.696 97.584 172.366 97.8602C173.036 98.1364 173.609 98.6048 174.013 99.2063C174.417 99.8078 174.634 100.516 174.636 101.24C174.631 102.215 174.242 103.148 173.552 103.838C172.863 104.527 171.93 104.916 170.955 104.921Z" fill="white"/>
<path d="M174.635 101.239C174.64 101.968 174.428 102.682 174.027 103.291C173.625 103.899 173.052 104.375 172.38 104.657C171.708 104.939 170.967 105.016 170.251 104.876C169.535 104.737 168.877 104.388 168.36 103.874C167.843 103.361 167.49 102.705 167.346 101.99C167.202 101.275 167.273 100.534 167.551 99.86C167.829 99.186 168.301 98.6096 168.907 98.2041C169.513 97.7986 170.225 97.582 170.954 97.582C171.925 97.587 172.855 97.9731 173.543 98.6572C174.232 99.3412 174.624 100.268 174.635 101.239Z" fill="#C8D3D9"/>
<path d="M118.401 124.895C118.401 127.429 117.649 129.907 116.241 132.014C114.833 134.121 112.831 135.763 110.49 136.732C108.148 137.702 105.572 137.955 103.086 137.461C100.601 136.966 98.3177 135.745 96.5259 133.953C94.734 132.161 93.5138 129.878 93.0195 127.392C92.5252 124.907 92.7791 122.33 93.749 119.989C94.719 117.648 96.3614 115.646 98.4686 114.239C100.576 112.831 103.053 112.079 105.587 112.079C107.271 112.075 108.94 112.403 110.496 113.046C112.053 113.688 113.467 114.632 114.658 115.823C115.849 117.013 116.792 118.428 117.435 119.984C118.077 121.541 118.406 123.209 118.401 124.893" fill="white"/>
<g filter="url(#filter4_d_1644_168938)">
<path d="M121.919 172.228L137.442 153.263C142.392 147.227 145.527 139.91 146.481 132.163C147.436 124.416 146.171 116.557 142.835 109.5C139.498 102.443 134.226 96.479 127.633 92.3007C121.039 88.1225 113.395 85.9021 105.589 85.8978C97.7608 85.8487 90.0808 88.0352 83.4519 92.2003C76.823 96.3654 71.5207 102.336 68.168 109.411C64.8153 116.485 63.5515 124.37 64.5251 132.138C65.4988 139.906 68.6695 147.235 73.6645 153.263L89.1875 172.228C66.3425 174.498 46.9375 181.674 46.9375 193.39C46.9375 207.815 76.4465 215.357 105.516 215.357C134.66 215.357 164.095 207.815 164.095 193.39C164.095 181.674 144.765 174.498 121.919 172.228ZM85.4535 124.928C85.4535 120.945 86.6345 117.052 88.847 113.741C91.0596 110.429 94.2044 107.849 97.8838 106.325C101.563 104.8 105.612 104.402 109.518 105.179C113.424 105.956 117.012 107.873 119.828 110.689C122.644 113.506 124.562 117.093 125.339 120.999C126.116 124.905 125.717 128.954 124.193 132.633C122.669 136.313 120.088 139.458 116.776 141.67C113.465 143.883 109.572 145.064 105.589 145.064C102.943 145.071 100.321 144.556 97.8749 143.546C95.4285 142.537 93.2057 141.054 91.3344 139.183C89.4631 137.312 87.9802 135.089 86.9709 132.642C85.9617 130.196 85.446 127.574 85.4535 124.928ZM105.512 195.079C85.6685 195.079 73.4395 190.612 72.4885 188.489C73.2885 186.439 82.2265 182.924 97.0885 181.899L102.068 187.977C102.469 188.522 102.993 188.964 103.597 189.27C104.201 189.575 104.869 189.734 105.545 189.734C106.222 189.734 106.89 189.575 107.494 189.27C108.098 188.964 108.622 188.522 109.024 187.977L114.003 181.899C128.428 182.924 137.215 186.292 138.46 188.343C136.996 190.832 124.913 195.079 105.509 195.079" fill="white"/>
</g>
<path d="M118.401 124.895C118.401 127.429 117.649 129.907 116.241 132.014C114.833 134.121 112.831 135.763 110.49 136.732C108.148 137.702 105.572 137.955 103.086 137.461C100.601 136.966 98.3177 135.745 96.5259 133.953C94.734 132.161 93.5138 129.878 93.0195 127.392C92.5252 124.907 92.7791 122.33 93.749 119.989C94.719 117.648 96.3614 115.646 98.4686 114.239C100.576 112.831 103.053 112.079 105.587 112.079C107.271 112.075 108.94 112.403 110.496 113.046C112.053 113.688 113.467 114.632 114.658 115.823C115.849 117.013 116.792 118.428 117.435 119.984C118.077 121.541 118.406 123.209 118.401 124.893" fill="white"/>
<defs>
<filter id="filter0_d_1644_168938" x="0.152344" y="13.4277" width="211.693" height="211.694" filterUnits="userSpaceOnUse" color-interpolation-filters="sRGB">
<feFlood flood-opacity="0" result="BackgroundImageFix"/>
<feColorMatrix in="SourceAlpha" type="matrix" values="0 0 0 0 0 0 0 0 0 0 0 0 0 0 0 0 0 0 127 0" result="hardAlpha"/>
<feOffset dy="5"/>
<feGaussianBlur stdDeviation="3"/>
<feColorMatrix type="matrix" values="0 0 0 0 0.784314 0 0 0 0 0.827451 0 0 0 0 0.85098 0 0 0 0.302 0"/>
<feBlend mode="normal" in2="BackgroundImageFix" result="effect1_dropShadow_1644_168938"/>
<feBlend mode="normal" in="SourceGraphic" in2="effect1_dropShadow_1644_168938" result="shape"/>
</filter>
<filter id="filter1_d_1644_168938" x="70.2363" y="11.3081" width="39.1367" height="39.1387" filterUnits="userSpaceOnUse" color-interpolation-filters="sRGB">
<feFlood flood-opacity="0" result="BackgroundImageFix"/>
<feColorMatrix in="SourceAlpha" type="matrix" values="0 0 0 0 0 0 0 0 0 0 0 0 0 0 0 0 0 0 127 0" result="hardAlpha"/>
<feOffset dy="3"/>
<feGaussianBlur stdDeviation="3"/>
<feColorMatrix type="matrix" values="0 0 0 0 0.784314 0 0 0 0 0.827451 0 0 0 0 0.85098 0 0 0 0.502 0"/>
<feBlend mode="normal" in2="BackgroundImageFix" result="effect1_dropShadow_1644_168938"/>
<feBlend mode="normal" in="SourceGraphic" in2="effect1_dropShadow_1644_168938" result="shape"/>
</filter>
<filter id="filter2_d_1644_168938" x="23.9043" y="56.3315" width="47.7168" height="57.1509" filterUnits="userSpaceOnUse" color-interpolation-filters="sRGB">
<feFlood flood-opacity="0" result="BackgroundImageFix"/>
<feColorMatrix in="SourceAlpha" type="matrix" values="0 0 0 0 0 0 0 0 0 0 0 0 0 0 0 0 0 0 127 0" result="hardAlpha"/>
<feOffset dy="3"/>
<feGaussianBlur stdDeviation="3"/>
<feColorMatrix type="matrix" values="0 0 0 0 0.784314 0 0 0 0 0.827451 0 0 0 0 0.85098 0 0 0 0.502 0"/>
<feBlend mode="normal" in2="BackgroundImageFix" result="effect1_dropShadow_1644_168938"/>
<feBlend mode="normal" in="SourceGraphic" in2="effect1_dropShadow_1644_168938" result="shape"/>
</filter>
<filter id="filter3_d_1644_168938" x="153.414" y="87.3384" width="35.0879" height="41.0469" filterUnits="userSpaceOnUse" color-interpolation-filters="sRGB">
<feFlood flood-opacity="0" result="BackgroundImageFix"/>
<feColorMatrix in="SourceAlpha" type="matrix" values="0 0 0 0 0 0 0 0 0 0 0 0 0 0 0 0 0 0 127 0" result="hardAlpha"/>
<feOffset dy="3"/>
<feGaussianBlur stdDeviation="3"/>
<feColorMatrix type="matrix" values="0 0 0 0 0.784314 0 0 0 0 0.827451 0 0 0 0 0.85098 0 0 0 0.502 0"/>
<feBlend mode="normal" in2="BackgroundImageFix" result="effect1_dropShadow_1644_168938"/>
<feBlend mode="normal" in="SourceGraphic" in2="effect1_dropShadow_1644_168938" result="shape"/>
</filter>
<filter id="filter4_d_1644_168938" x="40.9375" y="82.897" width="129.158" height="141.46" filterUnits="userSpaceOnUse" color-interpolation-filters="sRGB">
<feFlood flood-opacity="0" result="BackgroundImageFix"/>
<feColorMatrix in="SourceAlpha" type="matrix" values="0 0 0 0 0 0 0 0 0 0 0 0 0 0 0 0 0 0 127 0" result="hardAlpha"/>
<feOffset dy="3"/>
<feGaussianBlur stdDeviation="3"/>
<feColorMatrix type="matrix" values="0 0 0 0 0.784314 0 0 0 0 0.827451 0 0 0 0 0.85098 0 0 0 0.502 0"/>
<feBlend mode="normal" in2="BackgroundImageFix" result="effect1_dropShadow_1644_168938"/>
<feBlend mode="normal" in="SourceGraphic" in2="effect1_dropShadow_1644_168938" result="shape"/>
</filter>
</defs>
</svg>
