<svg width="18" height="20" viewBox="0 0 18 20" fill="none" xmlns="http://www.w3.org/2000/svg">
<path d="M14.07 1.53922H13.47V1.18922C13.47 0.779219 13.13 0.449219 12.68 0.449219C12.27 0.449219 11.94 0.779219 11.94 1.18922V1.53922H6.06V1.18922C6.06 0.779219 5.72 0.449219 5.27 0.449219C4.86 0.449219 4.53 0.779219 4.53 1.18922V1.53922H3.92C1.76 1.53922 0 3.29922 0 5.45922V15.6092C0 17.7692 1.76 19.5392 3.92 19.5392H14.07C16.24 19.5392 18 17.7692 18 15.6092V5.45922C18 3.29922 16.24 1.53922 14.07 1.53922ZM17 15.6092C17 17.2192 15.68 18.5392 14.07 18.5392H3.92C2.31 18.5392 1 17.2192 1 15.6092V7.18922H17V15.6092ZM17 6.18922H1V5.45922C1 3.84922 2.31 2.53922 3.92 2.53922H4.53V4.07922C4.53 4.48922 4.86 4.81922 5.27 4.81922H5.32C5.72 4.81922 6.06 4.48922 6.06 4.07922V2.53922H11.94V4.07922C11.94 4.48922 12.27 4.81922 12.68 4.81922H12.72C13.13 4.81922 13.47 4.48922 13.47 4.07922V2.53922H14.07C15.68 2.53922 17 3.84922 17 5.45922V6.18922Z" fill="#607079"/>
<path d="M5.78014 10.1783V10.7483C5.78014 11.2683 5.39014 11.6783 4.93014 11.6783H4.24014C3.77014 11.6783 3.39014 11.2683 3.39014 10.7483V10.1783C3.39014 9.65828 3.78014 9.23828 4.24014 9.23828H4.93014C5.40014 9.23828 5.78014 9.65828 5.78014 10.1783Z" fill="#607079"/>
<path d="M14.6002 10.1783V10.7483C14.6002 11.2683 14.2102 11.6783 13.7502 11.6783H13.0702C12.5902 11.6783 12.2202 11.2683 12.2202 10.7483V10.1783C12.2202 9.65828 12.6002 9.23828 13.0702 9.23828H13.7502C14.2202 9.23828 14.6002 9.65828 14.6002 10.1783Z" fill="#607079"/>
<path d="M5.7899 14.4888V15.0588C5.7899 15.5788 5.3999 15.9888 4.9399 15.9888H4.2499C3.7799 15.9888 3.3999 15.5788 3.3999 15.0588V14.4888C3.3999 13.9688 3.7899 13.5488 4.2499 13.5488H4.9399C5.4099 13.5488 5.7899 13.9688 5.7899 14.4888Z" fill="#607079"/>
<path d="M10.2001 14.4888V15.0588C10.2001 15.5788 9.81006 15.9888 9.35006 15.9888H8.67006C8.19006 15.9888 7.81006 15.5788 7.81006 15.0588V14.4888C7.81006 13.9688 8.20006 13.5488 8.67006 13.5488H9.35006C9.82006 13.5488 10.2001 13.9688 10.2001 14.4888Z" fill="#607079"/>
<path d="M14.6002 14.4888V15.0588C14.6002 15.5788 14.2102 15.9888 13.7502 15.9888H13.0702C12.5902 15.9888 12.2202 15.5788 12.2202 15.0588V14.4888C12.2202 13.9688 12.6002 13.5488 13.0702 13.5488H13.7502C14.2202 13.5488 14.6002 13.9688 14.6002 14.4888Z" fill="#607079"/>
<path d="M8.99982 11.7502C8.99982 11.7502 8.97983 11.7502 8.96983 11.7402L7.50983 10.2702C7.38983 10.1502 7.31982 9.98016 7.31982 9.81016C7.31982 9.64016 7.38983 9.48016 7.50983 9.35016C7.62983 9.23016 7.78982 9.16016 7.95982 9.16016C8.12982 9.16016 8.29982 9.23016 8.41982 9.35016L8.99982 9.94016L9.58982 9.35016C9.70982 9.23016 9.86983 9.16016 10.0498 9.16016C10.2298 9.16016 10.3798 9.23016 10.5098 9.35016C10.7598 9.60016 10.7598 10.0102 10.5098 10.2702L9.03983 11.7402H9.00983L8.99982 11.7502Z" fill="#607079"/>
<path d="M7.95982 9.66945C7.95982 9.66945 8.02982 9.66945 8.05982 9.70945L8.28983 9.93945L8.99982 10.6595L9.70982 9.94945L9.94982 9.70945C9.94982 9.70945 10.0198 9.67945 10.0498 9.67945C10.1098 9.67945 10.1398 9.70945 10.1498 9.71945C10.2098 9.77945 10.2098 9.87945 10.1498 9.92945L8.99982 11.0795L8.46983 10.5495L7.85983 9.93945C7.85983 9.93945 7.81982 9.84945 7.81982 9.82945C7.81982 9.79945 7.81983 9.75945 7.85983 9.72945C7.88983 9.69945 7.93982 9.68945 7.95982 9.68945V9.66945ZM7.95982 8.68945C7.66982 8.68945 7.36983 8.79945 7.14983 9.01945C6.92983 9.24945 6.81982 9.53945 6.81982 9.82945C6.81982 10.1195 6.92983 10.4195 7.14983 10.6395L7.75983 11.2495L8.60983 12.1095C8.71983 12.2095 8.85982 12.2695 8.98982 12.2695C9.11982 12.2695 9.26983 12.2195 9.36983 12.1095L10.8398 10.6395C11.2798 10.1895 11.2798 9.45945 10.8398 9.01945C10.6098 8.78945 10.3198 8.68945 10.0298 8.68945C9.73982 8.68945 9.43983 8.79945 9.21983 9.01945L8.98982 9.24945L8.75983 9.01945C8.53983 8.79945 8.23982 8.68945 7.94982 8.68945H7.95982Z" fill="#607079"/>
</svg>
