<svg width="24" height="24" viewBox="0 0 24 24" fill="none" xmlns="http://www.w3.org/2000/svg">
<path d="M3.58074 6.68V3.5C3.24366 3.8179 2.83575 4.05099 2.39074 4.18C2.34141 4.17934 2.29277 4.16831 2.24798 4.14764C2.20319 4.12696 2.16325 4.09711 2.13074 4.06C2.09468 4.02508 2.06629 3.98305 2.04735 3.93657C2.02842 3.89008 2.01935 3.84017 2.02074 3.79C2.01633 3.74096 2.02406 3.6916 2.04324 3.64625C2.06242 3.60091 2.09247 3.56099 2.13074 3.53C2.25569 3.44806 2.38598 3.37457 2.52074 3.31C2.76605 3.20272 2.99498 3.06132 3.20074 2.89C3.36858 2.74401 3.51953 2.57965 3.65074 2.4C3.78074 2.22 3.87074 2.11 3.90074 2.06C3.93074 2.01 4.01074 2 4.12074 2C4.17796 1.99983 4.23452 2.0123 4.28637 2.03649C4.33823 2.06069 4.38411 2.09604 4.42074 2.14C4.50277 2.25271 4.54179 2.39104 4.53074 2.53V6.53C4.53074 7 4.37074 7.23 4.05074 7.23C3.98735 7.2323 3.92421 7.221 3.86556 7.19685C3.80691 7.1727 3.75412 7.13627 3.71074 7.09C3.61901 6.96983 3.57294 6.82098 3.58074 6.67V6.68Z" fill="#354752" stroke="#354752" stroke-width="0.25" stroke-miterlimit="10"/>
<path d="M3.22016 13.33H5.04016C5.18813 13.3228 5.33474 13.3612 5.46016 13.44C5.50734 13.4738 5.54501 13.5191 5.56954 13.5717C5.59407 13.6242 5.60461 13.6822 5.60016 13.74C5.60028 13.8469 5.56114 13.9501 5.49016 14.03C5.44466 14.0721 5.39102 14.1045 5.33256 14.1251C5.27409 14.1458 5.21202 14.1542 5.15016 14.15H2.57016C2.42083 14.1561 2.27462 14.1061 2.16016 14.01C2.11303 13.9668 2.07537 13.9143 2.04955 13.8557C2.02374 13.7972 2.01032 13.734 2.01016 13.67C2.01784 13.5551 2.04845 13.4429 2.10016 13.34C2.1487 13.2178 2.21996 13.1058 2.31016 13.01C2.62016 12.69 2.90016 12.41 3.15016 12.18C3.31816 12.0201 3.49512 11.8699 3.68016 11.73C3.85251 11.6085 4.0132 11.4713 4.16016 11.32C4.27668 11.1948 4.37437 11.0533 4.45016 10.9C4.51619 10.7699 4.55046 10.626 4.55016 10.48C4.55058 10.3392 4.51254 10.2009 4.44016 10.08C4.37216 9.96346 4.27128 9.86955 4.15016 9.81003C4.02624 9.74653 3.88939 9.71232 3.75016 9.71003C3.60559 9.70758 3.46292 9.74326 3.33652 9.81348C3.21013 9.8837 3.10446 9.98598 3.03016 10.11C2.98363 10.2039 2.94354 10.3008 2.91016 10.4C2.86803 10.5301 2.80375 10.6519 2.72016 10.76C2.68252 10.8002 2.6372 10.8324 2.58689 10.8547C2.53658 10.877 2.4823 10.8889 2.42728 10.8899C2.37225 10.8908 2.3176 10.8807 2.26656 10.8601C2.21552 10.8395 2.16914 10.8089 2.13016 10.77C2.08983 10.7295 2.05834 10.681 2.03768 10.6276C2.01703 10.5742 2.00766 10.5172 2.01016 10.46C2.0141 10.2878 2.05146 10.118 2.12016 9.96003C2.2001 9.77313 2.31774 9.60474 2.46571 9.46537C2.61369 9.326 2.78882 9.21865 2.98016 9.15003C3.22732 9.06227 3.48789 9.01827 3.75016 9.02003C4.06203 9.01268 4.37198 9.07059 4.66016 9.19003C4.82308 9.26305 4.9694 9.36854 5.09016 9.50003C5.21283 9.63159 5.31103 9.78397 5.38016 9.95003C5.44788 10.1184 5.48186 10.2985 5.48016 10.48C5.48305 10.7575 5.41047 11.0306 5.27016 11.27C5.15183 11.4773 5.00357 11.666 4.83016 11.83C4.68016 11.97 4.43016 12.17 4.08016 12.46C3.82128 12.6622 3.58038 12.8863 3.36016 13.13C3.29642 13.2012 3.2395 13.2782 3.19016 13.36L3.22016 13.33Z" fill="#354752" stroke="#354752" stroke-width="0.25" stroke-miterlimit="10"/>
<path d="M3.63027 17.97C3.83068 17.9761 4.02637 17.9085 4.18027 17.78C4.2565 17.7128 4.31673 17.6295 4.35653 17.536C4.39633 17.4426 4.41469 17.3414 4.41027 17.24C4.41215 17.1543 4.39624 17.0692 4.36353 16.99C4.33083 16.9108 4.28204 16.8393 4.22027 16.78C4.15469 16.7153 4.07636 16.665 3.99028 16.6323C3.90419 16.5996 3.81223 16.5852 3.72027 16.59C3.60074 16.586 3.48164 16.6064 3.37027 16.65C3.28413 16.683 3.20824 16.7382 3.15027 16.81C3.0937 16.8892 3.04354 16.9728 3.00027 17.06C2.95027 17.16 2.91027 17.26 2.87027 17.35C2.84257 17.4041 2.79648 17.4467 2.74027 17.47C2.67433 17.4995 2.60243 17.5132 2.53027 17.51C2.43311 17.5061 2.34068 17.467 2.27027 17.4C2.23084 17.3608 2.19986 17.314 2.17922 17.2624C2.15858 17.2108 2.14873 17.1555 2.15027 17.1C2.15533 16.9662 2.1931 16.8357 2.26027 16.72C2.34303 16.5749 2.45146 16.4462 2.58027 16.34C2.73666 16.2101 2.91661 16.1117 3.11027 16.05C3.33607 15.9755 3.57251 15.9383 3.81027 15.94C4.02036 15.9375 4.22955 15.9679 4.43027 16.03C4.61039 16.0854 4.77718 16.1773 4.92027 16.3C5.05409 16.4106 5.16024 16.551 5.23027 16.71C5.2988 16.8676 5.33289 17.0381 5.33027 17.21C5.33539 17.4198 5.28355 17.6272 5.18027 17.81C5.06293 17.9944 4.91789 18.1597 4.75027 18.3C4.91885 18.3911 5.07371 18.5055 5.21027 18.64C5.33148 18.7592 5.42679 18.9022 5.49027 19.06C5.55079 19.2162 5.58133 19.3824 5.58027 19.55C5.58254 19.7604 5.53814 19.9687 5.45027 20.16C5.36692 20.364 5.23675 20.5455 5.07027 20.69C4.90182 20.8511 4.70057 20.9739 4.48027 21.05C4.23937 21.1352 3.9858 21.1792 3.73027 21.18C3.47248 21.1834 3.21688 21.1323 2.98027 21.03C2.77542 20.9377 2.58906 20.8089 2.43027 20.65C2.29484 20.5149 2.18625 20.3555 2.11027 20.18C2.04744 20.0552 2.01005 19.9193 2.00027 19.78C1.99815 19.719 2.0086 19.6582 2.03097 19.6014C2.05333 19.5447 2.08713 19.4931 2.13027 19.45C2.22111 19.3696 2.33904 19.3267 2.46027 19.33C2.52828 19.3298 2.59466 19.3508 2.65027 19.39C2.70342 19.4235 2.74523 19.4723 2.77027 19.53C2.85745 19.7908 2.98943 20.0344 3.16027 20.25C3.23283 20.3308 3.32261 20.3943 3.42299 20.4359C3.52337 20.4774 3.63179 20.4959 3.74027 20.49C3.88758 20.4914 4.0326 20.4535 4.16027 20.38C4.29568 20.3031 4.40925 20.1929 4.49027 20.06C4.58898 19.8839 4.63313 19.6825 4.6171 19.4813C4.60108 19.2801 4.5256 19.0882 4.40027 18.93C4.31766 18.852 4.22019 18.7914 4.11367 18.7519C4.00715 18.7124 3.89376 18.6947 3.78027 18.7C3.70681 18.6993 3.63337 18.7027 3.56027 18.71C3.49716 18.7167 3.43373 18.72 3.37027 18.72C3.31609 18.7246 3.26155 18.7181 3.20997 18.7009C3.15838 18.6837 3.11085 18.6561 3.07027 18.62C3.03452 18.5853 3.00698 18.543 2.98968 18.4963C2.97238 18.4496 2.96574 18.3996 2.97027 18.35C2.96735 18.2976 2.97774 18.2454 3.00048 18.1982C3.02321 18.151 3.05754 18.1103 3.10027 18.08C3.20811 18.0044 3.33903 17.969 3.47027 17.98H3.61027L3.63027 17.97Z" fill="#354752" stroke="#354752" stroke-width="0.25" stroke-miterlimit="10"/>
<path d="M7.37109 4.63H22.0311" stroke="#354752" stroke-linecap="round" stroke-linejoin="round"/>
<path d="M7.37109 11.58H22.0311" stroke="#354752" stroke-linecap="round" stroke-linejoin="round"/>
<path d="M7.37109 18.53H22.0311" stroke="#354752" stroke-linecap="round" stroke-linejoin="round"/>
</svg>
